<?xml version="1.0" encoding="utf-8"?>
<!-- Generator: Adobe Illustrator 21.1.0, SVG Export Plug-In . SVG Version: 6.00 Build 0)  -->
<svg version="1.1" id="Layer_1" xmlns="http://www.w3.org/2000/svg" xmlns:xlink="http://www.w3.org/1999/xlink" x="0px" y="0px"
	 viewBox="0 0 383 380" style="enable-background:new 0 0 383 380;" xml:space="preserve">
<style type="text/css">
	.st0{fill:#FF0000;stroke:#000000;stroke-miterlimit:10;}
	.st1{fill:#13FF00;stroke:#000000;stroke-miterlimit:10;}
	.st2{fill:#1F00FF;stroke:#000000;stroke-miterlimit:10;}
	.st3{fill:#E7FF00;stroke:#000000;stroke-miterlimit:10;}
</style>
<title>gruppe</title>
<g id="red">
	<path class="st0" d="M60.5,50.5c36.1-22.8,52-65,79-17s31,79,23,91s-30,48-76,41s-64,15-67-46S41.5,62.5,60.5,50.5z"/>
</g>
<g id="green">
	<path class="st1" d="M264.5,247.5c36.1-22.8,52-65,79-17s31,79,23,91s-30,48-76,41s-64,15-67-46S245.5,259.5,264.5,247.5z"/>
</g>
<g id="blue">
	<path class="st2" d="M55.5,249.5c36.1-22.8,52-65,79-17s31,79,23,91s-30,48-76,41s-64,15-67-46S36.5,261.5,55.5,249.5z"/>
</g>
<g id="yellow">
	<path class="st3" d="M257.5,51.5c36.1-22.8,52-65,79-17s31,79,23,91s-30,48-76,41s-64,15-67-46S238.5,63.5,257.5,51.5z"/>
</g>
</svg>
