<svg id="Layer_1" data-name="Layer 1" xmlns="http://www.w3.org/2000/svg" width="500" height="750" viewBox="0 0 500 750">
  <title>boy</title>
  <g>
    <path d="M288.92,150.31c-3.63,2-3,2.49-6.77,4.74-13.84,8.32-25.88,3.56-41.94,5.41-6.6.76-24.15,2.79-34.5,14.88-12.22,14.27-13.28,41.23,0,53.44,10.33,9.5,25.83,6.89,46.68,3.38,23.11-3.89,24.12-13.08,45.33-15.56,18.53-2.17,23.6,3.4,35.18-2,10.31-4.83,21.28-16.26,21.65-30.44.49-18.94-18.23-31.6-30.44-35.86C322.48,147.72,304.6,141.77,288.92,150.31Z" fill="#ffe15c"/>
    <path d="M188.62,209.56c-8.88-14.79-41.42-11.83-41.42-11.83s20.71-13.31,27.37-15.53-9.61-14.05-19.23-19.23-3.7-14.05,5.92-14.05,36.24,5.92,36.24,5.92S187.14,131.17,182,124.51a28.38,28.38,0,0,0-11.09-8.88,225.29,225.29,0,0,1,31.8,13.31c15.53,8.14,17,3.7,15.53-3.7s-11.09-35.5-11.09-35.5l37.72,27.37s7.4-17,10.35-23.67S262.58,69,262.58,69s8.88,7.4,7.4,17.75,2.22,22.93,2.22,22.93,5.18-15.53,14.05-20,21.45-17,21.45-17-2.22,12.57-3.7,20,0,20,0,20,5.92-11.09,16.27-15.53,14.79-10.35,14.79-10.35,0,11.83-5.92,19.23-4.44,11.83-4.44,11.83,14.79-7.4,20.71-8.88-7.4,13.31-7.4,13.31l25.15,4.44-8.88,17.75,17-5.18-12.57,25.89s-14.05-37.72-44.38-35.5c-15,1.1-31.47,9.95-51.77,14.79-20.6,4.92-45,4.39-54.73,10.35-19.23,11.83-17,20.71-17.75,28.1S188.62,209.56,188.62,209.56Z" fill="#b19100"/>
    <path d="M224.12,458.07c3-17.75,3-34,19.23-42.9s37.72-24.41,37.72-24.41,3.7,14.05,16.27,19.23,20,5.18,32.54,1.48,17-17,17-17a167.3,167.3,0,0,1,32.54,7.4c17.75,5.92,32.54,7.4,41.42,17.75s16.27,5.92,17.75,22.19,1.48,29.58,1.48,29.58Z" fill="#cb0000"/>
    <g>
      <path d="M153.31,524.25c-19.31-17.19-31.5-39.11-42.59-61.88C103,446.51,95,430.77,88.07,416.83c-36.33-8.45-63.85-26.7-84-56.21v-13l16.8-12.21c-8.92-24.2-3.05-37.64,20.28-40.76-.48-8-.41-16.81,8.1-20.64,6.78-3.05,14.57-3.89,23.66-6.15C70.59,256.33,68.24,242,64.63,228c-4.18-16.24-9.59-32.16-14.25-48.29-3.17-11,.22-21.18,7.92-25.13,7-3.57,20.65.92,25.54,9.94,5.33,9.83,10.39,20.2,13.15,31,7,27.43,12.66,55.23,19.11,82.81.51,2.16,2.76,4.9,4.8,5.57,25.66,8.42,31.79,18.92,25.33,45-4.63,18.7-9.66,37.29-14.42,56-.51,2-1.29,4.56-.53,6.2,8.41,18.08,17.11,36,25.73,54l2.78-.59m-98-68.5c2.07,9.67-2,16.43-13.28,19.49,10.56,4.8,20.65,9.47,31.24,11.44,11.1,2.07,21.63-1.58,29.74-10.63l1.7,2.24-15.37,15c19.21,33.82,30.81,73.31,61.26,102.69,1.71-16.89,1.73-33.52,1.68-50.15a10.86,10.86,0,0,0-.8-4.45c-6.6-14.12-12.58-28.59-20.14-42.17-11.41-20.5-13-40.86-5.94-63.38,4.81-15.29,6.55-31.74,8-47.82,1.22-13.35-2.6-16.52-15.88-16.45-8.74,0-13.63-3.8-15.46-12.24C103,253.85,98.11,228,91.31,202.68c-3.65-13.58-6.34-28.29-18-38.49-7.66-6.71-15.31-5.47-16.7,4.38-1.15,8.13.65,17.34,3.46,25.25,8.29,23.32,17.79,46.34,18.61,71.4.28,8.46,2.77,14.87,7,21.86,4.61,7.6,7,16.54,10.75,25.83l20.63-13.11c-5.89,11-14.34,18.4-26,21.85-5.58,1.66-11.63,4.38-8.57,11.05,1.86,4.06,7.45,8.12,11.92,8.89,8.29,1.41,17,.4,23.5.4-1.52,1.85-6.57,5.24-7.14,9.27-1.1,7.73-6.05,12-11.78,12.27-10.25.49-11,6.34-11.14,13.84a22.76,22.76,0,0,1-.86,3.54l-1.27-5ZM91.18,314.3c-6.29-10.76-11.86-21.61-18.74-31.55-4.38-6.33-11.31-8.16-18.75-3.87s-8.6,11.1-5.84,18.37c4.33,11.38,8.75,22.79,14.23,33.64,6.21,12.3,15.35,22.13,29,26.66,8,2.64,12.39-.06,12.72-7.79-11.18-1.05-23.37-.57-27.62-14.54C72.48,323,83,320,91.18,314.3ZM37.4,301.36c-4.41,2.15-7.05,3-9.22,4.57-6.52,4.64-10.37,16-4,25.49,10.46,15.5,22.64,29.23,39.09,38.64,2.12,1.21,4.84,3.39,6.59,2.86a45.21,45.21,0,0,0,12.81-6.56c.48-.34-1.66-6.63-3.93-8.18C61.58,346.5,53.34,328.77,45.14,310.8,43.51,307.22,40,304.48,37.4,301.36Zm10.93,87.4c1.58-1,5.64-2.52,7.55-5.42,1.28-1.94.61-6.81-1.06-8.79A290.12,290.12,0,0,0,33.42,352a27.2,27.2,0,0,0-11.59-6.81c-3.25-.79-8.11.29-10.56,2.45-2.12,1.88-3.15,6.75-2.44,9.78C11.81,369.95,33.19,387.43,48.33,388.76Z"/>
      <path d="M61.8,375.93h24l1.27,5a22.76,22.76,0,0,0,.86-3.54c.1-7.51.89-13.36,11.14-13.84,5.73-.27,10.68-4.54,11.78-12.27.57-4,5.62-7.42,7.14-9.27-6.51,0-15.21,1-23.5-.4-4.48-.76-10.06-4.83-11.92-8.89-3.06-6.68,3-9.4,8.57-11.05,11.62-3.45,20.07-10.88,26-21.85L96.48,312.91c-3.74-9.29-6.14-18.23-10.75-25.83-4.25-7-6.73-13.4-7-21.86-.83-25.06-10.32-48.08-18.61-71.4-2.81-7.91-4.61-17.12-3.46-25.25,1.39-9.85,9-11.09,16.7-4.38,11.64,10.19,14.33,24.91,18,38.49C98.11,228,103,253.85,108.58,279.5c1.84,8.45,6.73,12.29,15.46,12.24,13.27-.07,17.1,3.09,15.88,16.45-1.47,16.08-3.21,32.53-8,47.82-7.08,22.52-5.46,42.88,5.94,63.38C145.4,433,151.38,447.44,158,461.56a10.86,10.86,0,0,1,.8,4.45c.05,16.63,0,33.26-1.68,50.15C126.64,486.78,115,447.29,95.83,413.47l15.37-15-1.7-2.24c-8.11,9-18.64,12.7-29.74,10.63-10.59-2-20.68-6.64-31.24-11.44C59.83,392.36,63.86,385.61,61.8,375.93Z" fill="#ffe15c"/>
      <path d="M91.18,314.3C83,320,72.48,323,76.19,335.22c4.25,14,16.44,13.49,27.62,14.54-.33,7.72-4.76,10.42-12.72,7.79-13.65-4.52-22.79-14.35-29-26.66-5.48-10.85-9.91-22.26-14.23-33.64-2.76-7.27-1.72-14,5.84-18.37s14.36-2.47,18.75,3.87C79.32,292.69,84.89,303.55,91.18,314.3Z" fill="#ffe15c"/>
      <path d="M37.4,301.36c2.63,3.13,6.11,5.86,7.74,9.44,8.19,18,16.44,35.7,33.62,47.38,2.27,1.55,4.41,7.83,3.93,8.18a45.21,45.21,0,0,1-12.81,6.56c-1.75.54-4.46-1.65-6.59-2.86-16.45-9.4-28.63-23.13-39.09-38.64-6.39-9.47-2.54-20.85,4-25.49C30.35,304.39,33,303.51,37.4,301.36Z" fill="#ffe15c"/>
      <path d="M48.33,388.76c-15.14-1.32-36.52-18.81-39.5-31.39-.72-3,.31-7.9,2.44-9.78,2.45-2.17,7.31-3.24,10.56-2.45A27.2,27.2,0,0,1,33.42,352a290.12,290.12,0,0,1,21.39,22.6c1.67,2,2.34,6.84,1.06,8.79C54,386.23,49.91,387.71,48.33,388.76Z" fill="#ffe15c"/>
    </g>
    <path d="M187.14,264.29c4.18-31.34,3-31.06,1.48-54.73s3-47.33,16.27-54.73,32.54-4.44,57.69-13.31,39.94-19.23,56.95-14.79,20,7.4,28.1,20.71,12.57,38.46,17,48.81,4.44,4.44,17.75,1.48,17.75-4.44,25.15,8.88,4.44,26.63-5.18,34.76S379.43,248,379.43,248s5.92,32.54-3,56.21-20.71,41.42-34,51.77-48.81,16.27-65.08,13.31-54.73-16.27-68-35.5S184.18,286.48,187.14,264.29Z" fill="#ffe15c"/>
    <path d="M225,449.54c.39-3.76.59-6.84,1-9.89,2.12-14.46,10.61-23.94,23.31-30.45a285.46,285.46,0,0,0,25.9-14.84c3.28-2.14,8.13-7.63,7.36-9.18-2.65-5.38-.68-12.7-11.26-15.05-39.24-8.72-69.68-29.67-82.93-69.86-3.07-9.3-3.24-17.24-17.05-20.58-20.37-4.92-28.64-30.22-18.44-45.95,6.06-9.34,14.78-14.66,26.09-15.32,2.62-.16,5.25-.28,8.35-.44-2-8.33-5-15.34-13.32-18.32-12.38-4.46-23.11.53-34.8,6.46,7.47-13.22,18.94-20.85,31.53-27.71-10-9.33-15.86-24.52-33.81-20.7,8-5,15.6-3.26,22.27,1.4,8.08,5.64,15.5,12.23,23.16,18.47.48.39.53,1.29.82,2L152.91,194l.73,2.4c10.89-4.46,21.4-4.65,30,1.8l9.75-28.32c-2.26,23.85-1.45,46.92,5.78,70.67l-5.88-2.29c-4.78,24.29-6.39,48.2,5.42,71.1,15.79,30.6,42,47.16,74.79,53.86,21.36,4.36,42.35,2.4,61.47-9.34,23.19-14.25,36-35.77,41.3-61.82,4.91-24,1.68-47.37-8.92-69.7l1.78-.71c3.37,6.43,6.54,13,10.23,19.2,1.09,1.85,3.57,3.89,5.54,4,11.36.83,23.1-11.71,23.51-24.59.34-10.59-9.3-19.52-21.2-19.59a45.05,45.05,0,0,0-8.11.22c-6.1,1.09-6.82,2.11-7.32,10.38-12.22-12.35-13.58-26.68-13.85-41.44l11.44,31.36c10.49-6.89,21.35-9.72,31.9-3.24,5.21,3.2,10.57,8.52,12.61,14.08,6.72,18.26-6.54,34.5-31.44,39.9,6.94,33.65-3.19,63.29-21.89,90.71-3,4.37-7.12,8.73-11.75,11-8.47,4.2-9.06,10.79-7.82,18.4,1.41,8.71,3,16.86,13.87,19.77,17.29,4.65,34.25,10.5,51.34,15.88,1.25.39,2.39,1.13,3.15,3.4-7.23-1.23-14.57-2-21.66-3.81-9.64-2.44-19.2-5.32-28.55-8.68-4.55-1.63-6.38-1.06-9.07,3.3-8.56,13.87-21.56,20.61-37.84,18.95-13.84-1.41-25.71-7.1-33.36-21-9.42,4.92-18.77,10.52-28.69,14.79-15.28,6.58-19,20-22.18,34h12.36L241,438l1.51-.13,2.82,9.65h161.9V433c5.58,3.82.22,14.24,9.87,14.54,6.52.2,13.05,0,19.58,0l1.35-2.2c-3.49-5.93-6.3-12.43-10.67-17.61s-10.19-8.87-15.38-13.22l3-2.85c13.85,8,24.43,18.75,28.84,36.3M287.09,374.21c1.2,3.47,2.68,8.09,4.37,12.63,5.91,15.85,18.25,22.26,34.3,17.91,6.59-1.78,11.46-8.13,10.68-13.9-1.2-8.85-2.37-17.7-3.34-24.89ZM164.28,256.1c-3.67-7.36-1.77-13,3.55-17.58s12.76-4.09,21.89,1.37c4.36-8,1.71-14.88-6-15.5-16.54-1.33-30.71,11.83-29,28.26,1.59,15.11,8.95,23.36,24.13,23.31,1.74,0,4.77-2.16,5-3.65,1-7,1.18-14.1,1.8-21.15.47-5.33-1.79-8.09-7-9.21s-9,.61-11.3,5.34A86.83,86.83,0,0,0,164.28,256.1ZM343.77,391c-2.15,15.63-12.16,21.39-25.92,21.07-13-.31-23.89-5.7-30.64-17.73-5.8,5.66.38,7.87,2.43,10.47,11.92,15.15,37.83,15.79,51,3.93C346.46,403.49,347.89,396.69,343.77,391Z"/>
    <path d="M262.55,64.6C270.85,74.45,272.8,86.12,272,99c9.43-13.1,29.19-14.16,35.52-31.53.27,6.06,1.23,12.2.62,18.17-.63,6.16-2.78,12.16-3.58,18.86,9.23-10.63,27.59-8.63,32.6-24.73,2,11.92,1.55,14.1-6.69,30.58,10.15-2.54,19.94-8.29,29.17-1.5L337.89,122.2l.2.14,4.82-12.4-19,14.12c-4.75-12.59,7.2-20,10.6-30.6-8.78,8.76-25.71,6.45-28.39,22.64-6.67-4.46-8.11-8.59-5.94-16.46,2.25-8.14,4.7-16.23,6.85-23.59-7.34,6.22-14.81,12.7-22.44,19-6.21,5.11-9.52,11-5.6,19.16-7.1-.34-11.59-6.91-12.05-16.27-.4-8-1.07-16-1.65-24,0-.18-.33-.34.22.19l-18.05,46.26-39.3-26.23c3.16,5.32,5.33,9.79,8.24,13.7,8.5,11.41,8.86,19,.43,31.11l-40.7-25.47c14.91-.93,26.18,10.78,38.73,19.14,5.9-8.68,2.69-15.8-2.3-22.49-6.3-8.44-8.16-17.45-4.08-28.79,5.17,18.88,23.49,20.21,35.47,29.86,5.94-15.4,19.64-28,15.62-46.57Z"/>
    <path d="M228.47,292c29.28-6.57,57.09-11.3,81-26.45,11-7,20.16-16.89,29.88-25.78,4.5-4.11,8.29-4.51,11.94.38,1.52,2,3.1,5,2.76,7.3-2.63,17.44-4.89,35-9,52.13-2.63,11-10.92,19.08-21.81,22.93-13.41,4.74-26.91,10.11-40.83,12.31-14.1,2.23-26.21-5.65-36.87-14.46a51.06,51.06,0,0,1-11.35-12.43C231.42,303.24,230.38,297.52,228.47,292Zm72,9.47-2.62-12.15.82-.19L304,299.74c26.43-9.09,38.72-27.4,30.55-46.08-22.91,23.41-53.4,30.68-83.73,39.09C265.74,310.39,271,310.67,300.46,301.44Z"/>
    <path d="M244.53,227.56c-20.53,2.86-31.46-2.15-38.46-15.39-5.1-9.66-1.15-27.54,8.73-35.67,8.33-6.86,24.85-10.34,37.51-2.47,11.41,7.09,13.9,16,9.23,36.87,13.26-3.7,26.37-6.37,39,.33-10.47,1.42-21.28,1.63-31.22,4.68-6.34,1.94-12.65,7.14-16.73,12.56-5.16,6.85-1,14.85,7.42,16.47,20.37,3.9,37.44-1.72,50.55-18.1l1.71,1.09c-2.9,4.09-5.31,8.65-8.77,12.18-12.18,12.41-35,16.69-49,9.64C244.2,244.52,241.67,239.12,244.53,227.56Zm-9.3-52.17c-14.81-.16-27.77,9.74-27.3,21.58.66,16.72,9.62,25.05,24,25.56,12.67.45,28.29-7.9,27.95-21.94C259.48,184.72,251,175.55,235.23,175.38Z"/>
    <path d="M320.71,211c-18.12,1.71-31.39-14.25-31.73-29.72-.37-16.92,16.95-29.82,32.09-29.7,12.69.1,29.29,10.64,29.77,30C351.17,195.28,341.8,212,320.71,211ZM319,157.11c-14.84.74-26.27,9.42-26.4,24.46-.12,14.24,11.4,24.54,26.9,24.94,13.57.36,26-11.21,25.89-24.09C345.25,168.12,333.69,157,319,157.11Z"/>
    <path d="M204.61,154.19c-5.2,5.63-11.4,6.72-18,3.48-10.16-5-20.23-9.76-33.31-4.82,8-7.24,17.83-7.88,27.68-3.45,4.71,2.12,9.78,3.45,16,5.6-11.8-26.8-13.88-29.53-29.44-39.34,9.53.47,16.77,4.88,22.54,14.15C194.94,137.66,199.55,145.68,204.61,154.19Z"/>
    <path d="M337.89,122.2c.47.49,1,1.43,1.42,1.4,9.54-.66,19.07-1.42,29.88-2.27l-12.26,21.26,22-5.19,1,2.29c-11.5,3.92-14.19,14.34-17.85,24l-2.48-.8,3.65-17.37-9.22,3.91c-3.55-11.17,4.91-16.66,9.27-22.64H336.53l1.56-4.49Z"/>
    <path d="M280.26,341.19c23.12.75,43.09-3,59.79-16.73C337.35,340.16,301.47,351.43,280.26,341.19Z"/>
    <path d="M357.18,163.73c-17.8-33.33-37-36.19-59.76-35,12-5.72,23.79-3.25,35.06,2.19C346.25,137.54,353.07,149.75,357.18,163.73Z"/>
    <path d="M224.27,146.56c6-1.64,12-4.62,18.06-4.65,14.84-.07,28-5.44,41.48-10.42a8.58,8.58,0,0,1,2.63-.16c-17.5,16.49-40.2,14.47-61.6,17.17Z"/>
    <path d="M245.85,162.93c-18.64-3.58-34.81-.63-47.19,17.8,1.31-11.23,7-16.89,15-20.52C224.68,155.19,235.63,153.86,245.85,162.93Z"/>
    <path d="M397,233.89c2-7.34,3.66-13.29-3-17.52-9.66-6.15-13.7,3.06-20,7.78-1.63-8,2.51-11.93,8.35-14.45,6.77-2.92,15,.12,19,6.54C404.77,221.81,403.63,227.78,397,233.89Z"/>
    <path d="M333.26,222.59c7.45-6.34,18.47-4.37,25.74,1.13,8.85,6.69,11.27,22.92,6.17,35.37C361.77,225.22,360.8,224.12,333.26,222.59Z"/>
    <path d="M341.27,148.2c-18.11-8.75-34.79-9.53-50.71,4C295.35,134.31,330.36,131.65,341.27,148.2Z"/>
    <path d="M269.75,200l-5.58-24.18C271.41,181.53,273.95,192.17,269.75,200Z"/>
    <path d="M204.2,218.84l17.48,15.21C214.45,235.28,205.92,228,204.2,218.84Z"/>
    <path d="M355.71,193.7c-.25,8.94-5.69,14.62-14.94,19.78Z"/>
    <path d="M287.09,374.21l46-8.25c1,7.19,2.14,16,3.34,24.89.78,5.76-4.08,12.11-10.68,13.9-16.06,4.35-28.39-2.07-34.3-17.91C289.77,382.3,288.28,377.68,287.09,374.21Z" fill="#ffe15c"/>
    <path d="M164.28,256.1a86.83,86.83,0,0,1,3.08-8.82c2.25-4.73,5.92-6.49,11.3-5.34s7.52,3.89,7,9.21c-.62,7.05-.79,14.16-1.8,21.15-.22,1.48-3.25,3.64-5,3.65-15.18.05-22.54-8.2-24.13-23.31-1.73-16.43,12.44-29.59,29-28.26,7.67.62,10.32,7.52,6,15.5-9.13-5.45-16.51-6-21.89-1.37S160.6,248.74,164.28,256.1Z" fill="#ffe15c"/>
    <path d="M343.77,391c4.12,5.73,2.68,12.53-3.1,17.73-13.19,11.86-39.11,11.22-51-3.93-2-2.6-8.23-4.81-2.43-10.47,6.74,12,17.59,17.42,30.64,17.73C331.61,412.35,341.62,406.59,343.77,391Z" fill="#fff"/>
    <path d="M300.46,301.44c-29.44,9.23-34.72,8.95-49.69-8.69,30.32-8.41,60.82-15.68,83.73-39.09,8.17,18.68-4.11,37-30.55,46.08l-5.29-10.64-.82.19Z" fill="#fff"/>
    <rect x="156.32" y="447.98" width="305.79" height="244.22" fill="#fff"/>
    <g>
      <path d="M366,445.27h23.91M223.64,446.8c44.18-.6,88.37-.93,132.56-1.34,2,0,3.93,0,6.29,0m31.29.86h71.69V506.5c4.49,0,8.77-.09,13,0,6.08.15,11.79,2.76,12.49,8.65.41,3.48-3.95,7.55-6.2,11.32a5.9,5.9,0,0,1-1.21,1.14l11,7.12v12l-6.47,4.86c2.72,6.4,1.12,11.79-3.79,17-2.4,2.56-3,6.79-4.46,10.26.94-6-1.76-8.45-7.23-7.42,3.52-2.31,7.55-4.29,10.64-7.26,1.76-1.7,3.33-5.61,2.51-7.41s-4.64-3-7.22-3.17c-3.88-.22-7.82.71-11.73,1.15l-.24-1.62c4.23-.81,8.42-1.93,12.69-2.35,5.53-.55,10.19-2.28,11.27-8.21,1.18-6.48-3.55-9.2-8.68-10.57-13.88-3.69-26.58.62-38.49,7.2-4,2.21-4.68,6.84.18,9.46s10.15,4.27,14.2,5.92l-15.89,7c5.7,9.77,14.31,7.07,22.93,8.46l-18,6.36.63,2.79c10.17,4.76,20.6,4.93,31.26.79L463.88,588c0,29.83,0,61.72,0,93.6,0,.89,0,1.78-.09,2.66-.72,10.09-.89,10.46-10.74,10.45q-124.2,0-248.41-.19c-15,0-30,0-45-1.12,100.31-2.88,200.61-3.76,301.73-1.45V587.44c-5.75-2.39-11.68-4.62-17.25-7.54-.55-.29,1.09-4.77,1.83-7.75-9.19-6.52-9.57-9.93-1.06-17.09-11.67-9.11-11.89-13-1.25-21.53-7.09-6.4-7.44-9.73-.32-15.93a50.4,50.4,0,0,1,13.41-8c3.39-1.44,4.54-2.94,4.61-6.62.34-17.94,1-35.87,1.62-54.08H168l0-1.75H211.6m243.8,82.44a26.65,26.65,0,0,0,3.39.33c9.32-.08,18.56-.51,25.93-7.4,5.4-5.05,4.39-10-2.45-12-9.4-2.73-18.27.24-27.07,2.89a26.6,26.6,0,0,0-9.82,5c-1.78,1.57-3.17,5.33-2.5,7.37.59,1.78,4.21,2.82,6.67,3.65C451.14,530,453.06,529.59,455.41,529.59Z"/>
      <path d="M152.47,475.35c.24.5.86.82,2.93,2.71v-21.8l2.11.06c-1.39,78.38,3.31,156.77-.43,235.14l-2.19,0c-.5-6.53-1.41-13.06-1.42-19.6-.1-38.2,0-76.4.07-114.61,0-2.43.34-4.86.48-7.29"/>
      <path d="M478.7,580c-10.67,4.15-21.09,4-31.26-.79l-.63-2.79,18-6.36c-8.62-1.39-17.24,1.3-22.93-8.46l15.89-7c-4.05-1.65-9.38-3.31-14.2-5.92s-4.18-7.25-.18-9.46c11.91-6.58,24.61-10.88,38.49-7.2,5.13,1.36,9.86,4.09,8.68,10.57-1.08,5.93-5.75,7.66-11.27,8.21-4.27.42-8.46,1.54-12.69,2.35l.24,1.62c3.91-.44,7.86-1.37,11.73-1.15,2.58.15,6.4,1.35,7.22,3.17s-.75,5.72-2.51,7.41c-3.09,3-7.13,4.95-10.64,7.26,5.47-1,8.17,1.41,7.23,7.42Z" fill="#ffe15c"/>
      <path d="M455.41,529.59c-2.34,0-4.26.43-5.85-.1-2.46-.83-6.08-1.87-6.67-3.65-.67-2,.73-5.8,2.5-7.37a26.6,26.6,0,0,1,9.82-5c8.8-2.65,17.67-5.62,27.07-2.89,6.84,2,7.85,6.93,2.45,12-7.36,6.89-16.61,7.32-25.93,7.4A26.65,26.65,0,0,1,455.41,529.59Z" fill="#ffe15c"/>
    </g>
    <path d="M235.23,176.06c15.73.17,24.25,9.34,24.64,25.2.35,14-15.27,22.38-27.95,21.94-14.38-.51-23.33-8.84-24-25.56C207.46,185.8,220.43,175.9,235.23,176.06Z" fill="#fff"/>
    <path d="M319,157.79c14.71-.07,26.26,11,26.39,25.31.11,12.88-12.32,24.45-25.89,24.09-15.5-.41-27-10.7-26.9-24.94C292.71,167.21,304.15,158.52,319,157.79Z" fill="#fff"/>
    <path d="M241.44,181.77c10-1.42,18.84,8.18,16.35,17.78a13,13,0,0,1-11,9.24,11.85,11.85,0,0,1-10.67-5.33,10,10,0,0,1-1.07-7.82c1.07-4.62,5.69-7.11,10.31-6.4a6.65,6.65,0,0,1,5,9.24c-1.42,3.2-6.4,4.27-8.18.71a2.44,2.44,0,0,1,1.07-3.2c1.07-.36,2.13.71,2.84.36,1.42-.71-.71-2.84-1.42-3.2-1.42-.36-3.56-.36-4.62,1.07a7,7,0,0,0-.71,7.82,8.31,8.31,0,0,0,13.51,0c3.2-3.91,2.84-8.89,0-12.8a12.17,12.17,0,0,0-14.58-3.56,14,14,0,0,0-7.11,7.82c-2.84,7.47,1.78,16,8.89,18.84,6.45,2.93,12.18-.18,17.59-3.45-3.4,4.75-8.19,7.72-13.51,7.72-7.21,0-13.46-5.45-16.57-13.42C226.4,193.78,230.45,183.34,241.44,181.77Z"/>
    <path d="M312.46,166.21c-10-1.42-18.84,8.18-16.35,17.78a13,13,0,0,0,11,9.24,11.85,11.85,0,0,0,10.67-5.33,10,10,0,0,0,1.07-7.82c-1.07-4.62-5.69-7.11-10.31-6.4a6.65,6.65,0,0,0-5,9.24c1.42,3.2,6.4,4.27,8.18.71a2.44,2.44,0,0,0-1.07-3.2c-1.07-.36-2.13.71-2.84.36-1.42-.71.71-2.84,1.42-3.2,1.42-.36,3.56-.36,4.62,1.07a7,7,0,0,1,.71,7.82,8.31,8.31,0,0,1-13.51,0c-3.2-3.91-2.84-8.89,0-12.8a12.17,12.17,0,0,1,14.58-3.56,14,14,0,0,1,7.11,7.82c2.84,7.47-1.78,16-8.89,18.84-6.45,2.93-12.18-.18-17.59-3.45,3.4,4.75,8.19,7.72,13.51,7.72,7.21,0,13.46-5.45,16.57-13.42C327.5,178.22,323.45,167.78,312.46,166.21Z"/>
    <g>
      <path d="M368.39,667.08c.87-.6,2.62-2.21,2.05-2.15l-3.19,2.46Z" fill="#d22020"/>
      <path d="M372.6,660.52a36.78,36.78,0,0,0-7.25,5.5c3.18-2.24,2-1.11,5.77-3.82.57-.06-.61,1.28-1.76,2.21.86-.59-.34,1,1.69-.56,2.08-2.37,1.83-2.86-.49-1.6A16.1,16.1,0,0,1,372.6,660.52Z" fill="#d22020"/>
      <path d="M357.11,632.17l-.24.46A.89.89,0,0,0,357.11,632.17Z" fill="#d22020"/>
      <path d="M346.71,615.47c.17.06.52-.14.82-.36A1.45,1.45,0,0,0,346.71,615.47Z" fill="#d22020"/>
      <path d="M348.19,610.13a2.21,2.21,0,0,0-.1.32C348.34,610.17,348.46,610,348.19,610.13Z" fill="#d22020"/>
      <path d="M357.11,632.17l.66-1.2C356.72,631.76,357.18,631.79,357.11,632.17Z" fill="#d22020"/>
      <path d="M362.37,663.51a3.77,3.77,0,0,0,1-.47,2.4,2.4,0,0,1-.5.07Z" fill="#d22020"/>
      <path d="M365.08,636.79l.11.12c.38-.26.84-.57,1.35-.94Z" fill="#d22020"/>
      <path d="M369.77,641.46a39.42,39.42,0,0,0-3.83,2.86,8.05,8.05,0,0,1,2-1.25C368.45,642.65,369,642.14,369.77,641.46Z" fill="#d22020"/>
      <path d="M371.93,653.36l.48-.17C372.27,653.26,372.12,653.28,371.93,653.36Z" fill="#d22020"/>
      <path d="M362.66,632.67c.39-.33.72-.63.91-.82C363.24,632.12,362.94,632.39,362.66,632.67Z" fill="#d22020"/>
      <path d="M238,491.44l.54-.29C238.25,491.28,238,491.39,238,491.44Z" fill="#d22020"/>
      <path d="M249.37,476.66h.21l1.71-.87Z" fill="#d22020"/>
      <path d="M348,602.64l0,.06C348.38,602.6,348.27,602.57,348,602.64Z" fill="#d22020"/>
      <path d="M313.69,558.89c-2.19,2.23-3.84,1.33-6.13,4C308.62,562.09,312.48,560.65,313.69,558.89Z" fill="#d22020"/>
      <path d="M362.59,663.09a.37.37,0,0,1-.21-.19C362.38,663.07,362.45,663.13,362.59,663.09Z" fill="#d22020"/>
      <path d="M307.56,562.91h0l-.21.26Z" fill="#d22020"/>
      <path d="M338,592.71c-.47.38-.8.7-1.12,1A11.14,11.14,0,0,0,338,592.71Z" fill="#d22020"/>
      <path d="M340.33,604l.21-.48C340.35,603.77,340.32,603.9,340.33,604Z" fill="#d22020"/>
      <path d="M330.91,591.2c.13-.27.48-.58,0-.47l-.3.29C331,590.81,331.25,590.75,330.91,591.2Z" fill="#d22020"/>
      <path d="M327.6,586.63c-.2.18-.33.32-.5.49l.25,0Z" fill="#d22020"/>
      <path d="M247.9,506.13c.78-.58,1.67-1.16,2.56-1.73C248.38,505.66,247.21,505.34,247.9,506.13Z" fill="#d22020"/>
      <path d="M363.83,662.26a4.92,4.92,0,0,1-1.23.83.78.78,0,0,0,.26,0A9,9,0,0,0,363.83,662.26Z" fill="#d22020"/>
      <path d="M308.93,606.89l-.14-1A1.17,1.17,0,0,0,308.93,606.89Z" fill="#d22020"/>
      <path d="M269.3,541.73l-.46,0C268.81,541.88,268.94,541.89,269.3,541.73Z" fill="#d22020"/>
      <path d="M306.79,603.92a10.68,10.68,0,0,0,1.62-1.81c-.24.13-.44.22-.78.43Z" fill="#d22020"/>
      <path d="M250.49,504.38l0,0Z" fill="#d22020"/>
      <path d="M240.45,503c.34.82,4.06-1.76,6.41-2.83,1.62.3-2.67,2-4.51,3.44,1.36,0,5.22-1.55,5.3-1a8.38,8.38,0,0,1-1.69,1c3.46-1.13,1.14,1.71,5.46.23a10.75,10.75,0,0,1-.93.64c1.91-1.21,3.9-2.34,5.34-3.11.26.3,2.83-.75.33.81,0-.25-1.09.31-1.94.66l1.31-.26c-3.51,2.38-1.54.22-4.28,1.74,1.59,0,5.09-.86,4.34.26-3.55,2.13-1.91-.57-4.72,1.94l.92-1.6c-5.35,3.82.12-.73-5.66,3.26-.44,1.68,2.51.2,2.08,1.88,2.14-.88,2.92-1.75,5.06-2.63,4.47-.49-8.37,6.32-2.92,4.75,2.57-1.06,7.18-3.53,5.23-1.36l-4.22,2c.2,1.28,6.19-2.72,4.08-.06-1.71.71-1.82-.06-2.21.37-2.8,2.54,2.59-.81,2.91-.26L252.61,515c1.21.8,4.51.55,5.86,1.41a11.69,11.69,0,0,0-3.28,1.9c2.68.54,1.47,3.59.24,6.33l3.42-1.23a4.87,4.87,0,0,1-1.93,1.27c-.82,1.27,2-1.11,3.35-1.54.41.21-1.51,1.48-2.56,1.81,3.23-.5,7.35-.38,4.7,2.65l-1,.33c-.75,1.59,6.86-2.78,4.46-.3l-.63.17c-.25,2.62,3.74,3,0,7.12,4.57-2.4-.87,3,5.35-.61-2.41,2.88-3.69,3.25-4.84,6,0,.56,4.18-1.75,5.12-1.66l-3.2,2,3.76-1.4-3.62,2.69,1.1-.05A6.8,6.8,0,0,1,271,540c1.88-.19-1.18,3.09-2.8,4.12h3.72a9.45,9.45,0,0,1-2.87,1c3.81-1.12-3.26,2.24.22,1.22a19.55,19.55,0,0,1,2.59-1.5c-1.68,1.6-1.11,2.53.13,2.71l-2.28,1.24c.22,1.58,2.69,1.94,3.52,3.35.71-1.14,4.58-3.41,5.2-3.24l-3.25,2.27c2.24-1,1-1.22,3.88-2.28-.06.76-3.6,2.75-4.88,3.14l1.56-.11c-1,.67-1.6.85-2.9,1.62,2.25-1.06-2.68,3.21,1.17,1.3l-1,.67c.85,1.4,2.39,1.3,3.27,2.32,2.9-1.82,2.54-1,5.08-2.13-.39,1.41-2.06,3.77-1.18,4.6,1.88-.23,2.57-1.37,4.48-2.16-2.59,1.74-1.7,2.57-3.92,3.27,1.2.91,1.51,1.18,4.6,1.29a10,10,0,0,1,2.27-1.83c.6,0-.7,1.33-2,2.11l-.32.11c5-.89-5.08,8.87,1.23,6.63l-.32.1,3.75-.5c0,.93-2.21.92-3.5,2.45,5.33-1.4.95,2.76,4.65,2.06-7,6.08,2.79,3-1.22,7.56l1.74-1.29c2-.86-.76,1.1-1,1.62,1.37-1,1.37-1.45,2.48-1.91,4,1.32,1.33,7.5,1.69,11.49.24,1.38,9.61-5.81,6.27-1.55l-3.56,1.93c2.71-.33,3.41.76,4,1.9s1.21,2.31,3.61,2.14c-.84.42-1.83,1.11-2,.9-2.08,2.12,1,1.67,3,.29,0,.47-1.7,1.32-2.55,2.22-1.1,1.43,3.81-1.09,1.61.83a2.48,2.48,0,0,1-1.1.48c1.35-.54.64,1.52,3.19-.71-.76,1.7,2.26.58,1.07,2.35,3.34-1.81-.54,2.37,3.87-.63-4.5,3.17-2.65,3.95-.2,2.89-1.46.82-1.09,1.43-3.09,2.6.46.5,1.66.4,3.88-1.36-4.58,4.89,5.76-1.12-.64,4.43a24.61,24.61,0,0,1,8.39.84c-4.45,3.22-1.62-1.27-6.21,2.22,2.84,0,7.2-2,7.14.17-.34.8-2.06,1.23-2.9,1.67,2.82,0,1.59,2.94,4.9,2.35a4.67,4.67,0,0,1-1.38.64c.32.13-.22,1,1.75-.49l-.72.17c2.61-2.56,6.76-3.62,8.32-4.73-6,3.91-.53,2.27-8.23,7.09a9.16,9.16,0,0,0,2.89-1.69c-.21.52-.93,1.19-2.62,2.1,1.73,0,3.62-1.88,4.16-1.07-1,.73-1.46.86-2.65,1.64,2.17-1,4.35-2.07,4-.8-.61.4-1.31,1.05-1.44.85,1.14.9,6.43-1.91,5.55.7-4.44,2.84-1.05,1.47-4.61,4.31l1.58-.17,1.54-1.61c.39.62,3.4-.9,2.61.5l-1.81.72L334,626l.89-1.66c2.3-.86,4.5-3.58,4.09-2.05-.49.13.4.6-1.48,2.54h0c1.36-.61,2.79-1.25,2.23-.14-1.06,1-4,3-4.74,3.67,3.21-2.06,1.88.69,5.34-1.45a26.24,26.24,0,0,0-3.08,2.27l2.61-1.67a7.81,7.81,0,0,1-2.45,2.34c.18,1.14,4.34-3.81,3.12-1.34a8.5,8.5,0,0,1-1.08.54c-.28,1.75,3,.62,2.46,2.43-3.39,3.09-1.47-.07-4.27,2.62,1.63.75,6.34-.8,6.47,1.06l.21-.54c5.18-3.86-1.78,2.89,1.09,1.59a15.6,15.6,0,0,0-2.36,1.63c-.15,1.47,2.6.69,5.18.66l-1.42.89c-.76,1.41.37,1.81.2,2.81,1.41-.89,1.45-.42,3.17-2.12-6,7.57,6.39-.12,1.48,6.27-.15-.16-1.46.52-1.35.66l2.18.24a17.8,17.8,0,0,0,2.67-2.88c1.42-.91,2.69-1.39,2.94-1.09-1.89.65-3.48,2.88-4.5,4.11.63-.59,1.43-1.11,2.09-1.69-3.34,3.81,4.45-3.5,2.56-.5l-1.18.9c.85-.16,2.6-1.11,2.56-.5-2.39,2.22-1.45.63-3.53,2.31.55.37,5.54-3,3.41-.47-.87.37-1.13.09-2,.46-2.54,2.92-1.75,2.36-1.92,3.1l0-.09-.64,1.93.62-.87c7-4.83,2.22.25,7.17-2.5-4.69,2.58-2.44,1.82-5.32,4.13a9.24,9.24,0,0,1-2.1,2.5c2.6-1.52-1.26,2.16,2.53-.09-.89.79.26.49-2.1,2.32,1.14-.09,1.48-1.45,2.66-2.37,3.74-1.83-2.21,5,3,2.51,2.56-.53,5.76-2.95,8-3.37a10.72,10.72,0,0,1-3.5,2.56c-.92,1.61-.36,1.77,1.06,1.34a12.31,12.31,0,0,0-2.34,2.25c.55.16,3.49-2.57,2.57-1-1.08.78-2.77,2.05-3.93,2.74,1.2-.28,3.24-1.3,4.44-1.56A15.11,15.11,0,0,1,364,664a7.7,7.7,0,0,0,5.14-1.91l.61-1.08c.27.08-2.05,1.93-2.62,2.19-2.31,1.25.33-1.36,1.22-2.16l.85-.18c5-4.87-1.93-.54-2.17-1.44l4.07-3-3.75,2.08c.88-1,3-2.93,3.8-3.11,1.51-2.08-1.71.77.08-1.43a2.19,2.19,0,0,1,.68-.55l-1.52.54c.88-.6,2.66-2.39,2.33-1.65,1.55-2.69-4,1.19-1.32-1.6l.29-.14c-2.25,0-2.93,2.3-7,4.3l6.52-6.48-2.93,2.29c0-.2,0-.6,1.2-1.52-2.31,1.22-1.17,1.12-3.22,2.42,2.12-2.73-2.49-.5,1.94-4.44-2.33,1.62-1.23,1.93-3.22,2.6,4.74-4.27-1.4,0,.42-2.37,2.65-2,1.71-.36,3.54-2.75-4.51,3.26.12-1.76-1-1.5-3.41,2.82-2.18.26-3.91.49,1.18-.91.76-2.9,1.44-4.58l.59-.45c-3.55,2.72-3.47,1.5-4.6,1.59a16.76,16.76,0,0,1,4.12-2.76l-.4-.45a5.25,5.25,0,0,1-2.55,1.16l2.68-2c-.65-.5-4.09,1.25-3-1-2.45,1.93-6.2,6.15-8.51,6.6a24.54,24.54,0,0,1,4.2-3.17c-.23.07-1.3.62-.86,0l2.47-1.45c.67-1.16-2,1.31-2,.84,1.87-1.51,1.15-1.3,2.67-2.47.24-.07-.56.89.26.4a7.27,7.27,0,0,1,2.15-3.19c-1,.89-2.51,2-2.95,2-.64-.52,2.07-2,2.73-3.19-1.42.9-.4-.59-3.2,1.66-.13-.2,1.14-1.29,1.84-2-1.49.67-1.58-1.24-4.25,1.54l-.13.24c-.07,0-.09,0-.17,0h0c-3.65,1.17-.21-3.5-2.26-3.6l.94-.75c-1.58.22-1.77-.9-4.16.26-.15-.19,1.36-1.81,2.55-2.62-1.09.08-2.2.87-1.2-1.07,2-.81,1.32-1.32,1.6-.45.31-1.28,1.71-2.62-1.4-1.26,2.6-1.68,2.67-2.88,1.71-2.61l-1.38,1.81c-.62-.06-.64-.53-.67-1l3.31-2.35c2.87-4.34-8.43,2.84-2.7-3.23-2.5,1.4-1,1.93-3.87,3.67,0-.94,4.06-5.14,3.92-5.33,1.13-2.19-5.27,2.88-4.73,1.08-1.05,1-4,3.47-5.6,3.65,0-.93,4.22-4.45,5.43-4.78.21.07-.1.42-.49.71a3.7,3.7,0,0,0,2.31-1.45l-1.2.81c.93-1.2.17-1.93,2.2-3.18a3.29,3.29,0,0,0-2.36,2c1.06-2-.89-1.23-.38-2.89-.54.61-1.79,1.76-1.88,1.63.53-2.26-2.56,1.16-3.67.75,1.41-1.79,4.3-3,2.23-2.71.81-1.39,3-2.43,4-3-2.76,1,.43-2.46.52-3.18l1.22-.33c-.72.19-.85,0-1-.2l-2.13,2a2.22,2.22,0,0,1,1.06-1.45c-1.68.92-3.69,3.09-6.1,4.2.94-1.19-1.95,0,1-2.38-.32,1.73,3-2.43,4.09-2-.48.12-.61-.07-.37-.6a2.43,2.43,0,0,1,.88-.52c2.05-3-3.77,2.21-4.41,1.22,1.81-1.19,3.11-2.69,2.62-2.56.25.4-2.74,2.35-4.32,3,.89-1.61-1.49.1-1.58-.33l-.36.84c-1.82,1.18-1.82.71-2.68.7,1.32-1,1.21-.32,1.69-.91-3.39,1.82,2.35-3.41-.19-2.52.94-1.18,3.23-2.46,3.82-3.32-2.79,1,1.79-2.56-.63-1.94-2.17,2-1.57,1.57-4.24,2.72l2.57,0-4,1.71c.25.41,2.06-.28,1.83.24a7.87,7.87,0,0,0-3.37,2.26c3.11-3.13-2.8.48-.89-1.89l5.78-4.27c1.91-2.82-4.15.59-3.56-1.67l-.73,1.12c-2.42,1.54-.86-.49-2.07-.19a22.87,22.87,0,0,0,3.57-3.2c-1.42,1.08-.5-1-4.45,1.78l2.16-2.4c.35-1.72-6.33,3-6.35,1.55,2.32-1.26,3.39-2.68,5.35-3.17-.21-.32-.05-.85-1.4.12,1.09-1.06-3.24,1.06-1.6-.57-.95.49-3,1.93-3.11,1.47a9,9,0,0,1,1-.7c-1,.7-1.7.4-3.64,2.27,5.39-5.35-2.36-2.36,2.28-7a6.76,6.76,0,0,1-2.93-1.08c.61-.38,1-.69.86-.43,1.22-2.14-6,3.49-4.65,1.07,2.81-2.75,2.08-.71,3.06-1.87,6.35-4.72-1.71-.54,1.6-3.86l.49-.11c1.84-2-3.31.53-3.42-.61a9.61,9.61,0,0,0,1-.68c-3.7,1.78-5.52,1.48-7,1.33,2.7-1.53,1.59-.58,4.06-2.54-.61-.1-4.06,3-5.28,2.8a31.69,31.69,0,0,1,4.8-4.55l.61.56c3.33-2.83-.72-.77-.34-1.55l1.59-1c-1.21-.66-5.14,2.05-5.62.76l-1.1.93c-4.31,2.1,1.84-2-1.47-.61l3.83-2.91c-1.23.27-4.78,1.26-6,1.06,3.22-1.62,5.29-1.82,7.39-2.51-.24-.41-1.21-1.12-3.3,0,.49-.11,1.6-.57,1.1,0-3.44,1.66-5.42,2.08-5.89,1.25,7.79-5.12.53-3.36,6.14-8-3.78.55-.62-3.57-2.16-4.87-5.63,4.62-.49-.36-6.6,3.89-.65-.11-.65-.33-.27-.63l2.93-3.62c1.62-1.47,1.6-.55,3-1.52-.08-1.14,2.39-2.1,3.68-3.74-2.14,1.59-3.36,1.83-2.83.8l-2.42,2.56c-4.07,1,4.54-4.45.49-3.44l2.2-.93c-1.55.17-1.42-2.21-6.79.49.65-.58,2.26-1.84,2.88-1.87-.18-1.92-7.4.3-5-2.83l1.6-.88c-.61,0-3.17,1.4-1.85.07.64-.39,1.59-.88,1.6-1.06-.62.2-3.14,1-2.48.09l1.92-.81c1.1-2.69-5.58.56-7.4.06,4.51-2.9,5.26-4.93,5.64-6l.65-.39c-.47-2-5.5-.4-8.24-.8,4.32-4.05,0-4.5,1.86-7.75a12,12,0,0,1-4.19,2.19c.7-.93-3.78,1,.43-1.56v.18c3.93-2.82,2.37-2.86,2.14-3.51L291.74,532c7-6.42-5.35-2.17,1.29-7.37-1.59.47-1.85,0-3.45.49l3-1.77c.14-1.47.2-2.19-1.26-3l2.26-1c-.24-.81-9.05,4.25-9.62,3.7l4.29-2.85c-.83-1.19,2.33-4.76-2.41-3.59a7.29,7.29,0,0,1,2.26-1c-.23-.65,1.67-4-4.28-.21,3.95-2.36-.37-1.5-2.51-1.15l3-1.62c-4.07,1.64-5.1,2.22-6.6,2,.27-.41,2.24-1.54,1.64-.85,1.16-1.52-3.06,1.14-1.95-.54l2-.81c-.15-.78-1.13-.14-3.52.78-1.42.28,0-1.66,2.61-3.29-1.67.85-4,1.76-3.5.93a7.62,7.62,0,0,1,2-1c1.36-2.23-4.34.36-1.88-2a11.57,11.57,0,0,0,1.68-1.14c.42.9.65,1.69.4,1.75,2.71-1.57,2.79-2.54,6.84-4.15-2.35.63-7.34,2.24-6.45.83.24-.18.48-.36.89-.63l.34-.1c.18-.31-.15-.31-.68-.18.32-.47.57-.8.5-1,2.2-1.37.76-1.49.67-1.9-3,1.73-2.74,1-4.95,2.83.18-.18.39-.14.65,0a.82.82,0,0,0,.39,0l-.27.13a4.75,4.75,0,0,1,.69.75c-1.66.59-3.1,1-1.67-.3-2,.92-4.09,1.84-5.07,2.26,3.87-2.85,5.59-5,8.08-6.62-2.27-.11-2.52-1.86-8.5.64-.89.1,1.41-1.25,2.22-1.86.66-.14.69.11,1.55-.25-1.78.21-1.58-1.47-5.58.59,1.34-1.75,3.85-1.59,2.62-2.28l1.28-.53c5.14-5.56-11.88,2.21-5.09-4.57a4.87,4.87,0,0,1-1.23,1c2.13-4.58-6.35-3.58-2.07-9.26.75-1.36-1.82-.07-4,.51l3.15-1.9-4.15,1.23c-3.33.36,6.95-6.15,1-4.78l-2.09,1.34c.15-.72-2.13-.9.43-2.15-.43.16-2.37,1-1.33.24l1.69-.91-3.57.31c.73-1.6,6.84-3.41,6.43-5a18.76,18.76,0,0,0-6.78,1.93c0,.25-.78,1.09-2.48,2h-1.14c-5.07,2.54-10.41,4.86-13.29,7.88l3.51-.79-2.29,1.54-.52-.61c-2.08,1.6.08.78,1.62.33a13,13,0,0,0-2.5,1.76l5.22-1.72c-1.91,1.13-4.08,1.69-4.88,2.81,2.42-.8,4.2-2.68,6-2.83-2.07,1.6-4,2.46-1.79,1.9a8.63,8.63,0,0,1-2.79,1.2c1.77-.41,1.23.74,4-.46-2.59,1.9,1.47,1-3.29,3.48,1.2-.47,4.1-1.26,4.5-1-6,2.34.42,1.59-5.75,4.67,5.36-2.22,3.25.64,6.55,0-.43.17-1.3.51-1.08.29-.15.74-1.61,1.72-2.39,2.56,4.23-2.21,5.62-1.94,8.44-2.93-3.7,2.82-5.13,2.3-8.91,4.61,3.38-1.88,4-.77,6.7-2.52a23.14,23.14,0,0,1-4.33,3.21c5.28-2.78,1.13,0,4.56-1.41-2.2,2.1-4.8,2.86-2.8,2.74A8.18,8.18,0,0,1,240.45,503Zm19,12.8-.06,0-.38-.27A4.21,4.21,0,0,0,259.46,515.8Zm.89,1.46a1.17,1.17,0,0,0-.25-.71c1-.64,2.08-1.19,2.11-1C261.49,515.84,261.1,516.53,260.36,517.26Zm18.79-14.94c.55,0,0,.4-.58.78a1.42,1.42,0,0,0-.59-.2l-.38.18C278.18,502.77,278.73,502.49,279.15,502.31Z" fill="#d22020"/>
      <path d="M275,504.13c-.09,0-.22.06-.27,0-.24.2-.43.37-.59.52l1-.45Z" fill="#d22020"/>
      <path d="M356.83,632.71l0-.08a3.32,3.32,0,0,1-.33.36C356.65,632.87,356.73,632.8,356.83,632.71Z" fill="#d22020"/>
      <polygon points="266.86 540.98 267.6 540.52 266.87 540.79 266.86 540.98" fill="#d22020"/>
      <path d="M353.63,647.38a4.58,4.58,0,0,0-.6.65A6.09,6.09,0,0,0,353.63,647.38Z" fill="#d22020"/>
      <path d="M355.64,651l-.57,1.22A4.79,4.79,0,0,0,355.64,651Z" fill="#d22020"/>
      <path d="M356.34,654.49c.49-.35.84-.64,1.16-.89v0Z" fill="#d22020"/>
      <path d="M322.16,617.93a.27.27,0,0,0-.2,0C321.27,618.1,321.59,618.1,322.16,617.93Z" fill="#d22020"/>
      <path d="M337.52,624.83a12.84,12.84,0,0,1-1.57.62C335.91,625.82,336,626,337.52,624.83Z" fill="#d22020"/>
      <path d="M308.94,607l0,0s0-.05-.06-.08Z" fill="#d22020"/>
      <path d="M335.57,624.88c-.38.63-.13.71.38.58C336,625.14,336.12,624.73,335.57,624.88Z" fill="#d22020"/>
      <path d="M363.94,665.85v.21c.17-.15.32-.26.43-.35Z" fill="#d22020"/>
      <path d="M364.36,665.71l.42-.14C364.73,665.51,364.66,665.48,364.36,665.71Z" fill="#d22020"/>
      <path d="M365.66,665.27l-.88.3C364.85,665.67,364.87,665.85,365.66,665.27Z" fill="#d22020"/>
      <path d="M362.45,661.66l-1,.77C361.68,662.29,362,662,362.45,661.66Z" fill="#d22020"/>
      <path d="M361.36,660.94c0,.41-1.52,2.29-.66,2.11l.78-.61C359.94,663.48,363.13,659.8,361.36,660.94Z" fill="#d22020"/>
      <path d="M369.68,647.05l-.09,1.43c.89-1,2.09-2.32,2.64-2.16C374.4,642.78,370.15,648.44,369.68,647.05Z" fill="#d22020"/>
      <path d="M369.09,643.34c.83,0,1.47-1.24,2.06-1.69A3.23,3.23,0,0,0,369.09,643.34Z" fill="#d22020"/>
      <path d="M354.4,625.34l2.47-1.89C356.25,623.39,355.93,624.19,354.4,625.34Z" fill="#d22020"/>
      <polygon points="339.01 631.82 337.75 633.35 340.12 631.74 339.01 631.82" fill="#d22020"/>
      <polygon points="354.83 616.03 355.29 615.9 353.96 616.04 354.83 616.03" fill="#d22020"/>
      <path d="M330.64,585.68l-3,2.35C328.32,587.86,331.86,585.39,330.64,585.68Z" fill="#d22020"/>
      <path d="M317.76,574.21c1.47-1.24,2.22-2.33.5-1.5C318.26,573.17,317.25,574.33,317.76,574.21Z" fill="#d22020"/>
      <polygon points="295.42 528.72 296.69 528.33 295.45 528.35 295.42 528.72" fill="#d22020"/>
    </g>
    <path d="M401.86,478c-1.07.7,2.22,3.85,3.59,6.05-.42,1.94-2.58-2.19-4.4-3.69,0,1.52,1.93,5.23,1.26,5.53a5.78,5.78,0,0,1-1.21-1.51c1.4,3.44-2.25,2-.42,6.23a7.46,7.46,0,0,1-.81-.79,60.26,60.26,0,0,1,3.92,4.77c-.4.41.9,2.9-1.07.7.33-.15-.37-1.1-.81-1.93l.31,1.37c-3-3-.25-1.65-2.16-4.13-.08,1.8,1,5.4-.45,5-2.68-3.15.8-2.38-2.39-4.56l2.06.4c-4.83-4.51.94-.16-4.1-5.08-2.17.17-.32,2.91-2.5,3.07,1.08,2.07,2.19,2.61,3.27,4.67.49,4.85-8-7-6.1-1.46,1.3,2.48,4.35,6.73,1.59,5.37l-2.5-4c-1.68.71,3.32,5.93-.07,4.58-.87-1.65.15-2.07-.4-2.35-3.21-2.19,1,2.62.23,3.18L386,496.27c-1.09,1.66-.89,5.3-2.07,7.17-.66-1-1.17-2.29-2.33-3-.81,3.24-4.74,3-8.24,2.64l1.42,3.42c-.2.1-1.32-1-1.55-1.72-1.61-.47,1.35,1.82,1.83,3.22-.29.54-1.84-1.17-2.22-2.24.48,3.46.08,8.2-3.71,6.29l-.37-1.06c-2-.27,3.21,6.78.12,5l-.19-.66c-3.4.67-4.1,5.36-9.27,2.54,2.8,4.35-3.83.06.41,5.86-3.58-1.73-4-3.06-7.4-3.42-.73.15,2,4.15,1.77,5.25l-2.32-3,1.53,3.8-3.22-3.18,0,1.23a4.94,4.94,0,0,1,2.17,1.81c.09,2.08-3.92-.27-5.12-1.77l-.31,4.26a7.09,7.09,0,0,1-1.11-2.93c1.14,4-2.64-3-1.59.67a13.49,13.49,0,0,1,1.73,2.45c-1.94-1.37-3.2-.41-3.54,1.06L341,527.79c-2.07.78-2.76,3.71-4.67,5.13,1.41.43,4,4.1,3.72,4.86l-2.65-3c1.15,2.21,1.49.74,2.6,3.68-1,.18-3.23-3.2-3.62-4.53v1.75c-.77-.9-1-1.55-1.83-2.78,1.16,2.22-3.91-2-1.79,1.77l-.77-.9c-1.9,1.43-1.91,3.17-3.32,4.51,2.07,2.73,1,2.59,2.24,5.13-1.79,0-4.69-1.16-5.86.12.09,2.08,1.5,2.51,2.32,4.45-2-2.41-3.15-1.13-3.82-3.45-1.31,1.66-1.69,2.1-2.2,5.69,1,.84,1.6,1.08,2.12,2-.06.69-1.65-.38-2.51-1.6l-.1-.33c.56,5.48-10.89-3.07-8.74,3.5l-.09-.33.17,4.15c-1.21.25-.91-2.26-2.74-3.28,1.13,5.71-3.71,1.92-3.27,6-6.94-6.26-4.25,4.11-9.61.84l1.43,1.63c.84,2-1.31-.55-2-.68,1.08,1.29,1.69,1.16,2.13,2.31-2.27,5.06-9.92,3.68-15.09,5.21-1.81.66,6,9.5,1,6.83l-1.94-3.58c0,6.08-6.09,4.51-6.45,10-.4-.87-1.13-1.82-.84-2-2.4-1.84-2.33,1.62-.88,3.51-.61.13-1.42-1.62-2.44-2.37-1.66-.89.76,4.13-1.34,2.08a1.87,1.87,0,0,1-.44-1.15c.47,1.43-2.06,1.14.38,3.52-2.06-.44-1.14,2.78-3.22,1.87,1.75,3.41-3,0,.13,4.34-3.3-4.41-4.61-2.05-3.7.52-.79-1.49-1.65-.91-2.79-2.93-.73.66-.81,2,1.05,4.15-5.47-4.1.37,6.42-5.6.37a30.87,30.87,0,0,1-2.68,10c-3.29-4.4,2-2.21-1.66-6.7-.58,3.31,1.17,7.92-1.59,8.38-1-.2-1.17-2.11-1.58-3-.58,3.31-4.11,2.55-4,6.27a3.47,3.47,0,0,1-.54-1.47c-.24.41-1.3,0,.27,1.93l-.08-.79c2.77,2.44,3.27,7,4.38,8.61-3.8-6.11-2.83-.08-7.44-8a6.55,6.55,0,0,0,1.58,3c-.63-.12-1.34-.81-2.16-2.58-.4,2,1.66,3.79.51,4.61a29.46,29.46,0,0,1-1.55-2.72c.88,2.3,1.75,4.61.18,4.53-.39-.62-1.08-1.28-.79-1.49-1.4,1.55,1.08,7.11-2.1,6.69-2.69-4.56-1.66-.9-4.54-4.42l-.13,1.81,1.74,1.45c-.89.59.4,3.78-1.23,3.17l-.52-2-1,1.9,1.95.67c.59,2.51,3.62,4.47,1.72,4.34-.06-.54-.87.61-3-1.17h0c.47,1.47,1,3-.33,2.59-1.05-1-3-4.07-3.66-4.75,1.92,3.32-1.32,2.36.65,6a17.9,17.9,0,0,0-2.23-3.12l1.56,2.7c-1-.48-1.35-.81-2.45-2.36-1.52.47,3.92,4.26,1,3.38,0-.28-.38-.61-.44-1.15-2.19.07-1.48,3.64-3.7,3.45-3.2-3.3.43-1.76-2.39-4.46-1.34,2.11-.44,7.31-2.88,7.87l.64.13c3.76,5.26-3.3-1.46-2.32,1.64a10.68,10.68,0,0,0-1.55-2.43c-1.87.15-1.51,3.23-2.08,6.28l-.81-1.48c-1.64-.59-2.42.84-3.67.88.81,1.48.2,1.62,2,3.29-8.32-5.44-1.34,7.59-8.4,3.2.24-.22-.32-1.61-.52-1.45l-.82,2.65c1.93,2.06,1.32,1.12,3.08,2.51.83,1.48,1.15,2.89.71,3.25-.39-2.1-2.88-3.49-4.22-4.41.61.62,1.09,1.45,1.68,2.1-4.11-3.1,3.45,4.5,0,2.94l-.87-1.19c0,1,.81,2.83,0,2.93-2.29-2.33-.47-1.59-2.14-3.68-.6.74,2.53,5.92-.19,4-.28-.95.15-1.33-.12-2.27-3.15-2.35-2.61-1.53-3.53-1.56l.11,0-2.33-.31,1,.53c4.56,7.25-.83,2.72,1.56,8-2.23-5-1.77-2.49-4.07-5.38-1-.52-2.18-1-2.72-1.9,1.36,2.75-2.48-1-.46,3-.81-.87-.68.43-2.49-1.94-.13,1.35,1.52,1.42,2.42,2.61,1.51,4.05-5.89-1.42-3.88,4.2.1,3,2.49,6.19,2.52,8.81a7.45,7.45,0,0,1-2.5-3.56c-1.86-.7-2.18,0-1.93,1.61a8.38,8.38,0,0,0-2.36-2.24c-.33.71,2.52,3.55.66,2.86a42.32,42.32,0,0,1-2.64-4c.1,1.38,1,3.58,1,5-1.55-1.39-1.71-2.68-2.38-3.9a6.65,6.65,0,0,0,1.34,5.72l1.24.45c-.16.35-2-2-2.23-2.59-1.1-2.47,1.66,0,2.49.9l.05,1c5.12,4.76,1.09-2.47,2.29-3l3,4.13-1.85-4c1.08.81,3.09,2.81,3.14,3.77,2.31,1.29-.61-1.87,1.8-.27a1.5,1.5,0,0,1,.56.68l-.35-1.7c.58.91,2.47,2.59,1.59,2.39,3.08,1.19-.64-4.49,2.32-2l.11.32c.48-2.69-2.3-2.94-3.94-7.29l6.82,6.23-2.27-2.95c.25,0,.77-.12,1.68,1.06-1-2.46-1.16-1.13-2.37-3.26,3,1.88,1.19-3.12,5.22,1.23-1.54-2.4-2.19-1-2.6-3.23,4.38,4.64.29-1.68,2.93-.08,1.9,2.7.08,2,2.71,3.58-3.15-4.62,2.22-.28,2.15-1.62-2.82-3.41.17-2.55.27-4.56.89,1.2,3.53.22,5.53.65l.44.59c-2.66-3.6-1.11-3.79-1-5.11,1.67,2.09,2.21,3,2.57,4.27l.68-.58a4.11,4.11,0,0,1-.88-2.77l1.94,2.73c.8-.9-.63-4.57,2-3.81-1.9-2.48-6.43-6-6.47-8.61,1.11,1.27,3,3.47,3.08,4.28,0-.26-.5-1.4.18-1l1.28,2.61c1.33.52-1.21-2.07-.61-2.22,1.51,1.88,1.4,1.07,2.54,2.6,0,.27-1-.46-.58.4a5.82,5.82,0,0,1,3.59,1.82c-.9-1-2-2.52-1.87-3.05.82-.89,2.14,2,3.45,2.52-.82-1.48.86-.61-1.38-3.42.28-.21,1.39,1.06,2.1,1.73-.51-1.62,2-2.16-1-4.71l-.28-.1c0-.08,0-.1,0-.19h0c-.64-4.06,4.57-1,5.19-3.5l.75.95c.09-1.82,1.6-2.3.67-4.86.28-.22,2,1.2,2.79,2.42.16-1.28-.59-2.4,1.68-1.67.57,2.22,1.4,1.27.2,1.79,1.58.08,3,1.43,2-2,1.56,2.69,3.1,2.5,3,1.42l-2-1.22c.22-.75.83-.88,1.44-1l2.26,3.38c5,2.38-1.69-9.33,4.86-4-1.23-2.63-2.28-.76-3.86-3.73,1.23-.26,5.72,3.61,6,3.4,2.59.83-2.5-5.56-.28-5.34-1-1-3.57-3.94-3.45-5.76,1.22-.27,4.81,3.94,5,5.29-.14.26-.52,0-.81-.41a2.66,2.66,0,0,0,1.35,2.39l-.77-1.23c1.35.82,2.48-.25,3.64,1.84a2.4,2.4,0,0,0-2.12-2.3c2.43.77,1.82-1.34,3.87-1.14-.68-.48-1.89-1.69-1.69-1.83,2.83.07-.92-2.76-.13-4.17,2,1.23,3,4.34,3,2,1.63.62,2.5,2.91,2.94,4.07-.63-3,3.13-.11,4.06-.18l.15,1.36a1.08,1.08,0,0,1,.49-1.22l-2.09-2c.64.14.93-.07,1.66.89-.82-1.76-3.21-3.6-4.11-6.17,1.34.82.39-2.29,2.89.62-2.19.05,2.51,2.93,1.71,4.33-.05-.54.24-.74.88-.6a1.69,1.69,0,0,1,.48.91c3.43,1.68-2-3.9-.61-4.91,1.15,1.84,2.83,3,2.77,2.45-.58.4-2.47-2.64-3-4.35,1.92.64.2-1.74.78-1.94l-1-.22c-1.14-1.85-.53-2-.32-3,1.08,1.29.15,1.35.82,1.77-1.64-3.54,4,1.91,3.35-.86,1.34.81,2.53,3.18,3.53,3.66-.64-3,3,1.44,2.68-1.26-2.1-2-1.73-1.44-2.66-4.29L264,625l-1.4-4.26c-.58.4-.06,2.36-.7,2.23-.88-2.31-.5-1.7-2.24-3.4,3.43,2.85,0-3.18,2.65-1.54l4.38,5.71c3.29,1.51.1-4.75,2.94-4.65l-1.32-.56c-1.52-2.44.82-1.14.67-2.49a15.59,15.59,0,0,0,3.46,3.36c-1.12-1.39,1.36-.85-1.42-4.77l2.71,1.91c2.19-.06-2.6-6.65-.76-7,1.2,2.38,2.85,3.25,3.1,5.43.46-.33,1.13-.29.12-1.62,1.18,1-.74-3.52,1.07-2-.46-1-1.94-3-1.31-3.25a6,6,0,0,1,.72.94c-.72-.94-.2-1.89-2.27-3.65,6,4.86,3.52-3.42,8.67.75a11.33,11.33,0,0,1,2-3.75c.38.61.73.95.41.88,2.59.82-3.48-6-.55-5.14,3.09,2.52.55,2.23,1.89,3.05,5,6.11,1-2.15,4.79.77l.06.54c2.36,1.57-.09-3.72,1.43-4.18a6.45,6.45,0,0,0,.72.95,10.3,10.3,0,0,1-.53-7.8c1.54,2.72.49,1.69,2.63,4,.23-.74-3.24-3.88-2.77-5.35,1.37,1.09,3,1.69,5.15,4.27l-.84.88c3.15,3.06,1.14-1.07,2.1-.86l1.1,1.55c1.08-1.62-1.83-5.41-.06-6.35l-1-1c-2-4.41,2.35,1.55,1-1.89l3.2,3.6c-.15-1.35-.87-5.2-.41-6.7,1.61,3.26,1.54,5.62,2.1,7.86.58-.41,1.68-1.75.52-3.85.06.54.5,1.69-.18,1.28-1.63-3.52-1.86-5.69-.7-6.49,5.51,7.52,4.34-.39,9.58,4.7-.14-4.25,4.81-1.87,6.77-4.08-5.26-5.1.54-.68-4.16-6.46.24-.79.52-.85.87-.51l4.34,2.26c1.71,1.42.5,1.69,1.57,3,1.52-.46,2.42,2.11,4.41,3.08-1.79-2-1.93-3.33-.64-3l-3-2c-.79-4.4,5.24,3.84,4.49-.54l.91,2.26c0-1.75,3.15-2.38.32-7.75.68.56,2.12,2,2.08,2.73,2.57-.86.61-8.52,4.44-6.83l1,1.56c.06-.71-1.44-3.21.16-2.13.44.61,1,1.55,1.2,1.5-.18-.65-1-3.3.2-2.85l.83,2c3.43.36,0-6.29.87-8.56,3.28,4.24,5.9,4.41,7.21,4.5l.44.62c2.7-1.26,1.18-6.54,2-9.85,4.88,3.58,6-1.54,10.09-.61a8.21,8.21,0,0,1-2.46-4.06c1.16.47-.9-4,2-.06l-.23.06c3.33,3.52,3.57,1.71,4.45,1.2L361,547.23c7.82,5.77,3.38-7,9.65-1.22-.48-1.66.16-2.13-.33-3.79L372.4,545c1.94-.39,2.9-.59,4.13-2.58l1.16,2.22c1.11-.58-4.86-8.81-4.08-9.67L377,538.8c1.65-1.38,6.14.86,5-4.13.43.62,1.3,1.83,1.15,2.21.88-.51,5.23.35.61-5,2.84,3.62,2-1,1.71-3.32l1.94,2.79c-1.88-4-2.58-5-2.23-6.77.53.15,1.89,2,1,1.55,1.94.74-1.3-3.06.84-2.43l.94,2c1-.47.26-1.34-.8-3.71-.28-1.5,2.19-.62,4.2,1.71-1-1.57-2.08-3.92-1-3.62a5.22,5.22,0,0,1,1.15,1.93c2.89.69-.23-4.81,2.82-3a7.84,7.84,0,0,0,1.41,1.47c-1.22.84-2.27,1.42-2.34,1.16,1.92,2.47,3.2,2.18,5.09,6.17-.69-2.45-2.53-7.51-.71-7.06a10.06,10.06,0,0,1,.78.76l.12.35c.4.08.42-.3.27-.85.61.18,1,.34,1.34.15,1.69,2,1.94.27,2.49,0-2.14-2.68-1.18-2.72-3.49-4.51.22.14.16.39-.06.75a.76.76,0,0,0,0,.44l-.15-.26a10.13,10.13,0,0,1-1,1.09c-.69-1.66-1.2-3.12.48-2-1.11-1.93-2.22-3.92-2.73-4.88,3.57,3.28,6.39,4.35,8.37,6.55.26-2.63,2.61-3.62-.42-9.41-.1-1,1.6,1.09,2.37,1.77.16.69-.18.83.26,1.66-.19-1.94,2-2.38-.53-6.09,2.27.81,2,3.72,2.92,2l.65,1.23c7.18,3.52-2.5-12.57,6.23-7.68a3.52,3.52,0,0,1-1.33-1c6,.49,4.92-8.63,12.34-6.23,1.78.26.13-2.09-.6-4.28l2.47,2.74L427,489c-.44-3.59,8.05,5.17,6.31-.9l-1.76-1.78c.95-.15,1.21-2.78,2.84-.45-.21-.41-1.36-2.21-.31-1.39l1.2,1.51-.39-3.87c2.12.12,4.48,6.19,6.55,5.06.23-1.12-1.48-5.94-2.52-6.76-.34.14-1.44-.4-2.64-1.91v-1.28c-3.36-4.57-6.43-9.53-10.4-11.47l1,3.57-2-1.91.8-.84c-2.1-1.65-1,.41-.42,1.94a9.31,9.31,0,0,0-2.31-2l2.26,5.1c-1.49-1.65-2.22-3.84-3.68-4.26,1,2.37,3.52,3.56,3.71,5.5-2.09-1.64-3.23-3.42-2.48-1.21a6.07,6.07,0,0,1-1.58-2.62c.54,1.8-1,1.68.6,4.28-2.48-2.1-1.3,2.06-4.54-2.23.62,1.15,1.64,4.06,1.28,4.62-3-5.78-2.08,1.13-6.06-4.5,2.87,5.08-.83,3.89-.05,7.34-.21-.41-.65-1.25-.37-1.09-1,.13-2.22-1.09-3.31-1.63,2.84,3.84,2.47,5.5,3.72,8.26-3.63-3-2.94-4.81-5.9-8.11,2.41,3,1,4.15,3.2,6.48-2.37-1.77-1.38-.68-4.13-3.56,3.54,4.8,0,1.25,1.77,4.55-2.7-1.63-3.65-4.24-3.53-2A5.87,5.87,0,0,1,401.86,478Zm-17.22,26.39,0-.05.37-.53C384.89,503.88,384.79,504,384.64,504.34Zm-1.95,1.57a2.4,2.4,0,0,0,.94-.56c.79.88,1.46,1.9,1.23,2C384.48,506.65,383.6,506.48,382.69,505.92Zm18.71,15.51c0,.63-.53.18-1-.35a2.12,2.12,0,0,0,.3-.75l-.22-.36C400.85,520.52,401.19,521,401.4,521.43Z" fill="#d22020"/>
  </g>
</svg>
