<?xml version="1.0" encoding="utf-8"?>
<!-- Generator: Adobe Illustrator 21.1.0, SVG Export Plug-In . SVG Version: 6.00 Build 0)  -->
<svg version="1.1" id="Layer_1" xmlns="http://www.w3.org/2000/svg" xmlns:xlink="http://www.w3.org/1999/xlink" x="0px" y="0px"
	 viewBox="0 0 200 300" style="enable-background:new 0 0 200 300;" xml:space="preserve">
<style type="text/css">
	.st0{fill:#FFE15C;}
	.st1{fill:#B19100;}
	.st2{fill:#CB0000;}
	.st3{fill:#FFFFFF;}
	.st4{fill:#D22020;}
</style>
<title>boy</title>
<g>
	<path class="st0" d="M139.3,136.9c-1,0.6-0.9,0.7-1.9,1.4c-3.9,2.4-7.4,1-12,1.5c-1.9,0.2-6.9,0.8-9.8,4.2
		c-3.5,4.1-3.8,11.8,0,15.3c3,2.7,7.4,2,13.3,1c6.6-1.1,6.9-3.7,12.9-4.4c5.3-0.6,6.7,1,10-0.6c3-1.4,6.1-4.6,6.2-8.7
		c0.1-5.4-5.2-9-8.7-10.2C148.9,136.2,143.8,134.5,139.3,136.9z"/>
	<path class="st1" d="M110.7,153.8c-2.5-4.2-11.9-3.4-11.9-3.4s5.9-3.8,7.8-4.4s-2.7-4-5.5-5.5c-2.7-1.5-1.1-4,1.7-4
		s10.4,1.7,10.4,1.7s-3-6.8-4.4-8.7c-0.8-1.1-1.9-2-3.2-2.5c3.1,1,6.2,2.3,9.1,3.8c4.4,2.3,4.9,1.1,4.4-1.1
		c-0.4-2.1-3.2-10.1-3.2-10.1l10.7,7.8c0,0,2.1-4.9,3-6.8c0.8-2.3,1.5-4.6,2.1-7c0,0,2.5,2.1,2.1,5.1c-0.2,2.2,0,4.4,0.6,6.5
		c0,0,1.5-4.4,4-5.7c2.5-1.3,6.1-4.8,6.1-4.8s-0.6,3.6-1.1,5.7c-0.2,1.9-0.2,3.8,0,5.7c0,0,1.7-3.2,4.6-4.4c1.6-0.6,3.1-1.7,4.2-3
		c0,0,0,3.4-1.7,5.5s-1.3,3.4-1.3,3.4c1.9-1,3.9-1.8,5.9-2.5c1.7-0.4-2.1,3.8-2.1,3.8l7.2,1.3l-2.5,5.1l4.9-1.5l-3.6,7.4
		c0,0-4-10.8-12.7-10.1c-4.3,0.3-9,2.8-14.8,4.2s-12.8,1.3-15.6,3c-5.5,3.4-4.9,5.9-5.1,8S110.7,153.8,110.7,153.8z"/>
	<path class="st2" d="M120.8,224.7c0.9-5.1,0.9-9.7,5.5-12.2c4.6-2.5,10.8-7,10.8-7s1.1,4,4.6,5.5c3.6,1.5,5.7,1.5,9.3,0.4
		s4.9-4.9,4.9-4.9c3.2,0.4,6.3,1.1,9.3,2.1c5.1,1.7,9.3,2.1,11.9,5.1c2.6,3,4.6,1.7,5.1,6.3c0.4,4.6,0.4,8.4,0.4,8.4L120.8,224.7z"
		/>
	<g>
		<path d="M100.6,243.6c-5.5-4.9-9-11.2-12.2-17.7c-2.2-4.5-4.5-9-6.5-13c-10.4-2.4-18.2-7.6-24-16v-3.7l4.8-3.5
			c-2.5-6.9-0.9-10.7,5.8-11.6c-0.1-2.3-0.1-4.8,2.3-5.9c1.9-0.9,4.2-1.1,6.8-1.8c-0.7-3.3-1.3-7.4-2.4-11.4
			c-1.2-4.6-2.7-9.2-4.1-13.8c-0.9-3.1,0.1-6,2.3-7.2c2-1,5.9,0.3,7.3,2.8c1.6,2.8,2.9,5.8,3.8,8.9c2,7.8,3.6,15.8,5.5,23.6
			c0.2,0.7,0.7,1.3,1.4,1.6c7.3,2.4,9.1,5.4,7.2,12.8c-1.3,5.3-2.8,10.6-4.1,16c-0.2,0.6-0.3,1.2-0.1,1.8c2.4,5.2,4.9,10.3,7.3,15.4
			l0.8-0.2 M74.5,201.3c0.6,2.8-0.6,4.7-3.8,5.6c3,1.4,5.9,2.7,8.9,3.3c3.2,0.6,6.4-0.6,8.5-3l0.5,0.6l-4.3,4.3
			c5.5,9.6,8.8,20.9,17.5,29.3c0.4-4.8,0.6-9.5,0.5-14.3c0-0.4-0.1-0.9-0.2-1.3c-1.9-4-3.6-8.1-5.7-12c-3.3-5.9-3.7-11.7-1.7-18.1
			c1.4-4.4,1.9-9.1,2.3-13.7c0.3-3.8-0.7-4.7-4.5-4.7c-2.5,0-3.9-1.1-4.4-3.5c-1.6-7.3-3-14.7-4.9-21.9c-1-3.9-1.8-8.1-5.1-11
			c-2.2-1.9-4.4-1.6-4.8,1.3c-0.2,2.4,0.1,4.9,1,7.2c2.4,6.7,5.1,13.2,5.3,20.4c0.1,2.2,0.8,4.4,2,6.2c1.3,2.2,2,4.7,3.1,7.4
			l5.9-3.7c-1.5,3-4.2,5.3-7.4,6.2c-1.6,0.5-3.3,1.3-2.4,3.2c0.7,1.3,2,2.2,3.4,2.5c2.4,0.4,4.9,0.1,6.7,0.1c-0.4,0.5-1.9,1.5-2,2.6
			c-0.3,2.2-1.7,3.4-3.4,3.5c-2.9,0.1-3.1,1.8-3.2,3.9c-0.1,0.3-0.1,0.7-0.2,1l-0.4-1.4L74.5,201.3z M82.9,183.7
			c-1.8-3.1-3.4-6.2-5.3-9c-1.3-1.8-3.2-2.3-5.4-1.1c-2.1,1.2-2.5,3.2-1.7,5.2c1.2,3.3,2.5,6.5,4.1,9.6c1.8,3.5,4.4,6.3,8.3,7.6
			c2.3,0.7,3.5,0,3.6-2.2c-3.2-0.3-6.7-0.2-7.9-4.1C77.5,186.2,80.5,185.3,82.9,183.7L82.9,183.7z M67.5,180
			c-0.9,0.4-1.8,0.8-2.6,1.3c-2.2,1.7-2.7,4.9-1.1,7.3c3,4.4,6.5,8.3,11.2,11c0.6,0.3,1.4,1,1.9,0.8c1.3-0.4,2.5-1.1,3.7-1.9
			c-0.1-0.9-0.5-1.7-1.1-2.3c-4.9-3.3-7.3-8.4-9.6-13.5C69.3,181.7,68.3,180.9,67.5,180L67.5,180z M70.6,205
			c0.5-0.3,1.6-0.7,2.2-1.5c0.3-0.8,0.2-1.8-0.3-2.5c-1.9-2.3-4-4.4-6.1-6.4c-0.9-0.9-2.1-1.6-3.3-1.9c-1.1-0.2-2.2,0-3,0.7
			c-0.6,0.8-0.9,1.8-0.7,2.8C60.2,199.6,66.3,204.6,70.6,205L70.6,205z"/>
		<path class="st0" d="M74.5,201.3h6.9l0.4,1.4c0.1-0.3,0.2-0.7,0.2-1c0-2.1,0.3-3.8,3.2-3.9c1.6-0.1,3.1-1.3,3.4-3.5
			c0.2-1.1,1.6-2.1,2-2.6c-1.9,0-4.3,0.3-6.7-0.1c-1.4-0.3-2.7-1.2-3.4-2.5c-0.9-1.9,0.9-2.7,2.4-3.2c3.2-1,5.9-3.2,7.4-6.2
			l-5.9,3.7c-1.1-2.7-1.8-5.2-3.1-7.4c-1.2-1.9-1.9-4-2-6.2c-0.2-7.2-3-13.7-5.3-20.4c-0.9-2.3-1.2-4.8-1-7.2
			c0.4-2.8,2.6-3.2,4.8-1.3c3.3,2.9,4.1,7.1,5.1,11c1.9,7.2,3.3,14.6,4.9,21.9c0.5,2.4,1.9,3.5,4.4,3.5c3.8,0,4.9,0.9,4.5,4.7
			c-0.4,4.6-0.9,9.3-2.3,13.7c-2,6.4-1.6,12.2,1.7,18.1c2.2,3.9,3.9,8,5.7,12c0.2,0.4,0.2,0.8,0.2,1.3c0.1,4.8-0.1,9.6-0.5,14.4
			c-8.7-8.4-12-19.6-17.5-29.3l4.4-4.3l-0.5-0.6c-2.1,2.5-5.3,3.6-8.5,3c-3-0.6-5.9-1.9-8.9-3.3C73.9,206,75,204.1,74.5,201.3z"/>
		<path class="st0" d="M82.9,183.7c-2.3,1.6-5.3,2.5-4.3,6c1.2,4,4.7,3.9,7.9,4.1c-0.1,2.2-1.4,3-3.6,2.2c-3.9-1.3-6.5-4.1-8.3-7.6
			c-1.5-3.1-2.9-6.4-4.1-9.6c-0.8-2.1-0.5-4,1.7-5.2c2.2-1.3,4.1-0.7,5.4,1.1C79.5,177.5,81.1,180.6,82.9,183.7z"/>
		<path class="st0" d="M67.5,180c0.7,0.9,1.7,1.7,2.2,2.7c2.3,5.1,4.7,10.2,9.6,13.5c0.6,0.6,1,1.5,1.1,2.3
			c-1.1,0.8-2.3,1.4-3.7,1.9c-0.5,0.2-1.3-0.5-1.9-0.8c-4.7-2.7-8.1-6.6-11.2-11c-1.6-2.3-1.1-5.5,1.1-7.3
			C65.8,180.8,66.6,180.4,67.5,180z"/>
		<path class="st0" d="M70.6,205c-4.3-0.4-10.4-5.4-11.3-9c-0.2-1,0.1-2,0.7-2.8c0.9-0.6,2-0.9,3-0.7c1.3,0.4,2.4,1,3.3,2
			c2.1,2,4.2,4.2,6.1,6.5c0.5,0.7,0.6,1.7,0.3,2.5C72.3,204.2,71.1,204.7,70.6,205z"/>
	</g>
	<path class="st0" d="M110.2,169.4c1.2-8.9,0.9-8.9,0.4-15.6c-0.4-6.7,0.9-13.5,4.6-15.6c3.8-2.1,9.3-1.3,16.5-3.8
		s11.4-5.5,16.3-4.2c4.9,1.3,5.7,2.1,8,5.9s3.6,11,4.9,13.9s1.3,1.3,5.1,0.4c3.8-0.8,5.1-1.3,7.2,2.5c2.1,3.8,1.3,7.6-1.5,9.9
		c-2.7,2.3-6.5,1.9-6.5,1.9s1.7,9.3-0.9,16s-5.9,11.9-9.7,14.8c-3.8,2.9-13.9,4.6-18.6,3.8c-4.6-0.8-15.6-4.6-19.4-10.1
		C112.8,183.8,109.4,175.8,110.2,169.4z"/>
	<path d="M121.1,222.3c0.1-1.1,0.2-2,0.3-2.8c0.6-4.1,3-6.8,6.7-8.7c2.5-1.3,5-2.7,7.4-4.2c0.9-0.6,2.3-2.2,2.1-2.6
		c-0.7-1.5-0.2-3.6-3.2-4.3c-11.2-2.5-19.9-8.5-23.7-19.9c-0.9-2.7-0.9-4.9-4.9-5.9c-5.8-1.4-8.1-8.6-5.3-13.1
		c1.6-2.6,4.4-4.3,7.4-4.4l2.4-0.1c-0.6-2.4-1.4-4.4-3.8-5.2c-3.5-1.3-6.6,0.1-9.9,1.8c2.1-3.8,5.4-5.9,9-7.9
		c-2.9-2.7-4.5-7-9.6-5.9c2.3-1.4,4.4-0.9,6.4,0.4c2.3,1.6,4.4,3.5,6.6,5.3c0.1,0.1,0.1,0.4,0.2,0.6l-8.7,4.1l0.2,0.7
		c3.1-1.3,6.1-1.3,8.6,0.5l2.8-8.1c-0.6,6.8-0.4,13.4,1.7,20.2L112,162c-1.4,6.9-1.8,13.8,1.5,20.3c4.5,8.7,12,13.5,21.3,15.4
		c6.1,1.2,12.1,0.7,17.5-2.7c6.6-4.1,10.3-10.2,11.8-17.6c1.4-6.7,0.5-13.7-2.6-19.9l0.5-0.2c1,1.8,1.9,3.7,2.9,5.5
		c0.3,0.6,0.9,1,1.6,1.1c3.2,0.2,6.6-3.3,6.7-7c0.1-3-2.7-5.6-6.1-5.6c-0.8-0.1-1.5,0-2.3,0.1c-1.7,0.3-1.9,0.6-2.1,3
		c-3.5-3.5-3.9-7.6-4-11.9l3.3,8.9c3-2,6.1-2.8,9.1-0.9c1.6,0.9,2.8,2.3,3.6,4c1.9,5.2-1.9,9.8-9,11.4c2,9.6-0.9,18.1-6.3,25.9
		c-0.8,1.3-2,2.4-3.4,3.1c-2.4,1.2-2.6,3.1-2.2,5.3c0.4,2.5,0.9,4.8,4,5.6c4.9,1.3,9.8,3,14.7,4.5c0.5,0.1,0.8,0.5,0.9,1
		c-2.1-0.3-4.2-0.6-6.2-1.1c-2.7-0.7-5.5-1.5-8.1-2.5c-1.3-0.5-1.8-0.3-2.6,0.9c-2.4,4-6.2,5.9-10.8,5.4c-3.9-0.4-7.3-2-9.5-6
		c-2.7,1.4-5.4,3-8.2,4.2c-4.4,1.9-5.4,5.7-6.3,9.7h3.5l0.2-3h0.4l0.9,2.7h46.2v-4.1c1.6,1.1,0.1,4.1,2.8,4.1c1.9,0.1,3.7,0,5.6,0
		l0.4-0.6c-1-1.7-1.8-3.5-3-5s-2.9-2.5-4.4-3.8l0.9-0.8c4,2.3,7,5.4,8.2,10.4 M138.8,200.8c0.3,1,0.7,2.3,1.2,3.6
		c1.7,4.5,5.2,6.4,9.8,5.1c1.9-0.5,3.3-2.3,3.1-4c-0.3-2.5-0.7-5.1-1-7.1L138.8,200.8z M103.7,167.1c-1-1.7-0.6-3.9,1-5
		c1.5-1.3,3.6-1.2,6.3,0.4c1.2-2.3,0.5-4.2-1.7-4.4c-4.7-0.4-8.8,3.4-8.3,8.1c0.5,4.3,2.6,6.7,6.9,6.7c0.6-0.1,1.2-0.5,1.4-1
		c0.3-2,0.3-4,0.5-6c0.1-1.5-0.5-2.3-2-2.6c-1.3-0.4-2.7,0.3-3.2,1.5C104.3,165.4,104,166.2,103.7,167.1z M155,205.6
		c-0.6,4.4-3.5,6.1-7.4,6c-3.7-0.1-6.8-1.6-8.7-5.1c-1.7,1.6,0.1,2.2,0.7,3c3.4,4.3,10.8,4.5,14.6,1.1
		C155.7,209.2,156.1,207.2,155,205.6L155,205.6z"/>
	<path d="M131.8,112.4c2.4,2.8,2.9,6.1,2.7,9.8c2.7-3.7,8.3-4,10.1-9c0.2,1.7,0.2,3.5,0.2,5.2c-0.2,1.8-0.8,3.5-1,5.4
		c2.6-3,7.9-2.5,9.3-7.1c0.6,3.4,0.4,4-1.9,8.7c2.9-0.7,5.7-2.4,8.3-0.4l-6.2,3.8h0.1l1.4-3.5l-5.4,4c-1.4-3.6,2.1-5.7,3-8.7
		c-2.5,2.5-7.3,1.8-8.1,6.5c-1.9-1.3-2.3-2.5-1.7-4.7s1.3-4.6,2-6.7c-2.1,1.8-4.2,3.6-6.4,5.4c-1.8,1.5-2.7,3.1-1.6,5.5
		c-2-0.1-3.3-2-3.4-4.6c-0.1-2.3-0.3-4.6-0.5-6.9c0-0.1-0.1-0.1,0.1,0.1l-5.1,13.2l-11.2-7.5c0.9,1.5,1.5,2.8,2.4,3.9
		c2.4,3.3,2.5,5.4,0.1,8.9l-11.6-7.3c4.2-0.2,7.5,3.1,11.1,5.5c1.7-2.5,0.7-4.5-0.7-6.4c-1.9-2.3-2.3-5.5-1.2-8.2
		c1.5,5.4,6.7,5.8,10.1,8.5c1.7-4.4,5.6-8,4.4-13.3L131.8,112.4z"/>
	<path d="M122,177.4c8.4-1.9,16.3-3.2,23.1-7.5c3.1-2,5.8-4.8,8.5-7.4c1.3-1.2,2.4-1.3,3.4,0.1c0.5,0.6,0.8,1.3,0.8,2.1
		c-0.7,5-1.4,10-2.6,14.9c-0.8,3.1-3.2,5.6-6.2,6.5c-3.8,1.4-7.7,2.9-11.7,3.5s-7.5-1.6-10.6-4.2c-1.3-1-2.4-2.2-3.2-3.5
		C122.9,180.6,122.6,178.9,122,177.4z M142.6,180.1l-0.7-3.5l0.2-0.1l1.5,3c7.5-2.6,11.1-7.8,8.7-13.2c-6.5,6.7-15.2,8.8-23.9,11.2
		C132.7,182.6,134.2,182.7,142.6,180.1L142.6,180.1z"/>
	<path d="M126.6,159c-5.9,0.8-9-0.6-11-4.4c-1.5-2.8-0.3-7.9,2.5-10.2c2.4-2,7.1-3,10.7-0.7c3.3,2,4,4.6,2.6,10.5
		c3.8-1.1,7.5-1.8,11.1,0.1c-3,0.4-6.1,0.5-8.9,1.3c-1.9,0.7-3.6,1.9-4.8,3.6c-1.5,2-0.3,4.2,2.1,4.7c5.8,1.1,10.7-0.5,14.4-5.2
		l0.5,0.3c-0.7,1.2-1.6,2.4-2.5,3.5c-3.5,3.5-10,4.8-14,2.7C126.5,163.8,125.8,162.3,126.6,159z M124,144.1c-4.2,0-7.9,2.8-7.8,6.2
		c0.2,4.8,2.7,7.1,6.9,7.3c3.6,0.1,8.1-2.2,8-6.3C130.9,146.7,128.5,144.1,124,144.1L124,144.1z"/>
	<path d="M148.4,154.2c-5.2,0.5-9-4.1-9.1-8.5c-0.1-4.8,4.9-8.5,9.2-8.5c4.7,0.2,8.4,3.9,8.5,8.6
		C157.1,149.7,154.4,154.5,148.4,154.2z M147.9,138.8c-4.2,0.2-7.5,2.7-7.5,7c0,4.1,3.3,7,7.7,7.1c3.9,0.1,7.4-3.2,7.4-6.9
		c0-4-3.4-7.3-7.4-7.2C148,138.8,147.9,138.8,147.9,138.8L147.9,138.8z"/>
	<path d="M115.2,138c-1.2,1.5-3.4,2-5.1,1c-2.9-1.4-5.8-2.8-9.5-1.4c2.3-2.1,5.1-2.2,7.9-1c1.3,0.6,2.8,1,4.6,1.6
		c-3.4-7.6-4-8.4-8.4-11.2c2.7,0.1,4.8,1.4,6.4,4C112.5,133.3,113.8,135.6,115.2,138z"/>
	<path d="M153.3,128.9c0.1,0.1,0.3,0.4,0.4,0.4c2.7-0.2,5.4-0.4,8.5-0.6l-3.5,6.1l6.3-1.5l0.3,0.7c-3.3,1.1-4.1,4.1-5.1,6.9
		l-0.7-0.2l1-5l-2.6,1.1c-1-3.2,1.4-4.8,2.6-6.5h-7.6L153.3,128.9L153.3,128.9z"/>
	<path d="M136.8,191.4c6.6,0.2,12.3-0.9,17-4.8C153.1,191.1,142.9,194.3,136.8,191.4z"/>
	<path d="M158.8,140.7c-5.1-9.5-10.6-10.3-17-10c3.4-1.6,6.8-0.9,10,0.6C155.7,133.3,157.6,136.7,158.8,140.7z"/>
	<path d="M120.8,135.8c1.7-0.5,3.4-1.3,5.2-1.3c4.2,0,8-1.6,11.9-3c0.2-0.1,0.5-0.1,0.7,0c-5,4.7-11.5,4.1-17.6,4.9L120.8,135.8z"/>
	<path d="M127,140.5c-5.3-1-9.9-0.2-13.5,5.1c0.2-2.6,1.8-4.9,4.3-5.9C121,138.3,124.1,137.9,127,140.5z"/>
	<path d="M170.1,160.8c0.6-2.1,1-3.8-0.9-5c-2.8-1.8-3.9,0.9-5.7,2.2c-0.5-2.3,0.7-3.4,2.4-4.1c2-0.8,4.3,0,5.4,1.9
		C172.4,157.3,172.1,159,170.1,160.8z"/>
	<path d="M152,157.5c2.1-1.8,5.3-1.2,7.3,0.3c2.5,1.9,3.2,6.5,1.8,10.1C160.1,158.3,159.8,158,152,157.5z"/>
	<path d="M154.2,136.3c-5.2-2.5-9.9-2.7-14.5,1.1C141.1,132.3,151.1,131.6,154.2,136.3z"/>
	<path d="M133.8,151.1l-1.6-6.9C134.3,145.8,135,148.7,133.8,151.1z"/>
	<path d="M115.1,156.5l5,4.3C118,161.2,115.6,159.1,115.1,156.5z"/>
	<path d="M158.4,149.3c-0.1,2.5-1.6,4.2-4.3,5.6L158.4,149.3z"/>
	<path class="st0" d="M138.8,200.8l13.1-2.4c0.3,2.1,0.6,4.6,1,7.1c0.2,1.6-1.2,3.5-3.1,4c-4.6,1.2-8.1-0.6-9.8-5.1
		C139.5,203.1,139.1,201.8,138.8,200.8z"/>
	<path class="st0" d="M103.7,167.1c0.2-0.9,0.5-1.7,0.9-2.5c0.5-1.3,1.9-2,3.2-1.5c1.5,0.3,2.1,1.1,2,2.6c-0.2,2-0.2,4-0.5,6
		c-0.3,0.6-0.8,1-1.4,1c-4.3,0-6.4-2.3-6.9-6.7c-0.5-4.7,3.5-8.4,8.3-8.1c2.2,0.2,3,2.1,1.7,4.4c-2.6-1.6-4.7-1.7-6.3-0.4
		C103.1,163.2,102.7,165.4,103.7,167.1z"/>
	<path class="st3" d="M155,205.6c1.2,1.6,0.7,3.6-0.9,5.1c-3.8,3.4-11.2,3.2-14.6-1.1c-0.6-0.7-2.3-1.4-0.7-3c1.9,3.4,5,5,8.7,5.1
		C151.5,211.7,154.3,210.1,155,205.6z"/>
	<path class="st3" d="M142.6,180c-8.4,2.6-9.9,2.6-14.2-2.5c8.7-2.4,17.4-4.4,23.9-11.2c2.3,5.3-1.2,10.6-8.7,13.2l-1.5-3l-0.2,0.1
		L142.6,180z"/>
	<rect x="101.5" y="221.9" class="st3" width="87.3" height="69.7"/>
	<g>
		<path d="M161.3,221.1h6.8 M120.7,221.5c12.6-0.2,25.2-0.3,37.8-0.4h1.8 M169.2,221.4h20.5v17.2c1.3,0,2.5,0,3.7,0
			c1.7,0,3.4,0.8,3.6,2.5c0.1,1-1.1,2.2-1.8,3.2c-0.1,0.1-0.2,0.2-0.3,0.3l3.1,2v3.4l-1.8,1.4c0.7,1.8,0.3,3.4-1.1,4.9
			c-0.7,0.7-0.9,1.9-1.3,3c0.3-1.7-0.5-2.4-2.1-2.1c1.1-0.6,2.1-1.3,3-2.1c0.5-0.5,0.9-1.6,0.7-2.1s-1.3-0.9-2.1-0.9
			c-1.1,0-2.2,0.1-3.3,0.3l-0.1-0.5c1.2-0.2,2.4-0.5,3.6-0.7c1.6-0.2,2.9-0.7,3.2-2.3c0.3-1.9-1-2.6-2.5-3c-4-1.1-7.6,0.2-11,2.1
			c-1.1,0.6-1.3,2,0.1,2.7c1.3,0.6,2.7,1.2,4.1,1.7l-4.5,2c1.6,2.8,4.1,2,6.5,2.4l-5.1,1.8l0.2,0.8c2.8,1.3,6,1.4,8.9,0.2l-4.2,2.3
			v26.7c0,0.2,0,0.5,0,0.7c-0.2,2.9-0.3,3-3.1,3c-23.6,0-47.3,0-70.9-0.1c-4.3,0-8.6,0-12.8-0.3c28.6-0.8,57.3-1.1,86.1-0.4v-29.8
			c-1.6-0.7-3.3-1.3-4.9-2.2c-0.2-0.1,0.3-1.4,0.5-2.2c-2.6-1.9-2.7-2.8-0.3-4.9c-3.3-2.6-3.4-3.7-0.4-6.1c-2-1.8-2.1-2.8-0.1-4.5
			c1.2-1,2.4-1.7,3.8-2.3c0.8-0.2,1.4-1,1.3-1.9c0.1-5.1,0.3-10.2,0.5-15.4h-84.2v-0.5h12.5 M186.8,245.2c0.3,0.1,0.6,0.1,1,0.1
			c2.7,0,5.3-0.1,7.4-2.1c1.5-1.4,1.3-2.9-0.7-3.4c-2.7-0.8-5.2,0.1-7.7,0.8c-1,0.3-2,0.8-2.8,1.4c-0.6,0.5-0.8,1.3-0.7,2.1
			c0.2,0.5,1.2,0.8,1.9,1C185.7,245.2,186.3,245.3,186.8,245.2L186.8,245.2z"/>
		<path d="M100.4,229.7c0.1,0.1,0.2,0.2,0.8,0.7v-6.2h0.6c-0.4,22.4,0.9,44.7-0.1,67.1H101c-0.1-1.9-0.4-3.7-0.4-5.6
			c0-10.9,0-21.8,0-32.7c0-0.7,0.1-1.4,0.1-2.1"/>
		<path class="st0" d="M193.5,259.5c-2.9,1.2-6.1,1.1-8.9-0.2l-0.2-0.8l5.1-1.8c-2.5-0.4-4.9,0.4-6.5-2.4l4.5-2
			c-1.4-0.5-2.7-1-4.1-1.7c-1.4-0.7-1.2-2.1-0.1-2.7c3.4-1.9,7-3.1,11-2.1c1.5,0.4,2.8,1.2,2.5,3c-0.3,1.7-1.6,2.2-3.2,2.3
			c-1.2,0.1-2.4,0.4-3.6,0.7l0.1,0.5c1.1-0.2,2.2-0.3,3.3-0.3c0.7,0,1.8,0.4,2.1,0.9s-0.2,1.6-0.7,2.1c-0.9,0.8-2,1.5-3,2.1
			c1.6-0.3,2.3,0.4,2.1,2.1L193.5,259.5z"/>
		<path class="st0" d="M186.8,245.2c-0.6,0.1-1.1,0.1-1.7,0c-0.7-0.2-1.7-0.5-1.9-1c-0.1-0.8,0.2-1.6,0.7-2.1
			c0.8-0.7,1.8-1.2,2.8-1.4c2.5-0.7,5-1.6,7.7-0.8c2,0.6,2.2,2,0.7,3.4c-2.1,2-4.7,2.1-7.4,2.1C187.5,245.3,187.1,245.2,186.8,245.2
			z"/>
	</g>
	<path class="st3" d="M124,144.3c4.5,0.1,6.9,2.7,7,7.2c0.1,4-4.4,6.4-8,6.3c-4.1-0.1-6.7-2.5-6.9-7.3
		C116,147,119.8,144.2,124,144.3z"/>
	<path class="st3" d="M147.9,139c4-0.1,7.4,3,7.5,7.1v0.1c0,3.7-3.5,7-7.4,6.9c-4.4-0.1-7.7-3.1-7.7-7.1
		C140.4,141.7,143.6,139.2,147.9,139z"/>
	<path d="M125.8,145.9c2.3-0.3,4.4,1.3,4.7,3.6c0.1,0.5,0,1-0.1,1.4c-0.4,1.4-1.7,2.5-3.1,2.6c-1.2,0.1-2.4-0.5-3-1.5
		c-0.4-0.7-0.5-1.5-0.3-2.2c0.3-1.3,1.6-2.1,3-1.8c1,0.2,1.7,1.1,1.6,2.2c0,0.2-0.1,0.3-0.1,0.5c-0.4,0.9-1.8,1.2-2.3,0.2
		c-0.2-0.3,0-0.7,0.3-0.9c0.3-0.1,0.6,0.2,0.8,0.1c0.4-0.2-0.2-0.8-0.4-0.9c-0.5-0.2-1,0-1.3,0.3c-0.5,0.6-0.6,1.5-0.2,2.2
		c0.8,1.1,2.2,1.3,3.3,0.6c0.2-0.2,0.4-0.3,0.6-0.6c0.9-1.1,0.9-2.6,0-3.7c-1-1.3-2.7-1.7-4.2-1c-0.9,0.4-1.7,1.2-2,2.2
		c-0.7,2.2,0.4,4.5,2.5,5.4c1.8,0.8,3.5-0.1,5-1c-0.8,1.3-2.3,2.2-3.9,2.2c-2.1,0-3.8-1.6-4.7-3.8
		C121.5,149.3,122.6,146.3,125.8,145.9z"/>
	<path d="M146,141.4c-2.3-0.3-4.4,1.3-4.7,3.6c-0.1,0.5,0,1,0.1,1.4c0.4,1.4,1.7,2.5,3.1,2.6c1.2,0.1,2.4-0.5,3-1.5
		c0.4-0.7,0.5-1.5,0.3-2.2c-0.3-1.3-1.6-2.1-3-1.8c-1,0.2-1.7,1.1-1.6,2.2c0,0.2,0.1,0.3,0.1,0.5c0.4,0.9,1.8,1.2,2.3,0.2
		c0.2-0.3,0-0.7-0.3-0.9c-0.3-0.1-0.6,0.2-0.8,0.1c-0.4-0.2,0.2-0.8,0.4-0.9c0.5-0.2,1,0,1.3,0.3c0.5,0.6,0.6,1.5,0.2,2.2
		c-0.8,1.1-2.2,1.3-3.3,0.6c-0.2-0.2-0.4-0.3-0.6-0.6c-0.9-1.1-0.9-2.6,0-3.7c1-1.3,2.7-1.7,4.2-1c0.9,0.4,1.7,1.2,2,2.2
		c0.7,2.2-0.4,4.5-2.5,5.4c-1.8,0.8-3.5-0.1-5-1c0.8,1.3,2.3,2.2,3.9,2.2c2.1,0,3.8-1.6,4.7-3.8C150.3,144.9,149.2,141.9,146,141.4z
		"/>
	<g>
		<path class="st4" d="M162,284.4c0.3-0.2,0.7-0.6,0.6-0.6l-0.9,0.7L162,284.4z"/>
		<path class="st4" d="M163.2,282.5c-0.8,0.4-1.4,1-2.1,1.6c0.9-0.6,0.6-0.3,1.6-1.1c0.2,0-0.2,0.4-0.5,0.6c0.2-0.2-0.1,0.3,0.5-0.2
			c0.6-0.7,0.5-0.8-0.1-0.5C162.8,282.8,163,282.7,163.2,282.5z"/>
		<path class="st4" d="M158.7,274.4l-0.1,0.1C158.7,274.5,158.7,274.5,158.7,274.4z"/>
		<path class="st4" d="M155.8,269.7c0.1,0,0.1,0,0.2-0.1C155.9,269.6,155.8,269.6,155.8,269.7z"/>
		<path class="st4" d="M156.2,268.1C156.2,268.2,156.2,268.2,156.2,268.1C156.3,268.2,156.3,268.1,156.2,268.1z"/>
		<path class="st4" d="M158.7,274.4l0.2-0.3C158.7,274.3,158.8,274.3,158.7,274.4z"/>
		<path class="st4" d="M160.3,283.4c0.1,0,0.2-0.1,0.3-0.1h-0.1L160.3,283.4z"/>
		<path class="st4" d="M161,275.8L161,275.8l0.4-0.3L161,275.8z"/>
		<path class="st4" d="M162.4,277.1c-0.4,0.2-0.7,0.5-1.1,0.8c0.2-0.1,0.4-0.3,0.6-0.4C162,277.4,162.2,277.3,162.4,277.1z"/>
		<path class="st4" d="M163,280.5l0.1-0.1L163,280.5z"/>
		<path class="st4" d="M160.3,274.6l0.3-0.2C160.5,274.4,160.4,274.5,160.3,274.6z"/>
		<path class="st4" d="M124.8,234.3l0.2-0.1C124.8,234.2,124.8,234.3,124.8,234.3z"/>
		<path class="st4" d="M128,230.1L128,230.1l0.5-0.3L128,230.1z"/>
		<path class="st4" d="M156.2,266L156.2,266C156.3,266,156.2,266,156.2,266z"/>
		<path class="st4" d="M146.4,253.6c-0.6,0.6-1.1,0.4-1.7,1.1C144.9,254.4,146,254,146.4,253.6z"/>
		<path class="st4" d="M160.3,283.3C160.3,283.3,160.3,283.2,160.3,283.3L160.3,283.3z"/>
		<path class="st4" d="M144.6,254.7L144.6,254.7L144.6,254.7L144.6,254.7z"/>
		<path class="st4" d="M153.3,263.2c-0.1,0.1-0.2,0.2-0.3,0.3C153.1,263.4,153.2,263.3,153.3,263.2z"/>
		<path class="st4" d="M154,266.4l0.1-0.1C154,266.3,154,266.4,154,266.4z"/>
		<path class="st4" d="M151.3,262.7c0-0.1,0.1-0.2,0-0.1V262.7C151.3,262.6,151.4,262.6,151.3,262.7z"/>
		<path class="st4" d="M150.3,261.4l-0.1,0.1h0.1V261.4z"/>
		<path class="st4" d="M127.6,238.5c0.2-0.2,0.5-0.3,0.7-0.5C127.7,238.3,127.4,238.2,127.6,238.5z"/>
		<path class="st4" d="M160.7,283c-0.1,0.1-0.2,0.2-0.3,0.2h0.1C160.5,283.2,160.6,283.1,160.7,283z"/>
		<path class="st4" d="M145,267.2v-0.3C144.9,267,145,267.1,145,267.2z"/>
		<path class="st4" d="M133.7,248.6h-0.1C133.6,248.7,133.6,248.7,133.7,248.6z"/>
		<path class="st4" d="M144.4,266.4c0.2-0.2,0.3-0.3,0.5-0.5l-0.2,0.1L144.4,266.4z"/>
		<path class="st4" d="M125.5,237.6c0.1,0.2,1.2-0.5,1.8-0.8c0.5,0.1-0.7,0.6-1.3,1c0.4,0,1.5-0.4,1.5-0.3c-0.1,0.1-0.3,0.2-0.5,0.3
			c1-0.3,0.3,0.5,1.6,0.1l-0.2,0.2c0.5-0.3,1.1-0.7,1.5-0.9c0.1,0.1,0.8-0.2,0.1,0.2c0-0.1-0.3,0.1-0.6,0.2l0.4-0.1
			c-1,0.7-0.4,0.1-1.2,0.5c0.5,0,1.5-0.2,1.2,0.1c-1,0.6-0.5-0.2-1.3,0.6l0.3-0.5c-1.5,1.1,0-0.2-1.6,0.9c-0.1,0.5,0.7,0.1,0.6,0.5
			c0.6-0.3,0.8-0.5,1.4-0.7c1.3-0.1-2.4,1.8-0.8,1.4c0.7-0.3,2.1-1,1.5-0.4l-1.2,0.6c0.1,0.4,1.8-0.7,1.2,0c-0.5,0.2-0.5,0-0.6,0.1
			c-0.8,0.7,0.7-0.2,0.8-0.1l-1,0.6c0.3,0.2,1.3,0.2,1.7,0.4c-0.3,0.1-0.7,0.3-0.9,0.5c0.7,0.2,0.4,1,0.1,1.8l1-0.3
			c-0.2,0.2-0.3,0.3-0.5,0.4c-0.2,0.4,0.6-0.3,1-0.4c0.1,0.1-0.4,0.4-0.7,0.5c0.9-0.1,2.1-0.1,1.3,0.7l-0.3,0.1
			c-0.2,0.5,2-0.8,1.3-0.1l-0.2,0.1c-0.1,0.7,1.1,0.9,0,2c1.3-0.7-0.3,0.9,1.5-0.2c-0.7,0.8-1.1,0.9-1.4,1.7c0,0.2,1.2-0.5,1.5-0.5
			l-0.9,0.6l1.1-0.4l-1,0.7h0.3c0.2-0.2,0.4-0.4,0.6-0.5c0.5-0.1-0.3,0.9-0.8,1.2h1.1c-0.3,0.1-0.5,0.2-0.8,0.3
			c1.1-0.3-0.9,0.6,0.1,0.3c0.2-0.2,0.5-0.3,0.7-0.4c-0.5,0.5-0.3,0.7,0,0.7l-0.7,0.4c0.1,0.5,0.7,0.6,1,1c0.4-0.4,0.9-0.8,1.5-0.9
			l-0.9,0.6c0.6-0.3,0.3-0.3,1.1-0.7c0,0.2-1,0.8-1.4,0.9h0.4c-0.3,0.2-0.5,0.2-0.8,0.5c0.6-0.3-0.7,0.9,0.3,0.4l-0.3,0.2
			c0.2,0.4,0.7,0.4,0.9,0.7c0.8-0.5,0.7-0.3,1.5-0.6c-0.1,0.4-0.6,1.1-0.3,1.3c0.5-0.1,0.7-0.4,1.3-0.6c-0.7,0.5-0.5,0.7-1.1,0.9
			c0.3,0.3,0.4,0.3,1.3,0.4c0.2-0.2,0.4-0.4,0.6-0.5c0.2,0-0.2,0.4-0.6,0.6h-0.1c1.4-0.3-1.5,2.5,0.3,1.9h-0.1l1.1-0.1
			c0,0.3-0.6,0.3-1,0.7c1.5-0.4,0.3,0.8,1.3,0.6c-2,1.7,0.8,0.9-0.3,2.2l0.5-0.4c0.6-0.2-0.2,0.3-0.3,0.5c0.4-0.3,0.4-0.4,0.7-0.5
			c1.1,0.4,0.4,2.1,0.5,3.3c0.1,0.4,2.7-1.7,1.8-0.4l-1,0.5c0.7-0.1,1,0.2,1.1,0.5c0.1,0.4,0.6,0.7,1,0.6c-0.2,0.1-0.5,0.3-0.6,0.3
			c-0.6,0.6,0.3,0.5,0.9,0.1c0,0.1-0.5,0.4-0.7,0.6c-0.3,0.4,1.1-0.3,0.5,0.2c-0.1,0.1-0.2,0.1-0.3,0.1c0.4-0.2,0.2,0.4,0.9-0.2
			c-0.2,0.5,0.6,0.2,0.3,0.7c1-0.5-0.2,0.7,1.1-0.2c-1.3,0.9-0.7,1.1-0.1,0.8c-0.4,0.2-0.3,0.4-0.9,0.7c0.1,0.1,0.5,0.1,1.1-0.4
			c-1.3,1.4,1.6-0.3-0.2,1.3c0.8-0.1,1.6,0,2.4,0.2c-1.3,0.9-0.5-0.4-1.8,0.6c0.8,0,2.1-0.6,2,0.1c-0.1,0.2-0.6,0.3-0.8,0.5
			c0.8,0,0.5,0.8,1.4,0.7c-0.1,0.1-0.3,0.1-0.4,0.2c0.1,0-0.1,0.3,0.5-0.1l-0.2,0.1c0.7-0.7,1.9-1,2.4-1.3c-1.7,1.1-0.1,0.6-2.3,2
			c0.3-0.1,0.6-0.3,0.8-0.5c-0.1,0.1-0.3,0.3-0.7,0.6c0.5,0,1-0.5,1.2-0.3c-0.3,0.2-0.4,0.2-0.7,0.5c0.6-0.3,1.2-0.6,1.1-0.2
			c-0.2,0.1-0.4,0.3-0.4,0.2c0.3,0.3,1.8-0.5,1.6,0.2c-1.3,0.8-0.3,0.4-1.3,1.2l0.5-0.1l0.4-0.5c0.1,0.2,1-0.3,0.7,0.1l-0.5,0.2
			l0.5,0.2l0.3-0.5c0.7-0.2,1.3-1,1.2-0.6c-0.1,0,0.1,0.2-0.4,0.7l0,0c0.4-0.2,0.8-0.4,0.6,0c-0.3,0.3-1.1,0.9-1.4,1
			c0.9-0.6,0.5,0.2,1.5-0.4c-0.3,0.2-0.6,0.4-0.9,0.6l0.7-0.5c-0.2,0.3-0.4,0.5-0.7,0.7c0.1,0.3,1.2-1.1,0.9-0.4
			c-0.1,0.1-0.2,0.1-0.3,0.2c-0.1,0.5,0.9,0.2,0.7,0.7c-1,0.9-0.4,0-1.2,0.7c0.5,0.2,1.8-0.2,1.8,0.3l0.1-0.2
			c1.5-1.1-0.5,0.8,0.3,0.5c-0.2,0.1-0.5,0.3-0.7,0.5c0,0.4,0.7,0.2,1.5,0.2l-0.4,0.3c-0.2,0.4,0.1,0.5,0.1,0.8
			c0.4-0.3,0.4-0.1,0.9-0.6c-1.7,2.2,1.8,0,0.4,1.8c0,0-0.4,0.1-0.4,0.2l0.6,0.1c0.3-0.2,0.5-0.5,0.7-0.8c0.4-0.3,0.7-0.4,0.8-0.3
			c-0.5,0.3-1,0.7-1.3,1.2c0.2-0.2,0.4-0.3,0.6-0.5c-1,1.1,1.3-1,0.7-0.1l-0.3,0.3c0.2,0,0.7-0.3,0.7-0.1c-0.7,0.6-0.4,0.2-1,0.7
			c0.2,0.1,1.6-0.9,1-0.1c-0.3,0.1-0.3,0-0.6,0.1c-0.7,0.8-0.5,0.7-0.5,0.9l0,0l-0.2,0.5l0.2-0.3c2-1.4,0.6,0.1,2-0.7
			c-1.3,0.7-0.7,0.5-1.5,1.2c-0.2,0.3-0.4,0.5-0.6,0.7c0.7-0.4-0.4,0.6,0.7,0c-0.3,0.2,0.1,0.1-0.6,0.7c0.3,0,0.4-0.4,0.7-0.7
			c1.1-0.5-0.6,1.4,0.9,0.7c0.7-0.1,1.6-0.8,2.3-1c-0.3,0.3-0.6,0.6-1,0.7c-0.3,0.5-0.1,0.5,0.3,0.4c-0.2,0.2-0.5,0.4-0.7,0.6
			c0.2,0,1-0.7,0.7-0.3c-0.3,0.2-0.8,0.6-1.1,0.8c0.3-0.1,0.9-0.4,1.3-0.4c-0.3,0.3-0.7,0.5-1.1,0.7c0.5,0,1.1-0.2,1.5-0.5l0.2-0.3
			c0.1,0-0.6,0.5-0.7,0.6c-0.7,0.4,0.1-0.4,0.3-0.6l0.2-0.1c1.4-1.4-0.5-0.2-0.6-0.4l1.2-0.9l-1.1,0.6c0.3-0.4,0.7-0.7,1.1-0.9
			c0.4-0.6-0.5,0.2,0-0.4c0.1-0.1,0.1-0.1,0.2-0.2l-0.4,0.2c0.3-0.2,0.7-0.7,0.7-0.5c0.4-0.7-1.1,0.3-0.4-0.5h0.1
			c-0.6,0-0.8,0.7-2,1.2l1.9-1.9l-0.8,0.7c0-0.1,0-0.2,0.3-0.4c-0.7,0.3-0.3,0.3-0.9,0.7c0.6-0.8-0.7-0.1,0.6-1.3
			c-0.7,0.5-0.3,0.5-0.9,0.7c1.4-1.2-0.4,0,0.1-0.7c0.7-0.6,0.5-0.1,1-0.8c-1.3,0.9,0-0.5-0.3-0.4c-1,0.8-0.6,0.1-1.1,0.1
			c0.3-0.3,0.2-0.8,0.4-1.3l0.2-0.1c-1,0.7-1,0.4-1.3,0.5c0.4-0.3,0.7-0.6,1.2-0.8l-0.1-0.1c-0.2,0.2-0.5,0.3-0.7,0.3l0.7-0.6
			c-0.2-0.1-1.2,0.4-0.9-0.3c-0.7,0.5-1.8,1.8-2.4,1.9c0.4-0.3,0.8-0.6,1.2-0.9c-0.1,0-0.4,0.2-0.2,0l0.7-0.4
			c0.2-0.3-0.6,0.4-0.6,0.2c0.5-0.4,0.3-0.4,0.7-0.7c0.1,0-0.2,0.3,0.1,0.1c0.1-0.4,0.3-0.7,0.6-0.9c-0.2,0.2-0.5,0.4-0.8,0.6
			c-0.2-0.1,0.6-0.6,0.8-0.9c-0.4,0.3-0.1-0.2-0.9,0.5c0-0.1,0.3-0.4,0.5-0.6c-0.4,0.2-0.5-0.4-1.2,0.4v0.1H159c-1,0.3-0.1-1-0.6-1
			l0.3-0.2c-0.5,0.1-0.5-0.3-1.2,0.1c0-0.1,0.4-0.5,0.7-0.7c-0.3,0-0.6,0.3-0.3-0.3c0.6-0.2,0.4-0.4,0.5-0.1
			c0.1-0.4,0.5-0.7-0.4-0.4c0.7-0.5,0.7-0.8,0.5-0.7l-0.4,0.5c-0.2,0-0.2-0.1-0.2-0.3l0.9-0.7c0.8-1.2-2.4,0.8-0.7-0.9
			c-0.7,0.4-0.3,0.5-1.1,1c0-0.3,1.2-1.5,1.1-1.5c0.3-0.6-1.5,0.8-1.3,0.3c-0.4,0.5-1,0.8-1.6,1c0-0.3,1.2-1.3,1.5-1.4
			c0.1,0,0,0.1-0.1,0.2c0.3,0,0.5-0.2,0.7-0.4l-0.3,0.2c0.3-0.3,0.1-0.5,0.6-0.9c-0.3,0.1-0.6,0.3-0.7,0.6c0.3-0.6-0.3-0.3-0.1-0.8
			c-0.2,0.2-0.5,0.5-0.5,0.5c0.1-0.6-0.7,0.3-1,0.2c0.4-0.5,1.2-0.9,0.6-0.7c0.3-0.4,0.7-0.7,1.1-0.9c-0.8,0.3,0.1-0.7,0.1-0.9
			l0.3-0.1c-0.2,0.1-0.2,0-0.3-0.1l-0.6,0.6c0-0.2,0.1-0.3,0.3-0.4c-0.6,0.4-1.1,0.8-1.7,1.2c0.3-0.3-0.6,0,0.3-0.7
			c-0.1,0.5,0.9-0.7,1.2-0.6c-0.1,0-0.2,0-0.1-0.2c0.1-0.1,0.2-0.1,0.3-0.1c0.6-0.9-1.1,0.6-1.3,0.3c0.5-0.3,0.9-0.7,0.7-0.7
			c0.1,0.1-0.8,0.7-1.2,0.9c0.3-0.5-0.4,0-0.5-0.1l-0.1,0.2c-0.5,0.3-0.5,0.2-0.7,0.2c0.4-0.3,0.3-0.1,0.5-0.3c-1,0.5,0.7-1-0.1-0.7
			c0.3-0.3,0.9-0.7,1.1-0.9c-0.8,0.3,0.5-0.7-0.2-0.6c-0.3,0.4-0.7,0.6-1.2,0.7h0.7l-1.1,0.5c0.1,0.1,0.6-0.1,0.5,0.1
			c-0.4,0.1-0.7,0.3-1,0.6c0.9-0.9-0.8,0.1-0.3-0.5l1.7-1.2c0.5-0.8-1.2,0.2-1-0.5l-0.2,0.3c-0.7,0.4-0.2-0.1-0.6-0.1
			c0.4-0.3,0.7-0.6,1-0.9c-0.4,0.3-0.1-0.3-1.3,0.5l0.6-0.7c0.1-0.5-1.8,0.9-1.8,0.4c0.7-0.4,1-0.7,1.5-0.9c-0.1-0.1,0-0.2-0.4,0
			c0.3-0.3-0.9,0.3-0.5-0.2c-0.3,0.1-0.9,0.5-0.9,0.4c0.1-0.1,0.2-0.1,0.3-0.2c-0.3,0.2-0.5,0.1-1,0.6c1.5-1.5-0.7-0.7,0.7-2
			c-0.3,0-0.6-0.1-0.8-0.3c0.2-0.1,0.3-0.2,0.2-0.1c0.3-0.6-1.7,1-1.3,0.3c0.8-0.8,0.6-0.2,0.9-0.5c1.8-1.3-0.5-0.2,0.5-1.1h0.1
			c0.5-0.6-0.9,0.1-1-0.2c0.1-0.1,0.2-0.1,0.3-0.2c-0.6,0.3-1.3,0.5-2,0.4c0.4-0.2,0.8-0.4,1.2-0.7c-0.2,0-1.2,0.9-1.5,0.8
			c0.4-0.5,0.9-0.9,1.4-1.3l0.2,0.2c0.9-0.8-0.2-0.2-0.1-0.4l0.5-0.3c-0.3-0.2-1.5,0.6-1.6,0.2l-0.3,0.3c-1.2,0.6,0.5-0.6-0.4-0.2
			l1.1-0.8c-0.6,0.2-1.1,0.3-1.7,0.3c0.7-0.3,1.4-0.6,2.1-0.7c-0.1-0.1-0.3-0.3-0.9,0c0.1,0,0.5-0.2,0.3,0c-1,0.5-1.5,0.6-1.7,0.4
			c2.2-1.5,0.1-1,1.8-2.3c-1.1,0.2-0.2-1-0.6-1.4c-1.6,1.3-0.1-0.1-1.9,1.1c-0.2,0-0.2-0.1-0.1-0.2l0.8-1c0.5-0.4,0.5-0.2,0.9-0.4
			c0-0.3,0.7-0.6,1.1-1.1c-0.6,0.5-1,0.5-0.8,0.2l-0.7,0.7c-1.2,0.3,1.3-1.3,0.1-1l0.6-0.3c-0.4,0.1-0.4-0.6-1.9,0.1
			c0.2-0.2,0.5-0.4,0.8-0.5c-0.1-0.5-2.1,0.1-1.4-0.8l0.5-0.3c-0.2,0-0.9,0.4-0.5,0c0.2-0.1,0.5-0.3,0.5-0.3c-0.2,0.1-0.9,0.3-0.7,0
			l0.5-0.2c0.3-0.7-1.6,0.2-2.1,0c1.3-0.8,1.5-1.4,1.6-1.7l0.2-0.1c-0.1-0.6-1.6-0.1-2.4-0.2c1.2-1.2,0-1.3,0.5-2.2
			c-0.4,0.3-0.8,0.5-1.2,0.6c0.2-0.3-1.1,0.3,0.1-0.4v0.1c1.1-0.8,0.7-0.8,0.6-1l-1.6,1c2-1.8-1.5-0.6,0.4-2.1c-0.5,0.1-0.5,0-1,0.1
			l0.9-0.5c0-0.4,0.1-0.6-0.4-0.9l0.6-0.3c-0.1-0.2-2.6,1.2-2.7,1.1l1.2-0.8c-0.2-0.3,0.7-1.4-0.7-1c0.2-0.1,0.4-0.2,0.6-0.3
			c-0.1-0.2,0.5-1.1-1.2-0.1c1.1-0.7-0.1-0.4-0.7-0.3l0.9-0.5c-1.2,0.5-1.5,0.6-1.9,0.6c0.1-0.1,0.6-0.4,0.5-0.2
			c0.3-0.4-0.9,0.3-0.6-0.2l0.6-0.2c0-0.2-0.3,0-1,0.2c-0.4,0.1,0-0.5,0.7-0.9c-0.5,0.2-1.1,0.5-1,0.3c0.2-0.1,0.4-0.2,0.6-0.3
			c0.4-0.6-1.2,0.1-0.5-0.6c0.2-0.1,0.3-0.2,0.5-0.3c0.1,0.3,0.2,0.5,0.1,0.5c0.6-0.5,1.3-0.9,2-1.2c-0.7,0.2-2.1,0.6-1.8,0.2
			l0.3-0.2h0.1c0.1-0.1,0-0.1-0.2-0.1c0.1-0.1,0.2-0.2,0.1-0.3c0.6-0.4,0.2-0.4,0.2-0.5c-0.9,0.5-0.8,0.3-1.4,0.8
			c0.1-0.1,0.1,0,0.2,0h0.1h-0.1c0.1,0.1,0.1,0.1,0.2,0.2c-0.5,0.2-0.9,0.3-0.5-0.1c-0.6,0.3-1.2,0.5-1.5,0.6
			c1.1-0.8,1.6-1.4,2.3-1.9c-0.6,0-0.7-0.5-2.4,0.2c-0.3,0,0.4-0.4,0.6-0.5c0.2,0,0.2,0,0.4-0.1c-0.5,0.1-0.5-0.4-1.6,0.2
			c0.4-0.5,1.1-0.5,0.7-0.7l0.4-0.1c1.5-1.6-3.4,0.6-1.5-1.3c-0.1,0.1-0.2,0.2-0.3,0.3c0.6-1.3-1.8-1-0.6-2.6c0.2-0.4-0.5,0-1.1,0.1
			l0.9-0.5l-1.2,0.3c-0.9,0.1,2-1.8,0.3-1.4l-0.6,0.4c0-0.2-0.6-0.3,0.1-0.6c-0.1,0-0.7,0.3-0.4,0.1l0.5-0.3l-1,0.1
			c0.2-0.5,2-1,1.8-1.4c-0.7,0.1-1.3,0.2-1.9,0.5c0,0.1-0.2,0.3-0.7,0.6h-0.3c-1.5,0.7-3,1.4-3.8,2.2l1-0.2l-0.7,0.4l-0.1-0.2
			c-0.6,0.5,0,0.2,0.5,0.1c-0.3,0.1-0.5,0.3-0.7,0.5l1.5-0.5c-0.5,0.3-1.2,0.5-1.4,0.8c0.7-0.2,1.2-0.7,1.7-0.8
			c-0.6,0.5-1.1,0.7-0.5,0.5c-0.2,0.2-0.5,0.3-0.8,0.3c0.5-0.1,0.3,0.2,1.1-0.1c-0.7,0.5,0.4,0.3-0.9,1c0.4-0.2,0.8-0.3,1.3-0.3
			c-1.7,0.7,0.1,0.5-1.6,1.3c1.5-0.6,0.9,0.2,1.9,0c-0.1,0.1-0.4,0.1-0.3,0.1c0,0.2-0.5,0.5-0.7,0.7c0.8-0.4,1.6-0.7,2.4-0.8
			c-1.1,0.8-1.5,0.7-2.5,1.3c1-0.5,1.1-0.2,1.9-0.7c-0.4,0.4-0.8,0.7-1.2,0.9c1.5-0.8,0.3,0,1.3-0.4c-0.6,0.6-1.4,0.8-0.8,0.8
			C126.2,237.2,125.9,237.4,125.5,237.6z M130.9,241.2L130.9,241.2l-0.1-0.1L130.9,241.2L130.9,241.2z M131.1,241.6
			c0-0.1,0-0.1-0.1-0.2c0.3-0.2,0.6-0.3,0.6-0.3C131.5,241.2,131.4,241.4,131.1,241.6z M136.5,237.4c0.2,0,0,0.1-0.2,0.2
			c-0.1,0-0.1-0.1-0.2-0.1l-0.1,0.1C136.2,237.5,136.4,237.4,136.5,237.4L136.5,237.4z"/>
		<path class="st4" d="M135.3,237.9L135.3,237.9l-0.2,0.1L135.3,237.9L135.3,237.9z"/>
		<path class="st4" d="M158.7,274.6L158.7,274.6l-0.1,0.1L158.7,274.6z"/>
		<path class="st4" d="M133,248.4l0.2-0.1L133,248.4z"/>
		<path class="st4" d="M157.8,278.8c-0.1,0.1-0.1,0.1-0.2,0.2C157.7,278.9,157.7,278.8,157.8,278.8z"/>
		<path class="st4" d="M158.3,279.8l-0.2,0.3C158.3,280.1,158.3,279.9,158.3,279.8z"/>
		<path class="st4" d="M158.5,280.8c0.1-0.1,0.2-0.2,0.3-0.3l0,0L158.5,280.8z"/>
		<path class="st4" d="M148.8,270.4L148.8,270.4C148.5,270.4,148.6,270.4,148.8,270.4z"/>
		<path class="st4" d="M153.2,272.3c-0.1,0.1-0.3,0.1-0.4,0.2C152.7,272.6,152.7,272.7,153.2,272.3z"/>
		<path class="st4" d="M145,267.3L145,267.3L145,267.3z"/>
		<path class="st4" d="M152.6,272.4c-0.1,0.2,0,0.2,0.1,0.2C152.7,272.4,152.8,272.3,152.6,272.4z"/>
		<path class="st4" d="M160.7,284L160.7,284h0.1H160.7z"/>
		<path class="st4" d="M160.8,284h0.1C160.9,284,160.9,283.9,160.8,284z"/>
		<path class="st4" d="M161.2,283.9l-0.3,0.1C160.9,284,161,284,161.2,283.9z"/>
		<path class="st4" d="M160.3,282.9l-0.3,0.2C160.1,283,160.2,283,160.3,282.9z"/>
		<path class="st4" d="M160,282.6c0,0.1-0.4,0.7-0.2,0.6l0.2-0.2C159.6,283.4,160.5,282.3,160,282.6z"/>
		<path class="st4" d="M162.3,278.7v0.4c0.3-0.3,0.6-0.7,0.7-0.6C163.7,277.5,162.5,279.1,162.3,278.7z"/>
		<path class="st4" d="M162.2,277.6c0.2,0,0.4-0.4,0.6-0.5C162.5,277.2,162.3,277.4,162.2,277.6z"/>
		<path class="st4" d="M158,272.5l0.7-0.5C158.5,271.9,158.4,272.2,158,272.5z"/>
		<polygon class="st4" points="153.6,274.3 153.2,274.8 153.9,274.3 		"/>
		<polygon class="st4" points="158.1,269.8 158.2,269.8 157.9,269.8 		"/>
		<path class="st4" d="M151.2,261.2l-0.9,0.7C150.6,261.8,151.6,261.1,151.2,261.2z"/>
		<path class="st4" d="M147.5,257.9c0.4-0.4,0.6-0.7,0.1-0.4C147.7,257.6,147.4,257.9,147.5,257.9z"/>
		<polygon class="st4" points="141.2,244.9 141.5,244.8 141.2,244.8 		"/>
	</g>
	<path class="st4" d="M171.5,230.4c-0.3,0.2,0.6,1.1,1,1.7c-0.1,0.6-0.7-0.6-1.3-1.1c0,0.4,0.5,1.5,0.4,1.6
		c-0.1-0.1-0.3-0.3-0.3-0.4c0.4,1-0.6,0.6-0.1,1.8c-0.1-0.1-0.2-0.1-0.2-0.2c0.4,0.4,0.8,0.9,1.1,1.4c-0.1,0.1,0.3,0.8-0.3,0.2
		c0.1,0-0.1-0.3-0.2-0.5l0.1,0.4c-0.9-0.9-0.1-0.5-0.6-1.2c0,0.5,0.3,1.5-0.1,1.4c-0.7-0.9,0.2-0.7-0.7-1.3l0.6,0.1
		c-1.4-1.3,0.3,0-1.2-1.5c-0.6,0.1-0.1,0.8-0.7,0.9c0.3,0.6,0.6,0.7,0.9,1.3c0.1,1.4-2.3-2-1.7-0.4c0.4,0.7,1.2,1.9,0.5,1.5L168,235
		c-0.5,0.2,0.9,1.7,0,1.3c-0.3-0.5,0-0.6-0.1-0.7c-0.9-0.6,0.3,0.7,0.1,0.9l-0.7-0.9c-0.3,0.5-0.3,1.5-0.6,2
		c-0.2-0.3-0.4-0.6-0.7-0.9c-0.2,0.9-1.4,0.9-2.4,0.7l0.4,1c-0.1,0-0.4-0.3-0.4-0.5c-0.5-0.1,0.4,0.5,0.5,0.9
		c-0.1,0.2-0.5-0.3-0.6-0.6c0.1,1,0,2.3-1.1,1.8l-0.1-0.3c-0.6-0.1,0.9,1.9,0,1.4l-0.1-0.2c-1,0.2-1.2,1.5-2.6,0.7
		c0.8,1.2-1.1,0,0.1,1.7c-1-0.5-1.1-0.9-2.1-1c-0.2,0,0.6,1.2,0.5,1.5l-0.6-0.8l0.4,1.1l-0.9-0.9v0.3c0.3,0.1,0.5,0.3,0.6,0.5
		c0,0.6-1.1-0.1-1.5-0.5l-0.1,1.2c-0.2-0.3-0.3-0.5-0.3-0.8c0.3,1.1-0.7-0.9-0.5,0.2c0.2,0.2,0.4,0.4,0.5,0.7
		c-0.6-0.4-0.9-0.1-1,0.3l-0.4-0.6c-0.6,0.2-0.8,1.1-1.3,1.5c0.4,0.1,1.1,1.2,1.1,1.4l-0.7-0.9c0.3,0.6,0.4,0.2,0.7,1.1
		c-0.3,0.1-0.9-0.9-1-1.3v0.5c-0.2-0.3-0.4-0.5-0.5-0.8c0.3,0.6-1.1-0.6-0.5,0.5l-0.2-0.3c-0.5,0.4-0.5,0.9-0.9,1.3
		c0.6,0.8,0.3,0.7,0.6,1.5c-0.5,0-1.3-0.3-1.7,0c0,0.6,0.4,0.7,0.7,1.3c-0.6-0.7-0.9-0.3-1.1-1c-0.4,0.4-0.6,1-0.6,1.6
		c0.3,0.2,0.5,0.3,0.6,0.6c0,0.2-0.5-0.1-0.7-0.5v0c0.2,1.6-3.1-0.9-2.5,1v-0.1l0.1,1.2c-0.3,0.1-0.3-0.6-0.8-0.9
		c0.3,1.6-1.1,0.5-0.9,1.7c-2-1.8-1.2,1.2-2.7,0.2l0.4,0.5c0.2,0.6-0.4-0.2-0.6-0.2c0.3,0.4,0.5,0.3,0.6,0.7
		c-0.6,1.4-2.8,1.1-4.3,1.5c-0.5,0.2,1.7,2.7,0.3,1.9l-0.6-1c0,1.7-1.7,1.3-1.8,2.9c-0.1-0.3-0.3-0.5-0.2-0.6
		c-0.7-0.5-0.7,0.5-0.3,1c-0.2,0-0.4-0.5-0.7-0.7c-0.5-0.3,0.2,1.2-0.4,0.6c-0.1-0.1-0.1-0.2-0.1-0.3c0.1,0.4-0.6,0.3,0.1,1
		c-0.6-0.1-0.3,0.8-0.9,0.5c0.5,1-0.9,0,0,1.2c-0.9-1.3-1.3-0.6-1.1,0.1c-0.2-0.4-0.5-0.3-0.8-0.8c-0.2,0.2-0.2,0.6,0.3,1.2
		c-1.6-1.2,0.1,1.8-1.6,0.1c-0.1,1-0.3,1.9-0.7,2.9c-0.9-1.3,0.6-0.6-0.5-1.9c-0.2,0.9,0.3,2.3-0.5,2.4c-0.3-0.1-0.3-0.6-0.5-0.9
		c-0.2,0.9-1.2,0.7-1.1,1.8c-0.1-0.1-0.1-0.3-0.2-0.4c-0.1,0.1-0.4,0,0.1,0.5v-0.2c0.8,0.7,0.9,2,1.3,2.5c-1.1-1.7-0.8,0-2.1-2.3
		c0.1,0.3,0.2,0.6,0.5,0.9c-0.2,0-0.4-0.2-0.6-0.7c-0.1,0.6,0.5,1.1,0.1,1.3c-0.2-0.2-0.3-0.5-0.4-0.7c0.3,0.7,0.5,1.3,0.1,1.3
		c-0.1-0.2-0.3-0.4-0.2-0.4c-0.4,0.4,0.3,2-0.6,1.9c-0.7-1.3-0.5-0.3-1.3-1.3v0.5l0.5,0.4c-0.3,0.2,0.1,1.1-0.3,0.9l-0.1-0.6
		l-0.3,0.5l0.6,0.2c0.2,0.7,1,1.3,0.5,1.2c0-0.2-0.3,0.2-0.9-0.3l0,0c0.1,0.4,0.3,0.9-0.1,0.7c-0.3-0.3-0.9-1.2-1-1.4
		c0.5,0.9-0.4,0.7,0.2,1.7c-0.2-0.3-0.4-0.6-0.6-0.9l0.4,0.7c-0.3-0.1-0.4-0.2-0.7-0.7c-0.4,0.1,1.1,1.2,0.3,1
		c0-0.1-0.1-0.2-0.1-0.3c-0.6,0-0.4,1-1.1,1c-0.9-0.9,0.1-0.5-0.7-1.3c-0.4,0.6-0.1,2.1-0.8,2.2h0.2c1.1,1.5-0.9-0.4-0.7,0.5
		c-0.1-0.3-0.3-0.5-0.4-0.7c-0.5,0-0.4,0.9-0.6,1.8l-0.2-0.4c-0.5-0.2-0.7,0.2-1,0.3c0.2,0.4,0.1,0.5,0.6,0.9
		c-2.4-1.6-0.4,2.2-2.4,0.9c0.1-0.1-0.1-0.5-0.1-0.4l-0.2,0.7c0.5,0.6,0.4,0.3,0.9,0.7c0.2,0.4,0.3,0.8,0.2,0.9
		c-0.1-0.6-0.8-1-1.2-1.3c0.2,0.2,0.3,0.4,0.5,0.6c-1.2-0.9,1,1.3,0,0.8l-0.3-0.3c0,0.3,0.2,0.8,0,0.8c-0.7-0.7-0.1-0.5-0.6-1.1
		c-0.2,0.2,0.7,1.7-0.1,1.1c-0.1-0.3,0-0.4,0-0.6c-0.9-0.7-0.7-0.4-1-0.4l0,0l-0.7-0.1l0.3,0.1c1.3,2.1-0.2,0.7,0.4,2.3
		c-0.6-1.4-0.5-0.7-1.2-1.5c-0.3-0.1-0.5-0.3-0.7-0.5c0.4,0.8-0.7-0.3-0.1,0.9c-0.2-0.3-0.2,0.1-0.7-0.6c0,0.4,0.4,0.4,0.7,0.7
		c0.4,1.2-1.7-0.4-1.1,1.2c0,0.9,0.7,1.8,0.7,2.5c-0.3-0.3-0.6-0.6-0.7-1c-0.5-0.2-0.6,0-0.5,0.5c-0.2-0.3-0.4-0.5-0.7-0.6
		c-0.1,0.2,0.7,1,0.2,0.8c-0.3-0.4-0.5-0.7-0.7-1.1c0,0.4,0.3,1,0.3,1.4c-0.3-0.3-0.5-0.7-0.7-1.1c-0.1,0.6,0,1.2,0.4,1.6l0.4,0.1
		c0,0.1-0.6-0.6-0.6-0.7c-0.3-0.7,0.5,0,0.7,0.3v0.3c1.5,1.4,0.3-0.7,0.7-0.9l0.9,1.2l-0.5-1.1c0.3,0.2,0.9,0.8,0.9,1.1
		c0.7,0.4-0.2-0.5,0.5-0.1c0.1,0,0.1,0.1,0.2,0.2l-0.1-0.5c0.2,0.3,0.7,0.7,0.5,0.7c0.9,0.3-0.2-1.3,0.7-0.6v0.1
		c0.1-0.7-0.7-0.8-1.1-2.1l1.9,1.8l-0.6-0.8c0.1,0,0.2,0,0.5,0.3c-0.3-0.7-0.3-0.3-0.7-0.9c0.9,0.5,0.3-0.9,1.5,0.3
		c-0.4-0.7-0.6-0.3-0.7-0.9c1.3,1.3,0.1-0.5,0.8,0c0.5,0.7,0,0.6,0.7,1c-0.9-1.3,0.6-0.1,0.6-0.5c-0.8-1,0.1-0.7,0.1-1.3
		c0.3,0.3,1,0.1,1.6,0.2l0.1,0.2c-0.7-1-0.3-1.1-0.3-1.5c0.3,0.3,0.6,0.8,0.7,1.2l0.2-0.2c-0.2-0.2-0.3-0.5-0.3-0.8l0.6,0.8
		c0.2-0.3-0.2-1.3,0.6-1.1c-0.5-0.7-1.8-1.7-1.8-2.5c0.4,0.3,0.6,0.8,0.9,1.2c0-0.1-0.1-0.4,0.1-0.3l0.4,0.7
		c0.4,0.1-0.3-0.6-0.2-0.6c0.4,0.5,0.4,0.3,0.7,0.7c0,0.1-0.3-0.1-0.2,0.1c0.4,0,0.8,0.2,1,0.5c-0.3-0.3-0.6-0.7-0.5-0.9
		c0.2-0.3,0.6,0.6,1,0.7c-0.2-0.4,0.2-0.2-0.4-1c0.1-0.1,0.4,0.3,0.6,0.5c-0.1-0.5,0.6-0.6-0.3-1.3H120v-0.1l0,0
		c-0.2-1.2,1.3-0.3,1.5-1l0.2,0.3c0-0.5,0.5-0.7,0.2-1.4c0.1-0.1,0.6,0.3,0.8,0.7c0-0.4-0.2-0.7,0.5-0.5c0.2,0.6,0.4,0.4,0.1,0.5
		c0.5,0,0.9,0.4,0.6-0.6c0.4,0.7,0.9,0.7,0.9,0.4l-0.6-0.3c0.1-0.2,0.2-0.3,0.4-0.3l0.6,1c1.4,0.7-0.5-2.7,1.4-1.1
		c-0.3-0.7-0.7-0.2-1.1-1.1c0.3-0.1,1.6,1,1.7,1c0.7,0.2-0.7-1.6-0.1-1.5c-0.3-0.3-1-1.2-1-1.7c0.3-0.1,1.4,1.1,1.4,1.5
		c0,0.1-0.1,0-0.2-0.1c0,0.3,0.1,0.5,0.4,0.7l-0.2-0.3c0.4,0.2,0.7-0.1,1,0.5c0-0.3-0.3-0.6-0.6-0.7c0.7,0.2,0.5-0.4,1.1-0.3
		c-0.2-0.1-0.5-0.5-0.5-0.5c0.8,0-0.3-0.8,0-1.2c0.6,0.3,0.9,1.2,0.9,0.6c0.5,0.2,0.7,0.8,0.8,1.2c-0.2-0.9,0.9,0,1.2-0.1v0.4
		c0-0.1,0-0.3,0.1-0.3l-0.6-0.6c0.2,0,0.3,0,0.5,0.3c-0.2-0.5-0.9-1-1.2-1.8c0.4,0.2,0.1-0.7,0.8,0.2c-0.6,0,0.7,0.8,0.5,1.2
		c0-0.2,0.1-0.2,0.3-0.2c0.1,0.1,0.1,0.2,0.1,0.3c1,0.5-0.6-1.1-0.2-1.4c0.3,0.5,0.8,0.9,0.8,0.7c-0.2,0.1-0.7-0.7-0.9-1.2
		c0.5,0.2,0.1-0.5,0.2-0.6l-0.3-0.1c-0.3-0.5-0.1-0.6-0.1-0.9c0.3,0.4,0,0.4,0.2,0.5c-0.5-1,1.1,0.5,1-0.2c0.4,0.2,0.7,0.9,1,1
		c-0.2-0.9,0.9,0.4,0.7-0.4c-0.6-0.6-0.5-0.4-0.7-1.2l-0.2,0.9l-0.4-1.2c-0.2,0.1,0,0.7-0.2,0.6c-0.1-0.4-0.3-0.7-0.6-1
		c1,0.8,0-0.9,0.7-0.4l1.3,1.6c0.9,0.4,0-1.4,0.8-1.3l-0.4-0.2c-0.4-0.7,0.2-0.3,0.2-0.7c0.3,0.4,0.6,0.7,1,1
		c-0.3-0.4,0.4-0.2-0.4-1.4l0.7,0.5c0.6,0-0.7-1.9-0.2-2c0.3,0.7,0.8,0.9,0.9,1.5c0.1-0.1,0.3-0.1,0-0.5c0.3,0.3-0.2-1,0.3-0.6
		c-0.1-0.3-0.6-0.9-0.4-0.9c0.1,0.1,0.1,0.2,0.2,0.3c-0.2-0.3-0.1-0.5-0.6-1c1.7,1.4,1-1,2.5,0.2c0.1-0.4,0.3-0.8,0.6-1.1
		c0.1,0.2,0.2,0.3,0.1,0.3c0.7,0.2-1-1.7-0.2-1.5c0.9,0.7,0.2,0.6,0.5,0.9c1.4,1.7,0.3-0.6,1.4,0.2v0.2c0.7,0.4,0-1.1,0.4-1.2
		c0.1,0.1,0.1,0.2,0.2,0.3c-0.3-0.7-0.4-1.5-0.1-2.2c0.4,0.7,0.1,0.5,0.7,1.1c0.1-0.2-0.9-1.1-0.8-1.5c0.6,0.3,1.1,0.7,1.5,1.2
		l-0.2,0.3c0.9,0.9,0.3-0.3,0.6-0.2l0.3,0.4c0.3-0.5-0.5-1.5,0-1.8l-0.3-0.3c-0.6-1.3,0.7,0.4,0.3-0.5l0.9,1
		c-0.1-0.6-0.2-1.3-0.1-1.9c0.3,0.7,0.5,1.5,0.6,2.2c0.3-0.3,0.4-0.8,0.1-1.1c0,0.2,0.1,0.5-0.1,0.4c-0.5-1-0.5-1.6-0.2-1.9
		c1.6,2.1,1.2-0.1,2.7,1.3c0-1.2,1.4-0.5,1.9-1.2c-1.5-1.5,0.2-0.2-1.2-1.8c0.1-0.2,0.1-0.2,0.3-0.1l1.2,0.6
		c0.5,0.4,0.1,0.5,0.4,0.9c0.4-0.1,0.7,0.6,1.3,0.9c-0.5-0.6-0.5-0.9-0.2-0.9l-0.9-0.6c-0.2-1.3,1.5,1.1,1.3-0.2l0.3,0.6
		c0-0.5,0.9-0.7,0.1-2.2c0.2,0.2,0.6,0.6,0.6,0.8c0.7-0.2,0.2-2.4,1.3-1.9l0.3,0.4c0-0.2-0.4-0.9,0-0.6c0.1,0.2,0.3,0.4,0.3,0.4
		c-0.1-0.2-0.3-0.9,0.1-0.8l0.2,0.6c1,0.1,0-1.8,0.3-2.4c0.9,1.2,1.7,1.3,2.1,1.3l0.1,0.2c0.7-0.4,0.3-1.9,0.6-2.8
		c1.4,1,1.7-0.4,2.9-0.2c-0.3-0.3-0.6-0.7-0.7-1.2c0.3,0.1-0.3-1.1,0.6,0h-0.1c0.9,1,1,0.5,1.3,0.3l-1.1-1.5c2.2,1.6,1-2,2.8-0.3
		c-0.1-0.5,0-0.6-0.1-1.1l0.6,0.8c0.5,0,0.9-0.3,1.2-0.7l0.3,0.6c0.3-0.2-1.4-2.5-1.2-2.8l1,1.1c0.5-0.4,1.8,0.2,1.4-1.2
		c0.1,0.2,0.4,0.5,0.3,0.6c0.3-0.1,1.5,0.1,0.2-1.4c0.8,1,0.6-0.3,0.5-0.9l0.6,0.8c-0.5-1.1-0.7-1.4-0.6-1.9c0.1,0,0.5,0.6,0.3,0.4
		c0.6,0.2-0.4-0.9,0.2-0.7l0.3,0.6c0.3-0.1,0.1-0.4-0.2-1.1c-0.1-0.4,0.6-0.2,1.2,0.5c-0.3-0.4-0.6-1.1-0.3-1
		c0.1,0.2,0.3,0.3,0.3,0.5c0.8,0.2-0.1-1.4,0.8-0.9c0.1,0.2,0.2,0.3,0.4,0.4c-0.3,0.2-0.6,0.4-0.7,0.3c0.5,0.7,0.9,0.6,1.5,1.8
		c-0.2-0.7-0.7-2.1-0.2-2c0.1,0.1,0.2,0.1,0.2,0.2v0.1c0.1,0,0.1-0.1,0.1-0.2c0.2,0.1,0.3,0.1,0.4,0c0.5,0.6,0.6,0.1,0.7,0
		c-0.6-0.7-0.3-0.7-1-1.3c0.1,0,0,0.1,0,0.2v0.1v-0.1c-0.1,0.1-0.2,0.2-0.3,0.3c-0.2-0.5-0.3-0.9,0.1-0.6c-0.3-0.5-0.6-1.1-0.8-1.4
		c1,0.9,1.8,1.2,2.4,1.9c0.1-0.7,0.7-1-0.1-2.7c0-0.3,0.5,0.3,0.7,0.5c0,0.2-0.1,0.2,0.1,0.5c-0.1-0.6,0.6-0.7-0.1-1.7
		c0.6,0.2,0.6,1.1,0.8,0.6l0.2,0.3c2.1,1-0.7-3.6,1.8-2.2c-0.1-0.1-0.3-0.2-0.4-0.3c1.7,0.1,1.4-2.5,3.5-1.8c0.5,0.1,0-0.6-0.2-1.2
		l0.7,0.8l-0.4-1c-0.1-1,2.3,1.5,1.8-0.3l-0.5-0.5c0.3,0,0.3-0.8,0.8-0.1c-0.1-0.1-0.4-0.6-0.1-0.4l0.3,0.4l-0.1-1.1
		c0.6,0,1.3,1.8,1.9,1.4c-0.1-0.7-0.3-1.4-0.7-1.9c-0.1,0-0.4-0.1-0.7-0.5v-0.4c-1-1.3-1.8-2.7-3-3.3l0.3,1l-0.6-0.5l0.2-0.2
		c-0.6-0.5-0.3,0.1-0.1,0.6c-0.2-0.2-0.4-0.4-0.7-0.6l0.6,1.5c-0.4-0.5-0.6-1.1-1.1-1.2c0.3,0.7,1,1,1.1,1.6c-0.6-0.5-0.9-1-0.7-0.3
		c-0.2-0.2-0.4-0.5-0.5-0.7c0.2,0.5-0.3,0.5,0.2,1.2c-0.7-0.6-0.4,0.6-1.3-0.6c0.2,0.3,0.5,1.2,0.4,1.3c-0.9-1.7-0.6,0.3-1.7-1.3
		c0.8,1.5-0.2,1.1,0,2.1c-0.1-0.1-0.2-0.4-0.1-0.3c-0.3,0-0.6-0.3-0.9-0.5c0.8,1.1,0.7,1.6,1.1,2.4c-1-0.9-0.8-1.4-1.7-2.3
		c0.7,0.9,0.3,1.2,0.9,1.9c-0.4-0.3-0.8-0.6-1.2-1c1,1.4,0,0.4,0.5,1.3c-0.7-0.5-1-1.2-1-0.6C171.8,231.2,171.6,230.8,171.5,230.4z
		 M166.6,238L166.6,238l0.1-0.1C166.7,237.9,166.7,237.9,166.6,238z M166.1,238.4c0.1,0,0.2-0.1,0.3-0.2c0.2,0.3,0.4,0.5,0.3,0.6
		C166.6,238.6,166.3,238.6,166.1,238.4L166.1,238.4z M171.4,242.9c0,0.2-0.1,0.1-0.3-0.1c0-0.1,0.1-0.1,0.1-0.2l-0.1-0.1
		C171.2,242.6,171.3,242.7,171.4,242.9L171.4,242.9z"/>
</g>
</svg>
