<?xml version="1.0" encoding="utf-8"?>
<!-- Generator: Adobe Illustrator 21.1.0, SVG Export Plug-In . SVG Version: 6.00 Build 0)  -->
<svg version="1.1" id="Layer_1" xmlns="http://www.w3.org/2000/svg" xmlns:xlink="http://www.w3.org/1999/xlink" x="0px" y="0px"
	 viewBox="0 0 100 150" style="enable-background:new 0 0 100 150;" xml:space="preserve">
<style type="text/css">
	.st0{fill:#FFE15C;}
	.st1{fill:#B19100;}
	.st2{fill:#CB0000;}
	.st3{fill:#FFFFFF;}
	.st4{fill:#D22020;}
</style>
<title>boy2</title>
<g>
	<path class="st0" d="M63.6,49.3c-0.6,0.3-0.4,0.4-1.1,0.8c-2.4,1.3-4.4,0.6-7,0.9c-1.1,0.1-4,0.4-5.7,2.5c-2,2.4-2.2,6.9,0,8.9
		c1.8,1.6,4.4,1.1,7.8,0.6c3.8-0.7,4-2.1,7.5-2.6c3.1-0.3,3.9,0.6,5.8-0.3c2-0.9,3.4-2.8,3.6-5.1c0.1-3.1-3-5.3-5.1-6
		C67.6,48.3,65.5,48.4,63.6,49.3z"/>
	<path class="st1" d="M46.8,59.2c-1.5-2.5-7-2-7-2c1.5-1,3-1.8,4.6-2.6c1.1-0.3-1.6-2.4-3.3-3.3c-1.7-0.9-0.7-2.4,1-2.4
		c2,0.2,4,0.6,6.1,1c-0.8-1.8-1.6-3.5-2.6-5.1c-0.4-0.6-1.1-1.1-1.8-1.5c1.8,0.6,3.6,1.3,5.3,2.2c2.6,1.3,2.8,0.7,2.6-0.7
		c-0.2-1.2-1.9-6-1.9-6l6.3,4.6c0,0,1.2-2.8,1.8-3.9c0.4-1.3,0.9-2.7,1.2-4c0.9,0.8,1.3,1.8,1.2,2.9c-0.1,1.2,0,2.6,0.3,3.8
		c0,0,0.9-2.6,2.4-3.4c1.3-0.8,2.5-1.8,3.6-2.8c0,0-0.3,2.1-0.7,3.4c-0.1,1.1-0.1,2.2,0,3.4c0.7-1.1,1.6-2,2.7-2.6
		c0.9-0.3,1.8-1,2.5-1.8c0,1.1-0.3,2.2-1,3.3c-1,1.2-0.8,2-0.8,2c1.1-0.6,2.2-1,3.5-1.5c1-0.2-1.2,2.2-1.2,2.2l4.2,0.8l-1.5,2.9
		l2.8-0.9l-2.1,4.4c0,0-2.4-6.3-7.4-6c-2.5,0.2-5.3,1.7-8.7,2.5c-3.4,0.8-7.5,0.8-9.1,1.8c-3.3,2-2.8,3.5-2.9,4.7
		C47,55.9,46.8,59.2,46.8,59.2z"/>
	<path class="st2" d="M52.8,100.7c0.4-2.9,0.4-5.7,3.3-7.2c2.7-1.5,6.3-4.2,6.3-4.2c0.4,1.5,1.3,2.6,2.7,3.3
		c1.7,0.8,3.7,0.9,5.4,0.2c1.3-0.4,2.4-1.6,2.8-2.8c1.8,0.2,3.7,0.7,5.4,1.2c2.9,1,5.4,1.2,7,2.9c1.6,1.7,2.7,1,2.9,3.7
		c0.2,2.7,0.2,4.9,0.2,4.9L52.8,100.7z"/>
	<g>
		<path d="M41,111.8c-3.3-2.9-5.3-6.5-7.1-10.3c-1.2-2.6-2.6-5.3-3.8-7.6c-5.7-1.1-10.8-4.5-14.1-9.4v-2.1l2.8-2
			c-1.5-4-0.4-6.3,3.4-6.9c-0.1-1.3-0.1-2.8,1.3-3.5c1.2-0.4,2.6-0.8,3.9-1c-0.3-1.9-0.8-4.4-1.3-6.6c-0.7-2.7-1.6-5.4-2.4-8.1
			c-0.6-1.8,0-3.5,1.3-4.2c1.3-0.7,3.5,0.1,4.3,1.7c0.9,1.7,1.7,3.4,2.2,5.2c1.1,4.6,2.1,9.2,3.1,13.8c0.1,0.4,0.4,0.8,0.8,0.9
			c4.3,1.3,5.3,3.1,4.3,7.5c-0.8,3.1-1.6,6.2-2.4,9.3c-0.1,0.3-0.1,0.7-0.1,1c1.5,3,2.9,6.1,4.3,9.1l0.4-0.1 M25.7,87
			c0.3,1.6-0.3,2.7-2.2,3.3c1.7,0.9,3.4,1.5,5.3,1.9c1.8,0.3,3.7-0.3,4.9-1.8l0.3,0.3l-2.6,2.5c3.3,5.6,5.2,12.3,10.2,17.2
			c0.2-2.8,0.3-5.6,0.2-8.4c0-0.2,0-0.4-0.1-0.8c-1.1-2.4-2.1-4.7-3.4-7.1c-1.9-3.3-2.2-7.1-1-10.7c0.7-2.6,1.1-5.3,1.3-8
			c0.2-2.2-0.4-2.8-2.6-2.7c-1.2,0.1-2.5-0.8-2.6-2l0,0c-0.9-4.3-1.8-8.7-2.8-12.8c-0.6-2.2-1-4.7-3-6.4c-1.2-1.1-2.6-0.9-2.8,0.8
			c-0.1,1.5,0.1,2.9,0.6,4.3c1.3,3.9,2.9,7.8,3.1,11.9c0,1.3,0.4,2.6,1.1,3.6c0.7,1.3,1.3,2.8,1.8,4.4l3.5-2.1
			c-0.9,1.8-2.5,3.1-4.4,3.6c-0.9,0.2-1.9,0.8-1.5,1.8c0.4,0.8,1.1,1.2,2,1.5c1.3,0.1,2.6,0.1,3.9,0.1c-0.2,0.3-1.1,0.9-1.2,1.6
			c0,1.1-0.9,1.9-2,2c-1.8,0.1-1.8,1-1.9,2.4c0,0.2-0.1,0.4-0.1,0.6l-0.2-0.9L25.7,87z M30.5,76.7c-1-1.8-2-3.6-3.1-5.3
			c-0.7-1-2-1.3-3-0.7c0,0-0.1,0-0.1,0.1c-1.1,0.6-1.6,1.9-1,3c0.7,1.9,1.5,3.8,2.4,5.6c0.9,2.1,2.7,3.7,4.8,4.5
			c1.3,0.4,2,0,2.1-1.3c-1.9-0.2-3.9-0.1-4.6-2.5C27.5,78.2,29.2,77.6,30.5,76.7z M21.6,74.5c-0.6,0.2-1,0.4-1.6,0.8
			c-1.3,1-1.6,2.9-0.7,4.3c1.7,2.6,3.9,4.8,6.5,6.4c0.3,0.2,0.8,0.6,1.1,0.4c0.8-0.2,1.5-0.7,2.1-1.1c-0.1-0.6-0.3-1-0.7-1.3
			c-2.9-1.9-4.3-4.9-5.6-7.9C22.5,75.5,22.1,75,21.6,74.5z M23.4,89.1c0.4-0.2,0.9-0.4,1.2-0.9c0.2-0.4,0.1-1-0.2-1.5
			c-1.1-1.3-2.4-2.6-3.6-3.7c-0.6-0.6-1.2-1-1.9-1.1c-0.6-0.1-1.2,0-1.8,0.4c-0.3,0.4-0.6,1-0.4,1.7C17.4,86,20.8,88.9,23.4,89.1
			L23.4,89.1z"/>
		<path class="st0" d="M25.7,87h4l0.2,0.9c0.1-0.2,0.1-0.3,0.1-0.6c0-1.2,0.1-2.2,1.9-2.4c1.1-0.1,1.9-1,2-2
			c0.1-0.7,0.9-1.2,1.2-1.6c-1.3,0.1-2.6,0.1-3.9-0.1c-0.9-0.2-1.6-0.8-2-1.5c-0.6-1.1,0.4-1.6,1.5-1.8c1.9-0.6,3.5-1.9,4.4-3.6
			l-3.5,2.1c-0.4-1.5-1.1-2.9-1.8-4.4c-0.7-1.1-1.1-2.4-1.1-3.6c-0.1-4.2-1.8-8-3.1-11.9c-0.6-1.3-0.7-2.8-0.6-4.3
			c0.2-1.7,1.5-1.9,2.8-0.8c1.9,1.8,2.4,4.2,3,6.4c1.1,4.2,2,8.5,2.8,12.8c0.1,1.2,1.2,2.2,2.6,2c0,0,0,0,0.1,0
			c2.2,0,2.8,0.6,2.6,2.7c-0.1,2.7-0.6,5.4-1.3,8c-1.2,3.5-0.9,7.4,1,10.6c1.2,2.2,2.2,4.7,3.4,7.1c0.1,0.2,0.1,0.4,0.1,0.8
			c0,2.8,0,5.6-0.2,8.4c-5.1-4.9-7.1-11.5-10.2-17.2l2.6-2.5l-0.3-0.3c-1.2,1.5-3.1,2.1-4.9,1.8c-1.8-0.4-3.6-1-5.3-1.9
			C25.3,89.8,26,88.6,25.7,87z"/>
		<path class="st0" d="M30.5,76.7c-1.3,0.9-3.1,1.5-2.5,3.5c0.7,2.4,2.7,2.2,4.6,2.5c0,1.2-0.8,1.8-2.1,1.3
			c-2.1-0.8-3.9-2.4-4.8-4.5c-0.9-1.8-1.7-3.7-2.4-5.6c-0.6-1.1-0.1-2.5,1-3l0,0c1-0.7,2.4-0.4,3,0.6l0.1,0.1
			C28.6,73.1,29.5,74.9,30.5,76.7z"/>
		<path class="st0" d="M21.6,74.5c0.4,0.4,0.9,1,1.2,1.6c1.3,3,2.7,6,5.6,7.9c0.3,0.3,0.6,0.9,0.7,1.3c-0.7,0.4-1.3,0.9-2.1,1.1
			c-0.3,0.1-0.8-0.2-1.1-0.4c-2.7-1.6-4.8-3.8-6.5-6.4c-0.9-1.3-0.7-3.3,0.7-4.3C20.5,75,21.1,74.7,21.6,74.5z"/>
		<path class="st0" d="M23.4,89.1c-2.5-0.2-6.1-3.1-6.6-5.3c-0.1-0.6,0-1.1,0.4-1.7c0.4-0.3,1.1-0.6,1.8-0.4
			c0.7,0.2,1.3,0.6,1.9,1.1c1.2,1.2,2.5,2.5,3.6,3.8c0.3,0.4,0.3,1,0.2,1.5C24.3,88.6,23.9,89,23.4,89.1z"/>
	</g>
	<path class="st0" d="M46.6,68.3c0.6-3,0.7-6.1,0.2-9.1c-0.2-3.9,0.4-7.9,2.7-9.1s5.4-0.8,9.7-2.2c4.2-1.5,6.6-3.3,9.6-2.5
		c2.9,0.8,3.4,1.2,4.7,3.5c1.3,2.2,2.1,6.4,2.8,8.2c0.7,1.8,0.8,0.8,2.9,0.2c2.2-0.4,2.9-0.8,4.2,1.5c1.2,1.9,0.8,4.4-0.9,5.8
		c-1.1,0.8-2.5,1.2-3.8,1.1c0,0,1,5.4-0.4,9.4c-1.5,4-3.5,7-5.7,8.7c-2.2,1.7-8.2,2.7-10.9,2.2c-2.7-0.4-9.1-2.7-11.4-6
		C48.2,76.7,46.1,72,46.6,68.3z"/>
	<path d="M52.9,99.3c0.1-0.7,0.1-1.1,0.1-1.7c0.3-2.2,1.8-4.2,3.9-5.1c1.5-0.8,2.9-1.6,4.4-2.5c0.6-0.3,1.3-1.2,1.2-1.6
		c-0.4-0.9-0.1-2.1-1.9-2.5C54,84.6,49,81.1,46.7,74.4c-0.4-1.6-0.4-2.9-2.7-3.5c-2.8-0.8-4.4-3.7-3.6-6.5c0.1-0.4,0.3-0.8,0.4-1.1
		c0.9-1.6,2.6-2.5,4.4-2.6l1.3-0.1c-0.3-1.3-0.9-2.6-2.2-3c-2-0.8-3.8,0.1-5.8,1.1c1.2-2.2,3.1-3.5,5.3-4.6c-1.7-1.6-2.6-4-5.6-3.5
		c1.1-0.8,2.7-0.7,3.7,0.2c1.3,0.9,2.6,2,3.8,3c0.1,0.1,0.1,0.2,0.1,0.3l-5.1,2.4l0.1,0.4c1.8-0.8,3.6-0.8,5.1,0.3l1.7-4.7
		c-0.4,3.9-0.1,8,1,11.8l-1-0.3c-0.8,4-1,8.1,0.9,11.9c2.6,5.1,7,7.9,12.5,9c3.5,0.9,7.2,0.3,10.3-1.6c3.7-2.2,6.2-6.1,6.9-10.3
		c0.8-3.9,0.3-8-1.5-11.7l0.3-0.1c0.6,1.1,1.1,2.1,1.8,3.3c0.2,0.3,0.6,0.6,0.9,0.7c1.9,0.1,3.8-1.9,3.9-4.2
		c-0.1-1.9-1.7-3.4-3.5-3.3l0,0c-0.4,0-0.9,0-1.3,0c-1,0.2-1.1,0.3-1.2,1.8c-2-2-2.2-4.5-2.4-7l1.9,5.3c1.8-1.1,3.6-1.6,5.3-0.6
		c0.9,0.6,1.7,1.3,2.1,2.4c1.1,3-1.1,5.7-5.3,6.6c1.1,5.6-0.6,10.6-3.7,15.2c-0.4,0.8-1.1,1.3-1.9,1.8c-1.5,0.7-1.5,1.8-1.3,3
		c0.2,1.5,0.4,2.8,2.4,3.3c2.9,0.8,5.7,1.8,8.5,2.6c0.2,0.1,0.4,0.3,0.6,0.6c-1.2-0.2-2.5-0.3-3.6-0.7c-1.6-0.4-3.3-0.9-4.7-1.5
		c-0.8-0.2-1-0.2-1.5,0.6c-1.2,2.2-3.7,3.5-6.3,3.1c-2.4-0.1-4.5-1.5-5.6-3.5c-1.6,0.8-3.1,1.8-4.8,2.5c-2.6,1.1-3.1,3.4-3.7,5.7h2
		l0.1-1.8h0.2l0.4,1.6h27v-2.5c0.9,0.7,0,2.4,1.7,2.5c1.1,0,2.1,0,3.3,0l0.2-0.3c-0.4-1-1.1-2-1.8-2.9c-0.8-0.8-1.7-1.6-2.6-2.2
		l0.4-0.4c2.4,1.2,4.2,3.5,4.8,6.1 M63.5,86.7c0.2,0.6,0.4,1.3,0.8,2.1c1,2.6,3,3.7,5.7,3c1-0.2,1.8-1.2,1.8-2.4
		c-0.2-1.5-0.3-2.9-0.6-4.2L63.5,86.7z M42.8,66.9c-0.6-1-0.3-2.2,0.6-2.9c0.9-0.8,2.1-0.7,3.7,0.2c0.8-1.3,0.3-2.5-1-2.6
		c-2.4-0.2-4.6,1.5-4.8,3.8c0,0.3,0,0.6,0,0.9c0.2,2.5,1.5,3.9,4,3.9c0.3,0,0.7-0.2,0.9-0.6c0.1-1.1,0.2-2.4,0.3-3.5
		c0.1-0.7-0.3-1.3-1-1.5c-0.1,0-0.1,0-0.2,0c-0.8-0.2-1.6,0.1-1.9,0.9C43.1,65.9,42.9,66.5,42.8,66.9z M72.8,89.5
		c-0.3,2.6-2,3.6-4.4,3.5c-2.1,0-4-1.1-5.2-2.9c-1,0.9,0.1,1.3,0.4,1.8c2,2.5,6.3,2.6,8.5,0.7C73.1,91.8,73.5,90.4,72.8,89.5z"/>
	<path d="M59.2,35c1.2,1.6,1.8,3.7,1.6,5.7c1.6-2.1,4.8-2.4,6-5.3c0.1,1,0.1,2,0.1,3c-0.1,1-0.4,2-0.6,3.1c1.6-1.8,4.6-1.5,5.4-4.2
		c0.3,2,0.2,2.4-1.1,5.1c1.7-0.4,3.4-1.3,4.8-0.2l-3.6,2.2l0,0l0.8-2l-3.1,2.4c-0.8-2.1,1.2-3.4,1.8-5.1c-1.5,1.5-4.3,1.1-4.7,3.8
		c-1-0.4-1.5-1.7-1-2.7c0.3-1.3,0.8-2.7,1.1-3.9c-1.2,1-2.5,2.1-3.7,3.1c-1,0.9-1.6,1.8-0.9,3.1c-1.2-0.1-1.9-1.1-2-2.7
		c-0.1-1.3-0.2-2.7-0.2-4c0,0,0-0.1,0,0l-3,7.8l-6.5-4.4c0.6,0.9,0.9,1.7,1.3,2.2c1.5,1.9,1.5,3.1,0.1,5.3l-6.7-4.3
		c2.5-0.1,4.4,1.8,6.5,3.1c1-1.5,0.4-2.6-0.3-3.7c-1.1-1.3-1.3-3.3-0.7-4.8c0.9,3.1,3.9,3.4,6,4.9c1-2.6,3.3-4.7,2.6-7.8
		C59,35,59.2,35,59.2,35z"/>
	<path d="M53.6,73c4.9-1.1,9.6-1.8,13.5-4.5c1.8-1.2,3.5-2.7,4.9-4.3c0.8-0.7,1.3-0.8,2,0.1c0.3,0.3,0.4,0.8,0.4,1.2
		c-0.4,2.9-0.8,5.8-1.5,8.8c-0.4,1.8-1.8,3.4-3.6,3.9c-2.2,0.9-4.5,1.6-6.9,2c-2.4,0.3-4.4-0.9-6.2-2.4c-0.8-0.6-1.3-1.2-1.9-2
		C54,74.8,53.8,73.9,53.6,73z M65.6,74.6l-0.4-2h0.1l0.9,1.8c4.4-1.5,6.5-4.6,5.1-7.6c-3.8,3.9-8.9,5.2-13.9,6.5
		C59.8,76.1,60.7,76.1,65.6,74.6L65.6,74.6z"/>
	<path d="M56.2,62.2c-3.4,0.4-5.3-0.3-6.4-2.6c-0.9-1.6-0.2-4.6,1.5-6c1.8-1.3,4.3-1.6,6.3-0.4c1.9,1.2,2.4,2.7,1.6,6.2
		c2.2-0.7,4.4-1,6.5,0c-1.8,0.1-3.5,0.3-5.3,0.8c-1.1,0.4-2.1,1.1-2.8,2.1c-0.9,1.1-0.1,2.5,1.2,2.8c3.1,0.8,6.5-0.4,8.4-3l0.3,0.2
		c-0.4,0.7-0.9,1.3-1.5,2c-2,2-5.8,2.8-8.2,1.6C56.2,65,55.7,64.1,56.2,62.2z M54.7,53.4c-2.5,0-4.6,1.7-4.6,3.6
		c0.1,2.8,1.6,4.2,4,4.3c2.1,0.1,4.7-1.3,4.7-3.7C58.7,55.1,57.3,53.6,54.7,53.4L54.7,53.4z"/>
	<path d="M69,59.4c-2.8,0.1-5.2-2-5.3-4.7c0-0.1,0-0.1,0-0.2c-0.1-2.8,2.8-4.9,5.4-4.9c2.7,0.1,4.9,2.4,4.9,5.1
		c0.1,2.6-1.8,4.7-4.4,4.8C69.3,59.4,69.1,59.4,69,59.4z M68.6,50.4c-2.5,0.1-4.4,1.6-4.4,4c0,2.4,1.9,4,4.5,4.2
		c2.2,0.1,4.2-1.7,4.3-3.9s-1.7-4.2-3.9-4.3C68.9,50.4,68.8,50.4,68.6,50.4z"/>
	<path d="M49.5,50c-0.7,0.9-2,1.1-3,0.6c-1.7-0.9-3.4-1.7-5.5-0.8c1.2-1.1,3.1-1.3,4.6-0.6c0.8,0.3,1.7,0.6,2.7,0.9
		c-2-4.5-2.4-4.9-4.9-6.5c1.6,0,3,0.9,3.7,2.4C47.9,47.1,48.7,48.5,49.5,50z"/>
	<path d="M71.8,44.6c0.1,0.1,0.1,0.2,0.2,0.2c1.6-0.1,3.1-0.2,4.9-0.3l-2,3.6l3.7-0.9l0.1,0.3c-1.9,0.7-2.4,2.4-3,4l-0.2-0.1
		l0.6-2.9l-1.6,0.7c-0.6-1.9,0.8-2.8,1.6-3.8h-4.5L71.8,44.6L71.8,44.6z"/>
	<path d="M62.2,81.2c3.8,0.1,7.2-0.4,10-2.8C71.7,81,65.7,82.9,62.2,81.2z"/>
	<path d="M75.1,51.5c-2.9-5.6-6.2-6.1-10-5.8c2-1,3.9-0.6,5.8,0.3C73.3,47.1,74.4,49.2,75.1,51.5z"/>
	<path d="M52.8,48.6c1-0.3,2-0.7,3-0.8c2.5,0,4.7-0.9,7-1.8c0.1,0,0.3,0,0.4,0c-2.9,2.8-6.7,2.4-10.3,2.9L52.8,48.6z"/>
	<path d="M56.4,51.4c-3.1-0.6-5.8-0.1-7.9,2.9c0.1-1.6,1.1-2.9,2.5-3.4C52.9,50.1,54.7,49.8,56.4,51.4z"/>
	<path d="M81.7,63.2c0.3-1.2,0.6-2.2-0.4-2.9c-1.6-1-2.2,0.6-3.4,1.3c-0.3-1,0.3-2.1,1.3-2.4l0,0c1.2-0.4,2.5,0,3.1,1.1
		C83,61.2,82.8,62.2,81.7,63.2z"/>
	<path d="M71,61.3c1.3-0.9,3-0.9,4.3,0.1c1.5,1.1,1.9,3.8,1,6C75.8,61.8,75.6,61.7,71,61.3z"/>
	<path d="M72.4,48.9c-3-1.5-5.8-1.6-8.4,0.7C64.7,46.6,70.6,46.1,72.4,48.9z"/>
	<path d="M60.4,57.6l-0.9-4C60.7,54.5,61.1,56.1,60.4,57.6z"/>
	<path d="M49.4,60.8l2.9,2.5C51.2,63.5,49.7,62.2,49.4,60.8z"/>
	<path d="M74.8,56.6c0,1.5-0.9,2.5-2.5,3.3L74.8,56.6z"/>
	<path class="st0" d="M63.4,86.7l7.6-1.3c0.1,1.2,0.3,2.7,0.6,4.2c0,1.1-0.7,2-1.8,2.4c-2.7,0.7-4.7-0.3-5.7-3
		C63.8,88.1,63.5,87.3,63.4,86.7z"/>
	<path class="st0" d="M42.8,66.9c0.1-0.4,0.3-1,0.6-1.5c0.3-0.8,1.1-1.1,1.9-0.9c0.7,0,1.2,0.6,1.2,1.3c0,0.1,0,0.1,0,0.2
		c-0.1,1.1-0.1,2.4-0.3,3.5c-0.1,0.3-0.4,0.6-0.9,0.6c-2.6,0-3.7-1.3-4-3.9c-0.2-2.4,1.6-4.5,3.9-4.7c0.3,0,0.6,0,0.9,0
		c1.2,0.1,1.8,1.2,1,2.6c-1.6-0.9-2.8-1-3.7-0.2C42.4,64.8,42.2,66,42.8,66.9z"/>
	<path class="st3" d="M72.8,89.5c0.7,1,0.4,2.2-0.6,2.9c-2.2,2-6.5,1.9-8.5-0.7c-0.3-0.4-1.3-0.8-0.4-1.8c1,1.9,3,3,5.2,2.9
		C70.8,93,72.5,92.1,72.8,89.5z"/>
	<path class="st3" d="M65.6,74.6c-4.9,1.6-5.8,1.5-8.3-1.5c5.1-1.3,10.1-2.6,13.9-6.5c1.3,3.1-0.7,6.2-5.1,7.6l-0.9-1.8h-0.1
		L65.6,74.6z"/>
	<rect x="41.4" y="99" class="st3" width="51.1" height="40.8"/>
	<g>
		<path d="M76.5,98.5h4 M52.7,98.9c7.4-0.1,14.7-0.1,22.2-0.2h1 M81.1,98.8h12v10c0.8,0,1.5,0,2.1,0c1,0,2,0.4,2.1,1.5
			c0.1,0.6-0.7,1.2-1,1.9c-0.1,0.1-0.1,0.1-0.2,0.2l1.8,1.2v2l-1.1,0.8c0.4,1,0.2,2.1-0.7,2.8c-0.3,0.6-0.6,1.1-0.8,1.8
			c0.1-1-0.3-1.5-1.2-1.2c0.6-0.3,1.2-0.8,1.8-1.2c0.3-0.3,0.4-0.8,0.4-1.2c-0.1-0.3-0.8-0.4-1.2-0.6c-0.7,0-1.3,0.1-1.9,0.2v-0.2
			c0.7-0.1,1.3-0.3,2.1-0.3c0.9-0.1,1.8-0.3,1.9-1.3c0.1-1-0.6-1.6-1.5-1.8c-2.4-0.7-4.4,0.1-6.4,1.2c-0.4,0.2-0.7,0.7-0.4,1.1
			c0.1,0.2,0.2,0.3,0.4,0.4c0.8,0.3,1.6,0.7,2.4,1l-2.6,1.1c0.9,1.7,2.4,1.1,3.8,1.5l-3,1l0.1,0.4c1.7,0.8,3.6,0.8,5.3,0.1l-2.5,1.3
			v15.6c0,0.1,0,0.3,0,0.4c-0.1,1.7-0.1,1.8-1.8,1.8c-13.8,0-27.7,0-41.5,0c-2.5,0-5.1,0-7.5-0.2c16.8-0.4,33.5-0.7,50.4-0.2v-17.4
			c-1-0.4-1.9-0.8-2.9-1.2c-0.1,0,0.2-0.8,0.3-1.3c-1.6-1.1-1.6-1.7-0.2-2.8c-1.9-1.6-2-2.1-0.2-3.6c-1.2-1.1-1.2-1.6,0-2.7
			c0.7-0.6,1.5-1,2.2-1.3c0.4-0.1,0.8-0.6,0.8-1.1c0.1-3,0.1-6,0.2-9H43.5v-0.3h7.3 M91.5,112.8c0.2,0,0.3,0,0.6,0
			c1.6,0,3.1-0.1,4.4-1.2c0.9-0.9,0.8-1.7-0.4-2c-1.6-0.4-3,0-4.5,0.4c-0.6,0.2-1.1,0.4-1.7,0.9c-0.3,0.3-0.4,0.8-0.4,1.2
			c0.1,0.3,0.7,0.4,1.1,0.6C90.8,112.8,91.1,112.8,91.5,112.8L91.5,112.8z"/>
		<path d="M40.9,103.6c0,0.1,0.1,0.1,0.4,0.4v-3.6h0.3c-0.2,13,0.6,26.2-0.1,39.3h-0.3c-0.1-1.1-0.2-2.1-0.2-3.3
			c0-6.4,0-12.8,0-19.2c0-0.4,0.1-0.8,0.1-1.2"/>
		<path class="st0" d="M95.4,121.2c-1.7,0.7-3.6,0.7-5.3-0.1l-0.1-0.4l3-1c-1.5-0.2-2.9,0.2-3.8-1.5l2.6-1.1c-0.8-0.3-1.6-0.6-2.4-1
			c-0.4-0.2-0.7-0.7-0.4-1.1c0.1-0.2,0.2-0.3,0.4-0.4c2-1.1,4.2-1.8,6.4-1.2c0.9,0.2,1.7,0.7,1.5,1.8c-0.2,1-1,1.2-1.9,1.3
			c-0.7,0.1-1.5,0.2-2.1,0.3v0.2c0.7-0.1,1.3-0.2,1.9-0.2c0.4,0,1.1,0.2,1.2,0.6c0.1,0.4-0.1,0.9-0.4,1.2c-0.6,0.4-1.1,0.9-1.8,1.2
			c0.9-0.1,1.3,0.2,1.2,1.2V121.2z"/>
		<path class="st0" d="M91.5,112.7c-0.3,0-0.7,0-1,0c-0.4-0.1-1-0.3-1.1-0.6c-0.1-0.4,0.1-0.9,0.4-1.2c0.4-0.4,1-0.7,1.7-0.9
			c1.5-0.4,2.9-0.9,4.5-0.4c1.1,0.3,1.3,1.1,0.4,2c-1.2,1.1-2.8,1.2-4.4,1.2C91.8,112.7,91.6,112.7,91.5,112.7z"/>
	</g>
	<path class="st3" d="M54.7,53.6c2.6,0,4,1.6,4.2,4.2c0.1,2.4-2.6,3.7-4.7,3.7c-2.4-0.1-3.9-1.5-4-4.3C50,55.2,52.2,53.6,54.7,53.6z
		"/>
	<path class="st3" d="M68.6,50.5c2.2-0.1,4.3,1.6,4.4,3.9c0.1,2.2-1.6,4.3-3.9,4.4c-0.1,0-0.2,0-0.3,0c-2.6-0.1-4.5-1.8-4.5-4.2
		C64.3,52.1,66.2,50.6,68.6,50.5z"/>
	<path d="M55.7,54.6c1.3-0.2,2.6,0.8,2.8,2.1c0,0.2,0,0.6,0,0.8c-0.2,0.8-1,1.5-1.8,1.6c-0.7,0-1.3-0.3-1.8-0.9
		c-0.2-0.3-0.3-0.9-0.2-1.3c0.2-0.8,1-1.2,1.8-1.1c0.6,0.1,1,0.7,1,1.2c0,0.1,0,0.2-0.1,0.3c-0.1,0.4-0.6,0.6-1,0.4
		c-0.1-0.1-0.3-0.2-0.3-0.3c-0.1-0.2,0-0.4,0.2-0.6c0.2-0.1,0.3,0.1,0.4,0.1c0.1-0.1-0.1-0.4-0.2-0.6c-0.2-0.1-0.6,0-0.8,0.2
		c-0.3,0.3-0.3,0.9-0.1,1.3c0.4,0.7,1.3,0.8,1.9,0.3c0.1-0.1,0.2-0.2,0.3-0.3c0.4-0.7,0.4-1.5,0-2.1c-0.6-0.8-1.6-1-2.5-0.6
		c-0.6,0.2-1,0.8-1.2,1.3c-0.4,1.2,0.2,2.7,1.5,3.1c1.1,0.4,2,0,2.9-0.6c-0.6,0.8-1.3,1.2-2.4,1.2c-1.3-0.1-2.4-1-2.8-2.2
		C53.1,56.6,53.9,54.8,55.7,54.6z"/>
	<path d="M67.5,52c-1.3-0.1-2.6,0.8-2.7,2.1c0,0.2,0,0.6,0,0.8c0.2,0.8,1,1.5,1.8,1.6c0.7,0,1.3-0.3,1.8-0.9
		c0.2-0.3,0.3-0.9,0.2-1.3c-0.2-0.8-1-1.2-1.8-1.1c-0.6,0.1-1,0.7-1,1.2c0,0.1,0,0.2,0.1,0.3c0.1,0.4,0.6,0.6,1,0.4
		c0.1-0.1,0.3-0.2,0.3-0.3c0.1-0.2,0-0.4-0.2-0.6s-0.3,0.1-0.4,0.1c-0.1-0.1,0.1-0.4,0.2-0.6c0.2-0.1,0.6,0,0.8,0.2
		c0.3,0.3,0.3,0.9,0.1,1.3c-0.4,0.7-1.3,0.8-1.9,0.3c-0.1-0.1-0.2-0.2-0.3-0.3c-0.4-0.7-0.4-1.5,0-2.1c0.6-0.8,1.6-1,2.5-0.6
		c0.6,0.2,1,0.8,1.2,1.3c0.4,1.2-0.2,2.7-1.5,3.1c-1.1,0.4-2,0-2.9-0.6c0.4,0.8,1.3,1.2,2.2,1.2c1.3-0.1,2.4-1,2.8-2.2
		C70.1,53.9,69.4,52.2,67.5,52z"/>
	<g>
		<path class="st4" d="M76.9,135.7c0.1-0.1,0.4-0.3,0.3-0.3l-0.6,0.4L76.9,135.7z"/>
		<path class="st4" d="M77.6,134.5c-0.4,0.2-0.9,0.6-1.2,0.9c0.6-0.3,0.3-0.2,1-0.7c0.1,0-0.1,0.2-0.3,0.3c0.1-0.1-0.1,0.1,0.2-0.1
			c0.3-0.3,0.3-0.4-0.1-0.2C77.4,134.8,77.5,134.7,77.6,134.5z"/>
		<path class="st4" d="M75.1,129.8L75.1,129.8C75.1,129.9,75.1,129.8,75.1,129.8z"/>
		<path class="st4" d="M73.3,127c0,0,0.1,0,0.1-0.1C73.4,127,73.4,127,73.3,127z"/>
		<path class="st4" d="M73.6,126.1L73.6,126.1L73.6,126.1z"/>
		<path class="st4" d="M75.1,129.8l0.1-0.2C74.9,129.8,75.1,129.8,75.1,129.8z"/>
		<path class="st4" d="M76,135.1c0.1,0,0.1,0,0.1-0.1L76,135.1L76,135.1z"/>
		<path class="st4" d="M76.4,130.6L76.4,130.6l0.2-0.1L76.4,130.6z"/>
		<path class="st4" d="M77.2,131.4c-0.2,0.1-0.4,0.3-0.7,0.4c0.1-0.1,0.2-0.1,0.3-0.2L77.2,131.4z"/>
		<path class="st4" d="M77.5,133.4L77.5,133.4L77.5,133.4z"/>
		<path class="st4" d="M76,129.9l0.1-0.1L76,129.9z"/>
		<path class="st4" d="M55.1,106.3L55.1,106.3L55.1,106.3z"/>
		<path class="st4" d="M57.1,103.8L57.1,103.8l0.3-0.1L57.1,103.8z"/>
		<path class="st4" d="M73.5,124.9L73.5,124.9C73.6,124.9,73.6,124.9,73.5,124.9z"/>
		<path class="st4" d="M67.7,117.6c-0.3,0.3-0.7,0.2-1,0.7C67,118.1,67.5,117.9,67.7,117.6z"/>
		<path class="st4" d="M76,135L76,135L76,135z"/>
		<path class="st4" d="M66.7,118.2L66.7,118.2L66.7,118.2z"/>
		<path class="st4" d="M71.8,123.3l-0.2,0.1L71.8,123.3z"/>
		<path class="st4" d="M72.2,125.1L72.2,125.1L72.2,125.1z"/>
		<path class="st4" d="M70.7,123C70.7,123,70.8,122.8,70.7,123L70.7,123L70.7,123z"/>
		<path class="st4" d="M70.1,122.2L70.1,122.2L70.1,122.2L70.1,122.2z"/>
		<path class="st4" d="M56.7,108.8c0.1-0.1,0.2-0.2,0.4-0.3C56.8,108.7,56.6,108.7,56.7,108.8z"/>
		<path class="st4" d="M76.2,134.9c-0.1,0.1-0.1,0.1-0.2,0.1l0,0L76.2,134.9z"/>
		<path class="st4" d="M67,125.7v-0.1C67,125.5,67,125.5,67,125.7z"/>
		<path class="st4" d="M60.3,114.7L60.3,114.7L60.3,114.7z"/>
		<path class="st4" d="M66.6,125.1c0.1-0.1,0.2-0.2,0.2-0.3l-0.1,0.1L66.6,125.1z"/>
		<path class="st4" d="M55.5,108.2c0.1,0.1,0.7-0.3,1.1-0.4c0.2,0-0.4,0.3-0.8,0.6c0.2,0,0.9-0.2,0.9-0.1c-0.1,0.1-0.2,0.1-0.2,0.1
			c0.6-0.2,0.2,0.3,0.9,0l-0.1,0.1c0.3-0.2,0.7-0.3,0.9-0.6c0,0,0.4-0.1,0,0.1c0,0-0.2,0-0.3,0.1h0.2c-0.6,0.4-0.2,0-0.7,0.3
			c0.2,0,0.9-0.1,0.7,0c-0.6,0.3-0.3-0.1-0.8,0.3l0.1-0.2c-0.9,0.7,0-0.1-0.9,0.6c-0.1,0.2,0.4,0,0.3,0.3c0.3-0.1,0.4-0.3,0.9-0.4
			c0.8-0.1-1.3,1-0.4,0.8c0.4-0.2,1.2-0.6,0.9-0.2l-0.7,0.3c0,0.2,1-0.4,0.7,0c-0.3,0.1-0.3,0-0.3,0.1c-0.4,0.4,0.4-0.1,0.4,0
			l-0.6,0.3c0.2,0.1,0.8,0.1,1,0.2c-0.2,0.1-0.3,0.2-0.6,0.3c0.4,0.1,0.2,0.6,0,1l0.6-0.2c-0.1,0.1-0.2,0.1-0.3,0.2
			c-0.1,0.2,0.3-0.2,0.6-0.2c0.1,0-0.2,0.2-0.4,0.3c0.6-0.1,1.2-0.1,0.8,0.4h-0.1c-0.1,0.2,1.1-0.4,0.8,0h-0.1c0,0.4,0.7,0.4,0,1.2
			c0.8-0.4-0.1,0.4,0.9-0.1c-0.4,0.4-0.7,0.6-0.8,1c0,0.1,0.7-0.3,0.9-0.2l-0.6,0.3l0.7-0.2l-0.6,0.4h0.2c0.1-0.1,0.2-0.2,0.3-0.3
			c0.3,0-0.2,0.6-0.4,0.7h0.7c-0.1,0.1-0.3,0.1-0.4,0.1c0.7-0.2-0.6,0.3,0,0.2c0.1-0.1,0.3-0.2,0.4-0.2c-0.2,0.2-0.2,0.4,0,0.4
			l-0.3,0.2c0,0.2,0.4,0.3,0.6,0.6c0.2-0.2,0.6-0.4,0.9-0.6l-0.6,0.3c0.3-0.1,0.1-0.2,0.7-0.3c0,0.1-0.6,0.4-0.8,0.6h0.2
			c-0.1,0.1-0.2,0.1-0.4,0.2c0.3-0.2-0.4,0.6,0.2,0.2l-0.1,0.1c0.1,0.2,0.4,0.2,0.6,0.3c0.4-0.3,0.4-0.1,0.9-0.3
			c-0.1,0.2-0.3,0.7-0.2,0.8c0.3,0,0.4-0.2,0.8-0.3c-0.4,0.3-0.3,0.4-0.7,0.6c0.2,0.1,0.2,0.2,0.8,0.2c0.1-0.1,0.2-0.2,0.3-0.3
			c0.1,0-0.1,0.2-0.3,0.3l0,0c0.9-0.1-0.9,1.5,0.2,1.1l0,0l0.7-0.1c0,0.1-0.3,0.1-0.6,0.4c0.9-0.2,0.1,0.4,0.8,0.3
			c-1.1,1,0.4,0.4-0.2,1.2l0.3-0.2c0.3-0.1-0.1,0.2-0.1,0.2c0.2-0.1,0.2-0.2,0.4-0.3c0.7,0.2,0.2,1.2,0.2,1.9c0,0.2,1.6-1,1-0.2
			l-0.6,0.3c0.4,0,0.6,0.1,0.7,0.3c0.1,0.2,0.3,0.4,0.6,0.3c-0.1,0.1-0.3,0.2-0.3,0.1c-0.3,0.3,0.1,0.2,0.4,0c0,0.1-0.3,0.2-0.4,0.3
			s0.7-0.2,0.2,0.1c0,0-0.1,0.1-0.2,0.1c0.2-0.1,0.1,0.2,0.6-0.1c-0.1,0.3,0.3,0.1,0.2,0.3c0.6-0.3-0.1,0.3,0.7-0.1
			c-0.8,0.6-0.4,0.7,0,0.4c-0.2,0.1-0.2,0.2-0.6,0.4c0.1,0.1,0.2,0.1,0.7-0.2c-0.8,0.8,1-0.2-0.1,0.8c0.4,0,0.9,0,1.3,0.1
			c-0.8,0.6-0.2-0.2-1,0.3c0.4,0,1.2-0.3,1.2,0c-0.1,0.1-0.3,0.2-0.4,0.2c0.4,0,0.2,0.4,0.8,0.3c-0.1,0-0.1,0.1-0.2,0.1
			c0,0,0,0.1,0.3-0.1h-0.1c0.4-0.3,0.9-0.6,1.3-0.8c-1,0.7-0.1,0.3-1.3,1.2c0.2-0.1,0.3-0.1,0.4-0.2c0,0.1-0.1,0.2-0.4,0.3
			c0.3,0,0.6-0.3,0.7-0.2c-0.1,0.1-0.2,0.1-0.4,0.2c0.3-0.1,0.7-0.3,0.7-0.1c-0.1,0.1-0.2,0.2-0.2,0.1c0.2,0.1,1.1-0.3,0.9,0.1
			c-0.8,0.4-0.2,0.2-0.8,0.7h0.2l0.2-0.2c0.1,0.1,0.6-0.1,0.4,0.1l-0.3,0.1l0.2,0.1l0.1-0.2c0.3-0.1,0.8-0.6,0.7-0.3
			c-0.1,0,0.1,0.1-0.2,0.4l0,0c0.2-0.1,0.4-0.2,0.3,0s-0.7,0.4-0.8,0.6c0.6-0.3,0.3,0.1,0.9-0.2c-0.2,0.1-0.3,0.2-0.6,0.3l0.4-0.2
			c-0.1,0.1-0.2,0.3-0.4,0.3c0,0.2,0.7-0.7,0.6-0.2l-0.2,0.1c0,0.3,0.4,0.1,0.4,0.4c-0.6,0.6-0.2,0-0.7,0.4c0.2,0.1,1-0.1,1.1,0.2
			v-0.1c0.9-0.7-0.3,0.4,0.2,0.2c-0.1,0.1-0.2,0.1-0.3,0.2c0,0.2,0.4,0.1,0.9,0.1l-0.2,0.1c-0.1,0.2,0.1,0.3,0,0.4
			c0.2-0.1,0.2-0.1,0.6-0.3c-1,1.2,1,0,0.2,1l-0.2,0.1h0.3c0.1-0.1,0.3-0.3,0.4-0.4c0.2-0.1,0.4-0.2,0.4-0.2
			c-0.3,0.1-0.6,0.4-0.8,0.7c0.1-0.1,0.2-0.2,0.3-0.2c-0.6,0.7,0.8-0.6,0.4-0.1l-0.2,0.1c0.1,0,0.4-0.2,0.4-0.1
			c-0.4,0.3-0.2,0.1-0.6,0.3c0.1,0.1,0.9-0.4,0.6-0.1c-0.1,0.1-0.2,0-0.3,0.1c-0.4,0.4-0.3,0.3-0.3,0.6l0,0l-0.1,0.3l0.1-0.1
			c1.1-0.8,0.3,0,1.2-0.4c-0.8,0.4-0.4,0.3-0.9,0.7c-0.1,0.1-0.2,0.3-0.3,0.4c0.4-0.2-0.2,0.3,0.4,0c-0.1,0.1,0,0.1-0.3,0.3
			c0.2,0,0.2-0.2,0.4-0.3c0.7-0.3-0.3,0.9,0.4,0.4c0.4-0.1,1-0.4,1.3-0.6c-0.1,0.2-0.3,0.3-0.6,0.4c-0.1,0.2-0.1,0.3,0.2,0.2
			c-0.1,0.1-0.2,0.2-0.3,0.3c0.1,0,0.6-0.4,0.4-0.1c-0.2,0.1-0.4,0.3-0.7,0.4c0.2,0,0.6-0.2,0.8-0.2c-0.2,0.2-0.3,0.3-0.7,0.4
			c0.3,0,0.7-0.1,0.9-0.3l0.1-0.2c0,0-0.3,0.3-0.4,0.3c-0.3,0.2,0-0.2,0.2-0.3h0.1c0.9-0.8-0.3-0.1-0.3-0.2l0.7-0.4l-0.7,0.3
			c0.2-0.2,0.4-0.3,0.7-0.6c0.2-0.3-0.3,0.1,0-0.2l0.1-0.1l-0.2,0.1c0.1-0.1,0.4-0.4,0.3-0.2c0.2-0.4-0.7,0.2-0.2-0.2l0,0
			c-0.3,0-0.4,0.3-1.1,0.7l1.1-1.1l-0.4,0.3c0,0,0-0.1,0.2-0.2c-0.3,0.2-0.2,0.2-0.6,0.4c0.3-0.4-0.4-0.1,0.3-0.8
			c-0.3,0.2-0.2,0.3-0.6,0.4c0.8-0.7-0.2,0,0.1-0.3c0.4-0.3,0.3-0.1,0.6-0.4c-0.8,0.6,0-0.3-0.1-0.2c-0.6,0.4-0.3,0-0.7,0.1
			c0.2-0.1,0.1-0.4,0.2-0.8l0.1-0.1c-0.6,0.4-0.6,0.2-0.8,0.2c0.2-0.2,0.4-0.3,0.7-0.4l-0.1-0.1c-0.1,0.1-0.2,0.1-0.4,0.2l0.4-0.3
			c-0.1-0.1-0.7,0.2-0.4-0.1c-0.4,0.3-1,1-1.5,1.1c0.2-0.2,0.4-0.3,0.7-0.6c0,0-0.2,0.1-0.1,0l0.4-0.2c0.1-0.2-0.3,0.2-0.3,0.1
			c0.3-0.2,0.2-0.2,0.4-0.4c0,0-0.1,0.1,0,0.1c0.1-0.2,0.2-0.3,0.3-0.6c-0.1,0.1-0.3,0.2-0.4,0.3c-0.1-0.1,0.3-0.3,0.4-0.6
			c-0.2,0.1-0.1-0.1-0.6,0.2c0,0,0.2-0.2,0.3-0.3c-0.2,0.1-0.2-0.2-0.7,0.2l0,0l0,0c-0.6,0.2,0-0.6-0.3-0.6l0.1-0.1
			c-0.2,0-0.3-0.1-0.7,0c0,0,0.2-0.3,0.4-0.4c-0.2,0-0.3,0.1-0.2-0.2c0.3-0.1,0.2-0.2,0.2-0.1c0-0.2,0.3-0.4-0.2-0.2
			c0.4-0.2,0.4-0.4,0.3-0.4l-0.2,0.3c-0.1,0-0.1-0.1-0.1-0.1l0.6-0.3c0.4-0.7-1.5,0.4-0.4-0.6c-0.4,0.2-0.1,0.3-0.7,0.6
			c0-0.1,0.7-0.9,0.7-0.9c0.2-0.3-0.9,0.4-0.8,0.2c-0.2,0.2-0.6,0.4-0.9,0.6c0-0.1,0.7-0.8,0.9-0.8c0,0,0,0.1-0.1,0.1
			c0.1,0,0.3-0.1,0.3-0.2l-0.2,0.1c0.1-0.2,0-0.3,0.3-0.6c-0.2,0-0.3,0.1-0.3,0.3c0.2-0.3-0.1-0.2-0.1-0.4c-0.1,0.1-0.3,0.3-0.3,0.2
			c0.1-0.3-0.4,0.2-0.6,0.1c0.2-0.3,0.7-0.4,0.3-0.4c0.2-0.2,0.4-0.3,0.7-0.4c-0.4,0.1,0.1-0.4,0.1-0.6h0.2c-0.1,0-0.1,0-0.1,0
			l-0.3,0.3c0-0.1,0.1-0.2,0.2-0.2c-0.3,0.2-0.7,0.4-1,0.7c0.1-0.2-0.3,0,0.1-0.4c0,0.3,0.4-0.4,0.7-0.3c-0.1,0-0.1,0-0.1-0.1
			l0.1-0.1c0.3-0.4-0.7,0.3-0.8,0.2c0.3-0.2,0.6-0.4,0.4-0.4s-0.4,0.3-0.7,0.4c0.1-0.2-0.2,0-0.2,0l-0.1,0.1
			c-0.3,0.2-0.3,0.1-0.4,0.1c0.2-0.1,0.2,0,0.2-0.1c-0.6,0.3,0.3-0.6,0-0.4c0.1-0.2,0.6-0.4,0.7-0.6c-0.4,0.1,0.3-0.4-0.1-0.3
			c-0.2,0.2-0.4,0.3-0.7,0.4h0.4l-0.7,0.3c0,0.1,0.3,0,0.3,0c-0.2,0.1-0.4,0.2-0.6,0.3c0.6-0.6-0.4,0.1-0.1-0.3l1-0.7
			c0.3-0.4-0.7,0.1-0.6-0.2l-0.1,0.2c-0.4,0.2-0.1-0.1-0.3,0c0.2-0.1,0.4-0.3,0.6-0.6c-0.2,0.2-0.1-0.1-0.8,0.3l0.3-0.4
			c0.1-0.3-1,0.4-1,0.2c0.3-0.2,0.6-0.4,0.9-0.6c0,0,0-0.1-0.2,0c0.2-0.2-0.6,0.2-0.2-0.1c-0.1,0.1-0.4,0.3-0.6,0.2l0.1-0.1
			c-0.1,0.1-0.3,0.1-0.6,0.3c0.9-0.9-0.3-0.3,0.3-1.1c-0.2,0-0.3-0.1-0.4-0.2c0.1-0.1,0.1-0.1,0.1-0.1c0.2-0.3-1,0.6-0.8,0.2
			c0.4-0.4,0.3-0.1,0.6-0.3c1-0.8-0.3-0.1,0.2-0.7h0.1c0.3-0.3-0.6,0.1-0.6-0.1l0.1-0.1c-0.3,0.2-0.8,0.2-1.1,0.2
			c0.2-0.1,0.4-0.2,0.7-0.4c-0.1,0-0.7,0.4-0.9,0.4c0.2-0.2,0.6-0.6,0.8-0.8l0.1,0.1c0.6-0.4-0.1-0.1-0.1-0.2l0.2-0.1
			c-0.2-0.1-0.9,0.3-0.9,0.1l-0.2,0.1c-0.7,0.3,0.3-0.3-0.2-0.1l0.7-0.4c-0.3,0.1-0.7,0.1-1,0.2c0.4-0.2,0.8-0.3,1.2-0.4
			c0-0.1-0.2-0.2-0.6,0c0.1,0,0.2-0.1,0.2,0c-0.6,0.2-0.9,0.3-1,0.2c1.3-0.9,0.1-0.6,1-1.3c-0.7,0.1-0.1-0.6-0.3-0.8
			c-0.9,0.8-0.1-0.1-1.1,0.7c-0.1,0-0.1,0,0-0.1l0.4-0.6c0.2-0.2,0.2-0.1,0.4-0.2c0-0.2,0.4-0.3,0.7-0.7c-0.3,0.2-0.6,0.3-0.4,0.1
			l-0.4,0.4c-0.7,0.1,0.8-0.8,0.1-0.6l0.3-0.1c-0.2,0-0.2-0.3-1.1,0.1c0.1-0.1,0.3-0.2,0.4-0.3c0-0.3-1.2,0-0.9-0.4l0.2-0.1
			c-0.1,0-0.6,0.2-0.3,0c0.1-0.1,0.2-0.1,0.2-0.2c0,0-0.6,0.1-0.4,0l0.3-0.1c0.2-0.4-0.9,0.1-1.2,0c0.8-0.4,0.9-0.8,0.9-1l0.1-0.1
			c-0.1-0.3-0.9-0.1-1.3-0.1c0.7-0.7,0-0.8,0.3-1.3c-0.2,0.1-0.4,0.3-0.7,0.3c0.1-0.1-0.7,0.1,0.1-0.2l0,0c0.7-0.4,0.3-0.4,0.3-0.6
			l-0.9,0.6c1.1-1.1-0.9-0.3,0.2-1.2c-0.2,0.1-0.3,0-0.6,0.1l0.4-0.3c0-0.2,0-0.3-0.2-0.4l0.3-0.1c0-0.1-1.5,0.7-1.6,0.7l0.7-0.4
			c-0.1-0.2,0.3-0.8-0.4-0.6c0.1-0.1,0.2-0.1,0.3-0.1c0-0.1,0.2-0.7-0.7,0c0.7-0.3-0.1-0.2-0.4-0.2l0.4-0.2
			c-0.7,0.2-0.9,0.3-1.1,0.3c0-0.1,0.3-0.2,0.2-0.1c0.2-0.2-0.6,0.2-0.3-0.1l0.3-0.1c0-0.1-0.2,0-0.6,0.1c-0.2,0,0-0.2,0.4-0.6
			c-0.2,0.1-0.7,0.3-0.6,0.1c0.1-0.1,0.2-0.1,0.3-0.1c0.2-0.3-0.7,0.1-0.3-0.3c0.1,0,0.2-0.1,0.2-0.2c0.1,0.1,0.1,0.2,0.1,0.3
			c0.3-0.2,0.8-0.6,1.1-0.7c-0.3,0.1-1.2,0.3-1.1,0.1l0.1-0.1h0.1c0,0,0,0-0.1,0c0-0.1,0.1-0.1,0.1-0.1c0.3-0.2,0.1-0.2,0.1-0.3
			c-0.4,0.3-0.4,0.1-0.8,0.4h0.1h0.3l0,0l0.1,0.1c-0.2,0.1-0.6,0.1-0.2,0l-0.9,0.3c0.7-0.4,0.9-0.9,1.3-1.1c-0.4-0.2-1-0.1-1.5,0.1
			c-0.1,0,0.2-0.2,0.3-0.3s0.1,0,0.2,0c-0.3,0-0.2-0.2-0.9,0.1c0.2-0.3,0.7-0.2,0.4-0.3l0.2-0.1c0.9-0.9-2,0.3-0.9-0.8
			c-0.1,0.1-0.1,0.1-0.2,0.1c0.3-0.8-1-0.6-0.3-1.6c0.1-0.2-0.3,0-0.7,0.1l0.6-0.3l-0.7,0.2c-0.6,0.1,1.1-1,0.1-0.8l-0.3,0.2
			c0-0.1-0.3-0.1,0.1-0.3c-0.1,0-0.3,0.1-0.2,0l0.2-0.1h-0.6c0.1-0.2,1.1-0.6,1.1-0.9c-0.4,0-0.8,0.1-1.1,0.3c0,0-0.1,0.2-0.4,0.3
			H58c-0.8,0.3-1.6,0.9-2.1,1.5l0.6-0.1l-0.3,0.2l-0.1-0.1c-0.3,0.2,0,0.1,0.2,0c-0.1,0.1-0.3,0.2-0.4,0.3l0.9-0.3
			c-0.3,0.2-0.7,0.2-0.8,0.4c0.4-0.1,0.7-0.4,1-0.4c-0.3,0.2-0.7,0.4-0.3,0.3c-0.1,0.1-0.3,0.1-0.4,0.2c0.3-0.1,0.2,0.1,0.7-0.1
			c-0.4,0.3,0.2,0.1-0.6,0.6c0.2-0.1,0.4-0.1,0.8-0.1c-1,0.3,0.1,0.2-1,0.8c0.9-0.3,0.6,0.1,1.1,0c-0.1,0-0.2,0.1-0.2,0
			c0,0.1-0.2,0.3-0.4,0.4c0.4-0.2,0.9-0.3,1.5-0.4c-0.4,0.3-1,0.6-1.5,0.8c0.6-0.3,0.7-0.1,1.1-0.4c-0.2,0.2-0.4,0.3-0.7,0.6
			c0.9-0.4,0.2,0,0.8-0.2c-0.3,0.3-0.8,0.4-0.4,0.4C55.9,108.1,55.7,108.2,55.5,108.2z M58.7,110.4L58.7,110.4L58.7,110.4
			L58.7,110.4L58.7,110.4z M58.9,110.6v-0.1c0.1-0.1,0.3-0.2,0.3-0.1S59,110.5,58.9,110.6L58.9,110.6z M62,108.1
			c0.1,0,0,0.1-0.1,0.1h-0.1h-0.1L62,108.1L62,108.1z"/>
		<path class="st4" d="M61.3,108.4L61.3,108.4l-0.1,0.1L61.3,108.4L61.3,108.4z"/>
		<path class="st4" d="M74.9,129.9L74.9,129.9L74.9,129.9L74.9,129.9z"/>
		<polygon class="st4" points="60,114.6 60.1,114.5 60,114.5 		"/>
		<path class="st4" d="M74.5,132.4L74.5,132.4L74.5,132.4z"/>
		<path class="st4" d="M74.8,133l-0.1,0.2C74.7,133.1,74.7,133.1,74.8,133z"/>
		<path class="st4" d="M74.9,133.5l0.2-0.1l0,0L74.9,133.5z"/>
		<path class="st4" d="M69.2,127.5L69.2,127.5C69,127.5,69.1,127.5,69.2,127.5z"/>
		<path class="st4" d="M71.8,128.6l-0.2,0.1C71.5,128.8,71.5,128.8,71.8,128.6z"/>
		<path class="st4" d="M67,125.7L67,125.7L67,125.7z"/>
		<path class="st4" d="M71.5,128.6C71.3,128.7,71.5,128.7,71.5,128.6C71.6,128.7,71.6,128.6,71.5,128.6z"/>
		<path class="st4" d="M76.2,135.4L76.2,135.4L76.2,135.4L76.2,135.4z"/>
		<path class="st4" d="M76.2,135.4L76.2,135.4C76.3,135.4,76.3,135.4,76.2,135.4z"/>
		<path class="st4" d="M76.4,135.3h-0.1C76.3,135.4,76.3,135.4,76.4,135.3z"/>
		<path class="st4" d="M76,134.8l-0.1,0.1L76,134.8z"/>
		<path class="st4" d="M75.7,134.7c0,0.1-0.2,0.3-0.1,0.3l0.1-0.1C75.5,135.1,76.1,134.4,75.7,134.7z"/>
		<path class="st4" d="M77.1,132.3v0.2c0.1-0.1,0.3-0.3,0.4-0.3C78,131.6,77.2,132.5,77.1,132.3z"/>
		<path class="st4" d="M77.1,131.7c0.1,0,0.2-0.2,0.3-0.2C77.3,131.5,77.2,131.6,77.1,131.7z"/>
		<path class="st4" d="M74.6,128.7l0.4-0.3C74.8,128.4,74.8,128.5,74.6,128.7z"/>
		<polygon class="st4" points="72,129.8 71.8,130 72.1,129.8 		"/>
		<polygon class="st4" points="74.6,127.1 74.7,127.1 74.5,127.1 		"/>
		<path class="st4" d="M70.6,122.1l-0.4,0.3C70.2,122.4,70.8,122.1,70.6,122.1z"/>
		<path class="st4" d="M68.4,120.1c0.2-0.2,0.3-0.3,0.1-0.2C68.5,119.9,68.3,120.1,68.4,120.1z"/>
		<path class="st4" d="M64.7,112.5h0.2H64.7z"/>
	</g>
	<path class="st4" d="M82.5,104.1c-0.2,0.1,0.3,0.7,0.6,1c-0.1,0.3-0.4-0.3-0.8-0.7c0,0.2,0.3,0.9,0.2,0.9c-0.1-0.1-0.1-0.1-0.2-0.2
		c0.2,0.6-0.3,0.3-0.1,1L82,106c0.2,0.2,0.4,0.6,0.7,0.8c-0.1,0.1,0.1,0.4-0.2,0.1c0,0-0.1-0.2-0.1-0.3v0.2c-0.4-0.4,0-0.2-0.3-0.7
		c0,0.3,0.1,0.9-0.1,0.9c-0.4-0.6,0.1-0.4-0.4-0.8l0.3,0.1c-0.8-0.8,0.1,0-0.7-0.9c-0.3,0,0,0.4-0.4,0.6c0.2,0.3,0.3,0.4,0.6,0.8
		c0.1,0.8-1.3-1.1-1-0.2c0.2,0.4,0.7,1.1,0.2,0.9l-0.4-0.7c-0.2,0.1,0.6,1,0,0.8c-0.1-0.2,0-0.3-0.1-0.3c-0.6-0.3,0.1,0.4,0,0.6
		l-0.4-0.6c-0.2,0.2-0.1,0.9-0.3,1.2c-0.1-0.2-0.2-0.3-0.3-0.4c-0.1,0.6-0.8,0.4-1.3,0.4l0.2,0.6c0,0-0.2-0.1-0.2-0.3
		c-0.2-0.1,0.2,0.3,0.3,0.6c0,0.1-0.3-0.2-0.3-0.3c0.1,0.6,0,1.3-0.7,1l-0.1-0.2c-0.3,0,0.6,1.1,0,0.9v-0.1
		c-0.6,0.1-0.7,0.9-1.6,0.4c0.4,0.7-0.7,0,0.1,1c-0.6-0.3-0.7-0.6-1.2-0.6c-0.1,0,0.3,0.7,0.3,0.9l-0.3-0.4l0.3,0.6l-0.6-0.6v0.2
		c0.1,0.1,0.2,0.2,0.3,0.3c0,0.3-0.7,0-0.9-0.3v0.7c-0.1-0.1-0.1-0.3-0.2-0.4c0.2,0.7-0.4-0.4-0.2,0.1c0.1,0.1,0.2,0.2,0.3,0.4
		c-0.3-0.2-0.6-0.1-0.6,0.2l-0.2-0.3c-0.3,0.1-0.4,0.7-0.8,0.9c0.2,0.1,0.7,0.7,0.7,0.8l-0.4-0.4c0.2,0.3,0.2,0.1,0.4,0.7
		c-0.1,0-0.6-0.6-0.6-0.8v0.3c-0.1-0.1-0.2-0.3-0.3-0.4c0.2,0.3-0.7-0.3-0.3,0.3l-0.1-0.1c-0.3,0.2-0.3,0.6-0.6,0.8
		c0.3,0.4,0.1,0.4,0.3,0.9c-0.3,0-0.8-0.2-1,0c0,0.3,0.2,0.4,0.3,0.8c-0.3-0.4-0.6-0.2-0.7-0.6c-0.2,0.2-0.3,0.6-0.3,0.9
		c0.1,0.1,0.2,0.2,0.3,0.3c0.1,0.1-0.2-0.1-0.4-0.2l0,0c0.1,0.9-1.8-0.6-1.5,0.6l0,0v0.7c-0.2,0-0.1-0.3-0.4-0.6
		c0.2,0.9-0.7,0.3-0.6,1c-1.1-1-0.7,0.7-1.6,0.1l0.2,0.2c0.1,0.3-0.2-0.1-0.3-0.1c0.2,0.2,0.2,0.2,0.3,0.3c-0.3,0.9-1.7,0.7-2.5,0.9
		c-0.3,0.1,1,1.6,0.1,1.1l-0.3-0.6c0,1-1,0.8-1.1,1.7c-0.1-0.1-0.2-0.3-0.1-0.3c-0.4-0.3-0.3,0.2-0.1,0.6c-0.1,0-0.2-0.2-0.4-0.3
		c-0.2-0.1,0.1,0.7-0.2,0.3c0,0-0.1-0.1-0.1-0.2c0.1,0.2-0.3,0.2,0.1,0.6c-0.3-0.1-0.2,0.4-0.6,0.3c0.3,0.6-0.4,0,0,0.7
		c-0.6-0.8-0.8-0.3-0.7,0.1c-0.1-0.2-0.2-0.1-0.4-0.4c-0.1,0.1-0.1,0.3,0.2,0.7c-0.9-0.7,0.1,1.1-0.9,0.1c0,0.6-0.2,1.1-0.4,1.7
		c-0.6-0.8,0.3-0.3-0.2-1.1c-0.1,0.6,0.2,1.3-0.2,1.3c-0.1,0-0.2-0.3-0.2-0.4c-0.1,0.6-0.7,0.4-0.7,1c0-0.1-0.1-0.1-0.1-0.2
		c0,0.1-0.2,0,0,0.3v-0.1c0.4,0.4,0.6,1.1,0.8,1.5c-0.7-1-0.4,0-1.2-1.3c0,0.2,0.1,0.3,0.2,0.4c-0.1,0-0.2-0.1-0.3-0.4
		c-0.1,0.3,0.2,0.7,0.1,0.8c-0.1-0.1-0.2-0.3-0.2-0.4c0.1,0.3,0.3,0.8,0,0.8c-0.1-0.1-0.2-0.2-0.1-0.2c-0.2,0.2,0.2,1.2-0.3,1.1
		c-0.4-0.8-0.2-0.1-0.8-0.8v0.3l0.3,0.2c-0.1,0.1,0.1,0.7-0.2,0.6l-0.1-0.3l-0.1,0.3l0.3,0.1c0.1,0.4,0.6,0.8,0.3,0.7
		c0-0.1-0.1,0.1-0.4-0.2l0,0c0.1,0.2,0.1,0.4,0,0.4c-0.2-0.1-0.4-0.7-0.6-0.8c0.3,0.6-0.2,0.3,0.1,1c-0.1-0.2-0.2-0.3-0.3-0.6
		l0.2,0.4c-0.1-0.1-0.2-0.1-0.4-0.3c-0.2,0.1,0.7,0.7,0.1,0.6c0,0-0.1-0.1-0.1-0.2c-0.3,0-0.2,0.6-0.7,0.6c-0.6-0.6,0.1-0.3-0.4-0.8
		c-0.2,0.3-0.1,1.2-0.4,1.3h0.1c0.7,0.9-0.6-0.2-0.3,0.2c-0.1-0.1-0.1-0.3-0.2-0.4c-0.3,0-0.2,0.6-0.3,1l-0.1-0.2
		c-0.2-0.1-0.4,0.1-0.6,0.1c0.1,0.2,0,0.2,0.3,0.6c-1.3-0.9-0.2,1.2-1.3,0.6c0,0,0-0.2-0.1-0.2l-0.1,0.4c0.3,0.3,0.2,0.2,0.6,0.4
		c0.1,0.2,0.2,0.4,0.1,0.6c-0.1-0.3-0.4-0.6-0.7-0.8c0.1,0.1,0.2,0.2,0.2,0.3c-0.7-0.6,0.6,0.8,0,0.4l-0.1-0.2c0,0.1,0.1,0.4,0,0.4
		c-0.3-0.3-0.1-0.2-0.3-0.7c-0.1,0.1,0.4,1,0,0.7c0-0.1,0-0.2,0-0.3c-0.6-0.3-0.4-0.2-0.6-0.2l0,0h-0.3l0.1,0.1
		c0.8,1.2-0.1,0.4,0.2,1.3c-0.3-0.9-0.3-0.4-0.7-0.9c-0.2-0.1-0.3-0.2-0.4-0.3c0.2,0.4-0.4-0.1-0.1,0.4c-0.1-0.1-0.1,0.1-0.4-0.3
		c0,0.2,0.2,0.2,0.4,0.4c0.2,0.7-1-0.2-0.7,0.7c0,0.4,0.4,1,0.4,1.5c-0.2-0.1-0.3-0.3-0.4-0.6c-0.3-0.1-0.3,0-0.3,0.2
		c-0.1-0.1-0.2-0.2-0.3-0.3c0,0.1,0.4,0.6,0.1,0.4c-0.1-0.2-0.3-0.4-0.4-0.7c0,0.2,0.1,0.6,0.1,0.9c-0.2-0.2-0.3-0.4-0.4-0.7
		c-0.1,0.3,0,0.7,0.2,1l0.2,0.1c0,0.1-0.3-0.3-0.3-0.4c-0.2-0.4,0.2,0,0.4,0.1v0.1c0.9,0.8,0.2-0.4,0.3-0.4l0.4,0.7l-0.3-0.7
		c0.2,0.1,0.6,0.4,0.6,0.7c0.3,0.2-0.1-0.3,0.3,0l0.1,0.1l-0.1-0.3c0.1,0.1,0.4,0.4,0.2,0.4c0.6,0.2-0.1-0.8,0.3-0.3l0,0
		c0.1-0.4-0.3-0.4-0.7-1.2l1.1,1l-0.3-0.4c0,0,0.1,0,0.2,0.2c-0.1-0.4-0.2-0.2-0.3-0.6c0.4,0.3,0.2-0.6,0.9,0.2
		c-0.2-0.4-0.3-0.1-0.4-0.6c0.8,0.8,0-0.2,0.4,0c0.3,0.4,0,0.3,0.4,0.6c-0.6-0.8,0.3,0,0.3-0.2c-0.4-0.6,0-0.4,0-0.8
		c0.1,0.2,0.6,0,0.9,0.1l0.1,0.1c-0.4-0.6-0.2-0.7-0.1-0.9c0.2,0.2,0.3,0.4,0.4,0.7l0.1-0.1c-0.1-0.1-0.1-0.3-0.1-0.4l0.3,0.4
		c0.1-0.1-0.1-0.8,0.3-0.7c-0.3-0.4-1.1-1-1.1-1.5c0.2,0.2,0.3,0.4,0.6,0.7c0,0-0.1-0.2,0-0.1l0.2,0.4c0.2,0.1-0.2-0.3-0.1-0.3
		c0.2,0.3,0.2,0.2,0.4,0.4c0,0-0.1-0.1-0.1,0.1c0.2,0,0.4,0.1,0.6,0.3c-0.1-0.1-0.3-0.4-0.3-0.4c0-0.1,0.3,0.3,0.6,0.4
		c-0.1-0.2,0.1-0.1-0.2-0.6c0,0,0.2,0.2,0.3,0.3c-0.1-0.2,0.3-0.3-0.1-0.8l0,0l0,0l0,0c-0.1-0.7,0.8-0.1,0.9-0.6l0.1,0.1
		c0-0.3,0.2-0.3,0.1-0.8c0,0,0.3,0.2,0.4,0.4c0-0.2-0.1-0.4,0.2-0.2c0.1,0.3,0.2,0.2,0,0.3c0.2,0,0.4,0.2,0.3-0.3
		c0.2,0.4,0.6,0.4,0.4,0.2l-0.3-0.2c0-0.1,0.1-0.1,0.2-0.1l0.3,0.6c0.9,0.4-0.2-1.6,0.8-0.7c-0.2-0.4-0.3-0.1-0.7-0.7
		c0.2,0,1,0.6,1,0.6c0.4,0.1-0.4-0.9,0-0.9c-0.1-0.1-0.6-0.7-0.6-1c0.2,0,0.8,0.7,0.9,0.9c0,0-0.1,0-0.1-0.1c0,0.1,0.1,0.3,0.2,0.4
		l-0.1-0.2c0.2,0.1,0.4,0,0.6,0.3c0-0.2-0.1-0.3-0.3-0.3c0.4,0.1,0.3-0.2,0.7-0.2c-0.1-0.1-0.3-0.2-0.2-0.3c0.4,0-0.1-0.4,0-0.7
		c0.3,0.2,0.4,0.7,0.4,0.3c0.2,0.1,0.4,0.4,0.4,0.7c-0.1-0.4,0.6,0,0.7,0v0.2c0-0.1,0-0.1,0.1-0.2l-0.3-0.3c0.1,0,0.1,0,0.2,0.1
		c-0.1-0.3-0.6-0.6-0.7-1c0.2,0.1,0.1-0.3,0.4,0.1c-0.3,0,0.4,0.4,0.3,0.7c0-0.1,0-0.1,0.1-0.1l0.1,0.1c0.6,0.2-0.3-0.7-0.1-0.8
		c0.2,0.3,0.4,0.4,0.4,0.4c-0.1,0.1-0.4-0.4-0.4-0.7c0.3,0.1,0-0.3,0.1-0.3h-0.1c-0.2-0.3-0.1-0.3,0-0.4c0.2,0.2,0,0.2,0.1,0.3
		c-0.2-0.6,0.7,0.3,0.6-0.1c0.2,0.1,0.4,0.6,0.6,0.6c-0.1-0.4,0.4,0.2,0.4-0.2c-0.3-0.3-0.3-0.2-0.4-0.7l-0.1,0.4l-0.2-0.7
		c-0.1,0.1,0,0.3-0.1,0.3c0-0.2-0.2-0.4-0.3-0.6c0.6,0.4,0-0.6,0.4-0.2l0.8,0.9c0.6,0.2,0-0.8,0.4-0.8l-0.2-0.1
		c-0.2-0.4,0.1-0.2,0.1-0.4c0.1,0.2,0.3,0.4,0.6,0.6c-0.2-0.2,0.2-0.1-0.2-0.8l0.4,0.3c0.3,0-0.4-1.1-0.1-1.1
		c0.2,0.4,0.4,0.6,0.6,0.9c0.1,0,0.2,0,0-0.2c0.2,0.1-0.1-0.6,0.2-0.3c-0.1-0.1-0.3-0.4-0.2-0.6l0.1,0.1c-0.1-0.1,0-0.3-0.3-0.6
		c1,0.8,0.6-0.6,1.5,0.1c0.1-0.2,0.2-0.4,0.3-0.7c0.1,0.1,0.1,0.1,0.1,0.1c0.4,0.1-0.6-1-0.1-0.9c0.6,0.4,0.1,0.3,0.3,0.4
		c0.9,1,0.1-0.3,0.8,0.1v0.1c0.3,0.2,0-0.7,0.2-0.7l0.1,0.1c-0.2-0.4-0.2-0.9-0.1-1.3c0.2,0.4,0.1,0.2,0.4,0.7
		c0-0.1-0.6-0.7-0.4-0.9c0.3,0.2,0.7,0.4,0.9,0.7l-0.1,0.1c0.6,0.6,0.2-0.2,0.3-0.1l0.2,0.2c0.2-0.2-0.3-0.9,0-1l-0.1-0.1
		c-0.3-0.8,0.3,0.2,0.1-0.3l0.6,0.6c-0.1-0.3-0.1-0.8-0.1-1.1c0.2,0.4,0.3,0.9,0.3,1.3c0.2-0.1,0.2-0.4,0.1-0.7c0,0.1,0.1,0.2,0,0.2
		c-0.2-0.6-0.3-0.9-0.1-1.1c0.9,1.2,0.7-0.1,1.6,0.8c0-0.7,0.8-0.3,1.1-0.7c-0.9-0.9,0.1-0.1-0.7-1.1c0-0.1,0.1-0.1,0.1-0.1l0.8,0.2
		c0.3,0.2,0.1,0.2,0.2,0.4c0.2-0.1,0.4,0.3,0.8,0.6c-0.3-0.3-0.3-0.6-0.1-0.4l-0.4-0.3c-0.1-0.8,0.9,0.7,0.8-0.1l0.1,0.3
		c0-0.3,0.6-0.4,0-1.3c0.1,0.1,0.3,0.3,0.3,0.4c0.4-0.1,0.1-1.5,0.8-1.1l0.1,0.2c0-0.1-0.2-0.6,0-0.3c0.1,0.1,0.1,0.2,0.2,0.2
		c0,0-0.1-0.6,0-0.4l0.1,0.3c0.6,0.1,0-1,0.1-1.5c0.2,0.4,0.7,0.7,1.2,0.8l0.1,0.1c0.4-0.2,0.2-1.1,0.3-1.7c0.8,0.6,1-0.2,1.7-0.1
		c-0.2-0.2-0.3-0.4-0.4-0.7c0.2,0.1-0.1-0.7,0.3,0l0,0c0.6,0.6,0.6,0.3,0.8,0.2l-0.7-0.9c1.3,1,0.6-1.1,1.6-0.2
		c-0.1-0.2,0-0.3,0-0.7l0.3,0.4c0.3,0,0.6-0.2,0.7-0.4l0.2,0.3c0.2-0.1-0.8-1.5-0.7-1.6l0.6,0.7c0.2-0.2,1,0.1,0.9-0.7
		c0.1,0.1,0.2,0.3,0.2,0.3c0.1-0.1,0.9,0.1,0.1-0.9c0.4,0.6,0.3-0.1,0.3-0.6l0.3,0.4c-0.3-0.7-0.4-0.9-0.3-1.1
		c0.1,0,0.3,0.3,0.1,0.2c0.3,0.1-0.2-0.6,0.1-0.4l0.1,0.3c0.1-0.1,0-0.2-0.1-0.7c0-0.2,0.3-0.1,0.7,0.3c-0.1-0.2-0.3-0.7-0.1-0.6
		c0.1,0.1,0.1,0.2,0.2,0.3c0.4,0.1,0-0.8,0.4-0.4c0.1,0.1,0.1,0.2,0.2,0.2c-0.2,0.1-0.3,0.2-0.3,0.2c0.3,0.4,0.6,0.3,0.9,1
		c-0.1-0.4-0.4-1.2-0.1-1.1l0.1,0.1v0.1c0.1,0,0.1,0,0-0.1c-0.1-0.1,0.1,0.1,0.2,0c0.2,0.3,0.3,0,0.4,0c-0.3-0.4-0.2-0.4-0.6-0.8
		v0.1c0,0,0,0,0,0.1l0,0c0,0.1-0.1,0.1-0.1,0.2c-0.1-0.2-0.2-0.6,0.1-0.3c-0.2-0.3-0.3-0.7-0.4-0.8c0.6,0.6,1,0.7,1.3,1.1
		c0-0.4,0.4-0.6-0.1-1.6c0-0.1,0.2,0.2,0.3,0.3c0.1,0.1,0,0.1,0,0.2c0-0.3,0.3-0.4-0.1-1c0.3,0.1,0.3,0.7,0.4,0.3l0.1,0.2
		c1.2,0.6-0.4-2.1,1-1.2c-0.1,0-0.1-0.1-0.2-0.1c1,0.1,0.8-1.5,2-1c0.3,0,0-0.3-0.1-0.7l0.4,0.4l-0.2-0.7c-0.1-0.6,1.3,0.9,1-0.1
		l-0.3-0.3c0.1,0,0.2-0.4,0.4-0.1c0-0.1-0.2-0.3,0-0.2l0.2,0.2l-0.1-0.7c0.3,0,0.8,1,1.1,0.9c0-0.4-0.2-0.8-0.4-1.1
		c-0.1,0-0.2-0.1-0.4-0.3v-0.8c-0.4-0.8-1-1.5-1.8-1.9l0.1,0.6l-0.3-0.3l0.1-0.1c-0.3-0.2-0.1,0.1-0.1,0.3c-0.1-0.1-0.2-0.2-0.3-0.3
		l0.3,0.9c-0.2-0.2-0.3-0.7-0.7-0.7c0.1,0.3,0.6,0.6,0.7,0.9c-0.3-0.2-0.6-0.6-0.4-0.2c-0.1-0.1-0.2-0.2-0.2-0.4
		c0.1,0.3-0.1,0.2,0.1,0.7c-0.4-0.3-0.2,0.3-0.8-0.3c0.1,0.2,0.2,0.7,0.2,0.8c-0.4-1-0.3,0.2-1-0.8c0.4,0.9-0.1,0.7,0,1.2
		c0-0.1-0.1-0.2-0.1-0.2c-0.1,0-0.3-0.2-0.6-0.2c0.3,0.4,0.4,0.9,0.7,1.3c-0.6-0.4-0.4-0.8-1-1.3c0.4,0.4,0.1,0.7,0.6,1.1
		c-0.2-0.1-0.4-0.3-0.7-0.6c0.6,0.8,0,0.2,0.3,0.8c-0.4-0.2-0.6-0.7-0.6-0.3C82.6,104.5,82.5,104.3,82.5,104.1z M79.7,108.4
		L79.7,108.4L79.7,108.4C79.7,108.3,79.7,108.3,79.7,108.4z M79.3,108.8c0.1,0,0.1,0,0.1-0.1c0.1,0.1,0.2,0.3,0.2,0.3
		C79.7,108.9,79.4,108.8,79.3,108.8L79.3,108.8z M82.5,111.4c0,0.1-0.1,0-0.1-0.1v-0.1V111C82.4,111.1,82.5,111.3,82.5,111.4
		L82.5,111.4z"/>
</g>
</svg>
