<svg id="Layer_1" data-name="Layer 1" xmlns="http://www.w3.org/2000/svg" width="4649.07" height="833.83" viewBox="0 0 4649.07 833.83">
  <title>FindDinKandidat2</title>
  <g>
    <g>
      <path d="M4318.72,490.06c-16.53,30.7-21.83,74.27.5,101s55.68,42.13,89.4,51c20.19,5.31,42.7,8.34,61.12-1.49,8.46-4.51,15.37-11.42,21.77-18.56,20.8-23.2,38.33-53,33.81-83.87-2.14-14.55-9-28-16.63-40.55-8.74-14.51-18.83-28.68-32.69-38.43-22.68-16-52.39-17.93-80-15-31.37,3.3-66.42,16-77.12,45.63" fill="#fff"/>
      <path d="M4441.32,656.75c-12.89,0-25.28-2.65-35.16-5.25-41.82-11-73.58-29.22-94.39-54.17-25.82-31-18.93-79.68-1.61-111.87,10.63-27.86,41.48-46.41,84.86-51,36.22-3.8,65.35,1.83,86.57,16.75,16,11.29,26.92,27.24,35.43,41.36,7.48,12.41,15.46,27.37,17.93,44.15,4.24,28.9-8.27,60.64-36.19,91.77-6.47,7.22-14.43,15.31-24.43,20.65C4463.81,654.8,4452.38,656.75,4441.32,656.75ZM4316.86,489.06l10.42,5.61c-14.33,26.61-20.63,66.19-.59,90.21,18.18,21.79,46.58,37.87,84.41,47.82,15.19,4,37.33,8.27,54.07-.66,7.31-3.9,13.51-10.22,19.11-16.47,16.69-18.62,35.69-46.91,31.43-76-2-13.38-8.86-26.18-15.34-36.94-7.46-12.38-16.86-26.28-30-35.49-17.26-12.14-42-16.62-73.36-13.32-17.13,1.8-58.15,9.23-69,39.26Z"/>
    </g>
    <g>
      <line x1="4250.92" y1="411.45" x2="4287.31" y2="444.01" fill="none"/>
      <rect x="4259.39" y="403.31" width="19.44" height="48.83" transform="translate(1103.74 3324.05) rotate(-48.18)"/>
    </g>
    <g>
      <line x1="4316.04" y1="371.22" x2="4335.2" y2="426.77" fill="none"/>
      <rect x="4315.82" y="369.3" width="19.44" height="58.75" transform="translate(106.41 1432.19) rotate(-19.03)"/>
    </g>
    <g>
      <line x1="4381.16" y1="361.65" x2="4384.99" y2="413.36" fill="none"/>
      <rect x="4373.37" y="361.31" width="19.44" height="51.86" transform="translate(-16.63 325.12) rotate(-4.24)"/>
    </g>
    <g>
      <line x1="4436.71" y1="371.22" x2="4429.05" y2="409.53" fill="none"/>
      <rect x="4413.54" y="380.71" width="39.07" height="19.44" transform="translate(3180.82 4660.84) rotate(-78.69)"/>
    </g>
    <g>
      <line x1="4496.09" y1="394.21" x2="4473.1" y2="434.43" fill="none"/>
      <rect x="4461.21" y="404.45" width="46.33" height="19.44" transform="translate(1900.22 4102.43) rotate(-60.26)"/>
    </g>
    <g>
      <line x1="4568.87" y1="376.97" x2="4509.49" y2="442.09" fill="none"/>
      <rect x="4495.29" y="399.99" width="88.13" height="19.44" transform="translate(1178.06 3487.9) rotate(-47.64)"/>
    </g>
    <path d="M4362.78,510.48a28.16,28.16,0,0,1,12.1,15.41l4.53-8c-5.41,2-16.8,1.46-15.08-7.41,1.43-7.34,12.87-8.54,18.23-6s8.09,10.1,5,15.42c-3,5.09-10.38,5.46-14.28,1.36-5.76-6.06-14.92,3.12-9.17,9.17,9.39,9.87,27,8.33,34.29-3.39,7.86-12.68,1.28-29.85-12.29-35.09-13.23-5.11-32.79,1.72-34.63,17.34-2,17.33,16.84,26.51,31.38,21,3.16-1.19,5.69-4.39,4.53-8a42.18,42.18,0,0,0-18-23.15c-7.09-4.44-13.61,6.77-6.54,11.19Z"/>
    <path d="M4442.43,507.73c9.3-.6,21.75,1.45,26.08,11,3.62,8-.15,19-10.34,17.65-5.56-.72-9.81-4.52-12.59-9.2-1.72-2.9-6.08-11.24-4.2-14.64.91-1.64,5-2.86,6.32-1.15s-1.07,6.14-3.31,5.83c-3.49-.49-6.92.85-8,4.53-.87,3,1.06,7.49,4.53,8,7.12,1,13.7-1.69,17.5-8,3.54-5.92,3.62-13.8-1.25-19-10-10.8-29.19-2.71-28.92,11.74.3,16.38,12.92,33.67,29.84,35,16.6,1.29,26.84-14,24.21-29.33-3.17-18.47-23.06-26.38-39.89-25.3-8.28.53-8.34,13.5,0,13Z"/>
    <path d="M4345,568.47c17.61,22.63,46.21,33.52,74.13,35.57,15.63,1.15,31.31-1,44.62-9.76,12.32-8.09,21.65-19.61,30.63-31.1,5.08-6.5-4-15.74-9.17-9.17-7.72,9.88-15.67,20.28-26,27.66-12,8.62-25.65,10.47-40.13,9.4-24.78-1.83-49.43-11.82-65-31.78-5.12-6.58-14.23,2.66-9.17,9.17Z"/>
  </g>
  <g opacity="0.85">
    <path d="M1703.78,690l-14.58-4.12a44.37,44.37,0,0,1,6.9,3.6C1697.64,690,1700.71,690,1703.78,690Z"/>
    <path d="M1674.63,682.3l-2.3-.51H1670Z"/>
    <path d="M1647.78,677.15l13.81,3.09A66.64,66.64,0,0,0,1647.78,677.15Z"/>
    <path d="M1668.49,683.33c-1.53-1-1.53-2.06.77-2.06h0l-8.44-1A18.58,18.58,0,0,1,1668.49,683.33Z"/>
    <path d="M1668.49,683.33l3.84,2.57A8.45,8.45,0,0,0,1668.49,683.33Z"/>
    <path d="M1653.91,698.25c-3.07,0,0-4.63-6.14-4.63s-12.27-.51-18.41-.51a101.55,101.55,0,0,1-17.64-1c-6.14.51-11.51-6.69-17.64-6.17-13-.51-48.33,4.63-29.15,6.17,14.58,1,26.08,1.54,37.59,2.57l17.64,1,18.41,1.54c21.48.51,43,2.06,63.68,4.63,5.37,1,10.74,2.06,16.11,3.6l-21.48-6.17a77,77,0,0,0-19.18-2.06C1670,698.77,1662.35,698.77,1653.91,698.25Z"/>
    <path d="M1809.65,723.47l-7.67-2.06a180.45,180.45,0,0,0-34.52-10.81l4.6,2.57c6.9,1.54,8.44,1.54,2.3-.51A291.49,291.49,0,0,0,1813.49,726C1812.72,725,1813.49,725,1809.65,723.47Z"/>
    <path d="M1821.16,728.1l-8.44-2.06h0Z"/>
    <path d="M1589.47,671.49l-52.17-7.72-50.63-7.2c-3.07,1-5.37,2.57-8.44,1.54a30.33,30.33,0,0,0-7.67-3.6l-14.56-2h-5.37c-3.07.51-2.3,2.06-.77,3.09l4.6,3.09-4.6-3.09a79.34,79.34,0,0,0-7.67-3.09,62.47,62.47,0,0,1-13.81-1,41.81,41.81,0,0,1,13.81,1h8.44l2.3-.51c-10.74-1.54-22.25-2.57-33-4.12H1413c-8.44.51-16.11.51-20.71-3.6l-6.14-.51.77.51a4.58,4.58,0,0,1-2.3-1l-25.32-2.57c-5.37,1-11.51,2.57-17.64,3.6l-5.37-4.12c-2.3,2.06-6.14,3.09-10,3.6,4.6,2.57,8.44,5.66,12.27,7.2,5.37,4.12,13.81-7.2,19.18.51-6.14-7.72-13.81,3.6-19.18-.51-3.84-1.54-7.67-4.63-12.27-7.2a52.18,52.18,0,0,1-26.85-4.63c9.21-2.06,19.95-.51,26.85,4.63a22.2,22.2,0,0,0,10-3.6l5.37,4.12c6.14-1,11.51-2.57,17.64-3.6-16.11-1.54-33.76-2.57-50.63-4.12a1573.9,1573.9,0,0,0-163.41-2.06c-54.47,2.06-108.17,5.15-165.71,8.75-62.14,4.12-122,9.26-180.29,15.44-56,6.69-112,14.92-166.48,25.73-54.47,9.78-108.94,19.55-165.71,29.33-43.73,7.72-122.75,28.3-164.17,38.59-26.85,7.72-33,10.29-33,10.81.77.51,9.21,0,10.74,0,17.64-1.54,33.76-3.6,53.7-6.69s44.5-7.2,81.32-10.81c-24.55,2.57-16.11,0,4.6-3.6a553.65,553.65,0,0,1,77.48-8.75A813.25,813.25,0,0,0,615.93,723c21.48-2.57,43-6.17,63.68-8.75a639.24,639.24,0,0,1,63.68-6.17c20.71-1,42.19-4.12,67.51-6.17,64.44-2.57,125.82-7.2,188-11.32l46.8-3.09c15.34-1,31.45-1.54,47.56-2.06s32.22-.51,48.33-.51,33,.51,49.1,1.54a323.46,323.46,0,0,0,49.87-2.06l46-5.15a236.65,236.65,0,0,1,33,2.06c10.74,1.54,20.71,2.57,29.15,3.09q19.56.77,39.13,0c12.27-.51,24.55-1.54,36.06-2.57-13,0-23.78,0-35.29.51s-23,.51-37.59.51c-19.18-.51,13.81-9.26,26.85-10.81,5.37-1.54,13,7.72,18.41,6.17a206.41,206.41,0,0,0,36.06-3.6c5.37-1.54,3.84,6.17,6.14,5.66,17.64-.51,33-8.75,43-6.17a200.08,200.08,0,0,1,22.25,5.66,63.12,63.12,0,0,0,13.81,1.54l10-1a15,15,0,0,1-2.3-7.72c4.6,1,10.74,3.09,14.58,4.12-4.6-1-10.74-3.09-14.58-4.12a15,15,0,0,0,2.3,7.72c12.27-1,24.55-1,37.59-1h19.18c6.14,0,13,.51,19.18,1v-.51c-14.58-1.54-28.39-4.63-40.66-9.78,6.14,2.06,4.6,4.12-3.07,3.09l-4.6-4.12c13,0,26.85,0,36.82,6.17l8.44-.51c3.84,1.54,3.07,3.09,3.07,5.15l8.44,1C1604,677.67,1597.14,674.58,1589.47,671.49Z"/>
    <path d="M1442.18,652.46h6.9c-9.21-1.54-18.41-2.06-27.62-3.6C1425.3,653.48,1433.74,653,1442.18,652.46Z"/>
  </g>
  <g>
    <g opacity="0.85">
      <path d="M106.49,234.48h0C106.16,235.07,106.61,234.94,106.49,234.48Z"/>
      <path d="M104,238.11s.21-1-.25-.91-.79.71-1.37.38a.66.66,0,0,1-.26-.9h0S100,237.76,101,238a3.55,3.55,0,0,0,2.41-.17c1,.21,1.83-.5,2.29-.63a.46.46,0,0,1,.57.31v0l-.71-.79C105.74,237.15,104.62,238.44,104,238.11Z"/>
      <path d="M110,236.47h0a1.33,1.33,0,0,0-1.62-.54l.13.46a.46.46,0,0,0,.34-.56v0c.13.46.71.79,1.29,1.12Z"/>
      <path d="M102.58,234.57c-1-.21-2.21-.87-3.25-1.08,0,0-.33.58-.46.13l-.13-.46-.46.13h0l.13.46.13.46-.13-.46-.13-.46-.46.13.46-.13.46-.13-1-.21h0c-.46.13-.46.13-.58-.33h0l-.58-.33-.91.25-.13-.46-.33.58.25.91c.13.46.79-.71.58.33.21-1-.33.58-.58-.33l-.25-.91c-.13-.46-.58-.33-.71-.79s.58.33.71.79a.46.46,0,0,0,.34-.56v0l.13.46.91-.25L95,231.75c-3.37-1.53-6.62-2.61-10-4.14l-5.25-3c-3.5-2-6.95-2-10.37-5.51-1.29-1.12-3.83-1.41-5.45-1.95-2.16,1.09-2.73,6.16-2.73,6.16.09,3.91,1.54,2,3.34,5-1-1.7,1.91-2,2.66.74,1.26,4.57,5,2.07,7.45,3.85a6.55,6.55,0,0,0,2.21.87c3.62,2.45,7.86,1.77,12.28,3.51a9.25,9.25,0,0,0,3.78-.55c.46-.13,1.17.66,1.75,1a5.16,5.16,0,0,0,2.41-.17,4.28,4.28,0,0,0-2.41.17c-.91.25.66-1.17,1.12-1.29s.25.91.25.91l1.37-.38c.46-.13-.21,1,.25.91s1.58-1.42,1.7-1l.71.79a.46.46,0,0,0,.56.34h0l.46-.13a1.66,1.66,0,0,1,.21-1,.46.46,0,0,0,.56.34h0c.46-.13-.13-.46-.58-.33.13.46-.33.58-.21,1l2.74-.75h0c-.83-1.25-1.42-1.58-1.21-2.62a1.47,1.47,0,0,0-.21,1l-.13-.46c.46-.13.91-.25,1.17.66l.46-.13a1.47,1.47,0,0,1-.21,1l.46-.13C103.41,235.82,103.16,234.91,102.58,234.57Z"/>
      <path d="M97.84,233.42h0l-.58-.33C97.38,233.54,97.38,233.54,97.84,233.42Z"/>
    </g>
    <g opacity="0.85">
      <path d="M151.45,188.69l-.13-.46Z"/>
      <path d="M147.46,190.28s.79-.71.33-.58-1-.21-1.62-.54.21-1,.21-1c-.46.13-2.41.17-1.83.5l2.33,1.33a10.37,10.37,0,0,0,2.66.74l.13.46-.25-.91C149.29,189.78,148,190.61,147.46,190.28Z"/>
      <path d="M154.29,191.85h0c-.25-.91-.71-.79-1.29-1.12l-.33.58.46-.13c-.33.58-.21,1,.5,1.83C153.62,193,153.83,192,154.29,191.85Z"/>
      <path d="M147.83,186.24a11.89,11.89,0,0,0-2.71-2.7l-.46.13-.13-.46-.13-.46h0l-.46.13-.33.58.33-.58-.13-.46a.46.46,0,0,0-.56-.34h0a.46.46,0,0,1,.57.31v0l.46-.13h0l-.71-.79h0c-.46.13-.58-.33-.25-.91h0l-.71-.79-.91.25.33-.58-.46.13-.21,1c-.33.58.91-.25.58.33.79-.71-.91.25-.58-.33l.21-1c-.46.13-.58-.33-.25-.91s.58.33.25.91l.46-.13-.33.58.91-.25-1-1.7c-2.38-3.28-5-5.52-7.34-8.8a30.68,30.68,0,0,1-3.46-5.44c-2-3.86-5.42-5.4-6.34-10.55a16,16,0,0,0-4.25-4.73c-2.54-.29-5.32,3.92-5.32,3.92-2,3.5.3,2.87.26,6.32-.17-2.41,2.74-.75,2.13,2.37-1.16,4.74,3.34,5,4.55,7.6.71.79.83,1.25,1.54,2,2.17,4.32,6.58,6.06,9.54,9.67.71.79,2.21.87,3.37,1.53,1,.21.83,1.25,1.54,2a7.15,7.15,0,0,0,2.33,1.33,7.16,7.16,0,0,1-2.33-1.33c-.71-.79,1.37-.38,1.83-.5s-.21,1-.21,1a6.82,6.82,0,0,1,1.62.54c.58.33-.33.58-.33.58s1.83-.5,2,0l.25.91.13.46.46-.13c.33-.58.33-.58.79-.71l.13.46-.13-.46c-.46.13-.33.58-.79.71l3.12.62h0c-.58-.33-.71-.79-.5-1.83.13.46-.33.58-.46.13l.33-.58c1.17.66,1.62.54,1.75,1h0c.13.46-.33.58-.21,1h0C147.5,186.83,148,186.7,147.83,186.24Z"/>
      <path d="M144.29,182.3h0l-.71-.79C143.83,182.42,143.83,182.42,144.29,182.3Z"/>
    </g>
    <g opacity="0.85">
      <path d="M215.62,157.3l-.13-.46L215,157a.46.46,0,0,0,.57.32Z"/>
      <path d="M211,156.6l.46-.13c-.46.13-.71-.79-.83-1.25s.79-.71.79-.71-1.87-1.45-1.62-.54c-.21,1,.5,1.83,1.21,2.62a3.6,3.6,0,0,0,1.42,1.58l.13.46.21-1C213.2,157.47,211.25,157.51,211,156.6Z"/>
      <path d="M215.71,161.21h0c.33-.58-.25-.91-.38-1.37l-.46.13c.13.46.58.33.46-.13a2.56,2.56,0,0,0-.54,1.62C214.91,161.91,215.37,161.79,215.71,161.21Z"/>
      <path d="M213.7,153.89a7,7,0,0,1-.42-3.33.46.46,0,0,1-.57-.31v0l.46-.13-.13-.46h0l-.46.13-.46.13.46-.13.46-.13-.13-.46.13.46.13.46h0l-.25-.91h0c-.13-.46-.13-.46.33-.58h0l-.25-.91-.58-.33.46-.13a.46.46,0,0,1-.57-.31v0l-.79.71c-.46.13,1,.21.13.46.91-.25-.58-.33-.13-.46l.79-.71c-.13-.46-.13-.46.21-1s.13.46-.21,1l.58.33-.46.13.58.33v-2c-.09-3.91-1-7.11-1.06-11a30.67,30.67,0,0,1,.2-6.45c.37-4-1.55-7.44.19-11.85a12,12,0,0,0-.59-5.74c-1.87-1.45-6.32.26-6.78.39-3.41,1.92-1.33,2.33-3,5.25,1-1.75,2.66.74.3,2.87-3.61,3,.14,5.86-.15,8.4.25.91-.08,1.5.17,2.41-.7,4.62,1.8,8.36,2.6,13.06a4.31,4.31,0,0,0,2.25,2.82c.25.91-.08,1.5,0,2a6,6,0,0,0,1.21,2.62c-.25-.91-.83-1.25-1.09-2.16s1.5.08,1.62.54c.58.33-.79.71-.79.71.46-.13.71.79.83,1.25.58.33-.91.25-.91.25s1.62.54,1.75,1l-.21,1,.13.46h0l2.29-.63-.33.58.33-.58-.91.25,2.13,2.37h0a1.33,1.33,0,0,1,.54-1.62l-.46.13.46-.13c.58.33.71.79-.08,1.5l.58.33-.91.25.13.46A2.79,2.79,0,0,1,213.7,153.89Z"/>
      <path d="M212.77,148.74h0l-.25-.91C212.19,148.4,212.65,148.28,212.77,148.74Z"/>
    </g>
    <g opacity="0.85">
      <path d="M277.94,165.75s1,.21.46-.13l-.38-1.37c-.13-.46.91-.25.91-.25s-1.09-2.16-1-1.7-.54,1.62-.29,2.54a6,6,0,0,1,.3,2.87l-.33.58.79-.71C278.9,167.46,278.06,166.21,277.94,165.75Z"/>
      <path d="M278.78,172.41h0a1.33,1.33,0,0,0,.54-1.62l-.46.13a.46.46,0,0,0,.56.34h0c-.46.13-1.25.83-1.12,1.29Z"/>
      <path d="M282,164.62c.66-1.17.87-2.21,1.53-3.37l-.13-.46.46-.13.33-.58h0l-.58-.33-.46.13.46-.13.46-.13a.46.46,0,0,1,.31-.57h0a.46.46,0,0,1-.31.57h0l.13.46.66-1.17-.13-.46c-.13-.46-.13-.46.33-.58h0l.33-.58-.25-.91.46-.13-.13-.46-.91.25c-.46.13.71.79-.33.58,1,.21-.25-.91.33-.58l.91-.25c-.13-.46.33-.58.79-.71s-.33.58-.79.71l.13.46-.46.13.25.91,1-1.75c2-3.5,3.52-6.87,5.51-10.37a50.4,50.4,0,0,1,3.9-5.5c3-3.29,3.4-7.33,7-10.29,1.7-1,2.32-4.08,2.86-5.7-.75-2.74-5.37-3.44-6-3.77-4-.37-2.62,1.21-5.57,3,1.7-1,1.67,2.49-1.2,2.79-4.7.8-3,5.25-5.35,7.37l-1.33,2.33c-2.9,3.75-3.15,8.24-5.34,12.78a8.93,8.93,0,0,0,.09,3.91c-.21,1-1.12,1.29-1.45,1.87a6.74,6.74,0,0,0-.16,3c.21-1,.08-1.5.29-2.54s1.29,1.12,1,1.7c.13.46-.91.25-.91.25l.38,1.37c.13.46-1-.21-.46.13.13.46,1,1.7.5,1.83l-.79.71a.46.46,0,0,0-.34.56v0l.13.46c.46-.13.58.33,1,.21l-.46.13.46-.13c-.46.13-.58-.33-1-.21a9.26,9.26,0,0,1,.42,3.33h0c.33-.58.66-1.17,1.12-1.29-.46.13-.46.13-.58-.33l.46-.13c.13.46.25.91-.66,1.17l.13.46a.46.46,0,0,1-.57-.31v0l.13.46A4.27,4.27,0,0,0,282,164.62Z"/>
      <path d="M284.12,159.63h0l.79-.71C283.87,158.71,284,159.17,284.12,159.63Z"/>
    </g>
    <g opacity="0.85">
      <path d="M344.2,190.34h0C343.74,190.47,343.87,190.92,344.2,190.34Z"/>
      <path d="M341,187.77s.71.79.58.33a.75.75,0,1,1,1.25-.83c-.13-.46,0-2-.5-1.83l-1,1.75c-.33.58-.08,1.5-.41,2.08l-.46.13.91-.25Z"/>
      <path d="M340.13,193.43h0a1.66,1.66,0,0,0,.79-.71l-.58-.33.13.46a.89.89,0,0,0-1.37.38A1.47,1.47,0,0,1,340.13,193.43Z"/>
      <path d="M344.74,188.72a6.74,6.74,0,0,1,2.49-1.67l-.13-.46.58.33.46-.13h0l-.13-.46-.58-.33.58.33.46-.13.46-.13-.46.13h0l.91-.25h0s.33-.58.46-.13h0l.46-.13-.25-.91.58.33-.13-.46-.58-.33c-.58-.33.25.91-.33.58.71.79-.13-.46.33-.58l.58.33c-.13-.46.46-.13.91-.25l-.91.25.13.46-.58-.33.25.91,1.25-.83c3.08-1.34,5-3.34,7.48-5,1.7-1,3.08-1.34,4.78-2.3,3.2-.88,4.73-4.25,8.77-3.88,1.5.08,3-1.79,4.07-3.09.29-2.54-3.46-5.44-3.46-5.44-3.17-2.57-2.54-.29-5.66-.9,2,0,.75,2.74-2,1.54-4-1.86-4.32,2.17-6.61,2.8-.46.13-.79.71-1.7,1-3.66,1-5.07,4.83-8.47,6.75-.79.71-.87,2.21-1.2,2.79s-1.37.38-1.7,1-1.12,1.29-1,1.75l1-1.75c.33-.58.38,1.37.5,1.83s-1-.21-1-.21c.13.46-.33.58-.21,1s-.58-.33-.58-.33.5,1.83,0,2l-.91.25-.46.13.13.46c.13.46.58.33.71.79h0l.46-.13c-.13-.46-.58-.33-.71-.79-.21,1-.54,1.62-.74,2.66h0c.33-.58.33-.58,1.37-.38-.46.13-.58-.33-.13-.46l.58.33c.13.46-.21,1-.79.71l.71.79a1,1,0,0,1-1.17-.66h0C344.15,188.39,344.28,188.84,344.74,188.72Z"/>
      <path d="M348,186.34h0l.91-.25C347.89,185.88,347.89,185.88,348,186.34Z"/>
    </g>
  </g>
  <path d="M142,401.78q11,.46,41.36-.46V373.75q0-7.81.92-27.11t3.22-31q2.29-11.72,6-27.57a117.85,117.85,0,0,1,10.34-28.49,121.54,121.54,0,0,1,15.85-23.21q17.92-21.13,46-23.44a81.16,81.16,0,0,1,40,6.2,83.3,83.3,0,0,1,31,23.21A192.23,192.23,0,0,1,358,273.58a185.76,185.76,0,0,1,14.25,34q2.29,7.82-4.6,11a10.22,10.22,0,0,1-4.14,6A193.87,193.87,0,0,1,346,334.23q-12,6-15.62,8.27a8.54,8.54,0,0,1-6.2,3.68,9.1,9.1,0,0,1-6.89-1.84,9,9,0,0,1-3.45-6.43q-1.38-11.48-9.65-27.57t-18.84-26.19q-10.11-9.65-17.46-8.73-8.73,1.38-16.08,18.84-7.36,17.92-8.5,46.41a422.19,422.19,0,0,0,.69,51q4.14-.92,11-3.22,14.7-4.59,21.14-6.43a5,5,0,0,1,2.76-.92A9.72,9.72,0,0,1,286,382a7,7,0,0,1,3.91,5.51q6.89,28.95,12,42.74a8,8,0,0,1,.46,4.59,8.87,8.87,0,0,1-.23,7.12,9.16,9.16,0,0,1-5.28,4.83q-15.16,5.51-50.55,16.08-9.2,123.16,5.51,171.86a7.69,7.69,0,0,1,.46,2.3q3.21,6.43-2.3,11a51.1,51.1,0,0,1-12.41,7.58A78.19,78.19,0,0,1,226,659.77q-4.6,1.14-13.1,3t-10.8,2.3Q195.26,666.45,192,660a9.75,9.75,0,0,1-5.05-6.89,738.45,738.45,0,0,1-7.35-183.81,223.74,223.74,0,0,1-23.9-.46q-15.58-.85-16-.85-5.51,0-7.81-5.51-6-2.76-5.51-8.73.45-3.67,1.84-19.76a162.08,162.08,0,0,0,1.38-18.38,8.7,8.7,0,0,1,3.22-6.89Q134.64,401.33,142,401.78Zm9.19,18.84H148q-.46,6-1.38,15.16,0,.46-.69,5.74a67.43,67.43,0,0,0-.69,8,16.92,16.92,0,0,0,4.14.46Q151.18,423.84,151.19,420.62Zm8.27,0h-3.68q0,3.68-1.84,29.41l3.68.46Q160.38,443.15,159.46,420.62Zm10.57-.46h-6q.92,22.52-1.38,30.79H171a2,2,0,0,1-2.3-2.3q.87-18.37,1.3-28.49ZM171,451h4.14q.45-3.67.92-14.47t.46-16.31h-1.84q-.46,10.58-1.38,28.49A2,2,0,0,1,171,451Zm16-31.3h-6q0,6-.46,16.77T179.68,451l5.51-.92h.46c0-1.84.07-4.44.23-7.81s.23-5.21.23-5.51A131,131,0,0,1,187,419.7Zm4.6-.46a135.5,135.5,0,0,0-.92,17.46c0,.92-.08,2.38-.23,4.37s-.23,3.75-.23,5.28V451a1.9,1.9,0,0,1,1.38.46q.48-25.32,0-32.21Zm3.68,102.47q5.51,0,16.54-.92,8.27-.45,12.87-.92a87.13,87.13,0,0,1,.46-8.73q-19.76-.45-29.41,1.38a91.74,91.74,0,0,0-.43,9.2Zm0,12h28.95a91.75,91.75,0,0,1,.46-9.19q-4.14.46-12.41.92-11,.93-17,.92Zm0,11q11-1.83,28.95-1.84v-4.59H195.31Zm4.14-82.25q0-1.83.92-24.58t-.46-24.12a10.14,10.14,0,0,1-4.14,3.22,85,85,0,0,1,.92,12.87q0,6.89-.23,15.62t-.23,12.41a8.28,8.28,0,0,1,2.3,4.59Zm-3.68,45.49q10.1-1.83,29.41-1.38.45-4.59.46-9.65-2.3,0-15.16.92a140.42,140.42,0,0,1-14.25.92,91.75,91.75,0,0,0-.43,9.22Zm0,51a156,156,0,0,1,28.49-4.14v-7.35q-18.38,0-28.49,1.84Zm.46-64.79a140.19,140.19,0,0,0,14.25-.92q12.86-.92,15.62-.92l.46-6.89q-19.76,0-29.87.46a76.12,76.12,0,0,1-.43,8.31Zm.46,78.12q16.54-2.76,28-5a62.61,62.61,0,0,1-.46-7.81,139.88,139.88,0,0,0-28,4.14,87.17,87.17,0,0,0,.48,8.76Zm.46,10.57a131.42,131.42,0,0,1,18.41-1.8q2.76-.46,9.65-.92a74.19,74.19,0,0,1-.46-8.27q-11,2.31-28,5a36.88,36.88,0,0,1,.42,6Zm0-101.55q9.65-.45,29.41-.46l.92-8.27Q216,473.93,210,475.31A54.33,54.33,0,0,0,197.14,479Zm.46-7.35a87.68,87.68,0,0,1,11.49-3.22l18.4-2.68.46-4.6L198.06,467a56.59,56.59,0,0,1-.46,6.93ZM198,591.54q6.89-.93,27.57-4.14l-.46-2.76q-6.44.45-9.19.46-11,.92-18.38,2.3Zm.92,10.57q6.43-1.84,27.57-4.6a33.24,33.24,0,0,1-.46-5.51q-20.68,3.21-28,4.14Zm1.38,13.33q13.32-2.31,27.57-6l-.92-7.35q-21.6,2.76-27.57,4.59.47,4.19.94,8.78Zm.92,7.81q5.05-1.38,18.38-3.68,5.51-1.38,9.65-2.3l-.92-3.22q-14.25,3.67-27.57,6Zm.46-254.12a233.51,233.51,0,0,0,23.44.92V368.7q-15.61-.45-23.42.46Zm0,4.59v6.43h23.44v-5.51a233.17,233.17,0,0,1-23.42-.89Zm0,17h23.9v-6h-23.9Zm0,4.59v1.84q5.05.46,11.49.46,1.83,0,12.41-.46v-1.84Zm23,9.65h.46v-3.22q-10.11.46-11.95.46-6.44,0-11.49-.46v6.43a153.12,153.12,0,0,1,21.6-3.22h1.38Zm-22.06,228q8.72-.93,28-7.35l-.92-3.68q-3.68.92-9.65,1.84-13.33,2.76-18.38,4.14Zm-.46-268.36q7.34-.92,22.52-.46v-9.65Q204.49,354,202.2,354Zm.46-19.3v4.14q2.29,0,22.06.46v-3.68A209.84,209.84,0,0,0,202.66,345.26Zm.46-4.59a218.18,218.18,0,0,1,22.06.92v-.46a46.48,46.48,0,0,1-7.81-.92q-9.2-.92-14.25-.92Zm.46,298.69q20.22-2.76,29.41-4.6a25.55,25.55,0,0,1-1.38-4.6q-18.85,6-28.49,7.35Zm0-304.67a103.09,103.09,0,0,1,14.25,1.38q5.05.46,7.35.46a78.65,78.65,0,0,1,.46-8.73A155.66,155.66,0,0,1,205,324.12a89.65,89.65,0,0,0-1.42,10.57ZM210.93,411a46.07,46.07,0,0,0-6.89,1.38,146.3,146.3,0,0,1,1.38,16.54q0,5.51-.69,16.54T204,461.52l6.43-.46Q210.47,418.79,210.93,411ZM204,644l.46,1.84q17-3.68,20.68-4.59Q218.74,642.11,204,644Zm2.76-333.16a72.55,72.55,0,0,0-1.38,8.73,155.65,155.65,0,0,0,20.68,3.68,21.67,21.67,0,0,0,.46-4.14q-5.52-2.8-19.73-8.31Zm1.38-7.81q8.72,2.76,20.22,5.51,1.38-5.52,2.76-10.11l-9.65-4.14a73.12,73.12,0,0,0-10.11-3.68q-1.81,5.95-3.19,12.39Zm4.6-17q3.67,1.38,10.34,4.14t9.42,3.68a54.07,54.07,0,0,1,2.3-6.43q-1.38-1.38-8.27-7.35a65.74,65.74,0,0,0-8.73-6.89,124.72,124.72,0,0,0-5,12.82ZM222,410a46,46,0,0,0-6.43.46q-.46,8.73-.46,50.09,7.81-.92,13.33-1.84v-1.84a7.9,7.9,0,0,1,1.84-5q0-21.13.92-39.52a8.3,8.3,0,0,1-3.68-2.76h-.92q0,7.35-.46,23t-.46,23.9a2.3,2.3,0,0,1-4.6,0q0-8.27.46-23.67T222,410Zm-2.34-141a116.91,116.91,0,0,1,10.11,7.81q5.51,5.06,6.89,6.43a41.37,41.37,0,0,1,4.14-7.35l-15.16-16.54A102,102,0,0,0,219.66,269Zm.92,42.28q3.67,1.38,6.89,2.76l.46-1.38a44,44,0,0,1-7.35-1.4Zm7.35-56.06,15.62,17a25.87,25.87,0,0,1,4.14-5.51,120.56,120.56,0,0,1-12.41-20.22l-1.84,1.84q-2.75,3.19-5.51,6.87Zm12.41,190.24q0-23-.46-33.55l-3.68.92h-.46q-.93,16.09-.92,34.46a18.74,18.74,0,0,1,2.3-.92ZM239,242.79a131.89,131.89,0,0,0,12.41,21.14,18.6,18.6,0,0,1,2.76-2.3,113.55,113.55,0,0,1-7.81-24.35A57.84,57.84,0,0,0,239,242.79Zm11.95,199.43a2.17,2.17,0,0,1-1.84-2.3q0-5.51-.46-15.62t-.46-14.7l-3.68.92q.45,11,.46,33.54Zm-.46-206.79a145.31,145.31,0,0,0,7.81,23.9,25.9,25.9,0,0,1,7.35-1.84h.46l-3.68-10.11q-3.22-9.65-4.59-14.71Zm6.43,204.95q-1.38-23-3.22-32.17h-.92q0,5.06.46,15.62t.46,16.08a2.64,2.64,0,0,1-.92,1.84Zm10.57-3.22a2.17,2.17,0,0,1-1.84-2.3V404.08l-5,1.84-2.76.92q1.83,9.65,3.68,32.17Zm-5.09-205.4q1.38,4.6,4.6,14.25l3.68,11a26,26,0,0,1,8.27,1.38q0-1.83-.23-6.2c-.16-2.91-.23-4.83-.23-5.74a109.86,109.86,0,0,0-2.3-15.62,80.24,80.24,0,0,0-8.73.46A26.24,26.24,0,0,0,262.4,231.76Zm12,203.11q0-6.43-.46-18.15t-.46-14.93l-2.76.92q-.46,8.27-.46,32.17a4.12,4.12,0,0,1-.46,1.84Zm4.59-1.38,4.14-1.38q-2.3-6.89-4.59-14.71Q278.93,427.52,278.94,433.49Zm1.84-202.19a57.23,57.23,0,0,1,2.3,14.71c0,.92.07,3.14.23,6.66s.23,6.2.23,8a64.71,64.71,0,0,1,6.43,3.22V233.14Zm13.78,3.7q.45,25.74-.46,32.17l2.3,2.3q4.6-23.47,6.89-30.82A44.16,44.16,0,0,0,294.56,235ZM307,241.41q-.93,4.14-6.43,31.71a62.67,62.67,0,0,1,6.89,8.27q6-19.75,6.43-35.38A34,34,0,0,0,307,241.41Zm11.49,8.27q-.93,16.09-7.35,36.3a52.09,52.09,0,0,1,4.14,6.89l4.6-14.25q4.14-13.79,4.6-22.52-3.27-3.2-6-6.42Zm10.11,11.49A125.29,125.29,0,0,1,324,280q-4.6,14.71-5.51,18.38,2.29,3.68,4.14,7.35,4.14-11.48,5.51-15.62a127.51,127.51,0,0,0,5-23q-2.33-3.18-4.62-5.94Zm8.27,12a89.33,89.33,0,0,1-4.6,18.38l-4.14,12.41q-2.76,7.82-2.76,8.27l.92,1.84q8.27-16.08,15.16-32.63Zm7.35,13.79q-7.36,16.54-16.08,33.09l.92,2.3,6.43-3.22q8.72-19.75,10.57-28.49Zm5,10.57a190.45,190.45,0,0,1-7.35,17.92,76.32,76.32,0,0,0,11.46-6.4q-1.84-6-4.13-11.53Z"/>
  <path d="M443.9,326.88a9.17,9.17,0,0,1,2.3,6q0,125-3.22,238a8.08,8.08,0,0,1-2.76,6.2,9.83,9.83,0,0,1-6.89,2.53H432q-4.6.45-9,1.15c-2.92.46-5,.76-6.43.92s-2.53.3-3.45.46a20.16,20.16,0,0,1-3.22.23H393.82a8.85,8.85,0,0,1-4.59-1.38q-6.44-1.38-6.89-7.81-2.76-28.95-3.22-59.28t1.61-62q2.07-31.71,4.6-57.67t6.66-60a10.79,10.79,0,0,1,2.3-5q1.38-6.89,8.27-6.89l32.63-.92Q441.6,321.37,443.9,326.88Zm-17-109.83q18.84,5.51,28,18.84t6.89,28.49a35.38,35.38,0,0,1-16.31,24.81q-13.56,8.73-32.86,3.22a46.09,46.09,0,0,1-24.35-17q-9.2-12.41-8.73-26.19.45-15.62,11.72-25.5t30.56-8.5A8,8,0,0,1,426.9,217.05Zm-.46,267,.46-11.49q-18.38,12.41-29.41,23v18.38q7.35-8.76,29-29.94ZM405.76,235.89q-6.89,3.68-7.81,11.95Q401.62,242.79,405.76,235.89ZM426.9,446.82q.45-6,.46-12a59.53,59.53,0,0,0-7.81,6q-4.14,3.68-6.89,6.43l-7.35,7.35q-4.6,4.6-6.43,6.89L398,474.85A297.44,297.44,0,0,1,426.9,446.82Zm0,20.22V453.25a350.11,350.11,0,0,0-29,28.49v7.35a331.05,331.05,0,0,1,29-22.09ZM426,506.1q.45-7.81.46-15.62-19.3,18.85-27.11,28.49a1.47,1.47,0,0,1-1.38.92v11.49A233.59,233.59,0,0,1,426,506.1ZM400.71,252l-2.3,2.76.46.46A29.27,29.27,0,0,1,400.71,252Zm24.81,274.34.46-14.25a189.32,189.32,0,0,0-27.57,25.73l.92,18.84q2.76-3.21,13.33-14.71a166.51,166.51,0,0,0,12.86-15.64Zm1.84-97v-14.7a238.54,238.54,0,0,0-27.57,24.81l-.92,15.16q19.3-19.73,28.49-25.26Zm-1.84,114.88V534.13l-9.65,11q-12.41,13.33-16.08,18.38V564h9.65a209.22,209.22,0,0,1,16.08-19.76ZM426,235.89c-1.23-.3-2.61-.61-4.14-.92q-2.3,2.76-9.19,9.65-8.73,9.65-11.49,16.08h-.46a23.62,23.62,0,0,1,1.38,2.3A170.09,170.09,0,0,1,426,235.89Zm1.38,173.24q0-6.43.46-13.33l-26.65,25.27q-.46,5.52-.46,11a173.21,173.21,0,0,1,26.63-22.93ZM401.63,250.6a85.74,85.74,0,0,1,7.81-8.73q6-6.43,7.81-8.27h-.46a17.26,17.26,0,0,0-4.14.46Q406.68,243.71,401.63,250.6Zm26.19,138.78V377q-6.44,6-24.81,24.81l-.92,12.41Zm0-18.84v-9.65q-2.76,3.22-6.43,6.89a77.62,77.62,0,0,1-5.51,6l-6.43,6a36.22,36.22,0,0,0-4.6,5.51l-.92,9.19Q419.54,378.35,427.82,370.54Zm7.81-128.67q-2.31-1.83-5-3.68-16.09,14.25-25.73,28.49a19.9,19.9,0,0,0,5.51,4.6,148.6,148.6,0,0,1,12.87-15.16Zm-7.81,111.66V340.67q-7.82,7.33-20.68,22l-1.38,14.71,12.41-12.87q6-6.43,9.65-11Zm-6-13.33-12,.46L408,354.45q7.84-8.72,13.82-14.24ZM443,252.9a27.49,27.49,0,0,0-4.14-7.81l-12,13.78L414,273.58a15.89,15.89,0,0,0,4.14,1.38q2.29.46,5,.92l8.27-10.57,9.19-11.49A3.12,3.12,0,0,1,443,252.9ZM425.06,551.59l-9.19,11.49,9.19-.92Zm18.38-294.1-8.27,10.57q-5.51,6.89-6.43,7.81,12.86-1.38,14.71-14.25a9.53,9.53,0,0,0,0-4.13Z"/>
  <path d="M1399.57,327.12a9.17,9.17,0,0,1,2.3,6q0,125-3.22,238a8.08,8.08,0,0,1-2.76,6.2,9.83,9.83,0,0,1-6.89,2.53h-1.33q-4.6.45-9,1.15c-2.92.46-5,.76-6.43.92s-2.53.3-3.45.46a20.16,20.16,0,0,1-3.22.23h-16.08a8.85,8.85,0,0,1-4.59-1.38q-6.44-1.38-6.89-7.81-2.76-28.95-3.22-59.28t1.61-62q2.07-31.71,4.6-57.67t6.66-60a10.79,10.79,0,0,1,2.3-5q1.38-6.89,8.27-6.89l32.63-.92Q1397.27,321.61,1399.57,327.12Zm-17-109.83q18.84,5.51,28,18.84t6.89,28.49a35.38,35.38,0,0,1-16.31,24.81q-13.56,8.73-32.86,3.22a46.09,46.09,0,0,1-24.35-17q-9.2-12.41-8.73-26.19.45-15.62,11.72-25.5t30.56-8.5A8,8,0,0,1,1382.57,217.29Zm-.46,267,.46-11.49q-18.38,12.41-29.41,23v18.38q7.35-8.76,29-29.94Zm-20.68-248.16q-6.89,3.68-7.81,11.95Q1357.29,243,1361.43,236.13Zm21.14,210.93q.45-6,.46-12a59.53,59.53,0,0,0-7.81,6q-4.14,3.68-6.89,6.43l-7.35,7.35q-4.6,4.6-6.43,6.89l-.88,13.31A297.44,297.44,0,0,1,1382.57,447.06Zm0,20.22V453.49a350.11,350.11,0,0,0-29,28.49v7.35a331.05,331.05,0,0,1,29-22.09Zm-.9,39.06q.45-7.81.46-15.62-19.3,18.85-27.11,28.49a1.47,1.47,0,0,1-1.38.92v11.49A233.59,233.59,0,0,1,1381.67,506.34Zm-25.29-254.1-2.3,2.76.46.46A29.27,29.27,0,0,1,1356.38,252.24Zm24.81,274.34.46-14.25a189.32,189.32,0,0,0-27.57,25.73l.92,18.84q2.76-3.21,13.33-14.71a166.51,166.51,0,0,0,12.86-15.64Zm1.84-97v-14.7a238.54,238.54,0,0,0-27.57,24.81l-.92,15.16q19.3-19.73,28.49-25.26Zm-1.84,114.88V534.37l-9.65,11q-12.41,13.33-16.08,18.38v.49h9.65a209.22,209.22,0,0,1,16.08-19.76Zm.48-308.33c-1.23-.3-2.61-.61-4.14-.92q-2.3,2.76-9.19,9.65-8.73,9.65-11.49,16.08h-.46a23.62,23.62,0,0,1,1.38,2.3A170.09,170.09,0,0,1,1381.67,236.13ZM1383,409.37q0-6.43.46-13.33l-26.65,25.27q-.46,5.52-.46,11A173.21,173.21,0,0,1,1383,409.38ZM1357.3,250.84a85.74,85.74,0,0,1,7.81-8.73q6-6.43,7.81-8.27h-.46a17.26,17.26,0,0,0-4.14.46Q1362.35,244,1357.3,250.84Zm26.19,138.78V377.24q-6.44,6-24.81,24.81l-.92,12.41Zm0-18.84v-9.65q-2.76,3.22-6.43,6.89a77.62,77.62,0,0,1-5.51,6l-6.43,6a36.22,36.22,0,0,0-4.6,5.51l-.92,9.19Q1375.21,378.59,1383.49,370.78Zm7.81-128.67q-2.31-1.83-5-3.68-16.09,14.25-25.73,28.49a19.9,19.9,0,0,0,5.51,4.6,148.6,148.6,0,0,1,12.87-15.16Zm-7.81,111.66V340.91q-7.82,7.33-20.68,22l-1.38,14.71,12.41-12.87q6-6.43,9.65-11Zm-6-13.33-12,.46-1.84,13.79q7.84-8.72,13.82-14.24Zm21.18-87.3a27.49,27.49,0,0,0-4.14-7.81l-12,13.78-12.9,14.71a15.89,15.89,0,0,0,4.14,1.38q2.29.46,5,.92l8.27-10.57,9.19-11.49A3.12,3.12,0,0,1,1398.67,253.14Zm-17.94,298.69-9.19,11.49,9.19-.92Zm18.38-294.1-8.27,10.57q-5.51,6.89-6.43,7.81,12.86-1.38,14.71-14.25a9.53,9.53,0,0,0,0-4.13Z"/>
  <path d="M477.9,291.5q31.24,0,40-.92a7.25,7.25,0,0,1,5,.92h1.38A10.1,10.1,0,0,1,531,294a7.84,7.84,0,0,1,3,6.2l.46,5.51q20.21-11.48,50.55-11.49,22.06,0,39.06,9.88a79.24,79.24,0,0,1,27.8,27.34,162.7,162.7,0,0,1,17,37.45,269.76,269.76,0,0,1,9.42,43.88q5,47.38,2.71,88.23t-9.19,71.69a8.36,8.36,0,0,1,1.38,6,9.47,9.47,0,0,1-3.45,6.2,8.38,8.38,0,0,1-6.66,2.07q-24.81-2.3-49.63-2.3a9.42,9.42,0,0,1-9.19-9.19,8.07,8.07,0,0,1,2.3-6q0-10.1.92-41.36t.92-49.63q0-61.57-7.81-86.39-6-17.92-19.3-23.9-13.33-5.52-25.73,6.89-26.66,26.66-21.14,95.58.92,12.87,4.14,36.3,3.21,23.9,4.82,42a167.45,167.45,0,0,1,.23,31.48,5.19,5.19,0,0,1-.46,2.3,10.16,10.16,0,0,1-1.61,7.12,9.59,9.59,0,0,1-5.74,3.91,241.43,241.43,0,0,1-41.36,3.68,8.88,8.88,0,0,1-6.2-2.3,9,9,0,0,1-3-5.51l-.92-2.76q-9.2-31.24-13.1-70.54t-3.91-67.09q0-27.8,1.38-73.75t1.4-66.5a8.6,8.6,0,0,1,.46-2.76,8.53,8.53,0,0,1-1.84-5.51,9.42,9.42,0,0,1,9.19-9.19Zm37.22,142q.45-3.67.92-6.89-6.44,1.38-17.46,2.76-9.2,1.38-12.87,1.84v7.35q5.05-.92,13.79-2.3Zm0,9.65v-5L500,440.84q-9.2,1.38-14.25,2.3v5.51a134.3,134.3,0,0,0,13.33-2.3,104.13,104.13,0,0,1,16-3.21Zm0,12v-7.35L500,450.49q-9.2,2.3-14.25,3.22a34,34,0,0,1,.46,5.51A86.65,86.65,0,0,0,500,457.85Zm2.76-50.55a78.26,78.26,0,0,0-16.08.92,50.87,50.87,0,0,0-7.58.92,50.52,50.52,0,0,1-8,.92v6q22.51-.45,31.25,0l.92-4.59a21.77,21.77,0,0,0-.51-4.18Zm-1.38,17a15,15,0,0,1,.46-3.68q-8.73-.45-30.79,0v8.73q3.21-.45,12-1.84a121.59,121.59,0,0,0,18.38-3.22Zm-.46,46a70.26,70.26,0,0,1-.46-7.81,45,45,0,0,1-4.83.69,41.94,41.94,0,0,0-5.51.92,22.67,22.67,0,0,1-4.82.69,67,67,0,0,1-14.25,1.84v4.6q5.05,0,14.93-.46t14.9-.52Zm.46,9.65a31.53,31.53,0,0,0-.46-5q-5.06,0-14.93.46t-14.93.46a34,34,0,0,1,.46,5.51q5.51,0,15.39-.46t14.47-1Zm0-90.53q-14.25-.92-29.87-.46v4.14q5.51-.45,15.62-.69T516.5,389Zm.92,12.87a36.12,36.12,0,0,1-.46-6h-.46q-4.6.46-14.7.69t-15.16.69v7.81a41.92,41.92,0,0,0,7.12-.92,43.38,43.38,0,0,1,7.58-.92,117.41,117.41,0,0,1,16.08-1.4Zm.92,91.91q-.93-5.05-1.38-9.65-4.6.46-14.71.92t-15.62.46l.92,9.19q12.86-1,30.79-1ZM517,373.75a311.7,311.7,0,0,1,3.22-33.54Q511.44,343.43,488,343v5.51q8.27-1.38,28-2.76a2.3,2.3,0,0,1,.3,4.59H516q-20.23,1.38-28,3.22l-.46,6.89q4.14.46,27.57.46a2.3,2.3,0,0,1,0,4.6q-23.44,0-27.57-.46l-.46,8.73Zm-.5,8.25v-3.68H487.09v3.22Q502.71,381.11,516.5,382Zm3.22,123.15L518.8,496q-17.92,0-31.25.92.45,4.14.92,8.73,9.19-.93,31.25-.47Zm.92-170,.92-6.43a18.07,18.07,0,0,1-2.76-2.3q-17,3.68-30.33,1.84,0,5.06-.46,10.11,24.82.46,32.63-3.22Zm-4.6-21.6v-4.14q-9.65.46-27.57.46v5.06A113.46,113.46,0,0,0,516,313.55Zm0,4.59a115.12,115.12,0,0,1-27.57,1.38v4.14q12.41,1.84,28-1.38A5.08,5.08,0,0,1,516,320v-1.84ZM521.56,518l-.92-7.81q-23-.92-31.71,0a45,45,0,0,0,.46,6.43A294.65,294.65,0,0,0,521.56,518Zm1.38,13.33L522,522.6a294.62,294.62,0,0,1-32.17-1.38q.92,5.06,1.38,10.11,9.18.5,31.71,0Zm1.38,12.41a72.08,72.08,0,0,0-.46-7.81q-23,.46-31.71,0a72.24,72.24,0,0,0,1.38,8.73q6,0,17.69-.46t13.09-.42ZM525.69,558l-.92-9.65q-2.3,0-13.33.46t-17.46.46q.92,4.14,1.84,8.73Q505.93,558.49,525.69,558Zm0,4.59h-29l1.84,6.43q23-.92,27.11-1.38Zm0,9.65q-5.06.46-26.19,1.38l1.38,5.51a227,227,0,0,0,24.35-2.3,23.73,23.73,0,0,0,.46-4.56ZM521.1,377.89q0,10.11.46,19.3a83.48,83.48,0,0,1,8.27-18.38h-.46a2,2,0,0,1-2.3-2.3q0-6,.92-22.29a249.69,249.69,0,0,0,.46-25,1.3,1.3,0,0,1-.92-.46,3.54,3.54,0,0,1-1.38.46q-4.14,28-4.6,45a1.86,1.86,0,0,1,.92,1.84A1.8,1.8,0,0,1,521.1,377.89ZM533,328.26q.45,9.2-.46,26.19t-.92,21.14a62.63,62.63,0,0,1,4.14-5.51v-43.2l-.92.46A2.64,2.64,0,0,1,533,328.26Zm15.16-8.73a38.8,38.8,0,0,0-7.81,4.14v40.9l2.3-2.3a55.66,55.66,0,0,1,4.59-4.14q0-4.14.69-13.33t.69-12.87q0-3.67-.41-12.4Zm9.19-3.68a26.4,26.4,0,0,0-4.6,1.38q.92,8.27-.46,37.22l4.6-2.76q0-3.21.23-9.65t.23-9.19Zm12.41-2.3q-4.14.46-7.81.92.45,7.82,0,18.84,0,2.76-.23,8.27t-.23,8.27a55.34,55.34,0,0,1,6-1.38,240.82,240.82,0,0,1,2.32-34.92Zm14.25-.92a90,90,0,0,0-9.65.46A240.75,240.75,0,0,0,572.1,348a15.38,15.38,0,0,1,3.68.46q.92-5,4.14-17.46A143.11,143.11,0,0,0,584,312.64Zm17,2.3a55.94,55.94,0,0,0-12.41-2.3,144.93,144.93,0,0,1-4.14,19.76q-3.22,12-4.14,16.54a84.5,84.5,0,0,1,8.27,2.3l.46.46a199.31,199.31,0,0,1,6.43-19.76q4.2-11.93,5.57-17Zm18.84,8.73a70.27,70.27,0,0,0-14.25-7.35q-1.38,5.06-6,17a158.12,158.12,0,0,0-6,20.68,23.6,23.6,0,0,1,2.3,1.38q5.61-6,24-31.71Zm11,10.57a84.52,84.52,0,0,0-7.35-7.35q-17.92,24.81-23.9,31.25l.92.92q17.07-14.7,30.4-24.82Zm9.65,14.25a70.77,70.77,0,0,0-6.89-10.57q-13.26,10.09-29.8,24.35l2.76,2.76a219.66,219.66,0,0,1,34-16.54Zm6.89,14.25a114,114,0,0,0-5-10.57,238.66,238.66,0,0,0-33.09,16.54,42.28,42.28,0,0,1,4.14,7.35q7-1.38,34.08-13.33ZM653,380.19a128.41,128.41,0,0,0-4.14-12.87q-26.19,11.49-33.09,12.87a55.39,55.39,0,0,1,2.3,6.43l.46,1.38Q641.49,380.65,653,380.19Zm3.68,14.25a90.29,90.29,0,0,0-2.3-9.65q-11.49.46-34.46,7.81A45.57,45.57,0,0,1,621.3,400q5.05-1.38,17-1.84t17.46-3.22a1.33,1.33,0,0,1,.9-.46Zm2.76,14.25L657.58,399q-6.44,3.22-18.84,3.68-12,0-16.54,1.84a60,60,0,0,1,1.38,7.81Q630,411.88,647,410q7.33-.89,12.39-1.35Zm.46,4.59q-4.6.46-12.41,1.38-17,1.84-23.44,2.3l.92,9.65q30.33,0,36.76-.46-.93-5.52-1.38-11Zm-3.22,142-31.25-5a42.1,42.1,0,0,0-.46,6h15.62q14.24,0,15.62.92Zm-1.38,6q-1.84-.45-14.7-.46H625v5.51q14.7.46,29,1.38a34,34,0,0,0,1.28-6.47Zm7.35-125a33.25,33.25,0,0,1-.46-5.51q-7.36.46-36.76.46a30.65,30.65,0,0,0,.46,5q1.38,0,23.9-.46,7.32,0,12.84.43ZM659,539.18q-2.31-.45-17.46-1.84-9.65-.45-15.62-2.76l-.46,11,31.71,5Zm4.14-94.2a17.35,17.35,0,0,0-.46-4.14q-5.51-.45-12.87-.46-22.52.46-23.9.46a76,76,0,0,1,.46,8.27Q647,445.9,663.09,445Zm-1.84,76.74q-15.63,0-35.38-1.38V530q6,2.3,16.08,2.76,15.16,1.38,17.92,1.84.41-6.44,1.33-12.88Zm2.3-60.2q0-6-.46-12-16.09.93-36.76,4.14v3.68q6,.93,19.3,1.84,11.43,1.37,17.87,2.29Zm0,27.11H626.79q0,5.06-.46,10.57,2.29,0,14.93.46t19.07.92a2,2,0,0,1,2.3,2.3Zm-.92,14.71a2.17,2.17,0,0,1-2.3,1.84q-6.89-.45-19.3-.92t-14.7-.46v12q19.75,1.38,35.38,1.38Zm.92-37.22q-6.44-.92-18.38-2.3-12.87-.92-18.38-1.84v7.81q11,1.38,36.76,1.38Zm0,17.92v-8.27q-25.74,0-36.76-1.38V484Z"/>
  <path d="M832.19,569.51q.92-10.56.92-11.49-32.63,13.33-46,15.16-25.28,3.21-46.64-4.37t-34.69-23a113,113,0,0,1-20.68-35.38,101.53,101.53,0,0,1-5.74-42.74,112.88,112.88,0,0,1,11.72-43q21.13-42.27,59-59.74t85.24-12.87q0-13.79.92-57,1.38-41.81-1.84-65.71V229a8.72,8.72,0,0,1-3.68-7.35,9.42,9.42,0,0,1,9.19-9.19A324.17,324.17,0,0,1,901.58,218a9.88,9.88,0,0,1,5.28,3.68,9.76,9.76,0,0,1,2.07,6,8.87,8.87,0,0,1,.92,5.51q-1.84,11.49-3,23.44t-1.38,25.73q-.24,13.79-.46,23t0,26.42q.23,17.23.23,24.13,0,35.39.46,105.92t.46,105.92a9.12,9.12,0,0,1-.92,4.14v.92a9.42,9.42,0,0,1-9.19,9.19H848.27a8.08,8.08,0,0,1-6-2.3h-1.84a9.82,9.82,0,0,1-6.2-3.22A8.34,8.34,0,0,1,832.19,569.51ZM730.18,468q-11.49-1.38-32.17-1.38-.46,5.52-.46,11l6.89-1.38a31.62,31.62,0,0,1,6-.92Q725.12,472.55,730.18,468Zm1.84,4.6q-6,4.6-20.68,6.89l-6.89,1.38-6.89,1.38a75.16,75.16,0,0,0,1.38,8.27q5-1.83,13.79-4.14,15.16-4.14,19.3-5.51a37.06,37.06,0,0,1,0-8.32Zm1.38-8.73q.45-1.83.92-4.14A85.47,85.47,0,0,0,716.85,456q-1.38-.45-12.87-1.38a21.75,21.75,0,0,0-4.14-.46,57.74,57.74,0,0,0-1.38,7.81q22.07,0,34.93,1.85Zm-.46,25.27a14.92,14.92,0,0,1-.46-3.68q-5.06,1.84-18.84,5.51a116,116,0,0,0-13.79,4.14,49.45,49.45,0,0,0,2.76,9.65,150.24,150.24,0,0,0,15.16-6.89q10.1-4.63,15.16-8.78Zm2.76-33.54,1.84-5.51a67.73,67.73,0,0,0-6.43-2.76l-7.35-2.76-6-2.76a97.93,97.93,0,0,0-12.41-4.14q-2.3,6-4.14,12a13.81,13.81,0,0,1,3.22.46q11.94.93,13.33,1.38a81.7,81.7,0,0,1,17.93,4.09Zm-.47,40.4a16.78,16.78,0,0,1-.92-2.3,83.79,83.79,0,0,1-14.24,8.3q-6.44,3.22-16.08,6.89a51,51,0,0,0,4.14,8.27q1.38-1.38,14.7-11A96.41,96.41,0,0,0,735.23,496Zm4.6-50.55,1.84-3.68L729.26,431.2,715,419.7a112.59,112.59,0,0,0-7.34,13.3q5,1.84,12,4.59l7.81,3.22q8.27,3.25,12.41,4.63ZM741.2,507a32.55,32.55,0,0,1-4.14-6.43,110.31,110.31,0,0,1-11.49,9.65l-15.16,11a59.67,59.67,0,0,0,8.73,11l11.49-12.41Q737.07,512.54,741.2,507Zm2.8-69.37a46.73,46.73,0,0,0,2.76-4.14q-17.47-17-23.44-24.35-2.76,3.22-5.51,6.89,4.59,4.14,13.79,11.49T744,437.63Zm4.59,76.74a47.39,47.39,0,0,1-4.14-3.68l-10.6,12.41L722.36,536a53.35,53.35,0,0,0,9.19,7.35q1.83-3.21,5.51-8.73t4.14-6.43a77.67,77.67,0,0,0,7.36-13.82Zm.92-84.55a49.54,49.54,0,0,1,3.68-4.14q-16.54-15.16-23.44-23.9L726,405.46q6.47,7.35,23.48,24.35Zm6.89-7.35a58.66,58.66,0,0,1,7.81-7.35q-12-7.34-23.44-23l-7.35,6.43q6.4,8.29,22.95,23.91ZM754.53,518l-1.84-.92a122.28,122.28,0,0,1-7.35,13.33l-4.59,6.89a94.47,94.47,0,0,0-5.51,8.27,40.64,40.64,0,0,0,7.35,3.68A201.47,201.47,0,0,0,754.53,518Zm14.7-106.61a197.09,197.09,0,0,0-22.06-23.9l-2.76,1.84q11,15.16,22.52,22.06a5.65,5.65,0,0,1,.92,1.38ZM762.8,521.72a18.4,18.4,0,0,0-3.68-1.38,259.55,259.55,0,0,1-12.41,30.79,53.13,53.13,0,0,0,6.43,2.3V553Q761,534.13,762.8,521.72Zm69.39-32.63q0-11.94.46-37.45t.46-38.83Q796.8,411,774.52,430.5T750.4,473.93q-1.84,22.06,14.7,29,22.51,9.2,65.25-13.33a4.12,4.12,0,0,1,1.84-.51Zm-58.82-80-17-26.65q-2.76,1.38-5.06,2.76a261.87,261.87,0,0,1,22.06,23.94Zm-.92,114.42q-2.76-.45-5-.92-1.84,12.87-9.65,31.71l7.35.92q.92-5,3.68-15.62t3.67-16Zm5-116.72,1.38-.92q-6.44-11.48-10.57-28.49-3.68,1.38-7.81,3.22ZM777,523.56a173,173,0,0,1-3.68,17.23q-2.76,10.8-3.68,14.93h7.81q1.38-18.37,2.76-32.17Zm6-119.94q4.14-1.83,8.27-3.22a211.77,211.77,0,0,1-12.41-26.19,34.52,34.52,0,0,0-6,1.38Q777,392.6,783,403.62Zm8.27,119a23.2,23.2,0,0,1-6.43.92q-1.38,13.79-2.76,31.71a5.1,5.1,0,0,0,2.3-.46,66.57,66.57,0,0,0,6.89-1.38Zm-1.38-135.56a80,80,0,0,1-4.6-14.71l-2.3.46a120,120,0,0,0,6.92,14.27Zm13.79,9.65a134.21,134.21,0,0,0-13.33-25.27h-.46q1.83,10.11,8.73,25.27v1.38a40.94,40.94,0,0,0,5.08-1.36Zm3.22-4.14-.9-6.87a88.61,88.61,0,0,1-1.84-16.08q-4.6.46-8.73.92a152.18,152.18,0,0,1,11.49,22ZM798.17,521.7a7.71,7.71,0,0,0-2.3.46v30.33q2.76-.92,6-2.3c-.31,0-.46-.3-.46-.92a136,136,0,0,1-3.22-27.55ZM808.3,519a35.12,35.12,0,0,1-5.51,1.38q.45,17,3.22,28v.46l6.43-2.3Q809.21,536,808.3,519ZM812,395.35h.92q0-18.37.46-26.19a23.25,23.25,0,0,1-4.59.46,80.1,80.1,0,0,0,1.84,15.17Q812,394.43,812,395.35Zm8.73,119a33.64,33.64,0,0,1-7.81,2.76q.92,17.47,3.68,27.57l6.89-2.76a173.33,173.33,0,0,1-2.79-27.55Zm-3.22-119.48a56.6,56.6,0,0,1,6.89-.46q.45-9.19.46-24.81a55.24,55.24,0,0,1-6.89-.46q-.49,7.86-.48,25.75ZM827.6,511.61l-2.3.92a173.34,173.34,0,0,0,2.76,27.57l2.76-.92Q828.51,522.19,827.6,511.61Zm6.89-117.18a137.83,137.83,0,0,1,.92-23.89,43.15,43.15,0,0,0-6-.46q0,15.16-.46,24.35ZM838.16,535q-.93-9.65-.92-26.65a5,5,0,0,1-1.38-.92l-3.68,1.84q.92,11.49,3.22,28h.92A2.17,2.17,0,0,1,838.16,535Zm2.3-163.59V371H840q-1.38,8.73-.92,23.9a3.67,3.67,0,0,1,1.38.46q.45-14.7.46-20.68a3.1,3.1,0,0,1-.92-2.3,1.33,1.33,0,0,1,.46-.93Zm2.3,150.26a236.39,236.39,0,0,0,44.57.46h.46v-8.27h-.92q-10.11-.92-45-.92v8.73Zm44.11,5a237.17,237.17,0,0,1-44.57-.46v8.27q35.84-5.46,44.57-7.76Zm-42.74,12a8.46,8.46,0,0,1,2.76,3.68,7,7,0,0,1,2.76,2.3q10.1.46,38.14-5v-8.27q-9.65,2.8-43.65,7.39ZM845,395.3q8.27,0,24.35.92,11.94.46,17.46.92v-6.43a348,348,0,0,0-41.82-2.3Zm.46-11.49a343.73,343.73,0,0,1,41.36,2.3v-6.43q-6.44-.92-18.38-1.84-17-1.38-23-2.3Zm4.6,119.48a8.39,8.39,0,0,1-4.6,5q30.33,0,41.36.92h.92v-6H880.9q-3.22,0-7.12.23c-2.61.16-4.52.23-5.74.23q-11,.08-17.93-.38Zm36.76-128.21v-9.65q-27.12.46-33.09,0a8.4,8.4,0,0,1-6.43,5.51q5.52.93,21.6,2.3,11.48,1,17.92,1.89ZM851.49,405h35.38v-3.22q-6-.45-17.46-.92-13.33-.92-19.76-.92A7.94,7.94,0,0,1,851.49,405Zm-.92,67.55h36.76V465.2q-6.89,0-20.22-1.38-11-.92-16.08-1.38Q851,468,850.57,472.55Zm0,13.79q23.44,0,36.76-.46v-8.73H850.57Zm0,12.41q6.89.46,17,.46l19.3-.46h.92l-.46-8.27q-13.33.46-36.76.46Zm.46-52.39q6.89.46,36.3,0V432.11q-24.81-.92-35.84.92a68.65,68.65,0,0,1-.46,7.35h33.54a2.3,2.3,0,0,1,.3,4.59H851Zm0,11.49,16.54,1.38q13.32,1.38,19.76,1.38V451q-29,.46-36.3,0Zm.46,102a20.18,20.18,0,0,1-.46,3.68h36.76v-3.68Zm0-143.83h35.38V409.6H851.49Zm0,12.41q11-1.83,35.84-.92l-.46-6.89H851.49Zm0,126.83h36.3v-11q-26.19,5.06-36.3,5v6Zm38.6-314.32q.45-3.21.92-6a246.43,246.43,0,0,0-37.68-3.68,40.18,40.18,0,0,1,.46,6.43q15.21-.41,36.3,3.26Zm-3.22,90.53V325q-30.79.93-33.09.92v7.81a132.47,132.47,0,0,1,18.38-1.84c1.22,0,3.52-.07,6.89-.23s5.95-.18,7.82-.18Zm0,11V336q-2.76,0-7.81.23c-3.37.16-5.67.23-6.89.23a132.47,132.47,0,0,0-18.38,1.84v7.35q12.86-.42,33.08-3.19Zm0,8.73v-4.1a327.46,327.46,0,0,1-33.09,3.22v.92Zm0,4.6H853.79a31.48,31.48,0,0,1,.46,5q5.05.46,32.63,0Zm2.3-105.69a23.25,23.25,0,0,1,.46-4.59q-21.14-3.67-35.38-3.22a64,64,0,0,1,.46,7.81Zm-2.3,59.74V308q-23,0-32.63.46v2.76q14.71-1.34,32.63-1.34Zm0,10.57v-6q-17.92,0-32.63,1.38v5.51q.92.06,32.63-.86Zm1.38-63,.46-2.76h-34a8.8,8.8,0,0,1,.46,2.76q6.43-.45,15.16-.46,3.21,0,9.19.23c4,.23,6.89.3,8.73.3Zm-1.38,35.84V288.2q-20.68,0-32.17,1.38V296a234.23,234.23,0,0,1,32.17-2.67Zm0,10.11v-5.51a225.7,225.7,0,0,0-32.17,2.76v3.22q9.19-.39,32.17-.39Zm.92-38.14.46-3.22q-2.76,0-8.73-.23t-9.19-.23q-8.73,0-15.16.46v3.68a69.11,69.11,0,0,1,15.16-1.38q4.59,0,12.87.46a13.59,13.59,0,0,1,4.59.53Zm-.46,12.87a66.87,66.87,0,0,1,.46-8.27,18.74,18.74,0,0,0-5-.46q-8.27-.45-12.41-.46a52.68,52.68,0,0,0-15.16,1.84v7.81a51.52,51.52,0,0,1,14.25-.92q3.21,0,9.65.23c4.28.23,7,.3,8.26.3Zm-.46,5.51v-.92q-1.38,0-7.81-.23t-9.65-.23a49.75,49.75,0,0,0-14.25.92V285a281.25,281.25,0,0,1,31.71-1.3Z"/>
  <path d="M1203,569.51q.92-10.56.92-11.49-32.63,13.33-46,15.16-25.28,3.21-46.64-4.37t-34.69-23a113,113,0,0,1-20.68-35.38,101.53,101.53,0,0,1-5.74-42.74,112.88,112.88,0,0,1,11.72-43q21.13-42.27,59-59.74t85.24-12.87q0-13.79.92-57,1.38-41.81-1.84-65.71V229a8.72,8.72,0,0,1-3.68-7.35,9.42,9.42,0,0,1,9.19-9.19A324.17,324.17,0,0,1,1272.3,218a9.88,9.88,0,0,1,5.28,3.68,9.76,9.76,0,0,1,2.07,6,8.87,8.87,0,0,1,.92,5.51q-1.84,11.49-3,23.44t-1.38,25.73q-.24,13.79-.46,23t0,26.42q.23,17.23.23,24.13,0,35.39.46,105.92t.46,105.92a9.12,9.12,0,0,1-.92,4.14v.92a9.42,9.42,0,0,1-9.19,9.19H1219a8.08,8.08,0,0,1-6-2.3h-1.84a9.82,9.82,0,0,1-6.2-3.22A8.34,8.34,0,0,1,1203,569.51ZM1100.95,468q-11.49-1.38-32.17-1.38-.46,5.52-.46,11l6.89-1.38a31.62,31.62,0,0,1,6-.92Q1095.89,472.55,1100.95,468Zm1.84,4.6q-6,4.6-20.68,6.89l-6.89,1.38-6.89,1.38a75.16,75.16,0,0,0,1.38,8.27q5.05-1.83,13.79-4.14,15.16-4.14,19.3-5.51a37.06,37.06,0,0,1,0-8.32Zm1.38-8.73q.45-1.83.92-4.14a85.47,85.47,0,0,0-17.46-3.68q-1.38-.45-12.87-1.38a21.75,21.75,0,0,0-4.14-.46,57.74,57.74,0,0,0-1.38,7.81q22.06,0,34.92,1.8Zm-.46,25.27a14.92,14.92,0,0,1-.46-3.68q-5.06,1.84-18.84,5.51a116,116,0,0,0-13.79,4.14,49.45,49.45,0,0,0,2.76,9.65,150.24,150.24,0,0,0,15.16-6.89q10.1-4.63,15.16-8.78Zm2.76-33.54,1.84-5.51a67.73,67.73,0,0,0-6.43-2.76l-7.35-2.76-6-2.76a97.93,97.93,0,0,0-12.41-4.14q-2.3,6-4.14,12a13.81,13.81,0,0,1,3.22.46q11.94.93,13.33,1.38a81.7,81.7,0,0,1,17.93,4.09ZM1106,496a16.79,16.79,0,0,1-.92-2.3,83.79,83.79,0,0,1-14.25,8.27q-6.44,3.22-16.08,6.89a51,51,0,0,0,4.14,8.27q1.38-1.38,14.7-11A96.41,96.41,0,0,0,1106,496Zm4.6-50.55,1.84-3.68L1100,431.19l-14.25-11.49A112.59,112.59,0,0,0,1078.4,433q5.05,1.84,11.95,4.59l7.81,3.22q8.3,3.22,12.44,4.6ZM1112,507a32.55,32.55,0,0,1-4.14-6.43,110.32,110.32,0,0,1-11.49,9.65l-15.16,11a59.67,59.67,0,0,0,8.73,11l11.49-12.41Q1107.84,512.54,1112,507Zm2.76-69.39a46.75,46.75,0,0,0,2.76-4.14q-17.47-17-23.44-24.35-2.76,3.22-5.51,6.89,4.59,4.14,13.79,11.49t12.37,10.13Zm4.59,76.74a47.38,47.38,0,0,1-4.14-3.68l-10.57,12.41L1093.13,536a53.35,53.35,0,0,0,9.19,7.35q1.83-3.21,5.51-8.73t4.14-6.43a77.67,77.67,0,0,0,7.36-13.82Zm.92-84.55a49.55,49.55,0,0,1,3.68-4.14q-16.54-15.16-23.44-23.9l-3.68,3.68q6.41,7.37,23.42,24.37Zm6.89-7.35a58.66,58.66,0,0,1,7.81-7.35q-12-7.34-23.44-23l-7.35,6.43q6.41,8.31,23,23.93ZM1125.3,518l-1.84-.92a122.29,122.29,0,0,1-7.35,13.33l-4.59,6.89a94.47,94.47,0,0,0-5.51,8.27,40.64,40.64,0,0,0,7.35,3.68A201.47,201.47,0,0,0,1125.3,518ZM1140,411.43a197.09,197.09,0,0,0-22.06-23.9l-2.76,1.84q11,15.16,22.52,22.06a5.65,5.65,0,0,1,.92,1.38Zm-6.43,110.29a18.4,18.4,0,0,0-3.68-1.38,259.56,259.56,0,0,1-12.41,30.79,53.13,53.13,0,0,0,6.43,2.3V553Q1131.73,534.13,1133.57,521.72ZM1203,489.09q0-11.94.46-37.45t.46-38.83q-36.31-1.83-58.59,17.69t-24.12,43.42q-1.84,22.06,14.7,29,22.51,9.2,65.25-13.33A4.12,4.12,0,0,1,1203,489.09Zm-58.82-80-17-26.65q-2.76,1.38-5.06,2.76a261.89,261.89,0,0,1,22,23.94Zm-.92,114.42q-2.76-.45-5.05-.92-1.84,12.87-9.65,31.71l7.35.92q.92-5.05,3.68-15.62t3.63-16Zm5.05-116.72,1.38-.92q-6.44-11.48-10.57-28.49-3.68,1.38-7.81,3.22Zm-.46,116.72a173,173,0,0,1-3.68,17.23q-2.76,10.8-3.68,14.93h7.81q1.38-18.37,2.76-32.17Zm6-119.94q4.14-1.83,8.27-3.22a211.78,211.78,0,0,1-12.41-26.19,34.52,34.52,0,0,0-6,1.38q4.11,17.06,10.08,28.08Zm8.27,119a23.2,23.2,0,0,1-6.43.92q-1.38,13.79-2.76,31.71a5.1,5.1,0,0,0,2.3-.46,66.57,66.57,0,0,0,6.89-1.38ZM1160.74,387a80,80,0,0,1-4.6-14.71l-2.3.46a120,120,0,0,0,6.84,14.32Zm13.79,9.65a134.2,134.2,0,0,0-13.33-25.27h-.46q1.83,10.11,8.73,25.27V398a40.94,40.94,0,0,0,5-1.31Zm3.22-4.14-.92-6.89a88.61,88.61,0,0,1-1.84-16.08q-4.6.46-8.73.92a152.18,152.18,0,0,1,11.43,22.12ZM1169,521.72a7.71,7.71,0,0,0-2.3.46v30.33q2.76-.92,6-2.3c-.31,0-.46-.3-.46-.92A136,136,0,0,1,1169,521.72Zm10.11-2.76a35.12,35.12,0,0,1-5.51,1.38q.45,17,3.22,28v.46l6.43-2.3Q1180,536,1179.07,519Zm3.68-123.61h.92q0-18.37.46-26.19a23.25,23.25,0,0,1-4.59.46,80.1,80.1,0,0,0,1.84,15.17q1.32,9.64,1.32,10.56Zm8.73,119a33.64,33.64,0,0,1-7.81,2.76q.92,17.47,3.68,27.57l6.89-2.76a173.34,173.34,0,0,1-2.81-27.55Zm-3.22-119.48a56.6,56.6,0,0,1,6.89-.46q.45-9.19.46-24.81a55.24,55.24,0,0,1-6.89-.46q-.51,7.86-.5,25.75Zm10.11,116.72-2.3.92a173.34,173.34,0,0,0,2.76,27.57l2.76-.92q-2.35-17-3.26-27.55Zm6.89-117.18a137.83,137.83,0,0,1,.92-23.89,43.15,43.15,0,0,0-6-.46q0,15.16-.46,24.35ZM1208.93,535q-.93-9.65-.92-26.65a5,5,0,0,1-1.38-.92l-3.68,1.84q.92,11.49,3.22,28h.92A2.17,2.17,0,0,1,1208.93,535Zm2.3-163.59V371h-.46q-1.38,8.73-.92,23.9a3.67,3.67,0,0,1,1.38.46q.45-14.7.46-20.68a3.1,3.1,0,0,1-.92-2.3,1.33,1.33,0,0,1,.46-.93Zm2.3,150.26a236.39,236.39,0,0,0,44.57.46h.46v-8.27h-.92q-10.11-.92-45-.92v8.73Zm44.11,5a237.17,237.17,0,0,1-44.57-.46v8.27q35.84-5.46,44.57-7.76Zm-42.74,12a8.46,8.46,0,0,1,2.76,3.68,7,7,0,0,1,2.76,2.3q10.1.46,38.14-5v-8.27q-9.65,2.8-43.65,7.39Zm.92-143.37q8.27,0,24.35.92,11.94.46,17.46.92v-6.43a348,348,0,0,0-41.82-2.3Zm.46-11.49a343.73,343.73,0,0,1,41.36,2.3v-6.43q-6.44-.92-18.38-1.84-17-1.38-23-2.3Zm4.6,119.48a8.39,8.39,0,0,1-4.6,5q30.33,0,41.36.92h.92v-6h-6.89q-3.22,0-7.12.23c-2.61.16-4.52.23-5.74.23q-11,.08-17.93-.38Zm36.76-128.21v-9.65q-27.12.46-33.09,0a8.4,8.4,0,0,1-6.43,5.51q5.52.93,21.6,2.3,11.48,1,17.92,1.89ZM1222.26,405h35.38v-3.22q-6-.45-17.46-.92-13.33-.92-19.76-.92A7.94,7.94,0,0,1,1222.26,405Zm-.92,67.55h36.76V465.2q-6.89,0-20.22-1.38-11-.92-16.08-1.38A101.15,101.15,0,0,1,1221.34,472.55Zm0,13.79q23.44,0,36.76-.46v-8.73h-36.76Zm0,12.41q6.89.46,17,.46l19.3-.46h.92l-.46-8.27q-13.33.46-36.76.46Zm.46-52.39q6.89.46,36.3,0V432.11q-24.81-.92-35.84.92a68.67,68.67,0,0,1-.46,7.35h33.54a2.3,2.3,0,1,1,.3,4.59H1221.8Zm0,11.49,16.54,1.38q13.32,1.38,19.76,1.38V451q-29,.46-36.3,0Zm.46,102a20.18,20.18,0,0,1-.46,3.68h36.76v-3.68Zm0-143.83h35.38V409.6h-35.38Zm0,12.41q11-1.83,35.84-.92l-.46-6.89h-35.38Zm0,126.83h36.3v-11q-26.19,5.06-36.3,5v6Zm38.6-314.32q.45-3.21.92-6a246.43,246.43,0,0,0-37.68-3.68,40.17,40.17,0,0,1,.46,6.43q15.16-.41,36.3,3.26Zm-3.22,90.53V325q-30.79.93-33.09.92v7.81a132.47,132.47,0,0,1,18.38-1.84c1.22,0,3.52-.07,6.89-.23s6-.18,7.82-.18Zm0,11V336q-2.76,0-7.81.23c-3.37.16-5.67.23-6.89.23a132.47,132.47,0,0,0-18.38,1.84v7.35q12.86-.42,33.08-3.19Zm0,8.73v-4.1a327.46,327.46,0,0,1-33.09,3.22v.92Zm0,4.6h-33.09a31.48,31.48,0,0,1,.46,5q5.05.46,32.63,0Zm2.3-105.69a23.25,23.25,0,0,1,.46-4.59q-21.14-3.67-35.38-3.22a64,64,0,0,1,.46,7.81Zm-2.3,59.74V308q-23,0-32.63.46v2.76q14.71-1.34,32.63-1.34Zm0,10.57v-6q-17.92,0-32.63,1.38v5.51q.92.06,32.63-.86Zm1.38-63,.46-2.76h-34a8.8,8.8,0,0,1,.46,2.76q6.43-.45,15.16-.46,3.21,0,9.19.23c4,.23,6.89.3,8.71.3Zm-1.38,35.84V288.2q-20.68,0-32.17,1.38V296a234.23,234.23,0,0,1,32.17-2.67Zm0,10.11v-5.51a225.7,225.7,0,0,0-32.17,2.76v3.22q9.2-.39,32.17-.39Zm.92-38.14L1259,262q-2.76,0-8.73-.23t-9.19-.23q-8.73,0-15.16.46v3.68a69.11,69.11,0,0,1,15.16-1.38q4.59,0,12.87.46a13.59,13.59,0,0,1,4.59.53Zm-.46,12.87a66.87,66.87,0,0,1,.46-8.27,18.74,18.74,0,0,0-5.05-.46q-8.27-.45-12.41-.46a52.68,52.68,0,0,0-15.16,1.84v7.81a51.52,51.52,0,0,1,14.25-.92q3.21,0,9.65.23c4.28.23,7,.3,8.26.3Zm-.46,5.51v-.92q-1.38,0-7.81-.23t-9.65-.23a49.75,49.75,0,0,0-14.25.92V285a281.26,281.26,0,0,1,31.71-1.3Z"/>
  <path d="M1448.15,291.5q31.25,0,40-.92a7.24,7.24,0,0,1,5.05.92h1.38a10.1,10.1,0,0,1,6.66,2.53,7.84,7.84,0,0,1,3,6.2l.46,5.51q20.22-11.48,50.55-11.49,22.06,0,39.06,9.88a79.25,79.25,0,0,1,27.8,27.34,162.7,162.7,0,0,1,17,37.45,269.82,269.82,0,0,1,9.42,43.88q5.05,47.33,2.76,88.23t-9.19,71.69a8.36,8.36,0,0,1,1.38,6,9.48,9.48,0,0,1-3.45,6.2,8.38,8.38,0,0,1-6.66,2.07q-24.81-2.3-49.63-2.3a9.42,9.42,0,0,1-9.19-9.19,8.08,8.08,0,0,1,2.3-6q0-10.1.92-41.36t.92-49.63q0-61.57-7.81-86.39-6-17.92-19.3-23.9-13.33-5.52-25.73,6.89-26.66,26.66-21.14,95.58.92,12.87,4.14,36.3,3.21,23.9,4.82,42a167.36,167.36,0,0,1,.23,31.48,5.19,5.19,0,0,1-.46,2.3,10.16,10.16,0,0,1-1.61,7.12,9.59,9.59,0,0,1-5.74,3.91,241.44,241.44,0,0,1-41.36,3.68,8.88,8.88,0,0,1-6.2-2.3,9,9,0,0,1-3-5.51l-.92-2.76q-9.2-31.24-13.1-70.54t-3.91-67.09q0-27.8,1.38-73.75t1.38-66.63a8.6,8.6,0,0,1,.46-2.76,8.53,8.53,0,0,1-1.84-5.51,9.42,9.42,0,0,1,9.19-9.19Zm37.22,142q.45-3.67.92-6.89-6.44,1.38-17.46,2.76-9.2,1.38-12.87,1.84v7.35q5.05-.92,13.79-2.3Zm0,9.65v-5l-15.16,2.76q-9.2,1.38-14.25,2.3v5.51a134.3,134.3,0,0,0,13.33-2.3,104.13,104.13,0,0,1,16.09-3.23Zm0,12v-7.35l-15.16,2.76q-9.2,2.3-14.25,3.22a34,34,0,0,1,.46,5.51,86.65,86.65,0,0,0,13.79-1.38Zm2.76-50.55a78.26,78.26,0,0,0-16.08.92,50.87,50.87,0,0,0-7.58.92,50.52,50.52,0,0,1-8,.92v6q22.51-.45,31.25,0l.92-4.59a21.78,21.78,0,0,0-.51-4.18Zm-1.38,17a15,15,0,0,1,.46-3.68q-8.73-.45-30.79,0v8.73q3.21-.45,11.95-1.84a121.6,121.6,0,0,0,18.38-3.22Zm-.46,46a70.28,70.28,0,0,1-.46-7.81,45,45,0,0,1-4.83.69,42,42,0,0,0-5.51.92,22.67,22.67,0,0,1-4.82.69,67,67,0,0,1-14.25,1.84v4.6q5,0,14.93-.46t14.94-.52Zm.46,9.65a31.48,31.48,0,0,0-.46-5q-5.06,0-14.93.46t-14.93.46a34,34,0,0,1,.46,5.51q5.51,0,15.39-.46t14.47-1Zm0-90.53q-14.25-.92-29.87-.46v4.14q5.51-.45,15.62-.69t14.25-.69Zm.92,12.87a36.12,36.12,0,0,1-.46-6h-.46q-4.6.46-14.71.69t-15.16.69v7.81a41.92,41.92,0,0,0,7.12-.92,43.38,43.38,0,0,1,7.58-.92,117.41,117.41,0,0,1,16.09-1.4Zm.92,91.91q-.93-5.05-1.38-9.65-4.6.46-14.7.92t-15.62.46l.92,9.19q12.85-1,30.78-1Zm-1.38-117.64a311.84,311.84,0,0,1,3.22-33.54q-8.73,3.22-32.17,2.76v5.51q8.27-1.38,28-2.76a2.3,2.3,0,1,1,.3,4.59h-.3q-20.23,1.38-28,3.22l-.46,6.89q4.14.46,27.57.46a2.3,2.3,0,1,1,0,4.6q-23.44,0-27.57-.46l-.46,8.73Zm-.46,8.27V378.4h-29.41v3.22q15.66-.51,29.41.38Zm3.25,123.1-.92-9.19q-17.92,0-31.25.92.45,4.14.92,8.73Q1467.91,504.72,1490,505.18Zm.92-170,.92-6.43a18.09,18.09,0,0,1-2.76-2.3q-17,3.68-30.33,1.84,0,5.06-.46,10.11,24.79.43,32.6-3.25Zm-4.6-21.6v-4.14q-9.65.46-27.57.46V315a113.45,113.45,0,0,0,27.54-1.41Zm0,4.59a115.12,115.12,0,0,1-27.57,1.38v4.14q12.41,1.84,28-1.38a5.07,5.07,0,0,1-.46-2.3v-1.84ZM1491.81,518l-.92-7.81q-23-.92-31.71,0a45,45,0,0,0,.46,6.43A294.68,294.68,0,0,0,1491.81,518Zm1.38,13.33-.92-8.73a294.62,294.62,0,0,1-32.17-1.38q.92,5.06,1.38,10.11,9.19.5,31.71,0Zm1.38,12.41a72.19,72.19,0,0,0-.46-7.81q-23,.46-31.71,0a72.32,72.32,0,0,0,1.38,8.73q6,0,17.69-.46t13.1-.42ZM1496,558l-.92-9.65q-2.3,0-13.33.46t-17.46.46q.92,4.14,1.84,8.73,10.1.5,29.86,0Zm0,4.59h-29l1.84,6.43q23-.92,27.11-1.38Zm0,9.65q-5.06.46-26.19,1.38l1.38,5.51a227,227,0,0,0,24.35-2.3,23.73,23.73,0,0,0,.45-4.55Zm-4.6-194.38q0,10.11.46,19.3a83.45,83.45,0,0,1,8.27-18.38h-.46a2,2,0,0,1-2.3-2.3q0-6,.92-22.29a249.49,249.49,0,0,0,.46-25,1.3,1.3,0,0,1-.92-.46,3.54,3.54,0,0,1-1.38.46q-4.14,28-4.6,45a1.86,1.86,0,0,1,.92,1.84,1.8,1.8,0,0,1-1.37,1.87Zm11.95-49.63q.45,9.2-.46,26.19t-.92,21.14a62.63,62.63,0,0,1,4.14-5.51v-43.2l-.92.46a2.64,2.64,0,0,1-1.84,1Zm15.16-8.73a38.79,38.79,0,0,0-7.81,4.14v40.9l2.3-2.3a55.61,55.61,0,0,1,4.6-4.14q0-4.14.69-13.33t.69-12.87q0-3.63-.47-12.36Zm9.19-3.68a26.43,26.43,0,0,0-4.6,1.38q.92,8.27-.46,37.22l4.6-2.76q0-3.21.23-9.65t.23-9.19Zm12.41-2.3q-4.14.46-7.81.92.45,7.82,0,18.84,0,2.76-.23,8.27t-.23,8.27a55.33,55.33,0,0,1,6-1.38,240.81,240.81,0,0,1,2.27-34.88Zm14.25-.92a90,90,0,0,0-9.65.46,240.75,240.75,0,0,0-2.3,34.92,15.38,15.38,0,0,1,3.68.46q.92-5.05,4.14-17.46a143,143,0,0,0,4.12-18.33Zm17,2.3a56,56,0,0,0-12.41-2.3,145,145,0,0,1-4.14,19.76q-3.22,12-4.14,16.54a84.57,84.57,0,0,1,8.27,2.3l.46.46a199.18,199.18,0,0,1,6.43-19.76q4.15-11.89,5.53-17Zm18.84,8.73a70.25,70.25,0,0,0-14.25-7.35q-1.38,5.06-6,17a158.06,158.06,0,0,0-6,20.68,23.67,23.67,0,0,1,2.3,1.38q5.57-5.93,23.95-31.67Zm11,10.57a84.58,84.58,0,0,0-7.35-7.35q-17.92,24.81-23.9,31.25l.92.92q17-14.66,30.36-24.78Zm9.65,14.25a70.77,70.77,0,0,0-6.89-10.57Q1590.58,348,1574,362.23l2.76,2.76a219.68,219.68,0,0,1,34-16.51Zm6.89,14.25a114,114,0,0,0-5.06-10.57,238.66,238.66,0,0,0-33.09,16.54,42.32,42.32,0,0,1,4.14,7.35q6.93-1.34,34-13.29Zm5.51,17.46a128.29,128.29,0,0,0-4.14-12.87q-26.19,11.49-33.09,12.87a55.31,55.31,0,0,1,2.3,6.43l.46,1.38q23-7.31,34.5-7.77Zm3.68,14.25a90.4,90.4,0,0,0-2.3-9.65q-11.49.46-34.46,7.81a45.56,45.56,0,0,1,1.38,7.35q5.05-1.38,17-1.84t17.46-3.22a1.33,1.33,0,0,1,.95-.42Zm2.76,14.25L1627.8,399q-6.44,3.22-18.84,3.68-12,0-16.54,1.84a60,60,0,0,1,1.38,7.81q6.43-.45,23.44-2.3,7.36-.89,12.43-1.35Zm.46,4.59q-4.6.46-12.41,1.38-17,1.84-23.44,2.3l.92,9.65q30.33,0,36.76-.46-.93-5.52-1.38-11Zm-3.22,142-31.25-5a42.1,42.1,0,0,0-.46,6h15.62q14.24,0,15.62.92Zm-1.38,6q-1.84-.45-14.71-.46H1595.2v5.51q14.7.46,29,1.38a34,34,0,0,0,1.33-6.43Zm7.35-125a33.25,33.25,0,0,1-.46-5.51q-7.35.46-36.76.46a30.6,30.6,0,0,0,.46,5q1.38,0,23.9-.46,7.37,0,12.89.47Zm-3.68,102.93q-2.3-.45-17.46-1.84-9.65-.45-15.62-2.76l-.46,11,31.71,5Zm4.14-94.2a17.35,17.35,0,0,0-.46-4.14q-5.51-.45-12.87-.46-22.52.46-23.9.46a76.12,76.12,0,0,1,.46,8.27q20.72-3.2,36.8-4.1Zm-1.84,76.74q-15.63,0-35.38-1.38V530q6,2.3,16.08,2.76,15.16,1.38,17.92,1.84.49-6.44,1.41-12.88Zm2.3-60.2q0-6-.46-12-16.09.93-36.76,4.14v3.68q6,.93,19.3,1.84,11.51,1.38,17.95,2.3Zm0,27.11H1597q0,5.06-.46,10.57,2.29,0,14.93.46t19.07.92a2,2,0,0,1,2.3,2.3Zm-.92,14.71a2.17,2.17,0,0,1-2.3,1.84q-6.89-.45-19.3-.92t-14.71-.46v12q19.75,1.38,35.38,1.38Zm.92-37.22q-6.44-.92-18.38-2.3-12.87-.92-18.38-1.84v7.81q11,1.38,36.76,1.38Zm0,17.92v-8.27q-25.74,0-36.76-1.38V484Z"/>
  <path d="M1926.82,66.55a15.06,15.06,0,0,1,2.15,7.88q0,21.5,2.15,65.21t2.51,69.16q.35,25.45-2.51,69.16l20.07-18,25.08-21.5,20.07-15.77a12,12,0,0,1,10.39-3.58,14.28,14.28,0,0,1,9.67,5,11.6,11.6,0,0,1,2.15,2.87,10.7,10.7,0,0,0,2.87,2.15q9.31,10,48,46.58,5.73,5.75,4.3,12.9a14.8,14.8,0,0,1-5,14.33q-14.34,11.47-58.76,43.71l-43,33.68q50.15,34.4,149.78,113.94,7.16,5.74,5.73,13.62a14.83,14.83,0,0,1-2.87,10.75q-3.59,5-11.47,14.69t-12.18,15.41q-4.3,5.74-9.32,13.62a91.54,91.54,0,0,0-7.88,15,14.44,14.44,0,0,1-7.52,7.52,12.15,12.15,0,0,1-11.11-.36A5.4,5.4,0,0,1,2058,584a22.13,22.13,0,0,1-7.88-2.87q-13.62-11.45-66.65-60.2-27.24-25.08-46.58-39.42.71,25.09,3.58,86t2.87,93.88V665a14.86,14.86,0,0,1-2.87,10.75,13.14,13.14,0,0,1-9.32,5.73,504.22,504.22,0,0,1-75.25,5.73H1853a14.7,14.7,0,0,1-14.33-14.33,12.59,12.59,0,0,1,1.43-5.73q-14.34-103.9-8.6-286.65,0-7.88.72-40.85l1.43-43.71q.71-11.46,1.07-39.77t.36-44.07q0-15.75-.36-39.06t-1.43-43.36q-1.08-20.06-2.51-40.13-.72-7.16,4.3-11.47A12.55,12.55,0,0,1,1838,68a17.2,17.2,0,0,1,8.6-5.73q6.45-.7,29-5.37t34.76-6.81A14.86,14.86,0,0,1,1921.11,53a13.14,13.14,0,0,1,5.73,9.32Zm68.08,194.21q-18.64,34.4-70.95,99.61-47.3,58.77-65.93,87.43v26.52a215.71,215.71,0,0,1,13.62-21.5q10-15,48-67.36,33.68-47.3,50.16-72.38,22.93-35.83,28.67-55.18ZM1933.27,389a15.58,15.58,0,0,1-2.87-6.45l-5,7.17q-38,51.6-48,67t-15,24.72a70.91,70.91,0,0,0-4.3,8.6v10.75q5.73-7.88,35.12-45.86Q1923.94,415.56,1933.27,389Zm5.73,7.17q-10.75,25.09-40.13,63.06-31.54,39.42-40.85,55.18,0,10.75.72,21.5,12.18-20.06,40.85-63.06l8.6-12.9a14.15,14.15,0,0,1,1.43-6.45,13.85,13.85,0,0,1,2.15-7.17,15.94,15.94,0,0,1,9.32-6.45q14.33-21.5,24.37-39.42Zm-15-73.1a519.07,519.07,0,0,1-65.21,95.31v15.77q17.2-25.08,59.48-78.11,44.43-55.17,60.91-82.41-30.82,25.8-47.3,44.43a15,15,0,0,1-7.88,5ZM1909,492.2q-.72-10-.72-19.35l-2.87,4.3q-32.25,48.74-46.58,72.38a72.11,72.11,0,0,1,.72,10q2.86-4.3,22.93-27.23,20.69-23.59,26.43-40.07ZM1889.56,83q-4.3.72-14.33,2.87t-15.77,3.58q1.43,17.2,2.15,35.83Q1879.51,96.66,1889.56,83Zm15.77,230q-7.17,12.9-24.37,39.42l-21.5,33v21.5a556,556,0,0,0,56.61-84.56l-4.3-2.87a14.11,14.11,0,0,1-4.3-5,8.79,8.79,0,0,0-2.15-1.42Zm-5-5.73a15.43,15.43,0,0,1-1.43-9.32c.47-1.43,1-3.1,1.43-5l-11.47,17.2q-17.2,25.8-27.95,37.26l-.72,23.65,15-22.93q17.94-27.13,25.12-40.79Zm8.6,200.66q-6.45,12.19-20.78,28.67-22.94,26.52-27.95,34.4l1.43,22.93q15.75-22.93,48-63.78,0-12.15-.72-22.15Zm-4.3-263q-25.8,39.42-42.28,59.48-.72,12.9-.72,31.53,7.16-9.3,20.78-30.1,12.9-18.63,19.35-27.23,2.13-15.7,2.85-33.61ZM1900.33,93V81.6q-11.47,12.9-38,57.33.71,10.75.72,22.93L1881.67,131a248.33,248.33,0,0,0,15-29.38Zm5,121.11L1863,272.94q0,9.32-.72,19.35,14.33-17.2,43-60.91Zm5.73,343.27-.72-16.48q-31.54,39.42-48,64.5l1.43,16.48,20.78-32.25q15-21.44,26.51-32.19Zm-6.45-362.62q-7.17,12.19-22.22,33Q1868,247.14,1863.76,255a23.44,23.44,0,0,0-.72,5.73L1904.61,202Zm-3.61-84.5q-5,10-12.9,24.37l-24.37,40.13v20.78l16.48-25.8q12.9-21.5,22.22-33.68Q1901.74,121,1901,110.26Zm2.15,53.75-.72-16.48q-6.45,9.32-16.48,25.8-17.2,27.95-22.22,35.12v5.73q13.63-20.78,39.44-50.18Zm1.43,17.92a40,40,0,0,1-.72-7.88q-26.52,31.54-40.13,53v15l12.9-18.63q19.37-26.42,28-41.5Zm7.88,400.6-.72-15q-9.32,9.32-20.78,26.51l-12.18,18.63q-9.32,13.61-14.33,20.07l1.43,11.47q10.78-16.55,46.61-61.69Zm.72,10.75q-33.69,40.85-45.86,61.63v2.15l46.58-43.71q-.7-9.35-.69-20.08Zm.72,33.68v-4.3l-37.27,35.11a137.65,137.65,0,0,0,19.35-1.43A184.4,184.4,0,0,0,1913.92,627Zm.72,14.33-9.32,14.33a56.32,56.32,0,0,1,9.32-.72Zm48.73-228.61-12.18-7.88q-9.32,16.49-22.22,35.83l2.87,1.43,9.32,6.45,1.43-1.43q7.88-10.75,9.32-13.62a103.22,103.22,0,0,0,11.48-20.78Zm43-156.23q-5,20.79-30.1,60.2l-29.38,43q12.9-10.75,30.81-24.37,21.5-38.7,33.68-74.53l-5-5ZM1969.1,417a103.17,103.17,0,0,1-11.47,20.78q-1.44,2.87-9.32,13.62l-1.43,1.43,10,7.17,9.32-15q7.88-12.18,13.62-20.07Zm22.9,16.46-5.73-4.3a189.34,189.34,0,0,0-13.62,19.35L1961.94,465l10.75,8.6a.63.63,0,0,1,.72-.72Q1989.16,441.35,1992,433.46Zm19.35,14.33-13.62-10q-2.87,7.17-18.63,38a2.29,2.29,0,0,1-1.43,2.15l10,7.88q6.52-14.37,23.72-38ZM1992,323.1l30.1-51.6-5-5A432,432,0,0,1,1992,323.1Zm25.08,129.71q-17.2,22.94-22.93,36.55l-1.43,1.43,7.88,7.17q5-7.88,13.62-19.35l13.62-17.92Zm10.75-176.29-22.22,38,35.11-25.8ZM2040.05,470l-6.45-5L2020,482.91q-9.32,12.9-14.33,20.07l12.18,10.75a3.23,3.23,0,0,1-.72-3.58Q2020.7,501.54,2040.05,470Zm20.07,15.77L2045.78,475q-18.64,29.39-21.5,38-1.44,2.87-5,2.15l11.47,10.75,15-19.35Zm5.73,4.3q-5.74,7.17-15.77,20.78l-13.62,20.07,10.75,9.32q17.2-33,22.93-46.58Zm10,8.6q-5.74,12.9-22.93,46.58l7.17,6.45q7.88-12.9,30.1-41.56Z"/>
  <path d="M2149,224.21q100.32-40.12,162-35.11,93.15,7.17,119.68,107.49a206.38,206.38,0,0,1,6.45,45.15q0,23.65-3.22,55.54T2430,438.49q-6.45,134.74-18.63,205Q2409.19,655,2397.72,655a15,15,0,0,1-7.88,2.15q-50.89,0-68.08-2.15a13.45,13.45,0,0,1-9.32-5.37,12.53,12.53,0,0,1-2.87-9.67q-1.45-15-1.43-17.2-106.79,12.9-152.64-35.12-21.5-22.93-25.8-55.54t6.45-62q12.9-37.25,41.56-68.08a171.7,171.7,0,0,1,68.44-45.15q39.77-14.33,84.21,2.15-3.59-58-30.82-65.93-28.67-8.6-100.33,29.38a19.07,19.07,0,0,1-7.17,1.43,14.17,14.17,0,0,1-13.62-6.45q-17.2-26.5-37.26-68.08a13.76,13.76,0,0,1-1.43-8.6Q2137.5,228.51,2149,224.21Zm9.32,308.15q36.55-79.55,80.26-141.18-3.59,1.44-6.45,2.87-10.75,20.79-38.7,61.63-26.52,39.42-36.55,58a121.32,121.32,0,0,0,1.41,18.68Zm1.43-38q7.16-12.9,27.95-43,22.93-33,32.25-49.45-40.14,28.67-56.61,77.4-2.19,7.91-3.62,15.07Zm9.32,64.5q12.18-35.83,41.56-89.22t53.75-87.79q-6.45,1.44-13.62,3.58Q2202,452.8,2161.18,543.09a60.45,60.45,0,0,0,7.82,15.78Zm31.53-323.2-28.67,10.75,10.75,22.22q10.72-20.77,17.89-33Zm33.68,220.72A105.17,105.17,0,0,1,2245,439.91l15.77-23.65q14.33-20.78,18.63-36.55a13.73,13.73,0,0,0-4.3.72q-25.8,33-57.69,91.37T2174,565.32l2.15,2.15,1.43,1.43,33-68.08a80,80,0,0,1,9.32-26.51,74.05,74.05,0,0,1,14.3-17.91Zm-24.37,60.91-27.23,56.61,8.6,5.73q2.15-4.3,6.45-13.62t5-11.47a179.73,179.73,0,0,1,12.9-21.5,8.8,8.8,0,0,1-2.15-3.58,90,90,0,0,1-3.6-12.15Zm12.18-288.09-10.75,3.58q-10,13.62-24.37,43.71l8.6,14.33q2.84-8.57,26.5-61.6ZM2230,550.25a69.51,69.51,0,0,1-10.75-10,173.17,173.17,0,0,0-10,17.92q-.72,1.44-5,11.11t-6.45,14q6.45,2.87,13.62,5.73ZM2231.4,227q-2.15,3.59-12.18,25.8l-15,34.4q10.75-5,20.07-8.6l4.3-10,9.32-22.22a263.33,263.33,0,0,1,13.62-24.37q-10.13,2.15-20.15,5Zm11.47,329.65q-3.59-1.43-6.45-2.87-1.44,3.59-17.92,37.26a67.85,67.85,0,0,1,7.88,2.15q9.29-25,16.47-36.52Zm21.5-336.82-2.87.72q-7.89,10-16.48,28.67l-10,22.22-1.43,2.87,5.73-2.15a.63.63,0,0,1,.72-.72q10-19.34,24.31-51.58Zm-14.33,339q-7.17,10.75-16.48,35.11a20.82,20.82,0,0,0,5,.72,102.9,102.9,0,0,1,10-15q7.88-11.46,16.48-17.92a75.62,75.62,0,0,1-15-2.92Zm66.65-92.45q-23.65-10.75-42.28-3.58T2245,488.64q-10,17.2-5,30.1t28.67,14.33q14.33.72,23.65-2.87t20.78-13.62q4.28-31.51,3.56-50.15Zm-42.28,96.75q-9.32,5-20.07,20.78a106.54,106.54,0,0,0-7.88,12.18q8.6.72,17.2.72A335.63,335.63,0,0,1,2278,561.74h-2.15a1.27,1.27,0,0,1-1.47,1.43Zm11.47-345.42a118.47,118.47,0,0,0-12.9.72q-14.34,32.25-24.37,50.88a67.24,67.24,0,0,1,7.88-2.15q4.3-10.75,17.2-30.1,8.57-12.9,12.16-19.35Zm7.88-.72q-3.59,8.6-14.33,23.65-10.75,15.77-14.33,24.37,7.16-1.43,14.33-2.15,5.73-7.15,28.67-45.15a132.39,132.39,0,0,0-14.37-.76Zm-6.45,214.27q20.78-36.55,29.38-46.58a41.76,41.76,0,0,0-7.17-2.15q-13.62,10-28.67,30.82-4.3,5.74-15,21.5l-.72.72a59.26,59.26,0,0,1,22.15-4.31Zm-17.92-15,5.73-7.17q12.9-18.63,25.08-28.67a125.27,125.27,0,0,0-13.62-.72q-3.58,15.74-17.22,36.51Zm26.52,143.33-10,1.43a310.18,310.18,0,0,0-14.33,35.83,91.8,91.8,0,0,0,11.47-.72q9.23-20.82,12.83-36.59Zm27.23-340.4a37.09,37.09,0,0,0-7.17-.72q-26.52,43-27.23,44.43h3.58q1.4-1.47,30.79-43.76Zm-19.35,337.53q-2.87,16.49-12.9,38.7h1.43q10.75-21.5,25.08-45.86a125.57,125.57,0,0,1-13.64,7.11ZM2311,433.51q17.2-25.8,22.93-41.56a101.15,101.15,0,0,0-10-5q-9.32,10.75-27.95,44.43a57.27,57.27,0,0,1,15,2.08Zm28.67-209.26a30.49,30.49,0,0,0-8.6-2.87q-2.87,4.3-14.33,19.35l-16.48,22.93,7.17,1.43a2.88,2.88,0,0,0,2.15.72q13.56-20.09,30.05-41.6ZM2326,548.84q-14.34,24.37-25.08,45.86,5.73-.7,12.18-1.43a336.11,336.11,0,0,1,23.65-44.43q14.33-22.93,34.76-50.16t29-40.13l.72-21.5v-2.87l-60.2,91-1.43,11.47Q2338.15,548.13,2326,548.84Zm20.78-322.48q-17.2,22.22-30.1,42.28a76.2,76.2,0,0,1,11.47,7.17q10-18.63,27.95-43.71-4.32-2.87-9.34-5.74Zm-28.67,209.26,1.43.72q4.3-5,17.92-20.07l20.78-21.5q6.45-7.88,16.84-20.42t18.27-23.29q7.88-10.75,14.33-21.5a117.94,117.94,0,0,0-2.15-13.62q-6.45,7.89-24.37,25.08-15,13.62-21.5,22.93v16.48a11.78,11.78,0,0,1-2.15,8.6q-5.74,10.75-17.2,6.45-6.45,15.77-22.22,40.13Zm80.26,60.91q.7-11.46,1.43-24.37L2373.27,508q-20.07,28-31.89,46.94A344.8,344.8,0,0,0,2321,592.56a30.15,30.15,0,0,1,3.58,1.43,15.85,15.85,0,0,1,6.45,2.87L2364,551q24.31-35.11,34.36-54.47Zm-71.66-57.33a28.48,28.48,0,0,1,6.45,3.58,11.63,11.63,0,0,1,2.87,2.15,19.46,19.46,0,0,1,5,3.58q2.15-2.15,28.67-34.4,22.93-27.95,33.68-46.58,1.43-2.86,4.3-2.15a197.81,197.81,0,0,0,0-23.65,193.55,193.55,0,0,1-13.26,20.07q-7.52,10-17.56,21.5l-15.77,17.92L2342.46,422q-12.19,13.62-15.77,17.2Zm43-197.07a52.38,52.38,0,0,0-7.88-6.45q-18.64,25.8-28.67,45.15l4.3,4.3q24.34-30.81,32.23-43ZM2396.92,513q-10,17.2-27.23,42.28l-34.4,47.3a12.8,12.8,0,0,1,1.43,5.73v7.17q30.8-35.83,59.48-88.86A125.1,125.1,0,0,0,2396.92,513Zm-4.3,55.9q1.43-12.18,2.15-25.08-30.1,51.6-58,81.7l.72,2.15q7.15.71,16.48.72a447.3,447.3,0,0,1,38.65-59.48Zm-11.47-313.17a102.53,102.53,0,0,0-6.45-8.6q-7.17,11.47-33,44.43l5,8.6q13-22.16,34.46-44.42Zm-35.83,227.89q-.72,11.47-2.15,25.08l26.52-40.13,33-49.45a47.88,47.88,0,0,1,.72-7.88q-27.28,36.56-58.08,72.39Zm-.72-27.23q.71,7.17.72,15.77,32.25-38,58.76-74.53,2.15-15.76,2.15-22.22-10,17.92-30.82,43.71-27.93,33-30.8,37.28Zm45.86-186.32a81,81,0,0,0-5-8.6q-22.94,23.65-35.83,46.58a52.76,52.76,0,0,1,2.15,6.45q22.92-25.07,38.69-44.43Zm3.58,7.17q-15.77,19.35-40.13,45.15a109.31,109.31,0,0,1,2.15,10.75L2374,310.92q15.75-18.63,21.5-29.38Zm5,12.9q-5,8.6-19.35,25.08-16.49,19.35-22.22,28.67.71,5,1.43,9.32,5.73-6.45,17.2-17.2Q2396.88,316,2404,306.63a6.28,6.28,0,0,1-.72-2.87q-2.11-7.16-4.26-13.62Zm-7.88,292.39a430,430,0,0,0-29.38,45.86h22.93q3.61-21.5,6.48-45.87Z"/>
  <path d="M2461.41,174.76q48.73,0,62.35-1.43a11.3,11.3,0,0,1,7.88,1.43h2.15a15.75,15.75,0,0,1,10.39,3.94,12.23,12.23,0,0,1,4.66,9.67l.72,8.6q31.53-17.9,78.83-17.92,34.4,0,60.91,15.41a123.61,123.61,0,0,1,43.36,42.64,253.75,253.75,0,0,1,26.52,58.41A420.69,420.69,0,0,1,2773.87,364q7.88,73.82,4.3,137.59t-14.33,111.79a13,13,0,0,1,2.15,9.32,14.77,14.77,0,0,1-5.37,9.67,13.07,13.07,0,0,1-10.39,3.23q-38.7-3.59-77.4-3.58a14.7,14.7,0,0,1-14.33-14.33,12.59,12.59,0,0,1,3.58-9.32q0-15.75,1.43-64.5t1.43-77.4q0-96-12.18-134.73-9.32-27.95-30.1-37.26-20.79-8.6-40.13,10.75-41.57,41.57-33,149.06,1.43,20.07,6.45,56.61,5,37.27,7.52,65.57t.36,49.09a8.09,8.09,0,0,1-.72,3.58,15.85,15.85,0,0,1-2.51,11.11,15,15,0,0,1-9,6.09,376.5,376.5,0,0,1-64.5,5.73,13.85,13.85,0,0,1-9.67-3.58,14,14,0,0,1-4.66-8.6l-1.43-4.3q-14.34-48.73-20.42-110t-6.09-104.63q0-43.35,2.15-115T2449.23,202a13.42,13.42,0,0,1,.72-4.3,13.3,13.3,0,0,1-2.87-8.6,14.7,14.7,0,0,1,14.33-14.33Zm58,221.44q.71-5.73,1.43-10.75-10,2.15-27.23,4.3-14.34,2.15-20.07,2.87v11.47q7.88-1.43,21.5-3.58Zm0,15v-7.88l-23.65,4.3q-14.34,2.15-22.22,3.58v8.6a208.92,208.92,0,0,0,20.78-3.58q16.53-4.22,25.14-5Zm0,18.63V418.41l-23.65,4.3q-14.34,3.59-22.22,5a53,53,0,0,1,.72,8.6,135.08,135.08,0,0,0,21.5-2.15Zm4.3-78.83q-10-.71-25.08,1.43a79.32,79.32,0,0,0-11.82,1.43,78.76,78.76,0,0,1-12.54,1.43v9.32q35.1-.7,48.73,0l1.43-7.17a33.88,33.88,0,0,0-.67-6.39Zm-2.15,26.51a23.44,23.44,0,0,1,.72-5.73q-13.62-.71-48,0V385.4q5-.7,18.63-2.87,18.66-2.1,28.7-5Zm-.72,71.66a109.58,109.58,0,0,1-.72-12.18,70,70,0,0,1-7.52,1.08,65.39,65.39,0,0,0-8.6,1.43,35.27,35.27,0,0,1-7.52,1.07,104.52,104.52,0,0,1-22.22,2.87v7.17q7.88,0,23.29-.72t23.34-.66Zm.72,15a49.09,49.09,0,0,0-.72-7.88q-7.89,0-23.29.72t-23.29.72a53,53,0,0,1,.72,8.6q8.6,0,24-.72t22.63-1.33Zm0-141.18q-22.22-1.43-46.58-.72v6.45q8.6-.71,24.37-1.08t22.22-1.08Zm1.43,20.07a56.21,56.21,0,0,1-.72-9.32h-.72q-7.17.72-22.93,1.07T2475,336v12.18a65.48,65.48,0,0,0,11.11-1.43,67.64,67.64,0,0,1,11.83-1.43,183,183,0,0,1,25.06-2.15Zm1.43,143.33q-1.44-7.88-2.15-15-7.17.72-22.93,1.43t-24.37.72l1.43,14.33q20.12-1.37,48.08-1.38ZM2522.33,303a486.25,486.25,0,0,1,5-52.31q-13.62,5-50.16,4.3v8.6q12.9-2.15,43.71-4.3,3.58,0,3.58,3.58c0,2.4-1.2,3.58-3.58,3.58q-31.54,2.15-43.71,5l-.72,10.75q6.45.72,43,.72,3.58,0,3.58,3.58c0,2.4-1.2,3.58-3.58,3.58q-36.55,0-43-.72l-.72,13.62Zm-.72,12.9v-5.7h-45.86v5q24.35-.69,45.86.74Zm5,192.06-1.43-14.33q-27.95,0-48.73,1.43.71,6.45,1.43,13.62,14.34-1.4,48.75-.68ZM2528,242.81l1.43-10a28.19,28.19,0,0,1-4.3-3.58q-26.52,5.75-47.3,2.87,0,7.9-.72,15.77,38.73.71,50.91-5Zm-7.17-33.68v-6.45q-15,.72-43,.72v7.88a176.88,176.88,0,0,0,43-2.12Zm0,7.17a179.55,179.55,0,0,1-43,2.15v6.45q19.35,2.87,43.71-2.15a7.92,7.92,0,0,1-.72-3.58V216.3Zm8.6,311.74L2528,515.86q-35.84-1.43-49.45,0a70.22,70.22,0,0,0,.72,10q18.69,2.2,50.18,2.2Zm2.15,20.78-1.43-13.62q-31.54,0-50.16-2.15,1.43,7.89,2.15,15.77,14.34.74,49.46,0Zm2.15,19.35a112.37,112.37,0,0,0-.72-12.18q-35.84.72-49.45,0a112.72,112.72,0,0,0,2.15,13.62q9.3,0,27.59-.72t20.45-.7Zm2.15,22.22-1.43-15q-3.59,0-20.78.72t-27.23.72q1.43,6.45,2.87,13.62,15.77.68,46.59,0Zm0,7.17h-45.15l2.87,10q35.83-1.43,42.28-2.15Zm0,15q-7.89.72-40.85,2.15l2.15,8.6a354,354,0,0,0,38-3.58,37.07,37.07,0,0,0,.72-7.11Zm-7.17-303.14q0,15.77.72,30.1a130.21,130.21,0,0,1,12.9-28.67h-.72c-2.4,0-3.58-1.19-3.58-3.58q0-9.3,1.43-34.76t.72-39.06a2,2,0,0,1-1.43-.72,5.51,5.51,0,0,1-2.15.72q-6.45,43.72-7.17,70.23a2.9,2.9,0,0,1,1.43,2.87,2.8,2.8,0,0,1-2.12,2.94Zm18.63-77.4q.7,14.35-.72,40.85t-1.43,33a97.86,97.86,0,0,1,6.45-8.6V229.94l-1.43.72a4.12,4.12,0,0,1-2.84,1.43ZM2571,218.4a60.49,60.49,0,0,0-12.18,6.45V288.7l3.58-3.58a86.8,86.8,0,0,1,7.17-6.45q0-6.45,1.07-20.78t1.08-20.07q0-5.73-.69-19.35Zm14.33-5.73a41.17,41.17,0,0,0-7.17,2.15q1.43,12.9-.72,58l7.17-4.3q0-5,.36-15t.36-14.33Zm19.35-3.58q-6.45.72-12.18,1.43.71,12.19,0,29.38,0,4.3-.36,12.9t-.36,12.9a86.28,86.28,0,0,1,9.32-2.15,375.54,375.54,0,0,1,3.61-54.39Zm22.22-1.43a139.94,139.94,0,0,0-15,.72,375.45,375.45,0,0,0-3.58,54.46,24,24,0,0,1,5.73.72q1.43-7.88,6.45-27.23a229.48,229.48,0,0,0,6.47-28.61Zm26.52,3.58a87.27,87.27,0,0,0-19.35-3.58,226,226,0,0,1-6.45,30.82q-5,18.64-6.45,25.8a131.73,131.73,0,0,1,12.9,3.58l.72.72a310.51,310.51,0,0,1,10-30.82q6.5-18.56,8.65-26.45Zm29.38,13.62a109.57,109.57,0,0,0-22.22-11.47q-2.15,7.89-9.32,26.52-7.17,20.79-9.32,32.25a37,37,0,0,1,3.58,2.15q8.64-9.25,37.3-49.39Zm17.2,16.48a131.81,131.81,0,0,0-11.47-11.47q-27.95,38.7-37.26,48.73l1.43,1.43q26.53-22.85,47.32-38.62Zm15,22.22a110.3,110.3,0,0,0-10.75-16.48q-20.79,15.77-46.58,38l4.3,4.3a342.43,342.43,0,0,1,53.1-25.76Zm10.75,22.22a177.65,177.65,0,0,0-7.88-16.48,371.94,371.94,0,0,0-51.6,25.8,65.86,65.86,0,0,1,6.45,11.47q10.82-2.1,53.1-20.73Zm8.6,27.23a200.56,200.56,0,0,0-6.38-20q-40.85,17.92-51.6,20.07a86.56,86.56,0,0,1,3.58,10l.72,2.15q35.83-11.42,53.75-12.15Zm5.73,22.22a141,141,0,0,0-3.58-15q-17.92.72-53.75,12.18a71.09,71.09,0,0,1,2.15,11.47q7.88-2.15,26.51-2.87t27.23-5a2.07,2.07,0,0,1,1.51-.73Zm4.3,22.22-2.87-15q-10,5-29.38,5.73-18.64,0-25.8,2.87a93.42,93.42,0,0,1,2.15,12.18q10-.71,36.55-3.58,11.53-1.43,19.42-2.15Zm.72,7.17q-7.17.72-19.35,2.15-26.52,2.87-36.55,3.58l1.43,15q47.3,0,57.33-.72-1.44-8.6-2.15-17.2Zm-5,221.44-48.73-7.88a65.66,65.66,0,0,0-.72,9.32h24.37q22.2,0,24.37,1.43Zm-2.15,9.32q-2.87-.71-22.93-.72h-24.37v8.6q22.93.72,45.15,2.15a53,53,0,0,0,2.17-10ZM2749.5,400.5a51.82,51.82,0,0,1-.72-8.6q-11.47.72-57.33.72a47.67,47.67,0,0,0,.72,7.88q2.15,0,37.26-.72Q2740.89,399.78,2749.5,400.5ZM2743.77,561q-3.59-.7-27.23-2.87-15-.71-24.37-4.3l-.72,17.2,49.45,7.88Zm6.45-146.91a27,27,0,0,0-.72-6.45q-8.6-.7-20.07-.72-35.12.72-37.26.72a118.48,118.48,0,0,1,.72,12.9q32.24-5,57.32-6.43Zm-2.87,119.68q-24.37,0-55.18-2.15v15q9.3,3.59,25.08,4.3,23.65,2.15,27.95,2.87.7-10,2.15-20Zm3.58-93.88q0-9.31-.72-18.63-25.09,1.44-57.33,6.45v5.73q9.3,1.44,30.1,2.87,17.91,2.17,27.95,3.6Zm0,42.28H2693.6q0,7.89-.72,16.48,3.58,0,23.29.72t29.74,1.43q3.58,0,3.58,3.58Zm-1.43,22.93a3.39,3.39,0,0,1-3.58,2.87q-10.75-.71-30.1-1.43t-22.93-.72v18.63q30.8,2.15,55.18,2.15Zm1.43-58q-10-1.43-28.67-3.58-20.07-1.43-28.66-2.87v12.18q17.2,2.15,57.33,2.15Zm0,28v-12.9q-40.14,0-57.33-2.15v15Z"/>
  <path d="M3013.93,608.32q1.43-16.48,1.43-17.92-50.89,20.79-71.66,23.65-39.42,5-72.74-6.81t-54.11-35.83a176.28,176.28,0,0,1-32.25-55.18q-11.47-31.17-9-66.65a176,176,0,0,1,18.27-67q33-65.92,92.09-93.16t132.93-20.07q0-21.5,1.43-88.86,2.15-65.2-2.87-102.48V77.3a13.6,13.6,0,0,1-5.73-11.47A14.7,14.7,0,0,1,3026,51.5q51.6,0,96,8.6a15.41,15.41,0,0,1,8.24,5.73,15.22,15.22,0,0,1,3.23,9.32,13.84,13.84,0,0,1,1.43,8.6q-2.87,17.92-4.66,36.55t-2.15,40.13q-.37,21.5-.72,35.83t0,41.21q.35,26.87.36,37.62,0,55.19.72,165.18t.72,165.18a14.22,14.22,0,0,1-1.43,6.45v1.43a14.7,14.7,0,0,1-14.33,14.33H3039a12.6,12.6,0,0,1-9.32-3.58h-2.87a15.3,15.3,0,0,1-9.67-5A13,13,0,0,1,3013.93,608.32ZM2854.84,450q-17.92-2.15-50.16-2.15-.72,8.6-.72,17.2l10.75-2.15a49.38,49.38,0,0,1,9.32-1.43Q2846.95,457.11,2854.84,450Zm2.87,7.17q-9.32,7.17-32.25,10.75L2814.7,470l-10.7,2.16a117.49,117.49,0,0,0,2.15,12.9q7.88-2.85,21.5-6.45,23.65-6.45,30.1-8.6a57.91,57.91,0,0,1-.05-12.9Zm2.15-13.62q.71-2.85,1.43-6.45-10-3.58-27.23-5.73-2.15-.71-20.07-2.15a34,34,0,0,0-6.45-.72,90,90,0,0,0-2.15,12.18q34.4,0,54.46,2.87Zm-.72,39.42a23.32,23.32,0,0,1-.72-5.73q-7.89,2.87-29.38,8.6a181.2,181.2,0,0,0-21.5,6.45,77.15,77.15,0,0,0,4.3,15,234.12,234.12,0,0,0,23.65-10.75q15.75-7.12,23.64-13.58Zm4.3-52.31,2.87-8.6a105.55,105.55,0,0,0-10-4.3l-11.47-4.3-9.32-4.3a152.6,152.6,0,0,0-19.35-6.45q-3.59,9.32-6.45,18.63a21.44,21.44,0,0,1,5,.72q18.63,1.44,20.78,2.15a127.37,127.37,0,0,1,27.93,6.44Zm-.72,63.06a26.06,26.06,0,0,1-1.43-3.58,130.71,130.71,0,0,1-22.22,12.9q-10,5-25.08,10.75a79.69,79.69,0,0,0,6.45,12.9q2.15-2.15,22.93-17.2a150.39,150.39,0,0,0,19.35-15.78Zm7.17-78.83,2.87-5.73-19.35-16.48-22.22-17.92a175.71,175.71,0,0,0-11.47,20.78q7.88,2.87,18.63,7.17l12.18,5q12.9,5,19.35,7.17Zm2.15,96a50.82,50.82,0,0,1-6.45-10,171.93,171.93,0,0,1-17.92,15L2824,533.08a93.06,93.06,0,0,0,13.62,17.2l17.92-19.35q10-11.46,16.46-20.07Zm4.3-108.21a72.92,72.92,0,0,0,4.3-6.45q-27.24-26.5-36.55-38-4.3,5-8.6,10.75,7.15,6.45,21.5,17.92t19.34,15.8Zm7.17,119.68a73.92,73.92,0,0,1-6.45-5.73l-16.48,19.35L2842.65,556A83.26,83.26,0,0,0,2857,567.47q2.86-5,8.6-13.62t6.45-10a121.13,121.13,0,0,0,11.45-21.52Zm1.43-131.86a77.2,77.2,0,0,1,5.73-6.45q-25.8-23.65-36.55-37.26l-5.73,5.73q10,11.53,36.54,38ZM2895.68,379a91.33,91.33,0,0,1,12.18-11.47q-18.64-11.46-36.55-35.83l-11.47,10Q2869.88,354.63,2895.68,379Zm-2.87,149.06-2.87-1.43a191,191,0,0,1-11.47,20.78l-7.17,10.75a147.56,147.56,0,0,0-8.6,12.9,63.31,63.31,0,0,0,11.47,5.73,314.08,314.08,0,0,0,18.65-48.73Zm22.93-166.26a307.29,307.29,0,0,0-34.4-37.26l-4.3,2.87q17.2,23.65,35.12,34.4a8.8,8.8,0,0,1,1.43,2.15Zm-10,172a28.67,28.67,0,0,0-5.73-2.15,404.72,404.72,0,0,1-19.35,48,83,83,0,0,0,10,3.58v-.72q12.18-29.36,15.06-48.72Zm108.21-50.88q0-18.63.72-58.41t.72-60.56q-56.62-2.85-91.37,27.59t-37.62,67.72q-2.87,34.4,22.93,45.15,35.1,14.35,101.76-20.78a6.43,6.43,0,0,1,2.84-.72Zm-91.75-124.7-26.51-41.56q-4.3,2.15-7.88,4.3A408.4,408.4,0,0,1,2922.2,358.22Zm-1.43,178.44q-4.3-.71-7.88-1.43-2.87,20.07-15,49.45l11.47,1.43q1.43-7.88,5.73-24.37t5.68-25.08Zm7.88-182,2.15-1.43q-10-17.9-16.48-44.43-5.74,2.15-12.18,5Zm-.72,182a269.74,269.74,0,0,1-5.73,26.87q-4.3,16.85-5.73,23.29h12.18q2.15-28.65,4.3-50.16Zm9.32-187q6.45-2.85,12.9-5-12.9-23.65-19.35-40.85a53.89,53.89,0,0,0-9.32,2.15q6.45,26.46,15.77,43.66Zm12.9,185.61a36.16,36.16,0,0,1-10,1.43q-2.15,21.5-4.3,49.45a8,8,0,0,0,3.58-.72,103.44,103.44,0,0,0,10.75-2.15ZM2948,323.82a124.63,124.63,0,0,1-7.17-22.93l-3.58.72A187,187,0,0,0,2948,323.82Zm21.5,15a209.23,209.23,0,0,0-20.78-39.41H2948q2.85,15.77,13.62,39.41V341a63.79,63.79,0,0,0,7.88-2.13Zm5-6.45-1.43-10.75a138.17,138.17,0,0,1-2.87-25.08q-7.17.72-13.62,1.43a237.24,237.24,0,0,1,17.93,34.45Zm-13.6,201.42a12,12,0,0,0-3.58.72v47.3q4.3-1.43,9.32-3.58c-.48,0-.72-.47-.72-1.43Q2961.61,558.89,2960.9,533.79Zm15.77-4.3a54.91,54.91,0,0,1-8.6,2.15q.71,26.52,5,43.71v.72l10-3.58q-5-16.49-6.41-43Zm5.73-192.77h1.43q0-28.65.72-40.85a36.26,36.26,0,0,1-7.17.72q0,9.32,2.87,23.65,2.15,15,2.15,16.48ZM2996,522.33a52.42,52.42,0,0,1-12.18,4.3q1.43,27.24,5.73,43l10.75-4.3A270.31,270.31,0,0,1,2996,522.33ZM2991,336a88.23,88.23,0,0,1,10.75-.72q.71-14.33.72-38.7a86.12,86.12,0,0,1-10.75-.72Q2991,308.06,2991,336Zm15.77,182-3.58,1.43a270.42,270.42,0,0,0,4.3,43l4.3-1.43q-3.61-26.48-5-43Zm10.75-182.74q-.72-22.93,1.43-37.26a67.26,67.26,0,0,0-9.32-.72q0,23.65-.72,38Zm5.73,219.29q-1.44-15-1.43-41.57a7.82,7.82,0,0,1-2.15-1.43l-5.73,2.87q1.43,17.92,5,43.71h1.43a3.39,3.39,0,0,1,2.87-3.56Zm3.58-255.12v-.72h-.72q-2.15,13.62-1.43,37.26a5.71,5.71,0,0,1,2.15.72q.7-22.93.72-32.25a4.82,4.82,0,0,1-1.43-3.58,2.07,2.07,0,0,1,.71-1.41Zm3.58,234.34q30.8,3.59,69.51.72h.72v-12.9h-1.43q-15.77-1.43-70.23-1.43v13.62Zm68.8,7.88q-38,2.87-69.51-.72v12.9q55.89-8.57,69.51-12.16Zm-66.65,18.63a13.18,13.18,0,0,1,4.3,5.73,11,11,0,0,1,4.3,3.58q15.75.72,59.48-7.88v-12.9q-15.05,4.33-68.08,11.5ZM3034,336.72q12.9,0,38,1.43,18.63.72,27.23,1.43v-10A542.51,542.51,0,0,0,3034,326Zm.72-17.92a536.08,536.08,0,0,1,64.5,3.58v-10q-10-1.43-28.67-2.87-26.52-2.15-35.83-3.58Zm7.17,186.32a13.07,13.07,0,0,1-7.17,7.88q47.3,0,64.5,1.43h1.43v-9.32H3089.9q-5,0-11.11.36c-4.07.25-7.05.36-9,.36q-17.16,0-27.91-.7Zm57.33-199.94v-15q-42.29.72-51.6,0-2.87,7.17-10,8.6,8.6,1.44,33.68,3.58,17.86,1.4,27.91,2.83ZM3044,351.77h55.18v-5q-9.32-.71-27.23-1.43-20.79-1.43-30.82-1.43A12.39,12.39,0,0,1,3044,351.77Zm-1.43,105.35h57.33V445.65q-10.75,0-31.53-2.15-17.2-1.43-25.08-2.15a154.7,154.7,0,0,1-.7,15.76Zm0,21.5q36.55,0,57.33-.72V464.28h-57.33Zm0,19.35q10.75.72,26.52.72l30.1-.72h1.43l-.72-12.9q-20.79.72-57.33.72Zm.72-81.7q10.75.72,56.61,0V394q-38.7-1.43-55.9,1.43a107.08,107.08,0,0,1-.72,11.47h52.31q3.58,0,3.58,3.58c0,2.4-1.2,3.58-3.58,3.58h-52.31Zm0,17.92,25.8,2.15q20.78,2.15,30.82,2.15v-15q-45.15.72-56.61,0Zm.72,159.09a31.48,31.48,0,0,1-.72,5.73h57.33v-5.73ZM3044,369h55.18V359H3044Zm0,19.35q17.2-2.85,55.9-1.43l-.72-10.75H3044Zm0,197.79h56.61v-17.2q-40.85,7.89-56.61,7.88ZM3104.2,96c.47-3.34,1-6.45,1.43-9.32a384.31,384.31,0,0,0-58.76-5.73,62.58,62.58,0,0,1,.72,10q23.67-.7,56.63,5Zm-5,141.18v-10q-48,1.44-51.6,1.43v12.18a206.7,206.7,0,0,1,28.67-2.87c1.9,0,5.49-.11,10.75-.36s9.32-.41,12.19-.41Zm0,17.2v-10q-4.3,0-12.18.36c-5.26.25-8.85.36-10.75.36a206.53,206.53,0,0,0-28.67,2.87V259.4q20.06-.78,51.61-5.1Zm0,13.62v-6.45q-30.82,4.3-51.6,5v1.43Zm0,7.17h-51.6a49.09,49.09,0,0,1,.72,7.88q7.88.72,50.88,0Zm3.58-164.83a36.34,36.34,0,0,1,.72-7.17q-33-5.73-55.18-5a100,100,0,0,1,.72,12.18Zm-3.58,93.16v-2.87q-35.84,0-50.88.72v4.3q22.93-2.19,50.89-2.19Zm0,16.48v-9.32q-27.95,0-50.88,2.15v8.6l50.89-1.46Zm2.15-98.18.72-4.3h-53a13.76,13.76,0,0,1,.72,4.3q10-.7,23.65-.72,5,0,14.33.36c6.17.22,10.72.33,13.59.33Zm-2.15,55.9v-7.88q-32.25,0-50.16,2.15v10a365.33,365.33,0,0,1,50.17-4.31Zm0,15.77v-8.6q-29.39.72-50.16,4.3v5q14.33-.73,50.17-.74Zm1.43-59.48.72-5c-2.87,0-7.41-.11-13.62-.36s-11-.36-14.33-.36q-13.62,0-23.65.72v5.73q9.31-2.15,23.65-2.15,7.15,0,20.07.72c3.82-.06,6.21.19,7.17.66Zm-.72,20.07a104.2,104.2,0,0,1,.72-12.9,29.15,29.15,0,0,0-7.88-.72q-12.9-.71-19.35-.72-14.34,0-23.65,2.87v12.18A80.32,80.32,0,0,1,3072,153.3q5,0,15,.36t12.95.34Zm-.72,8.6v-1.43c-1.43,0-5.5-.11-12.18-.36s-11.71-.36-15-.36q-13.62-.7-22.22,1.43v2.87q17.87-2.19,49.42-2.19Z"/>
  <path d="M3246.11,229.94a14.3,14.3,0,0,1,3.58,9.32q0,194.94-5,371.22a12.61,12.61,0,0,1-4.3,9.67,15.34,15.34,0,0,1-10.75,3.94h-2.15q-7.17.71-14,1.79c-4.55.72-7.88,1.19-10,1.43s-3.94.47-5.37.72a31.33,31.33,0,0,1-5,.36H3168a13.8,13.8,0,0,1-7.17-2.15q-10-2.15-10.75-12.18-4.3-45.15-5-92.45t2.51-96.75q3.22-49.45,7.17-89.94t10.39-93.52a16.83,16.83,0,0,1,3.58-7.88q2.15-10.75,12.9-10.75l50.88-1.43Q3242.52,221.34,3246.11,229.94ZM3218.88,475l.72-17.92q-28.67,19.35-45.86,35.83v28.67Q3185.18,508,3218.88,475Zm.72-58q.71-9.3.72-18.63a92.78,92.78,0,0,0-12.18,9.32q-6.45,5.75-10.75,10l-11.47,11.47a141.93,141.93,0,0,0-10,10.75l-1.43,20.78q25-27.22,45.1-43.69Zm0,31.53V427q-19.35,16.49-45.15,44.43V482.9q17.19-15,45.14-34.39Zm-1.43,60.91q.71-12.18.72-24.37-30.1,29.39-42.28,44.43a2.29,2.29,0,0,1-2.15,1.43v17.92q17.89-19.36,43.7-39.42Zm-.72,31.53.72-22.22q-25.8,20.07-43,40.13l1.43,29.38q4.3-5,20.78-22.93Q3211,550.27,3217.44,541Zm2.87-151.21V366.82q-20.07,15-43,38.7l-1.43,23.65q30.11-30.81,44.42-39.42Zm-2.87,179.16V553.14l-15,17.2Q3183,591.13,3177.31,599v.72h15a326.39,326.39,0,0,1,25.13-30.81Zm2.87-210.69q0-10,.72-20.78l-41.57,39.41q-.72,8.6-.72,17.2,21.49-22.22,41.56-35.84Zm.72-30.82V308q-10,9.32-38.7,38.7l-1.43,19.35Zm0-29.38V283q-4.3,5-10,10.75a121.15,121.15,0,0,1-8.6,9.32l-10,9.32a56.46,56.46,0,0,0-7.17,8.6l-1.43,14.33Q3208.11,310.21,3221,298Zm0-26.52V251.44q-12.19,11.47-32.25,34.4l-2.15,22.93L3206,288.7q9.28-10,15-17.2Zm-9.32-20.78-18.63.72-2.87,21.5q12.17-13.62,21.49-22.23Zm5,329.65-14.33,17.92,14.33-1.43Z"/>
  <path d="M3508.38,608.32q1.43-16.48,1.43-17.92-50.89,20.79-71.66,23.65-39.42,5-72.74-6.81t-54.11-35.83A176.28,176.28,0,0,1,3279,516.23q-11.47-31.17-9-66.65a176,176,0,0,1,18.27-67q33-65.92,92.09-93.16t132.94-20.07q0-21.5,1.43-88.86Q3517,115.29,3512,78v-.7a13.6,13.6,0,0,1-5.73-11.47A14.69,14.69,0,0,1,3520.6,51.5q51.6,0,96,8.6a15.41,15.41,0,0,1,8.24,5.73,15.22,15.22,0,0,1,3.23,9.32,13.84,13.84,0,0,1,1.43,8.6q-2.87,17.92-4.66,36.55t-2.15,40.13q-.37,21.5-.72,35.83t0,41.21q.35,26.87.36,37.62,0,55.19.72,165.18t.72,165.18a14.22,14.22,0,0,1-1.43,6.45v1.43A14.7,14.7,0,0,1,3608,627.67h-74.53a12.6,12.6,0,0,1-9.32-3.58h-2.87a15.3,15.3,0,0,1-9.67-5A13,13,0,0,1,3508.38,608.32ZM3349.29,450q-17.92-2.15-50.16-2.15-.72,8.6-.72,17.2l10.75-2.15a49.35,49.35,0,0,1,9.32-1.43Q3341.4,457.11,3349.29,450Zm2.87,7.17q-9.32,7.17-32.25,10.75L3309.16,470l-10.75,2.15a117.49,117.49,0,0,0,2.15,12.9q7.88-2.85,21.5-6.45,23.65-6.45,30.1-8.6a57.79,57.79,0,0,1,0-12.89Zm2.15-13.62q.71-2.85,1.43-6.45-10-3.58-27.23-5.73-2.15-.71-20.07-2.15a34,34,0,0,0-6.45-.72,90.16,90.16,0,0,0-2.15,12.18q34.4,0,54.47,2.87Zm-.72,39.42a23.32,23.32,0,0,1-.72-5.73q-7.9,2.87-29.38,8.6a181.11,181.11,0,0,0-21.5,6.45,77.15,77.15,0,0,0,4.3,15,234.12,234.12,0,0,0,23.65-10.75q15.76-7.12,23.65-13.58Zm4.3-52.31,2.87-8.6a105.69,105.69,0,0,0-10-4.3l-11.47-4.3-9.32-4.3a152.64,152.64,0,0,0-19.35-6.45q-3.59,9.32-6.45,18.63a21.45,21.45,0,0,1,5,.72q18.63,1.44,20.78,2.15a127.37,127.37,0,0,1,27.94,6.44Zm-.72,63.06a26.17,26.17,0,0,1-1.43-3.58,130.67,130.67,0,0,1-22.22,12.9q-10,5-25.08,10.75a79.69,79.69,0,0,0,6.45,12.9q2.15-2.15,22.93-17.2a150.39,150.39,0,0,0,19.35-15.78Zm7.17-78.83,2.87-5.73-19.35-16.48-22.22-17.92a175.88,175.88,0,0,0-11.47,20.78q7.88,2.87,18.63,7.17l12.18,5q12.91,5,19.36,7.17Zm2.15,96a50.79,50.79,0,0,1-6.45-10,172.06,172.06,0,0,1-17.92,15L3318.47,533a93.06,93.06,0,0,0,13.62,17.2L3350,530.92q10-11.45,16.49-20.06Zm4.3-108.21a72.92,72.92,0,0,0,4.3-6.45q-27.24-26.5-36.55-38-4.3,5-8.6,10.75,7.16,6.45,21.5,17.92t19.35,15.8Zm7.21,119.7a74,74,0,0,1-6.45-5.73L3355,535.94,3337.11,556a83.22,83.22,0,0,0,14.33,11.47q2.85-5,8.6-13.62t6.45-10A121.13,121.13,0,0,0,3378,522.33Zm1.43-131.86a77.2,77.2,0,0,1,5.73-6.45q-25.8-23.65-36.55-37.26l-5.73,5.73q10,11.51,36.51,38ZM3390.14,379a91.33,91.33,0,0,1,12.18-11.47q-18.64-11.46-36.55-35.83l-11.47,10Q3364.33,354.63,3390.14,379Zm-2.87,149.06-2.87-1.43a191,191,0,0,1-11.47,20.78l-7.17,10.75a147.85,147.85,0,0,0-8.6,12.9,63.27,63.27,0,0,0,11.47,5.73,314.29,314.29,0,0,0,18.64-48.73ZM3410.2,361.8a307.29,307.29,0,0,0-34.4-37.26l-4.3,2.87q17.2,23.65,35.12,34.4A8.77,8.77,0,0,1,3408,364Zm-10,172a28.67,28.67,0,0,0-5.73-2.15,404.77,404.77,0,0,1-19.35,48,83,83,0,0,0,10,3.58v-.72q12.18-29.36,15.05-48.72Zm108.21-50.88q0-18.63.72-58.41t.72-60.56q-56.62-2.85-91.37,27.59t-37.62,67.72q-2.87,34.4,22.93,45.15,35.1,14.35,101.76-20.78a6.43,6.43,0,0,1,2.83-.72Zm-91.73-124.69-26.51-41.56q-4.3,2.15-7.88,4.3a408.26,408.26,0,0,1,34.36,37.25Zm-1.43,178.44q-4.3-.71-7.88-1.43-2.87,20.07-15,49.45l11.47,1.43q1.43-7.88,5.73-24.37t5.65-25.09Zm7.88-182,2.15-1.43q-10-17.9-16.48-44.43-5.74,2.15-12.18,5Zm-.72,182a269.46,269.46,0,0,1-5.73,26.87q-4.3,16.85-5.73,23.29h12.18q2.15-28.65,4.3-50.16Zm9.32-187q6.45-2.85,12.9-5-12.9-23.65-19.35-40.85A53.89,53.89,0,0,0,3416,306q6.43,26.45,15.74,43.65Zm12.9,185.61a36.15,36.15,0,0,1-10,1.43q-2.15,21.5-4.3,49.45a8,8,0,0,0,3.58-.72,103.44,103.44,0,0,0,10.75-2.15Zm-2.15-211.41a124.71,124.71,0,0,1-7.17-22.93l-3.58.72a187.2,187.2,0,0,0,10.72,22.16Zm21.5,15a209.29,209.29,0,0,0-20.78-39.41h-.72q2.86,15.77,13.62,39.41V341a63.81,63.81,0,0,0,7.9-2.13Zm5-6.45-1.43-10.75a138.26,138.26,0,0,1-2.87-25.08q-7.17.72-13.62,1.43a237.26,237.26,0,0,1,17.94,34.4Zm-13.62,201.37a12,12,0,0,0-3.58.72v47.3q4.3-1.43,9.32-3.58c-.48,0-.72-.47-.72-1.43q-4.31-17.91-5-43Zm15.77-4.3a55,55,0,0,1-8.6,2.15q.7,26.52,5,43.71v.72l10-3.58q-5-16.49-6.41-43Zm5.73-192.77h1.43q0-28.65.72-40.85a36.26,36.26,0,0,1-7.17.72q0,9.32,2.87,23.65,2.14,15,2.14,16.48Zm13.62,185.61a52.41,52.41,0,0,1-12.18,4.3q1.43,27.24,5.73,43l10.75-4.3a270.31,270.31,0,0,1-4.31-43Zm-5-186.32a88.24,88.24,0,0,1,10.75-.72q.71-14.33.72-38.7a86.12,86.12,0,0,1-10.75-.72q-.75,12.19-.75,40.13Zm15.77,182-3.58,1.43a270.31,270.31,0,0,0,4.3,43l4.3-1.43q-3.63-26.49-5-43ZM3512,335.28q-.72-22.93,1.43-37.26a67.27,67.27,0,0,0-9.32-.72q0,23.65-.72,38Zm5.73,219.29q-1.44-15-1.43-41.57a7.8,7.8,0,0,1-2.15-1.43l-5.73,2.87q1.43,17.92,5,43.71h1.43a3.39,3.39,0,0,1,2.85-3.58Zm3.58-255.12v-.72h-.72q-2.15,13.62-1.43,37.26a5.7,5.7,0,0,1,2.15.72q.71-22.93.72-32.25a4.83,4.83,0,0,1-1.43-3.58,2.07,2.07,0,0,1,.68-1.43Zm3.58,234.34q30.8,3.59,69.51.72h.72v-12.9h-1.43q-15.77-1.43-70.23-1.43V533.8Zm68.8,7.88q-38,2.87-69.51-.72v12.9q55.82-8.59,69.48-12.18ZM3527,560.31a13.18,13.18,0,0,1,4.3,5.73,11,11,0,0,1,4.3,3.58q15.76.72,59.48-7.88v-12.9Q3580,553.14,3527,560.31Zm1.43-223.59q12.9,0,38,1.43,18.63.72,27.23,1.43v-10a542.48,542.48,0,0,0-65.21-3.58Zm.72-17.92a536.08,536.08,0,0,1,64.5,3.58v-10q-10-1.43-28.67-2.87-26.52-2.15-35.83-3.58Zm7.17,186.32a13.07,13.07,0,0,1-7.17,7.88q47.3,0,64.5,1.43h1.43v-9.32h-10.75q-5,0-11.11.36c-4.07.25-7.05.36-9,.36q-17.14,0-27.89-.7Zm57.33-199.94v-15q-42.29.72-51.6,0-2.87,7.17-10,8.6,8.6,1.44,33.68,3.58,17.89,1.4,27.93,2.83Zm-55.18,46.58h55.18v-5q-9.32-.71-27.23-1.43-20.79-1.43-30.82-1.43a12.39,12.39,0,0,1,2.88,7.87ZM3537,457.11h57.33V445.65q-10.75,0-31.53-2.15-17.2-1.43-25.08-2.15A140.48,140.48,0,0,1,3537,457.11Zm0,21.5q36.55,0,57.33-.72V464.28H3537Zm0,19.35q10.75.72,26.52.72l30.1-.72h1.43l-.72-12.9q-20.79.72-57.33.72Zm.72-81.7q10.75.72,56.61,0V394q-38.7-1.43-55.9,1.43a106.83,106.83,0,0,1-.72,11.47H3590q3.58,0,3.58,3.58c0,2.4-1.2,3.58-3.58,3.58h-52.31Zm0,17.92,25.8,2.15q20.78,2.15,30.82,2.15v-15q-45.15.72-56.61,0Zm.72,159.09a31.4,31.4,0,0,1-.72,5.73h57.33v-5.73Zm0-224.31h55.18V359h-55.18Zm0,19.35q17.2-2.85,55.9-1.43l-.72-10.75h-55.18Zm0,197.79h56.61V568.9q-40.85,7.89-56.61,7.88Zm60.2-490.18c.47-3.34,1-6.45,1.43-9.32a384.3,384.3,0,0,0-58.76-5.73,62.58,62.58,0,0,1,.72,10q23.68-.66,56.65,5.06Zm-5,141.18v-10q-48,1.44-51.6,1.43v12.18a206.7,206.7,0,0,1,28.67-2.87c1.9,0,5.49-.11,10.75-.36s9.34-.37,12.2-.37Zm0,17.2v-10q-4.3,0-12.18.36c-5.26.25-8.85.36-10.75.36a206.53,206.53,0,0,0-28.67,2.87v11.47q20.08-.74,51.62-5.06Zm0,13.62v-6.45q-30.82,4.3-51.6,5v1.43Zm0,7.17H3542a49.09,49.09,0,0,1,.72,7.88q7.88.72,50.88,0Zm3.58-164.83a36.28,36.28,0,0,1,.72-7.17q-33-5.73-55.18-5a100,100,0,0,1,.72,12.18Zm-3.58,93.16v-2.87q-35.84,0-50.88.72v4.3q22.95-2.15,50.9-2.15Zm0,16.48v-9.32q-27.95,0-50.88,2.15v8.6q1.45,0,50.9-1.42Zm2.15-98.18.72-4.3h-53a13.76,13.76,0,0,1,.72,4.3q10-.7,23.65-.72,5,0,14.33.36c6.19.26,10.74.37,13.6.37Zm-2.15,55.9v-7.88q-32.25,0-50.16,2.15v10a365.33,365.33,0,0,1,50.18-4.27Zm0,15.77v-8.6q-29.39.72-50.16,4.3v5q14.35-.69,50.18-.7Zm1.43-59.48.72-5q-4.3,0-13.62-.36t-14.33-.36q-13.62,0-23.65.72v5.73q9.31-2.15,23.65-2.15,7.16,0,20.07.72c3.84,0,6.22.23,7.19.7Zm-.72,20.07a104.39,104.39,0,0,1,.72-12.9,29.15,29.15,0,0,0-7.88-.72q-12.9-.71-19.35-.72-14.34,0-23.65,2.87v12.18a80.32,80.32,0,0,1,22.22-1.43q5,0,15,.36t13,.38Zm-.72,8.6v-1.43c-1.43,0-5.5-.11-12.18-.36s-11.71-.36-15-.36q-13.62-.7-22.22,1.43v2.87q17.89-2.15,49.43-2.15Z"/>
  <path d="M3656,224.21q100.32-40.12,162-35.11,93.15,7.17,119.68,107.49a206.38,206.38,0,0,1,6.45,45.15q0,23.65-3.23,55.54T3937,438.49q-6.45,134.74-18.63,205Q3916.18,655,3904.71,655a15,15,0,0,1-7.88,2.15q-50.89,0-68.08-2.15a13.45,13.45,0,0,1-9.32-5.37,12.53,12.53,0,0,1-2.87-9.67q-1.44-15-1.43-17.2-106.79,12.9-152.64-35.12-21.5-22.93-25.8-55.54t6.45-62Q3656,432.81,3684.7,402a171.7,171.7,0,0,1,68.44-45.15q39.77-14.33,84.2,2.15-3.59-58-30.82-65.93-28.67-8.6-100.33,29.38a19.07,19.07,0,0,1-7.17,1.43,14.17,14.17,0,0,1-13.62-6.45q-17.2-26.5-37.27-68.08a13.76,13.76,0,0,1-1.43-8.6Q3644.53,228.51,3656,224.21Zm9.32,308.15q36.55-79.55,80.26-141.18-3.59,1.44-6.45,2.87-10.75,20.79-38.7,61.63-26.52,39.42-36.55,58A121.34,121.34,0,0,0,3665.32,532.36Zm1.43-38q7.15-12.9,27.95-43,22.93-33,32.25-49.45-40.14,28.67-56.61,77.4-2.16,7.91-3.59,15.07Zm9.32,64.5q12.18-35.83,41.56-89.22t53.75-87.79q-6.45,1.44-13.62,3.58Q3709,452.8,3668.18,543.09a60.45,60.45,0,0,0,7.89,15.78Zm31.53-323.2-28.67,10.75,10.75,22.22q10.75-20.77,17.92-33Zm33.68,220.72A105.22,105.22,0,0,1,3752,439.91l15.77-23.65q14.33-20.78,18.63-36.55a13.72,13.72,0,0,0-4.3.72q-25.8,33-57.69,91.37T3681,565.32l2.15,2.15,1.43,1.43,33-68.08a80,80,0,0,1,9.32-26.51,74.06,74.06,0,0,1,14.33-17.91Zm-24.37,60.91-27.23,56.61,8.6,5.73q2.15-4.3,6.45-13.62t5-11.47a179.73,179.73,0,0,1,12.9-21.5,8.8,8.8,0,0,1-2.15-3.58,90,90,0,0,1-3.57-12.15Zm12.18-288.09-10.75,3.58q-10,13.62-24.37,43.71l8.6,14.33q2.87-8.57,26.53-61.6ZM3737,550.27a69.51,69.51,0,0,1-10.75-10,173.22,173.22,0,0,0-10,17.92q-.72,1.44-5,11.11t-6.45,14q6.45,2.87,13.62,5.73Zm1.43-323.2q-2.15,3.59-12.18,25.8l-15,34.4q10.75-5,20.07-8.6l4.3-10,9.32-22.22a263.34,263.34,0,0,1,13.62-24.37q-10.12,2.13-20.15,5Zm11.47,329.65q-3.59-1.43-6.45-2.87-1.44,3.59-17.92,37.26a67.84,67.84,0,0,1,7.88,2.15q9.29-25.06,16.47-36.54Zm21.5-336.82-2.87.72q-7.89,10-16.48,28.67l-10,22.22-1.43,2.87,5.73-2.15a.63.63,0,0,1,.72-.72q9.93-19.36,24.31-51.6Zm-14.33,339q-7.17,10.75-16.48,35.11a20.82,20.82,0,0,0,5,.72,102.87,102.87,0,0,1,10-15q7.88-11.46,16.48-17.92a75.61,75.61,0,0,1-15.07-2.94Zm66.65-92.45q-23.65-10.75-42.28-3.58T3752,488.64q-10,17.2-5,30.1t28.67,14.33q14.33.72,23.65-2.87t20.78-13.62q4.31-31.51,3.59-50.15Zm-42.28,96.75q-9.32,5-20.07,20.78a106.32,106.32,0,0,0-7.88,12.18q8.6.72,17.2.72A335.51,335.51,0,0,1,3785,561.74h-2.15a1.27,1.27,0,0,1-1.44,1.43Zm11.47-345.42a118.45,118.45,0,0,0-12.9.72q-14.35,32.25-24.37,50.88a67.26,67.26,0,0,1,7.88-2.15q4.3-10.75,17.2-30.1,8.57-12.92,12.16-19.37Zm7.88-.72q-3.59,8.6-14.33,23.65-10.75,15.77-14.33,24.37,7.16-1.43,14.33-2.15,5.73-7.15,28.67-45.15a132.4,132.4,0,0,0-14.37-.78Zm-6.45,214.27q20.78-36.55,29.38-46.58a41.75,41.75,0,0,0-7.17-2.15q-13.62,10-28.67,30.82-4.3,5.74-15,21.5l-.72.72a59.27,59.27,0,0,1,22.15-4.33Zm-17.92-15,5.73-7.17q12.9-18.63,25.08-28.67a125.26,125.26,0,0,0-13.62-.72q-3.61,15.72-17.22,36.49Zm26.52,143.33-10,1.43a310.18,310.18,0,0,0-14.33,35.83,91.77,91.77,0,0,0,11.47-.72q9.24-20.84,12.83-36.61Zm27.23-340.4a37.09,37.09,0,0,0-7.17-.72q-26.52,43-27.23,44.43h3.58q1.41-1.49,30.79-43.78Zm-19.35,337.53q-2.87,16.49-12.9,38.7h1.43q10.75-21.5,25.08-45.86a125.58,125.58,0,0,1-13.64,7.09ZM3818,433.46q17.2-25.8,22.93-41.56a101.15,101.15,0,0,0-10-5q-9.32,10.75-27.95,44.43A57.26,57.26,0,0,1,3818,433.46Zm28.67-209.26a30.51,30.51,0,0,0-8.6-2.87q-2.87,4.3-14.33,19.35l-16.48,22.93,7.17,1.43a2.88,2.88,0,0,0,2.15.72q13.55-20,30.05-41.55ZM3833,548.84q-14.34,24.37-25.08,45.86,5.73-.7,12.18-1.43a336.06,336.06,0,0,1,23.65-44.43q14.33-22.93,34.76-50.16t29-40.13l.72-21.5v-2.87l-60.2,91-1.43,11.47Q3845.18,548.13,3833,548.84Zm20.78-322.48q-17.2,22.22-30.1,42.28a76.19,76.19,0,0,1,11.47,7.17q10-18.63,27.95-43.71-4.29-2.87-9.31-5.74Zm-28.67,209.26,1.43.72q4.3-5,17.92-20.07l20.78-21.5q6.45-7.88,16.84-20.42t18.27-23.29q7.88-10.75,14.33-21.5a117.72,117.72,0,0,0-2.15-13.62q-6.45,7.89-24.37,25.08-15,13.62-21.5,22.93v16.48a11.78,11.78,0,0,1-2.15,8.6q-5.75,10.75-17.2,6.45-6.42,15.77-22.18,40.13Zm80.26,60.91q.71-11.46,1.43-24.37L3880.31,508q-20.07,28-31.89,46.94A345,345,0,0,0,3828,592.56a30.1,30.1,0,0,1,3.58,1.43,15.85,15.85,0,0,1,6.45,2.87L3871,551q24.34-35.11,34.39-54.47Zm-71.66-57.33a28.48,28.48,0,0,1,6.45,3.58,11.61,11.61,0,0,1,2.87,2.15,19.44,19.44,0,0,1,5,3.58q2.15-2.15,28.67-34.4,22.93-27.95,33.68-46.58,1.43-2.86,4.3-2.15a198.22,198.22,0,0,0,0-23.65,193.71,193.71,0,0,1-13.26,20.07q-7.52,10-17.56,21.5l-15.77,17.92L3849.49,422q-12.19,13.62-15.76,17.2Zm43-197.07a52.33,52.33,0,0,0-7.88-6.45q-18.64,25.8-28.67,45.15l4.3,4.3q24.37-30.81,32.26-43ZM3904,513q-10,17.2-27.23,42.28l-34.4,47.3a12.8,12.8,0,0,1,1.43,5.73v7.17q30.8-35.83,59.48-88.86A125.1,125.1,0,0,0,3904,513Zm-4.3,55.9q1.43-12.18,2.15-25.08-30.1,51.6-58,81.7l.72,2.15q7.16.71,16.48.72a447.43,447.43,0,0,1,38.61-59.48Zm-11.47-313.17a102.52,102.52,0,0,0-6.45-8.6q-7.17,11.47-33,44.43l5,8.6q12.91-22.16,34.41-44.42ZM3852.4,483.62q-.72,11.47-2.15,25.08l26.52-40.13,33-49.45a47.88,47.88,0,0,1,.72-7.88q-27.33,36.56-58.13,72.39Zm-.72-27.23q.71,7.17.72,15.77,32.25-38,58.76-74.53,2.15-15.76,2.15-22.22-10,17.92-30.82,43.71-28,33-30.85,37.28Zm45.87-186.32a81.37,81.37,0,0,0-5-8.6q-22.94,23.65-35.83,46.58a53,53,0,0,1,2.15,6.45q22.86-25.07,38.64-44.43Zm3.58,7.17q-15.77,19.35-40.13,45.15a109.38,109.38,0,0,1,2.15,10.75L3881,310.92q15.75-18.63,21.5-29.38Zm5,12.9q-5,8.6-19.35,25.08-16.49,19.35-22.21,28.67.7,5,1.43,9.32,5.73-6.45,17.2-17.2Q3904,316,3911.15,306.63a6.29,6.29,0,0,1-.72-2.87q-2.17-7.16-4.32-13.62Zm-7.88,292.39a430,430,0,0,0-29.38,45.86h22.93q3.55-21.5,6.42-45.87Z"/>
  <path d="M4143.3,642h-39.42q-6.45,0-18.27-1.08a104.44,104.44,0,0,1-21.14-3.94,13.18,13.18,0,0,1-8.6-6.45,14,14,0,0,1-1.43-10.75v-.72a20.89,20.89,0,0,1-.72-5q0-44.43,7.17-142.61t8.6-126.84q-14.35,0-47.66-1.43t-51.24-1.43a14.7,14.7,0,0,1-14.33-14.33,14.15,14.15,0,0,1,1.43-6.45V260a15.69,15.69,0,0,1,3.94-10.39,12.2,12.2,0,0,1,9.67-4.66,16.55,16.55,0,0,1,9.32,2.87,6.41,6.41,0,0,1,2.87-.72q13.6-.71,84.56,0,1.43-8.6,7.88-49.45,5.73-38,12.9-60.2a10.61,10.61,0,0,1,2.87-5,14.55,14.55,0,0,1,4.66-9.32,13.85,13.85,0,0,1,9.67-3.58h61a15.06,15.06,0,0,1,7.88,2.15,12.39,12.39,0,0,1,9,3.94,15.69,15.69,0,0,1,4.66,9q2.15,22.22-5,60.91L4176.27,240q11.46,0,32.25,2.15,29.38,2.15,44.43,2.15a19.15,19.15,0,0,1,20.78,15q1.43,16.49,1.43,60.2a15,15,0,0,1-2.15,7.88,14.7,14.7,0,0,1-14.33,14.33q-15.77,0-46.58,1.43-23.65,1.44-36.55,2.15-1.44,22.22-5,63.06-5,50.89-6.45,74.53-.72,12.9-2.15,62.71t-3.58,77a12,12,0,0,1-.72,3.58v1.43A14.7,14.7,0,0,1,4143.3,642ZM3986.36,313.07q6.45-5.73,19.35-18.63,12.18-12.9,19.35-19.35h-13.62q-5.74,5-25.08,26.52Zm0-22.21,15-15.77a132.5,132.5,0,0,0-14.33.72q.05,6.44-.67,15Zm25.8,22.93q17.9-18.63,33.68-38a99.48,99.48,0,0,0-10-.72q-9.32,7.89-25.08,24.37l-14.33,14.33Zm24.37,1.43q16.48-15,33.68-39.42h-15.77q-15,19.35-33,38.7Zm15.77,0q17.2-16.48,48-40.13,43-32.25,47.3-35.83.71-7.88,2.15-17.92-25.09,15.77-55.9,41.56a9.2,9.2,0,0,1-3.58,5.73q-3.59,6.45-11.47,7.17-17.2,24.37-32.25,39.42Zm35.83,2.15q17.9-20.78,60.2-58a12.59,12.59,0,0,1-1.43-5.73v-5l-42.28,32.25q-27.24,20.79-42.28,35.12h17.2a13.72,13.72,0,0,1,4.3.72h1.43a6.5,6.5,0,0,1,2.85.64ZM4082.39,589l50.88-38V538.81q-47.3,35.12-50.16,38A112.49,112.49,0,0,1,4082.39,589Zm0,15.77q5-2.85,25.08-17.2,15.75-10.75,25.08-18.63a51.74,51.74,0,0,1,.72-8.6l-50.88,37.27Zm.72-38,27.23-20.07L4134,529.5v-10a354.45,354.45,0,0,0-50.17,34.4,118.73,118.73,0,0,1-.71,12.86Zm1.43-22.93a370.67,370.67,0,0,1,49.45-33,112.43,112.43,0,0,0,.72-12.18q-30.1,21.5-48,40.13a2.91,2.91,0,0,1-2.15.72Zm.72-14.33q18.63-17.9,50.16-40.13V477.89q-20.79,12.19-49.45,38a136,136,0,0,0-.71,13.6Zm15,83.85q5-3.58,12.9-8.6l18.63-12.9a136,136,0,0,1,.72-13.62q-7.89,6.45-20.78,15l-26.52,18.63q6.49.76,15.09,1.47Zm-13.62-107.5q27.95-25.08,49.45-36.55a51.79,51.79,0,0,1,.72-8.6,188,188,0,0,1-19.35,17.92l-19.35,16.48-11.47,9.32Zm.72-11.47,5.73-5,20.07-16.48q16.48-14.33,24.37-24.37.7-10,2.15-22.93l-18.63,17.92q-24.37,24.37-32.25,31.53Zm2.15-30.1,26.52-25.8q15-15,25.08-23.65l.72-9.32.72-11.47q-7.17,7.17-24.72,22.57t-26.16,24.72Zm2.87-33.68q7.16-7.16,20.78-19.35,22.2-19.35,30.82-29.38.71-10.75,1.43-20.07a251.93,251.93,0,0,0-20.78,20.07l-30.82,32.25ZM4094.57,321a14.58,14.58,0,0,1,4.3,10.75v7.17l9.32-9.32,11.47-10.75a134.39,134.39,0,0,0,9.32-10q24.35-23.65,35.11-40.85h-2.87a13.31,13.31,0,0,1-8.6-2.87Q4111.77,300.9,4094.57,321Zm0,82.41,7.88-7.88q4.3-4.3,9.32-10t7.88-8.6a298.26,298.26,0,0,1,26.51-25.08l1.43-21.5V328.2l-51.6,53ZM4151.9,212l3.58-19.35q-12.19,7.17-28.67,22.22-24.37,22.22-28.67,25.8-.72,5.75-1.43,10.75Q4126.1,227.08,4151.9,212Zm-5,107.5v-1.43q14.33-13.6,34.4-49.45a53,53,0,0,0-8.6-.72q-11.49,20.1-38.7,45.89-32.25,32.25-35.83,36.55-.72,9.32-1.43,20.07l22.93-22.93Zm10-136.16q1.43-10.75,2.15-18.63-8.6,7.17-26.52,20.78L4103.89,207l-3.58,22.22,22.21-20.07q19.35-17.9,34.4-25.79Zm2.87-28.67a33.82,33.82,0,0,0,.72-6.45,92.35,92.35,0,0,0-15,7.88q-7.89,5-12.18,8.24T4119,176.17q-10,8.6-12.18,10.75l-1.43,10,22.93-17.2q20-15,31.49-25Zm-27.23-6.45a221.87,221.87,0,0,1-22.22,19.35c-.48,2.4-1,5-1.43,7.88q22.92-20.06,35.11-27.23Zm-20.07,465.09h17.92a106,106,0,0,0,.72-12.9l-14.33,10Zm9.32-465.09h-6.45a67.24,67.24,0,0,1-2.15,7.88Zm36.55,169.12a13.75,13.75,0,0,1,4.3-.72h11.47a3.23,3.23,0,0,1,.72-3.58l12.9-20.07L4201.35,270c-4.78-.47-8.6-.72-11.47-.72q-20.07,34.43-31.53,48Zm43-2.15a2.91,2.91,0,0,1,.72-2.15A226.4,226.4,0,0,1,4230,272.22q-7.89-.71-20.07-1.43-5.75,7.89-15,23.65l-13.62,22.22q7.85-.71,20-1.44Zm25.08-1.43a238.07,238.07,0,0,1,14.33-23.65l5.73-8.6a51.84,51.84,0,0,1-.72-8.6h-6.45q-16.49,17.2-30.82,42.28h2.15q10.05-.68,15.79-1.4Zm8.6,0a93.8,93.8,0,0,1,11.47-.72v-18.6A216.36,216.36,0,0,0,4235,313.79Z"/>
  <path d="M724,182.76a78.58,78.58,0,0,1-11.67,40c-1.1,1.79-1,2.75.51,4.27q33.84,33.65,67.57,67.42c3.22,3.21,5.78,6.63,5.72,11.39a15.86,15.86,0,0,1-.44,3.66c-2.23,8.85-13,16-21,13.61a16.55,16.55,0,0,1-6.54-4c-10.59-10.36-21-20.88-31.48-31.36q-19.05-19.06-38.07-38.15c-1-1-1.64-.72-2.63-.12-20.75,12.56-43,15.82-66,8.41-30.58-9.85-49.93-31-55.38-62.71-6-35,7.09-62.89,36.67-82.46,14.42-9.54,30.77-13.33,48.06-11.84,28.51,2.44,50,16.29,64.44,40.91C721.14,154.36,724.27,168.18,724,182.76ZM588.94,181a54.68,54.68,0,1,0,0-1.43Q588.94,180.28,588.94,181Z"/>
  <polygon points="3272.58 75.9 3327.71 91.81 3282.08 127.82 3284.62 187.47 3237.72 153.29 3184.17 174.25 3200.81 117.12 3165.17 70.42 3222.35 69.29 3253.88 19.47 3272.58 75.9" fill="#d22020"/>
</svg>
