<svg id="Layer_1" data-name="Layer 1" xmlns="http://www.w3.org/2000/svg" width="3888.4" height="494.32" viewBox="0 0 3888.4 494.32">
  <title>followUs</title>
  <g>
    <path d="M1487.7,142.81q-7.09,17.63-22,51.44-15.24,34.89-21.23,49.93-49.07,123.55-73.67,194.73a24.48,24.48,0,0,1-3.62,7q-2.16,2.8-3.58,2.31-1.24-.43-1.4-2.84l-18.8-6.5c-.83-.29-1.35-1.25-1.58-2.91a19.83,19.83,0,0,1,.78-8q7-26.51,20.82-64.83,14-38.83,26.47-70.55t24.79-61.09q1.81-4.09,24.11-53.65,14-31.18,21.25-52.28a31.12,31.12,0,0,1,2.54-5.62,25.72,25.72,0,0,1,3.43-6.19c1.32-1.7,2.45-2.4,3.4-2.07a18,18,0,0,1,5.84,3.5q2.82,2.46,6.27,6a52.84,52.84,0,0,0,4.85,4.63q.88.9.86,3.84a2.54,2.54,0,0,1,1.6,0q1.23,1,.94,4.75A30.45,30.45,0,0,1,1487.7,142.81Zm-98.46,222.77q1.81-4.69,3.45-8.84a53.19,53.19,0,0,1-7.07-5.4q-5.13-4.13-8-5.11l-4.55,12Q1376.11,361,1389.24,365.58Zm-5.09,13.59,3.27-8.32q-13.13-4.54-16.13-7.35l-2.19,6.33A54.76,54.76,0,0,1,1384.15,379.17Zm-4,11c.85-2.07,1.57-4,2.18-5.74a54.71,54.71,0,0,0-15-9.33L1364,384.6Zm-4.37,12.07q1.27-3.1,2.55-6.79l-16.14-5.58q-1.29,4.29-2.56,8,3,1,8.79,2.45C1372.25,401.24,1374.71,401.88,1375.77,402.25Zm18.75-50.78,4.18-11q-5.84-4.37-15-10.51l-4.18,11q3,1,8.14,5.76Q1392.22,350.08,1394.52,351.47ZM1371,415.37q1.45-3.62,2.91-7.85-1.6-.55-7.28-1.93t-8.7-2.42q-1.09,3.16-1.83,5.86Q1360.74,411.82,1371,415.37Zm-1.82,5.27q-10.11-3.5-14.71-6.27c-.37,1.45-.8,2.88-1.28,4.28l14.9,5.15Zm31.49-85.34,4.55-12a30.06,30.06,0,0,0-4.07-2.59,22.28,22.28,0,0,1-3.89-2.53q-5-2.3-8.52-1.77-1.64,4.17-3.09,8.38Q1394.86,330.93,1400.7,335.3Zm6.55-17.22,3.27-8.32q-3.34-5.28-14.3-12.62-2.55,6.8-5.45,14.05a15.68,15.68,0,0,1,8.52,1.77,26.14,26.14,0,0,0,3.71,2.76A22.06,22.06,0,0,0,1407.25,318.08Zm5.27-13.53,4.72-11.94q-1.24-1-6.89-5.92a74.87,74.87,0,0,0-8-5.11l-4,10.43Q1409,299.21,1412.52,304.56Zm6.73-17.16,3.27-8.31q-1.42-1.07-5.9-6.76t-7.14-8.37l-4.91,12.47a46,46,0,0,1,7.78,5.64Q1418.18,286.45,1419.25,287.4Zm5.27-13.53,5.45-13.47a21.94,21.94,0,0,0-13.23-14l-5.08,12.41a110,110,0,0,1,7.14,8.37A61,61,0,0,0,1424.52,273.87ZM1432,255.2l3.82-9.9q-4.21-7.35-13.06-12.78-1.27,3.1-2.36,5.68l-1.45,3A24.78,24.78,0,0,1,1432,255.2Zm10.36-25.94q-5.8-9.09-12.16-13.65-2.9,6.67-5.26,11.76A38,38,0,0,1,1438,240.15l.55-1.58Q1440.33,233.88,1442.32,229.26Zm2.18-5.15q1.63-4.16,3.63-8.78a119.35,119.35,0,0,1-12-13l-3.63,8.19Q1438.71,215,1444.5,224.11Zm5.81-13.93,5.26-11.76q-1.94-2.44-12.18-11.88l-4.89,10.71A65.08,65.08,0,0,0,1450.31,210.18Zm10.88-24.58q-7.22-9.58-12.36-11.36l-3.08,7.2q9.88,9.32,11.82,12.35l2.9-6.67Zm2-4.62,5.08-11.82a93.58,93.58,0,0,1-10.72-15.51q-2.91,7.27-6.53,15.45Q1456.33,170.93,1463.18,181Zm7.43-16.91,2.54-6.21q-.18-.64-5.26-8.9-3.16-5.22-6-6.2c-.73,1.72-1.51,3.61-2.36,5.68A86.87,86.87,0,0,0,1470.62,164.06Zm4.72-11.35,2.54-6.21q-1.06-.95-5.64-5.79a36.89,36.89,0,0,0-7.24-6.34,30.43,30.43,0,0,1-1.27,3.1q3.19,1.1,6.35,6.33Q1475.34,152.13,1475.34,152.71Z"/>
    <polygon points="2671.72 69.8 2714.21 82.06 2679.04 109.81 2681 155.79 2644.85 129.45 2603.57 145.61 2616.4 101.57 2588.92 65.58 2633 64.7 2657.3 26.3 2671.72 69.8"/>
    <g>
      <path d="M1137.73,287.28q.71-15.94,0-30.82a11.55,11.55,0,0,1,.35-2.83v-.71a7.76,7.76,0,0,1,1.95-5.14,6,6,0,0,1,4.78-2.3l23.38-1.42a290.72,290.72,0,0,1,1.77-59.51q6-41.44,24.09-60.92,14.16-14.88,39.32-18.07,38.25-5,59.51,22.67Q1307,147,1313.41,180.31l1.42,2.13a7,7,0,0,1-.35,7.08,6.38,6.38,0,0,1-6,6,13,13,0,0,1-3.19-.35q-14.17,7.09-29.75,13.46h-.35a11.11,11.11,0,0,1-3.54,1.42,6.41,6.41,0,0,1-5.14-1.59,7.23,7.23,0,0,1-2.66-4.78q-1.42-14.52-12.4-32.23-5.67-9.21-11.33-9.56-5.31-.35-9.56,7.44-4.61,8.5-7.44,24.79a207.94,207.94,0,0,0-2.48,44.28q3.89-.71,10.27-1.77,10.27-1.77,14.52-2.83a7.72,7.72,0,0,1,5.67.71q4.6,1.06,5.67,6,3.89,23.38,5,31.17v1.77q.35,5.67-4.6,7.44a194.22,194.22,0,0,1-35.42,8.5Q1222,299,1221,316q-1.42,22.67-.71,33.3,1.41,21.61,9.56,59.86V412q1.06,5.66-4.25,7.79a125.9,125.9,0,0,1-12.4,4.6q-6.73,2.12-14.52,3.9t-11.33,2.83a14.48,14.48,0,0,1-11.69-9.21l-1.06-7.44q-3.55-25.5-5.31-40.38A355.09,355.09,0,0,1,1167.3,336a207.25,207.25,0,0,1,3.36-41.27l-23,2.83q-5.31.36-7.08-4.25A7.7,7.7,0,0,1,1137.73,287.28Zm16.29-28h-2.12q.35,11.34,0,23.38h1.77Q1153.67,262.85,1154,259.3Zm4.61-.35h-1.06q-.71,3.9-.35,23.38l1.06-.35Q1159,270.64,1158.62,258.95Zm6.73-.71-3.19.35q.35,11.69-.35,23l3.54-.35Zm5.67-.35-2.12.35v22.67l2.12-.35Q1170.66,262.49,1171,257.89Zm6,2.48v-2.83h-2.48q-.36,5.31,0,22.32h1.06a2,2,0,0,1,1.42-.71v-5a1.72,1.72,0,0,1-1.06-2.12,2.27,2.27,0,0,1,1.06-1.42v-6.73h-.35c-1.18-.47-1.65-1.18-1.42-2.12A1.67,1.67,0,0,1,1177,260.36Zm31.52,0q-.36-3.19-.71-5.67H1205a23.8,23.8,0,0,1-4.07.71,42.83,42.83,0,0,1-4.78.35,65.7,65.7,0,0,1-15.58-.35v5.67Q1188,262.49,1208.57,260.36Zm1.06,9.92-.71-6.38q-20.55,2.12-28.34.71V271a60.72,60.72,0,0,0,9.39.53q3-.18,9.56-.71T1209.63,270.28Zm0,3.54q-2.84,0-9.39.53t-9.74.53q-3.19,0-9.92-.35v4.6q20.9.36,27.63-1.06a6.36,6.36,0,0,1,1.77-1.77Zm-28.34,8.86a7.84,7.84,0,0,1,1.42,3.19v1.42a7.9,7.9,0,0,1,2.48,3.19q8.85-1.41,22.32-2.83a35.62,35.62,0,0,0-.35-5V282Q1200.06,283,1181.29,282.68Zm0,46.4q6.38.71,24.79.35,0-2.83.35-6.38-16.65-.35-24.79,1.06A34.72,34.72,0,0,0,1181.29,329.08Zm0,7.08q3.19.36,23,.35a1.43,1.43,0,0,1,1.42.71V333q-18.06.36-24.44-.35Zm0,9.21q3.19,0,11.51-.18t12.93-.18v-5.67a1.42,1.42,0,0,1-1.42.71q-19.84,0-23-.35Zm.35-128.22q6.72.36,24.79,0a25.63,25.63,0,0,1,.35-4.25q-4.61,0-12.93.18t-12.22.18Zm0,7.08q2.12,0,24.44.71a26.2,26.2,0,0,0,.35-4.25q-18.06.36-24.79,0Zm.35,11.69h24.44a74.19,74.19,0,0,1-.35-7.44q-22.31-.71-24.44-.71Q1181.65,232,1182,235.92Zm-.35,84.66q8.5-1.41,24.79-1.06l.35-4.25v-.71A222.64,222.64,0,0,0,1182,318.1,7.82,7.82,0,0,0,1181.65,320.58Zm0,31.17q8.14-.35,24.44-.35v-2.83q-4.61,0-13.11.18t-11.33.18Zm.35-142q3.54,0,12-.18t13.11-.18a34.83,34.83,0,0,1,.35-5q-18.42.36-25.15,0A37.39,37.39,0,0,0,1182,209.71Zm.35,35.07q17.71.71,24.44,0a37.29,37.29,0,0,1-.35-5.31H1182A43.76,43.76,0,0,1,1182.36,244.78Zm0,116.18q8.5,1.06,24.79-.35l-.71-5.67q-16.65,0-24.44.35A45.26,45.26,0,0,0,1182.36,361Zm25.15-109.8-.35-2.83q-7.09.71-24.44,0v1.42a8,8,0,0,1-.35,2.48,63,63,0,0,0,13.46,0,42.85,42.85,0,0,0,4.78-.35,23.8,23.8,0,0,0,4.07-.71Zm-25.15,63q14.88-2.47,24.79-3.19v-3.54q-18.42.71-24.09.35Zm.35-113.35q6.38.36,25.15,0,.35-2.12.71-4.6a253.46,253.46,0,0,0-25.86,1.77Zm.35,167.89q4.25.36,24.79,0a28.48,28.48,0,0,0-.35-4.6q-15.94,1.42-24.79.71Zm0-174.27q11.33-1.41,25.86-1.77l.35-1.06a13.1,13.1,0,0,1,.35-3.19q-9.92,0-25.86,1.06Zm.35,109.8q5.31.36,24.09-.35v-2.48q-22,2.12-24.09,2.48Zm.71,74q2.83,0,9.56-.71,10.27-1.06,15.59-1.06l-.71-4.25q-21.25.36-25.15,0C1183.65,374.19,1183.89,376.19,1184.13,378.32Zm0-192.33q15.94-1.06,26.21-1.06l.35-.71q-4.61-.35-13.11-.71t-12.75-.71Q1184.48,184.21,1184.13,186Zm0,114.41q1.41-.35,23.38-2.48a32.52,32.52,0,0,0,0-6.73q-13.47,1.42-22,2.83v.35Q1184.83,297.21,1184.13,300.39Zm.71,85.36q10.27,1.06,25.5-2.48l-.71-3.19q-5,0-15.58,1.06a93.67,93.67,0,0,1-9.56.71Zm.35-206.5q4.25.36,12.4.71,9.21.71,13.81.71a55.89,55.89,0,0,1,1.77-6.73q-17-3.19-26.21-2.83Q1186.25,175,1185.19,179.25Zm1.06,216.42a81.26,81.26,0,0,1,13.81-2.12,52.74,52.74,0,0,1,6-.53,43.2,43.2,0,0,0,5.67-.53l-1.06-5.67q-14.88,3.54-25.15,2.48Zm1.06,7.08q21.6-3.9,25.5-5l-.35-1.77a44.57,44.57,0,0,1-5.84.53,54.36,54.36,0,0,0-6.2.53,66.46,66.46,0,0,0-13.46,2.12Zm1.06,7.79q5-.71,26.21-5l-1.06-4.25q-4.61,1.41-25.86,5Zm-.35-243q9.21-.35,26.21,3.19a19.68,19.68,0,0,0,1.06-2.48q-3.9-1.06-9.56-2.83-13.46-5-15.58-5.67Zm.71,246.53.35,1.77q19.83-5.31,23.73-6Q1194.75,413.38,1188.73,414.09Zm2.48-257.51,15.94,5.31q5.66,2.13,9.56,3.19l1.42-2.83,1.06-1.42a46.37,46.37,0,0,1-14.17-4.6q-8.86-4.6-11.33-5.31A31.43,31.43,0,0,0,1191.21,156.58Zm3.9-8.86a118.18,118.18,0,0,1,11.69,5q8.5,4.25,14.52,5a9.75,9.75,0,0,1,2.48-2.83q-4.25-2.47-9.92-6.38l-8.15-6q-3.19-2.12-5.67-3.54A98.48,98.48,0,0,0,1195.11,147.73Zm7.08-11.69,5.31,3.54,8.15,6a84.06,84.06,0,0,0,11,6.38,22.62,22.62,0,0,0,2.48-1.42q-12-17.35-18.77-22a28.47,28.47,0,0,0-5.67,5A12.36,12.36,0,0,0,1202.19,136Zm11,137.43.35,1.42a9.43,9.43,0,0,1,4.25,1.06l1.42-.35a94.89,94.89,0,0,1-2.48-12.4,20.76,20.76,0,0,1-.89-4.25c-.35-2.36-.65-4.25-.89-5.67a1.39,1.39,0,0,1-1.42,1.06h-2.12q.71,4.61,1.77,16.29a1.43,1.43,0,0,1,.71,1.42A2,2,0,0,1,1213.17,273.47Zm.35-147q7.08,5.31,18.77,22.67l.35-.35q-2.12-3.19-5.31-9.21-6-11.33-9.56-15.23A35.33,35.33,0,0,0,1213.53,126.47Zm11.69,148.06a110.63,110.63,0,0,1-4.6-21.61l-2.13.35c.23,1.18.53,2.9.89,5.14a19.81,19.81,0,0,0,.89,4.07,80.74,80.74,0,0,0,2.48,12.4ZM1221,122.93q3.54,4.25,9.21,14.88,3.89,7.09,6,10.27h.35q-.36-2.47-1.06-6.91a30.62,30.62,0,0,0-1.06-5.14,93,93,0,0,0-3.9-15.58Q1225.56,121.52,1221,122.93Zm12.75,149.83q-1.42-3.89-5.67-21.61a31.55,31.55,0,0,1-3.9,1.06,110.68,110.68,0,0,0,4.6,21.61A36.16,36.16,0,0,0,1233.72,272.76Zm6.73-1.77q-3.19-9.91-5.67-20.9l-1.77.35-1.42.35q4.25,17.36,5.67,21.25Zm-6.38-151.25a93.11,93.11,0,0,1,3.9,15.58,52.68,52.68,0,0,0,.89,5.31q.88,4.61,1.59,7.08h1.42q0-19.83-1.77-28.34a28.43,28.43,0,0,0-4.6.35ZM1244,270.28l2.83-1.06-3.19-20.54q-2.13.36-5.31.71Q1240.79,260.37,1244,270.28ZM1243.63,119q1.77,9.22,1.77,29.4a5.74,5.74,0,0,0,1.77.35,146.25,146.25,0,0,0,2.83-29.4A58.58,58.58,0,0,0,1243.63,119Zm9.92.71a141.73,141.73,0,0,1-3.19,30.46l1.42.71q.71-1.06,2.83-5.31t3.19-6.73q4.6-9.56,5-16.29v-.35A87.56,87.56,0,0,0,1253.55,119.75ZM1266.3,124q-.71,6.73-5.31,16.65l-3.19,6.73a43.15,43.15,0,0,1-3.19,5.67,23.55,23.55,0,0,1,2.48,2.12,100.28,100.28,0,0,1,9.21-12.75q7.08-8.5,9.56-11.69A41.7,41.7,0,0,0,1266.3,124Zm12,9.21q-2.12,2.84-9.21,11.69a76.87,76.87,0,0,0-9.56,13.11c.71,1.18,1.53,2.48,2.48,3.9q6-8.14,23.38-19.48a44.65,44.65,0,0,0-3.9-5.31A25.83,25.83,0,0,0,1278.35,133.2Zm8.86,12.4q-17.72,11.69-23,19.48l2.48,4.25q7.79-7.44,24.79-14.88Q1289.33,149.5,1287.2,145.6Zm5.31,12q-16.65,7.44-23.73,14.88h-.35l2.83,5.67q5-3.54,12.75-8.15l10.63-6A34.17,34.17,0,0,0,1292.51,157.64Zm3.19,9.92-9.92,5.67-13.11,8.15c.71,1.89,1.29,3.66,1.77,5.31q2.12-1.06,11-6.73,7.08-5,12-6.38A45.63,45.63,0,0,0,1295.7,167.56Zm2.48,9.56a54.38,54.38,0,0,0-11,5.67q-8.86,6-11.69,7.08.35,1.78.71,3.19,12-5,23-10.63A50.72,50.72,0,0,1,1298.18,177.13Z"/>
      <path d="M1413.29,171.1a6.23,6.23,0,0,1,4.6-1.77q49.59,0,76.51,32.94,23.73,29.4,21.61,72.26a128.18,128.18,0,0,1-8.15,38.61,132.24,132.24,0,0,1-19.3,34.54,96.88,96.88,0,0,1-30.82,25.86,101.54,101.54,0,0,1-40.91,11.87q-25.15,1.77-45.87-6.38t-33.47-23.38A109.71,109.71,0,0,1,1318,321.29a112.63,112.63,0,0,1-6.38-39.67,116.28,116.28,0,0,1,6.55-38.61A118.7,118.7,0,0,1,1337,208.65Q1349.18,193.07,1369,183T1413.29,171.1ZM1325.8,286.93q15.23-1.06,24.79-3.9.35-3.19.71-6.73a178.66,178.66,0,0,0-25.5,2.13v8.5Zm.35-12a181.06,181.06,0,0,1,25.86-2.12,47.53,47.53,0,0,1,2.13-7.79q-8.86.36-9.21.35a136.3,136.3,0,0,1-17.71-.35Q1326.51,269.93,1326.16,274.89Zm1.42,28.69,23.38-8.86q-.36-3.89-.35-7.79a139.55,139.55,0,0,1-24.44,3.54A116.27,116.27,0,0,0,1327.58,303.58Zm.35-42.15a120.84,120.84,0,0,0,16.65.35c1.42,0,3.36-.06,5.84-.18s4.07-.18,4.78-.18l1.06-1.77a22.36,22.36,0,0,1,2.12-5q-4.61-.71-12.4-1.42-11.69-1.41-15.59-2.12Q1329,256.47,1327.93,261.43Zm2.48,53.13,10.27-6q7.08-4.25,11.33-7.08-.36-1.77-.71-3.19l-23,8.86Zm1.06-66.59q3.54.36,14.88,1.77a112.22,112.22,0,0,1,13.46,1.77l2.83-4.25q-11.34-2.47-30.11-2.48A25.51,25.51,0,0,1,1331.47,248Zm3.54,78.28q16.29-11.69,20.54-14.17a41,41,0,0,1-1.77-5l-.71-2.13q-4.25,2.84-10.63,6.73l-11,6.38Zm-1.06-85q19.13,0,30.82,2.83l1.42-2.12q-19.84-3.54-28.69-8.15Zm7.44,96a52.44,52.44,0,0,1,9.56-9.92q3.54-3.19,9.21-7.44-1.42-2.12-2.83-4.6-3.9,2.12-20.9,14.17A43.38,43.38,0,0,0,1341.39,337.23ZM1339.26,231q8.14,3.9,29.4,7.79a42.85,42.85,0,0,1,3.19-3.54q-4.25-1.77-12-5.67a141.71,141.71,0,0,0-15.23-7.08A74,74,0,0,0,1339.26,231Zm9.92,116.53a83.26,83.26,0,0,1,8.15-11.69q6.72-8.14,7.79-9.92a16.17,16.17,0,0,1-2.48-3.19q-6,4.25-9.56,7.08a53.76,53.76,0,0,0-9.56,10.63Q1346.35,344.32,1349.18,347.5Zm-2.48-127.87a131.29,131.29,0,0,1,14.52,6.73q8.85,4.25,13.46,6a26.48,26.48,0,0,1,2.83-2.48l-8.86-9.21q-7.44-7.79-13.11-11A69.79,69.79,0,0,0,1346.7,219.63Zm9.56,134.24a69.43,69.43,0,0,1,8.5-14.17l6.38-8.5a36.64,36.64,0,0,1-3.19-2.83l-7.79,9.56q-6,7.09-8.15,12.4Zm2.12-146.64a69.58,69.58,0,0,1,12.75,11l9.21,9.21,2.12-1.06a113.33,113.33,0,0,0-6.73-9.56q-7.09-10.27-9.92-15.23A55.93,55.93,0,0,0,1358.39,207.23ZM1366.18,361q1.77-5.31,8.5-17.36,2.83-4.6,4.25-7.44-2.48-1.41-4.6-2.83l-6.73,8.5q-6.38,8.5-8.5,14.52A52,52,0,0,0,1366.18,361Zm54.9-129.29a37.78,37.78,0,0,0-30.64,6.2q-14,9.75-21.08,27.1-8.5,20.19-2.48,37.55,6.73,18.42,28.34,24.79,19.83,5.31,35.07-5.67t21.25-31.17q6-19.83-.71-36.13-6.73-15.94-25.15-19.48A7.84,7.84,0,0,1,1421.09,231.67Zm-52.42-32.23q2.83,5,9.92,15.23a113.47,113.47,0,0,1,6.73,9.56l4.25-2.12-6.73-12.75q-4.25-8.5-7.44-13.81Zm8.15,166.48q2.12-6.72,11-26.21l-5.67-2.12q-1.42,3.19-4.25,8.15-6.73,11.34-8.5,16.65l-.35.35Q1372.91,364.51,1376.81,365.92Zm1.77-171.79a149.52,149.52,0,0,1,7.44,13.46l6.73,13.11,3.54-1.42a.32.32,0,0,0-.35-.35,114.19,114.19,0,0,1-4.6-16.65l-3.19-12Q1383.18,192,1378.58,194.13Zm10.27,175.33q1.06-4.6,3.9-13.11,2.83-9.56,3.9-14.17l-5-1.42h-.35q-9.21,19.84-11.33,26.57A53.43,53.43,0,0,0,1388.85,369.46Zm2.48-180.29q1.41,4.25,3.19,12.4a120.94,120.94,0,0,0,5,15.94v.71l3.54-.71q0-21.25-1.06-30.82Q1396.65,187.75,1391.33,189.17Zm7.08,182.06q0-1.06,1.42-13.46,1.06-9.56,3.19-14.88a11.52,11.52,0,0,1-2.83-.35l-4.25,14.88q-2.84,9.92-3.54,12.75A44.42,44.42,0,0,0,1398.42,371.23Zm9.92.35q.35-5,3.19-28.69a27.81,27.81,0,0,1-4.6.35q-2.48,4.61-3.54,14.88-1.42,12.4-1.42,13.11A57.28,57.28,0,0,0,1408.33,371.59Zm-2.83-185.25q1.06,9.56,1.06,30.46a35.6,35.6,0,0,1,5-.35,90.11,90.11,0,0,0,1.06-15.23V185.27Q1409,185.63,1405.5,186.34Zm17,184.19q-.71-3.54-3.19-13.11-2.12-9.56-3.9-14.88h-.35v.71q-2.84,24.09-3.19,28.34a26.2,26.2,0,0,1,4.25-.35Zm2.13-185.6h-1.42q-3.55,0-7.08.35v15.94a90.12,90.12,0,0,1-1.06,15.23l5.67.71a104.62,104.62,0,0,0,2.12-15.58Q1424.27,186.34,1424.63,184.92Zm11,182.77q-3.19-8.14-9.56-28a40.18,40.18,0,0,1-7.08,2.13q1.41,5.67,3.9,14.52,2.47,9.92,3.19,13.46A62.25,62.25,0,0,0,1435.61,367.69Zm-.35-182.77a57.11,57.11,0,0,0-7.08-1.06q-.36,2.48-1.77,18.06a104.68,104.68,0,0,1-2.13,15.58,19.42,19.42,0,0,0,3.54,1.06Q1429.23,207.59,1435.25,184.92Zm11.33,178.52a92.14,92.14,0,0,1-12.75-27.27l-4.25,2.12q6.37,20.55,9.56,28A59,59,0,0,0,1446.59,363.44Zm-1.77-176.75q-2.84-.71-6-1.42-6.38,23.74-7.44,34.36a18.18,18.18,0,0,0,2.48,1.06l3.19-11q1.77-5.66,4.25-12.4T1444.82,186.69Zm11.33,3.9-7.79-2.83-5,14.17q-4.61,13.47-6.38,20.19l1.06.35a7.14,7.14,0,0,1,2.48,2.13l1.77.71q1.41-3.54,7.08-15.23Q1455.08,197.67,1456.15,190.59Zm-1.06,167.89q0-.71-8.85-14.88a52.6,52.6,0,0,1-5.67-12A32.68,32.68,0,0,1,1437,334a96.86,96.86,0,0,0,12.75,27.63A39.05,39.05,0,0,0,1455.09,358.48Zm11-8.15a306.64,306.64,0,0,0-19.13-24.09,38.25,38.25,0,0,1-3.19,2.83q.71,5,5.67,12.75,8.5,14.17,8.85,14.52A57.56,57.56,0,0,0,1466.07,350.33Zm-1.42-155.14a23.11,23.11,0,0,0-5.31-2.83q-1.06,7.09-6.91,19.13t-6.91,15.58a36.25,36.25,0,0,0,3.19,2.13Q1461.11,207.59,1464.65,195.19Zm11,145.58a90.21,90.21,0,0,1-22.67-22,36.68,36.68,0,0,1-3.9,4.6,280.82,280.82,0,0,1,19.84,24.44A64.14,64.14,0,0,0,1475.63,340.77Zm-3.19-140.27q-2.12-1.77-4.6-3.54-3.9,12.75-16.29,34.71a14,14,0,0,0,2.12,1.77Zm7.79,134.24q-3.9-2.83-24.79-19.84l-.35,1.06a.32.32,0,0,1,.35.35,93.17,93.17,0,0,0,22.32,22Zm2.48-124.33a78.7,78.7,0,0,0-7.44-7.79l-19.13,33.65a23.47,23.47,0,0,1,2.12,2.48A279.07,279.07,0,0,1,1482.72,210.42Zm-.35,121.49a79.71,79.71,0,0,0,6.38-10.63,245.59,245.59,0,0,0-29-13.11q-1.06,2.12-2.13,3.9Q1478.82,329.79,1482.36,331.91Zm6.73-112.28a30.49,30.49,0,0,0-4.25-6.38,325.94,325.94,0,0,0-24.44,28.69q5-3.19,13.11-9.56Q1485.9,221.76,1489.09,219.63Zm1.42,98.47,3.54-8.5q-4.61-1.77-16.65-3.54a98.11,98.11,0,0,1-15.23-3.54,19.72,19.72,0,0,1-1.06,2.48A271.64,271.64,0,0,1,1490.51,318.1Zm7.44-79q-1.42-4.6-3.19-8.86l-7.44,3.9q-7.8,5-9.21,5.67a56.91,56.91,0,0,1-15.58,6.38l2.12,4.25A349.34,349.34,0,0,1,1497.95,239.11Zm-2.48,67.3,2.13-7.44q-27.28-7.44-31.52-8.15a33.4,33.4,0,0,1-1.06,3.9l-1.42,4.25q4.6,2.12,14.17,3.54Q1490.86,304.64,1495.47,306.41Zm4.25-59.86a19.07,19.07,0,0,0-1.06-3.9A262.42,262.42,0,0,0,1465.72,254l.71,2.83q4.25-1.41,17.36-4.6A91.11,91.11,0,0,0,1499.72,246.55Zm-1.06,48.88q1.06-4.25,1.77-8.5-24.44-1.77-33.3-1.77a10.6,10.6,0,0,1-.35,2.48Q1471.74,288,1498.66,295.43Zm2.83-38.25q-.36-3.54-1.06-7.08a88.76,88.76,0,0,1-15.94,5.31q-13.11,3.54-17.36,5,.35,1.78.71,3.19Q1478.47,263.2,1501.49,257.18Zm-.71,26.21a49.74,49.74,0,0,0,.71-8.15,256,256,0,0,1-33.3,1.77,28.44,28.44,0,0,1-.35,4.61Q1476.69,281.62,1500.78,283.39Zm.71-22.67q-22,6-33.3,6.38a29.21,29.21,0,0,1,0,6.38,259.35,259.35,0,0,0,33.65-1.77Q1501.85,266,1501.49,260.72Zm-32.59-20.19q3.19-1.41,7.44-3.54,1.41-1.06,9.21-5.67a69.34,69.34,0,0,1,7.79-4.25,29,29,0,0,0-2.48-4.6q-2.84,2.12-15.23,12.4Q1471.73,238.41,1468.9,240.53Z"/>
      <path d="M1632.19,372.29q-33.3,15.59-78.28,21.61a7.35,7.35,0,0,1-5.49-1.42,6.63,6.63,0,0,1-2.66-4.6,5.56,5.56,0,0,1,.71-3.9q-13.81-27.63-19.48-77.57-1.78-16.64-3.54-43.92-1.78-28.33-2.83-39.32-.71-7.08-2.12-19.84l-2.12-20.19q-1.06-7.44-2.13-20.54t-.89-20.72q.17-7.61.89-20.72a7.31,7.31,0,0,1,2.13-4.25,7.64,7.64,0,0,1,4.6-2.12,1,1,0,0,0,.71-.35l41.09-7.79a7.8,7.8,0,0,1,5.31,1.24,7.19,7.19,0,0,1,3.19,4.43,7.67,7.67,0,0,1-.71,4.6q-3.19,131.06,15.59,222.44,3.19-1.06,11.33-3.54,11-3.89,17-5.67a6.18,6.18,0,0,1,3.19-1.77,7,7,0,0,1,5.31.71,6.54,6.54,0,0,1,3.19,4.25q1.77,7.09,8.15,26.92a1,1,0,0,0,.35.71,9.07,9.07,0,0,1,1.06,2.12,6,6,0,0,1,.35,5.31A6.37,6.37,0,0,1,1632.19,372.29ZM1527.7,142.41v7.44a258.64,258.64,0,0,1,22-26.21l-8.86,1.77a107.14,107.14,0,0,1-7.79,10.27Zm0-5.67,2.83-3.54q3.19-3.89,5.31-7.08l-7.79,1.77Q1527.7,132.14,1527.7,136.75Zm.71,23a98.24,98.24,0,0,1,9.21-11q13.81-15.58,18.06-22.32a.31.31,0,0,1,.35-.35,17.93,17.93,0,0,1,.35-3.54h-.71a233.63,233.63,0,0,0-27.63,33.3A23.54,23.54,0,0,0,1528.41,159.77Zm.71,9.92q5.31-7.79,26.92-29v-8.5q-3.9,5.31-15.94,18.77a163.18,163.18,0,0,0-11.33,14.17A27.85,27.85,0,0,0,1529.12,169.69Zm.35,5q.35,3.9,1.06,8.5l8.5-10.27,9.56-12a128.65,128.65,0,0,0,7.44-11V145.6q-19.48,19.13-25.5,28.34A4,4,0,0,1,1529.47,174.65Zm2.13,20.19,8.5-9.56q11.69-13.1,15.94-21.25v-7.44q-4.25,6-13.11,16.82t-12,15.05Zm1.42,11.33,9.56-11.69q9.21-11,13.11-18.42a1,1,0,0,1,.35-.71v-4.61a134.3,134.3,0,0,1-13.11,16.65q-8.5,9.56-10.63,12.4Zm.71,5,.71,8.5q8.85-10.27,22-32.23a37.28,37.28,0,0,1-.35-5.31A133.29,133.29,0,0,1,1545.41,197Q1534.79,209.71,1533.72,211.13Zm1.77,19.13,21.25-28.34q-.36-3.89-.35-7.79-12.4,20.19-21.25,30.46A51.48,51.48,0,0,0,1535.49,230.26Zm1.06,14.17,20.54-28.69q0-4.25-.35-8.15l-20.9,28Q1536.2,239.47,1536.56,244.43Zm16.29-16.65-15.94,22.32.35,3.54,6.38-9.92A92,92,0,0,0,1552.85,227.78Zm-15.23,33.65,7.08-8.86q9.21-12,13.46-20.9a70.57,70.57,0,0,1-.35-7.08q-2.84,8.86-11,21.25l-9.21,13.81Zm.71,12q11.33-18.77,20.54-29l-.35-6a131.92,131.92,0,0,1-11,16.29l-9.56,12Zm.35,6q.71,6,1.06,11.33a189.51,189.51,0,0,0,20.19-36.48l-.71-5Q1550.72,259.3,1538.68,279.49Zm1.77,20.54q13.1-20.9,20.9-29.75l-.71-8.5a171.24,171.24,0,0,1-20.54,34Zm1.06,10.27q7.44-11.33,20.9-29.4l-.71-5.67q-6,7.44-20.54,30.46Zm.71,5.67q1.06,6,1.77,11.33,3.19-6.72,9.21-16.65l11-16.65-1.06-7.79Q1550,303.58,1542.22,316Zm3.9,22q2.83-5,9.56-14.88A175.94,175.94,0,0,0,1566,307.12l-1.06-7.79-8.5,13.11q-8.5,13.81-11,21.61Zm2.48,10.27a129,129,0,0,1,9.21-15.59q7.08-10.63,9.92-15.23l-.71-4.61-8.5,12.4a160.14,160.14,0,0,0-11.33,18.06Zm1.42,5.67,1.06,3.19a84.33,84.33,0,0,1,18.77-26.92l-1.42-7.44a112.52,112.52,0,0,1-7.79,12Q1552.85,346.44,1550,353.88Zm3.54,11q5.66-12,17.36-28.34l-.35-2.12a84.41,84.41,0,0,0-17.71,27.27.31.31,0,0,0-.35.35Zm2.83,7.44a130.7,130.7,0,0,1,7.44-13.11q6.38-10.63,8.5-16.65l-.35-1.06q-11.34,16.3-16.65,28Zm2.13,4.25,1.06,2.12a44.45,44.45,0,0,0,6-1.06,227.49,227.49,0,0,0,12-22.32,6.5,6.5,0,0,1-4.61-5l-.35-.35a119.59,119.59,0,0,1-6,11A129.58,129.58,0,0,0,1558.52,376.54Zm15.94-.71q1.77-4.6,8.85-20.9l-1.77.35-.35.35a228.64,228.64,0,0,1-11,21.25Zm4.25-.71,9.56-2.12q2.83-8.14,10.63-23-6.73,2.48-11.33,3.9Q1578.7,374.78,1578.71,375.13Zm20.9-5.31,4.25-13.46,3.19-8.85-3.19,1.06q-8.86,16.65-11.33,23Q1596.06,370.88,1599.61,369.81Zm4.25-1.42,7.44-2.83,3.19-8.5,2.12-5.67a47.58,47.58,0,0,0-2.12-6.38l-3.54,1.06-3.54,11.33Q1605.27,364.51,1603.86,368.4Zm11.69-4.25,4.6-1.77-1.77-5.31-.35,1.06Z"/>
      <path d="M1722.51,358.13q.71,2.48,4.25,12.75,2.83,8.15,5,13.11,6,13.1,13.46,15.23,5.66,1.41,8.86,0,2.47-1.06,3.9-4.6,4.25-8.5,2.48-28.34a332.08,332.08,0,0,0-6-36.48l-3.9-17.36q-27.28,9.21-60.22-.71-26.22-7.79-36.48-18.07a58.72,58.72,0,0,1-17.89-33.47q-3.37-19.66,3-36.66a90.8,90.8,0,0,1,19-32.41,75.76,75.76,0,0,1,29.93-20.72q25.85-9.21,67.3,3.9V160.83a7.26,7.26,0,0,1,7.08-7.08h.35a10.43,10.43,0,0,1,3.9-.71q6,.71,18.6,1.42t19,1.42a6.41,6.41,0,0,1,6,5,7,7,0,0,1,3.19,6.73q-.71,5-2.48,23.73l-2.48,26.21q-.71,7.44-2.13,24.09t-1.77,26.74q-.36,10.09-.89,23.91t0,25.86q.53,12,1.95,23.38.35,2.48,2.13,16.65,1.77,13.81,2.48,22.67,2.47,28.33-2.13,41.44-5,13.81-18.42,21.61a75.37,75.37,0,0,1-30.11,9.56,85.82,85.82,0,0,1-31.52-1.59q-15.59-3.72-24.79-12.93-7.8-7.44-13.11-19.84T1683,398.51q-1.59-8.15-3.36-22a6.9,6.9,0,0,1,1.42-12.75,147.79,147.79,0,0,0,26.57-10.63,7,7,0,0,1,7.08.35Q1720.38,352.82,1722.51,358.13Zm-47.46-108.74a40.12,40.12,0,0,1-1.06-4.6,223.16,223.16,0,0,1-24.79-.71,59.51,59.51,0,0,0,0,9.21Q1666.2,250.09,1675.05,249.38ZM1674,236.63a99.45,99.45,0,0,1-13.81-1.42q-6.37-1.06-9.56-1.42-.71,3.54-1.06,6.73a210.61,210.61,0,0,0,24.09.71A27.9,27.9,0,0,1,1674,236.63Zm-23,26.21q17.35-8.14,25.15-9.92-8.86.36-26.21,3.9A44.41,44.41,0,0,0,1651,262.84Zm23.73-29.75a12.39,12.39,0,0,1,1.06-3.19q-10.28-2.47-21.61-6.38a32.22,32.22,0,0,0-1.77,4.25l-.71,2.83a57.38,57.38,0,0,1,9.21,1.06,92.34,92.34,0,0,0,13.46,1.42Zm5.67,26.21a16.19,16.19,0,0,1-2.48-3.19q-7.8,1.78-25.86,9.92a41.65,41.65,0,0,0,4.6,9.21q2.47-1.41,12.75-8.5Zm-2.83-32.59a21.94,21.94,0,0,1,2.48-3.9,173.19,173.19,0,0,1-22.32-7.44q-1.06,2.48-2.12,4.6A176.81,176.81,0,0,0,1677.53,226.72Zm7.08,37.19a6.27,6.27,0,0,1-1.77-1.77,124.65,124.65,0,0,0-11.69,7.44q-8.86,6.37-12.4,8.5a52.16,52.16,0,0,0,5,5.67l.71.71q3.54-3.19,9.92-9.92Zm-2.13-44.28a36.68,36.68,0,0,1,4.6-3.9q-13.81-9.56-21.61-11.69a78.1,78.1,0,0,0-6,8.5A187.4,187.4,0,0,0,1682.49,219.63Zm5.31,46.76-.35-.35-10.63,11a90.09,90.09,0,0,1-9.56,9.56q3.19,2.13,7.08,4.25,1.77-2.83,6.73-13.11A95,95,0,0,1,1687.8,266.39Zm2.48-52.78a8.66,8.66,0,0,0,2.13-1.06q-12-10.63-19.84-16.29a31,31,0,0,0-4.61,5Q1675.75,203.34,1690.28,213.61Zm5.67-2.48,3.54-1.42-2.13-3.19-5-7.79a55.49,55.49,0,0,0-8.5-10.63,53.26,53.26,0,0,0-8.5,5.67Q1683.19,199.8,1695.95,211.13Zm1.77,60.22a33.61,33.61,0,0,1-6.73-2.83,48.94,48.94,0,0,0-6.73,10.63q-5,10.28-6.73,13.11a62.7,62.7,0,0,0,6.73,2.83q2.83-4.25,6.73-11.69Q1695.59,274.89,1697.72,271.35Zm3.19-65.88-7.79-21.61h-.35a59.39,59.39,0,0,0-5.67,2.48,47.58,47.58,0,0,1,8.15,10.63l5,7.44Zm47.46,19.48q-8.5-4.6-25.5-4.6-21.25,0-30.46,9.56-7.09,7.44-3.54,15.94a16.36,16.36,0,0,0,5.67,7.62,33.86,33.86,0,0,0,11.16,5.49q6.91,2.12,17.89.89a87.85,87.85,0,0,0,23.73-6.55,6.29,6.29,0,0,1,2.83-.71q0-4.6-.18-13.64t-.18-13.28Zm-40.73,48.88a25.08,25.08,0,0,1-6.37-1.42,113.51,113.51,0,0,0-7.08,12.75q-3.9,7.09-6.38,11l6.73,2.13h.71a85.76,85.76,0,0,1,5.67-12Q1707.28,274.18,1707.64,273.82Zm3.9,95.64-.71-2.12a128.22,128.22,0,0,1-17.36,7.44l.71,4.25h.35l5-2.48,6.38-3.19A45.86,45.86,0,0,0,1711.53,369.46Zm1.06,3.54a44.46,44.46,0,0,1-5,3.54l-6.73,3.19q-4.25,1.78-5,2.12a3.13,3.13,0,0,1-1.42.35q.71,3.9,1.42,7.08,15.23-11.69,17.71-13.46l-.35-.71Zm-7.08-165.06a5.94,5.94,0,0,1,1.77-.35q-2.84-11.69-5.67-25.86a35.6,35.6,0,0,0-5.31,1.06Q1700.2,192,1705.51,207.94Zm12,178.87-2.83-7.44q-2.84,1.78-5.67,3.9l-6.73,5.31-5.67,4.6a36.3,36.3,0,0,0,1.06,5A183.91,183.91,0,0,1,1717.55,386.82Zm-3.9-112.64h-2.48q-.71,1.42-7.08,13.46-3.55,7.09-5.67,11.69,4.25,1.06,8.86,1.77.71-2.83,1.95-8.86t1.59-7.44A108,108,0,0,1,1713.66,274.18Zm6.73,118.31L1719,390q-11.34,6-20.19,11.69a72.74,72.74,0,0,0,2.48,8.5Q1715.08,396,1720.39,392.48Zm3.54,6.38a36.25,36.25,0,0,0-2.12-3.19,46.4,46.4,0,0,0-6,4.78q-2.84,2.66-7.62,7.79a61.19,61.19,0,0,0-5.14,5.84,47.85,47.85,0,0,0,3.19,6q0-.36,6.91-8.86T1723.93,398.86Zm-13.11-192a28.44,28.44,0,0,1,4.61-.35,230.22,230.22,0,0,1-2.13-25.5q-4.25,0-8.15.35Q1708,195.19,1710.82,206.88Zm17,196.94a14,14,0,0,1-1.77-2.13,87.52,87.52,0,0,0-9.92,11.51,123.08,123.08,0,0,1-8.15,10.1,49.68,49.68,0,0,0,4.6,5.31Q1715.07,424.36,1727.83,403.82Zm-7.08-129.64a18.26,18.26,0,0,0-3.54.35,97,97,0,0,0-2.83,11.33q-.36,1.06-1.77,6.73l-1.77,9.21a26.2,26.2,0,0,1,4.25.35Q1719.33,290.47,1720.74,274.18Zm14.52,136q-2.48-1.78-5-3.9-12,19.47-14.88,24.79a40.21,40.21,0,0,0,9.56,5l5.31-13.11Q1733.84,414.44,1735.27,410.19Zm-12-204a97.4,97.4,0,0,1,0-12,81.33,81.33,0,0,0-.71-12.4l-5.67-.71a228.84,228.84,0,0,0,2.12,25.15h4.25Zm5,67.3a19.8,19.8,0,0,1-3.9.35q-1.42,16.65-5.67,28.69h5.31Q1726.76,281.26,1728.18,273.47Zm-1.42-67.3h1.06V182.44l-1.77-.35a78.22,78.22,0,0,1,.71,12A97.4,97.4,0,0,0,1726.76,206.17Zm8.86,65.88-3.54.71q-1.78,8.5-4.6,29.75l5.67-.71Q1735.61,291.18,1735.62,272.05Zm5,140.62a9.1,9.1,0,0,1-2.12-1.06l-4.61,12.75-5.31,12.75a61.89,61.89,0,0,0,9.92,2.12,78.2,78.2,0,0,0,1.42-13.46A82.8,82.8,0,0,1,1740.58,412.67Zm-9.21-206.5a11.53,11.53,0,0,0,2.83.35q2.12-13.81,1.06-22.67a33.58,33.58,0,0,0-3.9-1.06Zm11.33,63.76a19.68,19.68,0,0,1-3.54,1.06q0,19.48-2.13,30.46l5.67-1.42Q1743.41,276,1742.7,269.93Zm-5-63c1.65.24,3.19.48,4.6.71q-.36-16.29,1.77-21.61-2.48-.71-5.31-1.42Q1739.87,193.78,1737.74,206.88Zm7.79,206.86a3.14,3.14,0,0,0-1.42-.35,80.5,80.5,0,0,0-.89,12.4,77.32,77.32,0,0,1-1.24,13.81,61.12,61.12,0,0,0,11.33.35Q1746.24,421.17,1745.54,413.74Zm2.12-204.38V187a15.45,15.45,0,0,0-1.42,5.14q-.36,3-.53,4.78a50.17,50.17,0,0,0,0,6.2c.12,3,.18,4.78.18,5.49A14.79,14.79,0,0,1,1747.66,209.36Zm2.83,62v-4.25a26.63,26.63,0,0,1-4.61,1.77q1.06,7.44.35,30.11l4.25-1.42V284.1a1.72,1.72,0,0,1-1.06-2.13c0-.47.35-.94,1.06-1.42v-7.08a3.1,3.1,0,0,1-.35-1.42A1,1,0,0,1,1750.5,271.35Zm-1.42,142.75q.71,6.37,7.79,25.5h.71q5-.71,9.56-1.77L1753,414.09Zm2.13-203.31,2.83,1.42q0-5.66-.35-14.52v-8.85l-2.48-.71ZM1754,271q6.72,1.78,18.06,1.77,1.41,0,8.86-.18t8.86.18a27.81,27.81,0,0,1,.35-4.6q-5.67,0-16.29-1.06-13.11-.71-19.48-.71H1754Zm0,9.92q5.66.71,35.42.35a34.83,34.83,0,0,1,.35-5q-1.42-.35-8.86-.18t-8.86.18a91.25,91.25,0,0,1-18.06-1.42Zm0,8.15a83.69,83.69,0,0,1,8.86-1.06,72.84,72.84,0,0,1,8.5-.18q3.54.18,9.39.35t8.68.18v-3.54q-29.4.36-35.42-.35Zm0,3.54v3.9h1.06a6.76,6.76,0,0,1,6,2.48h28v-7.08q-2.84,0-8.5-.18t-9.21-.35a69.34,69.34,0,0,0-8.32.18,84,84,0,0,0-8.68,1.06Zm4.6,120.08a12.74,12.74,0,0,0-1.77.71l13.81,23.38a60,60,0,0,0,7.79-3.19q-1.78-1.78-5-5.31l-5-5.67q-1.78-2.12-4.6-5T1758.64,412.67Zm-1.42-222.44h.71l-.71-.35Zm.35,9.21q14.88,4.25,36.13,4.25a1.43,1.43,0,0,1,1.42.71l.71-5.31a175.7,175.7,0,0,1-38.61-5.31v3.54Zm2.12,9.92q6.38,2.84,17.36,2.83,3.19,0,9-.35t8.32-.35l.35-4.6a1.44,1.44,0,0,1-1.06.35q-21.25,0-36.13-4.25v7.08A2,2,0,0,1,1759.71,209.36Zm.71-18.42a178.83,178.83,0,0,0,35.77,4.6l.35-6.38h-.71a249.51,249.51,0,0,0-28.69-1.77,4,4,0,0,0-.71,1.06A8.2,8.2,0,0,1,1760.41,190.94Zm1.42,71.9,12,1.06q11,.71,16.29.71a58.76,58.76,0,0,0,.35-6.38q-4.25,0-13.11-.53t-13.11-.53v.35A6.72,6.72,0,0,1,1761.83,262.84Zm.35-48.88a7.52,7.52,0,0,1,1.77,5v2.48q14.88,0,28.69,1.06h.71l.71-7.44q-2.13,0-8,.35t-8.68.35A54.85,54.85,0,0,1,1762.19,214Zm.71,196.58-.71.71a49.43,49.43,0,0,1,6.38,6l7.08,8.15q4.6,5,6,6.38a55.82,55.82,0,0,0,7.08-5.31l-8.15-5-9.92-5.67A64.58,64.58,0,0,1,1762.89,410.55Zm1.42-100.95h24.79v-7.08q-.71,0-13.11-.18t-13.11.18Zm-.35-81.11h29V226h-.35q-13.81-1.06-28.69-1.06Zm0,5.67,11.33,1.06q11.33,1.06,16.29,1.06h.71l.35-4.25H1764Zm.35,6.38q17.35,3.19,27.27,3.54l.35-4.25h-.35q-5.67,0-16.65-1.06l-11-1.06Zm0,13.11q4.25,0,13.11.53t13.46.53a70.73,70.73,0,0,1,.35-7.08q-9.92-.35-26.92-3.54Zm2.48,65.88q15.23.36,22.67-.71v-5.67h-24.09Zm.35,87.13a12.18,12.18,0,0,1-1.42,1.77q4.6,3.19,14,8.5a127.85,127.85,0,0,1,11.16,6.73,17.11,17.11,0,0,0,3.54-6.38,25.77,25.77,0,0,0,.71-2.83,1.46,1.46,0,0,1-1.06.35A233.39,233.39,0,0,1,1767.14,406.65Zm1.77-77.57q8.85-1.06,21.25-1.42a37.18,37.18,0,0,1-.35-5.31,149.42,149.42,0,0,1-22.32.71l.71,3.9Zm0-145.22q12.75.36,27.63,1.77a.32.32,0,0,1,.35.35l.71-5.31h-28.69v3.19Zm.35-13.81q15.94,0,23.73-.71-2.12-.35-10.63-.89t-13.11-.89Zm0,7.08H1798l.35-5q-9.21,1.42-29,1.42Zm0,226.69a236.13,236.13,0,0,0,25.5,7.44,4,4,0,0,1,1.06.71q.35-2.84.71-6-20.9-3.9-25.5-5.67v.35A14.12,14.12,0,0,1,1769.27,403.82Zm1.42-66.24q15.23,0,20.19-.35-.36-2.83-.71-6-11.69.36-20.54,1.06Zm1.77,6.73q7.44,2.48,19.13,1.77a13.37,13.37,0,0,0-.35-3.19l-.35-2.12q-5.31.71-19.84.35l.71,3.19Zm.71,9.92h19.48l-.71-4.6q-11.69.71-19.48-1.42Q1772.81,351.4,1773.17,354.23Zm-.71,42.86q4.25,1.41,24.09,5.31a26,26,0,0,0,0-6q-10.63-2.84-22.67-5.31Q1773.16,394.25,1772.46,397.09Zm1.77-35.77h19.48l-.71-3.54h-19.13A17.79,17.79,0,0,0,1774.23,361.31Zm.71,9.92a65.93,65.93,0,0,0,10.63.71c.94,0,2.48-.06,4.61-.18s3.66-.18,4.6-.18q-.36-3.19-.71-6.73h-19.48v.35A48.24,48.24,0,0,0,1774.94,371.23Zm-.35,16.29q11.69,2.47,22,5.31,0-3.9-.35-8.15h-10.27a87.91,87.91,0,0,1-11.33,0Zm.35-6.38a81.91,81.91,0,0,0,11,0h9.92q-.36-2.83-.71-6-1.42,0-4.78.18c-2.25.12-3.84.18-4.78.18a65.84,65.84,0,0,1-10.63-.71Z"/>
      <path d="M2017.21,171.1a6.23,6.23,0,0,1,4.6-1.77q49.59,0,76.51,32.94,23.73,29.4,21.61,72.26a128.18,128.18,0,0,1-8.15,38.61,132.24,132.24,0,0,1-19.3,34.54,96.88,96.88,0,0,1-30.82,25.86,101.54,101.54,0,0,1-40.91,11.87q-25.15,1.77-45.87-6.38t-33.47-23.38a109.71,109.71,0,0,1-19.48-34.36,112.63,112.63,0,0,1-6.38-39.67A116.28,116.28,0,0,1,1922.1,243a118.7,118.7,0,0,1,18.77-34.36q12.22-15.58,32.06-25.68T2017.21,171.1Zm-87.49,115.83q15.23-1.06,24.79-3.9.35-3.19.71-6.73a178.66,178.66,0,0,0-25.5,2.13v8.5Zm.35-12a181.06,181.06,0,0,1,25.86-2.12,47.53,47.53,0,0,1,2.13-7.79q-8.86.36-9.21.35a136.3,136.3,0,0,1-17.71-.35Q1930.42,269.93,1930.07,274.89Zm1.42,28.69,23.38-8.86q-.36-3.89-.35-7.79a139.55,139.55,0,0,1-24.44,3.54A116.27,116.27,0,0,0,1931.49,303.58Zm.35-42.15a120.84,120.84,0,0,0,16.65.35c1.42,0,3.36-.06,5.84-.18s4.07-.18,4.78-.18l1.06-1.77a22.36,22.36,0,0,1,2.12-5q-4.61-.71-12.4-1.42-11.69-1.41-15.59-2.12Q1932.9,256.47,1931.84,261.43Zm2.48,53.13,10.27-6q7.08-4.25,11.33-7.08-.36-1.77-.71-3.19l-23,8.86Zm1.06-66.59q3.54.36,14.88,1.77a112.22,112.22,0,0,1,13.46,1.77l2.83-4.25q-11.34-2.47-30.11-2.48A25.51,25.51,0,0,1,1935.38,248Zm3.54,78.28q16.29-11.69,20.54-14.17a41,41,0,0,1-1.77-5L1957,305q-4.25,2.84-10.63,6.73l-11,6.38Zm-1.06-85q19.13,0,30.82,2.83l1.42-2.12q-19.84-3.54-28.69-8.15Zm7.44,96a52.44,52.44,0,0,1,9.56-9.92q3.54-3.19,9.21-7.44-1.42-2.12-2.83-4.6-3.9,2.12-20.9,14.17A43.38,43.38,0,0,0,1945.3,337.23ZM1943.18,231q8.14,3.9,29.4,7.79a42.85,42.85,0,0,1,3.19-3.54q-4.25-1.77-12-5.67a141.71,141.71,0,0,0-15.23-7.08A74,74,0,0,0,1943.18,231Zm9.92,116.53a83.26,83.26,0,0,1,8.15-11.69q6.72-8.14,7.79-9.92a16.17,16.17,0,0,1-2.48-3.19q-6,4.25-9.56,7.08a53.76,53.76,0,0,0-9.56,10.63Q1950.26,344.32,1953.1,347.5Zm-2.48-127.87a131.29,131.29,0,0,1,14.52,6.73q8.85,4.25,13.46,6a26.48,26.48,0,0,1,2.83-2.48l-8.86-9.21q-7.44-7.79-13.11-11A69.79,69.79,0,0,0,1950.62,219.63Zm9.56,134.24a69.43,69.43,0,0,1,8.5-14.17l6.38-8.5a36.64,36.64,0,0,1-3.19-2.83l-7.79,9.56q-6,7.09-8.15,12.4Zm2.12-146.64a69.58,69.58,0,0,1,12.75,11l9.21,9.21,2.12-1.06a113.33,113.33,0,0,0-6.73-9.56q-7.09-10.27-9.92-15.23A55.93,55.93,0,0,0,1962.3,207.23ZM1970.1,361q1.77-5.31,8.5-17.36,2.83-4.6,4.25-7.44-2.48-1.41-4.6-2.83l-6.73,8.5q-6.38,8.5-8.5,14.52A52,52,0,0,0,1970.1,361ZM2025,231.67a37.78,37.78,0,0,0-30.64,6.2q-14,9.75-21.08,27.1-8.5,20.19-2.48,37.55,6.73,18.42,28.34,24.79,19.83,5.31,35.07-5.67t21.25-31.17q6-19.83-.71-36.13-6.73-15.94-25.15-19.48A7.84,7.84,0,0,1,2025,231.67Zm-52.42-32.23q2.83,5,9.92,15.23a113.47,113.47,0,0,1,6.73,9.56l4.25-2.12-6.73-12.75q-4.25-8.5-7.44-13.81Zm8.15,166.48q2.12-6.72,11-26.21l-5.67-2.12q-1.42,3.19-4.25,8.15-6.73,11.34-8.5,16.65l-.35.35Q1976.82,364.51,1980.72,365.92Zm1.77-171.79a149.52,149.52,0,0,1,7.44,13.46l6.73,13.11,3.54-1.42a.32.32,0,0,0-.35-.35,114.19,114.19,0,0,1-4.6-16.65l-3.19-12Q1987.09,192,1982.49,194.13Zm10.27,175.33q1.06-4.6,3.9-13.11,2.83-9.56,3.9-14.17l-5-1.42h-.35q-9.21,19.84-11.33,26.57A53.43,53.43,0,0,0,1992.77,369.46Zm2.48-180.29q1.41,4.25,3.19,12.4a120.94,120.94,0,0,0,5,15.94v.71l3.54-.71q0-21.25-1.06-30.82Q2000.56,187.75,1995.25,189.17Zm7.08,182.06q0-1.06,1.42-13.46,1.06-9.56,3.19-14.88a11.52,11.52,0,0,1-2.83-.35l-4.25,14.88q-2.84,9.92-3.54,12.75A44.42,44.42,0,0,0,2002.33,371.23Zm9.92.35q.35-5,3.19-28.69a27.81,27.81,0,0,1-4.6.35q-2.48,4.61-3.54,14.88-1.42,12.4-1.42,13.11A57.28,57.28,0,0,0,2012.25,371.59Zm-2.83-185.25q1.06,9.56,1.06,30.46a35.6,35.6,0,0,1,5-.35,90.11,90.11,0,0,0,1.06-15.23V185.27Q2013,185.63,2009.41,186.34Zm17,184.19q-.71-3.54-3.19-13.11-2.12-9.56-3.9-14.88H2019v.71q-2.84,24.09-3.19,28.34a26.2,26.2,0,0,1,4.25-.35Zm2.13-185.6h-1.42q-3.55,0-7.08.35v15.94a90.12,90.12,0,0,1-1.06,15.23l5.67.71a104.62,104.62,0,0,0,2.12-15.58Q2028.18,186.34,2028.54,184.92Zm11,182.77q-3.19-8.14-9.56-28a40.18,40.18,0,0,1-7.08,2.13q1.41,5.67,3.9,14.52,2.47,9.92,3.19,13.46A62.25,62.25,0,0,0,2039.52,367.69Zm-.35-182.77a57.11,57.11,0,0,0-7.08-1.06q-.36,2.48-1.77,18.06a104.68,104.68,0,0,1-2.13,15.58,19.42,19.42,0,0,0,3.54,1.06Q2033.14,207.59,2039.17,184.92Zm11.33,178.52a92.14,92.14,0,0,1-12.75-27.27l-4.25,2.12q6.37,20.55,9.56,28A59,59,0,0,0,2050.5,363.44Zm-1.77-176.75q-2.84-.71-6-1.42-6.38,23.74-7.44,34.36a18.18,18.18,0,0,0,2.48,1.06l3.19-11q1.77-5.66,4.25-12.4T2048.73,186.69Zm11.33,3.9-7.79-2.83-5,14.17q-4.61,13.47-6.38,20.19l1.06.35a7.14,7.14,0,0,1,2.48,2.13l1.77.71q1.41-3.54,7.08-15.23Q2059,197.67,2060.07,190.59ZM2059,358.48q0-.71-8.85-14.88a52.6,52.6,0,0,1-5.67-12,32.68,32.68,0,0,1-3.54,2.48,96.86,96.86,0,0,0,12.75,27.63A39.05,39.05,0,0,0,2059,358.48Zm11-8.15a306.64,306.64,0,0,0-19.13-24.09,38.25,38.25,0,0,1-3.19,2.83q.71,5,5.67,12.75,8.5,14.17,8.85,14.52A57.56,57.56,0,0,0,2070,350.33Zm-1.42-155.14a23.11,23.11,0,0,0-5.31-2.83q-1.06,7.09-6.91,19.13t-6.91,15.58a36.25,36.25,0,0,0,3.19,2.13Q2065,207.59,2068.57,195.19Zm11,145.58a90.21,90.21,0,0,1-22.67-22,36.68,36.68,0,0,1-3.9,4.6,280.82,280.82,0,0,1,19.84,24.44A64.14,64.14,0,0,0,2079.55,340.77Zm-3.19-140.27q-2.12-1.77-4.6-3.54-3.9,12.75-16.29,34.71a14,14,0,0,0,2.12,1.77Zm7.79,134.24q-3.9-2.83-24.79-19.84L2059,316a.32.32,0,0,1,.35.35,93.17,93.17,0,0,0,22.32,22Zm2.48-124.33a78.7,78.7,0,0,0-7.44-7.79l-19.13,33.65a23.47,23.47,0,0,1,2.12,2.48A279.07,279.07,0,0,1,2086.63,210.42Zm-.35,121.49a79.71,79.71,0,0,0,6.38-10.63,245.59,245.59,0,0,0-29-13.11q-1.06,2.12-2.13,3.9Q2082.73,329.79,2086.28,331.91ZM2093,219.63a30.49,30.49,0,0,0-4.25-6.38,325.94,325.94,0,0,0-24.44,28.69q5-3.19,13.11-9.56Q2089.82,221.76,2093,219.63Zm1.42,98.47,3.54-8.5q-4.61-1.77-16.65-3.54a98.11,98.11,0,0,1-15.23-3.54A19.72,19.72,0,0,1,2065,305,271.64,271.64,0,0,1,2094.42,318.1Zm7.44-79q-1.42-4.6-3.19-8.86l-7.44,3.9q-7.8,5-9.21,5.67a56.91,56.91,0,0,1-15.58,6.38l2.12,4.25A349.34,349.34,0,0,1,2101.86,239.11Zm-2.48,67.3,2.13-7.44q-27.28-7.44-31.52-8.15a33.4,33.4,0,0,1-1.06,3.9L2067.5,299q4.6,2.12,14.17,3.54Q2094.77,304.64,2099.38,306.41Zm4.25-59.86a19.07,19.07,0,0,0-1.06-3.9A262.42,262.42,0,0,0,2069.63,254l.71,2.83q4.25-1.41,17.36-4.6A91.11,91.11,0,0,0,2103.63,246.55Zm-1.06,48.88q1.06-4.25,1.77-8.5-24.44-1.77-33.3-1.77a10.6,10.6,0,0,1-.35,2.48Q2075.65,288,2102.57,295.43Zm2.83-38.25q-.36-3.54-1.06-7.08a88.76,88.76,0,0,1-15.94,5.31q-13.11,3.54-17.36,5,.35,1.78.71,3.19Q2082.38,263.2,2105.4,257.18Zm-.71,26.21a49.74,49.74,0,0,0,.71-8.15,256,256,0,0,1-33.3,1.77,28.44,28.44,0,0,1-.35,4.61Q2080.6,281.62,2104.7,283.39Zm.71-22.67q-22,6-33.3,6.38a29.21,29.21,0,0,1,0,6.38,259.35,259.35,0,0,0,33.65-1.77Q2105.76,266,2105.4,260.72Zm-32.59-20.19q3.19-1.41,7.44-3.54,1.41-1.06,9.21-5.67a69.34,69.34,0,0,1,7.79-4.25,29,29,0,0,0-2.48-4.6q-2.84,2.12-15.23,12.4Q2075.65,238.41,2072.82,240.53Z"/>
      <path d="M2157.12,305.35q8.14,22.31,15.94,33.3,5.31,7.44,10.27,8.86,4.25,1.42,9.56-3.54,6.38-5.66,6.38-18.42a24.29,24.29,0,0,0-.71-6.2,69,69,0,0,0-2.66-7.44q-2-4.78-3-8-.71-2.13-5.84-16.29t-7.62-22.14q-2.48-8-6-21.08a178.43,178.43,0,0,1-5-24.44q-7.8-60.21,34-77.57,29.4-12,64.11,5.67a6.18,6.18,0,0,1,4.61-.35,6.54,6.54,0,0,1,4.25,3.19,7,7,0,0,1,.71,5.31,79.91,79.91,0,0,1-4.07,12.4q-2.66,6.38-6.2,14.17l-5,10.63a6.52,6.52,0,0,1-3.54,3.54q-3.9,3.55-8.5.71-13.81-8.85-23-2.12-9.56,6.73-6.38,23,2.47,13.81,12.57,39.67t11.87,30.82q3.89,12.4,6,22.32a3.21,3.21,0,0,1,.35,1.42v.71q5,29.41-7.08,54.19-10.63,21.25-30.28,29.4a59.6,59.6,0,0,1-40.2,2.3,67,67,0,0,1-34.36-22.85,76.93,76.93,0,0,1-10.45-16.12,147.43,147.43,0,0,1-6-13.46q-1.59-4.43-5.49-16.82a7,7,0,0,1-2.13-2.48,6.44,6.44,0,0,1-.53-5.31,7,7,0,0,1,3.72-4.25q6.73-3.54,26.92-16.65a6.8,6.8,0,0,1,6-.71A6.64,6.64,0,0,1,2157.12,305.35Zm-9.92,14.17-.71-2.48-15.94,10.27,1.06,4.25a43.15,43.15,0,0,1,4.61-3.9Zm-12,13.81q.71,1.42-1.06,2.13l-.71.71,1.42,4.25a90.64,90.64,0,0,0,17.36-9.92q-1.78-3.54-3.54-7.79l-9.92,7.79Zm21.25,5.31a45,45,0,0,1-2.83-5A101.86,101.86,0,0,1,2135.86,344l2.12,5a65,65,0,0,0,8.86-4.6Zm3.54,5.67-1.77-2.48a82.66,82.66,0,0,0-9.56,5.67,55.13,55.13,0,0,1-9.21,4.6,72.69,72.69,0,0,0,3.9,7.44Q2154.63,348.21,2160,344.31Zm3.19,5-1.06-1.77q-5,3.19-16.65,14.88a14.84,14.84,0,0,0,2.83,3.9Q2152.51,359.9,2163.14,349.27Zm6,6-3.54-3.54q-11,10.63-15.23,17.36,2.83,2.84,6,5.67l3.9-5.67,3.19-4.6A54.44,54.44,0,0,0,2169.16,355.29Zm5.67,3.9a18.22,18.22,0,0,1-2.83-1.77,54.54,54.54,0,0,1-5.67,9.21q-.71,1.06-3.37,4.78t-3.72,5.49a48.46,48.46,0,0,0,10.63,6.38A156,156,0,0,1,2174.83,359.19Zm3.19,1.42q-3.54,14.17-5,23.73a14.88,14.88,0,0,0,4.25,1.42q4.6-15.94,5.31-23.73a19.42,19.42,0,0,1-3.54-1.06A1.42,1.42,0,0,1,2178,360.61Zm9.21,1.42h-1.06q-.71,8.5-5.31,24.44a46.15,46.15,0,0,0,6,1.06A133.74,133.74,0,0,0,2187.22,362Zm-5.67-152.31q16.29,3.55,23,3.9v-3.9q-4.61-1.77-11.69-4.25l-11.69-3.54Q2181.2,205.82,2181.56,209.71Zm0-11.33,12.4,3.9,11,3.54q.35-1.77.71-3.19-3.9-2.12-14.17-9.21-5.67-3.54-8.86-5.31A45.81,45.81,0,0,0,2181.56,198.38Zm1.42,23.38a117.12,117.12,0,0,1,22.32-2.12,10.26,10.26,0,0,1-.35-2.48q-7.44-.35-23-3.54c.23,1.42.47,3,.71,4.61A17.85,17.85,0,0,0,2183,221.76Zm2.48-43.92a33.4,33.4,0,0,0-2.13,6.38l9.92,6.38q9.91,6.38,13.46,8.5a31.33,31.33,0,0,1,2.48-5.67,1,1,0,0,1-.71-.35A125.25,125.25,0,0,1,2185.45,177.83Zm-1.06,51.36h22.67c-.48-2.13-.95-4.13-1.42-6a111.65,111.65,0,0,0-22,2.13Q2184,227.42,2184.39,229.19Zm2.48,11a164.47,164.47,0,0,1,22.67-2.83c-.48-1.65-.95-3.19-1.42-4.6h-23Q2185.8,236.28,2186.87,240.18Zm0-65.53a163.62,163.62,0,0,0,23,15.59.63.63,0,0,1,.71.71,25.24,25.24,0,0,1,3.19-3.9,94.09,94.09,0,0,0-12.75-9.92q-8.15-5.66-11-7.79A39,39,0,0,0,2186.87,174.65Zm2.83,75.8q4.25-1.06,11.87-2.3t10.8-1.95l-1.77-5.31a113.47,113.47,0,0,0-22.67,2.83Zm1.06,112.64a122.52,122.52,0,0,1-.35,24.44,43.7,43.7,0,0,0,7.79-.71q-2.48-4.6-4.61-14.52Q2191.82,365.92,2190.77,363.08Zm1.42-104.14a131,131,0,0,1,23.73-2.48l-2.48-6.73q-3.19.36-11,1.77l-11.69,2.12Zm0-92.45q2.83,2.12,11,7.79a78.49,78.49,0,0,1,13.11,10.63l1.06-1.06,1.06-.71q-12.4-15.58-18.06-23.38A37.52,37.52,0,0,0,2192.18,166.5Zm3.54,103.43q1.06-.35,13.11-2.12l11-1.77-2.48-6q-14.53,0-24.09,2.12Zm.35,89.26a22.62,22.62,0,0,1-2.48,1.42,68.18,68.18,0,0,1,3.19,10.63q2.47,10.28,5,14.52a33.43,33.43,0,0,0,6.38-2.12.32.32,0,0,0-.35-.35,100.79,100.79,0,0,0-6.73-14.52Q2197.14,361.67,2196.08,359.19Zm2.83-80.76,23.38-5.67-1.06-3.19a115.65,115.65,0,0,0-12,1.77q-11.69,1.78-12,1.77Zm3.9,10.63a181.59,181.59,0,0,1,24.44-4.25l-3.54-8.86q-2.48.71-7.44,1.77l-8.86,2.12a69,69,0,0,0-7.44,1.77Zm-2.13,67.3,18.42,20.19a51.74,51.74,0,0,0,6-6.38q-17-11.33-23.73-14.52Zm1.42,6.73,2.12,4.25a112.53,112.53,0,0,1,7.08,14.52v.35a57.58,57.58,0,0,0,5-3.19ZM2203.52,158q5.31,7.8,18.06,23.38A3.13,3.13,0,0,0,2223,181q-5.31-8.85-8.86-27.63a46.29,46.29,0,0,0-6,2.48A16.52,16.52,0,0,0,2203.52,158Zm2.12,139.56q8.85-1.41,23.38-7.44l-.71-2.12q-12.75,1.78-24.44,4.6Zm-1.42,55.61q6.38,3.19,23,14.17a48.89,48.89,0,0,0,3.19-6,36.59,36.59,0,0,0,2.48-5.31q-11.34-3.89-27.63-4.25A5.48,5.48,0,0,0,2204.23,353.17Zm2.48-52.42.35.71q8.14-1.41,24.79-2.83l-1.42-5-.35-.35Q2215.91,299.33,2206.71,300.74Zm1.06,47.46q15.58.71,26.21,4.6,1.06-3.54,1.77-7.08a135.8,135.8,0,0,1-25.15-3.54A28.1,28.1,0,0,1,2207.77,348.21Zm3.54-35.42A230.88,230.88,0,0,1,2235.4,311q-1.06-4.25-2.48-8.86-16.65,1.42-24.44,2.48Zm.71,25.86a129.21,129.21,0,0,0,24.44,3.54,27.89,27.89,0,0,0,.71-6q-2.48-.35-13.81-1.77a99.8,99.8,0,0,0-10.63-.71Zm1.06-18.06q1.41.36,10.63,2.12a106.3,106.3,0,0,0,13.46,2.12q-.36-5-1.06-10.27-13.47.36-23.73,1.42Q2212.72,318.46,2213.08,320.58Zm.35,9.56a98,98,0,0,1,10.27.71l13.81,1.77v-4.25a88.22,88.22,0,0,1-14.52-2.48q-7.44-1.41-9.56-1.77v6Zm4.25-177.46q3.19,18.78,8.86,26.92h1.06q1.41-20.54.35-28A48.89,48.89,0,0,0,2217.69,152.69Zm14.17-.71q.71,7.8-.71,26.92a20.29,20.29,0,0,1,5.31,0,225.82,225.82,0,0,0,1.42-26.21A27.94,27.94,0,0,0,2231.85,152Zm9.56,1.42q-.36,13.81-1.42,25.86a35.78,35.78,0,0,1,5.31,1.06q1.77-13.1,4.25-24.09A67.77,67.77,0,0,0,2241.42,153.39Zm11.69,3.9a180.25,180.25,0,0,0-4.25,24.44l1.42.71q8.85-19.48,9.56-22Q2256.29,158.71,2253.11,157.29Z"/>
      <path d="M2391.24,210.78q18.77-5,31.88-5.67,5.31-.35,7.08,5a8.05,8.05,0,0,1,1.42,2.83l1.77,6.73q36.48-7.79,46.4-8.5,34-3.19,53.84,13.46,17.35,14.17,22.32,44.63,4.25,26.92-5.14,46.4t-29.22,31.17q-33.66,19.84-82.88,13.81.35,30.11,9.92,73a8.41,8.41,0,0,1-1.06,5.31,6.72,6.72,0,0,1-1.95,4.6,6.24,6.24,0,0,1-4.78,2.12q-28.69,1.41-32.59,1.42-5.67,0-7.08-5.67a13.51,13.51,0,0,1-1.06-2.83q-11-76.87-14.17-132.47-.71-10.63.71-42.51,1.06-26.21-.35-40.73a7.82,7.82,0,0,1,.35-2.48,1.42,1.42,0,0,1-.35-1.06A6.92,6.92,0,0,1,2387,214,6.52,6.52,0,0,1,2391.24,210.78Zm35.07,51a7.52,7.52,0,0,1,3.9-5.31l.35-.35A258.47,258.47,0,0,0,2447.91,231l-6.38,1.42q-6.73,11-22.67,28.34-14.53,15.59-18.77,20.9-.36,7.8-.35,13.46,5-6.73,14.88-18.77T2426.31,261.78Zm0,5.67q-23,28.69-26.21,33.3l-.35.35a26.21,26.21,0,0,1,.35,4.25q.35,3.9.35,7.44a123.24,123.24,0,0,0,8.68-10.63q4.43-6,9.39-13.81l7.79-11.69Zm-15.94-46.76q-4.61,1.06-9.92,2.13l.71,8.86Q2406.11,225.3,2410.37,220.69ZM2426,237a5.35,5.35,0,0,1-2.83-1.42L2413.2,248q-8.86,10.28-12.4,16.65l-.35,5a155.54,155.54,0,0,1,12.75-17Zm.71,54.55q0-4.25-.35-8.86-1.42,2.48-5.67,8.5l-6.73,9.92a86.31,86.31,0,0,1-5.84,8.32,89.48,89.48,0,0,1-7.26,8.32l.35,5.67a158.92,158.92,0,0,1,9.92-13.46l8.5-10.27Q2425.24,293.31,2426.66,291.53Zm-6.73-66.94q-.36-1.41-1.06-5a6.81,6.81,0,0,0-2.12.35q-7.09,5.67-15.23,17.71,0,4.61-.35,9.92l6.73-8.5Q2415,229.91,2419.93,224.59Zm.35,5q-3.9,4.25-9.56,11.69l-9.56,12v4.25a103.21,103.21,0,0,1,9.21-12q7.79-8.85,10.63-12.75a3.78,3.78,0,0,1-.71-2.12Zm-18.42,44.63q2.12-2.47,14.17-15.58,14.16-15.23,20.9-25.5l-3.9,1.06a7,7,0,0,1-2.48,2.13q-3.55,5.31-14.52,18.77Q2406.11,266.74,2401.87,274.18Zm26.57,31.88q-.71-4.6-1.06-9.56-12,13.81-13.46,15.58-8.5,10.28-12,18.07l.71,9.21,12-15.23A196.78,196.78,0,0,0,2428.43,306.06Zm1.77,9.21a7,7,0,0,1-.71-3.19,1,1,0,0,0-.35-.71V311q-4.25,6-11.69,15.58-11.34,13.81-14.52,18.06l1.06,8.86a106,106,0,0,1,7.79-12.4L2421.7,327Zm2.48,2.83-9.21,12.75q-6.73,8.86-11.16,15.58a110.87,110.87,0,0,0-7.62,13.46l.35,5.67q3.54-5.66,14.17-20.9,10.63-15.94,15.94-25.5l-1.06-.35Zm-2.48,30.46q1.41-5.31,3.9-12.4,4.6-14.16,5-15.58l.35-.35h-1.06q-5,9.92-16.29,26.57-12.4,17.72-16.29,24.44l1.06,10.27,17.71-25.86a6.44,6.44,0,0,1,3.54-4.6l1.42-2.12A1,1,0,0,1,2430.2,348.56Zm-5.31,22.32q-.36-4.6-.35-8.86l-17,24.79,1.42,11.69Q2419.93,378.67,2424.89,370.88Zm1.42,16.29q-.71-5.31-1.06-10.27-2.84,4.25-15.58,27.63l.71,5.67q2.83-4.61,6.73-10.27Zm1.77,15.23q-.71-5.31-1.42-9.92l-6.38,9.56a141.32,141.32,0,0,0-8.85,13.46l1.42,11.33Q2417.8,421.17,2428.08,402.4Zm3.19,17q-1.42-6-2.13-11.33-9.21,17-15.58,23.38v1.42q3.89,0,8.86-.35Zm.71,5-5.31,7.79,7.08-.35ZM2442.6,322l-5.31,15.23q-1.78,5.31-2.83,9.21a11.79,11.79,0,0,1,2.83-.35l.71.35q.35-1.06,2.3-6t2.48-6.73q.53-1.77,1.42-5.49a28.92,28.92,0,0,0,.89-6.55,8,8,0,0,0-2.48-.35Zm3.19-72.61,9.56-12q6.38-8.14,7.79-9.56-4.61.71-10.63,2.13a186.47,186.47,0,0,1-14.88,23ZM2443,306.77q21.25,5.67,36.66-5t17.53-25.86q2.12-13.81-8.86-18.06-15.94-5.66-47.82,9.56Q2440.48,293.67,2443,306.77Zm5.67,15.58q-.36,7.09-7.08,24.44a170.31,170.31,0,0,0,22,.71q3.89-18.77,6.73-26.21a46.49,46.49,0,0,1-5.67,1.06l-4.25,8.86q-4.61,9.92-6.73,14.88a1.91,1.91,0,1,1-3.54-1.42q2.12-5.31,7.08-15.23l3.19-6.73A64.59,64.59,0,0,1,2448.62,322.35Zm11.69-77.57q1.77-2.83,7.79-11a66.77,66.77,0,0,0,5.31-7.79q-2.84.36-6,.71a3.18,3.18,0,0,1-.35,1.42q-2.48,3.54-7.79,9.92t-7.44,9.21Q2456.06,245.85,2460.31,244.78Zm12.4-2.12a50.88,50.88,0,0,1,6-10.63l4.25-5.67.71-1.42h-2.83a13.1,13.1,0,0,1-3.19.35,50.27,50.27,0,0,1-6.73,10.63q-5,6.73-5.67,7.79Q2469.16,243,2472.71,242.65Zm7.79,74.74a59.21,59.21,0,0,1-5.67,2.48q-3.55,7.8-7.79,27.63l8.15-.71q.35-2.47,3.19-15.23A104.28,104.28,0,0,0,2480.5,317.39Zm5.31-74.74,7.79-9.21,6-8.15a38.19,38.19,0,0,0-5.31-.35,69.29,69.29,0,0,1-4.25,6.38,80.87,80.87,0,0,0-5.67,9.92q-1.06,1.78-2.66.89c-1.06-.59-1.36-1.36-.89-2.3a104,104,0,0,1,6.38-10.63l3.19-4.6h-2.12c-.71,1.18-1.54,2.48-2.48,3.9l-4.25,5.67a35.72,35.72,0,0,0-5,8.15Q2481.56,242.3,2485.81,242.65Zm3.54,69.78a39.05,39.05,0,0,1-5.31,3.19,81.94,81.94,0,0,1-2.12,16.65q-2.84,12-3.19,14.17,3.54-.71,8.5-1.77a1.59,1.59,0,0,1-1.42-2.12Q2487.94,329.79,2489.36,312.43Zm6.73-5.67a38.26,38.26,0,0,1-3.19,2.83q-1.42,19.48-3.54,33.65c0,.48-.35.95-1.06,1.42a81.77,81.77,0,0,0,8.15-2.48q0-6.37-.18-18.24T2496.09,306.77ZM2495,245.49l15.23-17.71a65.16,65.16,0,0,0-6.38-1.77q-2.48,2.84-7.44,9.56l-6.38,8.15,2.83.71A9.1,9.1,0,0,1,2495,245.49Zm7.79,5,7.44-8.86q5-6,8.15-10.27a29,29,0,0,0-4.6-2.48l-15.59,18.06Q2500.68,248.68,2502.82,250.45Zm-.71,49.94q1.41,15.59,8.5,34a1.77,1.77,0,0,1-1.24,2.3,1.69,1.69,0,0,1-2.3-.89,138.59,138.59,0,0,1-7.44-26.21q0,4.25.18,15.05t.18,16.47a90.65,90.65,0,0,0,14.52-6.73l.35-.35Q2511,322,2502.11,300.39Zm2.48-4.6q14.88,17,21.61,30.11,2.47-2.47,4.25-4.6-12-15.58-23.73-25.15a1.77,1.77,0,1,1,2.12-2.83,173.28,173.28,0,0,1,24.09,24.79,63.09,63.09,0,0,0,3.9-6.73A77.64,77.64,0,0,0,2523,301.1q-3.19-1.77-8.5-5l-7.79-4.25Q2505.65,294,2504.59,295.79Zm2.48-40q3.54-2.47,9.92-7.79,7.44-6,11.33-8.86a30.88,30.88,0,0,0-3.9-3.9l-2.83-2.12-8.5,10.63-7.79,9.56A9.6,9.6,0,0,1,2507.07,255.76Zm.71,49.23q6.73,16.3,10.27,27.27l5.31-3.9A133.55,133.55,0,0,0,2507.77,305Zm.35-16.29q2.47,1.42,8.15,4.43t8.5,4.78a72.52,72.52,0,0,1,13.81,10.27,57.08,57.08,0,0,0,3.19-11.33q-19.48-7.44-32.23-10.27h-.35A9.06,9.06,0,0,1,2508.13,288.7Zm1.77-27.63q7.79-2.13,25.15-12a52.72,52.72,0,0,0-4.6-7.08q-3.55,2.48-11,8.5-6.73,5.67-10.63,8.5Zm.35,22a301.31,301.31,0,0,1,32.23,10.27q.35-4.6.35-9.21a229.32,229.32,0,0,0-32.23-3.19A6.79,6.79,0,0,1,2510.25,283Zm1.77-19.13-1.42.35a20.05,20.05,0,0,1,1.06,6.37q9.56-1.41,29.75-1.06a62,62,0,0,0-2.13-9.92,65.29,65.29,0,0,0-8.85,2.83,118.74,118.74,0,0,1-17,4.6,1.59,1.59,0,0,1-2.12-1.42A2.4,2.4,0,0,1,2512,263.91Zm-.71,13.46a220,220,0,0,1,31.52,3.19l-.71-7.44q-21.25-.35-30.46,1.06A16.66,16.66,0,0,1,2511.32,277.37Zm2.48-13.81a110.15,110.15,0,0,0,15.58-4.6q6.72-2.12,8.5-2.83-.71-1.77-1.42-3.9Q2520.87,261.08,2513.8,263.55Z"/>
      <path d="M2570.11,192q49.59-19.83,80.05-17.36,46,3.55,59.15,53.13a102,102,0,0,1,3.19,22.32q0,11.69-1.59,27.45T2709,297.91q-3.19,66.6-9.21,101.3-1.06,5.66-6.73,5.67a7.44,7.44,0,0,1-3.9,1.06q-25.15,0-33.65-1.06a6.65,6.65,0,0,1-4.6-2.66,6.19,6.19,0,0,1-1.42-4.78q-.71-7.44-.71-8.5-52.78,6.38-75.45-17.36a48.3,48.3,0,0,1-12.75-27.45,63.67,63.67,0,0,1,3.19-30.64,94.53,94.53,0,0,1,20.54-33.65,84.86,84.86,0,0,1,33.83-22.32q19.66-7.08,41.62,1.06Q2658,229.9,2644.5,226q-14.17-4.25-49.59,14.52a9.41,9.41,0,0,1-3.54.71,7,7,0,0,1-6.73-3.19,312.4,312.4,0,0,1-18.42-33.65,6.8,6.8,0,0,1-.71-4.25Q2564.45,194.13,2570.11,192Zm4.6,152.31q18.06-39.32,39.67-69.78-1.78.71-3.19,1.42-5.31,10.28-19.13,30.46Q2579,325.9,2574,335.1A60,60,0,0,0,2574.72,344.31Zm.71-18.77q3.54-6.37,13.81-21.25,11.33-16.29,15.94-24.44-19.84,14.17-28,38.25Q2576.14,322,2575.43,325.54Zm4.6,31.88q6-17.71,20.54-44.1t26.57-43.39q-3.19.71-6.73,1.77-24.09,33.3-44.28,77.93A29.89,29.89,0,0,0,2580,357.42Zm15.59-159.75L2581.45,203l5.31,11Q2592.07,203.69,2595.62,197.67Zm16.65,109.1a52,52,0,0,1,5.31-8.15l7.79-11.69q7.08-10.27,9.21-18.06a6.78,6.78,0,0,0-2.12.35q-12.75,16.3-28.51,45.16t-21.43,46.22l1.06,1.06.71.71,16.29-33.65a39.54,39.54,0,0,1,4.61-13.11A36.59,36.59,0,0,1,2612.26,306.77Zm-12,30.11-13.46,28,4.25,2.83q1.06-2.12,3.19-6.73t2.48-5.67a88.9,88.9,0,0,1,6.38-10.63,4.34,4.34,0,0,1-1.06-1.77A44.39,44.39,0,0,1,2600.22,336.87Zm6-142.39-5.31,1.77q-5,6.73-12,21.61l4.25,7.08Q2594.55,220.69,2606.24,194.48Zm3.9,158.69a34.4,34.4,0,0,1-5.31-5,85.52,85.52,0,0,0-5,8.86q-.36.71-2.48,5.49t-3.19,6.91q3.19,1.42,6.73,2.83Zm.71-159.75q-1.06,1.78-6,12.75l-7.44,17q5.31-2.47,9.92-4.25l2.12-5,4.6-11a130.08,130.08,0,0,1,6.73-12Q2615.8,192,2610.85,193.42Zm5.67,162.93q-1.78-.7-3.19-1.42-.71,1.78-8.86,18.42a33.53,33.53,0,0,1,3.9,1.06Q2613,362,2616.51,356.35Zm10.63-166.48-1.42.35a72.87,72.87,0,0,0-8.15,14.17l-5,11-.71,1.42,2.83-1.06a.31.31,0,0,1,.35-.35Q2620.05,205.82,2627.14,189.88Zm-7.08,167.54q-3.55,5.31-8.15,17.36a10.3,10.3,0,0,0,2.48.35,50.84,50.84,0,0,1,5-7.44,37.46,37.46,0,0,1,8.15-8.86A37.3,37.3,0,0,1,2620.06,357.42ZM2653,311.72q-11.69-5.31-20.9-1.77a28.18,28.18,0,0,0-14.52,12.75q-5,8.5-2.48,14.88t14.17,7.08a28.76,28.76,0,0,0,11.69-1.42,36,36,0,0,0,10.27-6.73Q2653.35,320.94,2653,311.72Zm-20.9,47.82q-4.61,2.48-9.92,10.27a52.64,52.64,0,0,0-3.9,6q4.25.36,8.5.35a166.19,166.19,0,0,1,7.08-17.36h-1.06A.63.63,0,0,1,2632.1,359.54Zm5.67-170.73a58.58,58.58,0,0,0-6.38.35q-7.09,15.94-12,25.15a33.2,33.2,0,0,1,3.9-1.06q2.12-5.31,8.5-14.88Q2636,192,2637.77,188.82Zm3.9-.35a66.37,66.37,0,0,1-7.08,11.69,75.46,75.46,0,0,0-7.08,12q3.54-.71,7.08-1.06,2.83-3.54,14.17-22.31A65.46,65.46,0,0,0,2641.66,188.46Zm-3.19,105.91q10.27-18.06,14.52-23a20.64,20.64,0,0,0-3.54-1.06q-6.73,5-14.17,15.23-2.13,2.84-7.44,10.63l-.35.35A29.31,29.31,0,0,1,2638.48,294.37Zm-8.86-7.44,2.83-3.54a69.79,69.79,0,0,1,12.4-14.17,62,62,0,0,0-6.73-.35Q2636.35,276.66,2629.62,286.93Zm13.11,70.84-5,.71a153.51,153.51,0,0,0-7.08,17.71,45.37,45.37,0,0,0,5.67-.35A99.31,99.31,0,0,0,2642.73,357.77Zm13.46-168.25a18.33,18.33,0,0,0-3.54-.35q-13.11,21.25-13.46,22H2641Q2641.66,210.43,2656.19,189.52Zm-9.56,166.83a82.07,82.07,0,0,1-6.38,19.13h.71q5.31-10.63,12.4-22.67A62,62,0,0,1,2646.62,356.35Zm3.54-60.92q8.5-12.75,11.33-20.54a49.93,49.93,0,0,0-5-2.48q-4.61,5.31-13.81,22A28.32,28.32,0,0,1,2650.16,295.43ZM2664.33,192a15,15,0,0,0-4.25-1.42q-1.42,2.13-7.08,9.56l-8.15,11.33,3.54.71a1.42,1.42,0,0,0,1.06.35Q2656.18,202.63,2664.33,192Zm-6.73,160.45q-7.09,12-12.4,22.67,2.83-.35,6-.71a166.22,166.22,0,0,1,11.69-22q7.08-11.33,17.18-24.79t14.35-19.84l.35-10.63v-1.42l-29.75,45-.71,5.67Q2663.62,352.11,2657.6,352.46Zm10.27-159.39q-8.5,11-14.88,20.9a37.62,37.62,0,0,1,5.67,3.54,208.5,208.5,0,0,1,13.81-21.61Q2670.35,194.49,2667.87,193.07Zm-14.17,103.43.71.35q2.13-2.47,8.86-9.92l10.27-10.63q3.19-3.89,8.32-10.09t9-11.51q3.89-5.31,7.08-10.63a58.38,58.38,0,0,0-1.06-6.73,166.71,166.71,0,0,1-12,12.4,72.22,72.22,0,0,0-10.63,11.33v8.15a5.82,5.82,0,0,1-1.06,4.25q-2.84,5.31-8.5,3.19Q2661.5,284.45,2653.71,296.49Zm39.67,30.11q.35-5.66.71-12L2681,332.27q-9.92,13.81-15.76,23.2a170.45,170.45,0,0,0-10.09,18.6,14.78,14.78,0,0,1,1.77.71,7.83,7.83,0,0,1,3.19,1.42l16.29-22.67Q2688.41,336.17,2693.38,326.6ZM2658,298.27a14.07,14.07,0,0,1,3.19,1.77,5.75,5.75,0,0,1,1.42,1.06,9.6,9.6,0,0,1,2.48,1.77q1.06-1.06,14.17-17,11.33-13.81,16.65-23a1.73,1.73,0,0,1,2.13-1.06,98.11,98.11,0,0,0,0-11.69,95.77,95.77,0,0,1-6.55,9.92q-3.72,5-8.68,10.63l-7.79,8.86-9.21,10.27Q2659.72,296.5,2658,298.27Zm21.25-97.41a25.92,25.92,0,0,0-3.9-3.19A183.79,183.79,0,0,0,2661.14,220l2.12,2.13Q2675.31,206.88,2679.21,200.86Zm13.46,133.89q-5,8.5-13.46,20.9l-17,23.38a6.33,6.33,0,0,1,.71,2.83v3.54q15.23-17.71,29.4-43.92A61.85,61.85,0,0,0,2692.67,334.75Zm-2.12,27.63q.71-6,1.06-12.4-14.88,25.5-28.69,40.38l.35,1.06q3.54.35,8.15.35A221.14,221.14,0,0,1,2690.54,362.38Zm-5.67-154.79a50.59,50.59,0,0,0-3.19-4.25q-3.54,5.67-16.29,22l2.48,4.25A115.06,115.06,0,0,1,2684.88,207.59Zm-17.71,112.64q-.36,5.67-1.06,12.4l13.11-19.84,16.29-24.44a23.67,23.67,0,0,1,.35-3.9Q2682.39,302.52,2667.17,320.23Zm-.35-13.46q.35,3.54.35,7.79,15.94-18.77,29-36.84a94.61,94.61,0,0,0,1.06-11A164.84,164.84,0,0,1,2682,288.35Q2668.23,304.64,2666.81,306.77Zm22.67-92.09a40.28,40.28,0,0,0-2.48-4.25,113.59,113.59,0,0,0-17.71,23,26.12,26.12,0,0,1,1.06,3.19Q2681.69,224.24,2689.48,214.67Zm1.77,3.54q-7.8,9.56-19.84,22.31.71,2.84,1.06,5.31l8.86-11q7.79-9.21,10.63-14.52Zm2.48,6.38a93.75,93.75,0,0,1-9.56,12.4,132.52,132.52,0,0,0-11,14.17q.35,2.48.71,4.6,2.83-3.19,8.5-8.5,10.27-9.91,13.81-14.52a3.11,3.11,0,0,1-.35-1.42Q2694.79,227.78,2693.73,224.59Zm-3.9,144.52a212.59,212.59,0,0,0-14.52,22.67h11.33Q2688.42,381.15,2689.84,369.11Z"/>
    </g>
  </g>
</svg>
