<?xml version="1.0" encoding="utf-8"?>
<!-- Generator: Adobe Illustrator 21.1.0, SVG Export Plug-In . SVG Version: 6.00 Build 0)  -->
<svg version="1.1" id="Layer_1" xmlns="http://www.w3.org/2000/svg" xmlns:xlink="http://www.w3.org/1999/xlink" x="0px" y="0px"
	 viewBox="0 0 209.7 71.7" style="enable-background:new 0 0 209.7 71.7;" xml:space="preserve">
<style type="text/css">
	.st0{fill:#E6E7E8;}
	.st1{fill:#FFFFFF;}
	.st2{opacity:0.85;}
</style>
<g>
	<g>
		<path class="st0" d="M150,23.9c-2.5-2.8-6.5-2.9-9.2-0.4c-0.6,0.6-1.3,1.4-2.1,1.2c-0.6-0.1-1-0.8-1.4-1.4c-1.6-2.7-3.5-5.3-6-6.4
			c-2.5-1.1-5.8,0-6.9,3.1c-2.4-6.7-7.8-10.9-13.4-13c-3.5-1.4-7.4-2.1-10.9-0.6s-6.5,5.9-6.2,10.6c-3.1-0.5-6-2.5-9.1-2.5
			c-3.1,0-6.6,3.5-5.7,7.3c-2.2-4.4-5.3-8.4-9.3-9.8c-4-1.4-8.9,0.5-10.7,5.2c-3.7-5.6-9.6-8.6-15.3-8c-2.4,0.3-5.4,3.2-3.9,5.6
			c-1.2-3.4-3.5-6.3-6.4-6.8c-2.9-0.4-6.1,2.5-6,6.2c-4.6-0.3-9.9-0.1-12.6,4.7c-0.6,1-1,2.2-1.8,3c-0.7,0.8-1.7,1-2.6,1.3
			c-2,0.6-4.2,1.6-5.4,3.8s-0.7,6,1.3,6.6c-3.4,4.1-2,11.7,1.6,15.4s8.4,4.4,13,5c-1.1,4.1,0.4,8.8,3,11.5c2.6,2.7,6.1,3.7,9.4,3.7
			c5.9,0,11.9-2.8,16.4-7.8c4.2,3.9,10.6,3.7,14.7-0.6c0.8-0.8,1.5-1.7,2.4-2.1c0.8-0.3,1.7-0.2,2.5,0c6.4,1.1,12.9,2.3,19,5.2
			c2.7,1.3,5.3,2.9,8.2,3.1c5.6,0.5,11.2-5.4,11.9-12.5c5.5,5.7,13.9,6.2,19.9,1.2c5.8,8.4,17.5,8.2,23.4-0.3
			c2.5,5.8,8.4,8.7,13.4,6.6c1.2-0.5,2.3-1.2,3.5-1.6c2.5-0.6,5,0.6,7.3,1.6c7.4,3.3,16.5,4.6,22.5-2c4.1-4.5,5.7-11.6,7.1-18.2
			c0.8-3.6,1.5-7.6,0-10.8c-1.4-3.2-6.1-3.6-6.8,0c2-6.7-0.5-15-5.5-18.2s-11.7-0.9-14.9,5c-4.9-4-11.5-4.3-16.7-0.8
			c-1.3,0.9-2.5,2.1-3.1,3.8c-0.6,1.7-0.3,4,0.9,4.9c-3-3.6-7.2-5.4-11.3-4.7"/>
	</g>
	<path d="M149,21.2c-2.1-2.2-5.2-2.8-7.7-1.3c-1,0.6-1.8,1.8-2.8,2.1c-1,0.3-1.6-0.7-2.2-1.6c-1.6-2.7-3.6-5.4-6.2-6.3
		c-2.4-0.8-5.2,0.2-6.4,3.2c0,0.1-0.2,0.1-0.2,0c-2.7-7.3-8.6-11.4-14.5-13.4c-3.5-1.2-7.5-1.7-10.8,0.5c-2.9,1.9-5.1,5.6-4.9,9.8
		c0,0.1-0.1,0.2-0.1,0.2c-3.1-0.6-6-2.6-9.2-2.5c-2.7,0.1-6.3,3.1-5.4,7.1c0,0.2-0.2,0.3-0.2,0.1c-2.3-4.4-5.5-8.7-9.7-9.9
		c-3.7-1-8.2,0.8-10,5.3c0,0.1-0.2,0.1-0.2,0C55.6,10.7,52.1,8,48.1,7c-1.8-0.5-4.1-0.8-5.9-0.2c-1.6,0.6-4.3,2.7-2.9,5.1
		C39.2,12,39.1,12,39,12.1c-1.1-3.2-3.3-6.3-6.2-6.7c-2.8-0.4-5.8,2.3-5.9,6c0,0.1-0.1,0.2-0.1,0.2c-2.6-0.2-5.2-0.2-7.8,0.7
		c-1.3,0.4-2.5,1.1-3.5,2.2c-1.1,1.1-1.6,2.6-2.4,3.9c-0.7,1.1-1.6,1.6-2.7,2c-1.4,0.5-2.8,0.9-4,1.8c-1.3,0.9-2.4,2.4-2.5,4.3
		c-0.1,1.8,0.4,3.7,1.9,4.2c0.1,0,0.1,0.2,0.1,0.3c-3.1,4-1.9,10.6,0.8,14.2c3.4,4.5,9,5.2,13.6,5.8c0.1,0,0.2,0.1,0.1,0.2
		c-0.9,3.8,0.1,7.8,2.3,10.5c2.3,2.9,5.6,4.1,8.8,4.4c6.3,0.5,12.6-2.4,17.4-7.7c0,0,0.1-0.1,0.2,0c3.4,3,8,3.6,11.8,1.5
		c0.9-0.5,1.7-1.1,2.5-1.8c0.8-0.8,1.5-1.7,2.4-2.2c0.8-0.4,1.7-0.4,2.5-0.3c1.2,0.2,2.5,0.4,3.7,0.7c4.7,0.9,9.4,1.9,13.9,3.8
		c4.2,1.7,8.3,5,12.9,3.5c4.4-1.4,8.1-6.2,8.7-12c0-0.1,0.1-0.2,0.2-0.1c5.5,5.7,13.7,6.2,19.7,1.2c0,0,0.1,0,0.2,0
		c5.9,8.3,17.3,8.1,23.2-0.3c0.1-0.1,0.2,0,0.2,0c2.6,5.8,8.4,8.7,13.4,6.4c1.3-0.6,2.6-1.5,4.1-1.6c1.5-0.2,3,0.3,4.5,0.8
		c2.6,1,5.2,2.2,7.9,2.9c5.1,1.3,11,1.2,15.5-2.8c4.8-4.2,6.6-11.7,8.1-18.4c0.8-3.6,2.1-9.2-0.3-12.3c-1.6-2-5.3-2.6-6,0.8
		c-0.1,0-0.2-0.1-0.3-0.1c1.9-6.7-0.5-14.8-5.4-18c-4.9-3.2-11.5-0.9-14.7,5c0,0.1-0.1,0.1-0.2,0.1c-3.5-2.9-7.9-3.9-12.1-2.8
		c-1.9,0.5-3.9,1.4-5.5,2.9c-1.8,1.6-3.5,5.5-1.1,7.5c-0.1,0.1-0.1,0.2-0.2,0.3c-3-3.5-7.1-5.3-11.1-4.7c-0.2,0-0.2-0.3-0.1-0.3
		c4.2-0.6,8.3,1.1,11.4,4.8c0.1,0.1,0,0.4-0.2,0.3c-1.3-1.1-1.6-3.3-0.9-5.1c0.9-2.5,3-3.9,4.9-4.8c4.2-2.1,9-1.9,13.1,0.4
		c0.5,0.3,0.9,0.7,1.4,1c0.6,0.4,0.6,0,1-0.6c0.6-0.9,1.3-1.7,2-2.4c1.5-1.4,3.3-2.4,5.2-2.8c3.8-0.8,7.6,0.6,10.2,4.2
		c2.9,4.1,4,10.1,2.5,15.4c-0.1,0.2-0.3,0.1-0.3-0.1c0.9-3.9,5.2-3.1,6.8-0.5c1.3,2.3,1.2,5.5,0.8,8.1c-0.5,3.1-1.2,6.2-2,9.2
		c-1.5,5.7-3.8,11.3-8,14.3c-3.9,2.9-8.6,3.2-13,2.4c-2.3-0.4-4.6-1.1-6.8-2.1c-3.1-1.3-6-2.8-9.2-1.3c-2.2,1-4.2,1.9-6.6,1.6
		c-2-0.3-3.9-1.2-5.6-2.6c-0.8-0.7-1.6-1.6-2.3-2.6c-0.2-0.4-0.5-0.8-0.7-1.2c-0.1-0.2-0.2-0.6-0.4-0.6c-0.2,0-0.6,0.8-0.7,0.9
		c-1.4,1.7-3,3-4.8,3.9c-3.6,1.8-7.7,2-11.4,0.5c-2-0.8-3.9-2.2-5.5-4c-0.5-0.6-0.6-1.1-1.2-0.7c-0.6,0.4-1.2,0.9-1.8,1.2
		c-1.1,0.6-2.2,1.1-3.4,1.4c-5,1.3-10.3-0.2-14.3-4.2c0.1,0,0.1-0.1,0.2-0.1c-0.8,6.9-5.7,12.5-11.2,12.7c-3.6,0.1-6.8-2.2-10.1-3.6
		c-3.7-1.6-7.6-2.7-11.4-3.5c-2-0.4-4.1-0.8-6.1-1.1c-1.1-0.2-2.3-0.5-3.4,0.3c-0.8,0.6-1.5,1.5-2.3,2.2c-2.3,2.1-5.2,3.1-8,2.9
		c-1.4-0.1-2.8-0.5-4.1-1.2c-0.6-0.3-1.2-0.7-1.7-1.1c-0.8-0.6-1.4,0.4-2,1.1c-2.7,2.5-5.8,4.3-9,5.3c-5.7,1.8-13.6,1.5-17.2-5.4
		c-0.8-1.5-1.3-3.3-1.5-5.1c-0.1-0.8-0.1-1.6,0-2.5c0-0.1,0.2-1,0.2-1.1c-0.1-0.4-0.8-0.3-1.1-0.3c-3.2-0.4-6.5-1.1-9.4-2.9
		c-2.5-1.6-4.4-4-5.3-7.4C3.4,38,3.3,34.6,4.7,32c0.1-0.3,0.4-0.5,0.5-0.8c0.2-0.4,0.2-0.1,0-0.4c-0.4-0.4-0.7-0.6-1-1.1
		c-0.6-1-0.7-2.4-0.5-3.7c0.5-3.6,3.7-5,6.1-5.7c0.9-0.3,1.8-0.5,2.6-1.3c0.7-0.7,1.1-1.8,1.7-2.8c0.7-1.3,1.7-2.4,2.8-3.1
		c2.4-1.6,5.3-1.9,8-1.8c0.4,0,1.5,0.3,1.8-0.1c0.1-0.1,0.1-0.8,0.1-1c0.1-0.4,0.2-0.8,0.3-1.1c0.6-1.4,1.6-2.5,2.7-3.2
		c2.5-1.4,5.1-0.4,7,1.8c1.1,1.2,1.9,2.7,2.4,4.4c0.1,0.2-0.1,0.3-0.2,0.2c-1.7-3,2.1-5.6,4-5.8c3.6-0.5,7.3,0.7,10.5,2.9
		c1.6,1.1,3.1,2.6,4.3,4.3c0.1,0.1,0.4,0.6,0.4,0.6c0.2,0.1,0,0,0.2-0.3c0.2-0.3,0.4-0.8,0.6-1.1c0.5-0.7,1-1.3,1.6-1.9
		c2.5-2.3,5.9-2.7,8.8-1.5c3.8,1.6,6.7,5.5,8.9,9.7c-0.1,0-0.2,0.1-0.2,0.1c-0.7-3.1,1.3-5.7,3.4-6.9c3-1.6,6.2,0.2,9.1,1.2
		c0.5,0.2,0.9,0.3,1.4,0.4c0.2,0,0.4,0.1,0.6,0.1c0.4-0.1,0.2-0.1,0.3-0.6c0-0.9,0.1-1.7,0.4-2.5c0.4-1.6,1.1-3,2-4.1
		c2.1-2.8,5.1-4,8.1-4c3.3,0,6.7,1.2,9.7,2.8c2.6,1.4,5.2,3.3,7.2,5.9c1,1.3,1.9,2.7,2.6,4.3c0.1,0.2,0.4,1.2,0.5,1.2
		c0,0,0.3-0.6,0.4-0.8c0.3-0.5,0.7-0.9,1.1-1.2c2.1-1.8,4.8-1.5,6.9,0c1.5,1.1,2.7,2.7,3.8,4.3c0.8,1.2,1.6,3.3,3.1,2.3
		c0.8-0.5,1.4-1.3,2.1-1.8c2.7-1.6,5.9-1.1,8.2,1.3C149.3,21.1,149.1,21.3,149,21.2L149,21.2z"/>
</g>
<title>getHashtag</title>
<g>
	<g>
		<g>
			<path class="st1" d="M174.5,32.1c-1.3,2.4-1.7,5.7,0,7.8s4.3,3.2,6.9,3.9c1.6,0.4,3.3,0.6,4.7-0.1c0.7-0.3,1.2-0.9,1.7-1.4
				c1.6-1.8,2.9-4.1,2.6-6.5c-0.2-1.1-0.7-2.1-1.3-3.1c-0.7-1.1-1.4-2.2-2.5-3c-1.7-1.2-4-1.4-6.1-1.2
				C178.1,28.8,175.4,29.8,174.5,32.1"/>
			<path d="M184,44.9c-1,0-1.9-0.2-2.7-0.4c-3.2-0.8-5.7-2.2-7.3-4.2c-2-2.4-1.5-6.1-0.1-8.6c0.8-2.1,3.2-3.6,6.5-3.9
				c2.8-0.3,5,0.1,6.7,1.3c1.2,0.9,2.1,2.1,2.7,3.2c0.6,1,1.2,2.1,1.4,3.4c0.3,2.2-0.6,4.7-2.8,7.1c-0.5,0.6-1.1,1.2-1.9,1.6
				C185.7,44.8,184.8,44.9,184,44.9z M174.4,32l0.8,0.4c-1.1,2-1.6,5.1,0,6.9c1.4,1.7,3.6,2.9,6.5,3.7c1.2,0.3,2.9,0.6,4.2-0.1
				c0.6-0.3,1-0.8,1.5-1.3c1.3-1.4,2.7-3.6,2.4-5.8c-0.2-1-0.7-2-1.2-2.8c-0.6-1-1.3-2-2.3-2.7c-1.3-0.9-3.2-1.3-5.6-1
				c-1.3,0.1-4.5,0.7-5.3,3L174.4,32z"/>
		</g>
		<g>
			<line class="st1" x1="169.3" y1="26.1" x2="172.1" y2="28.6"/>
			<rect x="170" y="25.4" transform="matrix(0.6668 -0.7452 0.7452 0.6668 36.5398 136.3318)" width="1.5" height="3.8"/>
		</g>
		<g>
			<line class="st1" x1="174.3" y1="23" x2="175.8" y2="27.2"/>
			<rect x="174.3" y="22.8" transform="matrix(0.9454 -0.326 0.326 0.9454 1.3833 58.4436)" width="1.5" height="4.5"/>
		</g>
		<g>
			<line class="st1" x1="179.3" y1="22.2" x2="179.6" y2="26.2"/>

				<rect x="178.7" y="22.2" transform="matrix(0.9973 -7.387356e-02 7.387356e-02 0.9973 -1.2981 13.3259)" width="1.5" height="4"/>
		</g>
		<g>
			<line class="st1" x1="183.6" y1="23" x2="183" y2="25.9"/>
			<rect x="181.8" y="23.7" transform="matrix(0.1961 -0.9806 0.9806 0.1961 123.4204 199.4053)" width="3" height="1.5"/>
		</g>
		<g>
			<line class="st1" x1="188.2" y1="24.7" x2="186.4" y2="27.8"/>
			<rect x="185.5" y="25.5" transform="matrix(0.4961 -0.8683 0.8683 0.4961 71.5659 175.8626)" width="3.6" height="1.5"/>
		</g>
		<g>
			<line class="st1" x1="193.8" y1="23.4" x2="189.2" y2="28.4"/>
			<rect x="188.1" y="25.2" transform="matrix(0.6737 -0.739 0.739 0.6737 43.3343 149.961)" width="6.8" height="1.5"/>
		</g>
		<path d="M177.9,33.7c0.4,0.3,0.8,0.7,0.9,1.2c0.1-0.2,0.2-0.4,0.3-0.6c-0.4,0.2-1.3,0.1-1.2-0.6c0.1-0.6,1-0.7,1.4-0.5
			c0.4,0.2,0.6,0.8,0.4,1.2c-0.2,0.4-0.8,0.4-1.1,0.1c-0.4-0.5-1.1,0.2-0.7,0.7c0.7,0.8,2.1,0.6,2.6-0.3c0.6-1,0.1-2.3-0.9-2.7
			c-1-0.4-2.5,0.1-2.7,1.3c-0.2,1.3,1.3,2,2.4,1.6c0.2-0.1,0.4-0.3,0.3-0.6c-0.2-0.8-0.7-1.4-1.4-1.8
			C177.9,32.5,177.4,33.3,177.9,33.7L177.9,33.7z"/>
		<path d="M184.1,33.5c0.7,0,1.7,0.1,2,0.8c0.3,0.6,0,1.5-0.8,1.4c-0.4-0.1-0.8-0.3-1-0.7c-0.1-0.2-0.5-0.9-0.3-1.1
			c0.1-0.1,0.4-0.2,0.5-0.1c0.1,0.1-0.1,0.5-0.3,0.4c-0.3,0-0.5,0.1-0.6,0.3c-0.1,0.2,0.1,0.6,0.3,0.6c0.5,0.1,1.1-0.1,1.3-0.6
			c0.3-0.5,0.3-1.1-0.1-1.5c-0.8-0.8-2.2-0.2-2.2,0.9c0,1.3,1,2.6,2.3,2.7c1.3,0.1,2.1-1.1,1.9-2.3c-0.2-1.4-1.8-2-3.1-1.9
			C183.4,32.5,183.4,33.5,184.1,33.5L184.1,33.5z"/>
		<path d="M176.6,38.1c1.4,1.7,3.6,2.6,5.7,2.7c1.2,0.1,2.4-0.1,3.4-0.8c0.9-0.6,1.7-1.5,2.4-2.4c0.4-0.5-0.3-1.2-0.7-0.7
			c-0.6,0.8-1.2,1.6-2,2.1c-0.9,0.7-2,0.8-3.1,0.7c-1.9-0.1-3.8-0.9-5-2.4C176.9,36.9,176.2,37.6,176.6,38.1L176.6,38.1z"/>
	</g>
	<g>
		<path class="st1" d="M172.7,47.7L172.7,47.7c0,0.7,0,1.5,0,2.2c0,0.1,0,0.2-0.2,0.2c-0.1,0-0.4,0.1-0.5,0.1
			c-0.6,0.1-1.2,0.3-1.8,0.3c-1.1,0.1-2.1,0.1-3.2,0.1c-0.6,0.1-1.3-0.2-1.7-0.7c-0.1-0.1-0.2-0.3-0.2-0.5c0.1-0.3,0-0.5-0.3-0.7
			c-0.1-0.1-0.1-0.1-0.2-0.2c-0.2-0.2-0.3-0.5-0.1-0.7c0.2-0.3,0.2-0.8-0.1-1l0,0c-0.2-0.1-0.2-0.4-0.1-0.5c0-0.1,0.1-0.1,0.1-0.2
			c0.2-0.4,0.3-0.4,0-0.8c-0.2-0.2-0.2-0.4-0.1-0.7c0.2-0.3,0.3-0.5,0.5-0.8c0.1-0.1,0.2-0.1,0.3-0.1c0.3,0,0.7-0.1,1-0.1
			c0.6,0,1.1,0,1.7,0c0.1,0,0.3,0.1,0.3-0.1c0-0.1,0-0.2,0-0.4c0,0,0-0.1,0-0.1c-0.2-0.4-0.4-0.9-0.6-1.4c-0.3-0.6-0.3-1.3-0.1-1.9
			c0.2-0.5,0.7-0.9,1.2-0.9c0.2,0,0.2,0.1,0.3,0.2c0,0.3,0,0.6,0.1,0.9c0.1,0.8,0.4,1.5,1.1,2c0.2,0.2,0.4,0.4,0.5,0.7
			c0.3,0.7,0.6,1.4,1.1,2c0.2,0.3,0.4,0.5,0.8,0.5c0.2,0,0.2,0.1,0.2,0.2C172.7,46.2,172.7,46.9,172.7,47.7z M173.1,47.7L173.1,47.7
			c0-0.7,0-1.4,0-2.2c0-0.3,0.1-0.5,0.4-0.6c0,0,0.1,0,0.1,0c0.4,0,0.9,0,1.3,0c0.3,0,0.5,0.2,0.5,0.5c0,0,0,0,0,0.1
			c0,1.4,0,2.8,0,4.2c0,0.3-0.2,0.5-0.4,0.6c0,0-0.1,0-0.1,0c-0.4,0-0.9,0-1.3,0c-0.3,0-0.5-0.2-0.5-0.4c0,0,0-0.1,0-0.1
			C173.1,49.1,173.1,48.4,173.1,47.7z"/>
		<path d="M172.7,47.7c0-0.7,0-1.5,0-2.2c0-0.1,0-0.2-0.2-0.2c-0.3-0.1-0.6-0.2-0.8-0.5c-0.4-0.6-0.8-1.3-1.1-2
			c-0.1-0.3-0.3-0.5-0.5-0.7c-0.7-0.5-1-1.2-1.1-2c0-0.3-0.1-0.6-0.1-0.9c0-0.2-0.1-0.2-0.3-0.2c-0.5,0-1.1,0.3-1.2,0.9
			c-0.2,0.6-0.2,1.3,0.1,1.9c0.2,0.4,0.4,0.9,0.6,1.4c0,0,0,0.1,0,0.1c0,0.1,0,0.2,0,0.4c-0.1,0.2-0.2,0.1-0.3,0.1
			c-0.6,0-1.1,0-1.7,0c-0.3,0-0.7,0-1,0.1c-0.1,0-0.2,0.1-0.3,0.1c-0.2,0.2-0.4,0.5-0.5,0.8c-0.1,0.2-0.1,0.5,0.1,0.7
			c0.3,0.3,0.3,0.4,0,0.8c0,0.1-0.1,0.1-0.1,0.2c-0.1,0.2-0.1,0.4,0.1,0.5c0.3,0.2,0.4,0.7,0.2,1c0,0,0,0,0,0
			c-0.1,0.2-0.1,0.5,0.1,0.7c0.1,0.1,0.1,0.1,0.2,0.2c0.2,0.2,0.3,0.4,0.3,0.7c0,0.2,0.1,0.4,0.2,0.5c0.4,0.5,1,0.8,1.6,0.7
			c1.1,0,2.1,0,3.2-0.1c0.6,0,1.2-0.2,1.8-0.3c0.2,0,0.4-0.1,0.5-0.1c0.2,0,0.2-0.1,0.2-0.2C172.7,49.2,172.7,48.4,172.7,47.7
			L172.7,47.7z"/>
		<path d="M173.1,47.7c0,0.7,0,1.4,0,2.2c0,0.3,0.2,0.5,0.4,0.5c0,0,0.1,0,0.1,0c0.4,0,0.9,0,1.3,0c0.3,0,0.5-0.2,0.6-0.5
			c0,0,0-0.1,0-0.1c0-1.4,0-2.8,0-4.2c0-0.3-0.2-0.5-0.4-0.6c0,0-0.1,0-0.1,0c-0.4,0-0.9,0-1.3,0c-0.3,0-0.5,0.2-0.5,0.4
			c0,0,0,0.1,0,0.1C173.1,46.3,173.1,46.9,173.1,47.7L173.1,47.7z"/>
	</g>
	<g class="st2">
		<path d="M138.8,48l-1-0.3c0.2,0.1,0.3,0.1,0.5,0.2C138.4,48,138.6,48,138.8,48z"/>
		<path d="M136.8,47.5l-0.2,0h-0.2L136.8,47.5z"/>
		<path d="M135,47.1c0.3,0.1,0.6,0.1,0.9,0.2C135.6,47.3,135.3,47.2,135,47.1z"/>
		<path d="M136.4,47.6c-0.1-0.1-0.1-0.1,0.1-0.1l0,0l-0.6-0.1C136.1,47.4,136.2,47.5,136.4,47.6z"/>
		<path d="M136.4,47.6c0.1,0.1,0.2,0.1,0.3,0.2C136.6,47.7,136.5,47.6,136.4,47.6z"/>
		<path d="M135.4,48.6c-0.2,0,0-0.3-0.4-0.3s-0.8,0-1.3,0s-0.8,0-1.2-0.1c-0.4,0-0.8-0.5-1.2-0.4c-0.9,0-3.3,0.3-2,0.4
			c1,0.1,1.8,0.1,2.6,0.2l1.2,0.1c0.4,0,0.8,0.1,1.3,0.1c1.5,0,3,0.1,4.4,0.3c0.4,0.1,0.7,0.1,1.1,0.2l-1.5-0.4
			c-0.4-0.1-0.8-0.1-1.3-0.1C136.5,48.6,136,48.6,135.4,48.6z"/>
		<path d="M146.1,50.3l-0.5-0.1c-0.7-0.3-1.5-0.6-2.4-0.7l0.3,0.2c0.5,0.1,0.6,0.1,0.2,0c0.8,0.4,1.7,0.7,2.7,0.9
			C146.3,50.4,146.3,50.4,146.1,50.3z"/>
		<path d="M146.9,50.6l-0.6-0.1l0,0L146.9,50.6L146.9,50.6z"/>
		<path d="M130.9,46.8l-3.6-0.5l-3.5-0.5c-0.2,0.1-0.4,0.2-0.6,0.1c-0.2-0.1-0.3-0.2-0.5-0.2l-1-0.1h-0.4c-0.2,0-0.2,0.1-0.1,0.2
			c0.1,0.1,0.2,0.1,0.3,0.2c-0.1,0-0.2-0.1-0.3-0.2c-0.2-0.1-0.3-0.1-0.5-0.2c-0.3,0-0.6,0-0.9-0.1c0.3,0,0.6,0,0.9,0.1h0.6l0.2,0
			c-0.7-0.1-1.5-0.2-2.3-0.3c-0.2,0-0.4,0-0.5,0c-0.6,0-1.1,0-1.4-0.2l-0.4,0l0.1,0c-0.1,0-0.1,0-0.2-0.1l-1.7-0.2
			c-0.4,0.1-0.8,0.2-1.2,0.2l-0.4-0.3c-0.2,0.1-0.4,0.2-0.7,0.2c0.3,0.2,0.6,0.4,0.8,0.5c0.4,0.3,0.9-0.5,1.3,0
			c-0.4-0.5-0.9,0.2-1.3,0c-0.3-0.1-0.5-0.3-0.8-0.5c-0.6,0.1-1.3-0.1-1.8-0.3c0.6-0.1,1.4,0,1.8,0.3c0.3,0,0.5-0.1,0.7-0.2l0.4,0.3
			c0.4-0.1,0.8-0.2,1.2-0.2c-1.1-0.1-2.3-0.2-3.5-0.3c-3.7-0.2-7.5-0.3-11.2-0.1c-3.7,0.1-7.4,0.4-11.4,0.6
			c-4.3,0.3-8.4,0.6-12.4,1.1c-3.9,0.5-7.7,1-11.4,1.8c-3.7,0.7-7.5,1.3-11.4,2c-3,0.5-8.4,1.9-11.3,2.7c-1.8,0.5-2.3,0.7-2.3,0.7
			c0.1,0,0.6,0,0.7,0c1.2-0.1,2.3-0.2,3.7-0.5s3.1-0.5,5.6-0.7c-1.7,0.2-1.1,0,0.3-0.2c1.7-0.3,3.5-0.5,5.3-0.6
			c2.7,0,5.5-0.3,8.1-0.7c1.5-0.2,3-0.4,4.4-0.6c1.4-0.2,2.9-0.4,4.4-0.4c1.4-0.1,2.9-0.3,4.6-0.4c4.4-0.2,8.7-0.5,12.9-0.8l3.2-0.2
			c1.1-0.1,2.2-0.1,3.3-0.1c1.1,0,2.2,0,3.3,0c1.1,0,2.3,0,3.4,0.1c1.2,0,2.3,0,3.4-0.1l3.2-0.4c0.7,0,1.5,0,2.3,0.1
			c0.7,0.1,1.4,0.2,2,0.2c0.9,0,1.8,0,2.7,0c0.8,0,1.7-0.1,2.5-0.2c-0.9,0-1.6,0-2.4,0c-0.8,0-1.6,0-2.6,0c-1.3,0,0.9-0.6,1.8-0.7
			c0.4-0.1,0.9,0.5,1.3,0.4c0.8,0,1.7-0.1,2.5-0.2c0.4-0.1,0.3,0.4,0.4,0.4c1.2,0,2.3-0.6,3-0.4c0.6,0.1,1.1,0.2,1.5,0.4
			c0.3,0.1,0.6,0.1,0.9,0.1l0.7-0.1c-0.1-0.2-0.2-0.4-0.2-0.5c0.3,0.1,0.7,0.2,1,0.3c-0.3-0.1-0.7-0.2-1-0.3c0,0.2,0.1,0.4,0.2,0.5
			c0.8-0.1,1.7-0.1,2.6-0.1c0.4,0,0.9,0,1.3,0s0.9,0,1.3,0.1v0c-1-0.1-2-0.3-2.8-0.7c0.4,0.1,0.3,0.3-0.2,0.2l-0.3-0.3
			c0.9,0,1.8,0,2.5,0.4l0.6,0c0.3,0.1,0.2,0.2,0.2,0.4l0.6,0.1C131.9,47.2,131.5,47,130.9,46.8z"/>
		<path d="M120.8,45.4c0.2,0,0.3,0,0.5,0c-0.6-0.1-1.3-0.1-1.9-0.2C119.7,45.5,120.2,45.5,120.8,45.4z"/>
	</g>
	<g>
		<path d="M50.7,37.4c0.1,0.1,0.4,0.4,0.9,0.7c0.1,0.1,0.2,0.2,0.1,0.4c0,0.1,0,0.2,0,0.3c-0.5,0.8-1.1,1.3-1.7,1.4
			c-0.7,0.2-1.5,0.2-2.4-0.1c-0.9-0.2-1.6-0.7-2-1.2c-0.5-0.7-1-1.8-1.2-3.3C44,34.2,44,33,44.3,32.2c0.3-0.9,0.8-1.5,1.5-1.9
			c0.7-0.3,1.4-0.4,2.2-0.1c0.8,0.2,1.5,0.6,2.1,1.2c0.6,0.6,1,1.3,1.1,2.1c0,0.1,0,0.1,0,0.2c0,0.1-0.1,0.2-0.2,0.3
			c-0.1,0.1-0.5,0.2-1.1,0.5c-0.6,0.3-1.1,0.5-1.6,0.7c-0.4,0.2-0.8,0.3-1.3,0.4c0,0,0,0.1,0,0.2c0,0.1,0,0.2,0,0.2c0,0,0,0.1,0,0.2
			c0,0.1,0,0.2,0,0.2l0,0.2c0,0.1,0,0.2,0.1,0.2c0,0.1,0.1,0.1,0.1,0.2c0.2,0.3,0.5,0.6,0.8,0.7s0.7,0.1,1.1,0
			c0.4-0.1,0.7-0.3,1.1-0.5c0.1-0.1,0.2-0.1,0.3-0.1c0.1,0,0.2,0.1,0.2,0.1C50.7,37.3,50.7,37.3,50.7,37.4z M45.6,33.2
			c-0.1,0-0.2,0-0.3,0h-0.4v0.2C45.2,33.4,45.4,33.3,45.6,33.2z M45.9,33.3L45.9,33.3c-0.2,0.1-0.6,0.2-1.1,0.4c0,0.1,0,0.2,0,0.4
			C45.3,33.7,45.7,33.4,45.9,33.3z M45.8,33L45.8,33c-0.4-0.2-0.7-0.3-0.9-0.3l0,0.4h0.4C45.5,33.1,45.7,33.1,45.8,33z M46,33.5
			c-0.2,0.2-0.6,0.4-1.1,0.8c0,0,0,0.1,0,0.1c0.3-0.1,0.7-0.2,1.1-0.4H46C46,33.8,46,33.6,46,33.5L46,33.5z M46.1,34.4
			c0-0.1,0-0.2,0-0.2c-0.4,0.2-0.8,0.3-1.2,0.4l0,0.2c0.1,0,0.3-0.1,0.5-0.1l0.3-0.1C45.8,34.5,45.9,34.4,46.1,34.4L46.1,34.4z
			 M45.7,32.7c-0.1,0-0.3-0.2-0.7-0.6l-0.1,0.2c0,0,0,0.1,0,0.1C45.1,32.5,45.4,32.6,45.7,32.7z M46.1,34.7l0-0.1h0
			c-0.1,0-0.2,0.1-0.3,0.1l-0.3,0.1c-0.2,0.1-0.4,0.1-0.5,0.2l0,0.2C45.4,34.9,45.8,34.8,46.1,34.7z M46.1,34.9
			c-0.3,0.1-0.7,0.2-1.1,0.5l0,0.2v0.1c0.6-0.3,1-0.5,1.1-0.6L46.1,34.9z M45.8,32.6c-0.2-0.4-0.3-0.9-0.3-1.3
			c-0.2,0.2-0.3,0.4-0.4,0.7l0.2,0.2c0.1,0.1,0.2,0.2,0.3,0.3C45.7,32.5,45.7,32.6,45.8,32.6z M46.1,35.3c-0.1,0-0.4,0.2-1,0.5
			c0,0.1,0.1,0.2,0.1,0.3l0,0l0.3-0.2c0.3-0.2,0.5-0.3,0.7-0.3C46.1,35.5,46.1,35.4,46.1,35.3L46.1,35.3z M46.1,35.8
			c-0.1,0-0.3,0.1-0.6,0.2l-0.3,0.2l-0.1,0.1c0,0.1,0.1,0.2,0.1,0.3c0.4-0.3,0.7-0.5,0.9-0.6C46.2,36,46.1,35.9,46.1,35.8L46.1,35.8
			z M46.2,36.4l0-0.2c-0.2,0.1-0.5,0.3-0.8,0.6l0.1,0.2c0,0,0.1-0.1,0.3-0.2C45.9,36.6,46.1,36.5,46.2,36.4z M46.3,36.8l0-0.2
			c-0.1,0.1-0.2,0.2-0.4,0.3l-0.4,0.3l0.1,0.2l0.2-0.2L46.3,36.8z M46.4,37.2c0,0-0.1-0.1-0.1-0.2c-0.1,0.1-0.3,0.2-0.4,0.4
			l-0.3,0.3l0.1,0.3C46,37.6,46.2,37.3,46.4,37.2z M46.1,32.2c0,0-0.1-0.2-0.2-0.5c-0.1-0.3-0.2-0.5-0.2-0.6l0,0
			c0,0.4,0.1,0.8,0.3,1.3C46,32.4,46.1,32.3,46.1,32.2z M46.3,32c0-0.1,0.1-0.1,0.1-0.2c-0.1,0-0.1,0-0.1-0.1
			c-0.1-0.2-0.2-0.5-0.2-0.9C46,31,45.9,31,45.9,31C45.9,31.1,46,31.5,46.3,32z M46.5,37.3c-0.2,0.2-0.4,0.4-0.6,0.8
			c0.1,0.1,0.1,0.2,0.2,0.3c0.2-0.4,0.4-0.7,0.6-0.9C46.6,37.5,46.6,37.4,46.5,37.3L46.5,37.3z M46.3,34.8L46.3,34.8
			c0.1,0.1,0.1,0,0.1,0h0c0-0.1,0-0.3-0.1-0.6c0-0.3,0-0.6-0.1-0.7c-0.1,0-0.1,0-0.2,0C46.2,33.9,46.2,34.3,46.3,34.8L46.3,34.8
			L46.3,34.8z M46.8,37.8C46.8,37.7,46.8,37.7,46.8,37.8c-0.2,0-0.4,0.3-0.6,0.8c0,0,0,0.1,0.1,0.1C46.4,38.3,46.6,38.1,46.8,37.8z
			 M46.7,31.7c0-0.1-0.1-0.3-0.1-0.5c0-0.1-0.1-0.2-0.1-0.3c-0.1,0-0.2,0.1-0.3,0.1c0.1,0.4,0.2,0.6,0.2,0.9c0,0,0,0.1,0,0.1
			C46.5,31.8,46.6,31.7,46.7,31.7z M47.1,38c0,0-0.1-0.1-0.2-0.1c-0.2,0.3-0.4,0.6-0.6,0.9l0.1,0.1L47.1,38z M46.6,33.5
			c0,0-0.1,0-0.1,0c0,0.1,0,0.4,0.1,0.7c0,0.2,0,0.4,0.1,0.5l0.2,0C46.8,34.4,46.7,34,46.6,33.5z M46.6,32.8
			c0.3-0.1,0.8-0.2,1.3-0.5c-0.3-0.2-0.6-0.2-0.8-0.1C46.9,32.3,46.7,32.5,46.6,32.8z M47.5,38.3c-0.1,0-0.1-0.1-0.2-0.1L46.7,39
			l0.4,0.2c0.1-0.1,0.2-0.3,0.3-0.5C47.4,38.4,47.5,38.3,47.5,38.3z M47,31.5c0-0.2,0-0.4,0-0.8c-0.1,0-0.2,0-0.3,0
			c0,0.1,0,0.2,0.1,0.3c0,0.2,0.1,0.4,0.1,0.5l0,0C46.9,31.6,47,31.5,47,31.5z M46.9,33.5l-0.1,0c0.1,0.5,0.2,0.9,0.2,1.2l0.1,0
			C47,34.2,46.9,33.8,46.9,33.5z M47.3,33.3l-0.2,0.1c0,0.4,0.1,0.8,0.2,1.2l0.2-0.1c0-0.1,0-0.2-0.1-0.4c0-0.2,0-0.3-0.1-0.5
			C47.3,33.6,47.3,33.5,47.3,33.3z M47.5,31.5c0-0.1,0-0.1,0-0.3c0-0.2,0-0.3,0-0.4l-0.4,0c0,0.3,0,0.6,0,0.7
			C47.3,31.5,47.4,31.5,47.5,31.5z M47.7,38.4L47.7,38.4c-0.1,0.1-0.1,0.1-0.2,0.3L47.3,39l-0.1,0.3l0.1,0.1
			C47.4,39.2,47.5,38.9,47.7,38.4z M47.6,33.2l-0.2,0.1c0,0.1,0.1,0.2,0.1,0.4c0,0.1,0.1,0.3,0.1,0.5c0,0.2,0,0.3,0.1,0.4l0.2-0.1
			c0-0.2-0.1-0.4-0.2-0.7C47.7,33.5,47.7,33.3,47.6,33.2z M47.9,38.4C47.9,38.4,47.9,38.4,47.9,38.4c-0.3,0.5-0.4,0.8-0.5,1
			c0.1,0,0.2,0.1,0.3,0.1l0.1-0.5C47.9,38.8,47.9,38.6,47.9,38.4z M47.8,31.5c0-0.1,0.1-0.3,0.2-0.6c-0.1,0-0.1,0-0.2-0.1
			c0,0-0.1,0-0.1,0c0,0.1,0,0.2,0,0.4v0.3C47.7,31.5,47.7,31.5,47.8,31.5z M47.8,33.2c0,0.1,0.1,0.2,0.1,0.4C48,34,48,34.3,48,34.4
			l0.2-0.1L48,33.8L47.8,33.2z M47.9,33.1c0,0.1,0.1,0.4,0.2,0.6c0.1,0.3,0.2,0.5,0.2,0.5l0.1,0C48.2,33.6,48.1,33.2,47.9,33.1
			L47.9,33.1z M48.2,38.5L48.2,38.5c-0.1,0.1-0.1,0.3-0.2,0.6c0,0.2,0,0.4-0.1,0.5c0.1,0,0.1,0,0.2,0.1C48.2,39,48.2,38.6,48.2,38.5
			z M48.1,31.6c0.1-0.2,0.2-0.4,0.3-0.5c-0.1,0-0.2-0.1-0.3-0.1C48.1,31.2,48,31.4,48.1,31.6C48,31.6,48,31.6,48.1,31.6z M48.3,32.9
			L48.2,33c0.1,0.1,0.2,0.5,0.4,1.1l0.3-0.1l-0.1-0.2c-0.1-0.2-0.1-0.3-0.2-0.4C48.5,33.2,48.4,33,48.3,32.9z M48.4,31.8
			c0.2-0.3,0.3-0.5,0.3-0.5c0,0-0.1-0.1-0.2-0.1c-0.1,0.1-0.2,0.3-0.3,0.5L48.4,31.8z M48.4,38.5c0,0.1,0,0.5,0,1.1
			c0.1,0,0.2,0,0.3,0c0-0.1,0-0.2,0-0.4c0-0.4,0-0.6,0-0.7H48.4z M48.5,32.9c0.1,0.1,0.2,0.3,0.3,0.5c0,0.1,0.1,0.2,0.2,0.4
			c0,0.1,0.1,0.2,0.1,0.2l0.5-0.2c-0.5-0.5-0.8-0.8-0.9-0.9C48.6,32.8,48.6,32.8,48.5,32.9L48.5,32.9z M48.6,32c0.1,0,0.2,0,0.4,0
			c0.2,0,0.4-0.1,0.5-0.1l-0.2-0.2C49.2,31.7,48.9,31.8,48.6,32L48.6,32z M48.6,31.7c0.2-0.1,0.4-0.1,0.5-0.2
			c-0.1-0.1-0.2-0.1-0.3-0.2C48.8,31.4,48.8,31.6,48.6,31.7z M48.8,32.4L48.8,32.4L48.8,32.4L48.8,32.4z M48.8,32.6
			C48.8,32.6,48.7,32.6,48.8,32.6c0.1,0.2,0.4,0.5,1,1.1l0.3-0.1c-0.1-0.1-0.3-0.2-0.6-0.4C49.2,32.8,48.9,32.7,48.8,32.6z
			 M48.8,38.5L48.8,38.5c0,0.1,0,0.4,0,0.7c0,0.2,0,0.3,0,0.4H49C48.9,39.3,48.9,38.9,48.8,38.5z M48.9,32.4
			c0.2,0.1,0.4,0.3,0.7,0.5c0.3,0.2,0.5,0.4,0.6,0.5l0.1-0.1l0-0.1l-0.8-0.5C49.2,32.6,49,32.5,48.9,32.4z M48.9,32.1
			c0.3,0.1,0.7,0.2,1,0.3c-0.1-0.1-0.2-0.3-0.3-0.4l-0.6,0.1L48.9,32.1z M49,38.5C49,38.5,49,38.5,49,38.5c0,0.5,0.1,0.9,0.2,1.2
			c0.1,0,0.1,0,0.2,0l-0.2-0.6C49.1,38.8,49.1,38.6,49,38.5z M49.2,32.4c0.1,0.1,0.2,0.2,0.4,0.2c0.3,0.2,0.5,0.3,0.6,0.4
			c0-0.1-0.1-0.2-0.2-0.4C49.8,32.6,49.5,32.5,49.2,32.4z M49.4,38.4l-0.2,0l0.2,0.6c0.1,0.3,0.2,0.5,0.2,0.6c0.1,0,0.1,0,0.2-0.1
			c0,0,0,0,0,0C49.7,39.2,49.5,38.8,49.4,38.4z M49.7,38.3c0,0-0.1,0-0.2,0.1c0.2,0.5,0.3,0.8,0.5,1.1c0.1,0,0.2-0.1,0.3-0.2
			c0,0-0.1-0.2-0.3-0.5C49.8,38.6,49.7,38.4,49.7,38.3z M49.9,38.2L49.9,38.2c0,0.1,0.1,0.3,0.2,0.5c0.2,0.3,0.3,0.4,0.3,0.5
			c0,0,0.1-0.1,0.1-0.1C50.2,38.7,50,38.4,49.9,38.2z M50.2,38L50,38.1c0.1,0.2,0.3,0.4,0.6,0.8l0,0C50.5,38.5,50.3,38.2,50.2,38z
			 M50.4,38.1c0.1,0.2,0.3,0.4,0.4,0.7l0.1-0.2C50.7,38.3,50.5,38.1,50.4,38.1z"/>
		<path d="M62.3,40.5c-0.1,0-0.3,0-0.6,0c-0.2,0-0.4,0-0.5,0c0,0-0.1,0-0.1,0.1c-0.1,0-0.2,0.1-0.3,0c-0.1,0-0.2-0.1-0.2-0.2
			c-0.3-0.6-0.7-1.4-1.2-2.4c-0.6-1-1.1-2-1.5-2.9c-0.4-0.9-0.7-1.8-0.9-2.7c0-0.1,0-0.2,0.1-0.3c0-0.1,0-0.3,0.1-0.4
			c0.5-0.4,1-0.7,1.4-0.9c0.1,0,0.2-0.1,0.3,0c0.1,0,0.2,0.1,0.2,0.2c0,0,0,0.1,0,0.1c0.1,0,0.1,0.1,0.2,0.1c0.8,1.2,1.6,2.8,2.4,5
			c0.4-0.8,1-1.7,1.8-2.7c0.8-1,1.5-1.8,2.1-2.3l0-0.1c0-0.1,0.1-0.1,0.2-0.2c0.1,0,0.2,0,0.3,0c0.5,0.3,1.1,0.8,1.6,1.5
			c0.1,0.1,0.1,0.2,0,0.4c0,0.1,0,0.2-0.1,0.2l-4.9,7c-0.1,0.1-0.1,0.1-0.2,0.1C62.4,40.5,62.4,40.5,62.3,40.5z M57.8,32.6
			c0.3-0.3,0.6-0.6,0.9-0.7l-0.1-0.1c0,0,0,0,0-0.1c-0.3,0.1-0.6,0.3-0.9,0.6C57.8,32.5,57.8,32.5,57.8,32.6z M57.9,33L57.9,33
			c0.2-0.2,0.3-0.3,0.4-0.4c0.2-0.2,0.4-0.3,0.6-0.4l-0.1-0.2c-0.2,0.1-0.6,0.4-0.9,0.8L57.9,33z M58.1,33.5
			c0.3-0.3,0.7-0.5,1.1-0.8L59,32.4c-0.2,0.1-0.4,0.2-0.6,0.3c-0.1,0.1-0.2,0.2-0.4,0.3L58,33.2L58.1,33.5z M58.3,34
			c0.3-0.3,0.7-0.6,1.1-0.9l-0.1-0.2c-0.5,0.3-0.9,0.6-1.1,0.8L58.3,34z M58.4,34.4c0.5-0.3,0.8-0.7,1.2-1l-0.1-0.2
			c-0.5,0.3-0.9,0.6-1.2,1L58.4,34.4z M58.7,35.1c0.5-0.5,0.9-0.8,1.1-1.1l-0.2-0.4c-0.3,0.3-0.7,0.7-1.2,1L58.7,35.1z M58.9,35.4
			c0.2-0.2,0.6-0.6,1.2-1.1l-0.1-0.2c-0.2,0.3-0.6,0.7-1.2,1.1L58.9,35.4z M59.2,36l0.5-0.5c0.3-0.3,0.5-0.5,0.6-0.6l-0.2-0.4
			c-0.6,0.5-1,0.9-1.1,1.1L59.2,36z M59.3,36.4l0.2-0.3c0.1-0.1,0.2-0.2,0.2-0.2c0.2-0.3,0.4-0.4,0.6-0.6L60.3,35l-0.6,0.6l-0.6,0.6
			L59.3,36.4z M59.6,36.9c0.1-0.1,0.3-0.3,0.4-0.5c0.2-0.3,0.4-0.5,0.6-0.6l-0.1-0.4c-0.2,0.1-0.4,0.3-0.6,0.5c0,0-0.1,0.1-0.2,0.3
			c-0.1,0.1-0.2,0.2-0.3,0.3L59.6,36.9z M59.9,37.4c0.4-0.5,0.7-0.8,0.9-1.1L60.7,36c-0.1,0.1-0.3,0.3-0.5,0.6
			c-0.2,0.2-0.4,0.4-0.5,0.5L59.9,37.4z M60.2,37.9l0.8-1.1l-0.1-0.3c-0.2,0.2-0.5,0.6-0.9,1L60.2,37.9z M60.4,38.3
			c0.1-0.1,0.2-0.2,0.4-0.4c0.2-0.2,0.4-0.4,0.4-0.6l0,0L61.1,37l-0.8,1.1L60.4,38.3z M60.6,38.8c0-0.1,0.1-0.2,0.3-0.6
			c0.2-0.3,0.3-0.6,0.5-0.7c0,0-0.1,0-0.1-0.1c-0.1,0.1-0.2,0.3-0.4,0.6c-0.2,0.2-0.3,0.4-0.4,0.5L60.6,38.8z M61.5,37.7l-0.4,0.6
			c-0.2,0.3-0.3,0.6-0.4,0.7l0.2,0.4c0-0.2,0.1-0.4,0.2-0.7c0-0.1,0.1-0.3,0.2-0.5C61.4,38,61.4,37.8,61.5,37.7z M61.4,38.4
			l-0.1,0.2c-0.1,0.4-0.2,0.7-0.2,1l0.1,0.2C61.2,39.5,61.3,39,61.4,38.4z M61.7,38c-0.2,0.9-0.3,1.5-0.4,1.9c0.1,0,0.2,0,0.3,0
			c0-0.3,0-0.7,0.1-1.3C61.7,38.3,61.7,38.1,61.7,38z M61.8,38.7c0,0.5-0.1,0.9-0.1,1.2c0.1,0,0.2,0,0.3,0
			C62,39.5,61.9,39.2,61.8,38.7z M61.9,37.7c0,0.1,0,0.2,0,0.2c0,0.1,0,0.2,0,0.3c0,0.2,0,0.3,0,0.4c0.1,0.4,0.1,0.8,0.2,1.1
			l0.4-0.5C62.5,38.7,62.2,38.2,61.9,37.7z M63,38.7c-0.1-0.2-0.3-0.4-0.4-0.6l-0.2-0.5c-0.1-0.2-0.2-0.4-0.2-0.4c0,0,0,0.1-0.1,0.1
			c0,0,0,0.1-0.1,0.1c0.4,0.6,0.6,1.1,0.8,1.6L63,38.7z M62.2,37c0.1,0.1,0.2,0.3,0.3,0.5c0.1,0.2,0.2,0.4,0.3,0.5
			c0.1,0.2,0.2,0.4,0.4,0.6l0.2-0.3c-0.1-0.1-0.2-0.4-0.5-0.7c-0.2-0.3-0.4-0.6-0.5-0.8C62.2,36.8,62.2,36.9,62.2,37z M63.5,37.9
			c-0.4-0.5-0.8-1.1-1-1.6l-0.2,0.3c0.1,0.2,0.3,0.5,0.5,0.9l0.5,0.7L63.5,37.9z M63.9,37.4c-0.1-0.1-0.1-0.2-0.2-0.2l-0.2-0.3
			c-0.1-0.1-0.1-0.2-0.2-0.3c-0.2-0.3-0.4-0.5-0.5-0.7l-0.1,0.2c0.2,0.5,0.5,1.1,1,1.7L63.9,37.4z M64.1,37.1c-0.3-0.4-0.7-1-1-1.6
			l-0.2,0.2c0.1,0.2,0.2,0.5,0.5,0.8c0,0,0.1,0.2,0.3,0.3c0.1,0.2,0.3,0.3,0.3,0.4L64.1,37.1z M64.5,36.6c-0.3-0.4-0.7-1-1.1-1.6
			l-0.2,0.3c0.3,0.7,0.7,1.2,1,1.6L64.5,36.6z M64.7,36.2c-0.7-0.9-1-1.4-1.1-1.5l-0.1,0.1c0.4,0.7,0.7,1.2,1.1,1.6L64.7,36.2z
			 M65,35.8c-0.4-0.4-0.7-0.9-1.1-1.5l-0.2,0.2c0.1,0.2,0.5,0.7,1.1,1.5L65,35.8z M65.3,35.4c-0.2-0.3-0.6-0.8-1.1-1.5L64,34.2
			c0.3,0.6,0.7,1.1,1.1,1.5L65.3,35.4z M65.5,35.1c-0.2-0.3-0.6-0.8-1-1.5l-0.2,0.2c0.5,0.7,0.8,1.2,1.1,1.5L65.5,35.1z M65.8,34.7
			C65.8,34.7,65.8,34.7,65.8,34.7c-0.1-0.2-0.3-0.5-0.6-0.9c-0.2-0.3-0.4-0.5-0.4-0.6l-0.2,0.2c0.4,0.8,0.7,1.3,1,1.5L65.8,34.7z
			 M66.2,34.2c-0.3-0.3-0.6-0.8-0.9-1.4L65,33.1l0.4,0.6c0.2,0.3,0.4,0.6,0.5,0.8L66.2,34.2z M66.5,33.8c-0.1-0.1-0.2-0.4-0.5-0.8
			c-0.1-0.2-0.3-0.4-0.4-0.6l-0.2,0.2c0.3,0.6,0.6,1.1,0.9,1.4L66.5,33.8z M66.7,33.4c-0.2-0.3-0.5-0.7-0.9-1.2l-0.1,0.1
			c0.1,0.1,0.3,0.4,0.4,0.6c0.2,0.4,0.4,0.6,0.4,0.7L66.7,33.4z M66.8,33.2L67,33c-0.3-0.4-0.6-0.7-0.9-0.9
			C66.3,32.6,66.6,32.9,66.8,33.2z"/>
		<path d="M72.6,29.7c0.1-0.1,0.1-0.1,0.2-0.1c1.7,0,2.9,0.6,3.9,1.7c0.8,1,1.2,2.2,1.1,3.6c0,0.7-0.2,1.3-0.4,1.9
			c-0.2,0.6-0.6,1.2-1,1.7c-0.4,0.5-0.9,1-1.6,1.3c-0.6,0.3-1.3,0.5-2.1,0.6c-0.8,0.1-1.6,0-2.3-0.3c-0.7-0.3-1.3-0.7-1.7-1.2
			c-0.4-0.5-0.8-1.1-1-1.7c-0.2-0.6-0.3-1.3-0.3-2c0-0.7,0.1-1.3,0.3-1.9c0.2-0.6,0.5-1.2,0.9-1.7c0.4-0.5,0.9-1,1.6-1.3
			C71.1,29.9,71.8,29.7,72.6,29.7z M68.2,35.5c0.5,0,0.9-0.1,1.2-0.2c0-0.1,0-0.2,0-0.3c-0.5,0-0.9,0-1.3,0.1v0.2V35.5z M68.3,34.9
			c0.3-0.1,0.8-0.1,1.3-0.1c0-0.1,0.1-0.3,0.1-0.4c-0.3,0-0.5,0-0.5,0c-0.4,0-0.7,0-0.9,0C68.3,34.5,68.3,34.7,68.3,34.9z
			 M68.3,36.3l1.2-0.4c0-0.1,0-0.3,0-0.4c-0.3,0.1-0.7,0.1-1.2,0.2C68.3,35.9,68.3,36.1,68.3,36.3z M68.3,34.2c0.2,0,0.5,0,0.8,0
			c0.1,0,0.2,0,0.3,0c0.1,0,0.2,0,0.2,0l0.1-0.1c0-0.1,0.1-0.2,0.1-0.2c-0.2,0-0.4,0-0.6-0.1c-0.4,0-0.7-0.1-0.8-0.1
			C68.4,33.9,68.4,34,68.3,34.2z M68.5,36.9l0.5-0.3c0.2-0.1,0.4-0.3,0.6-0.4c0-0.1,0-0.1,0-0.2l-1.2,0.4L68.5,36.9z M68.5,33.5
			c0.1,0,0.4,0,0.7,0.1c0.3,0,0.5,0.1,0.7,0.1l0.1-0.2c-0.4-0.1-0.9-0.1-1.5-0.1C68.6,33.4,68.5,33.5,68.5,33.5z M68.7,37.5
			c0.5-0.4,0.9-0.6,1-0.7c0-0.1-0.1-0.2-0.1-0.2l0-0.1c-0.1,0.1-0.3,0.2-0.5,0.3l-0.6,0.3L68.7,37.5z M68.6,33.2
			c0.6,0,1.2,0,1.6,0.1l0.1-0.1c-0.7-0.1-1.1-0.3-1.4-0.4L68.6,33.2z M69,38c0.1-0.2,0.3-0.3,0.5-0.5c0.1-0.1,0.3-0.2,0.5-0.4
			c0-0.1-0.1-0.1-0.1-0.2c-0.1,0.1-0.5,0.3-1.1,0.7C68.8,37.8,68.9,37.9,69,38z M68.9,32.7c0.3,0.1,0.8,0.3,1.5,0.4
			c0-0.1,0.1-0.1,0.2-0.2c-0.1-0.1-0.3-0.2-0.6-0.3c-0.3-0.2-0.6-0.3-0.8-0.4C69.1,32.4,69,32.5,68.9,32.7z M69.4,38.5
			c0.1-0.2,0.2-0.4,0.4-0.6c0.2-0.3,0.4-0.4,0.4-0.5c0,0-0.1-0.1-0.1-0.2c-0.2,0.1-0.4,0.3-0.5,0.4c-0.2,0.2-0.4,0.4-0.5,0.5
			C69.2,38.3,69.3,38.4,69.4,38.5z M69.3,32.1c0.2,0.1,0.4,0.2,0.7,0.3c0.3,0.1,0.5,0.2,0.7,0.3c0,0,0.1-0.1,0.1-0.1l-0.4-0.5
			c-0.2-0.3-0.5-0.4-0.7-0.6C69.6,31.8,69.4,31.9,69.3,32.1z M69.8,38.9c0.1-0.2,0.2-0.4,0.4-0.7l0.3-0.4c-0.1,0-0.1-0.1-0.2-0.1
			L70,38.1c-0.2,0.2-0.3,0.4-0.4,0.6L69.8,38.9z M69.9,31.5c0.2,0.1,0.4,0.3,0.6,0.6l0.5,0.5l0.1-0.1c-0.1-0.1-0.2-0.3-0.3-0.5
			c-0.2-0.3-0.4-0.6-0.5-0.8C70.1,31.3,70,31.4,69.9,31.5z M70.3,39.2c0.1-0.2,0.2-0.5,0.4-0.9c0.1-0.2,0.2-0.3,0.2-0.4
			c-0.1,0-0.2-0.1-0.2-0.1l-0.3,0.4c-0.2,0.3-0.4,0.5-0.4,0.7C70,39.1,70.1,39.1,70.3,39.2z M73,32.7c-0.6-0.1-1.1,0-1.5,0.3
			c-0.5,0.3-0.8,0.8-1.1,1.4c-0.3,0.7-0.3,1.3-0.1,1.9c0.2,0.6,0.7,1,1.4,1.2c0.7,0.2,1.3,0.1,1.8-0.3c0.5-0.4,0.9-0.9,1.1-1.6
			c0.2-0.7,0.2-1.3,0-1.8c-0.2-0.5-0.6-0.9-1.3-1C73.2,32.8,73.1,32.8,73,32.7z M70.4,31.1c0.1,0.2,0.3,0.4,0.5,0.8
			c0.2,0.2,0.3,0.4,0.3,0.5l0.2-0.1l-0.3-0.6c-0.1-0.3-0.3-0.5-0.4-0.7L70.4,31.1z M70.8,39.5c0.1-0.2,0.3-0.7,0.6-1.3L71.1,38
			c0,0.1-0.1,0.2-0.2,0.4c-0.2,0.4-0.4,0.7-0.4,0.8l0,0C70.5,39.4,70.7,39.4,70.8,39.5z M70.9,30.8c0.1,0.2,0.2,0.4,0.4,0.7l0.3,0.7
			l0.2-0.1c0,0,0,0,0,0c-0.1-0.2-0.1-0.5-0.2-0.8l-0.2-0.6C71.2,30.7,71,30.7,70.9,30.8z M71.4,39.6c0-0.2,0.1-0.4,0.2-0.7
			c0.1-0.3,0.2-0.6,0.2-0.7l-0.2-0.1h0c-0.3,0.7-0.5,1.1-0.6,1.3C71.1,39.6,71.3,39.6,71.4,39.6z M71.5,30.6c0,0.1,0.1,0.4,0.2,0.6
			c0.1,0.4,0.2,0.6,0.2,0.8v0l0.2,0c0-0.7,0-1.2-0.1-1.6C71.9,30.5,71.7,30.5,71.5,30.6z M71.9,39.7c0,0,0-0.3,0.1-0.7
			c0-0.3,0.1-0.6,0.2-0.7c0,0-0.1,0-0.1,0L71.8,39c-0.1,0.3-0.2,0.5-0.2,0.6C71.7,39.7,71.8,39.7,71.9,39.7z M72.4,39.7
			c0-0.2,0.1-0.6,0.2-1.4c-0.1,0-0.1,0-0.2,0c-0.1,0.2-0.1,0.4-0.2,0.7c0,0.4-0.1,0.6-0.1,0.7C72.2,39.7,72.3,39.7,72.4,39.7z
			 M72.2,30.4c0,0.3,0.1,0.8,0.1,1.5c0.1,0,0.2,0,0.2,0c0-0.2,0.1-0.5,0.1-0.8v-0.4v-0.4C72.5,30.4,72.4,30.4,72.2,30.4z M73.1,39.7
			c0-0.1-0.1-0.3-0.2-0.7c-0.1-0.3-0.1-0.6-0.2-0.7h0v0v0c-0.1,0.8-0.1,1.3-0.2,1.4c0.1,0,0.1,0,0.2,0L73.1,39.7z M73.2,30.4
			L73.2,30.4c-0.2,0-0.3,0-0.4,0v0.4v0.4c0,0.3,0,0.6-0.1,0.8l0.3,0c0-0.2,0.1-0.5,0.1-0.8C73.2,30.7,73.2,30.4,73.2,30.4z
			 M73.8,39.5c-0.1-0.3-0.3-0.7-0.5-1.4c-0.1,0-0.2,0.1-0.4,0.1c0,0.2,0.1,0.4,0.2,0.7c0.1,0.3,0.1,0.6,0.2,0.7
			C73.4,39.6,73.6,39.6,73.8,39.5z M73.7,30.4c-0.1,0-0.2,0-0.4-0.1c0,0.1,0,0.4-0.1,0.9c0,0.3-0.1,0.6-0.1,0.8c0.1,0,0.1,0,0.2,0.1
			C73.4,31.7,73.5,31.1,73.7,30.4z M74.3,39.3c-0.3-0.4-0.5-0.9-0.6-1.4l-0.2,0.1c0.2,0.7,0.4,1.2,0.5,1.4
			C74.1,39.4,74.2,39.4,74.3,39.3z M74.2,30.4c-0.1,0-0.2,0-0.3-0.1c-0.2,0.8-0.3,1.4-0.4,1.7c0,0,0.1,0,0.1,0.1l0.2-0.6
			c0.1-0.2,0.1-0.4,0.2-0.6C74.1,30.7,74.2,30.6,74.2,30.4z M74.8,30.6l-0.4-0.1l-0.2,0.7c-0.2,0.5-0.3,0.8-0.3,1l0.1,0
			c0,0,0.1,0.1,0.1,0.1l0.1,0c0-0.1,0.2-0.4,0.4-0.8C74.6,31.2,74.8,30.9,74.8,30.6z M74.7,39.1c0,0-0.1-0.3-0.4-0.7
			c-0.1-0.2-0.2-0.4-0.3-0.6c-0.1,0-0.1,0.1-0.2,0.1c0.1,0.5,0.3,0.9,0.6,1.4C74.6,39.2,74.7,39.1,74.7,39.1z M75.3,38.7
			c-0.3-0.4-0.6-0.8-1-1.2c0,0-0.1,0.1-0.2,0.1c0,0.2,0.1,0.4,0.3,0.6c0.3,0.5,0.4,0.7,0.4,0.7C75,38.9,75.2,38.8,75.3,38.7z
			 M75.2,30.9c-0.1-0.1-0.2-0.1-0.3-0.1c0,0.2-0.2,0.6-0.3,1c-0.2,0.4-0.3,0.7-0.3,0.8c0,0,0.1,0.1,0.2,0.1
			C74.8,31.9,75.1,31.3,75.2,30.9z M75.8,38.2c-0.4-0.3-0.8-0.6-1.1-1.1c-0.1,0.1-0.1,0.2-0.2,0.2c0.4,0.4,0.7,0.8,1,1.2
			C75.6,38.4,75.7,38.3,75.8,38.2z M75.6,31.1c-0.1-0.1-0.1-0.1-0.2-0.2c-0.1,0.4-0.4,1-0.8,1.7c0,0,0.1,0.1,0.1,0.1L75.6,31.1z
			 M76,37.9c-0.1-0.1-0.5-0.4-1.2-1l0,0.1c0,0,0,0,0,0c0.3,0.5,0.7,0.8,1.1,1.1L76,37.9z M76.1,31.6c-0.1-0.1-0.2-0.3-0.4-0.4
			l-1,1.7c0,0,0.1,0.1,0.1,0.1C75.3,32.5,75.7,32,76.1,31.6z M76.1,37.7c0.1-0.2,0.2-0.3,0.3-0.5C76,37,75.5,36.8,75,36.6
			c0,0.1-0.1,0.1-0.1,0.2C75.6,37.3,76,37.7,76.1,37.7z M76.5,32.1c-0.1-0.1-0.1-0.2-0.2-0.3c-0.4,0.4-0.8,0.9-1.2,1.4
			c0.2-0.1,0.4-0.3,0.7-0.5C76.1,32.4,76.3,32.2,76.5,32.1z M76.5,37.1l0.2-0.4c-0.2-0.1-0.4-0.1-0.8-0.2c-0.3-0.1-0.6-0.1-0.8-0.2
			c0,0,0,0.1-0.1,0.1C75.6,36.6,76.1,36.8,76.5,37.1z M76.9,33.1c0-0.2-0.1-0.3-0.2-0.4l-0.4,0.2c-0.3,0.2-0.4,0.3-0.5,0.3
			c-0.3,0.2-0.6,0.3-0.8,0.3l0.1,0.2C75.8,33.4,76.4,33.2,76.9,33.1z M76.8,36.5l0.1-0.4c-0.9-0.2-1.4-0.4-1.6-0.4
			c0,0.1,0,0.1-0.1,0.2l-0.1,0.2c0.2,0.1,0.4,0.1,0.7,0.2C76.3,36.3,76.6,36.4,76.8,36.5z M77,33.5c0-0.1,0-0.1-0.1-0.2
			c-0.5,0.1-1.1,0.3-1.7,0.6l0,0.1c0.1,0,0.4-0.1,0.9-0.2C76.5,33.6,76.8,33.5,77,33.5z M76.9,35.9c0-0.1,0.1-0.3,0.1-0.4
			c-0.8-0.1-1.4-0.1-1.7-0.1c0,0,0,0.1,0,0.1C75.5,35.5,76,35.7,76.9,35.9z M77.1,34c0-0.1,0-0.2-0.1-0.4c-0.2,0.1-0.5,0.2-0.8,0.3
			c-0.4,0.1-0.7,0.2-0.9,0.2c0,0.1,0,0.1,0,0.2C75.7,34.3,76.3,34.2,77.1,34z M77,35.3c0-0.1,0-0.3,0-0.4c-0.4,0.1-1,0.1-1.7,0.1
			c0,0.1,0,0.2,0,0.2C75.7,35.2,76.2,35.2,77,35.3z M77.1,34.2c-0.7,0.2-1.3,0.3-1.7,0.3c0,0.1,0,0.2,0,0.3c0.7,0,1.3,0,1.7-0.1
			C77.1,34.5,77.1,34.3,77.1,34.2z M75.4,33.1c0.1,0,0.2-0.1,0.4-0.2c0,0,0.2-0.1,0.5-0.3c0.2-0.1,0.3-0.2,0.4-0.2
			c0-0.1-0.1-0.2-0.1-0.2c-0.1,0.1-0.4,0.3-0.8,0.6C75.6,33,75.5,33.1,75.4,33.1z"/>
		<path d="M78.9,30.8c0.2,0,0.3,0,0.5,0c0.2,0,0.4,0,0.6,0c0.2,0,0.4,0,0.5,0c0,0,0.1,0,0.1,0c0,0,0.1,0,0.1,0c0.1,0,0.2,0,0.2,0.1
			c0.1,0.1,0.1,0.2,0.1,0.3c0,0.1,0,0.2,0,0.4c0,0.2,0,0.3,0,0.4c0.4-0.1,0.8-0.2,1.2-0.2c0.4,0,0.8,0.2,1.1,0.6
			c0.2,0.2,0.4,0.6,0.6,1.1c0,0.1,0.1,0.3,0.2,0.5c0.1,0.3,0.2,0.5,0.3,0.7l0,0.1c0,0.1,0.1,0.2,0,0.3c0,0.1-0.1,0.2-0.2,0.2
			c-0.9,0.4-1.6,0.6-1.8,0.7c-0.1,0-0.2,0-0.3,0c-0.1,0-0.1-0.1-0.2-0.2c0-0.1,0-0.1,0-0.2c-0.1-0.2-0.2-0.4-0.3-0.5
			c-0.1-0.1-0.1-0.1-0.2-0.1c0,0-0.1,0-0.1,0.1c-0.1,0.1-0.1,0.2-0.2,0.3c-0.1,0.1-0.1,0.3-0.2,0.5c-0.2,1-0.1,2.7,0.4,4.8
			c0.1,0,0.1,0.1,0.1,0.2c0,0.1,0,0.2-0.1,0.3c-0.1,0.1-0.1,0.1-0.2,0.2c-0.1,0-0.2,0-0.3,0.1l-0.4,0.1c-0.1,0-0.2,0.1-0.3,0.1
			c-0.4,0.1-0.7,0.1-1,0.2c-0.1,0-0.2,0-0.3-0.1c-0.1-0.1-0.1-0.1-0.1-0.2c0,0,0-0.1,0-0.1c-0.8-2.6-0.9-5.8-0.3-9.7
			c-0.1-0.1-0.1-0.2-0.1-0.2c0-0.1,0-0.2,0.1-0.2S78.8,30.8,78.9,30.8z M80.3,35.5c0-0.1,0-0.1,0.1-0.2c-0.2,0-0.5,0-0.8,0.1
			c-0.4,0.1-0.6,0.1-0.6,0.1c0,0.1,0,0.1,0,0.2C79.6,35.6,80.1,35.5,80.3,35.5z M80.3,35.7c-0.3,0.1-0.7,0.1-1.3,0.2v0.1h1.3
			L80.3,35.7z M80.2,36.4l0-0.2h-1.2c0,0.2,0,0.4,0,0.5c0.1,0,0.2,0,0.3-0.1C79.7,36.5,80,36.4,80.2,36.4z M80.5,34.7
			c-0.2,0.1-0.5,0.1-0.8,0.2L79,35c0,0.1,0,0.2,0,0.3c0.1,0,0.3,0,0.6-0.1c0.4-0.1,0.7-0.1,0.9-0.1l0.1-0.2L80.5,34.7z M80.1,36.9
			c0-0.1,0-0.2,0-0.3l-0.8,0.2L79,36.8c0,0.1,0,0.3,0,0.4C79.3,37.1,79.7,36.9,80.1,36.9z M80.5,34.6c0,0,0-0.1,0-0.1
			c-0.5,0-1,0-1.5,0c0,0.1,0,0.2,0,0.3l0.2,0c0.1,0,0.2,0,0.2,0c0.1,0,0.2,0,0.2,0C80,34.7,80.3,34.6,80.5,34.6z M80.1,37
			c-0.4,0.1-0.8,0.2-1.1,0.4v0.2l0.5-0.1c0.2-0.1,0.4-0.1,0.6-0.1V37z M80.4,34c-0.5-0.1-0.9-0.1-1.3,0.1h0l0,0.2c0.5,0,1-0.1,1.4,0
			C80.5,34.2,80.4,34.1,80.4,34C80.4,34,80.4,34,80.4,34z M80.1,37.8v-0.2c-0.1,0-0.3,0.1-0.6,0.1L79,37.8c0,0.1,0,0.2,0,0.3
			C79.5,38,79.9,37.9,80.1,37.8z M80.4,33.9c0-0.1,0-0.2,0-0.3c-0.6,0-1,0-1.3,0.1l0,0.2C79.5,33.8,79.9,33.8,80.4,33.9
			C80.4,33.9,80.4,33.9,80.4,33.9z M80.4,33.2c-0.3-0.1-0.7-0.1-1.3-0.1c0,0.1,0,0.3-0.1,0.4c0.3-0.1,0.8-0.1,1.3-0.1V33.2z
			 M80.2,38.2c0-0.1,0-0.1,0-0.2c-0.3,0.1-0.6,0.2-1.1,0.3l0,0.3l0.4-0.2C79.8,38.3,80,38.2,80.2,38.2z M80.2,38.7l0-0.4
			c-0.2,0-0.4,0.1-0.7,0.2l-0.4,0.2c0,0.1,0,0.2,0.1,0.3c0.1,0,0.2-0.1,0.4-0.1C80,38.8,80.2,38.7,80.2,38.7z M80.4,33v-0.2
			c0,0-0.1-0.1-0.1-0.1h-1.1l0,0.3C79.7,32.9,80.1,32.9,80.4,33z M80.3,32.5c0,0,0-0.1,0-0.1v0v-0.2c-0.4,0-0.7,0-1.1,0.1l0,0.3
			H80.3z M80.4,39.3l-0.1-0.4c-0.1,0-0.3,0.1-0.7,0.2c-0.2,0-0.3,0.1-0.4,0.1l0.1,0.4C79.6,39.6,79.9,39.5,80.4,39.3z M80.3,32
			c0,0,0-0.1,0-0.2c-0.3,0-0.6,0-1,0l0,0.2C79.6,32,79.9,32,80.3,32z M80.3,31.6l0-0.2c-0.1,0-0.2,0-0.5,0c-0.2,0-0.4,0-0.5,0l0,0.1
			C79.7,31.7,80.1,31.7,80.3,31.6z M80.4,39.6l0-0.1c-0.4,0.2-0.7,0.3-1.1,0.4l0,0.1C79.8,39.8,80.1,39.6,80.4,39.6z M80.5,40l0-0.2
			c-0.2,0-0.6,0.2-1.1,0.4l0,0.1C79.8,40.1,80.2,40,80.5,40z M80.6,40.4l0-0.2c-0.3,0.1-0.7,0.2-1.1,0.3c0,0.1,0.1,0.3,0.1,0.4
			c0,0,0.1,0,0.1,0L80.6,40.4z M80.6,40.5l-0.3,0.2l0.4-0.1L80.6,40.5z M80.7,34.6L80.7,34.6C80.7,34.6,80.7,34.6,80.7,34.6
			c0-0.7,0-1.3,0.1-1.8h0c-0.1,0-0.1,0-0.2,0C80.6,33.6,80.6,34.2,80.7,34.6L80.7,34.6L80.7,34.6z M81,32.8c0,0.5-0.1,1,0,1.6
			c0.1-0.1,0.2-0.1,0.3-0.2c0-0.2,0-0.4,0-0.8c0-0.4,0-0.6,0-0.8C81.2,32.7,81.1,32.7,81,32.8z M81.5,33.8c0.1-0.6,0.2-1,0.3-1.3
			l-0.3,0C81.5,32.6,81.5,33,81.5,33.8z M82,32.5c-0.2,0.3-0.3,0.8-0.4,1.7c0.1,0,0.1,0,0.2,0.1c0.2-0.6,0.4-1.1,0.5-1.7
			c0,0-0.1,0-0.2,0H82z M82.7,32.8c-0.1-0.1-0.2-0.2-0.3-0.2c-0.1,0.6-0.3,1.1-0.5,1.7c0,0,0,0,0.1,0c0,0,0.1-0.1,0.1-0.2
			c0-0.1,0.1-0.1,0.1-0.2c0-0.1,0.1-0.1,0.1-0.2C82.5,33.4,82.7,33.1,82.7,32.8z M83.1,33.4C83,33.3,83,33.1,82.9,33
			c-0.1,0.2-0.2,0.5-0.4,0.9c-0.2,0.4-0.3,0.5-0.3,0.6h0c0,0,0,0.1,0.1,0.1l0.3-0.4c0.1-0.1,0.2-0.3,0.3-0.4
			C82.9,33.6,83,33.5,83.1,33.4z M83.2,33.6c-0.5,0.6-0.8,1-0.8,1.1c0,0.1,0.1,0.2,0.1,0.2c0.4-0.5,0.7-0.8,0.8-1.1l-0.1-0.1
			L83.2,33.6z M83.4,34.2l-0.1-0.1c-0.2,0.3-0.4,0.6-0.8,1v0l0.3-0.1c0-0.1,0.1-0.2,0.2-0.3C83.2,34.5,83.4,34.3,83.4,34.2z
			 M83.5,34.4c0,0-0.1,0.2-0.3,0.4l0,0.1l0.4-0.2L83.5,34.4z"/>
		<path d="M90.9,37.4c0.1,0.1,0.4,0.4,0.9,0.7c0.1,0.1,0.2,0.2,0.1,0.4c0,0.1,0,0.2,0,0.3c-0.5,0.8-1.1,1.3-1.7,1.4
			c-0.7,0.2-1.5,0.2-2.4-0.1c-0.9-0.2-1.6-0.7-2-1.2c-0.5-0.7-1-1.8-1.2-3.3c-0.3-1.5-0.3-2.7-0.1-3.5c0.3-0.9,0.8-1.5,1.5-1.9
			c0.7-0.3,1.4-0.4,2.2-0.1c0.8,0.2,1.5,0.6,2.1,1.2c0.6,0.6,1,1.3,1.1,2.1c0,0.1,0,0.1,0,0.2c0,0.1-0.1,0.2-0.2,0.3
			c-0.1,0.1-0.5,0.2-1.1,0.5c-0.6,0.3-1.1,0.5-1.6,0.7c-0.4,0.2-0.8,0.3-1.3,0.4c0,0,0,0.1,0,0.2c0,0.1,0,0.2,0,0.2c0,0,0,0.1,0,0.2
			c0,0.1,0,0.2,0,0.2l0,0.2c0,0.1,0,0.2,0.1,0.2c0,0.1,0.1,0.1,0.1,0.2c0.2,0.3,0.5,0.6,0.8,0.7s0.7,0.1,1.1,0
			c0.4-0.1,0.7-0.3,1.1-0.5c0.1-0.1,0.2-0.1,0.3-0.1c0.1,0,0.2,0.1,0.2,0.1C90.9,37.3,90.9,37.3,90.9,37.4z M85.8,33.2
			c-0.1,0-0.2,0-0.3,0H85v0.2C85.4,33.4,85.7,33.3,85.8,33.2z M86.1,33.3L86.1,33.3c-0.2,0.1-0.6,0.2-1.1,0.4c0,0.1,0,0.2,0,0.4
			C85.6,33.7,85.9,33.4,86.1,33.3z M86,33L86,33c-0.4-0.2-0.7-0.3-0.9-0.3l0,0.4h0.4C85.7,33.1,85.9,33.1,86,33z M86.2,33.5
			c-0.2,0.2-0.6,0.4-1.1,0.8c0,0,0,0.1,0,0.1c0.3-0.1,0.7-0.2,1.1-0.4h0.1C86.2,33.8,86.2,33.6,86.2,33.5L86.2,33.5z M86.3,34.4
			c0-0.1,0-0.2,0-0.2c-0.4,0.2-0.8,0.3-1.2,0.4l0,0.2c0.1,0,0.3-0.1,0.5-0.1l0.3-0.1C86.1,34.5,86.2,34.4,86.3,34.4L86.3,34.4z
			 M85.9,32.7c-0.1,0-0.3-0.2-0.7-0.6l-0.1,0.2c0,0,0,0.1,0,0.1C85.3,32.5,85.6,32.6,85.9,32.7z M86.3,34.7l0-0.1h0
			c-0.1,0-0.2,0.1-0.3,0.1l-0.3,0.1c-0.2,0.1-0.4,0.1-0.5,0.2l0,0.2C85.6,34.9,86,34.8,86.3,34.7z M86.4,34.9
			c-0.3,0.1-0.7,0.2-1.1,0.5l0,0.2v0.1c0.6-0.3,1-0.5,1.1-0.6L86.4,34.9z M86,32.6c-0.2-0.4-0.3-0.9-0.3-1.3
			c-0.2,0.2-0.3,0.4-0.4,0.7l0.2,0.2c0.1,0.1,0.2,0.2,0.3,0.3C85.9,32.5,86,32.6,86,32.6z M86.3,35.3c-0.1,0-0.4,0.2-1,0.5
			c0,0.1,0.1,0.2,0.1,0.3l0,0l0.3-0.2c0.3-0.2,0.5-0.3,0.7-0.3C86.3,35.5,86.3,35.4,86.3,35.3L86.3,35.3z M86.3,35.8
			c-0.1,0-0.3,0.1-0.6,0.2l-0.3,0.2l-0.1,0.1c0,0.1,0.1,0.2,0.1,0.3c0.4-0.3,0.7-0.5,0.9-0.6C86.4,36,86.4,35.9,86.3,35.8L86.3,35.8
			z M86.4,36.4l0-0.2c-0.2,0.1-0.5,0.3-0.8,0.6l0.1,0.2c0,0,0.1-0.1,0.3-0.2C86.1,36.6,86.3,36.5,86.4,36.4z M86.5,36.8l0-0.2
			c-0.1,0.1-0.2,0.2-0.4,0.3l-0.4,0.3l0.1,0.2l0.2-0.2L86.5,36.8z M86.6,37.2c0,0-0.1-0.1-0.1-0.2c-0.1,0.1-0.3,0.2-0.4,0.4
			l-0.3,0.3l0.1,0.3C86.2,37.6,86.4,37.3,86.6,37.2z M86.3,32.2c0,0-0.1-0.2-0.2-0.5c-0.1-0.3-0.2-0.5-0.2-0.6l0,0
			c0,0.4,0.1,0.8,0.3,1.3C86.2,32.4,86.3,32.3,86.3,32.2z M86.5,32c0-0.1,0.1-0.1,0.1-0.2c-0.1,0-0.1,0-0.1-0.1
			c-0.1-0.2-0.2-0.5-0.2-0.9c-0.1,0-0.1,0.1-0.2,0.1C86.1,31.1,86.3,31.5,86.5,32z M86.7,37.3c-0.2,0.2-0.4,0.4-0.6,0.8
			c0.1,0.1,0.1,0.2,0.2,0.3c0.2-0.4,0.4-0.7,0.6-0.9C86.8,37.5,86.8,37.4,86.7,37.3L86.7,37.3z M86.5,34.8L86.5,34.8
			c0.1,0.1,0.1,0,0.1,0h0c0-0.1,0-0.3-0.1-0.6c0-0.3,0-0.6-0.1-0.7c-0.1,0-0.1,0-0.2,0C86.4,33.9,86.4,34.3,86.5,34.8L86.5,34.8
			L86.5,34.8z M87,37.8C87,37.7,87,37.7,87,37.8c-0.2,0-0.4,0.3-0.6,0.8c0,0,0,0.1,0.1,0.1C86.6,38.3,86.8,38.1,87,37.8z M86.9,31.7
			c0-0.1-0.1-0.3-0.1-0.5c0-0.1-0.1-0.2-0.1-0.3c-0.1,0-0.2,0.1-0.3,0.1c0.1,0.4,0.2,0.6,0.2,0.9c0,0,0,0.1,0,0.1
			C86.7,31.8,86.8,31.7,86.9,31.7z M87.3,38c0,0-0.1-0.1-0.2-0.1c-0.2,0.3-0.4,0.6-0.6,0.9l0.1,0.1L87.3,38z M86.8,33.5
			c0,0-0.1,0-0.1,0c0,0.1,0,0.4,0.1,0.7c0,0.2,0,0.4,0.1,0.5l0.2,0C87,34.4,87,34,86.8,33.5z M86.8,32.8c0.3-0.1,0.8-0.2,1.3-0.5
			c-0.3-0.2-0.6-0.2-0.8-0.1C87.1,32.3,87,32.5,86.8,32.8z M87.7,38.3c-0.1,0-0.1-0.1-0.2-0.1L86.9,39l0.4,0.2
			c0.1-0.1,0.2-0.3,0.3-0.5C87.6,38.4,87.7,38.3,87.7,38.3z M87.2,31.5c0-0.2,0-0.4,0-0.8c-0.1,0-0.2,0-0.3,0c0,0.1,0,0.2,0.1,0.3
			c0,0.2,0.1,0.4,0.1,0.5l0,0C87.1,31.6,87.2,31.5,87.2,31.5z M87.1,33.5l-0.1,0c0.1,0.5,0.2,0.9,0.2,1.2l0.1,0
			C87.2,34.2,87.1,33.8,87.1,33.5z M87.5,33.3l-0.2,0.1c0,0.4,0.1,0.8,0.2,1.2l0.2-0.1c0-0.1,0-0.2-0.1-0.4c0-0.2,0-0.3-0.1-0.5
			C87.6,33.6,87.5,33.5,87.5,33.3z M87.7,31.5c0-0.1,0-0.1,0-0.3c0-0.2,0-0.3,0-0.4l-0.4,0c0,0.3,0,0.6,0,0.7
			C87.5,31.5,87.6,31.5,87.7,31.5z M87.9,38.4L87.9,38.4c-0.1,0.1-0.1,0.1-0.2,0.3L87.5,39l-0.1,0.3l0.1,0.1
			C87.6,39.2,87.7,38.9,87.9,38.4z M87.8,33.2l-0.2,0.1c0,0.1,0.1,0.2,0.1,0.4c0,0.1,0.1,0.3,0.1,0.5c0,0.2,0,0.3,0.1,0.4l0.2-0.1
			c0-0.2-0.1-0.4-0.2-0.7C87.9,33.5,87.9,33.3,87.8,33.2z M88.2,38.4C88.1,38.4,88.1,38.4,88.2,38.4c-0.3,0.5-0.4,0.8-0.5,1
			c0.1,0,0.2,0.1,0.3,0.1l0.1-0.5C88.1,38.8,88.1,38.6,88.2,38.4z M88,31.5c0-0.1,0.1-0.3,0.2-0.6c-0.1,0-0.1,0-0.2-0.1
			c0,0-0.1,0-0.1,0c0,0.1,0,0.2,0,0.4v0.3C87.9,31.5,88,31.5,88,31.5z M88,33.2c0,0.1,0.1,0.2,0.1,0.4c0.1,0.4,0.1,0.6,0.1,0.7
			l0.2-0.1l-0.2-0.5L88,33.2z M88.2,33.1c0,0.1,0.1,0.4,0.2,0.6c0.1,0.3,0.2,0.5,0.2,0.5l0.1,0C88.4,33.6,88.3,33.2,88.2,33.1
			L88.2,33.1z M88.4,38.5L88.4,38.5c-0.1,0.1-0.1,0.3-0.2,0.6c0,0.2,0,0.4-0.1,0.5c0.1,0,0.1,0,0.2,0.1C88.4,39,88.4,38.6,88.4,38.5
			z M88.3,31.6c0.1-0.2,0.2-0.4,0.3-0.5c-0.1,0-0.2-0.1-0.3-0.1C88.3,31.2,88.2,31.4,88.3,31.6C88.2,31.6,88.3,31.6,88.3,31.6z
			 M88.6,32.9L88.4,33c0.1,0.1,0.2,0.5,0.4,1.1l0.3-0.1L89,33.8c-0.1-0.2-0.1-0.3-0.2-0.4C88.7,33.2,88.6,33,88.6,32.9z M88.6,31.8
			c0.2-0.3,0.3-0.5,0.3-0.5c0,0-0.1-0.1-0.2-0.1c-0.1,0.1-0.2,0.3-0.3,0.5L88.6,31.8z M88.6,38.5c0,0.1,0,0.5,0,1.1
			c0.1,0,0.2,0,0.3,0c0-0.1,0-0.2,0-0.4c0-0.4,0-0.6,0-0.7H88.6z M88.7,32.9c0.1,0.1,0.2,0.3,0.3,0.5c0,0.1,0.1,0.2,0.2,0.4
			c0,0.1,0.1,0.2,0.1,0.2l0.5-0.2c-0.5-0.5-0.8-0.8-0.9-0.9C88.8,32.8,88.8,32.8,88.7,32.9L88.7,32.9z M88.9,32c0.1,0,0.2,0,0.4,0
			c0.2,0,0.4-0.1,0.5-0.1l-0.2-0.2C89.4,31.7,89.2,31.8,88.9,32L88.9,32z M88.9,31.7c0.2-0.1,0.4-0.1,0.5-0.2
			c-0.1-0.1-0.2-0.1-0.3-0.2C89.1,31.4,89,31.6,88.9,31.7z M89,32.4L89,32.4L89,32.4L89,32.4z M89,32.6C89,32.6,89,32.6,89,32.6
			c0.1,0.2,0.4,0.5,1,1.1l0.3-0.1c-0.1-0.1-0.3-0.2-0.6-0.4C89.4,32.8,89.1,32.7,89,32.6z M89,38.5L89,38.5c0,0.1,0,0.4,0,0.7
			c0,0.2,0,0.3,0,0.4h0.2C89.2,39.3,89.1,38.9,89,38.5z M89.1,32.4c0.2,0.1,0.4,0.3,0.7,0.5c0.3,0.2,0.5,0.4,0.6,0.5l0.1-0.1l0-0.1
			l-0.8-0.5C89.4,32.6,89.2,32.5,89.1,32.4z M89.1,32.1c0.3,0.1,0.7,0.2,1,0.3c-0.1-0.1-0.2-0.3-0.3-0.4l-0.6,0.1L89.1,32.1z
			 M89.2,38.5C89.2,38.5,89.2,38.5,89.2,38.5c0,0.5,0.1,0.9,0.2,1.2c0.1,0,0.1,0,0.2,0l-0.2-0.6C89.3,38.8,89.3,38.6,89.2,38.5z
			 M89.4,32.4c0.1,0.1,0.2,0.2,0.4,0.2c0.3,0.2,0.5,0.3,0.6,0.4c0-0.1-0.1-0.2-0.2-0.4C90,32.6,89.7,32.5,89.4,32.4z M89.6,38.4
			l-0.2,0l0.2,0.6c0.1,0.3,0.2,0.5,0.2,0.6c0.1,0,0.1,0,0.2-0.1c0,0,0,0,0,0C89.9,39.2,89.7,38.8,89.6,38.4z M89.9,38.3
			c0,0-0.1,0-0.2,0.1c0.2,0.5,0.3,0.8,0.5,1.1c0.1,0,0.2-0.1,0.3-0.2c0,0-0.1-0.2-0.3-0.5C90,38.6,90,38.4,89.9,38.3z M90.1,38.2
			L90.1,38.2c0,0.1,0.1,0.3,0.2,0.5c0.2,0.3,0.3,0.4,0.3,0.5c0,0,0.1-0.1,0.1-0.1C90.4,38.7,90.2,38.4,90.1,38.2z M90.4,38l-0.1,0.1
			c0.1,0.2,0.3,0.4,0.6,0.8l0,0C90.7,38.5,90.5,38.2,90.4,38z M90.6,38.1c0.1,0.2,0.3,0.4,0.4,0.7l0.1-0.2
			C90.9,38.3,90.7,38.1,90.6,38.1z"/>
		<path d="M93.8,36.4c0.3,0.7,0.5,1.3,0.8,1.7c0.2,0.2,0.4,0.4,0.5,0.4c0.1,0,0.3,0,0.5-0.2c0.2-0.2,0.3-0.5,0.3-0.9
			c0-0.1,0-0.2,0-0.3c0-0.1-0.1-0.2-0.1-0.4c-0.1-0.2-0.1-0.3-0.2-0.4c0-0.1-0.1-0.3-0.3-0.8c-0.2-0.5-0.3-0.8-0.4-1.1
			c-0.1-0.3-0.2-0.6-0.3-1.1c-0.1-0.4-0.2-0.8-0.2-1.2c-0.3-2,0.3-3.3,1.7-3.9c1-0.4,2.1-0.3,3.2,0.3c0.1,0,0.1,0,0.2,0
			c0.1,0,0.2,0.1,0.2,0.2c0,0.1,0.1,0.2,0,0.3c0,0.2-0.1,0.4-0.2,0.6c-0.1,0.2-0.2,0.5-0.3,0.7L99,30.8c0,0.1-0.1,0.1-0.2,0.2
			c-0.1,0.1-0.3,0.1-0.4,0c-0.5-0.3-0.8-0.3-1.2-0.1c-0.3,0.2-0.4,0.6-0.3,1.2c0.1,0.5,0.3,1.1,0.6,2c0.3,0.9,0.5,1.4,0.6,1.6
			c0.1,0.4,0.2,0.8,0.3,1.1c0,0,0,0,0,0.1v0c0.2,1,0,1.9-0.4,2.7c-0.4,0.7-0.9,1.2-1.5,1.5c-0.7,0.3-1.3,0.3-2,0.1
			c-0.7-0.2-1.3-0.6-1.7-1.1c-0.2-0.2-0.4-0.5-0.5-0.8c-0.1-0.3-0.2-0.5-0.3-0.7c-0.1-0.1-0.1-0.4-0.3-0.8c0,0-0.1-0.1-0.1-0.1
			c0-0.1-0.1-0.2,0-0.3c0-0.1,0.1-0.2,0.2-0.2c0.2-0.1,0.7-0.4,1.4-0.8c0.1-0.1,0.2-0.1,0.3,0C93.6,36.2,93.7,36.3,93.8,36.4z
			 M93.3,37.1l0-0.1l-0.8,0.5l0.1,0.2c0.1-0.1,0.1-0.1,0.2-0.2L93.3,37.1z M92.7,37.8c0,0,0,0.1-0.1,0.1l0,0l0.1,0.2
			c0.3-0.1,0.6-0.3,0.9-0.5c-0.1-0.1-0.1-0.2-0.2-0.4l-0.5,0.4L92.7,37.8z M93.8,38.1c0-0.1-0.1-0.2-0.1-0.2
			c-0.3,0.2-0.6,0.4-0.9,0.5l0.1,0.2c0.1,0,0.3-0.1,0.4-0.2L93.8,38.1z M93.9,38.4l-0.1-0.1c-0.1,0-0.2,0.1-0.5,0.3
			c-0.2,0.1-0.3,0.2-0.5,0.2c0.1,0.1,0.1,0.3,0.2,0.4C93.5,38.8,93.8,38.5,93.9,38.4z M94.1,38.6L94.1,38.6c-0.2,0-0.5,0.3-0.9,0.7
			c0,0.1,0.1,0.1,0.1,0.2C93.5,39.3,93.7,39,94.1,38.6z M94.4,38.9l-0.2-0.2c-0.4,0.4-0.6,0.6-0.8,0.9c0.1,0.1,0.2,0.2,0.3,0.3
			l0.2-0.3l0.2-0.2C94.2,39.2,94.3,39.1,94.4,38.9z M94.7,39.1c0,0-0.1-0.1-0.1-0.1c-0.1,0.1-0.2,0.3-0.3,0.5c0,0-0.1,0.1-0.2,0.2
			C94,39.9,93.9,40,93.9,40c0.2,0.1,0.3,0.2,0.5,0.3C94.5,40,94.6,39.6,94.7,39.1z M94.8,39.2c-0.1,0.5-0.2,0.9-0.2,1.2
			c0.1,0,0.1,0.1,0.2,0.1c0.2-0.5,0.2-0.9,0.3-1.2C95,39.3,95,39.2,94.8,39.2C94.9,39.2,94.9,39.2,94.8,39.2z M95.3,39.3L95.3,39.3
			c-0.1,0.3-0.2,0.7-0.3,1.2c0.1,0,0.2,0,0.3,0.1C95.3,40.1,95.3,39.6,95.3,39.3z M95,31.6c0.5,0.1,0.9,0.2,1.2,0.2v-0.2
			c-0.2-0.1-0.4-0.1-0.6-0.2L95,31.2C95,31.3,95,31.5,95,31.6z M95,31l0.6,0.2l0.6,0.2c0-0.1,0-0.1,0-0.2c-0.1-0.1-0.4-0.2-0.7-0.5
			c-0.2-0.1-0.3-0.2-0.4-0.3C95,30.7,95,30.8,95,31z M95.1,32.2c0.4-0.1,0.7-0.1,1.1-0.1c0,0,0-0.1,0-0.1c-0.2,0-0.6-0.1-1.2-0.2
			c0,0.1,0,0.1,0,0.2C95.1,32.1,95.1,32.1,95.1,32.2z M95.2,30c0,0.1-0.1,0.2-0.1,0.3l0.5,0.3c0.3,0.2,0.6,0.4,0.7,0.4
			c0-0.1,0.1-0.2,0.1-0.3c0,0,0,0,0,0C96,30.5,95.6,30.3,95.2,30z M95.2,32.6h1.1c0-0.1,0-0.2-0.1-0.3c-0.4,0-0.7,0-1.1,0.1
			C95.1,32.5,95.2,32.5,95.2,32.6z M95.3,33.1c0.5-0.1,0.8-0.1,1.1-0.1c0-0.1,0-0.2-0.1-0.2h0h-1.1C95.2,32.9,95.3,33,95.3,33.1z
			 M95.3,29.8c0.4,0.3,0.8,0.6,1.2,0.8c0,0,0,0,0,0c0-0.1,0.1-0.1,0.2-0.2c-0.1-0.1-0.3-0.3-0.6-0.5c-0.3-0.2-0.5-0.3-0.6-0.4
			C95.4,29.6,95.3,29.7,95.3,29.8z M95.4,33.6c0.1,0,0.3-0.1,0.6-0.1c0.3,0,0.4-0.1,0.5-0.1l-0.1-0.3c-0.3,0-0.7,0-1.1,0.1
			L95.4,33.6z M95.5,39.3c0,0.4,0,0.8,0,1.2c0.1,0,0.3,0,0.4,0c-0.1-0.2-0.2-0.4-0.2-0.7C95.6,39.6,95.5,39.4,95.5,39.3z M95.6,34.1
			c0.3-0.1,0.7-0.1,1.2-0.1l-0.1-0.3c-0.1,0-0.3,0-0.6,0.1l-0.6,0.1L95.6,34.1z M95.6,29.4c0.1,0.1,0.3,0.2,0.6,0.4
			c0.3,0.2,0.5,0.4,0.7,0.5l0.1-0.1l0.1,0c-0.4-0.5-0.7-0.9-0.9-1.2C95.8,29.2,95.7,29.3,95.6,29.4z M95.7,34.6c0,0,0.3,0,0.7-0.1
			l0.6-0.1l-0.1-0.3c-0.5,0-0.9,0-1.2,0.1L95.7,34.6z M95.8,39.1c0,0-0.1,0-0.1,0.1c0,0.1,0.1,0.3,0.2,0.5c0.1,0.3,0.2,0.6,0.2,0.7
			c0.1,0,0.2-0.1,0.3-0.1c0,0,0,0,0,0c-0.1-0.2-0.2-0.4-0.3-0.7C95.9,39.4,95.8,39.2,95.8,39.1z M95.9,35.1l1.2-0.3L97,34.6
			c-0.2,0-0.4,0-0.6,0.1c-0.4,0.1-0.6,0.1-0.6,0.1L95.9,35.1z M96.1,35.6c0.4-0.1,0.8-0.2,1.2-0.2l-0.2-0.4c-0.1,0-0.2,0.1-0.4,0.1
			l-0.4,0.1c-0.1,0-0.3,0.1-0.4,0.1L96.1,35.6z M96,39l0.9,1c0.1-0.1,0.2-0.2,0.3-0.3C96.7,39.3,96.3,39,96,39L96,39z M96.1,39.3
			l0.1,0.2c0.2,0.3,0.3,0.5,0.4,0.7v0c0.1,0,0.2-0.1,0.2-0.2L96.1,39.3z M96.1,29c0.2,0.3,0.5,0.7,0.9,1.2c0,0,0,0,0.1,0
			c-0.2-0.3-0.3-0.8-0.4-1.4c-0.1,0-0.2,0.1-0.3,0.1C96.3,28.9,96.2,28.9,96.1,29z M96.2,36c0.3,0,0.7-0.2,1.2-0.4l0-0.1
			c-0.4,0.1-0.8,0.1-1.2,0.2L96.2,36z M96.2,38.8c0.2,0.1,0.6,0.3,1.2,0.7c0.1-0.1,0.1-0.2,0.2-0.3c0-0.1,0.1-0.2,0.1-0.3
			C97.2,38.8,96.8,38.8,96.2,38.8C96.2,38.8,96.2,38.8,96.2,38.8z M96.3,36.2L96.3,36.2c0.3,0,0.7-0.1,1.3-0.1l-0.1-0.2l0,0
			C97,36,96.6,36.1,96.3,36.2z M96.3,38.6c0.5,0,1,0.1,1.3,0.2c0-0.1,0.1-0.2,0.1-0.4c-0.4,0-0.8-0.1-1.3-0.2
			C96.5,38.4,96.4,38.5,96.3,38.6z M96.5,36.8c0.4,0,0.8-0.1,1.2-0.1c0-0.1-0.1-0.3-0.1-0.4c-0.6,0-1,0.1-1.2,0.1L96.5,36.8z
			 M96.6,38.1c0.5,0.1,0.9,0.2,1.2,0.2c0-0.1,0-0.2,0-0.3c-0.1,0-0.3,0-0.7-0.1c-0.2,0-0.4,0-0.5,0L96.6,38.1z M96.6,37.2
			c0,0,0.2,0,0.5,0.1c0.3,0.1,0.5,0.1,0.7,0.1c0-0.2,0-0.3-0.1-0.5c-0.5,0-0.8,0-1.2,0.1C96.6,37,96.6,37.1,96.6,37.2z M96.6,37.7
			c0.1,0,0.3,0,0.5,0l0.7,0.1v-0.2c-0.2,0-0.4-0.1-0.7-0.1c-0.2,0-0.4-0.1-0.5-0.1v0.1V37.7z M96.8,28.7c0.1,0.6,0.3,1.1,0.4,1.4
			h0.1c0-0.7,0.1-1.2,0-1.4C97.2,28.7,97,28.7,96.8,28.7z M97.6,28.7c0,0.3,0,0.7,0,1.4c0.1,0,0.2,0,0.3,0c0-0.4,0.1-0.8,0.1-1.3
			C97.8,28.7,97.7,28.7,97.6,28.7z M98,28.8c0,0.5,0,0.9-0.1,1.3c0.1,0,0.2,0,0.3,0.1c0.1-0.4,0.1-0.8,0.2-1.2
			C98.3,28.8,98.2,28.8,98,28.8z M98.6,29c-0.1,0.4-0.2,0.8-0.2,1.2l0.1,0c0.3-0.7,0.5-1,0.5-1.1C98.8,29.1,98.7,29,98.6,29z"/>
		<path d="M111.1,41.5c0.1-1.2,0.2-2.3,0-3.3c-0.2-1.4-0.6-2.2-1.2-2.4c-0.4-0.1-0.6-0.2-0.8-0.1c-0.2,0.1-0.3,0.3-0.4,0.7
			c-0.1,0.4-0.2,0.9-0.2,1.5c0,0.8,0.1,1.8,0.2,3c0,0.1,0,0.2-0.1,0.3c-0.1,0.1-0.1,0.1-0.2,0.1c-0.1,0-0.2,0-0.2-0.1
			c-0.2,0-0.5,0.1-0.8,0.1c-0.4,0-0.5,0.1-0.6,0.1c-0.1,0-0.1,0-0.2,0c-0.2,0-0.3-0.1-0.3-0.3c-0.1-0.4-0.1-0.9-0.1-1.7
			c0-0.7,0-1.1-0.1-1.2c-0.1-1.2-0.1-3,0-5.6c0.1-2.4,0-4.3-0.1-5.5c0-0.2,0.1-0.3,0.2-0.4c0.1-0.1,0.2-0.1,0.3-0.1
			c0.2,0,0.5,0,0.9-0.1c0.4,0,0.7-0.1,0.9-0.1c0.1,0,0.1-0.1,0.2-0.1c0.1,0,0.2,0,0.2,0.1c0.1,0.1,0.1,0.2,0.1,0.2
			c0,0.7,0,1.7,0.1,3c0,1.3,0.1,2.3,0.1,2.9c0.5-0.1,1-0.2,1.6-0.1c1.5,0.2,2.5,1.5,3,3.9c0.1,0.4,0.1,0.9,0.2,1.4
			c0,0.5,0.1,1,0.1,1.3c0,0.3,0,0.8,0,1.3c0,0.5,0,0.8,0,1c0,0,0.1,0.1,0.1,0.1c0,0.1,0,0.2-0.1,0.3c-0.1,0.1-0.1,0.1-0.2,0.2
			c-0.2,0-0.3,0-0.5,0.1c-0.2,0-0.3,0-0.5,0c-0.1,0-0.3,0-0.5,0c-0.2,0-0.4,0-0.5,0c-0.2,0-0.3-0.1-0.3-0.2c-0.1,0-0.2-0.1-0.2-0.1
			C111.1,41.7,111.1,41.6,111.1,41.5z M106.8,27.8l0.3-0.3l0.2-0.2c-0.2,0-0.4,0.1-0.6,0.1L106.8,27.8z M106.8,34.6
			c0.4-0.4,0.9-1,1.5-1.9v-0.3l-0.7,0.7c-0.4,0.4-0.7,0.7-0.9,0.9C106.8,34.3,106.8,34.5,106.8,34.6z M106.8,34.9v0.5l1.5-2.1
			c0-0.1,0-0.2,0-0.3C107.7,33.9,107.1,34.5,106.8,34.9z M106.8,36.9l0.1-0.1c0.1-0.2,0.2-0.4,0.3-0.5c0.1-0.2,0.5-0.7,1.2-1.5
			c0.5-0.6,0.8-1.1,1-1.5l-0.2,0.1c-0.7,0.6-1.5,1.6-2.4,3.1C106.8,36.6,106.8,36.8,106.8,36.9z M106.8,36.2c0.7-1.1,1.3-2,1.9-2.6
			c-0.1,0-0.2,0-0.3-0.1l-1.6,2.3V36.2z M106.8,33.8l0.7-0.8l0.8-0.9c0-0.2,0-0.4,0-0.6c-0.1,0.1-0.3,0.3-0.5,0.6
			c-0.2,0.3-0.4,0.5-0.6,0.8l-0.4,0.6L106.8,33.8z M106.8,37.2l1.3-1.4c0.1-0.4,0.3-0.6,0.6-0.8c0.4-0.7,0.8-1.3,1.1-1.8
			c-0.1,0-0.2,0-0.2,0c-0.2,0.5-0.6,1-1.1,1.6c-0.7,0.8-1.1,1.3-1.2,1.5c0,0.1-0.1,0.2-0.3,0.5C106.9,37,106.8,37.1,106.8,37.2
			L106.8,37.2z M106.8,28.1l0,0.7c0-0.1,0.2-0.3,0.6-0.6c0.3-0.4,0.6-0.7,0.7-0.9c-0.1,0-0.3,0-0.5,0.1l-0.4,0.4L106.8,28.1z
			 M106.8,33.2c0.2-0.3,0.4-0.6,0.8-1.1l0.7-0.9l0-0.3c-0.7,0.8-1.2,1.3-1.4,1.7v0.1L106.8,33.2z M107.8,36.4l-1,1.1l0,0.4
			L107.8,36.4z M106.8,29.2c0.1-0.1,0.4-0.4,0.7-0.7c0.3-0.3,0.5-0.5,0.7-0.7c0-0.1,0-0.3,0-0.4c-0.1,0.2-0.4,0.5-0.7,0.8
			c-0.4,0.4-0.6,0.7-0.7,0.8C106.8,29.1,106.8,29.1,106.8,29.2z M106.8,32.3c0.2-0.2,0.6-0.8,1.4-1.6l0-0.6
			c-0.7,0.9-1.1,1.4-1.4,1.7V32.3z M106.8,29.9l0.6-0.5c0.4-0.3,0.6-0.6,0.8-0.7v-0.6c-0.1,0.1-0.3,0.3-0.6,0.6
			c-0.3,0.4-0.6,0.6-0.8,0.8V29.9z M106.8,30.9l0.2-0.3l0.7-0.9l0.1-0.2l0.1-0.2c0.1-0.1,0.1-0.2,0.2-0.3v-0.1l-0.7,0.6
			c-0.3,0.3-0.5,0.5-0.7,0.6C106.9,30.4,106.9,30.6,106.8,30.9z M106.8,31.5l1.4-1.7l0-0.5c0,0,0,0.1-0.1,0.1l-0.1,0.2
			c0,0.1-0.1,0.2-0.1,0.2c-0.1,0.2-0.3,0.5-0.7,0.9c-0.2,0.2-0.3,0.4-0.4,0.5V31.5z M106.8,38.3c0.1-0.1,0.3-0.3,0.4-0.5
			c0.3-0.3,0.5-0.6,0.6-0.7c0-0.2,0-0.3,0.1-0.5L106.8,38.3L106.8,38.3z M106.9,39c0.5-0.5,0.8-0.9,0.9-1.2c0-0.1,0-0.3,0-0.4
			l-0.4,0.4c-0.2,0.3-0.4,0.5-0.6,0.7C106.9,38.7,106.9,38.8,106.9,39z M106.9,39.5c0.1-0.1,0.2-0.2,0.5-0.6l0.4-0.4v-0.3
			c-0.2,0.2-0.5,0.6-0.9,1.1l0,0V39.5z M106.9,39.7c0,0.1,0,0.2,0,0.4l0.5-0.6l0.5-0.5c0-0.1,0-0.2,0-0.3c-0.1,0.1-0.2,0.2-0.3,0.3
			C107.2,39.4,107,39.6,106.9,39.7z M107,40.4c0,0.1,0,0.2,0,0.3h0.1l0.3-0.4l0.6-0.7l0-0.4l-0.4,0.4L107,40.4z M107.7,40.6l0.2-0.3
			l0.1-0.2c0-0.1,0-0.2,0-0.3l-0.4,0.6l-0.2,0.2C107.5,40.6,107.6,40.6,107.7,40.6z M107.9,40.6c0,0,0.1,0,0.1,0l0-0.1l0,0
			L107.9,40.6z M109.4,34.9l0.4-0.6c0.3-0.5,0.5-0.8,0.7-1h0c-0.2,0-0.3,0-0.4,0l-1,1.7C109.1,34.9,109.2,34.9,109.4,34.9z
			 M109.9,35c0.1-0.1,0.2-0.3,0.3-0.5s0.3-0.4,0.4-0.6c0.1-0.2,0.2-0.3,0.2-0.5l-0.2-0.1c-0.2,0.2-0.5,0.5-0.8,1l-0.3,0.5
			C109.7,34.9,109.8,34.9,109.9,35z M110.3,35.1c0.1-0.2,0.2-0.5,0.5-0.8l0.4-0.7c0,0-0.1,0-0.1-0.1c-0.1,0.2-0.1,0.3-0.2,0.5
			c-0.1,0.2-0.2,0.4-0.4,0.6c-0.2,0.2-0.3,0.4-0.3,0.4L110.3,35.1L110.3,35.1z M110.4,35.2c0.1,0,0.1,0.1,0.2,0.1
			c0.1-0.2,0.2-0.4,0.4-0.7c0.2-0.4,0.4-0.6,0.5-0.8c-0.1,0-0.1-0.1-0.2-0.1l-0.4,0.7C110.7,34.7,110.5,35,110.4,35.2z M110.8,35.4
			l1-1.4l-0.1-0.1c-0.1,0.2-0.2,0.4-0.5,0.8C111,35,110.8,35.2,110.8,35.4L110.8,35.4z M111.1,35.8c0.4-0.5,0.7-1,1-1.4
			c-0.1-0.1-0.1-0.2-0.2-0.2l-0.9,1.4C111,35.6,111,35.7,111.1,35.8z M111.3,36.1c0.1-0.2,0.3-0.4,0.5-0.7c0.2-0.3,0.4-0.5,0.5-0.6
			c0-0.1-0.1-0.2-0.2-0.3c-0.2,0.4-0.6,0.9-0.9,1.4C111.2,36,111.3,36.1,111.3,36.1z M111.5,36.5c0.1-0.1,0.2-0.3,0.4-0.6
			c0.2-0.3,0.4-0.5,0.5-0.7c0,0,0.1,0,0.1,0c0-0.1-0.1-0.1-0.1-0.2c-0.1,0.1-0.2,0.3-0.4,0.6c-0.3,0.3-0.5,0.6-0.6,0.7
			C111.4,36.4,111.4,36.5,111.5,36.5z M111.5,36.7L111.5,36.7c0.1,0,0.3-0.2,0.5-0.5c0.3-0.3,0.4-0.6,0.6-0.8l0-0.1
			c-0.1,0.2-0.3,0.4-0.5,0.7C111.8,36.4,111.6,36.6,111.5,36.7z M111.7,37.4c0.4-0.6,0.7-1.1,1-1.4c0-0.1,0-0.2-0.1-0.2
			c-0.1,0.1-0.3,0.4-0.5,0.6c-0.2,0.3-0.4,0.5-0.5,0.7C111.7,37.2,111.7,37.3,111.7,37.4z M111.8,37.9c0.1-0.1,0.3-0.4,0.6-0.7
			c0.2-0.2,0.3-0.4,0.4-0.5v0c0-0.1-0.1-0.2-0.1-0.4c-0.2,0.4-0.6,0.8-1,1.4L111.8,37.9z M111.9,38.4c0.5-0.6,0.8-1,1.1-1.2
			l-0.1-0.4c-0.1,0.1-0.2,0.3-0.3,0.4c-0.3,0.4-0.5,0.6-0.6,0.7c0,0-0.1,0-0.1,0v0C111.8,38.2,111.8,38.3,111.9,38.4z M111.8,41.1
			l1.3-1.7l0,0v-0.2c-0.4,0.6-0.8,1.1-1.2,1.6L111.8,41.1z M111.9,41.4h0.2c0.5-0.6,0.8-1.1,1.1-1.4c0-0.1,0-0.2,0-0.3L111.9,41.4z
			 M111.9,38.8c0.4-0.5,0.7-1,1.1-1.2l0-0.1c-0.2,0.2-0.6,0.6-1.1,1.2C111.9,38.7,111.9,38.8,111.9,38.8z M111.9,40.5
			c0.4-0.5,0.8-1,1.2-1.6c0-0.1,0-0.2,0-0.3c-0.2,0.2-0.4,0.5-0.6,0.9c-0.3,0.4-0.4,0.6-0.5,0.7l0,0V40.5z M111.9,39.1v0.3
			c0.2-0.2,0.6-0.8,1.1-1.6v0C112.6,38.1,112.3,38.5,111.9,39.1z M111.9,39.9c0.1-0.1,0.2-0.3,0.3-0.5l0.4-0.6
			c0.1-0.2,0.3-0.3,0.4-0.5c0-0.1,0-0.2,0-0.3c-0.5,0.7-0.8,1.2-1.1,1.5c0,0,0,0-0.1,0V39.9z M112.6,41.4l0.2-0.2l0.4-0.7v-0.2
			c-0.2,0.3-0.5,0.6-0.9,1.1H112.6z M112.8,41.4c0.1,0,0.3,0,0.4,0c0-0.1,0-0.3,0-0.6l-0.3,0.4L112.8,41.4z"/>
		<path d="M114.6,30.7c1.7-0.7,3-1,4-0.9c1.5,0.1,2.5,1,3,2.7c0.1,0.4,0.1,0.7,0.2,1.1c0,0.4,0,0.9-0.1,1.4c-0.1,0.5-0.1,0.9-0.1,1
			c-0.1,2.2-0.3,3.9-0.5,5.1c0,0.2-0.1,0.3-0.3,0.3c-0.1,0-0.1,0.1-0.2,0.1c-0.8,0-1.4,0-1.7-0.1c-0.1,0-0.2-0.1-0.2-0.1
			c-0.1-0.1-0.1-0.2-0.1-0.2c0-0.2,0-0.4,0-0.4c-1.8,0.2-3-0.1-3.8-0.9c-0.4-0.4-0.6-0.8-0.6-1.4c-0.1-0.5,0-1.1,0.2-1.5
			c0.2-0.6,0.6-1.2,1-1.7c0.5-0.5,1-0.9,1.7-1.1c0.7-0.2,1.4-0.2,2.1,0.1c-0.1-1-0.3-1.5-0.8-1.6c-0.5-0.1-1.3,0.1-2.5,0.7
			c-0.1,0-0.1,0-0.2,0c-0.1,0-0.3,0-0.3-0.2c-0.3-0.4-0.6-1-0.9-1.7c0-0.1,0-0.1,0-0.2C114.4,30.9,114.4,30.8,114.6,30.7z
			 M114.9,38.4c0.6-1.3,1.3-2.5,2-3.5c-0.1,0-0.1,0-0.2,0.1c-0.2,0.3-0.5,0.9-1,1.5c-0.4,0.7-0.7,1.1-0.9,1.4
			C114.8,38.1,114.8,38.2,114.9,38.4z M114.9,37.4c0.1-0.2,0.4-0.6,0.7-1.1c0.4-0.5,0.6-1,0.8-1.2c-0.7,0.5-1.1,1.1-1.4,1.9
			C115,37.2,114.9,37.3,114.9,37.4z M115.1,39c0.2-0.6,0.5-1.3,1-2.2c0.5-0.9,0.9-1.6,1.3-2.2c-0.1,0-0.2,0.1-0.3,0.1
			c-0.8,1.1-1.6,2.4-2.2,3.9C115,38.8,115.1,38.9,115.1,39z M115.9,31l-0.7,0.3l0.3,0.6C115.7,31.5,115.8,31.2,115.9,31z
			 M116.8,36.5c0.1-0.1,0.1-0.3,0.3-0.4l0.4-0.6c0.2-0.3,0.4-0.6,0.5-0.9c0,0-0.1,0-0.1,0c-0.4,0.5-0.9,1.3-1.4,2.3
			c-0.5,1-0.9,1.7-1.1,2.3l0.1,0.1l0,0l0.8-1.7c0-0.2,0.1-0.4,0.2-0.7C116.5,36.8,116.6,36.6,116.8,36.5z M116.2,38l-0.7,1.4
			l0.2,0.1c0-0.1,0.1-0.2,0.2-0.3c0.1-0.2,0.1-0.2,0.1-0.3c0.1-0.2,0.2-0.4,0.3-0.5c0,0,0-0.1-0.1-0.1
			C116.2,38.2,116.2,38.1,116.2,38z M116.5,30.8l-0.3,0.1c-0.2,0.2-0.4,0.6-0.6,1.1l0.2,0.4C115.8,32.2,116.1,31.7,116.5,30.8z
			 M116.7,38.8c-0.1-0.1-0.2-0.2-0.3-0.2c-0.1,0.1-0.2,0.3-0.2,0.4c0,0-0.1,0.1-0.1,0.3c-0.1,0.2-0.1,0.3-0.2,0.3
			c0.1,0,0.2,0.1,0.3,0.1L116.7,38.8z M116.7,30.8c0,0.1-0.1,0.3-0.3,0.6l-0.4,0.9c0.2-0.1,0.3-0.2,0.5-0.2l0.1-0.2l0.2-0.6
			c0.1-0.2,0.2-0.4,0.3-0.6C117,30.7,116.9,30.7,116.7,30.8z M117,39c-0.1,0-0.1,0-0.2-0.1c0,0.1-0.2,0.4-0.4,0.9
			c0.1,0,0.1,0,0.2,0.1C116.7,39.5,116.9,39.2,117,39z M117.5,30.6L117.5,30.6c-0.2,0.2-0.3,0.4-0.5,0.7l-0.2,0.6l0,0.1l0.1-0.1
			c0,0,0,0,0,0C117.1,31.6,117.3,31.1,117.5,30.6z M117.2,39c-0.1,0.2-0.3,0.5-0.4,0.9c0,0,0.1,0,0.1,0c0.1-0.1,0.2-0.3,0.2-0.4
			c0.1-0.2,0.3-0.3,0.4-0.4C117.4,39.1,117.3,39.1,117.2,39z M118.8,36.7c-0.4-0.2-0.7-0.2-1.1-0.1c-0.3,0.1-0.6,0.3-0.7,0.6
			c-0.2,0.3-0.2,0.5-0.1,0.7c0.1,0.2,0.3,0.3,0.7,0.4c0.2,0,0.4,0,0.6-0.1c0.2-0.1,0.3-0.2,0.5-0.3C118.8,37.5,118.8,37,118.8,36.7z
			 M117.8,39.1c-0.2,0.1-0.3,0.3-0.5,0.5c-0.1,0.1-0.1,0.2-0.2,0.3c0.1,0,0.3,0,0.4,0C117.6,39.7,117.7,39.4,117.8,39.1L117.8,39.1
			C117.8,39.1,117.8,39.1,117.8,39.1z M118,30.5c-0.1,0-0.2,0-0.3,0c-0.2,0.5-0.4,1-0.6,1.3c0.1,0,0.1,0,0.2-0.1
			c0.1-0.2,0.2-0.4,0.4-0.7C117.9,30.8,118,30.7,118,30.5z M118.2,30.5c-0.1,0.1-0.2,0.3-0.4,0.6c-0.2,0.3-0.3,0.5-0.4,0.6
			c0.1,0,0.2,0,0.4-0.1c0.1-0.1,0.3-0.5,0.7-1.1C118.5,30.5,118.4,30.5,118.2,30.5z M118.1,35.9c0.3-0.6,0.6-1,0.7-1.2
			c-0.1,0-0.1,0-0.2-0.1c-0.2,0.2-0.5,0.4-0.7,0.8c-0.1,0.1-0.2,0.3-0.4,0.5l0,0C117.7,35.9,117.9,35.9,118.1,35.9z M117.6,35.5
			l0.1-0.2c0.2-0.3,0.4-0.5,0.6-0.7c-0.1,0-0.2,0-0.3,0C118,34.8,117.9,35.1,117.6,35.5z M118.3,39l-0.2,0c-0.1,0.3-0.2,0.6-0.4,0.9
			c0.1,0,0.2,0,0.3,0C118.1,39.6,118.2,39.3,118.3,39z M119,30.6c-0.1,0-0.1,0-0.2,0c-0.4,0.7-0.7,1.1-0.7,1.1h0.1
			C118.2,31.6,118.5,31.3,119,30.6z M118.5,39c0,0.3-0.2,0.6-0.3,1h0c0.2-0.4,0.4-0.7,0.6-1.1C118.7,38.9,118.6,38.9,118.5,39z
			 M118.7,35.9c0.3-0.4,0.5-0.8,0.6-1c-0.1,0-0.2-0.1-0.2-0.1c-0.2,0.2-0.4,0.5-0.7,1.1C118.4,35.9,118.5,35.9,118.7,35.9z
			 M119.4,30.7c-0.1,0-0.1-0.1-0.2-0.1c0,0.1-0.2,0.2-0.4,0.5l-0.4,0.6l0.2,0c0,0,0,0,0.1,0C118.9,31.4,119.1,31.1,119.4,30.7z
			 M119,38.8c-0.2,0.4-0.4,0.8-0.6,1.1c0.1,0,0.2,0,0.3,0c0.2-0.4,0.4-0.7,0.6-1.1c0.2-0.4,0.5-0.8,0.9-1.2c0.3-0.5,0.6-0.8,0.7-1
			l0-0.5v-0.1l-1.5,2.3l0,0.3C119.4,38.7,119.2,38.8,119,38.8z M119.6,30.8c-0.3,0.4-0.5,0.7-0.7,1.1c0.1,0,0.2,0.1,0.3,0.2
			c0.2-0.3,0.4-0.7,0.7-1.1C119.7,30.9,119.6,30.8,119.6,30.8z M118.8,36L118.8,36c0.1-0.1,0.3-0.2,0.5-0.5l0.5-0.5
			c0.1-0.1,0.2-0.3,0.4-0.5c0.2-0.2,0.3-0.4,0.5-0.6c0.1-0.2,0.2-0.4,0.4-0.5c0-0.1,0-0.2-0.1-0.3c-0.1,0.1-0.3,0.3-0.6,0.6
			c-0.2,0.2-0.4,0.4-0.5,0.6v0.4v0.1c0,0.1,0,0.1-0.1,0.2c-0.1,0.2-0.2,0.2-0.4,0.2C119.3,35.2,119.1,35.6,118.8,36z M120.8,37.5
			c0-0.2,0-0.4,0-0.6l-0.7,0.9c-0.3,0.5-0.6,0.9-0.8,1.2c-0.2,0.3-0.4,0.6-0.5,0.9c0,0,0.1,0,0.1,0c0.1,0,0.1,0,0.2,0.1l0.8-1.1
			C120.4,38.3,120.7,37.8,120.8,37.5z M119.1,36.1c0.1,0,0.1,0.1,0.2,0.1c0,0,0,0,0.1,0.1c0,0,0.1,0.1,0.1,0.1c0,0,0.3-0.3,0.7-0.9
			c0.4-0.5,0.7-0.8,0.8-1.2c0,0,0.1-0.1,0.1-0.1c0-0.2,0-0.4,0-0.6c-0.1,0.2-0.2,0.3-0.3,0.5c-0.1,0.2-0.3,0.3-0.4,0.5l-0.4,0.4
			l-0.5,0.5C119.2,35.9,119.1,36,119.1,36.1z M120.1,31.2c-0.1-0.1-0.1-0.1-0.2-0.2c-0.3,0.4-0.5,0.8-0.7,1.1l0.1,0.1
			C119.7,31.7,120,31.4,120.1,31.2z M120.8,37.9c-0.2,0.3-0.4,0.6-0.7,1.1l-0.9,1.2c0,0,0,0.1,0,0.1v0.2c0.5-0.6,1-1.3,1.5-2.2
			C120.8,38.1,120.8,38,120.8,37.9z M120.7,39.3c0-0.2,0-0.4,0.1-0.6c-0.5,0.9-1,1.5-1.4,2l0,0.1c0.1,0,0.3,0,0.4,0
			C120,40.3,120.3,39.8,120.7,39.3z M120.4,31.5c0-0.1-0.1-0.1-0.2-0.2c-0.1,0.2-0.4,0.6-0.8,1.1l0.1,0.2
			C119.8,32.2,120.1,31.9,120.4,31.5z M119.5,37.2c0,0.2,0,0.4-0.1,0.6l0.7-1l0.8-1.2c0-0.1,0-0.1,0-0.2
			C120.5,36,120,36.6,119.5,37.2z M119.5,36.5c0,0.1,0,0.2,0,0.4c0.5-0.6,1-1.2,1.5-1.9c0-0.3,0.1-0.4,0.1-0.6
			c-0.2,0.3-0.4,0.7-0.8,1.1C119.8,36.1,119.6,36.4,119.5,36.5z M120.6,31.8c0-0.1-0.1-0.1-0.1-0.2c-0.4,0.4-0.7,0.8-0.9,1.2
			c0,0.1,0,0.1,0.1,0.2C120.1,32.5,120.4,32.2,120.6,31.8z M120.7,32c-0.3,0.3-0.6,0.7-1,1.1c0,0.1,0,0.2,0.1,0.3l0.4-0.6
			c0.3-0.3,0.4-0.6,0.5-0.7L120.7,32z M120.9,32.3c-0.1,0.1-0.2,0.4-0.5,0.6c-0.3,0.3-0.5,0.6-0.6,0.7c0,0.1,0,0.2,0,0.2
			c0.1-0.1,0.2-0.2,0.4-0.4c0.3-0.3,0.6-0.6,0.7-0.7c0,0,0,0,0-0.1C120.9,32.6,120.9,32.5,120.9,32.3z M120.7,39.6
			c-0.3,0.4-0.5,0.8-0.7,1.1h0.6C120.6,40.4,120.6,40,120.7,39.6z"/>
		<path d="M123.7,36.4c0.3,0.7,0.5,1.3,0.8,1.7c0.2,0.2,0.4,0.4,0.5,0.4c0.1,0,0.3,0,0.5-0.2c0.2-0.2,0.3-0.5,0.3-0.9
			c0-0.1,0-0.2,0-0.3c0-0.1-0.1-0.2-0.1-0.4c-0.1-0.2-0.1-0.3-0.2-0.4c0-0.1-0.1-0.3-0.3-0.8c-0.2-0.5-0.3-0.8-0.4-1.1
			c-0.1-0.3-0.2-0.6-0.3-1.1c-0.1-0.4-0.2-0.8-0.2-1.2c-0.3-2,0.3-3.3,1.7-3.9c1-0.4,2.1-0.3,3.2,0.3c0.1,0,0.1,0,0.2,0
			c0.1,0,0.2,0.1,0.2,0.2c0,0.1,0.1,0.2,0,0.3c0,0.2-0.1,0.4-0.2,0.6c-0.1,0.2-0.2,0.5-0.3,0.7l-0.2,0.5c0,0.1-0.1,0.1-0.2,0.2
			c-0.1,0.1-0.3,0.1-0.4,0c-0.5-0.3-0.8-0.3-1.2-0.1c-0.3,0.2-0.4,0.6-0.3,1.2c0.1,0.5,0.3,1.1,0.6,2c0.3,0.9,0.5,1.4,0.6,1.6
			c0.1,0.4,0.2,0.8,0.3,1.1c0,0,0,0,0,0.1v0c0.2,1,0,1.9-0.4,2.7c-0.4,0.7-0.9,1.2-1.5,1.5c-0.7,0.3-1.3,0.3-2,0.1
			c-0.7-0.2-1.3-0.6-1.7-1.1c-0.2-0.2-0.4-0.5-0.5-0.8c-0.1-0.3-0.2-0.5-0.3-0.7c-0.1-0.1-0.1-0.4-0.3-0.8c0,0-0.1-0.1-0.1-0.1
			c0-0.1-0.1-0.2,0-0.3c0-0.1,0.1-0.2,0.2-0.2c0.2-0.1,0.7-0.4,1.4-0.8c0.1-0.1,0.2-0.1,0.3,0C123.5,36.2,123.6,36.3,123.7,36.4z
			 M123.2,37.1l0-0.1l-0.8,0.5l0.1,0.2c0.1-0.1,0.1-0.1,0.2-0.2L123.2,37.1z M122.6,37.8c0,0,0,0.1-0.1,0.1l0,0l0.1,0.2
			c0.3-0.1,0.6-0.3,0.9-0.5c-0.1-0.1-0.1-0.2-0.2-0.4l-0.5,0.4L122.6,37.8z M123.6,38.1c0-0.1-0.1-0.2-0.1-0.2
			c-0.3,0.2-0.6,0.4-0.9,0.5l0.1,0.2c0.1,0,0.3-0.1,0.4-0.2L123.6,38.1z M123.8,38.4l-0.1-0.1c-0.1,0-0.2,0.1-0.5,0.3
			c-0.2,0.1-0.3,0.2-0.5,0.2c0.1,0.1,0.1,0.3,0.2,0.4C123.3,38.8,123.6,38.5,123.8,38.4z M124,38.6L124,38.6c-0.2,0-0.5,0.3-0.9,0.7
			c0,0.1,0.1,0.1,0.1,0.2C123.4,39.3,123.6,39,124,38.6z M124.3,38.9l-0.2-0.2c-0.4,0.4-0.6,0.6-0.8,0.9c0.1,0.1,0.2,0.2,0.3,0.3
			l0.2-0.3l0.2-0.2C124.1,39.2,124.2,39.1,124.3,38.9z M124.5,39.1c0,0-0.1-0.1-0.1-0.1c-0.1,0.1-0.2,0.3-0.3,0.5
			c0,0-0.1,0.1-0.2,0.2c-0.1,0.1-0.2,0.2-0.2,0.3c0.2,0.1,0.3,0.2,0.5,0.3C124.3,40,124.4,39.6,124.5,39.1z M124.7,39.2
			c-0.1,0.5-0.2,0.9-0.2,1.2c0.1,0,0.1,0.1,0.2,0.1c0.2-0.5,0.2-0.9,0.3-1.2C124.9,39.3,124.8,39.2,124.7,39.2
			C124.7,39.2,124.7,39.2,124.7,39.2z M125.2,39.3L125.2,39.3c-0.1,0.3-0.2,0.7-0.3,1.2c0.1,0,0.2,0,0.3,0.1
			C125.2,40.1,125.2,39.6,125.2,39.3z M124.9,31.6c0.5,0.1,0.9,0.2,1.2,0.2v-0.2c-0.2-0.1-0.4-0.1-0.6-0.2l-0.6-0.2
			C124.9,31.3,124.9,31.5,124.9,31.6z M124.9,31l0.6,0.2l0.6,0.2c0-0.1,0-0.1,0-0.2c-0.1-0.1-0.4-0.2-0.7-0.5
			c-0.2-0.1-0.3-0.2-0.4-0.3C124.9,30.7,124.9,30.8,124.9,31z M125,32.2c0.4-0.1,0.7-0.1,1.1-0.1c0,0,0-0.1,0-0.1
			c-0.2,0-0.6-0.1-1.2-0.2c0,0.1,0,0.1,0,0.2C124.9,32.1,124.9,32.1,125,32.2z M125.1,30c0,0.1-0.1,0.2-0.1,0.3l0.5,0.3
			c0.3,0.2,0.6,0.4,0.7,0.4c0-0.1,0.1-0.2,0.1-0.3c0,0,0,0,0,0C125.8,30.5,125.4,30.3,125.1,30z M125,32.6h1.1c0-0.1,0-0.2-0.1-0.3
			c-0.4,0-0.7,0-1.1,0.1C125,32.5,125,32.5,125,32.6z M125.2,33.1c0.5-0.1,0.8-0.1,1.1-0.1c0-0.1,0-0.2-0.1-0.2h0h-1.1
			C125.1,32.9,125.1,33,125.2,33.1z M125.2,29.8c0.4,0.3,0.8,0.6,1.2,0.8c0,0,0,0,0,0c0-0.1,0.1-0.1,0.2-0.2
			c-0.1-0.1-0.3-0.3-0.6-0.5c-0.3-0.2-0.5-0.3-0.6-0.4C125.3,29.6,125.2,29.7,125.2,29.8z M125.3,33.6c0.1,0,0.3-0.1,0.6-0.1
			c0.3,0,0.4-0.1,0.5-0.1l-0.1-0.3c-0.3,0-0.7,0-1.1,0.1L125.3,33.6z M125.4,39.3c0,0.4,0,0.8,0,1.2c0.1,0,0.3,0,0.4,0
			c-0.1-0.2-0.2-0.4-0.2-0.7C125.4,39.6,125.4,39.4,125.4,39.3z M125.4,34.1c0.3-0.1,0.7-0.1,1.2-0.1l-0.1-0.3c-0.1,0-0.3,0-0.6,0.1
			l-0.6,0.1L125.4,34.1z M125.4,29.4c0.1,0.1,0.3,0.2,0.6,0.4c0.3,0.2,0.5,0.4,0.7,0.5l0.1-0.1l0.1,0c-0.4-0.5-0.7-0.9-0.9-1.2
			C125.7,29.2,125.5,29.3,125.4,29.4z M125.6,34.6c0,0,0.3,0,0.7-0.1l0.6-0.1l-0.1-0.3c-0.5,0-0.9,0-1.2,0.1L125.6,34.6z
			 M125.6,39.1c0,0-0.1,0-0.1,0.1c0,0.1,0.1,0.3,0.2,0.5c0.1,0.3,0.2,0.6,0.2,0.7c0.1,0,0.2-0.1,0.3-0.1c0,0,0,0,0,0
			c-0.1-0.2-0.2-0.4-0.3-0.7C125.7,39.4,125.7,39.2,125.6,39.1z M125.8,35.1l1.2-0.3l-0.1-0.2c-0.2,0-0.4,0-0.6,0.1
			c-0.4,0.1-0.6,0.1-0.6,0.1L125.8,35.1z M126,35.6c0.4-0.1,0.8-0.2,1.2-0.2l-0.2-0.4c-0.1,0-0.2,0.1-0.4,0.1l-0.4,0.1
			c-0.1,0-0.3,0.1-0.4,0.1L126,35.6z M125.8,39l0.9,1c0.1-0.1,0.2-0.2,0.3-0.3C126.5,39.3,126.1,39,125.8,39L125.8,39z M125.9,39.3
			l0.1,0.2c0.2,0.3,0.3,0.5,0.4,0.7v0c0.1,0,0.2-0.1,0.2-0.2L125.9,39.3z M126,29c0.2,0.3,0.5,0.7,0.9,1.2c0,0,0,0,0.1,0
			c-0.2-0.3-0.3-0.8-0.4-1.4c-0.1,0-0.2,0.1-0.3,0.1C126.1,28.9,126.1,28.9,126,29z M126.1,36c0.3,0,0.7-0.2,1.2-0.4l0-0.1
			c-0.4,0.1-0.8,0.1-1.2,0.2L126.1,36z M126,38.8c0.2,0.1,0.6,0.3,1.2,0.7c0.1-0.1,0.1-0.2,0.2-0.3c0-0.1,0.1-0.2,0.1-0.3
			C127.1,38.8,126.6,38.8,126,38.8C126.1,38.8,126,38.8,126,38.8z M126.2,36.2L126.2,36.2c0.3,0,0.7-0.1,1.3-0.1l-0.1-0.2l0,0
			C126.9,36,126.5,36.1,126.2,36.2z M126.2,38.6c0.5,0,1,0.1,1.3,0.2c0-0.1,0.1-0.2,0.1-0.4c-0.4,0-0.8-0.1-1.3-0.2
			C126.3,38.4,126.3,38.5,126.2,38.6z M126.4,36.8c0.4,0,0.8-0.1,1.2-0.1c0-0.1-0.1-0.3-0.1-0.4c-0.6,0-1,0.1-1.2,0.1L126.4,36.8z
			 M126.4,38.1c0.5,0.1,0.9,0.2,1.2,0.2c0-0.1,0-0.2,0-0.3c-0.1,0-0.3,0-0.7-0.1c-0.2,0-0.4,0-0.5,0L126.4,38.1z M126.5,37.2
			c0,0,0.2,0,0.5,0.1c0.3,0.1,0.5,0.1,0.7,0.1c0-0.2,0-0.3-0.1-0.5c-0.5,0-0.8,0-1.2,0.1C126.4,37,126.5,37.1,126.5,37.2z
			 M126.5,37.7c0.1,0,0.3,0,0.5,0l0.7,0.1v-0.2c-0.2,0-0.4-0.1-0.7-0.1c-0.2,0-0.4-0.1-0.5-0.1v0.1V37.7z M126.7,28.7
			c0.1,0.6,0.3,1.1,0.4,1.4h0.1c0-0.7,0.1-1.2,0-1.4C127,28.7,126.9,28.7,126.7,28.7z M127.4,28.7c0,0.3,0,0.7,0,1.4
			c0.1,0,0.2,0,0.3,0c0-0.4,0.1-0.8,0.1-1.3C127.6,28.7,127.5,28.7,127.4,28.7z M127.9,28.8c0,0.5,0,0.9-0.1,1.3
			c0.1,0,0.2,0,0.3,0.1c0.1-0.4,0.1-0.8,0.2-1.2C128.2,28.8,128,28.8,127.9,28.8z M128.5,29c-0.1,0.4-0.2,0.8-0.2,1.2l0.1,0
			c0.3-0.7,0.5-1,0.5-1.1C128.7,29.1,128.6,29,128.5,29z"/>
		<path d="M135.6,41.5c0.1-1.2,0.2-2.3,0-3.3c-0.2-1.4-0.6-2.2-1.2-2.4c-0.4-0.1-0.6-0.2-0.8-0.1c-0.2,0.1-0.3,0.3-0.4,0.7
			c-0.1,0.4-0.2,0.9-0.2,1.5c0,0.8,0.1,1.8,0.2,3c0,0.1,0,0.2-0.1,0.3c-0.1,0.1-0.1,0.1-0.2,0.1c-0.1,0-0.2,0-0.2-0.1
			c-0.2,0-0.5,0.1-0.8,0.1c-0.4,0-0.5,0.1-0.6,0.1c-0.1,0-0.1,0-0.2,0c-0.2,0-0.3-0.1-0.3-0.3c-0.1-0.4-0.1-0.9-0.1-1.7
			c0-0.7,0-1.1-0.1-1.2c-0.1-1.2-0.1-3,0-5.6c0.1-2.4,0-4.3-0.1-5.5c0-0.2,0.1-0.3,0.2-0.4c0.1-0.1,0.2-0.1,0.3-0.1
			c0.2,0,0.5,0,0.9-0.1c0.4,0,0.7-0.1,0.9-0.1c0.1,0,0.1-0.1,0.2-0.1c0.1,0,0.2,0,0.2,0.1c0.1,0.1,0.1,0.2,0.1,0.2
			c0,0.7,0,1.7,0.1,3c0,1.3,0.1,2.3,0.1,2.9c0.5-0.1,1-0.2,1.6-0.1c1.5,0.2,2.5,1.5,3,3.9c0.1,0.4,0.1,0.9,0.2,1.4
			c0,0.5,0.1,1,0.1,1.3c0,0.3,0,0.8,0,1.3c0,0.5,0,0.8,0,1c0,0,0.1,0.1,0.1,0.1c0,0.1,0,0.2-0.1,0.3c-0.1,0.1-0.1,0.1-0.2,0.2
			c-0.2,0-0.3,0-0.5,0.1c-0.2,0-0.3,0-0.5,0c-0.1,0-0.3,0-0.5,0c-0.2,0-0.4,0-0.5,0c-0.2,0-0.3-0.1-0.3-0.2c-0.1,0-0.2-0.1-0.2-0.1
			C135.6,41.7,135.6,41.6,135.6,41.5z M131.3,27.8l0.3-0.3l0.2-0.2c-0.2,0-0.4,0.1-0.6,0.1L131.3,27.8z M131.3,34.6
			c0.4-0.4,0.9-1,1.5-1.9v-0.3l-0.7,0.7c-0.4,0.4-0.7,0.7-0.9,0.9C131.3,34.3,131.3,34.5,131.3,34.6z M131.3,34.9v0.5l1.5-2.1
			c0-0.1,0-0.2,0-0.3C132.2,33.9,131.7,34.5,131.3,34.9z M131.3,36.9l0.1-0.1c0.1-0.2,0.2-0.4,0.3-0.5c0.1-0.2,0.5-0.7,1.2-1.5
			c0.5-0.6,0.8-1.1,1-1.5l-0.2,0.1c-0.7,0.6-1.5,1.6-2.4,3.1C131.3,36.6,131.3,36.8,131.3,36.9z M131.3,36.2c0.7-1.1,1.3-2,1.9-2.6
			c-0.1,0-0.2,0-0.3-0.1l-1.6,2.3V36.2z M131.3,33.8L132,33l0.8-0.9c0-0.2,0-0.4,0-0.6c-0.1,0.1-0.3,0.3-0.5,0.6
			c-0.2,0.3-0.4,0.5-0.6,0.8l-0.4,0.6L131.3,33.8z M131.3,37.2l1.3-1.4c0.1-0.4,0.3-0.6,0.6-0.8c0.4-0.7,0.8-1.3,1.1-1.8
			c-0.1,0-0.2,0-0.2,0c-0.2,0.5-0.6,1-1.1,1.6c-0.7,0.8-1.1,1.3-1.2,1.5c0,0.1-0.1,0.2-0.3,0.5C131.4,37,131.4,37.1,131.3,37.2
			L131.3,37.2z M131.3,28.1l0,0.7c0-0.1,0.2-0.3,0.6-0.6c0.3-0.4,0.6-0.7,0.7-0.9c-0.1,0-0.3,0-0.5,0.1l-0.4,0.4L131.3,28.1z
			 M131.3,33.2c0.2-0.3,0.4-0.6,0.8-1.1l0.7-0.9l0-0.3c-0.7,0.8-1.2,1.3-1.4,1.7v0.1L131.3,33.2z M132.3,36.4l-1,1.1l0,0.4
			L132.3,36.4z M131.4,29.2c0.1-0.1,0.4-0.4,0.7-0.7c0.3-0.3,0.5-0.5,0.7-0.7c0-0.1,0-0.3,0-0.4c-0.1,0.2-0.4,0.5-0.7,0.8
			c-0.4,0.4-0.6,0.7-0.7,0.8C131.4,29.1,131.4,29.1,131.4,29.2z M131.3,32.3c0.2-0.2,0.6-0.8,1.4-1.6l0-0.6
			c-0.7,0.9-1.1,1.4-1.4,1.7V32.3z M131.4,29.9l0.6-0.5c0.4-0.3,0.6-0.6,0.8-0.7v-0.6c-0.1,0.1-0.3,0.3-0.6,0.6
			c-0.3,0.4-0.6,0.6-0.8,0.8V29.9z M131.4,30.9l0.2-0.3l0.7-0.9l0.1-0.2l0.1-0.2c0.1-0.1,0.1-0.2,0.2-0.3v-0.1l-0.7,0.6
			c-0.3,0.3-0.5,0.5-0.7,0.6C131.4,30.4,131.4,30.6,131.4,30.9z M131.4,31.5l1.4-1.7l0-0.5c0,0,0,0.1-0.1,0.1l-0.1,0.2
			c0,0.1-0.1,0.2-0.1,0.2c-0.1,0.2-0.3,0.5-0.7,0.9c-0.2,0.2-0.3,0.4-0.4,0.5V31.5z M131.4,38.3c0.1-0.1,0.3-0.3,0.4-0.5
			c0.3-0.3,0.5-0.6,0.6-0.7c0-0.2,0-0.3,0.1-0.5L131.4,38.3L131.4,38.3z M131.4,39c0.5-0.5,0.8-0.9,0.9-1.2c0-0.1,0-0.3,0-0.4
			l-0.4,0.4c-0.2,0.3-0.4,0.5-0.6,0.7C131.4,38.7,131.4,38.8,131.4,39z M131.4,39.5c0.1-0.1,0.2-0.2,0.5-0.6l0.4-0.4v-0.3
			c-0.2,0.2-0.5,0.6-0.9,1.1l0,0V39.5z M131.4,39.7c0,0.1,0,0.2,0,0.4l0.5-0.6l0.5-0.5c0-0.1,0-0.2,0-0.3c-0.1,0.1-0.2,0.2-0.3,0.3
			C131.7,39.4,131.5,39.6,131.4,39.7z M131.5,40.4c0,0.1,0,0.2,0,0.3h0.1l0.3-0.4l0.6-0.7l0-0.4l-0.4,0.4L131.5,40.4z M132.2,40.6
			l0.2-0.3l0.1-0.2c0-0.1,0-0.2,0-0.3l-0.4,0.6l-0.2,0.2C132,40.6,132.1,40.6,132.2,40.6z M132.4,40.6c0,0,0.1,0,0.1,0l0-0.1l0,0
			L132.4,40.6z M133.9,34.9l0.4-0.6c0.3-0.5,0.5-0.8,0.7-1h0c-0.2,0-0.3,0-0.4,0l-1,1.7C133.6,34.9,133.7,34.9,133.9,34.9z
			 M134.4,35c0.1-0.1,0.2-0.3,0.3-0.5c0.2-0.2,0.3-0.4,0.4-0.6c0.1-0.2,0.2-0.3,0.2-0.5l-0.2-0.1c-0.2,0.2-0.5,0.5-0.8,1l-0.3,0.5
			C134.2,34.9,134.3,34.9,134.4,35z M134.8,35.1c0.1-0.2,0.2-0.5,0.5-0.8l0.4-0.7c0,0-0.1,0-0.1-0.1c-0.1,0.2-0.1,0.3-0.2,0.5
			c-0.1,0.2-0.2,0.4-0.4,0.6c-0.2,0.2-0.3,0.4-0.3,0.4L134.8,35.1L134.8,35.1z M134.9,35.2c0.1,0,0.1,0.1,0.2,0.1
			c0.1-0.2,0.2-0.4,0.4-0.7c0.2-0.4,0.4-0.6,0.5-0.8c-0.1,0-0.1-0.1-0.2-0.1l-0.4,0.7C135.2,34.7,135,35,134.9,35.2z M135.3,35.4
			l1-1.4l-0.1-0.1c-0.1,0.2-0.2,0.4-0.5,0.8C135.5,35,135.3,35.2,135.3,35.4L135.3,35.4z M135.6,35.8c0.4-0.5,0.7-1,1-1.4
			c-0.1-0.1-0.1-0.2-0.2-0.2l-0.9,1.4C135.5,35.6,135.5,35.7,135.6,35.8z M135.8,36.1c0.1-0.2,0.3-0.4,0.5-0.7
			c0.2-0.3,0.4-0.5,0.5-0.6c0-0.1-0.1-0.2-0.2-0.3c-0.2,0.4-0.6,0.9-0.9,1.4C135.7,36,135.8,36.1,135.8,36.1z M136,36.5
			c0.1-0.1,0.2-0.3,0.4-0.6c0.2-0.3,0.4-0.5,0.5-0.7c0,0,0.1,0,0.1,0c0-0.1-0.1-0.1-0.1-0.2c-0.1,0.1-0.2,0.3-0.4,0.6
			c-0.3,0.3-0.5,0.6-0.6,0.7C135.9,36.4,136,36.5,136,36.5z M136,36.7L136,36.7c0.1,0,0.3-0.2,0.5-0.5c0.3-0.3,0.4-0.6,0.6-0.8
			l0-0.1c-0.1,0.2-0.3,0.4-0.5,0.7C136.3,36.4,136.1,36.6,136,36.7z M136.2,37.4c0.4-0.6,0.7-1.1,1-1.4c0-0.1,0-0.2-0.1-0.2
			c-0.1,0.1-0.3,0.4-0.5,0.6c-0.2,0.3-0.4,0.5-0.5,0.7C136.2,37.2,136.2,37.3,136.2,37.4z M136.3,37.9c0.1-0.1,0.3-0.4,0.6-0.7
			c0.2-0.2,0.3-0.4,0.4-0.5v0c0-0.1-0.1-0.2-0.1-0.4c-0.2,0.4-0.6,0.8-1,1.4L136.3,37.9z M136.4,38.4c0.5-0.6,0.8-1,1.1-1.2
			l-0.1-0.4c-0.1,0.1-0.2,0.3-0.3,0.4c-0.3,0.4-0.5,0.6-0.6,0.7c0,0-0.1,0-0.1,0v0C136.3,38.2,136.4,38.3,136.4,38.4z M136.3,41.1
			l1.3-1.7l0,0v-0.2c-0.4,0.6-0.8,1.1-1.2,1.6L136.3,41.1z M136.4,41.4h0.2c0.5-0.6,0.8-1.1,1.1-1.4c0-0.1,0-0.2,0-0.3L136.4,41.4z
			 M136.4,38.8c0.4-0.5,0.7-1,1.1-1.2l0-0.1c-0.2,0.2-0.6,0.6-1.1,1.2C136.4,38.7,136.4,38.8,136.4,38.8z M136.4,40.5
			c0.4-0.5,0.8-1,1.2-1.6c0-0.1,0-0.2,0-0.3c-0.2,0.2-0.4,0.5-0.6,0.9c-0.3,0.4-0.4,0.6-0.5,0.7l0,0V40.5z M136.4,39.1v0.3
			c0.2-0.2,0.6-0.8,1.1-1.6v0C137.2,38.1,136.8,38.5,136.4,39.1z M136.4,39.9c0.1-0.1,0.2-0.3,0.3-0.5l0.4-0.6
			c0.1-0.2,0.3-0.3,0.4-0.5c0-0.1,0-0.2,0-0.3c-0.5,0.7-0.8,1.2-1.1,1.5c0,0,0,0-0.1,0V39.9z M137.1,41.4l0.2-0.2l0.4-0.7v-0.2
			c-0.2,0.3-0.5,0.6-0.9,1.1H137.1z M137.3,41.4c0.1,0,0.3,0,0.4,0c0-0.1,0-0.3,0-0.6l-0.3,0.4L137.3,41.4z"/>
		<path d="M143.5,41.1H143h-0.6c-0.1,0-0.3,0-0.5,0c-0.2,0-0.4-0.1-0.5-0.1c-0.1,0-0.2-0.1-0.2-0.2c0-0.1-0.1-0.2,0-0.3v0
			c0,0,0-0.1,0-0.1c0-0.7,0.1-1.9,0.2-3.5c0.1-1.6,0.2-2.7,0.2-3.2c-0.2,0-0.6,0-1.2,0c-0.6,0-1,0-1.3,0c-0.1,0-0.2,0-0.2-0.1
			s-0.1-0.2-0.1-0.2c0-0.1,0-0.1,0-0.2v0v-1.5c0-0.1,0-0.2,0.1-0.3c0.1-0.1,0.1-0.1,0.2-0.1c0.1,0,0.2,0,0.2,0.1c0,0,0,0,0.1,0
			c0.2,0,0.9,0,2.1,0c0-0.1,0.1-0.6,0.2-1.2c0.1-0.6,0.2-1.1,0.3-1.5c0,0,0-0.1,0.1-0.1c0-0.1,0.1-0.2,0.1-0.2
			c0.1-0.1,0.1-0.1,0.2-0.1h1.5c0.1,0,0.1,0,0.2,0.1c0.1,0,0.2,0,0.2,0.1c0.1,0.1,0.1,0.1,0.1,0.2c0,0.4,0,0.9-0.1,1.5l-0.2,1.1
			c0.2,0,0.5,0,0.8,0.1c0.5,0,0.9,0.1,1.1,0.1c0.1,0,0.1,0,0.2,0.1c0.1,0,0.2,0,0.2,0.1c0.1,0.1,0.1,0.1,0.1,0.2c0,0.3,0,0.8,0,1.5
			c0,0.1,0,0.1-0.1,0.2c0,0.1,0,0.2-0.1,0.2c-0.1,0.1-0.2,0.1-0.2,0.1c-0.3,0-0.6,0-1.2,0c-0.4,0-0.7,0-0.9,0.1
			c0,0.4-0.1,0.9-0.1,1.6c-0.1,0.8-0.1,1.5-0.2,1.9c0,0.2,0,0.7-0.1,1.6c0,0.8-0.1,1.5-0.1,1.9c0,0,0,0.1,0,0.1v0
			c0,0.1,0,0.2-0.1,0.2C143.6,41.1,143.6,41.1,143.5,41.1z M139.6,32.9c0.1-0.1,0.3-0.2,0.5-0.5c0.2-0.2,0.4-0.4,0.5-0.5h-0.3
			c-0.1,0.1-0.3,0.3-0.6,0.7V32.9z M139.6,32.4l0.4-0.4c-0.1,0-0.2,0-0.4,0C139.6,32.1,139.6,32.2,139.6,32.4z M140.2,32.9
			c0.3-0.3,0.6-0.6,0.8-0.9c-0.1,0-0.2,0-0.2,0c-0.2,0.1-0.4,0.3-0.6,0.6l-0.4,0.4H140.2z M140.8,33c0.3-0.2,0.6-0.6,0.8-1h-0.4
			c-0.2,0.3-0.5,0.6-0.8,1L140.8,33z M141.2,33c0.3-0.3,0.7-0.6,1.2-1c0.7-0.5,1.1-0.8,1.2-0.9c0-0.1,0-0.3,0.1-0.4
			c-0.4,0.3-0.9,0.6-1.4,1c0,0.1,0,0.1-0.1,0.1c-0.1,0.1-0.2,0.2-0.3,0.2c-0.3,0.4-0.6,0.7-0.8,1H141.2z M142.1,33
			c0.3-0.3,0.8-0.8,1.5-1.4c0,0,0-0.1,0-0.1v0v-0.1v0l-1.1,0.8c-0.5,0.3-0.8,0.6-1.1,0.9h0.4c0,0,0.1,0,0.1,0L142.1,33L142.1,33
			C142,33,142.1,33,142.1,33z M141.9,39.8l1.3-0.9v-0.3c-0.8,0.6-1.2,0.9-1.2,0.9C142,39.6,142,39.7,141.9,39.8z M141.9,40.2
			c0.1,0,0.3-0.2,0.6-0.4c0.3-0.2,0.5-0.3,0.6-0.5c0-0.1,0-0.1,0-0.2l-1.3,0.9V40.2z M142,39.2l0.7-0.5l0.6-0.4v-0.2
			c-0.5,0.3-0.9,0.6-1.2,0.9C142,39,142,39.1,142,39.2z M142,38.7c0.4-0.3,0.8-0.6,1.2-0.8c0-0.1,0-0.2,0-0.3
			c-0.5,0.4-0.9,0.7-1.2,1c0,0,0,0-0.1,0V38.7z M142,38.3c0.3-0.3,0.7-0.6,1.2-1v-0.2V37c-0.3,0.2-0.8,0.5-1.2,0.9
			C142,38.1,142,38.2,142,38.3z M142.4,40.4c0.1-0.1,0.2-0.1,0.3-0.2l0.5-0.3c0-0.1,0-0.2,0-0.3c-0.1,0.1-0.3,0.2-0.5,0.4l-0.7,0.5
			C142.1,40.4,142.3,40.4,142.4,40.4z M142.1,37.7c0.5-0.4,0.9-0.7,1.2-0.9c0-0.1,0-0.1,0-0.2c-0.1,0.1-0.3,0.3-0.5,0.4l-0.5,0.4
			L142.1,37.7L142.1,37.7z M142.1,37.4l0.1-0.1l0.5-0.4c0.3-0.2,0.5-0.4,0.6-0.6c0-0.2,0-0.4,0.1-0.6l-0.5,0.4
			c-0.4,0.4-0.7,0.7-0.8,0.8L142.1,37.4z M142.1,36.7l0.7-0.6c0.2-0.2,0.5-0.4,0.6-0.6l0-0.2l0-0.3c-0.1,0.1-0.3,0.3-0.6,0.6
			c-0.3,0.3-0.5,0.5-0.7,0.6L142.1,36.7z M142.2,35.8c0.1-0.1,0.3-0.3,0.5-0.5c0.4-0.3,0.6-0.6,0.8-0.7c0-0.2,0-0.3,0-0.5
			c-0.1,0.1-0.3,0.3-0.5,0.5l-0.8,0.8L142.2,35.8z M142.3,33.1c0.1,0.1,0.1,0.2,0.1,0.3v0.2l0.2-0.2l0.3-0.3
			c0.1-0.1,0.2-0.2,0.2-0.2c0.4-0.4,0.7-0.7,0.9-1h-0.1c-0.1,0-0.2,0-0.2-0.1C143,32.3,142.5,32.8,142.3,33.1z M142.3,35.2l0.2-0.2
			c0.1-0.1,0.1-0.2,0.2-0.2c0.1-0.1,0.1-0.2,0.2-0.2c0.2-0.3,0.5-0.5,0.7-0.6l0-0.5v-0.1l-1.3,1.3L142.3,35.2z M143.7,30.4l0.1-0.5
			c-0.2,0.1-0.4,0.3-0.7,0.6c-0.4,0.4-0.6,0.6-0.7,0.6c0,0.1,0,0.2,0,0.3C142.8,31,143.2,30.7,143.7,30.4z M143.6,33.1L143.6,33.1
			c0.2-0.3,0.5-0.7,0.9-1.3c-0.1,0-0.1,0-0.2,0c-0.2,0.3-0.5,0.7-1,1.1c-0.5,0.5-0.8,0.8-0.9,0.9c0,0.2,0,0.3,0,0.5l0.6-0.6
			L143.6,33.1z M143.8,29.7c0-0.2,0-0.3,0.1-0.5c-0.1,0.1-0.4,0.3-0.7,0.5l-0.7,0.5l-0.1,0.6l0.6-0.5
			C143.3,30,143.6,29.8,143.8,29.7z M143.9,29c0-0.1,0-0.1,0-0.2c-0.1,0-0.2,0.1-0.4,0.2c-0.1,0.1-0.2,0.2-0.3,0.2
			c-0.1,0.1-0.2,0.2-0.4,0.3c-0.2,0.1-0.3,0.2-0.3,0.3l0,0.2l0.6-0.4C143.4,29.4,143.7,29.1,143.9,29z M143.2,28.8
			c-0.2,0.2-0.4,0.3-0.6,0.5c0,0.1,0,0.1,0,0.2c0.4-0.3,0.7-0.6,0.9-0.7H143.2z M142.7,40.4h0.4c0-0.1,0-0.2,0-0.3l-0.4,0.2
			L142.7,40.4z M142.9,28.8h-0.2c0,0.1,0,0.1-0.1,0.2L142.9,28.8z M143.8,33c0,0,0.1,0,0.1,0h0h0h0.2c0,0,0-0.1,0-0.1l0.3-0.5
			l0.3-0.6c-0.1,0-0.2,0-0.3,0C144.3,32.4,144,32.8,143.8,33z M144.9,33C144.9,32.9,144.9,32.9,144.9,33c0.2-0.4,0.5-0.8,0.7-1.1
			c-0.1,0-0.3,0-0.5,0c-0.1,0.1-0.2,0.3-0.4,0.6l-0.3,0.6C144.5,33,144.7,33,144.9,33z M145.5,32.9c0.1-0.1,0.2-0.3,0.4-0.6l0.1-0.2
			c0-0.1,0-0.1,0-0.2h-0.2c-0.3,0.3-0.5,0.6-0.8,1.1h0.1C145.3,33,145.4,32.9,145.5,32.9z M145.7,32.9c0.1,0,0.2,0,0.3,0v-0.5
			C145.9,32.7,145.8,32.8,145.7,32.9z"/>
		<path d="M147.4,30.7c1.7-0.7,3-1,4-0.9c1.5,0.1,2.5,1,3,2.7c0.1,0.4,0.1,0.7,0.2,1.1c0,0.4,0,0.9-0.1,1.4c-0.1,0.5-0.1,0.9-0.1,1
			c-0.1,2.2-0.3,3.9-0.5,5.1c0,0.2-0.1,0.3-0.3,0.3c-0.1,0-0.1,0.1-0.2,0.1c-0.8,0-1.4,0-1.7-0.1c-0.1,0-0.2-0.1-0.2-0.1
			c-0.1-0.1-0.1-0.2-0.1-0.2c0-0.2,0-0.4,0-0.4c-1.8,0.2-3-0.1-3.8-0.9c-0.4-0.4-0.6-0.8-0.6-1.4c-0.1-0.5,0-1.1,0.2-1.5
			c0.2-0.6,0.6-1.2,1-1.7c0.5-0.5,1-0.9,1.7-1.1c0.7-0.2,1.4-0.2,2.1,0.1c-0.1-1-0.3-1.5-0.8-1.6c-0.5-0.1-1.3,0.1-2.5,0.7
			c-0.1,0-0.1,0-0.2,0c-0.1,0-0.3,0-0.3-0.2c-0.3-0.4-0.6-1-0.9-1.7c0-0.1,0-0.1,0-0.2C147.1,30.9,147.2,30.8,147.4,30.7z
			 M147.6,38.4c0.6-1.3,1.3-2.5,2-3.5c-0.1,0-0.1,0-0.2,0.1c-0.2,0.3-0.5,0.9-1,1.5c-0.4,0.7-0.7,1.1-0.9,1.4
			C147.6,38.1,147.6,38.2,147.6,38.4z M147.7,37.4c0.1-0.2,0.4-0.6,0.7-1.1c0.4-0.5,0.6-1,0.8-1.2c-0.7,0.5-1.1,1.1-1.4,1.9
			C147.7,37.2,147.7,37.3,147.7,37.4z M147.9,39c0.2-0.6,0.5-1.3,1-2.2c0.5-0.9,0.9-1.6,1.3-2.2c-0.1,0-0.2,0.1-0.3,0.1
			c-0.8,1.1-1.6,2.4-2.2,3.9C147.8,38.8,147.8,38.9,147.9,39z M148.7,31l-0.7,0.3l0.3,0.6C148.4,31.5,148.6,31.2,148.7,31z
			 M149.5,36.5c0.1-0.1,0.1-0.3,0.3-0.4l0.4-0.6c0.2-0.3,0.4-0.6,0.5-0.9c0,0-0.1,0-0.1,0c-0.4,0.5-0.9,1.3-1.4,2.3
			c-0.5,1-0.9,1.7-1.1,2.3l0.1,0.1l0,0l0.8-1.7c0-0.2,0.1-0.4,0.2-0.7C149.3,36.8,149.4,36.6,149.5,36.5z M148.9,38l-0.7,1.4
			l0.2,0.1c0-0.1,0.1-0.2,0.2-0.3c0.1-0.2,0.1-0.2,0.1-0.3c0.1-0.2,0.2-0.4,0.3-0.5c0,0,0-0.1-0.1-0.1C149,38.2,148.9,38.1,148.9,38
			z M149.2,30.8l-0.3,0.1c-0.2,0.2-0.4,0.6-0.6,1.1l0.2,0.4C148.6,32.2,148.8,31.7,149.2,30.8z M149.4,38.8
			c-0.1-0.1-0.2-0.2-0.3-0.2c-0.1,0.1-0.2,0.3-0.2,0.4c0,0-0.1,0.1-0.1,0.3c-0.1,0.2-0.1,0.3-0.2,0.3c0.1,0,0.2,0.1,0.3,0.1
			L149.4,38.8z M149.5,30.8c0,0.1-0.1,0.3-0.3,0.6l-0.4,0.9c0.2-0.1,0.3-0.2,0.5-0.2l0.1-0.2l0.2-0.6c0.1-0.2,0.2-0.4,0.3-0.6
			C149.8,30.7,149.6,30.7,149.5,30.8z M149.7,39c-0.1,0-0.1,0-0.2-0.1c0,0.1-0.2,0.4-0.4,0.9c0.1,0,0.1,0,0.2,0.1
			C149.5,39.5,149.6,39.2,149.7,39z M150.3,30.6L150.3,30.6c-0.2,0.2-0.3,0.4-0.5,0.7l-0.2,0.6l0,0.1l0.1-0.1c0,0,0,0,0,0
			C149.8,31.6,150,31.1,150.3,30.6z M149.9,39c-0.1,0.2-0.3,0.5-0.4,0.9c0,0,0.1,0,0.1,0c0.1-0.1,0.2-0.3,0.2-0.4
			c0.1-0.2,0.3-0.3,0.4-0.4C150.2,39.1,150,39.1,149.9,39z M151.6,36.7c-0.4-0.2-0.7-0.2-1.1-0.1c-0.3,0.1-0.6,0.3-0.7,0.6
			c-0.2,0.3-0.2,0.5-0.1,0.7c0.1,0.2,0.3,0.3,0.7,0.4c0.2,0,0.4,0,0.6-0.1c0.2-0.1,0.3-0.2,0.5-0.3C151.6,37.5,151.6,37,151.6,36.7z
			 M150.5,39.1c-0.2,0.1-0.3,0.3-0.5,0.5c-0.1,0.1-0.1,0.2-0.2,0.3c0.1,0,0.3,0,0.4,0C150.4,39.7,150.5,39.4,150.5,39.1L150.5,39.1
			C150.6,39.1,150.5,39.1,150.5,39.1z M150.8,30.5c-0.1,0-0.2,0-0.3,0c-0.2,0.5-0.4,1-0.6,1.3c0.1,0,0.1,0,0.2-0.1
			c0.1-0.2,0.2-0.4,0.4-0.7C150.6,30.8,150.7,30.7,150.8,30.5z M151,30.5c-0.1,0.1-0.2,0.3-0.4,0.6c-0.2,0.3-0.3,0.5-0.4,0.6
			c0.1,0,0.2,0,0.4-0.1c0.1-0.1,0.3-0.5,0.7-1.1C151.3,30.5,151.1,30.5,151,30.5z M150.8,35.9c0.3-0.6,0.6-1,0.7-1.2
			c-0.1,0-0.1,0-0.2-0.1c-0.2,0.2-0.5,0.4-0.7,0.8c-0.1,0.1-0.2,0.3-0.4,0.5l0,0C150.5,35.9,150.7,35.9,150.8,35.9z M150.4,35.5
			l0.1-0.2c0.2-0.3,0.4-0.5,0.6-0.7c-0.1,0-0.2,0-0.3,0C150.8,34.8,150.6,35.1,150.4,35.5z M151.1,39l-0.2,0
			c-0.1,0.3-0.2,0.6-0.4,0.9c0.1,0,0.2,0,0.3,0C150.9,39.6,151,39.3,151.1,39z M151.7,30.6c-0.1,0-0.1,0-0.2,0
			c-0.4,0.7-0.7,1.1-0.7,1.1h0.1C151,31.6,151.2,31.3,151.7,30.6z M151.3,39c0,0.3-0.2,0.6-0.3,1h0c0.2-0.4,0.4-0.7,0.6-1.1
			C151.5,38.9,151.4,38.9,151.3,39z M151.4,35.9c0.3-0.4,0.5-0.8,0.6-1c-0.1,0-0.2-0.1-0.2-0.1c-0.2,0.2-0.4,0.5-0.7,1.1
			C151.2,35.9,151.3,35.9,151.4,35.9z M152.1,30.7c-0.1,0-0.1-0.1-0.2-0.1c0,0.1-0.2,0.2-0.4,0.5l-0.4,0.6l0.2,0c0,0,0,0,0.1,0
			C151.6,31.4,151.9,31.1,152.1,30.7z M151.8,38.8c-0.2,0.4-0.4,0.8-0.6,1.1c0.1,0,0.2,0,0.3,0c0.2-0.4,0.4-0.7,0.6-1.1
			c0.2-0.4,0.5-0.8,0.9-1.2c0.3-0.5,0.6-0.8,0.7-1l0-0.5v-0.1l-1.5,2.3l0,0.3C152.1,38.7,152,38.8,151.8,38.8z M152.3,30.8
			c-0.3,0.4-0.5,0.7-0.7,1.1c0.1,0,0.2,0.1,0.3,0.2c0.2-0.3,0.4-0.7,0.7-1.1C152.5,30.9,152.4,30.8,152.3,30.8z M151.6,36L151.6,36
			c0.1-0.1,0.3-0.2,0.5-0.5l0.5-0.5c0.1-0.1,0.2-0.3,0.4-0.5c0.2-0.2,0.3-0.4,0.5-0.6c0.1-0.2,0.2-0.4,0.4-0.5c0-0.1,0-0.2-0.1-0.3
			c-0.1,0.1-0.3,0.3-0.6,0.6c-0.2,0.2-0.4,0.4-0.5,0.6v0.4v0.1c0,0.1,0,0.1-0.1,0.2c-0.1,0.2-0.2,0.2-0.4,0.2
			C152.1,35.2,151.9,35.6,151.6,36z M153.6,37.5c0-0.2,0-0.4,0-0.6l-0.7,0.9c-0.3,0.5-0.6,0.9-0.8,1.2c-0.2,0.3-0.4,0.6-0.5,0.9
			c0,0,0.1,0,0.1,0c0.1,0,0.1,0,0.2,0.1l0.8-1.1C153.2,38.3,153.4,37.8,153.6,37.5z M151.8,36.1c0.1,0,0.1,0.1,0.2,0.1
			c0,0,0,0,0.1,0.1c0,0,0.1,0.1,0.1,0.1c0,0,0.3-0.3,0.7-0.9c0.4-0.5,0.7-0.8,0.8-1.2c0,0,0.1-0.1,0.1-0.1c0-0.2,0-0.4,0-0.6
			c-0.1,0.2-0.2,0.3-0.3,0.5c-0.1,0.2-0.3,0.3-0.4,0.5l-0.4,0.4l-0.5,0.5C152,35.9,151.9,36,151.8,36.1z M152.9,31.2
			c-0.1-0.1-0.1-0.1-0.2-0.2c-0.3,0.4-0.5,0.8-0.7,1.1l0.1,0.1C152.5,31.7,152.8,31.4,152.9,31.2z M153.6,37.9
			c-0.2,0.3-0.4,0.6-0.7,1.1l-0.9,1.2c0,0,0,0.1,0,0.1v0.2c0.5-0.6,1-1.3,1.5-2.2C153.6,38.1,153.6,38,153.6,37.9z M153.5,39.3
			c0-0.2,0-0.4,0.1-0.6c-0.5,0.9-1,1.5-1.4,2l0,0.1c0.1,0,0.3,0,0.4,0C152.8,40.3,153.1,39.8,153.5,39.3z M153.2,31.5
			c0-0.1-0.1-0.1-0.2-0.2c-0.1,0.2-0.4,0.6-0.8,1.1l0.1,0.2C152.5,32.2,152.8,31.9,153.2,31.5z M152.3,37.2c0,0.2,0,0.4-0.1,0.6
			l0.7-1l0.8-1.2c0-0.1,0-0.1,0-0.2C153.3,36,152.8,36.6,152.3,37.2z M152.3,36.5c0,0.1,0,0.2,0,0.4c0.5-0.6,1-1.2,1.5-1.9
			c0-0.3,0.1-0.4,0.1-0.6c-0.2,0.3-0.4,0.7-0.8,1.1C152.6,36.1,152.3,36.4,152.3,36.5z M153.4,31.8c0-0.1-0.1-0.1-0.1-0.2
			c-0.4,0.4-0.7,0.8-0.9,1.2c0,0.1,0,0.1,0.1,0.2C152.8,32.5,153.1,32.2,153.4,31.8z M153.5,32c-0.3,0.3-0.6,0.7-1,1.1
			c0,0.1,0,0.2,0.1,0.3l0.4-0.6c0.3-0.3,0.4-0.6,0.5-0.7L153.5,32z M153.6,32.3c-0.1,0.1-0.2,0.4-0.5,0.6c-0.3,0.3-0.5,0.6-0.6,0.7
			c0,0.1,0,0.2,0,0.2c0.1-0.1,0.2-0.2,0.4-0.4c0.3-0.3,0.6-0.6,0.7-0.7c0,0,0,0,0-0.1C153.7,32.6,153.7,32.5,153.6,32.3z
			 M153.4,39.6c-0.3,0.4-0.5,0.8-0.7,1.1h0.6C153.3,40.4,153.4,40,153.4,39.6z"/>
		<path d="M158.9,39.1c0,0.1,0.1,0.3,0.2,0.6c0.1,0.3,0.2,0.5,0.2,0.7c0.2,0.4,0.4,0.7,0.7,0.8c0.2,0,0.3,0,0.4,0
			c0.1,0,0.1-0.1,0.2-0.2c0.1-0.3,0.2-0.8,0.1-1.4c0-0.5-0.1-1.1-0.3-1.8l-0.2-0.9c-0.9,0.3-1.9,0.3-3,0c-0.9-0.3-1.5-0.6-1.8-0.9
			c-0.5-0.5-0.8-1-0.9-1.7c-0.1-0.7-0.1-1.3,0.2-1.8c0.2-0.6,0.5-1.1,1-1.6c0.4-0.5,0.9-0.8,1.5-1c0.9-0.3,2-0.2,3.4,0.2v-0.7
			c0-0.1,0-0.2,0.1-0.2c0.1-0.1,0.2-0.1,0.2-0.1h0c0.1,0,0.1,0,0.2,0c0.2,0,0.5,0,0.9,0.1c0.4,0,0.7,0,1,0.1c0.2,0,0.3,0.1,0.3,0.2
			c0.1,0.1,0.2,0.2,0.2,0.3c0,0.2-0.1,0.6-0.1,1.2l-0.1,1.3c0,0.2-0.1,0.7-0.1,1.2c0,0.6-0.1,1-0.1,1.3c0,0.3,0,0.7,0,1.2
			c0,0.5,0,0.9,0,1.3c0,0.4,0.1,0.8,0.1,1.2c0,0.1,0,0.4,0.1,0.8c0.1,0.5,0.1,0.8,0.1,1.1c0.1,1,0,1.6-0.1,2.1
			c-0.2,0.5-0.5,0.8-0.9,1.1c-0.5,0.3-1,0.4-1.5,0.5c-0.5,0.1-1.1,0-1.6-0.1c-0.5-0.1-0.9-0.3-1.2-0.7c-0.3-0.2-0.5-0.6-0.7-1
			c-0.2-0.4-0.3-0.8-0.3-1c-0.1-0.3-0.1-0.6-0.2-1.1c-0.1,0-0.1-0.1-0.2-0.2c0-0.1,0-0.2,0-0.3c0-0.1,0.1-0.1,0.2-0.2
			c0.5-0.2,1-0.3,1.3-0.5c0.1-0.1,0.2-0.1,0.4,0C158.7,38.8,158.8,38.9,158.9,39.1z M156.5,33.6c0-0.1,0-0.2-0.1-0.2
			c-0.4,0-0.8,0-1.2,0c0,0.2,0,0.3,0,0.5C155.8,33.7,156.2,33.6,156.5,33.6z M156.4,33c-0.2,0-0.4,0-0.7-0.1c-0.2,0-0.4-0.1-0.5-0.1
			c0,0.1,0,0.2-0.1,0.3c0.4,0,0.8,0,1.2,0C156.4,33.1,156.4,33,156.4,33z M155.3,34.3c0.6-0.3,1-0.4,1.3-0.5c-0.3,0-0.7,0.1-1.3,0.2
			C155.2,34.1,155.3,34.2,155.3,34.3z M156.5,32.8c0-0.1,0-0.1,0.1-0.2c-0.3-0.1-0.7-0.2-1.1-0.3c0,0.1-0.1,0.1-0.1,0.2l0,0.1
			c0.1,0,0.3,0,0.5,0.1C156.1,32.8,156.3,32.8,156.5,32.8L156.5,32.8z M156.8,34.1c0,0-0.1-0.1-0.1-0.2c-0.3,0.1-0.7,0.2-1.3,0.5
			c0.1,0.2,0.1,0.3,0.2,0.5c0.1,0,0.3-0.2,0.6-0.4L156.8,34.1z M156.6,32.5c0-0.1,0.1-0.1,0.1-0.2c-0.5-0.1-0.8-0.3-1.1-0.4
			c0,0.1-0.1,0.2-0.1,0.2C155.9,32.3,156.3,32.4,156.6,32.5z M157,34.3C156.9,34.3,156.9,34.3,157,34.3c-0.2,0-0.4,0.1-0.7,0.3
			c-0.3,0.2-0.5,0.4-0.6,0.4c0.1,0.1,0.2,0.2,0.2,0.3l0,0c0.1-0.1,0.3-0.3,0.5-0.5L157,34.3z M156.9,32.1c0.1-0.1,0.1-0.1,0.2-0.2
			c-0.5-0.3-0.8-0.5-1.1-0.6c-0.1,0.1-0.2,0.3-0.3,0.4C156,31.8,156.4,32,156.9,32.1z M157.1,34.5L157.1,34.5l-0.6,0.5
			c-0.2,0.2-0.4,0.4-0.5,0.5c0.1,0.1,0.2,0.1,0.4,0.2c0.1-0.1,0.2-0.3,0.3-0.7C156.9,34.8,157,34.6,157.1,34.5z M157.3,31.8
			c0,0,0.1,0,0.1-0.1c-0.4-0.4-0.7-0.6-1-0.8c-0.1,0.1-0.2,0.2-0.2,0.2C156.4,31.2,156.8,31.4,157.3,31.8z M157.5,31.7l0.2-0.1
			l-0.1-0.2l-0.2-0.4c-0.2-0.2-0.3-0.4-0.4-0.5c-0.2,0.1-0.3,0.2-0.4,0.3C156.8,31,157.1,31.3,157.5,31.7z M157.6,34.7
			c-0.1,0-0.2-0.1-0.3-0.1c-0.1,0.1-0.2,0.3-0.3,0.5c-0.2,0.3-0.3,0.6-0.3,0.7c0.1,0,0.2,0.1,0.3,0.1c0.1-0.1,0.2-0.3,0.3-0.6
			C157.5,35,157.6,34.8,157.6,34.7z M157.8,31.4l-0.4-1.1h0c-0.1,0-0.2,0.1-0.3,0.1c0.1,0.1,0.3,0.3,0.4,0.5L157.8,31.4L157.8,31.4z
			 M160.2,32.4c-0.3-0.2-0.7-0.2-1.3-0.2c-0.7,0-1.2,0.2-1.5,0.5c-0.2,0.2-0.3,0.5-0.2,0.8c0,0.1,0.1,0.3,0.3,0.4
			c0.1,0.1,0.3,0.2,0.6,0.3c0.2,0.1,0.5,0.1,0.9,0c0.4,0,0.8-0.2,1.2-0.3c0,0,0.1,0,0.1,0c0-0.2,0-0.4,0-0.7
			C160.3,32.8,160.3,32.5,160.2,32.4L160.2,32.4z M158.1,34.8c-0.1,0-0.2,0-0.3-0.1c-0.1,0.1-0.2,0.3-0.4,0.6
			c-0.1,0.2-0.2,0.4-0.3,0.6l0.3,0.1h0c0.1-0.2,0.2-0.4,0.3-0.6C158,35,158.1,34.8,158.1,34.8z M158.3,39.6l0-0.1
			c-0.3,0.1-0.6,0.3-0.9,0.4l0,0.2h0l0.2-0.1l0.3-0.2C158.2,39.8,158.3,39.7,158.3,39.6z M158.4,39.8c-0.1,0.1-0.2,0.1-0.2,0.2
			l-0.3,0.2c-0.1,0.1-0.2,0.1-0.2,0.1c0,0,0,0-0.1,0c0,0.1,0,0.2,0.1,0.4c0.5-0.4,0.8-0.6,0.9-0.7l0,0L158.4,39.8z M158,31.5
			C158.1,31.5,158.1,31.5,158,31.5c0-0.4-0.1-0.8-0.2-1.3c-0.1,0-0.2,0-0.3,0.1C157.7,30.6,157.8,31,158,31.5z M158.6,40.5l-0.1-0.4
			c-0.1,0.1-0.2,0.1-0.3,0.2l-0.3,0.3l-0.3,0.2c0,0.1,0,0.2,0.1,0.2C157.9,40.9,158.3,40.7,158.6,40.5z M158.4,34.8h-0.1
			c0,0-0.1,0.3-0.4,0.7c-0.1,0.2-0.2,0.4-0.3,0.6c0.1,0,0.3,0.1,0.4,0.1c0-0.1,0.1-0.2,0.1-0.4c0-0.2,0.1-0.3,0.1-0.4
			C158.3,35.2,158.4,35,158.4,34.8z M158.8,40.8l-0.1-0.1c-0.4,0.2-0.7,0.4-1,0.6c0,0.2,0.1,0.3,0.1,0.4
			C158.3,41.2,158.6,40.9,158.8,40.8z M159,41.1c0-0.1-0.1-0.1-0.1-0.2c-0.1,0.1-0.2,0.2-0.3,0.2c-0.1,0.1-0.2,0.2-0.4,0.4
			c-0.2,0.2-0.2,0.3-0.3,0.3c0,0.1,0.1,0.2,0.2,0.3c0,0,0.1-0.2,0.3-0.4C158.6,41.5,158.8,41.2,159,41.1z M158.3,31.5
			c0.1,0,0.1,0,0.2,0c-0.1-0.4-0.1-0.9-0.1-1.3c-0.1,0-0.3,0-0.4,0C158.1,30.6,158.2,31.1,158.3,31.5z M159.1,41.4
			c0,0-0.1-0.1-0.1-0.1c-0.1,0.1-0.3,0.3-0.5,0.6c-0.2,0.3-0.3,0.4-0.4,0.5c0.1,0.1,0.1,0.2,0.2,0.3
			C158.5,42.5,158.7,42.1,159.1,41.4z M158.8,34.8c-0.1,0-0.1,0-0.2,0c0,0.1-0.1,0.3-0.1,0.6c0,0,0,0.1-0.1,0.3l-0.1,0.5
			c0.1,0,0.1,0,0.2,0C158.7,35.9,158.7,35.4,158.8,34.8z M159.5,41.7c-0.1-0.1-0.2-0.1-0.2-0.2c-0.4,0.7-0.7,1.1-0.7,1.2
			c0.1,0.1,0.3,0.2,0.5,0.2l0.3-0.7C159.4,42,159.5,41.8,159.5,41.7z M158.9,31.4c0-0.1,0-0.3,0-0.6c0-0.3,0-0.5,0-0.6l-0.3,0
			c0,0.4,0,0.8,0.1,1.3H158.9L158.9,31.4z M159.2,34.8c-0.1,0-0.1,0-0.2,0c0,0.6-0.1,1-0.3,1.4h0.3C159,35.6,159.1,35.1,159.2,34.8z
			 M159.1,31.4L159.1,31.4l0.1-1.2l-0.1,0c0,0.1,0,0.3,0,0.6C159.1,31.1,159.1,31.3,159.1,31.4z M159.5,34.7l-0.2,0
			c-0.1,0.3-0.1,0.8-0.2,1.5l0.3,0C159.5,35.9,159.5,35.4,159.5,34.7z M159.8,41.8c0,0-0.1,0-0.1-0.1l-0.2,0.6l-0.3,0.6
			c0.2,0,0.3,0.1,0.5,0.1c0-0.2,0.1-0.4,0.1-0.7C159.8,42.2,159.8,41.9,159.8,41.8z M159.3,31.4c0,0,0.1,0,0.1,0
			c0.1-0.5,0.1-0.8,0.1-1.1c-0.1,0-0.1,0-0.2-0.1V31.4z M159.9,34.6c-0.1,0-0.1,0-0.2,0.1c0,0.7,0,1.2-0.1,1.5l0.3-0.1
			C159.9,35.3,159.9,34.8,159.9,34.6z M159.6,31.5c0.1,0,0.2,0,0.2,0c0-0.5,0-0.9,0.1-1.1c-0.1,0-0.2,0-0.3-0.1
			C159.7,30.6,159.7,31,159.6,31.5z M160,41.9C160,41.9,160,41.8,160,41.9c-0.1,0.1-0.1,0.3-0.1,0.6c0,0.3,0,0.5-0.1,0.7
			c0.2,0,0.4,0,0.6,0C160.2,42.6,160.1,42.1,160,41.9z M160.1,31.6v-1.1c0,0.1-0.1,0.2-0.1,0.3c0,0.1,0,0.2,0,0.2c0,0.1,0,0.2,0,0.3
			C160.1,31.4,160.1,31.5,160.1,31.6C160.1,31.6,160.1,31.6,160.1,31.6z M160.3,34.7v-0.2c-0.1,0-0.1,0.1-0.2,0.1c0,0.2,0,0.8,0,1.5
			l0.2-0.1v-0.7c0,0-0.1-0.1-0.1-0.1c0,0,0,0,0.1-0.1v-0.4C160.3,34.8,160.3,34.8,160.3,34.7C160.3,34.7,160.3,34.7,160.3,34.7z
			 M160.2,41.9c0,0.2,0.2,0.6,0.4,1.3h0c0.2,0,0.3-0.1,0.5-0.1l-0.7-1.2H160.2z M160.3,31.7l0.1,0.1c0-0.2,0-0.4,0-0.7v-0.4l-0.1,0
			V31.7z M160.5,34.7c0.2,0.1,0.5,0.1,0.9,0.1c0,0,0.2,0,0.4,0c0.2,0,0.4,0,0.4,0c0-0.1,0-0.2,0-0.2c-0.2,0-0.5,0-0.8-0.1
			c-0.4,0-0.8,0-1,0h0V34.7z M160.5,35.2c0.2,0,0.8,0,1.8,0c0-0.1,0-0.2,0-0.2c0,0-0.2,0-0.4,0c-0.2,0-0.4,0-0.4,0
			c-0.4,0-0.7,0-0.9-0.1V35.2z M160.5,35.6c0.1,0,0.3,0,0.4-0.1c0.2,0,0.3,0,0.4,0c0.1,0,0.3,0,0.5,0c0.2,0,0.3,0,0.4,0v-0.2
			c-1,0-1.6,0-1.8,0V35.6z M160.5,35.8V36h0.1c0.1,0,0.2,0,0.3,0.1h1.4v-0.4c-0.1,0-0.2,0-0.4,0c-0.2,0-0.3,0-0.5,0
			c-0.1,0-0.3,0-0.4,0C160.8,35.7,160.6,35.7,160.5,35.8L160.5,35.8z M160.7,41.8C160.7,41.8,160.6,41.8,160.7,41.8l0.6,1.2
			c0.1,0,0.3-0.1,0.4-0.2c-0.1-0.1-0.1-0.1-0.2-0.3l-0.2-0.3c-0.1-0.1-0.1-0.2-0.2-0.2C160.9,42,160.8,41.9,160.7,41.8z M160.6,30.6
			L160.6,30.6L160.6,30.6L160.6,30.6z M160.6,31.1c0.5,0.1,1.1,0.2,1.8,0.2c0,0,0.1,0,0.1,0l0-0.3c-0.6,0-1.3-0.1-1.9-0.3V31
			L160.6,31.1z M160.8,31.6c0.2,0.1,0.5,0.1,0.9,0.1c0.1,0,0.3,0,0.5,0c0.2,0,0.3,0,0.4,0l0-0.2c0,0,0,0-0.1,0
			c-0.7,0-1.3-0.1-1.8-0.2v0.4C160.7,31.6,160.7,31.6,160.8,31.6z M160.8,30.7c0.6,0.1,1.2,0.2,1.8,0.2l0-0.3h0
			c-0.5-0.1-1-0.1-1.4-0.1c0,0,0,0,0,0.1C161,30.6,160.9,30.7,160.8,30.7z M160.9,34.3l0.6,0.1c0.4,0,0.6,0,0.8,0c0-0.1,0-0.2,0-0.3
			c-0.1,0-0.4,0-0.7,0c-0.3,0-0.5,0-0.7,0v0C161,34.1,160.9,34.2,160.9,34.3z M160.9,31.8c0.1,0.1,0.1,0.2,0.1,0.2v0.1
			c0.5,0,1,0,1.4,0.1h0l0-0.4c-0.1,0-0.2,0-0.4,0c-0.2,0-0.3,0-0.4,0C161.3,31.9,161.1,31.9,160.9,31.8z M160.9,41.7L160.9,41.7
			c0.1,0.1,0.2,0.2,0.3,0.3l0.4,0.4c0.2,0.2,0.3,0.3,0.3,0.3c0.1-0.1,0.2-0.2,0.4-0.3l-0.4-0.2l-0.5-0.3
			C161.2,41.9,161,41.8,160.9,41.7z M161,36.6h1.2v-0.4c0,0-0.2,0-0.7,0c-0.4,0-0.6,0-0.7,0L161,36.6z M161,32.5h1.5v-0.1h0
			c-0.5,0-0.9-0.1-1.4-0.1V32.5z M161,32.8l0.6,0.1c0.4,0,0.7,0.1,0.8,0.1h0l0-0.2H161V32.8z M161,33.1c0.6,0.1,1,0.2,1.4,0.2l0-0.2
			h0c-0.2,0-0.5,0-0.8-0.1L161,33L161,33.1z M161,33.8c0.1,0,0.4,0,0.7,0c0.3,0,0.5,0,0.7,0c0-0.1,0-0.2,0-0.4
			c-0.3,0-0.8-0.1-1.4-0.2V33.8z M161.1,37.1c0.5,0,0.9,0,1.1,0v-0.3H161L161.1,37.1z M161.1,41.5C161.1,41.5,161.1,41.6,161.1,41.5
			c0.1,0.2,0.3,0.3,0.6,0.5c0.3,0.2,0.5,0.3,0.6,0.3c0.1-0.1,0.1-0.2,0.2-0.3c0,0,0-0.1,0-0.1c0,0,0,0-0.1,0
			C162,41.8,161.6,41.7,161.1,41.5z M161.2,37.6c0.3,0,0.7-0.1,1.1-0.1c0-0.1,0-0.2,0-0.3c-0.3,0-0.6,0-1.1,0l0,0.2L161.2,37.6z
			 M161.2,30.3c0.4,0,0.9,0,1.4,0.1c0,0,0,0,0,0l0-0.3h-1.4V30.3L161.2,30.3z M161.2,29.6c0.5,0,0.9,0,1.2,0c-0.1,0-0.2,0-0.5,0
			c-0.3,0-0.5,0-0.7,0V29.6z M161.2,30h1.4h0l0-0.2c-0.3,0-0.8,0.1-1.5,0.1V30z M161.2,41.4c0.4,0.2,0.9,0.3,1.3,0.4c0,0,0,0,0.1,0
			c0-0.1,0-0.2,0-0.3c-0.7-0.1-1.1-0.2-1.3-0.3v0C161.3,41.3,161.3,41.3,161.2,41.4z M161.3,38c0.5,0,0.8,0,1,0c0-0.1,0-0.2,0-0.3
			c-0.4,0-0.7,0-1,0.1L161.3,38z M161.4,38.4c0.2,0.1,0.6,0.1,1,0.1c0-0.1,0-0.1,0-0.2l0-0.1c-0.2,0-0.5,0-1,0L161.4,38.4
			L161.4,38.4z M161.4,38.9h1l0-0.2c-0.4,0-0.7,0-1-0.1C161.4,38.7,161.4,38.8,161.4,38.9z M161.4,41c0.1,0,0.5,0.1,1.2,0.3
			c0-0.1,0-0.2,0-0.3c-0.4-0.1-0.7-0.2-1.1-0.3C161.4,40.8,161.4,40.9,161.4,41z M161.5,39.2h1l0-0.2h-1
			C161.5,39.1,161.5,39.2,161.5,39.2z M161.5,39.7c0.1,0,0.3,0,0.5,0c0,0,0.1,0,0.2,0c0.1,0,0.2,0,0.2,0c0-0.1,0-0.2,0-0.3h-1v0
			C161.5,39.5,161.5,39.6,161.5,39.7z M161.5,40.5c0.4,0.1,0.8,0.2,1.1,0.3c0-0.1,0-0.3,0-0.4h-0.5c-0.2,0-0.4,0-0.6,0V40.5z
			 M161.5,40.2c0.1,0,0.3,0,0.6,0h0.5c0-0.1,0-0.2,0-0.3c0,0-0.1,0-0.2,0c-0.1,0-0.2,0-0.2,0c-0.2,0-0.4,0-0.5,0V40.2z"/>
	</g>
	<g>
		<path d="M28.4,39.1c0.2,0.8,0.5,1.6,1,2.3c0.4,0.8,0.9,1.4,1.5,1.9c0.9,0.8,1.8,1,2.8,0.7c1-0.3,1.5-1.1,1.5-2.3
			c0-0.9-0.2-2.1-0.8-3.4c-0.2-0.4-0.5-1-0.8-1.8c-0.4-0.8-0.7-1.4-0.8-1.8c-0.2-0.4-0.3-0.9-0.5-1.6C32.1,32.5,32,32,32,31.9
			c-1-3.3-1.6-5.8-1.8-7.5c-0.3-3.2,0.3-5.7,1.8-7.7c1.5-1.9,3.6-2.8,6.3-2.8c0.4,0,0.7,0,1.1,0.1c0.3,0.1,0.7,0.1,1.1,0.3
			c0.4,0.1,0.7,0.2,0.9,0.3c0.2,0.1,0.5,0.2,1,0.4c0.5,0.2,0.8,0.3,0.8,0.3c0.2,0.1,0.3,0.2,0.4,0.3c0.2-0.1,0.3-0.1,0.5,0
			c0.2,0.1,0.4,0.2,0.5,0.4c0.1,0.2,0.1,0.4,0,0.7c-0.2,0.6-0.5,1.4-0.9,2.4c-0.4,1-0.7,1.7-0.8,2.1c-0.1,0.4-0.4,0.6-0.8,0.6
			c-0.3,0.1-0.5,0-0.8-0.1c-1.1-0.8-2.1-0.8-3.1-0.3c-1,0.6-1.4,1.5-1.3,2.8c0.1,0.8,0.4,1.7,1,2.8l0.9,1.5c0.4,0.6,0.7,1.1,0.9,1.5
			c0.9,1.7,1.5,3.5,2,5.4c0.4,1.9,0.6,3.8,0.4,5.8c-0.1,2-0.6,3.9-1.5,5.6c-0.1,0.2-0.2,0.4-0.3,0.5c-0.1,0.2-0.2,0.3-0.3,0.5
			c-0.1,0.1-0.2,0.3-0.4,0.4c-0.2,0.2-0.3,0.3-0.4,0.4c-0.1,0.1-0.3,0.2-0.5,0.4l-0.4,0.3l-0.5,0.3c-0.2,0.1-0.4,0.2-0.4,0.3
			c-3.5,2.3-6.7,2.5-9.5,0.5c-2.3-1.6-3.9-4.3-4.9-8.2c-0.1-0.2,0-0.4,0-0.6c-0.1-0.2-0.1-0.4,0-0.6c0.1-0.2,0.2-0.4,0.4-0.5
			c0.4-0.2,0.9-0.5,1.6-0.9c0.7-0.4,1.3-0.8,1.7-1c0.1-0.1,0.2-0.1,0.3-0.1c0.1-0.1,0.2-0.1,0.3-0.1c0.2-0.1,0.4,0,0.7,0.1
			C28.3,38.7,28.4,38.9,28.4,39.1z M27.2,40.9l-0.2-0.4L26,41.1l-1.2,0.7c0,0.2,0.1,0.4,0.1,0.6C26.2,41.6,26.9,41.1,27.2,40.9z
			 M27.6,41.7l-0.2-0.3c-0.3,0.2-1.1,0.7-2.4,1.5c0.1,0.2,0.1,0.4,0.2,0.7C26.3,42.5,27.1,41.9,27.6,41.7z M28.1,42.7l-0.3-0.6
			c-0.4,0.2-1.2,0.8-2.3,1.8c0.1,0.3,0.2,0.6,0.3,0.8l1-0.9L28.1,42.7z M28.6,43.4L28.4,43c-0.3,0.3-0.8,0.6-1.3,1.1l-1.1,1l0.1,0.3
			c0.3-0.3,0.6-0.5,0.8-0.8C27.5,44,28.1,43.6,28.6,43.4z M29.1,43.9l-0.2-0.2c-0.5,0.2-1,0.6-1.7,1.2c-0.3,0.3-0.6,0.6-0.9,0.9
			c0.1,0.2,0.3,0.5,0.4,0.7C27.5,45.3,28.3,44.5,29.1,43.9C29,44,29,43.9,29.1,43.9z M29.6,44.6c-0.1-0.1-0.2-0.2-0.3-0.3l-0.1,0.1
			c-0.6,0.5-1.4,1.3-2.3,2.5c0.2,0.3,0.4,0.6,0.6,0.8c0.3-0.4,0.7-0.9,1.1-1.5L29.6,44.6z M30.3,45.2c-0.1-0.1-0.2-0.2-0.3-0.3
			l-1,1.5c-0.5,0.7-0.9,1.2-1.2,1.6c0.2,0.2,0.4,0.4,0.6,0.6c0.3-0.4,0.6-1,1-1.6L30.3,45.2z M30.7,45.4L30.7,45.4l-1,1.7
			c-0.4,0.8-0.8,1.4-1,1.7l0.2,0.1l0.3,0.2c0.1-0.3,0.4-0.9,0.7-1.9C30.2,46.4,30.5,45.8,30.7,45.4z M31.2,45.6L31.2,45.6
			c-0.3,0.4-0.6,1-0.9,1.8c-0.4,1-0.6,1.7-0.7,2c0.3,0.1,0.6,0.3,0.9,0.3l0.3-1.7C31,46.9,31.1,46.1,31.2,45.6z M31.9,45.9
			c-0.1,0-0.2-0.1-0.3-0.1c-0.1,0.4-0.2,1.2-0.4,2.3c-0.1,0.7-0.2,1.3-0.3,1.8c0.1,0,0.2,0,0.4,0c0.1-0.6,0.1-1.3,0.3-2
			C31.6,47.1,31.8,46.4,31.9,45.9z M32.2,46.5c-0.1,0.4-0.2,1-0.3,1.6c-0.1,0.7-0.2,1.3-0.3,1.9c0.2,0,0.4,0,0.7,0v0
			c0-0.4,0-1.1-0.1-1.8C32.2,47.2,32.2,46.7,32.2,46.5z M35.2,22.8c-1.4-0.1-2.6-0.4-3.3-0.8c0,0.3,0,0.5,0,0.8
			C33.7,22.9,34.8,22.9,35.2,22.8z M31.9,24.1c1.6-0.3,2.7-0.6,3.4-0.8v-0.1c-0.5,0.1-1.7,0.1-3.5,0.1
			C31.8,23.5,31.8,23.8,31.9,24.1z M31.9,21.6c0.8,0.4,2,0.6,3.6,0.8c0.1-0.1,0.1-0.3,0.2-0.4c-0.9-0.4-2.1-0.7-3.6-1.1L31.9,21.6z
			 M32,25.2c0.8-0.3,1.9-0.7,3.3-0.9c0-0.2,0-0.4,0-0.6c-0.7,0.2-1.8,0.5-3.4,0.8L32,25.2z M32.1,20.5c1.6,0.3,2.8,0.7,3.7,1.1
			c0.1-0.2,0.2-0.3,0.3-0.5C35.3,21,34,20.6,32.2,20C32.2,20.1,32.2,20.3,32.1,20.5z M32.3,26.6c0.1-0.1,0.4-0.2,0.8-0.4l0.9-0.4
			c0.2-0.1,0.4-0.2,0.7-0.4c0.3-0.2,0.5-0.3,0.7-0.5c0-0.1,0-0.2,0-0.2c-1.4,0.3-2.5,0.6-3.3,0.9L32.3,26.6z M36.2,20.6
			c-2.1-1.4-3.1-2.1-3.2-2.1c0,0-0.1-0.1-0.1-0.1c-0.2,0.4-0.4,0.8-0.6,1.2C34.1,20.2,35.4,20.6,36.2,20.6z M33.7,26.4L32.4,27v0.1
			L33.7,26.4z M32.7,28.2c1.1-0.8,2.1-1.4,3.2-1.7c-0.1-0.2-0.2-0.4-0.2-0.6c-0.3,0.1-0.7,0.3-1,0.5c-0.3,0.2-0.7,0.4-1.2,0.7
			c-0.4,0.3-0.8,0.5-1,0.6L32.7,28.2z M32.7,45.9L32.7,45.9c0,0.4,0,1.1,0,2c0,0.9,0.1,1.5,0.1,2c0.1,0,0.3-0.1,0.4-0.1
			C32.9,48,32.7,46.7,32.7,45.9z M32.9,29.1c0.7-0.5,1.8-1.1,3.3-1.7c-0.1-0.2-0.1-0.3-0.2-0.5c-1.1,0.3-2.2,0.9-3.3,1.7L32.9,29.1z
			 M33.2,30.1c1-0.8,2.1-1.6,3.3-2.3l0,0l0-0.1c-1.6,0.7-2.7,1.3-3.4,1.8L33.2,30.1z M33.1,18.1c0.1,0,0.1,0,0.2,0
			c0.4,0.3,1.1,0.7,1.9,1.2l1.5,1h0c-0.7-0.5-1.7-1.6-2.9-3.1c-0.1,0.1-0.3,0.3-0.4,0.5L33.1,18.1z M33.7,45.9
			c-0.2,0-0.4,0.1-0.6,0.1c0,0.7,0.2,2,0.5,3.8c0.2-0.1,0.4-0.1,0.6-0.2C33.9,48.4,33.7,47.2,33.7,45.9z M33.6,31.2
			c0.1-0.1,0.4-0.3,0.8-0.7l0.9-0.7c0.2-0.1,0.5-0.3,0.8-0.6c0.3-0.2,0.7-0.4,1-0.6l-0.3-0.4c-1.3,0.7-2.4,1.5-3.4,2.3L33.6,31.2z
			 M33.8,32.2l3.8-2.5l-0.2-0.4L37.3,29c-0.4,0.2-0.7,0.4-1.1,0.7c-0.4,0.2-0.8,0.6-1.4,1.1c-0.6,0.5-0.9,0.7-1,0.8
			C33.7,31.8,33.8,32,33.8,32.2z M34,33.2c1.2-1.2,2.6-2.1,4-2.9v0L37.9,30l-4,2.7l0,0.2L34,33.2z M34.8,16.5
			c-0.2,0.1-0.5,0.3-0.7,0.5c1.3,1.6,2.3,2.6,3,3.1l0.1,0l-0.7-1.2l-0.9-1.3C35.3,17.2,35,16.8,34.8,16.5z M34.4,34.3
			c1.3-1.2,2.6-2.3,4-3.3l-0.2-0.3v0h0c-1.4,0.8-2.8,1.8-4,3c0.1,0.2,0.1,0.4,0.2,0.5L34.4,34.3z M34.2,46.9
			c0.1,0.9,0.2,1.7,0.4,2.5c0.2-0.1,0.5-0.2,0.7-0.3l0,0C34.8,48.5,34.5,47.7,34.2,46.9z M34.3,45.7c0.3,1.3,0.8,2.4,1.3,3.1
			c0,0,0,0.1,0,0.1l0.4-0.3c-0.5-1-1-2-1.5-3C34.5,45.6,34.4,45.6,34.3,45.7z M34.6,34.8l1.9-1.3c0.9-0.7,1.7-1.2,2.3-1.5l-0.3-0.5
			C37.1,32.4,35.8,33.5,34.6,34.8L34.6,34.8z M35.1,35.9c0.5-0.4,1.1-1,1.9-1.7l2-1.7l0-0.2c-0.6,0.3-1.3,0.8-2.3,1.5l-2,1.3
			L35.1,35.9L35.1,35.9z M35.5,45c-0.2,0.1-0.4,0.3-0.6,0.4c0.5,1,1,2,1.5,3l0.8-0.5c-0.4-0.3-0.8-0.9-1.2-1.7
			C35.9,45.9,35.7,45.5,35.5,45z M35.2,16.3c0.3,0.3,0.5,0.7,0.8,1.1l0.8,1.3c0.3,0.5,0.5,0.9,0.7,1.1c0.1,0,0.1-0.1,0.2-0.1
			c-0.6-0.8-1-2-1.4-3.8C35.9,16,35.5,16.1,35.2,16.3z M35.3,25.6l0.3-0.1v0L35.3,25.6z M35.6,36.8c0.4-0.3,1.1-0.8,1.9-1.4
			c1-0.7,1.6-1.2,2-1.5c-0.1-0.3-0.2-0.6-0.3-0.9l-2,1.7c-0.8,0.6-1.4,1.2-1.9,1.7L35.6,36.8z M36,37.8l3.8-2.9l-0.2-0.6
			c-0.4,0.3-1,0.8-1.9,1.4c-0.9,0.6-1.5,1.1-2,1.5L36,37.8L36,37.8z M35.9,44.7l0.6,1.3c0.4,0.8,0.7,1.3,1.1,1.5l0.1,0.1
			c0.3-0.2,0.6-0.4,0.8-0.7c-1-0.9-1.8-1.7-2.3-2.5C36,44.5,35.9,44.6,35.9,44.7z M36.3,38.4c0.4-0.3,1-0.7,1.7-1.1
			c1-0.6,1.7-1,2.1-1.3c0-0.2-0.1-0.5-0.1-0.7l-3.7,2.9L36.3,38.4z M36.4,44L36.4,44c0.5,0.9,1.3,1.7,2.4,2.6
			c0.1-0.2,0.3-0.4,0.4-0.6l0.1-0.3C38.5,45.4,37.5,44.8,36.4,44z M36.5,39c0.4-0.1,1-0.3,1.9-0.7c0.8-0.3,1.5-0.5,2-0.7
			c0-0.4-0.1-0.7-0.2-1.1l-2,1.2c-0.8,0.4-1.3,0.8-1.8,1.1L36.5,39z M36.5,43.6c1.2,0.8,2.2,1.3,2.9,1.7c0.1-0.2,0.2-0.5,0.3-0.7
			C39,44.3,38,44,36.7,43.4C36.6,43.5,36.6,43.5,36.5,43.6z M36.7,39.4c2.1,0,3.4,0,3.8-0.1c0-0.4,0-0.9-0.1-1.3
			c-0.4,0.1-1,0.3-1.8,0.7L36.7,39.4z M38,19.5c-0.1-0.4-0.2-0.9-0.2-1.7c-0.1-0.9-0.2-1.6-0.3-2v0c-0.3,0-0.6,0.1-0.8,0.1
			C37.1,17.6,37.5,18.8,38,19.5z M36.9,40.7c1.6,0.1,2.8,0,3.6-0.2v-0.7c-0.5,0.1-1.8,0.1-3.7,0C36.8,40.1,36.9,40.4,36.9,40.7z
			 M36.8,43c1.3,0.6,2.3,1,3.1,1.2c0.1-0.3,0.1-0.5,0.2-0.8c-1.7-0.3-2.7-0.6-3.2-0.7L36.8,43z M36.9,42.2c0.5,0.1,1.6,0.4,3.3,0.7
			l0.2-0.9c-1.7,0-2.8,0-3.4,0C37,42,36.9,42.1,36.9,42.2z M37,41.5c0.6,0.1,1.7,0.1,3.4,0c0-0.2,0-0.4,0-0.6
			c-0.8,0.1-1.9,0.2-3.5,0.1V41.5z M38,15.7c0.1,0.4,0.2,1.1,0.3,2c0.1,0.7,0.1,1.3,0.2,1.7c0.2-0.1,0.4-0.1,0.6-0.1v-3.6
			c-0.3,0-0.5,0-0.7,0H38z M39.5,19.1c0.1-1.1,0.2-1.7,0.3-1.8c0.1-0.6,0.2-1,0.3-1.4c-0.2-0.1-0.4-0.1-0.6-0.1V19.1z M40.5,16.1
			c-0.1,0.3-0.2,0.8-0.3,1.3c-0.1,0.2-0.1,0.4-0.1,0.7L40,18.7c0,0.2,0,0.4,0,0.5h0.1l0.5-1.4c0.2-0.7,0.4-1.2,0.5-1.6
			C40.8,16.2,40.7,16.1,40.5,16.1z M41.5,16.4c-0.1,0.4-0.3,0.9-0.5,1.6c-0.2,0.7-0.4,1.1-0.5,1.3c0.1,0,0.2,0,0.3,0l0.5-1.3
			c0.2-0.6,0.4-1.1,0.6-1.5L41.5,16.4z M42.3,16.7c-0.1,0.3-0.3,0.8-0.6,1.5l-0.5,1.3c0.2,0.1,0.4,0.1,0.6,0.2
			c0-0.1,0.2-0.4,0.5-1.1l0.7-1.7c-0.1,0-0.1,0-0.1,0L42.3,16.7z"/>
	</g>
</g>
</svg>
