<svg id="Layer_1" data-name="Layer 1" xmlns="http://www.w3.org/2000/svg" width="2487.25" height="357.04" viewBox="0 0 2487.25 357.04">
  <title>hashtag-konkurs</title>
  <path d="M68.48,129.36q7.52-.63,20.06-.63-2.2-19.11-2.16-21.94A7.57,7.57,0,0,1,84.81,103a5.24,5.24,0,0,1,1.44-4.39,7,7,0,0,1,4.54-2.16q12.85-.94,32.91-.94h1.57a6.89,6.89,0,0,1,4.54,1.72,5.35,5.35,0,0,1,2,4.23q.31,9.4.32,29.15a103.27,103.27,0,0,0,12.54.63q1.56-6.27,2.82-14.58t1.73-13q.47-4.7,1.44-16.14T152,73.59a7.36,7.36,0,0,1,1.57-3.45,5.86,5.86,0,0,1-.32-1.88A5.33,5.33,0,0,1,155.14,64a6.87,6.87,0,0,1,4.54-1.72q4.7.32,10,1.09t11.6,2.07q6.27,1.26,9.09,1.57a7.06,7.06,0,0,1,2.16.94,5.76,5.76,0,0,1,4.7,5.17,59,59,0,0,1,.63,8.64q0,4.39-.32,9.24T197,99.25a87.41,87.41,0,0,1-1.57,9.4l-1.25,8.16q-.63,2.51-2,8.93t-1.73,8a139.22,139.22,0,0,1,20.69.32h.32a7,7,0,0,1,4.54,2.16,5.27,5.27,0,0,1,1.44,4.39q-.94,12.86-.94,24.76a6.26,6.26,0,0,1,.63,2.82,6.43,6.43,0,0,1-6.27,6.27q-20.38,0-30.4-.32a20.16,20.16,0,0,1,.32,3.13,34.46,34.46,0,0,1-.32,3.45v.94q5.64,0,20.21-.31t22.73-.32a6.66,6.66,0,0,1,4.39,1.57q5,.94,5,6.27V213a5.87,5.87,0,0,1,1.25,3.76,6.43,6.43,0,0,1-6.27,6.27q-5.33,0-15.67.16t-18.8.16q-8.47,0-15.67-.32-.94,11.91-.63,29.15,0,4.39.16,16.3t.16,18.49v.32a8.44,8.44,0,0,1,.63,3.13,5.51,5.51,0,0,1-1.88,4.23,6.71,6.71,0,0,1-4.7,1.72q-11-.32-28.84-.32a6.23,6.23,0,0,1-2.82-.63,10.46,10.46,0,0,1-2.51-.32,5.76,5.76,0,0,1-3.76-2.82,6.12,6.12,0,0,1-.63-4.7A103.32,103.32,0,0,0,135.45,268q.47-10.5.16-25.7t-.37-21.42q-5.33-.31-12.24-.63v25.39a6.34,6.34,0,0,1,2.16,5.64,6.48,6.48,0,0,1-2.35,4.23,5.69,5.69,0,0,1-4.54,1.44q-7.2-.63-18.18-.94H81a5.67,5.67,0,0,1-4.7-2.51q-5-1.88-3.45-7.2,2.16-8.47,2.51-9.4a21.1,21.1,0,0,1,.16-2.35q.15-1.44.32-4.23t.47-6.58H71.92a6.27,6.27,0,0,1-5-2.16,6.36,6.36,0,0,1-3.13-6.27l1.88-24.14a7.36,7.36,0,0,1,1.58-3.55,6,6,0,0,1,1.25-4.54,5.88,5.88,0,0,1,4.07-2.35q7.83-.94,13.48-1.57V171H69.73A5.82,5.82,0,0,1,66,169.8a5.51,5.51,0,0,1-4.23-1.88A6.28,6.28,0,0,1,60,163.53q0-7.83.94-24.76a6,6,0,0,1,1.88-4.39Q63.77,130,68.48,129.36Zm7.2,11.91a9.13,9.13,0,0,1-2.16.32l-.94,16.92h4.07q0-2.16-.32-9.4-.34-4.7-.65-7.83Zm4.39,51.11-1.88.32-1.57,18.49,1.88.32Zm-1.25-51.11q.31,2.82.63,7.84.31,7.2.32,9.4h2.51A95.3,95.3,0,0,1,81,141.27Zm7.52,57.05a60.59,60.59,0,0,1,2.16-6.58c-1.05,0-2.82.11-5.33.32l-1.56,19.43h1.88A114.46,114.46,0,0,1,86,199.25,2.4,2.4,0,0,1,86.34,198.32Zm-2.16-57.05q-.32,5.64,1.25,17.24h3.13V141.27Zm33.22,63.94q-23.2-.31-29.46.94h-.32a53.7,53.7,0,0,1-1,5.64q21.6-1.56,24.48-1.57h.32a5.49,5.49,0,0,1,5.33-3.13h.63ZM87.31,240.94a20.88,20.88,0,0,0-.63,2.51h13.48q5.64.32,10.34.32v-2.82q-3.48-.3-23.22,0Zm.63-3.13q18.49-.31,22.57,0v-3.13q-3.46,0-11,.16t-11.6.16Zm.32-6q3.76,0,11.28-.16t11-.16v-.94q-10,0-22.25.63Zm29.15-29.77v-2.82q-20.06-.31-28.52,1.25a9.14,9.14,0,0,0-.32,2.16q6.24-.91,28.81-.6Zm-28.87,26q11.91-.63,21.94-.63v-5.64q-14.1,0-21.32,1.25Zm1.25-30.72q8.47-1.56,26-1.25a2.74,2.74,0,0,1-.32-1.25,4.9,4.9,0,0,1-1.25-1.88q-14.74,0-21.32.94a1.44,1.44,0,0,1-1.57-.94,36.84,36.84,0,0,0-1.56,4.36Zm.63,22.26a159.29,159.29,0,0,1,20.06-.94v-5.33q-4.7,0-20.69,1.25a5.76,5.76,0,0,1,.63,5Zm2.51-64.25q.31-7.83.63-14.1H91.68v17.24h1.25V155.4Zm21,34.48.32-1.88q-6-.94-16.92-.32a5,5,0,0,1-2.16,2.82q5.89-.66,18.77-.66Zm6.56-40.46H97a.89.89,0,0,1-.63-.32,42.8,42.8,0,0,0-.32,5.33h21.6a8.38,8.38,0,0,1,2.83-1.91ZM96,157.57v1.57a6.11,6.11,0,0,1,3.45,5.33q2.51-.31,7.52-.63l9.09-.94v-5.33Zm.94-11.28h23.53a6.93,6.93,0,0,1,.32-2.16H96.68a6.92,6.92,0,0,0-.32,2.16Zm.94,38.24a12.56,12.56,0,0,0,1.44-.16,13.21,13.21,0,0,1,1.71-.17H98.22a.28.28,0,0,1-.23.32h-.1Zm17.87-13.48a40.16,40.16,0,0,1,.32-5q-2.82.32-8.64.78t-8.64.78a.91.91,0,0,0-.32.63v3.13q2.82-.31,16.61-.32Zm-.63,9.4.63-6.27h-.63q-13.8,0-16.61.32v6.58q12.61,0,16.66-.63ZM99.5,110.56q6,.32,20.06.32V108q-11.91,0-20.69.63a5.87,5.87,0,0,0,.32,1.88Zm.32,7.52a31.87,31.87,0,0,1,10.65-1.55q1.25,0,9.09.32V114q-14.4,0-20.06-.32A35.55,35.55,0,0,0,99.82,118.08Zm.63,5.64q14.4,0,19.12.32V120q-7.84-.31-9.09-.32a29.15,29.15,0,0,0-10.34,1.57Zm.32,3.13.32,2.16a5.65,5.65,0,0,1,3.45,3.45q2.51.32,6.9.63,5.33.32,8.15.32v-6.27q-4.71-.28-18.82-.28Zm0,14.1h19.12a5.87,5.87,0,0,1-.32-1.88v-2.51a83.06,83.06,0,0,1-8.44-.6,39.91,39.91,0,0,1-6-.32,6.18,6.18,0,0,1-4.41,5.31Zm7.52,43.24a29.07,29.07,0,0,1,6.27.63l.32-.94A59.94,59.94,0,0,1,108.28,184.2Zm12.24,20.69v2.82H124v-8.14h-3.48v2.82a1.82,1.82,0,0,1,.63,1.25,1.8,1.8,0,0,1-.63,1.25Zm3.13-53.27a2.81,2.81,0,0,1,1.25-.32h1.57v-6h-.63A5.88,5.88,0,0,1,124,145a59.94,59.94,0,0,0-.32,6.6Zm23.47,12.85q-1.26,0-8.78-.63-6-.31-9.72-.31-.32,12.54-1.57,23.51,8.15-.31,18.49-.32Q146.52,170.73,147.11,164.47Zm-14.73,34.79a43.72,43.72,0,0,0-5.33.31V208h4.07a26,26,0,0,1,1.28-8.78ZM133,151v-7.53a10.52,10.52,0,0,0-2.45-.3,2,2,0,0,1-.94.94V151Zm4.39,48.27h-1.88a27.14,27.14,0,0,0-1.25,9.09h2.82q0-5.64.34-9.09Zm.63-48v-7.52a6,6,0,0,0-1.88-.32v7.84Zm8.15,48h-5.62q-.32,3.46-.32,9.4h2.16A3.55,3.55,0,0,1,144,209q1-4.71,2.23-9.72Zm-.32-47.33q.31-3.76.63-8.15h-5.33v7.84q3.79.31,4.73.31Zm.94,128.86q-.32,1.26-.63,2.82h18.49v-2.82q-1.26,0-4.86.16t-5.49.16a28.28,28.28,0,0,1-7.49-.35Zm.63-6.58a21,21,0,0,0-.32,3.45,25.51,25.51,0,0,0,7.2.32q1.88,0,5.49-.16t4.86-.16v-3.47a63.41,63.41,0,0,1-10.34,1.25,16.9,16.9,0,0,1-6.85-1.25Zm0-65.83q18.18,0,22.25-.32v-4.7q-16.92,0-21.32.94a22.8,22.8,0,0,0-.91,4ZM170,211.2q-4.07.32-22.57.32a7.2,7.2,0,0,1,.94,3.76,3.53,3.53,0,0,1-.32,1.57h17.27a5.4,5.4,0,0,1,4.7-5.33Zm-22.25,16,7.52-.94q6.26-1.25,9.4-1.57A38.7,38.7,0,0,0,165,220H147.77Zm0,9.4,6-.63a73.66,73.66,0,0,1,10.65-.94q0-3.76.32-7.2-2.82.32-8.78,1.25-5.33.94-8.15,1.25Zm0,31.34v3.13q2.16,1.25,6.58,1.25A58.14,58.14,0,0,0,164.39,271v-3.13a.91.91,0,0,1-.63.32q-4.71-.32-16-.32Zm.32-24.14a41.37,41.37,0,0,1,10.65-1.57c.63,0,1.51-.05,2.66-.16s2.16-.16,3-.16v-3.76a72.26,72.26,0,0,0-10.34.94l-6,.63Zm0,3.13V251h15a1.82,1.82,0,0,1,1.25.63v-6.58c-.84,0-1.83.06-3,.16s-2,.16-2.66.16a40.43,40.43,0,0,0-10.63,1.53Zm0,11h16.33v-4.39a1.8,1.8,0,0,1-1.25.63h-15Zm0,3.13v3.76q11.29,0,15.67.32h.66V261Zm4.39-110.33q0-2.82-.32-6.9h-2.51l-.63,8.47h1a4,4,0,0,1,2.48-1.6ZM149,200.86q4.38-.63,21-.63a26.89,26.89,0,0,1,.32-4.39q-10,0-13.48.32a5.49,5.49,0,0,1-5.33,3.13h-1.88Zm6.27-57.05h17.24a16.24,16.24,0,0,0-.32-3.13q-9.09-.31-13.48-1.57a5.64,5.64,0,0,1-3.45,4.07Zm.32,6.27q13.48-.31,17.24.94v-4.11H155.61ZM176,135.35q-17.87-1.88-18.49-2.16a6.93,6.93,0,0,1,1.25,2.82q4.38,1.25,14.73,1.88a7.2,7.2,0,0,1,2.53-2.58Zm1.88-2.82.94-4.7q-3.46.32-9.72.63-7.52,0-11,.32l-.32,1.25q4.07.63,11.28,1.44t8.8,1ZM158.1,189.89v.32a6,6,0,0,1-.32,1.88V193q3.45-.31,11.91-.31a3.92,3.92,0,0,1-1.57-2.16,86.34,86.34,0,0,0-10-.71Zm.32-3.13a74.3,74.3,0,0,1,9.09.63v-.32a26.87,26.87,0,0,1,.32-4.39,25.73,25.73,0,0,0-9.4-.94Zm21-62.06.32-1.88q-5.64-.63-20.37-.32l-.63,3.13q3.13-.31,10.34-.31,6.9-.35,10.35-.66Zm-11.28,52a27.16,27.16,0,0,0-9.4-.32v2.16a26.79,26.79,0,0,1,9.4.94v-2.79ZM159,173.28a28.6,28.6,0,0,1,8.47,0l-.32-2.51v-1h-8.13Zm13.17-13.79c.21-2.3.32-4,.32-5q-3.75-1.92-13.17-1.27a5.53,5.53,0,0,1,1.25,4.39l-.32,1.25a36.16,36.16,0,0,1,11.94.63Zm-12.85,7.2h8.78a.91.91,0,0,1,.32-.63,5.61,5.61,0,0,1,3.13-3.76,35.82,35.82,0,0,0-11.6,0Zm21-46.73,1.25-5q-16-.31-21.32.32c-.21,1.25-.42,2.61-.63,4.07Q174.41,119,180.37,120Zm1.88-8.15a41.17,41.17,0,0,1,.94-5q-2.2,0-11-.32-6.58,0-10.65-.32a51.28,51.28,0,0,1-.94,6Q165.95,111.49,182.25,111.81Zm1.25-8.15.32-1.89q-9.4-.94-21.94-.94V103q4.07.32,10.65.32Q181.31,103.66,183.5,103.66Zm.94-5a38.63,38.63,0,0,0,.32-4.7q-12.54-.31-21.94-.94l-.63,4.7q12.53,0,22.25,1Zm.63-7.83a16.2,16.2,0,0,0,.32-3.13,185.1,185.1,0,0,0-21.94-.94l-.32,3.18q9.4.6,21.94.91Zm.32-9.09q-2.51,0-7.52-.32l-6.9-.32a41.31,41.31,0,0,0-7.2,0l-.32,2.51a185.32,185.32,0,0,1,21.94.94Zm-2.82-3.13q-15.68-3.11-18.18-3.43L164.08,78q3.76-.3,18.49.63Zm-4.7,132q.31-11.59,0-16.3H174.1a33.67,33.67,0,0,0-1.25,10.34q0,2.51.32,5.64h.94a23.17,23.17,0,0,1,3.75.32ZM180,161.63v-14.4h-.63a4.91,4.91,0,0,1-3.45-.63q0,4.39-.63,15Zm5.33,49.21a23.2,23.2,0,0,0-.47-4.07,24.39,24.39,0,0,1-.47-3.13q-.63-5.64-.94-9.4H181q.31,4.7,0,16.3a30.76,30.76,0,0,0,4.41.3Zm1.25-48.89a50.29,50.29,0,0,1-.32-6.58q-.32-6-.32-8.78a11.76,11.76,0,0,0-2.82.32v15Zm6.3,48.89-.63-5q-.94-6.89-1.25-11.91a30.76,30.76,0,0,1-4.39.32q.31,3.46.94,8.78a32,32,0,0,0,.47,3.45q.47,2.82.78,4.39Zm2.51-48.89a56.48,56.48,0,0,0-.63-9.09,43.07,43.07,0,0,0-1.6-6.87,24.64,24.64,0,0,1-4.07.32q0,3.14.32,9.09a50.3,50.3,0,0,0,.32,6.58Zm3.76,48.89a103.35,103.35,0,0,1-1.25-16.92h-3.76q.31,4.7.94,11.6l1,5.33Zm.63-48.89a119.65,119.65,0,0,1-.94-16H196.7q.63,2.82,1.25,6.27a69.33,69.33,0,0,1,.63,9.72Zm7.2,48.89a134.14,134.14,0,0,1-1.25-16.92H201a103.4,103.4,0,0,0,1.27,16.92Zm-4.07-48.89h.94q0-9.4.63-15.67A10.19,10.19,0,0,1,202,146a119.59,119.59,0,0,0,1,16Zm11.6,48.58V193.62h-5.64a136.06,136.06,0,0,0,1.27,17.22Zm3.13,0h2.51V193.62h-2.5Z"/>
  <g>
    <path d="M2395.87,186.65h0v21.69c0,1.33-.33,2-1.67,2a25.76,25.76,0,0,1-5,.67c-6,1-12,2.67-17.69,3-10.35.67-20.36,1-30.7,1.33a19.31,19.31,0,0,1-16.35-6.67,6.37,6.37,0,0,1-2-5.34,6.52,6.52,0,0,0-2.67-7l-1.67-1.67a4.94,4.94,0,0,1-1.33-7,7.33,7.33,0,0,0-1.33-10l-.33-.33a4.09,4.09,0,0,1-.67-5.34,7.3,7.3,0,0,1,1-1.67c2.34-3.67,2.67-4.34-.33-7.68a5.61,5.61,0,0,1-1-6.34,41.56,41.56,0,0,1,5.34-7.34,4.28,4.28,0,0,1,3.34-1.33,88,88,0,0,1,9.34-.67h16.69c1,0,2.67,1.33,3.34-.67a6.86,6.86,0,0,0,0-3.67,1.23,1.23,0,0,0-.33-1c-2-4.34-4-9-6-13.35a24.93,24.93,0,0,1-1-18.36,12.52,12.52,0,0,1,12-8.68c1.67,0,2.34.67,2.67,2.34a76.79,76.79,0,0,0,1,8.68c1,8,3.67,15,10.68,19.69a14.22,14.22,0,0,1,5,6.67,73.24,73.24,0,0,0,10.68,19.36,11.71,11.71,0,0,0,7.68,5.34c1.67,0,1.67.67,1.67,2C2395.54,172.3,2395.87,179.31,2395.87,186.65Zm3.67.33h0V166a5.13,5.13,0,0,1,4-5.67h14a5.2,5.2,0,0,1,5.34,5v42.05a5.18,5.18,0,0,1-4.34,5.67h-13.68a4.86,4.86,0,0,1-5.34-4.34v-1C2399.54,200.67,2399.54,194,2399.54,187Z" fill="#fff"/>
    <path d="M2395.87,186.65V165c0-1.33-.33-2-1.67-2a10.69,10.69,0,0,1-7.68-5.34,72.17,72.17,0,0,1-10.35-19.36,14.22,14.22,0,0,0-5-6.67c-7-4.67-9.34-11.68-10.68-19.69-.33-3-.67-5.67-1-8.68,0-1.67-1-2.34-2.67-2.34a12.52,12.52,0,0,0-12,8.68,24.93,24.93,0,0,0,1,18.36c2,4.34,4,9,6,13.35,0,.33.33.67.33,1a6.86,6.86,0,0,1,0,3.67c-.67,1.67-2.34.67-3.34.67h-16.69a87.94,87.94,0,0,0-9.34.67,5.93,5.93,0,0,0-3.34,1.33,37.46,37.46,0,0,0-5.34,7.34,5.61,5.61,0,0,0,1,6.34c2.67,3.34,2.67,4,.33,7.68-.33.67-.67,1-1,1.67a4.09,4.09,0,0,0,.67,5.34,7.06,7.06,0,0,1,2,10,.33.33,0,0,1-.33.33,5.62,5.62,0,0,0,1.33,7c.67.67,1,1.33,1.67,1.67a6.52,6.52,0,0,1,2.67,7,6.37,6.37,0,0,0,2,5.34,19.92,19.92,0,0,0,16,7c10.35-.33,20.36-.33,30.7-1.33,6-.33,12-2,17.69-3a29.62,29.62,0,0,1,5-.67c1.67-.33,1.67-.67,1.67-2,0-7,0-14.35.33-21.69Z"/>
    <path d="M2399.54,187v21a4.86,4.86,0,0,0,4.34,5.34h13.68a5.19,5.19,0,0,0,5.67-4.67V166.29a5.18,5.18,0,0,0-4.34-5.67h-13.68a4.39,4.39,0,0,0-5,4.34v1c-.67,7-.67,13.68-.67,21Z"/>
  </g>
  <polygon points="1274.98 78.02 1300.06 85.25 1279.3 101.64 1280.46 128.78 1259.12 113.23 1234.75 122.77 1242.32 96.77 1226.11 75.52 1252.13 75.01 1266.47 52.34 1274.98 78.02"/>
  <polygon points="2125.1 57.25 2159.2 67.09 2130.97 89.36 2132.55 126.27 2103.54 105.12 2070.41 118.09 2080.7 82.75 2058.66 53.86 2094.03 53.16 2113.53 22.35 2125.1 57.25" fill="#d22020"/>
  <g opacity="0.85">
    <path d="M1293.42,295.82l-7.43-2.1a22.63,22.63,0,0,1,3.52,1.84A16,16,0,0,0,1293.42,295.82Z"/>
    <path d="M1278.55,291.88l-1.17-.26h-1.17Z"/>
    <path d="M1264.86,289.25l7,1.57A34,34,0,0,0,1264.86,289.25Z"/>
    <path d="M1275.42,292.4c-.78-.52-.78-1,.39-1h0l-4.3-.52A9.48,9.48,0,0,1,1275.42,292.4Z"/>
    <path d="M1275.42,292.4l2,1.31A4.31,4.31,0,0,0,1275.42,292.4Z"/>
    <path d="M1268,300c-1.57,0,0-2.36-3.13-2.36s-6.26-.26-9.39-.26a51.79,51.79,0,0,1-9-.52c-3.13.26-5.87-3.41-9-3.15-6.65-.26-24.65,2.36-14.87,3.15,7.43.52,13.3.79,19.17,1.31l9,.52,9.39.79c11,.26,21.91,1,32.48,2.36,2.74.52,5.48,1,8.22,1.84l-11-3.15a39.26,39.26,0,0,0-9.78-1A46.29,46.29,0,0,1,1268,300Z"/>
    <path d="M1347.42,312.87l-3.91-1a92,92,0,0,0-17.61-5.51l2.35,1.31c3.52.79,4.3.79,1.17-.26a148.67,148.67,0,0,0,20,6.82C1349,313.66,1349.38,313.66,1347.42,312.87Z"/>
    <path d="M1353.29,315.24l-4.3-1h0l4.3,1Z"/>
    <path d="M1235.12,286.37l-26.61-3.94-25.82-3.67c-1.57.52-2.74,1.31-4.3.79a15.47,15.47,0,0,0-3.91-1.84l-7.43-1h-2.74c-1.57.26-1.17,1-.39,1.57l2.35,1.57-2.35-1.57a40.46,40.46,0,0,0-3.91-1.57,31.86,31.86,0,0,1-7-.52,21.32,21.32,0,0,1,7,.52h4.3l1.17-.26c-5.48-.79-11.35-1.31-16.82-2.1h-3.52c-4.3.26-8.22.26-10.56-1.84l-3.13-.26.39.26a2.34,2.34,0,0,1-1.17-.52l-12.91-1.31c-2.74.52-5.87,1.31-9,1.84l-2.74-2.1a9.84,9.84,0,0,1-5.09,1.84c2.35,1.31,4.3,2.89,6.26,3.67,2.74,2.1,7-3.67,9.78.26-3.13-3.94-7,1.84-9.78-.26-2-.79-3.91-2.36-6.26-3.67a26.61,26.61,0,0,1-13.69-2.36c4.7-1,10.17-.26,13.69,2.36a11.32,11.32,0,0,0,5.09-1.84l2.74,2.1c3.13-.52,5.87-1.31,9-1.84-8.22-.79-17.22-1.31-25.82-2.1a802.74,802.74,0,0,0-83.34-1c-27.78,1-55.17,2.62-84.52,4.46-31.69,2.1-62.21,4.72-92,7.87-28.56,3.41-57.13,7.61-84.91,13.12-27.78,5-55.56,10-84.52,15-22.3,3.94-62.6,14.43-83.73,19.68-13.69,3.94-16.82,5.25-16.82,5.51.39.26,4.7,0,5.48,0,9-.79,17.22-1.84,27.39-3.41s22.69-3.67,41.48-5.51c-12.52,1.31-8.22,0,2.35-1.84a282.37,282.37,0,0,1,39.52-4.46,414.78,414.78,0,0,0,60.26-5.25c11-1.31,21.91-3.15,32.48-4.46,10.56-1.57,21.52-2.62,32.48-3.15,10.56-.52,21.52-2.1,34.43-3.15,32.87-1.31,64.17-3.67,95.86-5.77l23.87-1.57c7.83-.52,16-.79,24.26-1s16.43-.26,24.65-.26,16.82.26,25,.79a165,165,0,0,0,25.43-1l23.48-2.62a120.7,120.7,0,0,1,16.82,1c5.48.79,10.56,1.31,14.87,1.57q10,.39,20,0c6.26-.26,12.52-.79,18.39-1.31-6.65,0-12.13,0-18,.26s-11.74.26-19.17.26c-9.78-.26,7-4.72,13.69-5.51,2.74-.79,6.65,3.94,9.39,3.15a105.28,105.28,0,0,0,18.39-1.84c2.74-.79,2,3.15,3.13,2.89,9-.26,16.82-4.46,21.91-3.15a102,102,0,0,1,11.35,2.89,32.19,32.19,0,0,0,7,.79l5.09-.52a7.63,7.63,0,0,1-1.17-3.94c2.35.52,5.48,1.57,7.43,2.1-2.35-.52-5.48-1.57-7.43-2.1a7.63,7.63,0,0,0,1.17,3.94c6.26-.52,12.52-.52,19.17-.52h9.78c3.13,0,6.65.26,9.78.52v-.26a73.93,73.93,0,0,1-20.74-5c3.13,1,2.35,2.1-1.57,1.57l-2.35-2.1c6.65,0,13.69,0,18.78,3.15l4.3-.26c2,.79,1.57,1.57,1.57,2.62l4.3.52C1242.56,289.52,1239,287.94,1235.12,286.37Z"/>
    <path d="M1160,276.66h3.52c-4.7-.79-9.39-1-14.09-1.84C1151.39,277.18,1155.69,276.92,1160,276.66Z"/>
  </g>
  <text transform="translate(271.24 239.16)" font-size="175.82" font-family="KBZipaDeeDooDah, KBZipaDeeDooDah">jegharstemtpapdenfedemade</text>
</svg>
