<?xml version="1.0" encoding="utf-8"?>
<!-- Generator: Adobe Illustrator 21.1.0, SVG Export Plug-In . SVG Version: 6.00 Build 0)  -->
<svg version="1.1" id="Layer_1" xmlns="http://www.w3.org/2000/svg" xmlns:xlink="http://www.w3.org/1999/xlink" x="0px" y="0px"
	 viewBox="0 0 3888.4 585.1" style="enable-background:new 0 0 3888.4 585.1;" xml:space="preserve">
<style type="text/css">
	.st0{opacity:0.85;}
	.st1{font-family:'KBZipaDeeDooDah';}
	.st2{font-size:217.34px;}
	.st3{font-size:459.53px;}
	.st4{fill:#D22020;}
</style>
<title>HvadBetyder</title>
<g class="st0">
	<path d="M2188.2,478.9l-12.1-3.4c2,0.8,3.9,1.8,5.7,3C2183.2,478.9,2185.7,478.9,2188.2,478.9z"/>
	<path d="M2164.1,472.5l-1.9-0.4h-1.9L2164.1,472.5z"/>
	<path d="M2141.9,468.2l11.4,2.6C2149.6,469.5,2145.8,468.7,2141.9,468.2z"/>
	<path d="M2159,473.4c-1.3-0.9-1.3-1.7,0.6-1.7l0,0l-7-0.9C2154.9,471.2,2157.1,472,2159,473.4z"/>
	<path d="M2159,473.4l3.2,2.1C2161.3,474.5,2160.2,473.8,2159,473.4z"/>
	<path d="M2147,485.7c-2.5,0,0-3.8-5.1-3.8s-10.2-0.4-15.2-0.4c-4.9,0.1-9.8-0.1-14.6-0.9c-5.1,0.4-9.5-5.5-14.6-5.1
		c-10.8-0.4-40,3.8-24.1,5.1c12.1,0.9,21.6,1.3,31.1,2.1l14.6,0.9l15.2,1.3c17.8,0.4,35.6,1.7,52.7,3.8c4.4,0.9,8.9,1.7,13.3,3
		l-17.8-5.1c-5.2-1.2-10.5-1.8-15.9-1.7C2160.3,486.1,2153.9,486.1,2147,485.7z"/>
	<path d="M2275.9,506.6l-6.4-1.7c-9.2-3.9-18.8-6.9-28.6-8.9l3.8,2.1c5.7,1.3,7,1.3,1.9-0.4c10.5,4.5,21.3,8.1,32.4,11.1
		C2278.4,507.9,2279,507.9,2275.9,506.6z"/>
	<path d="M2285.4,510.4l-7-1.7l0,0L2285.4,510.4z"/>
	<path d="M2093.6,463.5l-43.2-6.4l-41.9-6c-2.5,0.9-4.4,2.1-7,1.3c-2-1.3-4.1-2.3-6.3-3l-12.1-1.7h-4.4c-2.5,0.4-1.9,1.7-0.6,2.6
		l3.8,2.6l-3.8-2.6c-2.1-1-4.2-1.8-6.3-2.6c-3.8,0.1-7.7-0.1-11.4-0.9c3.8-0.4,7.7-0.1,11.4,0.9h7l1.9-0.4
		c-8.9-1.3-18.4-2.1-27.3-3.4h-5.7c-7,0.4-13.3,0.4-17.2-3l-5.1-0.4l0.6,0.4c-0.7-0.1-1.4-0.4-1.9-0.9l-21-2.1
		c-4.4,0.9-9.5,2.1-14.6,3l-4.4-3.4c-1.9,1.7-5.1,2.6-8.3,3c3.8,2.1,7,4.7,10.2,6c4.4,3.4,11.4-6,15.9,0.4c-5.1-6.4-11.4,3-15.9-0.4
		c-3.2-1.3-6.3-3.8-10.2-6c-7.6,0.7-15.3-0.6-22.2-3.8c7.6-1.7,16.5-0.4,22.2,3.8c3-0.3,5.8-1.3,8.3-3l4.4,3.4
		c5.1-0.9,9.5-2.1,14.6-3c-13.3-1.3-27.9-2.1-41.9-3.4c-45-2.9-90.2-3.5-135.3-1.7c-45.1,1.7-89.5,4.3-137.2,7.2
		c-51.4,3.4-101,7.7-149.2,12.8c-46.4,5.5-92.7,12.4-137.8,21.3c-45.1,8.1-90.2,16.2-137.2,24.3c-36.2,6.4-101.6,23.4-135.9,31.9
		c-22.2,6.4-27.3,8.5-27.3,8.9c0.6,0.4,7.6,0,8.9,0c14.6-1.3,27.9-3,44.5-5.5s36.8-6,67.3-8.9c-20.3,2.1-13.3,0,3.8-3
		c21.2-3.9,42.6-6.3,64.1-7.2c32.8-0.5,65.4-3.3,97.8-8.5c17.8-2.1,35.6-5.1,52.7-7.2c17.2-2.6,34.9-4.3,52.7-5.1
		c17.2-0.9,34.9-3.4,55.9-5.1c53.3-2.1,104.1-6,155.6-9.4l38.7-2.6c12.7-0.9,26-1.3,39.4-1.7s26.7-0.4,40-0.4s27.3,0.4,40.6,1.3
		c13.8,0.5,27.6-0.1,41.3-1.7l38.1-4.3c9.1-0.1,18.3,0.5,27.3,1.7c8.9,1.3,17.2,2.1,24.1,2.6c10.8,0.4,21.6,0.4,32.4,0
		c10.2-0.4,20.3-1.3,29.8-2.1c-10.8,0-19.7,0-29.2,0.4s-19.1,0.4-31.1,0.4c-15.9-0.4,11.4-7.7,22.2-8.9c4.4-1.3,10.8,6.4,15.2,5.1
		c10-0.1,20-1.1,29.8-3c4.4-1.3,3.2,5.1,5.1,4.7c14.6-0.4,27.3-7.2,35.6-5.1c6.2,1.2,12.4,2.8,18.4,4.7c3.8,0.8,7.6,1.3,11.4,1.3
		l8.3-0.9c-1.2-1.9-1.9-4.1-1.9-6.4c3.8,0.9,8.9,2.6,12.1,3.4c-3.8-0.9-8.9-2.6-12.1-3.4c0,2.3,0.7,4.5,1.9,6.4
		c10.2-0.9,20.3-0.9,31.1-0.9h15.9c5.1,0,10.8,0.4,15.9,0.9v-0.4c-12.1-1.3-23.5-3.8-33.7-8.1c5.1,1.7,3.8,3.4-2.5,2.6l-3.8-3.4
		c10.8,0,22.2,0,30.5,5.1l7-0.4c3.2,1.3,2.5,2.6,2.5,4.3l7,0.9C2105.7,468.7,2100,466.1,2093.6,463.5z"/>
	<path d="M1971.7,447.8h5.7c-7.6-1.3-15.2-1.7-22.9-3C1957.7,448.6,1964.7,448.2,1971.7,447.8z"/>
</g>
<text transform="matrix(1 0 0 1 1102.95 391.25)" class="st1 st2">betyder det</text>
<text transform="matrix(1 0 0 1 37.99 451.02)" class="st1 st3">hvad</text>
<path d="M2258.8,305c0.6-13.8,0.6-27.1,0-40c0-1.2,0.2-2.4,0.5-3.7v-0.9c0-2.4,0.8-4.7,2.5-6.7c1.7-2,3.7-3,6.2-3l30.3-1.8
	c-1.8-27-1.1-52.7,2.3-77.2c5.2-35.8,15.6-62.2,31.2-79c12.2-12.9,29.3-20.7,51-23.4c33.1-4.3,58.8,5.5,77.2,29.4
	c12.2,16.2,21.1,38.8,26.7,67.6l1.8,2.8c1.5,3.1,1.4,6.1-0.5,9.2c-0.6,4.6-3.2,7.2-7.8,7.8c-1.5,0-2.9-0.2-4.1-0.5
	c-12.3,6.1-25.1,11.9-38.6,17.5h-0.5c-1.5,0.9-3.1,1.5-4.6,1.8c-2.5,0.3-4.7-0.4-6.7-2.1c-2-1.7-3.1-3.7-3.4-6.2
	c-1.2-12.6-6.6-26.5-16.1-41.8c-4.9-8-9.8-12.1-14.7-12.4c-4.6-0.3-8.7,2.9-12.4,9.7c-4,7.4-7.2,18.1-9.7,32.2
	c-3.1,18.1-4.1,37.2-3.2,57.4c3.4-0.6,7.8-1.4,13.3-2.3c8.9-1.5,15.2-2.8,18.8-3.7c2.8-0.6,5.2-0.3,7.4,0.9c4,0.9,6.4,3.5,7.4,7.8
	c3.4,20.2,5.5,33.7,6.4,40.4v2.3c0.3,4.9-1.7,8.1-6,9.7c-14.1,4.9-29.4,8.6-46,11c0.3,8.3,0,19.8-0.9,34.5
	c-1.2,19.6-1.5,34-0.9,43.2c1.2,18.7,5.4,44.6,12.4,77.7v3.7c0.9,4.9-0.9,8.3-5.5,10.1c-4.9,2.1-10.3,4.1-16.1,6
	c-5.8,1.8-12.1,3.5-18.8,5.1c-6.7,1.5-11.6,2.8-14.7,3.7c-2.5,0.9-4.8,0.8-7.1-0.5c-2.3-1.2-3.8-3.1-4.4-5.5c-2.1-1.5-3.4-3.5-3.7-6
	l-1.4-9.6c-3.1-22.1-5.4-39.5-6.9-52.4c-1.5-12.9-2.4-29.3-2.5-49.4c-0.2-20.1,1.3-37.9,4.4-53.5l-29.9,3.7
	c-4.6,0.3-7.7-1.5-9.2-5.5C2260.1,310.7,2258.8,308.1,2258.8,305z M2280,268.7h-2.8c0.3,9.8,0.3,19.9,0,30.3h2.3
	C2279.5,281.9,2279.7,271.8,2280,268.7z M2286,268.2h-1.4c-0.6,3.4-0.8,13.5-0.5,30.3l1.4-0.5C2286.1,288.3,2286.3,278.3,2286,268.2
	z M2294.7,267.3l-4.1,0.5c0.3,10.1,0.2,20.1-0.5,29.9l4.6-0.5V267.3z M2302,266.9l-2.8,0.5v29.4l2.8-0.5
	C2301.7,280.6,2301.7,270.8,2302,266.9z M2309.8,270.1v-3.7h-0.9h-2.3c-0.3,4.6-0.3,14.2,0,29h1.4c0.6-0.6,1.2-0.9,1.8-0.9V288
	c-1.2-0.6-1.7-1.5-1.4-2.8c0.3-0.9,0.8-1.5,1.4-1.8v-8.7h-0.5c-1.5-0.6-2.1-1.5-1.8-2.8C2307.9,270.7,2308.6,270.1,2309.8,270.1z
	 M2350.7,270.1c-0.3-2.8-0.6-5.2-0.9-7.4h-3.7c-0.9,0.3-2.7,0.6-5.3,0.9c-2.6,0.3-4.7,0.5-6.2,0.5c-8,0.6-14.7,0.5-20.2-0.5v7.4
	C2320.9,272.2,2333,271.9,2350.7,270.1z M2352.1,282.9l-0.9-8.3c-17.8,1.8-30,2.1-36.8,0.9v8.3c5.5,0.6,9.6,0.8,12.2,0.7
	c2.6-0.2,6.7-0.5,12.4-0.9C2344.7,283.2,2349.1,282.9,2352.1,282.9z M2352.1,287.5c-2.5,0-6.5,0.2-12.2,0.7
	c-5.7,0.5-9.9,0.7-12.6,0.7s-7.1-0.2-12.9-0.5v6c18.1,0.3,30-0.2,35.8-1.4c0.6-0.9,1.4-1.7,2.3-2.3L2352.1,287.5z M2315.4,299
	c0.9,1.2,1.5,2.6,1.8,4.1v1.8c1.5,1.2,2.6,2.6,3.2,4.1c7.7-1.2,17.3-2.4,29-3.7c0-2.1-0.2-4.3-0.5-6.4v-0.9
	C2342.8,299,2331.6,299.3,2315.4,299z M2315.4,359.2c5.5,0.6,16.2,0.8,32.2,0.5c0-2.4,0.2-5.2,0.5-8.3c-14.4-0.3-25.1,0.2-32.2,1.4
	C2315.5,354.9,2315.4,357.1,2315.4,359.2z M2315.4,368.4c2.8,0.3,12.7,0.5,29.9,0.5c0.9,0,1.5,0.3,1.8,0.9v-5.5
	c-15.6,0.3-26.2,0.2-31.7-0.5V368.4z M2315.4,380.4c2.8,0,7.7-0.1,14.9-0.2c7.2-0.2,12.8-0.2,16.8-0.2v-7.4
	c-0.3,0.6-0.9,0.9-1.8,0.9c-17.2,0-27.1-0.2-29.9-0.5V380.4z M2315.8,214c5.8,0.3,16.5,0.3,32.2,0c0-1.8,0.2-3.7,0.5-5.5
	c-4,0-9.6,0.1-16.8,0.2c-7.2,0.2-12.5,0.2-15.9,0.2V214z M2315.8,223.2c1.8,0,12.4,0.3,31.7,0.9c0.3-1.8,0.5-3.7,0.5-5.5
	c-15.6,0.3-26.4,0.3-32.2,0V223.2z M2316.3,238.4h31.7c-0.3-3.1-0.5-6.3-0.5-9.7c-19.3-0.6-29.9-0.9-31.7-0.9
	C2315.8,231.5,2316,235,2316.3,238.4z M2315.8,348.2c7.4-1.2,18.1-1.7,32.2-1.4l0.5-5.5v-0.9c-8.6,0.6-19.3,2.1-32.2,4.6
	C2316,345.9,2315.8,347,2315.8,348.2z M2315.8,388.6c7-0.3,17.6-0.5,31.7-0.5v-1.8v-1.8c-4,0-9.7,0.1-17,0.2
	c-7.4,0.2-12.3,0.2-14.7,0.2V388.6z M2316.3,204.4c3.1,0,8.3-0.1,15.6-0.2c7.4-0.2,13-0.2,17-0.2c0-2.1,0.2-4.3,0.5-6.4
	c-15.9,0.3-26.8,0.3-32.6,0C2316.4,199.6,2316.3,201.9,2316.3,204.4z M2316.7,249.9c15.3,0.6,25.9,0.6,31.7,0
	c-0.3-2.1-0.5-4.4-0.5-6.9h-31.7C2316.6,245.4,2316.7,247.7,2316.7,249.9z M2316.7,400.6c7.4,0.9,18.1,0.8,32.2-0.5l-0.9-7.4
	c-14.4,0-25,0.2-31.7,0.5C2316.3,395.7,2316.4,398.1,2316.7,400.6z M2349.4,258.1l-0.5-3.7c-6.1,0.6-16.7,0.6-31.7,0v1.4v0.5
	c0,1.2-0.2,2.3-0.5,3.2c4.6,0.6,10.4,0.6,17.5,0c1.5,0,3.6-0.2,6.2-0.5c2.6-0.3,4.4-0.6,5.3-0.9H2349.4z M2316.7,339.9
	c12.9-2.1,23.6-3.5,32.2-4.1v-4.6c-15.9,0.6-26.4,0.8-31.2,0.5L2316.7,339.9z M2317.2,192.9c5.5,0.3,16.4,0.3,32.6,0
	c0.3-1.8,0.6-3.8,0.9-6c-12.9,0.3-24.1,1.1-33.5,2.3V192.9z M2317.7,410.7c3.7,0.3,14.4,0.3,32.2,0c0-2.1-0.2-4.1-0.5-6
	c-13.8,1.2-24.5,1.5-32.2,0.9L2317.7,410.7z M2317.7,184.6c9.8-1.2,21-2,33.5-2.3l0.5-1.4c0-1.5,0.2-2.9,0.5-4.1
	c-8.6,0-19.8,0.5-33.5,1.4L2317.7,184.6z M2318.1,327.1c4.6,0.3,15,0.2,31.2-0.5v-3.2c-19,1.8-29.4,2.9-31.2,3.2V327.1z M2319,423.1
	c2.4,0,6.6-0.3,12.4-0.9c8.9-0.9,15.6-1.4,20.2-1.4l-0.9-5.5c-18.4,0.3-29.3,0.3-32.6,0C2318.4,417.7,2318.7,420.3,2319,423.1z
	 M2319,173.6c13.8-0.9,25.1-1.4,34-1.4l0.5-0.9c-4-0.3-9.7-0.6-17-0.9c-7.4-0.3-12.9-0.6-16.5-0.9
	C2319.7,170.7,2319.3,172,2319,173.6z M2319,322c1.2-0.3,11.3-1.4,30.3-3.2c0.3-3.1,0.3-6,0-8.7c-11.6,1.2-21.1,2.5-28.5,3.7v0.5
	C2320.3,316.6,2319.7,319.2,2319,322z M2320,432.8c8.9,0.9,19.9-0.2,33.1-3.2l-0.9-4.1c-4.3,0-11,0.5-20.2,1.4
	c-5.5,0.6-9.7,0.9-12.4,0.9L2320,432.8z M2320.4,164.8c3.7,0.3,9,0.6,16.1,0.9c8,0.6,13.9,0.9,17.9,0.9c0.6-3.1,1.4-6,2.3-8.7
	c-14.7-2.8-26-4-34-3.7C2322.1,157.7,2321.3,161.2,2320.4,164.8z M2321.8,445.6c4.6-1.2,10.6-2.1,17.9-2.8c1.8-0.3,4.4-0.5,7.8-0.7
	c3.4-0.2,5.8-0.4,7.4-0.7l-1.4-7.4c-12.9,3.1-23.7,4.1-32.6,3.2L2321.8,445.6z M2323.2,454.8c18.7-3.4,29.7-5.5,33.1-6.4l-0.5-2.3
	c-1.5,0.3-4.1,0.5-7.6,0.7c-3.5,0.2-6.2,0.4-8,0.7c-7.7,0.6-13.5,1.5-17.5,2.8L2323.2,454.8z M2324.6,464.9c4.3-0.6,15.6-2.8,34-6.4
	l-1.4-5.5c-4,1.2-15.2,3.4-33.5,6.4L2324.6,464.9z M2324.1,149.7c8-0.3,19.3,1.1,34,4.1c0.6-1.2,1.1-2.3,1.4-3.2
	c-3.4-0.9-7.5-2.1-12.4-3.7c-11.6-4.3-18.4-6.7-20.2-7.4L2324.1,149.7z M2325,469.5l0.5,2.3c17.2-4.6,27.4-7.2,30.8-7.8
	C2340.6,467.1,2330.2,468.9,2325,469.5z M2328.2,135.4l20.7,6.9c4.9,1.8,9,3.2,12.4,4.1l1.8-3.7l1.4-1.8c-5.2-0.6-11.3-2.6-18.4-6
	c-7.7-4-12.6-6.3-14.7-6.9C2330.2,130.2,2329.1,132.7,2328.2,135.4z M2333.3,123.9c2.1,0.6,7.2,2.8,15.2,6.4
	c7.4,3.7,13.6,5.8,18.8,6.4c0.9-1.5,2-2.8,3.2-3.7c-3.7-2.1-8-4.9-12.9-8.3l-10.6-7.8c-2.8-1.8-5.2-3.4-7.4-4.6
	C2337.6,115.8,2335.4,119.7,2333.3,123.9z M2342.5,108.8c1.8,1.2,4.1,2.8,6.9,4.6l10.6,7.8c5.5,3.7,10.3,6.4,14.2,8.3
	c1.2-0.6,2.3-1.2,3.2-1.8c-10.4-15-18.5-24.5-24.4-28.5c-2.8,1.8-5.2,4-7.4,6.4C2344.5,106.5,2343.4,107.6,2342.5,108.8z
	 M2356.7,287.1l0.5,1.8c1.8,0,3.7,0.5,5.5,1.4l1.8-0.5c-1.2-4.3-2.3-9.7-3.2-16.1c-0.3-0.6-0.7-2.4-1.1-5.5
	c-0.5-3.1-0.8-5.5-1.1-7.4c-0.3,0.9-0.9,1.4-1.8,1.4h-2.8c0.6,4,1.4,11,2.3,21.1c0.6,0.3,0.9,0.9,0.9,1.8
	C2357.6,285.9,2357.3,286.5,2356.7,287.1z M2357.2,96.4c6.1,4.6,14.2,14.4,24.4,29.4l0.5-0.5c-1.8-2.8-4.1-6.7-6.9-11.9
	c-5.2-9.8-9.3-16.4-12.4-19.8C2360.5,94.5,2358.7,95.5,2357.2,96.4z M2372.3,288.5c-3.1-9.8-5.1-19.1-6-28l-2.8,0.5
	c0.3,1.5,0.7,3.8,1.1,6.7c0.5,2.9,0.8,4.7,1.1,5.3c0.9,6.7,2,12.1,3.2,16.1L2372.3,288.5z M2366.8,91.8c3.1,3.7,7,10.1,11.9,19.3
	c3.4,6.1,6,10.6,7.8,13.3h0.5c-0.3-2.1-0.8-5.1-1.4-9c-0.6-3.8-1.1-6-1.4-6.7c-1.5-8.6-3.2-15.3-5.1-20.2
	C2374.9,89.5,2370.8,90.6,2366.8,91.8z M2383.4,286.2c-1.2-3.4-3.7-12.7-7.4-28c-1.8,0.6-3.5,1.1-5.1,1.4c0.9,8.9,2.9,18.2,6,28
	C2379.1,287.2,2381.2,286.8,2383.4,286.2z M2392.1,283.9c-2.8-8.6-5.2-17.6-7.4-27.1l-2.3,0.5l-1.8,0.5c3.7,15,6.1,24.2,7.4,27.6
	L2392.1,283.9z M2383.8,87.6c1.8,4.9,3.5,11.6,5.1,20.2c0,0.6,0.4,2.9,1.1,6.9c0.8,4,1.5,7.1,2.1,9.2h0.5h1.4
	c0-17.2-0.8-29.4-2.3-36.8c-2.1,0-4.1,0.2-6,0.5H2383.8z M2396.7,282.9l3.7-1.4l-4.1-26.7c-1.8,0.3-4.1,0.6-6.9,0.9
	C2391.5,265.3,2393.9,274.4,2396.7,282.9z M2396.2,86.7c1.5,8,2.3,20.7,2.3,38.1c0.9,0.3,1.7,0.5,2.3,0.5
	c2.4-11.9,3.7-24.7,3.7-38.1C2401.8,86.9,2399,86.7,2396.2,86.7z M2409.1,87.6c0,13.8-1.4,27-4.1,39.5l1.8,0.9
	c0.6-0.9,1.8-3.2,3.7-6.9c1.8-3.7,3.2-6.6,4.1-8.7c4-8.3,6.1-15.3,6.4-21.1v-0.5C2417.4,89.6,2413.4,88.6,2409.1,87.6z M2425.7,93.2
	c-0.6,5.8-2.9,13-6.9,21.6l-4.1,8.7c-1.8,3.7-3.2,6.1-4.1,7.4c1.2,0.9,2.3,1.8,3.2,2.8c2.4-4.3,6.4-9.8,11.9-16.5
	c6.1-7.4,10.3-12.4,12.4-15.2C2434.1,98.2,2429.9,95.3,2425.7,93.2z M2441.3,105.1c-1.8,2.5-5.8,7.5-11.9,15.2
	c-5.8,6.7-10,12.4-12.4,17c0.9,1.5,2,3.2,3.2,5.1c5.2-7,15.3-15.5,30.3-25.3c-1.5-2.4-3.2-4.7-5.1-6.9
	C2444.2,108.3,2442.8,106.6,2441.3,105.1z M2452.8,121.2c-15.3,10.1-25.3,18.5-29.9,25.3l3.2,5.5c6.7-6.4,17.5-12.9,32.2-19.3
	C2456.4,128.4,2454.6,124.6,2452.8,121.2z M2459.7,136.8c-14.4,6.4-24.7,12.9-30.8,19.3h-0.5l3.7,7.4c4.3-3.1,9.8-6.6,16.5-10.6
	l13.8-7.8C2461.8,142.3,2460.9,139.6,2459.7,136.8z M2463.8,149.7l-12.9,7.4l-17,10.6c0.9,2.5,1.7,4.8,2.3,6.9
	c1.8-0.9,6.6-3.8,14.2-8.7c6.1-4.3,11.3-7,15.6-8.3C2465.5,154.7,2464.7,152.1,2463.8,149.7z M2467,162.1c-3.7,1.2-8.4,3.7-14.2,7.4
	c-7.7,5.2-12.7,8.3-15.2,9.2c0.3,1.5,0.6,2.9,0.9,4.1c10.4-4.3,20.4-8.9,29.9-13.8C2467.8,166.5,2467.3,164.2,2467,162.1z"/>
<path d="M2616.4,154.3c1.5-1.5,3.5-2.3,6-2.3c42.9,0,76,14.2,99.3,42.7c20.5,25.4,29.9,56.7,28,93.7c-0.9,17.2-4.4,33.9-10.6,50.1
	c-6.1,16.2-14.5,31.2-25,44.8c-10.6,13.6-23.9,24.8-40,33.5c-16.1,8.7-33.8,13.9-53.1,15.4c-21.8,1.5-41.6-1.2-59.5-8.3
	c-17.9-7-32.4-17.2-43.4-30.3c-11-13.2-19.5-28-25.3-44.6c-5.8-16.5-8.6-33.7-8.3-51.5c0-17.2,2.8-33.8,8.5-50.1
	c5.7-16.2,13.8-31.1,24.4-44.6c10.6-13.5,24.4-24.6,41.6-33.3C2576.1,160.9,2595.2,155.8,2616.4,154.3z M2502.8,304.5
	c13.2-0.9,23.9-2.6,32.2-5.1c0.3-2.8,0.6-5.7,0.9-8.7c-13.2,0.3-24.2,1.2-33.1,2.8v4.1V304.5z M2503.3,288.9
	c8.9-1.5,20.1-2.4,33.5-2.8c0.6-3.4,1.5-6.7,2.8-10.1c-7.7,0.3-11.6,0.5-11.9,0.5c-9.2,0.3-16.9,0.2-23-0.5
	C2504.1,280.3,2503.6,284.6,2503.3,288.9z M2505.1,326.1l30.3-11.5c-0.3-3.4-0.5-6.7-0.5-10.1c-8.3,2.1-18.8,3.7-31.7,4.6
	C2503.6,315,2504.2,320.6,2505.1,326.1z M2505.6,271.5c5.8,0.6,13,0.8,21.6,0.5c1.8,0,4.4-0.1,7.6-0.2c3.2-0.2,5.3-0.2,6.2-0.2
	l1.4-2.3c0.6-2.1,1.5-4.3,2.8-6.4c-4-0.6-9.3-1.2-16.1-1.8c-10.1-1.2-16.9-2.1-20.2-2.8C2507.6,262.7,2506.5,267.2,2505.6,271.5z
	 M2508.8,340.4l13.3-7.8c6.1-3.7,11-6.7,14.7-9.2c-0.3-1.5-0.6-2.9-0.9-4.1l-29.9,11.5L2508.8,340.4z M2510.2,254
	c3.1,0.3,9.5,1.1,19.3,2.3c7.4,0.6,13.2,1.4,17.5,2.3l3.7-5.5c-9.8-2.1-22.8-3.2-39.1-3.2C2511.3,251.1,2510.8,252.5,2510.2,254z
	 M2514.8,355.5c14.1-10.1,23-16.2,26.7-18.4c-0.9-2.1-1.7-4.3-2.3-6.4l-0.9-2.8c-3.7,2.5-8.3,5.4-13.8,8.7l-14.2,8.3L2514.8,355.5z
	 M2513.4,245.3c16.5,0,29.9,1.2,40,3.7l1.8-2.8c-17.2-3.1-29.6-6.6-37.2-10.6L2513.4,245.3z M2523.1,369.8c2.8-4,6.9-8.3,12.4-12.9
	c3.1-2.8,7-6,11.9-9.6c-1.2-1.8-2.5-3.8-3.7-6c-3.4,1.8-12.4,8-27.1,18.4C2518.5,363.4,2520.6,366.7,2523.1,369.8z M2520.3,231.9
	c7,3.4,19.8,6.7,38.1,10.1c1.2-1.5,2.6-3.1,4.1-4.6c-3.7-1.5-8.9-4-15.6-7.4c-8.9-4.6-15.5-7.7-19.8-9.2
	C2524.7,224.3,2522.4,228,2520.3,231.9z M2533.2,383.1c2.1-4,5.7-9,10.6-15.2c5.8-7,9.2-11.3,10.1-12.9c-1.2-1.2-2.3-2.6-3.2-4.1
	c-5.2,3.7-9.3,6.7-12.4,9.2c-5.5,4.9-9.6,9.5-12.4,13.8C2528.3,377.3,2530.7,380.4,2533.2,383.1z M2530,217.2
	c4.3,1.5,10.6,4.4,18.8,8.7c7.7,3.7,13.5,6.3,17.5,7.8c1.2-1.2,2.4-2.3,3.7-3.2l-11.5-11.9c-6.4-6.7-12.1-11.5-17-14.2
	C2537.2,208.3,2533.3,212.6,2530,217.2z M2542.4,391.4c2.1-5.2,5.8-11.3,11-18.4l8.3-11c-1.5-1.2-2.9-2.4-4.1-3.7l-10.1,12.4
	c-5.2,6.1-8.7,11.5-10.6,16.1L2542.4,391.4z M2545.1,201.1c4.9,3.1,10.4,7.8,16.5,14.2l11.9,11.9l2.8-1.4c-1.8-3.1-4.8-7.2-8.7-12.4
	c-6.1-8.9-10.4-15.5-12.9-19.8C2551.4,195.9,2548.2,198.4,2545.1,201.1z M2555.2,400.6c1.5-4.6,5.2-12.1,11-22.5
	c2.4-4,4.3-7.2,5.5-9.7c-2.1-1.2-4.1-2.4-6-3.7l-8.7,11c-5.5,7.4-9.2,13.6-11,18.8C2548.8,396.8,2551.9,398.7,2555.2,400.6z
	 M2626.5,232.9c-14.4-3.1-27.7-0.4-39.8,8c-12.1,8.4-21.2,20.1-27.3,35.2c-7.4,17.5-8.4,33.7-3.2,48.7c5.8,15.9,18.1,26.7,36.8,32.2
	c17.2,4.6,32.3,2.1,45.5-7.4c13.2-9.5,22.4-23,27.6-40.4c5.2-17.2,4.9-32.8-0.9-46.9c-5.8-13.8-16.7-22.2-32.6-25.3
	C2630,236.4,2628,235,2626.5,232.9z M2558.5,191c2.4,4.3,6.7,10.9,12.9,19.8c4,5.2,6.9,9.3,8.7,12.4l5.5-2.8l-8.7-16.5
	c-3.7-7.4-6.9-13.3-9.7-17.9L2558.5,191z M2569,407c1.8-5.8,6.6-17.2,14.2-34l-7.4-2.8c-1.2,2.8-3.1,6.3-5.5,10.6
	c-5.8,9.8-9.5,17-11,21.6l-0.5,0.5C2562.3,404.4,2565.6,405.8,2569,407z M2571.3,184.1c2.8,4.3,6,10.1,9.7,17.5l8.7,17l4.6-1.8
	c0-0.3-0.2-0.5-0.5-0.5c-1.8-4.6-3.8-11.8-6-21.6l-4.1-15.6C2579.4,180.6,2575.3,182.3,2571.3,184.1z M2584.6,411.6
	c0.9-4,2.6-9.7,5.1-17c2.4-8.3,4.1-14.4,5.1-18.4l-6.4-1.8h-0.5c-8,17.2-12.9,28.6-14.7,34.5C2576.8,410.1,2580.7,411,2584.6,411.6z
	 M2587.9,177.7c1.2,3.7,2.6,9,4.1,16.1c2.4,9.5,4.6,16.4,6.4,20.7v0.9l4.6-0.9c0-18.4-0.5-31.7-1.4-40
	C2597.1,175.4,2592.5,176.5,2587.9,177.7z M2597.1,413.9c0-0.9,0.6-6.7,1.8-17.5c0.9-8.3,2.3-14.7,4.1-19.3c-1.2,0-2.5-0.2-3.7-0.5
	l-5.5,19.3c-2.5,8.6-4,14.1-4.6,16.5C2591.7,413.1,2594.3,413.6,2597.1,413.9z M2609.9,414.4c0.3-4.3,1.7-16.7,4.1-37.2
	c-1.8,0.3-3.8,0.5-6,0.5c-2.1,4-3.7,10.4-4.6,19.3c-1.2,10.7-1.8,16.4-1.8,17C2604.4,414.2,2607.2,414.4,2609.9,414.4z M2606.2,174
	c0.9,8.3,1.4,21.4,1.4,39.5c2.1-0.3,4.3-0.5,6.4-0.5c0.9-5.2,1.4-11.8,1.4-19.8v-10.1v-10.6C2612.4,173,2609.3,173.4,2606.2,174z
	 M2628.3,413c-0.6-3.1-2-8.7-4.1-17c-1.8-8.3-3.5-14.7-5.1-19.3h-0.5v0.5v0.5c-2.5,20.8-3.8,33.1-4.1,36.8c1.8-0.3,3.7-0.5,5.5-0.5
	L2628.3,413z M2631.1,172.2h-1.8c-3.1,0-6.1,0.2-9.2,0.5v10.1v10.6c0,8-0.5,14.6-1.4,19.8l7.4,0.9c1.2-5.2,2.1-11.9,2.8-20.2
	C2630,180.6,2630.7,173.4,2631.1,172.2z M2645.3,409.3c-2.8-7-6.9-19.1-12.4-36.3c-3.1,1.2-6.1,2.1-9.2,2.8
	c1.2,4.9,2.9,11.2,5.1,18.8c2.1,8.6,3.5,14.4,4.1,17.5C2637.2,411.5,2641.3,410.5,2645.3,409.3z M2644.8,172.2
	c-2.8-0.6-5.8-1.1-9.2-1.4c-0.3,2.1-1.1,10-2.3,23.4c-0.6,8.3-1.5,15-2.8,20.2c1.5,0.6,3.1,1.1,4.6,1.4
	C2636.4,206.4,2639.6,191.8,2644.8,172.2z M2659.5,403.8c-7.7-11.3-13.2-23.1-16.5-35.4l-5.5,2.8c5.5,17.8,9.7,29.9,12.4,36.3
	C2653,406.6,2656.2,405.3,2659.5,403.8z M2657.2,174.5c-2.5-0.6-5.1-1.2-7.8-1.8c-5.5,20.5-8.7,35.4-9.6,44.6
	c1.2,0.6,2.3,1.1,3.2,1.4l4.1-14.2c1.5-4.9,3.4-10.3,5.5-16.1C2654.8,182.5,2656.3,177.9,2657.2,174.5z M2672,179.5l-10.1-3.7
	l-6.4,18.4c-4,11.6-6.7,20.4-8.3,26.2l1.4,0.5c1.2,0.6,2.3,1.5,3.2,2.8l2.3,0.9c1.2-3.1,4.3-9.6,9.2-19.8
	C2668.1,194.1,2671,185.7,2672,179.5z M2670.6,397.4c0-0.6-3.8-7-11.5-19.3c-3.7-6.1-6.1-11.3-7.4-15.6c-1.5,1.2-3.1,2.3-4.6,3.2
	c3.4,12.3,8.9,24.2,16.5,35.8C2666.1,400.3,2668.4,398.9,2670.6,397.4z M2684.8,386.8c-7.7-10.7-15.9-21.1-24.8-31.2
	c-1.2,1.2-2.6,2.5-4.1,3.7c0.6,4.3,3.1,9.8,7.4,16.5c7.4,12.3,11.2,18.5,11.5,18.8C2678.1,392.5,2681.4,389.9,2684.8,386.8z
	 M2683,185.5c-2.1-1.5-4.4-2.8-6.9-3.7c-0.9,6.1-3.9,14.4-9,24.8c-5.1,10.4-8,17.2-9,20.2c1.2,0.9,2.6,1.8,4.1,2.8
	C2673,211,2679.9,196.3,2683,185.5z M2697.2,374.4c-10.7-7-20.5-16.5-29.4-28.5c-1.5,2.1-3.2,4.1-5.1,6
	c9.2,10.1,17.8,20.7,25.7,31.7C2691.6,380.8,2694.5,377.8,2697.2,374.4z M2693.1,192.4c-1.8-1.5-3.8-3.1-6-4.6
	c-3.4,11-10.4,26-21.1,45c0.9,0.9,1.8,1.7,2.8,2.3L2693.1,192.4z M2703.2,366.6c-3.4-2.4-14.1-11-32.2-25.7l-0.5,1.4
	c0.3,0,0.5,0.2,0.5,0.5c8.9,11.9,18.5,21.4,29,28.5L2703.2,366.6z M2706.4,205.3c-3.1-3.7-6.3-7-9.7-10.1l-24.8,43.7
	c0.9,0.9,1.8,2,2.8,3.2C2685.4,228,2696,215.7,2706.4,205.3z M2706,362.9c3.1-4.3,5.8-8.9,8.3-13.8c-10.7-5.8-23.3-11.5-37.7-17
	c-0.9,1.8-1.8,3.5-2.8,5.1C2692.2,352.5,2702.9,361.1,2706,362.9z M2714.7,217.2c-1.5-3.1-3.4-5.8-5.5-8.3
	c-10.1,10.4-20.7,22.8-31.7,37.2c4.3-2.8,10-6.9,17-12.4C2705.2,224.6,2711.9,219.1,2714.7,217.2z M2716.5,345l4.6-11
	c-4-1.5-11.2-3.1-21.6-4.6c-8.9-1.5-15.5-3.1-19.8-4.6c-0.3,0.9-0.8,2-1.4,3.2C2692.8,333.5,2705.5,339.2,2716.5,345z M2726.2,242.5
	c-1.2-4-2.6-7.8-4.1-11.5l-9.7,5.1c-6.7,4.3-10.7,6.7-11.9,7.4c-7.7,4.3-14.4,7.1-20.2,8.3l2.8,5.5
	C2698.6,251.1,2713,246.2,2726.2,242.5z M2723,329.8l2.8-9.6c-23.6-6.4-37.2-10-40.9-10.6c-0.3,1.5-0.8,3.2-1.4,5.1l-1.8,5.5
	c4,1.8,10.1,3.4,18.4,4.6C2711.3,326.6,2719,328.3,2723,329.8z M2728.5,252.2c-0.3-1.8-0.8-3.5-1.4-5.1
	c-12.9,3.4-27.1,8.3-42.7,14.7l0.9,3.7c3.7-1.2,11.2-3.2,22.5-6C2716.7,257.1,2723.6,254.6,2728.5,252.2z M2727.1,315.6
	c0.9-3.7,1.7-7.4,2.3-11c-21.1-1.5-35.5-2.3-43.2-2.3c0,0.9-0.2,2-0.5,3.2C2690,305.8,2703.8,309.1,2727.1,315.6z M2730.8,265.9
	c-0.3-3.1-0.8-6.1-1.4-9.2c-5.2,2.5-12.1,4.8-20.7,6.9c-11.3,3.1-18.8,5.2-22.5,6.4c0.3,1.5,0.6,2.9,0.9,4.1
	C2696.3,273.9,2710.9,271.2,2730.8,265.9z M2729.9,299.9c0.6-3.7,0.9-7.2,0.9-10.6c-11.3,1.5-25.7,2.3-43.2,2.3c0,2.1-0.2,4.1-0.5,6
	C2694.8,297.6,2709,298.4,2729.9,299.9z M2730.8,270.5c-19,5.2-33.4,8-43.2,8.3c0.3,2.8,0.3,5.5,0,8.3c17.8,0,32.3-0.8,43.7-2.3
	C2731.2,279.9,2731.1,275.1,2730.8,270.5z M2688.5,244.3c2.8-1.2,6-2.8,9.7-4.6c1.2-0.9,5.2-3.4,11.9-7.4c4-2.4,7.4-4.3,10.1-5.5
	c-0.9-2.1-2-4.1-3.2-6c-2.5,1.8-9,7.2-19.8,16.1C2693.9,240.1,2690.9,242.5,2688.5,244.3z"/>
<path d="M2777.2,184.6c4,0,8.3-0.1,12.9-0.2c4.6-0.2,9.6-0.5,14.9-0.9c5.4-0.5,9.6-0.7,12.6-0.7c1.2,0,2.4,0.2,3.7,0.5
	c1.2-0.3,2.4-0.5,3.7-0.5c2.4,0,4.5,1,6.2,3c1.7,2,2.5,4.2,2.5,6.7c0,2.5-0.2,6.1-0.5,10.8c-0.3,4.8-0.6,8.4-0.9,10.8
	c11.3-3.4,21.4-4.7,30.3-4.1c11.3,1.2,20.8,6.3,28.5,15.2c5.5,6.1,10.6,15.3,15.2,27.6c0.9,2.1,2.7,6.8,5.3,14
	c2.6,7.2,4.8,12.9,6.7,17.2l0.9,1.8c1.2,2.5,1.3,4.8,0.2,7.1c-1.1,2.3-2.7,3.9-4.8,4.8c-24.2,10.4-40,16.4-47.3,17.9
	c-2.5,0.6-4.8,0.3-7.1-0.9c-2.3-1.2-3.6-3.1-3.9-5.5c-0.6-1.5-0.6-3.1,0-4.6c-2.5-5.8-5.1-10.1-7.8-12.9c-1.8-1.8-3.2-2.6-4.1-2.3
	c-0.9,0.3-2.1,1.1-3.4,2.5c-1.4,1.4-3,4-4.8,7.8c-1.8,3.8-3.5,8.5-5.1,14c-6.1,27-2.6,68.3,10.6,124.1c1.5,1.2,2.6,2.9,3.2,5.1
	c0.3,2.4-0.2,4.7-1.6,6.9c-1.4,2.1-3.3,3.5-5.7,4.1c-2.5,0.3-4.9,0.8-7.4,1.4l-9.2,1.8c-3.1,0.9-5.5,1.5-7.4,1.8
	c-10.1,2.1-18.5,3.5-25.3,4.1c-2.5,0.3-4.7-0.4-6.7-2.1c-2-1.7-3.1-3.8-3.4-6.2c0-1.2,0.2-2.5,0.5-3.7
	c-20.2-67.1-22.8-150.7-7.8-250.9c-1.8-1.8-2.8-4-2.8-6.4c0-2.4,0.9-4.6,2.8-6.4S2774.7,184.6,2777.2,184.6z M2814.9,304.1
	c0.3-1.5,0.8-3.2,1.4-5.1c-5.5,0.3-12.6,1.2-21.1,2.8c-9.8,1.8-15,2.8-15.6,2.8c-0.3,1.8-0.5,3.5-0.5,5.1
	C2795.9,307.8,2807.8,305.9,2814.9,304.1z M2813.5,309.1c-6.7,1.5-18.2,3.2-34.5,5.1v2.3h32.6L2813.5,309.1z M2810.3,327.5l0.9-6.4
	H2779c0,4.6,0.2,9,0.5,13.3c2.4-0.6,5.4-1.2,8.7-1.8C2799.5,330.1,2806.9,328.4,2810.3,327.5z M2819.9,285.2
	c-4.6,1.5-11.6,2.9-21.1,4.1l-18.8,2.8c-0.3,2.8-0.5,5.4-0.5,7.8c1.8-0.3,6.7-1.1,14.7-2.3c9.8-1.8,17.8-2.9,23.9-3.2l2.8-5.5
	L2819.9,285.2z M2809.4,339.9c0.3-2.4,0.5-4.9,0.5-7.4l-20.2,4.1l-10.1,2.3c0,3.7,0.2,7.4,0.5,11
	C2788.5,345.1,2798.3,341.8,2809.4,339.9z M2819,280.6c0-0.9-0.2-1.8-0.5-2.8c-12.3-0.6-25-0.3-38.1,0.9c0,2.8-0.2,5.7-0.5,8.7
	l6-0.9c1.8-0.3,4-0.6,6.4-0.9c2.4-0.3,4.4-0.6,6-0.9C2807.2,283.6,2814.1,282.2,2819,280.6z M2809.4,344.5c-11.3,1.8-21,5.4-29,10.6
	v5.1l12.9-3.2c6.1-1.5,11.5-2.8,16.1-3.7V344.5z M2815.3,267.3c-11.9-2.4-23.1-1.7-33.5,2.3h-0.5l-0.5,4.6c12.6-1.2,25-1.5,37.2-0.9
	c-0.3-2.1-0.5-4.3-0.5-6.4C2817,267.2,2816.2,267.3,2815.3,267.3z M2809.8,363.4v-5.1c-3.7,0.6-8.9,1.7-15.6,3.2l-13.3,3.2
	c0.3,2.5,0.6,4.8,0.9,6.9C2793.7,369.2,2803.1,366.4,2809.8,363.4z M2817.2,263.2c0-2.4-0.2-4.9-0.5-7.4c-14.4,0-25.9,0.9-34.5,2.8
	l-0.9,6c11-3.7,22.7-4.3,34.9-1.8C2816.5,262.7,2816.9,262.9,2817.2,263.2z M2816.7,245.7c-6.7-2.1-17.8-3.1-33.1-2.8
	c-0.3,3.7-0.8,7.4-1.4,11c8.9-1.8,20.4-2.8,34.5-2.8V245.7z M2810.7,373.5c0-1.8-0.2-3.5-0.5-5.1c-6.7,2.8-16.1,5.4-28,7.8l0.9,8.3
	l9.2-4.1C2800,377,2806.1,374.7,2810.7,373.5z M2812.6,387.7l-0.9-9.7c-4.6,1.2-10.4,3.4-17.5,6.4l-10.6,4.6
	c0.3,2.8,0.8,5.5,1.4,8.3c2.8-1.2,6.1-2.4,10.1-3.7C2804.9,390.6,2810.7,388.6,2812.6,387.7z M2816.7,240.7v-5.5
	c-1.2-0.9-2.1-2.1-2.8-3.7H2785l-0.9,6.9C2798.8,238.1,2809.7,238.8,2816.7,240.7z M2813,226.9c0-1.2,0.3-2.3,0.9-3.2v-0.5v-4.6
	c-9.2,0.6-18.4,1.1-27.6,1.4l-0.9,6.9H2813z M2815.3,402.4l-1.8-10.1c-1.8,0.9-7.5,2.9-17,6c-4.3,1.2-7.8,2.5-10.6,3.7l1.8,11.5
	C2795.4,410.7,2804.6,407,2815.3,402.4z M2813.9,214c0.3-1.2,0.5-2.6,0.5-4.1c-7.1,0.9-15.9,1.1-26.7,0.5l-0.9,5.1
	C2795.7,215.1,2804.8,214.6,2813.9,214z M2814.4,205.3l0.5-4.1c-2.1,0.3-6.2,0.6-12.2,0.9c-6,0.3-10.6,0.5-14,0.5l-0.5,3.2
	C2798.9,206.4,2807.7,206.2,2814.4,205.3z M2816.7,410.2l-0.9-3.2c-10.1,4.6-19.2,8.1-27.1,10.6l0.9,3.2
	C2800.6,415,2809.7,411.5,2816.7,410.2z M2818.5,420.3l-0.9-5.5c-6.4,0.9-15.5,4.4-27.1,10.6l0.9,3.7
	C2801.2,424.8,2810.3,421.9,2818.5,420.3z M2820.8,430.5l-0.9-5.5c-8.3,1.5-17.5,4.3-27.6,8.3c0.9,3.7,2,7.2,3.2,10.6
	c0.9-0.3,2-0.6,3.2-0.9L2820.8,430.5z M2821.8,435l-8.3,5.1l9.2-2.3L2821.8,435z M2824.1,282.5v0.9c0.6-0.9,1.4-1.8,2.3-2.8
	c-1.2-17.2-1.2-32,0-44.6h-0.5c-1.5,0.6-3.1,0.9-4.6,0.9c0,19.6,0.8,34.2,2.3,43.7l0.5,0.5V282.5z M2830.9,234.2
	c-1.2,12.3-1.4,26.4-0.5,42.3c2.8-2.1,5.5-3.7,8.3-4.6c0-4.6,0.2-11.4,0.7-20.4c0.5-9,0.7-15.9,0.7-20.4
	C2837.1,231.9,2834,233,2830.9,234.2z M2843.8,261.3c1.8-14.4,4.6-25.3,8.3-32.6l-7.4,0.9C2844.7,230.3,2844.4,240.8,2843.8,261.3z
	 M2857.1,228.3c-4.3,7.7-7.7,21.9-10.1,42.7c1.8,0.3,3.5,0.8,5.1,1.4c5.5-14.7,9.8-29.3,12.9-43.7c-1.2-0.3-2.6-0.5-4.1-0.5H2857.1z
	 M2876.9,236.1c-2.5-2.4-5.1-4.3-7.8-5.5c-3.1,14.4-7.4,29.1-12.9,44.1c0.3,0,0.8,0.2,1.4,0.5c0.6-1.2,1.4-2.6,2.3-4.1
	c0.9-1.5,2-3.2,3.2-5.1c1.2-1.8,2-3.2,2.3-4.1C2871.5,251.7,2875.4,243.1,2876.9,236.1z M2886.1,251.2c-1.8-4-3.7-7.4-5.5-10.1
	c-1.8,6.4-5.5,14.1-11,23c-5.5,9.2-8.4,13.9-8.7,14.2h0.5c0.6,0.9,1.2,1.7,1.8,2.3l6.9-9.6c2.4-3.4,5.3-7,8.5-11
	C2881.7,256,2884.3,253.1,2886.1,251.2z M2887.9,255.8c-12.6,16.2-19.8,25.7-21.6,28.5c1.2,1.8,2.3,4,3.2,6.4
	c10.4-11.6,17.5-21,21.1-28l-1.4-3.2L2887.9,255.8z M2893.9,271.9l-1.4-3.7c-4,6.7-10.9,15.6-20.7,26.7v0.5l7.4-2.8
	c1.2-1.8,2.9-4.1,5.1-6.9C2889.8,278.3,2893,273.8,2893.9,271.9z M2896.2,277.4c-0.9,0.9-3.7,4.6-8.3,11l-0.9,1.4l11.5-5.1
	L2896.2,277.4z"/>
<path d="M3208.2,427.7c0.6-7,0.9-10.9,0.9-11.5c-21.8,8.9-37.1,13.9-46,15.2c-16.9,2.1-32.4,0.7-46.6-4.4
	c-14.2-5.1-25.8-12.7-34.7-23c-8.9-10.3-15.8-22.1-20.7-35.4c-4.9-13.3-6.8-27.6-5.7-42.7c1.1-15.2,5-29.5,11.7-43
	c14.1-28.2,33.8-48.1,59-59.7c25.3-11.6,53.7-15.9,85.2-12.9c0-9.2,0.3-28.2,0.9-57c0.9-27.9,0.3-49.8-1.8-65.7v-0.5
	c-2.5-1.8-3.7-4.3-3.7-7.4c0-2.4,0.9-4.6,2.8-6.4c1.8-1.8,4-2.8,6.4-2.8c22.1,0,42.6,1.8,61.6,5.5c2.1,0.6,3.9,1.8,5.3,3.7
	c1.4,1.8,2.1,3.8,2.1,6c0.9,1.8,1.2,3.7,0.9,5.5c-1.2,7.7-2.2,15.5-3,23.4c-0.8,8-1.2,16.5-1.4,25.7c-0.2,9.2-0.3,16.9-0.5,23
	c-0.2,6.1-0.2,14.9,0,26.4c0.2,11.5,0.2,19.5,0.2,24.1c0,23.6,0.2,58.9,0.5,105.9c0.3,47,0.5,82.3,0.5,105.9c0,1.5-0.3,2.9-0.9,4.1
	v0.9c0,2.4-0.9,4.6-2.8,6.4c-1.8,1.8-4,2.8-6.4,2.8h-47.8c-2.5,0-4.4-0.8-6-2.3h-0.9h-0.9c-2.5-0.3-4.5-1.4-6.2-3.2
	C3208.6,432.8,3207.9,430.5,3208.2,427.7z M3106.2,326.1c-7.7-0.9-18.4-1.4-32.2-1.4c-0.3,3.7-0.5,7.4-0.5,11l6.9-1.4
	c2.8-0.6,4.7-0.9,6-0.9C3096.2,331.7,3102.8,329.2,3106.2,326.1z M3108,330.7c-4,3.1-10.9,5.4-20.7,6.9l-6.9,1.4l-6.9,1.4
	c0.3,2.8,0.8,5.5,1.4,8.3c3.4-1.2,8-2.6,13.8-4.1c10.1-2.8,16.5-4.6,19.3-5.5C3107.7,336.2,3107.7,333.5,3108,330.7z M3109.4,322
	c0.3-1.2,0.6-2.6,0.9-4.1c-4.3-1.5-10.1-2.8-17.5-3.7c-0.9-0.3-5.2-0.8-12.9-1.4c-1.5-0.3-2.9-0.5-4.1-0.5c-0.6,2.5-1.1,5.1-1.4,7.8
	C3089.2,320.2,3100.8,320.8,3109.4,322z M3109,347.3c-0.3-1.2-0.5-2.4-0.5-3.7c-3.4,1.2-9.7,3.1-18.8,5.5
	c-6.1,1.5-10.7,2.9-13.8,4.1c0.6,3.4,1.5,6.6,2.8,9.7c6.1-2.4,11.2-4.7,15.2-6.9C3100.5,353,3105.6,350,3109,347.3z M3111.7,313.7
	l1.8-5.5c-1.8-0.9-4-1.8-6.4-2.8l-7.4-2.8l-6-2.8c-4.6-1.8-8.7-3.2-12.4-4.1c-1.5,4-2.9,8-4.1,11.9c0.9,0,2,0.2,3.2,0.5
	c8,0.6,12.4,1.1,13.3,1.4C3100.8,310.5,3106.8,311.9,3111.7,313.7z M3111.3,354.2c-0.3-0.6-0.6-1.4-0.9-2.3
	c-3.7,2.8-8.4,5.5-14.2,8.3c-4.3,2.1-9.7,4.4-16.1,6.9c1.2,3.1,2.6,5.8,4.1,8.3c0.9-0.9,5.8-4.6,14.7-11
	C3104,360.6,3108.2,357.2,3111.3,354.2z M3115.8,303.6l1.8-3.7l-12.4-10.6l-14.2-11.5c-2.8,4.3-5.2,8.7-7.4,13.3
	c3.4,1.2,7.4,2.8,11.9,4.6l7.8,3.2C3109,301.2,3113.1,302.7,3115.8,303.6z M3117.2,365.2c-1.5-1.8-2.9-4-4.1-6.4
	c-2.8,2.8-6.6,6-11.5,9.7l-15.2,11c2.4,4,5.4,7.7,8.7,11l11.5-12.4C3110.9,373.2,3114.5,368.9,3117.2,365.2z M3120,295.8
	c0.9-1.2,1.8-2.6,2.8-4.1c-11.6-11.3-19.5-19.5-23.4-24.4c-1.8,2.1-3.7,4.4-5.5,6.9c3.1,2.8,7.7,6.6,13.8,11.5
	C3113.7,290.6,3117.8,294,3120,295.8z M3124.6,372.6c-1.5-1.2-2.9-2.4-4.1-3.7l-10.6,12.4l-11.5,12.9c2.8,2.8,5.8,5.2,9.2,7.4
	c1.2-2.1,3.1-5.1,5.5-8.7c2.4-3.7,3.8-5.8,4.1-6.4C3120.6,381.1,3123,376.5,3124.6,372.6z M3125.5,288c1.2-1.5,2.4-2.9,3.7-4.1
	c-11-10.1-18.8-18.1-23.4-23.9l-3.7,3.7C3106.3,268.5,3114.2,276.7,3125.5,288z M3132.4,280.6c2.4-2.8,5.1-5.2,7.8-7.4
	c-8-4.9-15.8-12.6-23.4-23l-7.4,6.4C3113.7,262.3,3121.4,270.2,3132.4,280.6z M3130.6,376.2l-1.8-0.9c-1.8,4-4.3,8.4-7.4,13.3
	l-4.6,6.9c-2.5,3.4-4.3,6.1-5.5,8.3c2.4,1.5,4.9,2.8,7.4,3.7C3123.8,396.4,3127.8,386,3130.6,376.2z M3145.3,269.6
	c-6.1-8-13.5-15.9-22.1-23.9l-2.8,1.8c7.4,10.1,14.9,17.5,22.5,22.1c0.3,0.3,0.6,0.8,0.9,1.4L3145.3,269.6z M3138.8,379.9
	c-1.2-0.6-2.5-1.1-3.7-1.4c-3.1,9.5-7.2,19.8-12.4,30.8c2.1,0.9,4.3,1.7,6.4,2.3v-0.5C3134.4,398.6,3137.6,388.2,3138.8,379.9z
	 M3208.2,347.3c0-8,0.2-20.4,0.5-37.5c0.3-17,0.5-29.9,0.5-38.8c-24.2-1.2-43.7,4.7-58.6,17.7c-14.9,13-22.9,27.5-24.1,43.4
	c-1.2,14.7,3.7,24.4,14.7,29c15,6.1,36.8,1.7,65.3-13.3C3207,347.4,3207.6,347.3,3208.2,347.3z M3149.4,267.3l-17-26.7
	c-1.8,0.9-3.5,1.8-5.1,2.8C3135.6,251.4,3143,259.4,3149.4,267.3z M3148.5,381.7c-1.8-0.3-3.5-0.6-5.1-0.9
	c-1.2,8.6-4.4,19.1-9.7,31.7l7.4,0.9c0.6-3.4,1.8-8.6,3.7-15.6C3146.6,390.8,3147.9,385.4,3148.5,381.7z M3153.5,265l1.4-0.9
	c-4.3-7.7-7.8-17.2-10.6-28.5c-2.5,0.9-5.1,2-7.8,3.2L3153.5,265z M3153.1,381.7c-0.6,4.3-1.8,10-3.7,17.2
	c-1.8,7.2-3.1,12.2-3.7,14.9h7.8c0.9-12.3,1.8-23,2.8-32.2H3153.1z M3159,261.8c2.8-1.2,5.5-2.3,8.3-3.2
	c-5.5-10.1-9.6-18.8-12.4-26.2c-2.1,0.3-4.1,0.8-6,1.4C3151.7,245.1,3155.1,254.5,3159,261.8z M3167.3,380.8
	c-2.1,0.6-4.3,0.9-6.4,0.9c-0.9,9.2-1.8,19.8-2.8,31.7c0.9,0,1.7-0.2,2.3-0.5c2.1-0.3,4.4-0.8,6.9-1.4V380.8z M3165.9,245.3
	c-2.1-5.2-3.7-10.1-4.6-14.7l-2.3,0.5C3160.9,235.6,3163.2,240.4,3165.9,245.3z M3179.7,254.9c-3.4-8.6-7.8-17-13.3-25.3h-0.5
	c1.2,6.7,4.1,15.2,8.7,25.3v1.4C3176.2,256,3177.9,255.5,3179.7,254.9z M3182.9,250.8l-0.9-6.9c-1.2-6.4-1.8-11.8-1.8-16.1
	c-3.1,0.3-6,0.6-8.7,0.9C3176,236.1,3179.9,243.4,3182.9,250.8z M3174.2,379.9c-0.6,0-1.4,0.2-2.3,0.5v30.3c1.8-0.6,3.8-1.4,6-2.3
	c-0.3,0-0.5-0.3-0.5-0.9C3175.6,399.8,3174.5,390.6,3174.2,379.9z M3184.3,377.1c-1.8,0.6-3.7,1.1-5.5,1.4c0.3,11.3,1.4,20.7,3.2,28
	v0.5l6.4-2.3C3186.3,397.7,3184.9,388.5,3184.3,377.1z M3188,253.5h0.9c0-12.3,0.2-21,0.5-26.2c-1.5,0.3-3.1,0.5-4.6,0.5
	c0,4,0.6,9,1.8,15.2C3187.5,249.4,3188,252.9,3188,253.5z M3196.7,372.6c-2.5,1.2-5.1,2.1-7.8,2.8c0.6,11.6,1.8,20.8,3.7,27.6
	l6.9-2.8C3197.9,392.2,3197,383,3196.7,372.6z M3193.5,253.1c2.4-0.3,4.7-0.5,6.9-0.5c0.3-6.1,0.5-14.4,0.5-24.8
	c-2.1,0-4.4-0.2-6.9-0.5C3193.7,232.6,3193.5,241.1,3193.5,253.1z M3203.6,369.8l-2.3,0.9c0.3,10.4,1.2,19.6,2.8,27.6l2.8-0.9
	C3205.3,386,3204.2,376.8,3203.6,369.8z M3210.5,252.6c-0.3-9.8,0-17.8,0.9-23.9c-2.1-0.3-4.1-0.5-6-0.5c0,10.1-0.2,18.2-0.5,24.4
	H3210.5z M3214.2,393.2c-0.6-6.4-0.9-15.3-0.9-26.7c-0.6-0.3-1.1-0.6-1.4-0.9l-3.7,1.8c0.6,7.7,1.7,17,3.2,28h0.9
	C3212.3,394.3,3213,393.5,3214.2,393.2z M3216.5,229.6v-0.5h-0.5c-0.9,5.8-1.2,13.8-0.9,23.9c0.3,0,0.8,0.2,1.4,0.5
	c0.3-9.8,0.5-16.7,0.5-20.7c-0.6-0.6-0.9-1.4-0.9-2.3C3216,230.3,3216.2,229.9,3216.5,229.6z M3218.8,379.9
	c13.2,1.5,28,1.7,44.6,0.5h0.5v-8.3h-0.9c-6.7-0.6-21.8-0.9-45-0.9v8.7H3218.8z M3262.9,385c-16.2,1.2-31.1,1.1-44.6-0.5v8.3
	C3242.2,389.1,3257.1,386.5,3262.9,385z M3220.2,396.9c1.2,0.9,2.1,2.1,2.8,3.7c1.2,0.6,2.1,1.4,2.8,2.3c6.7,0.3,19.5-1.4,38.1-5.1
	v-8.3C3257.4,391.4,3242.8,393.8,3220.2,396.9z M3221.1,253.5c5.5,0,13.6,0.3,24.4,0.9c8,0.3,13.8,0.6,17.5,0.9v-6.4
	c-12.6-1.5-26.5-2.3-41.8-2.3V253.5z M3221.5,242c15,0,28.8,0.8,41.4,2.3v-6.4c-4.3-0.6-10.4-1.2-18.4-1.8c-11.3-0.9-19-1.7-23-2.3
	V242z M3226.1,361.5c-0.9,2.5-2.5,4.1-4.6,5.1c20.2,0,34,0.3,41.4,0.9h0.9v-6h-0.9h-6c-2.1,0-4.5,0.1-7.1,0.2
	c-2.6,0.2-4.5,0.2-5.7,0.2C3236.7,362,3230.7,361.8,3226.1,361.5z M3262.9,233.3v-9.7c-18.1,0.3-29.1,0.3-33.1,0
	c-1.2,3.1-3.4,4.9-6.4,5.5c3.7,0.6,10.9,1.4,21.6,2.3C3252.6,232.1,3258.6,232.7,3262.9,233.3z M3227.5,263.2h35.4V260
	c-4-0.3-9.8-0.6-17.5-0.9c-8.9-0.6-15.5-0.9-19.8-0.9C3226.9,259.7,3227.5,261.3,3227.5,263.2z M3226.6,330.7h36.8v-7.4
	c-4.6,0-11.3-0.5-20.2-1.4c-7.4-0.6-12.7-1.1-16.1-1.4C3227.1,324.3,3226.9,327.7,3226.6,330.7z M3226.6,344.5
	c15.6,0,27.9-0.2,36.8-0.5v-8.7h-36.8V344.5z M3226.6,356.9c4.6,0.3,10.3,0.5,17,0.5l19.3-0.5h0.9l-0.5-8.3
	c-8.9,0.3-21.1,0.5-36.8,0.5V356.9z M3227.1,304.5c4.6,0.3,16.7,0.3,36.3,0v-14.2c-16.5-0.6-28.5-0.3-35.8,0.9
	c0,2.1-0.2,4.6-0.5,7.4h33.5c1.5,0,2.3,0.8,2.3,2.3c0,1.5-0.8,2.3-2.3,2.3h-33.5V304.5z M3227.1,316l16.5,1.4
	c8.9,0.9,15.5,1.4,19.8,1.4v-9.7c-19.3,0.3-31.4,0.3-36.3,0V316z M3227.5,418c0,0.9-0.2,2.1-0.5,3.7h36.8V418H3227.5z M3227.5,274.2
	h35.4v-6.4h-35.4V274.2z M3227.5,286.6c7.4-1.2,19.3-1.5,35.8-0.9l-0.5-6.9h-35.4V286.6z M3227.5,413.5h36.3v-11
	c-17.5,3.4-29.6,5.1-36.3,5.1v0.9V413.5z M3266.1,99.1c0.3-2.1,0.6-4.1,0.9-6c-11.9-2.1-24.5-3.4-37.7-3.7c0.3,1.8,0.5,4,0.5,6.4
	C3239.9,95.6,3252,96.7,3266.1,99.1z M3262.9,189.7v-6.4c-20.5,0.6-31.6,0.9-33.1,0.9v7.8c4.9-0.9,11-1.5,18.4-1.8
	c1.2,0,3.5-0.1,6.9-0.2C3258.5,189.7,3261.1,189.7,3262.9,189.7z M3262.9,200.7v-6.4c-1.8,0-4.4,0.1-7.8,0.2
	c-3.4,0.2-5.7,0.2-6.9,0.2c-7.4,0.3-13.5,0.9-18.4,1.8v7.4C3238.4,203.6,3249.4,202.5,3262.9,200.7z M3262.9,209.4v-4.1
	c-13.2,1.8-24.2,2.9-33.1,3.2v0.9H3262.9z M3262.9,214h-33.1c0.3,1.8,0.5,3.5,0.5,5.1c3.4,0.3,14.2,0.3,32.6,0V214z M3265.2,108.3
	c0-1.5,0.2-3.1,0.5-4.6c-14.1-2.4-25.9-3.5-35.4-3.2c0.3,2.5,0.5,5.1,0.5,7.8H3265.2z M3262.9,168.1v-1.8c-15.3,0-26.2,0.2-32.6,0.5
	v2.8C3240.1,168.5,3250.9,168.1,3262.9,168.1z M3262.9,178.6v-6c-11.9,0-22.8,0.5-32.6,1.4v5.5
	C3230.9,179.5,3241.8,179.2,3262.9,178.6z M3264.3,115.7l0.5-2.8h-34c0.3,0.9,0.5,1.8,0.5,2.8c4.3-0.3,9.3-0.5,15.2-0.5
	c2.1,0,5.2,0.1,9.2,0.2C3259.5,115.6,3262.4,115.7,3264.3,115.7z M3262.9,151.5v-5.1c-13.8,0-24.5,0.5-32.2,1.4v6v0.5
	C3239.9,152.7,3250.6,151.8,3262.9,151.5z M3262.9,161.6v-5.5c-12.6,0.3-23.3,1.2-32.2,2.8v3.2
	C3236.9,161.8,3247.6,161.6,3262.9,161.6z M3263.8,123.5l0.5-3.2c-1.8,0-4.8-0.1-8.7-0.2c-4-0.2-7.1-0.2-9.2-0.2
	c-5.8,0-10.9,0.2-15.2,0.5v3.7c4-0.9,9-1.4,15.2-1.4c3.1,0,7.4,0.2,12.9,0.5C3261.7,123,3263.2,123.2,3263.8,123.5z M3263.4,136.4
	c0-3.1,0.2-5.8,0.5-8.3c-0.9-0.3-2.6-0.5-5.1-0.5c-5.5-0.3-9.6-0.5-12.4-0.5c-6.1,0-11.2,0.6-15.2,1.8v7.8c4-0.9,8.7-1.2,14.2-0.9
	c2.1,0,5.4,0.1,9.7,0.2C3259.4,136.3,3262.1,136.4,3263.4,136.4z M3262.9,141.9v-0.9c-0.9,0-3.5-0.1-7.8-0.2
	c-4.3-0.2-7.5-0.2-9.7-0.2c-5.8-0.3-10.6,0-14.2,0.9v1.8C3238.8,142.3,3249.4,141.9,3262.9,141.9z"/>
<path d="M3357.1,185.1c1.5,1.8,2.3,3.8,2.3,6c0,83.3-1.1,162.7-3.2,238c0,2.5-0.9,4.5-2.8,6.2c-1.8,1.7-4.1,2.5-6.9,2.5h-0.9h-0.5
	c-3.1,0.3-6.1,0.7-9,1.1c-2.9,0.5-5.1,0.8-6.4,0.9c-1.4,0.2-2.5,0.3-3.4,0.5c-0.9,0.2-2,0.2-3.2,0.2h-2.8h-5.5h-7.8
	c-1.5,0-3.1-0.5-4.6-1.4c-4.3-0.9-6.6-3.5-6.9-7.8c-1.8-19.3-2.9-39.1-3.2-59.3c-0.3-20.2,0.2-40.9,1.6-62
	c1.4-21.1,2.9-40.4,4.6-57.7c1.7-17.3,3.9-37.3,6.7-60c0.3-1.8,1.1-3.5,2.3-5.1c0.9-4.6,3.7-6.9,8.3-6.9l32.6-0.9
	C3352.6,179.5,3355.6,181.4,3357.1,185.1z M3339.6,342.2l0.5-11.5c-12.3,8.3-22.1,15.9-29.4,23v18.4
	C3315.6,366.3,3325.2,356.3,3339.6,342.2z M3340.1,305c0.3-4,0.5-8,0.5-11.9c-2.5,1.5-5.1,3.5-7.8,6c-2.8,2.5-5.1,4.6-6.9,6.4
	l-7.4,7.4c-3.1,3.1-5.2,5.4-6.4,6.9l-0.9,13.3C3321.9,321.4,3331.5,312.1,3340.1,305z M3340.1,325.2v-13.8
	c-8.3,7.1-17.9,16.5-29,28.5v7.4C3318.5,340.8,3328.1,333.5,3340.1,325.2z M3339.2,364.3c0.3-5.2,0.5-10.4,0.5-15.6
	c-12.9,12.6-21.9,22.1-27.1,28.5c-0.3,0.6-0.8,0.9-1.4,0.9v11.5C3318.8,381.3,3328.1,372.9,3339.2,364.3z M3313.9,110.2l-2.3,2.8
	l0.5,0.5C3312.7,112.2,3313.3,111.1,3313.9,110.2z M3338.7,384.5l0.5-14.2c-11,8.6-20.2,17.2-27.6,25.7l0.9,18.8
	c1.8-2.1,6.3-7,13.3-14.7C3331.7,393.7,3336,388.5,3338.7,384.5z M3340.5,287.5v-14.7c-8.6,6.4-17.8,14.7-27.6,24.8l-0.9,15.2
	C3324.9,299.6,3334.4,291.2,3340.5,287.5z M3338.7,402.4v-10.1l-9.7,11c-8.3,8.9-13.6,15-16.1,18.4v0.5h9.7
	C3328.4,414.2,3333.8,407.6,3338.7,402.4z M3340.5,267.3c0-4.3,0.2-8.7,0.5-13.3l-26.7,25.3c-0.3,3.7-0.5,7.4-0.5,11
	C3323.1,280.8,3332,273.1,3340.5,267.3z M3341,247.6v-12.4c-4.3,4-12.6,12.3-24.8,24.8l-0.9,12.4L3341,247.6z M3341,228.7v-9.6
	c-1.8,2.1-4,4.4-6.4,6.9c-1.2,1.5-3.1,3.5-5.5,6l-6.4,6c-1.8,1.8-3.4,3.7-4.6,5.5l-0.9,9.2C3327.5,241.9,3335.5,233.9,3341,228.7z
	 M3341,211.7v-12.9c-5.2,4.9-12.1,12.3-20.7,22.1l-1.4,14.7l12.4-12.9C3335.3,218.5,3338.6,214.8,3341,211.7z M3335,198.4l-11.9,0.5
	l-1.8,13.8C3326.5,206.8,3331,202.1,3335,198.4z M3338.3,409.8l-9.2,11.5l9.2-0.9V409.8z"/>
<path d="M3486.7,396.9c0.6,2.1,2.4,7.7,5.5,16.5c2.4,7.1,4.6,12.7,6.4,17c5.2,11.3,11,17.9,17.5,19.8c4.9,1.2,8.7,1.2,11.5,0
	c2.1-0.9,3.8-2.9,5.1-6c3.7-7.4,4.7-19.6,3.2-36.8c-1.2-12.9-3.8-28.6-7.8-47.3l-5.1-22.5c-23.6,8-49.6,7.7-78.1-0.9
	c-22.7-6.7-38.4-14.5-47.3-23.4c-12.6-11.9-20.3-26.4-23.2-43.4c-2.9-17-1.6-32.9,3.9-47.6c5.2-15.6,13.4-29.6,24.6-42
	c11.2-12.4,24.1-21.4,38.8-26.9c22.4-8,51.5-6.3,87.3,5.1v-17.5c0-2.4,0.9-4.6,2.8-6.4s4-2.8,6.4-2.8h0.5c1.5-0.6,3.2-0.9,5.1-0.9
	c5.2,0.6,13.2,1.2,24.1,1.8c10.9,0.6,19.1,1.2,24.6,1.8c4,0.3,6.6,2.5,7.8,6.4c3.1,2.1,4.4,5.1,4.1,8.7c-0.6,4.3-1.7,14.6-3.2,30.8
	l-3.2,34c-0.6,6.4-1.5,16.9-2.8,31.2c-1.2,14.4-2,26-2.3,34.7c-0.3,8.7-0.7,19.1-1.1,31c-0.5,11.9-0.5,23.1,0,33.5
	c0.5,10.4,1.3,20.5,2.5,30.3c0.3,2.1,1.2,9.3,2.8,21.6c1.5,11.9,2.6,21.8,3.2,29.4c2.1,24.5,1.2,42.4-2.8,53.8
	c-4.3,11.9-12.3,21.3-23.9,28c-11.6,6.7-24.7,10.9-39.1,12.4c-13.8,1.8-27.4,1.1-40.9-2.1c-13.5-3.2-24.2-8.8-32.2-16.8
	c-6.7-6.4-12.4-15-17-25.7c-4.6-10.7-7.6-19.6-9-26.7c-1.4-7.1-2.8-16.5-4.4-28.5c-2.1-1.2-3.5-2.9-4.1-5.1
	c-0.9-2.4-0.8-4.8,0.5-7.1c1.2-2.3,3.1-3.7,5.5-4.4c13.2-4,24.7-8.6,34.5-13.8c3.1-1.5,6.1-1.4,9.2,0.5
	C3481.5,390.3,3484.8,392.3,3486.7,396.9z M3425.1,255.8c-0.6-2.1-1.1-4.1-1.4-6c-10.1,0.3-20.8,0-32.2-0.9c-0.3,4-0.3,8,0,11.9
	C3406.3,258.1,3417.4,256.4,3425.1,255.8z M3423.7,239.3c-4,0-10-0.6-17.9-1.8c-5.5-0.9-9.7-1.5-12.4-1.8c-0.6,3.1-1.1,6-1.4,8.7
	c11,0.9,21.4,1.2,31.2,0.9C3423.3,243.1,3423.4,241.1,3423.7,239.3z M3393.8,273.3c15-7,25.9-11.3,32.6-12.9c-7.7,0.3-19,2-34,5.1
	C3392.8,268.2,3393.2,270.8,3393.8,273.3z M3424.6,234.7c0.3-1.5,0.8-2.9,1.4-4.1c-8.9-2.1-18.2-4.9-28-8.3
	c-0.9,1.8-1.7,3.7-2.3,5.5l-0.9,3.7c2.8,0,6.7,0.5,11.9,1.4c7.7,1.2,13.5,1.8,17.5,1.8H3424.6z M3432,268.7
	c-1.2-1.2-2.3-2.6-3.2-4.1c-6.7,1.5-17.9,5.8-33.5,12.9c1.5,4.3,3.5,8.3,6,11.9c2.1-1.2,7.7-4.9,16.5-11L3432,268.7z M3428.3,226.4
	c0.9-1.8,2-3.5,3.2-5.1c-12.3-3.4-21.9-6.6-29-9.6c-0.9,2.1-1.8,4.1-2.8,6C3409.6,221.4,3419.1,224.3,3428.3,226.4z M3437.5,274.7
	c-0.9-0.6-1.7-1.4-2.3-2.3c-4,2.1-9,5.4-15.2,9.7c-7.7,5.5-13,9.2-16.1,11c1.8,2.5,4,4.9,6.4,7.4l0.9,0.9c3.1-2.8,7.4-7,12.9-12.9
	L3437.5,274.7z M3434.7,217.2c1.8-1.8,3.8-3.5,6-5.1c-11.9-8.3-21.3-13.3-28-15.2c-2.8,3.4-5.4,7.1-7.8,11
	C3411.6,210.8,3421.6,213.9,3434.7,217.2z M3441.6,277.9l-0.5-0.5l-13.8,14.2c-4.9,5.5-9,9.7-12.4,12.4c2.8,1.8,5.8,3.7,9.2,5.5
	c1.5-2.4,4.4-8.1,8.7-17C3436.3,286.2,3439.2,281.3,3441.6,277.9z M3444.9,209.4c0.9-0.3,1.8-0.8,2.8-1.4
	c-10.4-9.2-19-16.2-25.7-21.1c-2.1,1.8-4.1,4-6,6.4C3422.6,195.2,3432.3,200.5,3444.9,209.4z M3452.2,206.2l4.6-1.8l-2.8-4.1
	l-6.4-10.1c-4-6.1-7.7-10.7-11-13.8c-4,2.1-7.7,4.6-11,7.4C3432.3,188.9,3441.2,196.4,3452.2,206.2z M3454.5,284.3
	c-3.1-0.9-6-2.1-8.7-3.7c-2.8,3.1-5.7,7.7-8.7,13.8c-4.3,8.9-7.2,14.6-8.7,17c2.4,1.2,5.4,2.5,8.7,3.7c2.4-3.7,5.4-8.7,8.7-15.2
	C3449.8,292.6,3452.7,287.4,3454.5,284.3z M3458.6,198.8l-10.1-28h-0.5c-2.5,0.9-4.9,2-7.4,3.2c3.4,3.1,6.9,7.7,10.6,13.8l6.4,9.6
	L3458.6,198.8z M3520.2,224.1c-7.4-4-18.4-6-33.1-6c-18.4,0-31.6,4.1-39.5,12.4c-6.1,6.4-7.7,13.3-4.6,20.7c1.2,3.7,3.7,7,7.4,9.9
	c3.7,2.9,8.5,5.3,14.5,7.1c6,1.8,13.7,2.2,23.2,1.1c9.5-1.1,19.8-3.9,30.8-8.5c1.2-0.6,2.4-0.9,3.7-0.9c0-4-0.1-9.9-0.2-17.7
	c-0.2-7.8-0.2-13.6-0.2-17.2L3520.2,224.1z M3467.4,287.5c-3.1-0.3-5.8-0.9-8.3-1.8c-2.1,3.1-5.2,8.6-9.2,16.5
	c-3.4,6.1-6.1,10.9-8.3,14.2l8.7,2.8h0.9c1.5-4.3,4-9.5,7.4-15.6C3464.2,293.2,3467.1,287.8,3467.4,287.5z M3472.4,411.6l-0.9-2.8
	c-7.1,3.7-14.6,6.9-22.5,9.7l0.9,5.5h0.5l6.4-3.2l8.3-4.1C3468.1,414.8,3470.6,413.1,3472.4,411.6z M3473.8,416.2
	c-1.8,1.5-4,3.1-6.4,4.6l-8.7,4.1c-3.7,1.5-5.8,2.5-6.4,2.8c-0.6,0.3-1.2,0.5-1.8,0.5c0.6,3.4,1.2,6.4,1.8,9.2
	c13.2-10.1,20.8-15.9,23-17.5l-0.5-0.9L3473.8,416.2z M3464.6,202.1c0.9-0.3,1.7-0.5,2.3-0.5c-2.5-10.1-4.9-21.3-7.4-33.5
	c-2.5,0.3-4.8,0.8-6.9,1.4C3456,177.4,3460,188.3,3464.6,202.1z M3480.2,434.1l-3.7-9.7c-2.5,1.5-4.9,3.2-7.4,5.1l-8.7,6.9l-7.4,6
	c0.3,2.1,0.8,4.3,1.4,6.4C3461.9,443.9,3470.4,439,3480.2,434.1z M3475.2,288h-3.2c-0.6,1.2-3.7,7.1-9.2,17.5
	c-3.1,6.1-5.5,11.2-7.4,15.2c3.7,0.9,7.5,1.7,11.5,2.3c0.6-2.4,1.5-6.3,2.5-11.5c1.1-5.2,1.8-8.4,2.1-9.7
	C3472.7,296.3,3474,291.7,3475.2,288z M3483.9,441.5l-1.8-3.2c-9.8,5.2-18.5,10.3-26.2,15.2c0.9,4,2,7.7,3.2,11
	C3471,452.2,3479.3,444.5,3483.9,441.5z M3488.5,449.8c-0.9-1.5-1.8-2.9-2.8-4.1c-2.8,1.8-5.4,3.9-7.8,6.2
	c-2.5,2.3-5.7,5.7-9.9,10.1c-4.1,4.4-6.4,7-6.7,7.6c1.2,2.8,2.6,5.4,4.1,7.8c0-0.3,3-4.1,9-11.5S3485.1,453.1,3488.5,449.8z
	 M3471.5,200.7c1.8-0.3,3.8-0.5,6-0.5c-1.5-11-2.5-22.1-2.8-33.1c-3.7,0-7.2,0.2-10.6,0.5C3466.6,179.5,3469.1,190.6,3471.5,200.7z
	 M3493.6,456.2c-0.9-0.9-1.7-1.8-2.3-2.8c-3.4,3.1-7.7,8-12.9,14.9c-5.2,6.9-8.7,11.3-10.6,13.1c1.8,2.4,3.8,4.7,6,6.9
	C3475.9,484.7,3482.5,474,3493.6,456.2z M3484.4,288c-1.5,0-3.1,0.2-4.6,0.5c-1.2,3.7-2.5,8.6-3.7,14.7c-0.3,0.9-1.1,3.8-2.3,8.7
	l-2.3,11.9c1.8,0,3.7,0.2,5.5,0.5C3480.7,314.2,3483.1,302.1,3484.4,288z M3503.2,464.5c-2.1-1.5-4.3-3.2-6.4-5.1
	c-10.4,16.8-16.9,27.6-19.3,32.2c3.4,2.4,7.5,4.6,12.4,6.4l6.9-17C3499.8,473.6,3502,468.1,3503.2,464.5z M3487.6,199.8
	c-0.3-3.1-0.3-8.3,0-15.6c0-7-0.3-12.4-0.9-16.1l-7.4-0.9c0.3,10.7,1.2,21.6,2.8,32.6h5.1H3487.6z M3494,287.1
	c-1.5,0.3-3.2,0.5-5.1,0.5c-1.2,14.4-3.7,26.8-7.4,37.2h6.9C3491,306.4,3492.8,293.8,3494,287.1z M3492.2,199.8h1.4V169l-2.3-0.5
	c0.6,3.7,0.9,8.9,0.9,15.6C3491.9,191.5,3491.9,196.7,3492.2,199.8z M3503.7,285.2l-4.6,0.9c-1.5,7.4-3.5,20.2-6,38.6l7.4-0.9
	C3502.6,314.7,3503.7,301.8,3503.7,285.2z M3510.1,467.7c-0.9-0.3-1.8-0.8-2.8-1.4l-6,16.5l-6.9,16.5c4,1.2,8.3,2.1,12.9,2.8
	c0.9-4,1.5-9.8,1.8-17.5C3509.2,476.7,3509.5,471,3510.1,467.7z M3498.2,199.8c1.2,0.3,2.4,0.5,3.7,0.5c1.8-11.9,2.3-21.7,1.4-29.4
	c-1.8-0.6-3.5-1.1-5.1-1.4V199.8z M3512.9,282.5c-1.5,0.6-3.1,1.1-4.6,1.4c0,16.9-0.9,30-2.8,39.5l7.4-1.8
	C3513.5,300.7,3513.5,287.7,3512.9,282.5z M3506.4,200.7c2.1,0.3,4.1,0.6,6,0.9c-0.3-14.1,0.5-23.4,2.3-28c-2.1-0.6-4.4-1.2-6.9-1.8
	C3508.7,179.7,3508.3,189.4,3506.4,200.7z M3516.5,469.1c-0.6-0.3-1.2-0.5-1.8-0.5c-0.6,3.1-1,8.4-1.1,16.1
	c-0.2,7.7-0.7,13.6-1.6,17.9c4.9,0.6,9.8,0.8,14.7,0.5C3520.5,486.8,3517.2,475.5,3516.5,469.1z M3519.3,203.9v-29
	c-0.9,1.8-1.5,4.1-1.8,6.7c-0.3,2.6-0.5,4.7-0.7,6.2c-0.2,1.5-0.2,4.2,0,8c0.2,3.8,0.2,6.2,0.2,7.1
	C3517.9,203.3,3518.7,203.6,3519.3,203.9z M3523,284.3v-5.5c-1.8,0.9-3.8,1.7-6,2.3c0.9,6.4,1.1,19.5,0.5,39.1l5.5-1.8v-17.5
	c-1.2-0.6-1.7-1.5-1.4-2.8c0-0.6,0.5-1.2,1.4-1.8v-9.2c-0.3-0.6-0.5-1.2-0.5-1.8C3522.5,284.9,3522.7,284.6,3523,284.3z
	 M3521.1,469.5c0.6,5.5,4,16.5,10.1,33.1h0.9c4.3-0.6,8.4-1.4,12.4-2.3l-18.4-30.8H3521.1z M3523.9,205.7l3.7,1.8
	c0-4.9-0.2-11.2-0.5-18.8v-11.5l-3.2-0.9V205.7z M3527.6,283.9c5.8,1.5,13.6,2.3,23.4,2.3c1.2,0,5.1-0.1,11.5-0.2
	c6.4-0.2,10.3-0.1,11.5,0.2c0-2.1,0.2-4.1,0.5-6c-4.9,0-11.9-0.5-21.1-1.4c-11.3-0.6-19.8-0.9-25.3-0.9h-0.5V283.9z M3527.6,296.7
	c4.9,0.6,20.2,0.8,46,0.5c0-2.1,0.2-4.3,0.5-6.4c-1.2-0.3-5.1-0.4-11.5-0.2c-6.4,0.2-10.3,0.2-11.5,0.2c-9.8,0-17.6-0.6-23.4-1.8
	V296.7z M3527.6,307.3c3.4-0.6,7.2-1.1,11.5-1.4c4.3-0.3,8-0.4,11-0.2c3.1,0.2,7.1,0.3,12.2,0.5c5.1,0.2,8.8,0.2,11.3,0.2v-4.6
	c-25.4,0.3-40.7,0.2-46-0.5V307.3z M3527.6,311.9v5.1h1.4c3.1-0.3,5.7,0.8,7.8,3.2h36.3V311c-2.5,0-6.1-0.1-11-0.2
	c-4.9-0.2-8.9-0.3-11.9-0.5c-3.1-0.2-6.7-0.1-10.8,0.2c-4.1,0.3-7.9,0.8-11.3,1.4H3527.6z M3533.5,467.7c-0.9,0.3-1.7,0.6-2.3,0.9
	l17.9,30.3c3.7-1.2,7-2.6,10.1-4.1c-1.5-1.5-3.7-3.8-6.4-6.9l-6.4-7.4c-1.5-1.8-3.5-4-6-6.4C3538,471.7,3535.7,469.5,3533.5,467.7z
	 M3531.7,179.1h0.9l-0.9-0.5V179.1z M3532.2,191c12.9,3.7,28.5,5.5,46.9,5.5c0.9,0,1.5,0.3,1.8,0.9l0.9-6.9
	c-15.9-0.3-32.6-2.6-50.1-6.9v4.6L3532.2,191z M3534.9,203.9c5.5,2.5,13,3.7,22.5,3.7c2.8,0,6.7-0.2,11.7-0.5
	c5.1-0.3,8.7-0.5,10.8-0.5l0.5-6c-0.3,0.3-0.8,0.5-1.4,0.5c-18.4,0-34-1.8-46.9-5.5v9.2C3533.1,203.9,3534,203.6,3534.9,203.9z
	 M3535.8,180c16.2,3.7,31.7,5.7,46.4,6l0.5-8.3h-0.9c-13.2-1.5-25.6-2.3-37.2-2.3c-0.3,0.3-0.6,0.8-0.9,1.4
	C3541.5,178.9,3538.9,180,3535.8,180z M3537.7,273.3l15.6,1.4c9.5,0.6,16.5,0.9,21.1,0.9c0.3-2.8,0.5-5.5,0.5-8.3
	c-3.7,0-9.3-0.2-17-0.7c-7.7-0.5-13.3-0.7-17-0.7v0.5C3540.9,269.2,3539.8,271.5,3537.7,273.3z M3538.1,209.9c1.5,1.8,2.3,4,2.3,6.4
	v3.2c12.9,0,25.3,0.5,37.2,1.4h0.9l0.9-9.7c-1.8,0-5.3,0.2-10.3,0.5c-5.1,0.3-8.8,0.5-11.3,0.5
	C3549.9,212.2,3543.3,211.4,3538.1,209.9z M3539.1,464.9l-0.9,0.9c2.8,2.1,5.5,4.7,8.3,7.8l9.2,10.6c4,4.3,6.6,7,7.8,8.3
	c3.4-2.1,6.4-4.4,9.2-6.9l-10.6-6.4l-12.9-7.4C3545.5,469.7,3542.1,467.4,3539.1,464.9z M3540.9,334h32.2v-9.2
	c-0.6,0-6.3-0.1-17-0.2c-10.7-0.2-16.4-0.1-17,0.2L3540.9,334z M3540.4,228.7h37.7v-3.2h-0.5c-11.9-0.9-24.4-1.4-37.2-1.4V228.7z
	 M3540.4,236.1l14.7,1.4c9.8,0.9,16.8,1.4,21.1,1.4h0.9l0.5-5.5h-37.2V236.1z M3540.9,244.3c15,2.8,26.8,4.3,35.4,4.6l0.5-5.5h-0.5
	c-4.9,0-12.1-0.5-21.6-1.4l-14.2-1.4L3540.9,244.3z M3540.9,261.3c3.7,0,9.3,0.2,17,0.7c7.7,0.5,13.5,0.7,17.5,0.7
	c0-3.1,0.2-6.1,0.5-9.2c-8.6-0.3-20.2-1.8-34.9-4.6V261.3z M3544.1,346.8c13.2,0.3,23,0,29.4-0.9v-7.4h-31.2L3544.1,346.8z
	 M3544.6,459.9c-0.6,0.9-1.2,1.7-1.8,2.3c4,2.8,10,6.4,18.2,11c8.1,4.6,12.9,7.5,14.5,8.7c2.1-2.5,3.7-5.2,4.6-8.3
	c0.3-0.9,0.6-2.1,0.9-3.7c-0.3,0.3-0.8,0.5-1.4,0.5C3567.9,467.7,3556.2,464.1,3544.6,459.9z M3546.9,359.2
	c7.7-0.9,16.8-1.5,27.6-1.8c-0.3-2.1-0.5-4.4-0.5-6.9c-6.7,0.9-16.4,1.2-29,0.9l0.9,5.1L3546.9,359.2z M3546.9,170.8
	c11,0.3,23,1.1,35.8,2.3c0.3,0,0.5,0.2,0.5,0.5l0.9-6.9h-37.2v3.2V170.8z M3547.3,152.9c13.8,0,24-0.3,30.8-0.9
	c-1.8-0.3-6.4-0.7-13.8-1.1c-7.4-0.5-13-0.8-17-1.1V152.9z M3547.3,162.1h36.8h0.5l0.5-6.4c-8,1.2-20.5,1.8-37.7,1.8V162.1z
	 M3547.3,456.2c11.3,4,22.4,7.2,33.1,9.7c0.6,0.3,1.1,0.6,1.4,0.9c0.3-2.5,0.6-5.1,0.9-7.8c-18.1-3.4-29.1-5.8-33.1-7.4v0.5
	C3549,453.6,3548.3,455,3547.3,456.2z M3549.2,370.3c13.2,0,21.9-0.2,26.2-0.5c-0.3-2.4-0.6-5.1-0.9-7.8c-10.1,0.3-19,0.8-26.7,1.4
	L3549.2,370.3z M3551.5,379c6.4,2.1,14.7,2.9,24.8,2.3c0-1.5-0.2-2.9-0.5-4.1l-0.5-2.8c-4.6,0.6-13.2,0.8-25.7,0.5l0.9,4.1H3551.5z
	 M3552.4,391.9h25.3l-0.9-6c-10.1,0.6-18.5,0-25.3-1.8C3551.8,386.8,3552.1,389.4,3552.4,391.9z M3551.5,447.5
	c3.7,1.2,14.1,3.5,31.2,6.9c0.3-2.5,0.3-5.1,0-7.8c-9.2-2.5-19-4.8-29.4-6.9C3552.7,442.4,3552.1,445,3551.5,447.5z M3553.8,401
	h25.3l-0.9-4.6h-24.8C3553.3,398,3553.5,399.5,3553.8,401z M3554.7,413.9c3.7,0.6,8.3,0.9,13.8,0.9c1.2,0,3.2-0.1,6-0.2
	c2.8-0.2,4.7-0.2,6-0.2c-0.3-2.8-0.6-5.7-0.9-8.7h-25.3v0.5C3554.2,408.9,3554.4,411.5,3554.7,413.9z M3554.2,435
	c10.1,2.1,19.6,4.4,28.5,6.9c0-3.4-0.2-6.9-0.5-10.6h-13.3c-6.4,0.3-11.3,0.3-14.7,0V435z M3554.7,426.8c3.1,0.3,7.8,0.3,14.2,0
	h12.9c-0.3-2.4-0.6-5.1-0.9-7.8c-1.2,0-3.3,0.1-6.2,0.2c-2.9,0.2-5,0.2-6.2,0.2c-5.5,0-10.1-0.3-13.8-0.9V426.8z"/>
<path d="M3759.2,362.4c-13.8-2.1-27.9-7.4-42.3-15.6c-4.3-2.4-5.7-6-4.1-10.6c-0.6-1.2-0.9-2.6-0.9-4.1c0-2.4,0.2-5.2,0.7-8.3
	c0.5-3.1,1.2-6.4,2.3-10.1c1.1-3.7,2-7,2.8-10.1c0.8-3.1,2.1-6.9,3.9-11.5l3.7-11l5.1-12.4l4.6-11.5c0.9-2.4,2.6-6.6,5.1-12.4
	c2.4-5.8,4.1-9.7,5.1-11.5c8.9-22.1,15-38.4,18.4-49.2c4-13.8,5.2-22.7,3.7-26.7l-0.5-0.5c-0.6-0.3-1.8-0.9-3.4-1.8
	c-1.7-0.9-3.9-1.8-6.7-2.8c-7.4-2.4-16.4-4.3-27.1-5.5c-10.4-1.5-19.6-2-27.6-1.4c-3.7,0.3-6.6,0.8-8.7,1.4v1.4
	c0.6,3.4,1.8,7.8,3.7,13.3c3.4,9.5,6.6,17,9.6,22.5c0.9,1.8,1.2,3.8,0.9,6v0.5c0.9,2.5,0.8,4.8-0.2,7.1c-1.1,2.3-2.8,3.9-5.3,4.8
	c-25.7,9.2-43,15-51.9,17.5c-3.1,0.9-6,0.3-8.7-1.8h-1.8c-2.5,0-4.6-0.9-6.4-2.8s-2.8-4-2.8-6.4c0-5.2-0.8-13.5-2.3-24.8l-3.7-23.4
	c-2.1-23.3,1.1-41.2,9.7-53.8c7.7-11.3,19.2-19.4,34.7-24.1c15.5-4.7,32.5-7,51.2-6.7c17.2,0.6,33.8,3.1,50.1,7.4
	c16.2,4.3,29.3,10,39.1,17c7.4,5.2,13.5,12.6,18.4,22.1c4.9,9.5,8.3,18.8,10.1,28c4.3,23-3.7,58.2-23.9,105.7
	c-1.8,4.3-10.1,22.4-24.8,54.2c-9.2,19.9-15.5,34.3-18.8,43.2v0.9c-0.3,2.5-1.5,4.4-3.7,6C3763.9,362.1,3761.6,362.8,3759.2,362.4z
	 M3642,151.5c1.2,0,6.6-0.2,16.1-0.7c9.5-0.5,15-0.4,16.5,0.2c-0.3-2.4-0.5-4.6-0.5-6.4v-1.8l-15.2-4.6c-6.7-2.1-12.3-3.7-16.5-4.6
	C3641.8,138.5,3641.7,144.5,3642,151.5z M3644.3,172.2c6.4-2.1,17.9-4.6,34.5-7.4c-1.2-3.4-2.1-6.4-2.8-9.2
	c-0.9-0.6-6.5-0.7-16.8-0.2c-10.3,0.5-15.9,0.7-16.8,0.7v2.8C3642.8,162.2,3643.4,166.7,3644.3,172.2z M3677.4,130.4
	c-7.7-6.7-14.6-13.9-20.7-21.6c-3.4,2.5-6.1,5.2-8.3,8.3c-2.1,3.4-3.8,7.4-5.1,11.9c4.3,0.9,10,2.5,17,4.6l15.2,4.6
	c0.3-0.9,0.8-1.7,1.4-2.3l0.5-0.5c-13.2-6.1-22.5-10.1-28-11.9c-1.5-0.6-2.1-1.6-1.6-3c0.5-1.4,1.3-1.9,2.5-1.6
	C3656.7,120.7,3665.7,124.6,3677.4,130.4z M3645.2,176.8l1.4,9.7l17.9-4.6c8-1.8,14.2-3.4,18.8-4.6c-1.2-2.8-2.3-5.4-3.2-7.8
	C3663,172.2,3651.3,174.7,3645.2,176.8z M3647,191c0.6,4,0.9,7.5,0.9,10.6c8.9-2.8,22.1-7.4,39.5-13.8l-2.8-6.4
	c-4.3,1.5-10.7,3.2-19.3,5.1L3647,191z M3669.6,101.9c-3.4,1.2-6.3,2.8-8.7,4.6c7.4,8.9,15.3,16.9,23.9,23.9c0.9-0.3,2-0.8,3.2-1.4
	h0.5c-1.5-2.8-3.8-6.1-6.9-10.1c-6.1-8.3-10-13.6-11.5-16.1C3669.7,102.5,3669.6,102.2,3669.6,101.9z M3673.7,100.5l11.5,15.6
	c3.4,4.9,6,8.9,7.8,11.9h0.9c-0.6-0.3-1.1-0.9-1.4-1.8c-2.5-11.3-5.1-21-7.8-29C3680.7,98.2,3677.1,99.3,3673.7,100.5z M3706.3,95
	c-5.8,0-11.5,0.5-17,1.4c2.8,8,5.4,17.6,7.8,29c0.3,0.9,0,1.7-0.9,2.3c1.5,0,3.1-0.2,4.6-0.5h7.8
	C3707.4,116.4,3706.6,105.7,3706.3,95z M3710.9,94.5c0.3,11,1.1,21.9,2.3,32.6h4.6c0-11.6,0.3-22.5,0.9-32.6H3710.9z M3729.3,95h-6
	c-0.6,9.8-0.9,20.7-0.9,32.6c2.1,0.3,4.4,0.5,6.9,0.5C3729.6,111.5,3729.6,100.5,3729.3,95z M3755,340.4
	c-2.5-0.9-10.6-4.9-24.4-11.9c-0.3,1.5-0.5,3.1-0.5,4.6v0.5c8.3,4.3,16.2,7.4,23.9,9.2L3755,340.4z M3760.1,329.4
	c-11-2.1-20.1-6.3-27.1-12.4c-0.6,2.5-1.1,4.8-1.4,6.9l0.5,0.5c14.4,7.1,22.7,11,24.8,11.9L3760.1,329.4z M3745.4,97.3l-11.5-1.8
	V129c3.4,0.3,6.6,0.8,9.7,1.4C3743.5,121.5,3744.2,110.5,3745.4,97.3z M3763.8,320.6c-11.6-3.7-21-8.3-28-13.8l-1.4,5.1
	c6.7,6.4,15.9,10.7,27.6,12.9L3763.8,320.6z M3769.3,308.7c-7.1-2.1-16.7-7.4-29-15.6l-2.8,9.2c6.7,5.8,16.1,10.4,28,13.8
	L3769.3,308.7z M3773.4,299.9c-13.8-5.5-23.4-11.3-29-17.5l-2.3,6.4c12.6,8.3,22.2,13.5,29,15.6l0.9-1.8L3773.4,299.9z
	 M3780.8,284.3h-0.5c-2.1,0-4.3-0.2-6.4-0.7c-2.1-0.5-4.6-1.3-7.4-2.5l-5.5-2.3c-1.2-0.6-3.5-1.8-6.9-3.7l-5.1-3.2l-2.3,5.5
	c4.6,6.4,14.1,12.6,28.5,18.4L3780.8,284.3z M3761,100.1c-3.7-0.9-7.4-1.7-11-2.3c-1.2,13.5-1.8,24.7-1.8,33.5l3.2,0.9
	C3754.4,122.7,3757.6,112,3761,100.1z M3784.9,275.1c-10.1-6.1-20.7-10.7-31.7-13.8l-2.8,6c1.2,0.6,3.2,1.8,6,3.4
	c2.8,1.7,4.9,2.8,6.4,3.4l5.5,2.8c2.1,0.9,4.2,1.6,6.2,2.1c2,0.5,3.9,0.7,5.7,0.7c0.9,0,1.5,0.3,1.8,0.9L3784.9,275.1z M3786.7,271
	l0.5-1.4l-12.9-6.9c-9.5-4.9-15.5-8-17.9-9.2l-1.8,3.7C3765.9,260.3,3776.6,264.9,3786.7,271z M3761.9,132.7
	c1.8-3.4,4.4-8.9,7.8-16.5c2.1-5.2,4-9.2,5.5-11.9l-9.7-2.8l-9.6,31.7c2.1,0.6,4.1,1.2,6,1.8
	C3761.3,134.4,3761.3,133.6,3761.9,132.7z M3791.8,260c-12.3-8-22.5-14.1-30.8-18.4l-3.2,7.8c4.6,1.8,10.7,4.9,18.4,9.2
	c6.1,3.1,10.6,5.4,13.3,6.9L3791.8,260z M3797.3,247.1c-3.1-1.5-8.4-4.4-16.1-8.7c-7.7-4.3-12.7-7-15.2-8.3l-3.2,7.4
	c8.6,4.3,18.8,10.4,30.8,18.4l2.8-6.9L3797.3,247.1z M3792.7,112c-4-2.1-8.4-4.1-13.3-6c-1.2,2.5-3.1,6.4-5.5,11.9
	c-3.4,8-6.1,13.5-8.3,16.5c-0.3,0.6-0.8,1.1-1.4,1.4c1.2,0.3,2.3,0.8,3.2,1.4c0.6-0.6,5.2-5.5,13.8-14.7
	C3785.5,118,3789.3,114.5,3792.7,112z M3800.5,239.3c-15.6-8.9-25.9-15-30.8-18.4l-2.3,5.1c3.7,1.5,9,4.3,16.1,8.3
	c7.7,4.3,12.9,7.1,15.6,8.3L3800.5,239.3z M3803.3,232.4c-4-3.1-9.7-6.6-17-10.6l-13.8-8.3l-1.4,2.8c5.2,3.7,15.6,10,31.2,18.8
	L3803.3,232.4z M3796.9,114.3c-3.7,2.5-7.8,6.3-12.4,11.5c-8,8.6-12.1,13-12.4,13.3c1.5,0.9,2.9,1.8,4.1,2.8
	c9.2-3.7,19.5-9.3,30.8-17c-2.8-4-5.8-7.2-9.2-9.7L3796.9,114.3z M3804.7,228.3c2.1-5.5,4.1-10.9,6-16.1c-4.3-1.2-15.2-6-32.6-14.2
	l-1.4,4.6c9.5,3.4,19.5,8.4,29.9,15.2c1.2,0.9,1.4,2,0.5,3.2c-0.9,1.2-2,1.4-3.2,0.5c-9.8-6.4-19.5-11.3-29-14.7l-0.9,2.8
	c1.8,0.9,4.6,2.5,8.3,4.6c3.7,2.1,5.8,3.4,6.4,3.7C3795.6,221.7,3801,225.2,3804.7,228.3z M3812,208c0.9-3.7,1.8-7,2.8-10.1
	c-11.6-5.8-22.5-9.3-32.6-10.6c-0.3,0-0.5-0.2-0.5-0.5l-0.9,2.3l-1.4,4.1C3797.5,201.9,3808.3,206.8,3812,208z M3813.4,136.4
	c-1.2-2.8-2.6-5.4-4.1-7.8c-10.4,7.4-20.1,12.9-29,16.5c0.3,0.3,0.5,0.6,0.5,0.9c0.3-0.6,0.8-0.9,1.4-0.9
	C3788.3,144.2,3798.7,141.3,3813.4,136.4z M3816.2,193.3c0.9-4.3,1.7-8.3,2.3-11.9c-4.6-0.9-11.1-2.5-19.5-4.8
	c-8.4-2.3-13.1-3.6-14-3.9c-0.6,3.1-1.4,6.4-2.3,10.1h0.5C3793.2,184,3804.2,187.5,3816.2,193.3z M3816.6,145.1
	c-0.3-1.5-0.8-3.1-1.4-4.6c-15,5.2-25.6,8.3-31.7,9.2v0.5h0.5C3797.2,147.7,3808,146,3816.6,145.1z M3818,149.7
	c-8.9,0.6-19.8,2.3-32.6,5.1c0,1.2,0.2,2.5,0.5,3.7c9.8-0.9,21.1-1.1,34-0.5l-0.9-3.7L3818,149.7z M3819.8,162.5
	c-12.9-0.6-24.2-0.5-34,0.5c0,1.5-0.2,3.2-0.5,5.1c2.1,0.3,7.2,1.6,15.2,3.9c8,2.3,14.1,3.9,18.4,4.8
	C3819.8,171.6,3820.1,166.8,3819.8,162.5z"/>
<polygon points="3356.8,99.1 3388,108.1 3362.2,128.5 3363.6,162.3 3337.1,142.9 3306.7,154.8 3316.2,122.4 3296,96 3328.4,95.4
	3346.2,67.1 "/>
<polygon class="st4" points="3753,412.6 3787.4,422.5 3758.9,445 3760.5,482.3 3731.3,460.9 3697.8,474 3708.2,438.4 3686,409.2
	3721.7,408.5 3741.4,377.4 "/>
<g>
	<g class="st0">
		<path d="M2514.7,178.1L2514.7,178.1C2514.4,178.7,2514.9,178.6,2514.7,178.1z"/>
		<path d="M2512.8,178.2"/>
		<path d="M2513.4,178.5"/>
		<path d="M2512.3,181.8c0,0,0.2-1-0.3-0.9s-0.8,0.7-1.4,0.4c-0.3-0.2-0.4-0.6-0.3-0.9c0,0,0,0,0,0c0,0-2.2,1.1-1.1,1.3
			c0.8,0.2,1.7,0.2,2.4-0.2c1,0.2,1.8-0.5,2.3-0.6c0.2-0.1,0.5,0.1,0.6,0.3c0,0,0,0,0,0l-0.7-0.8
			C2514,180.8,2512.9,182.1,2512.3,181.8z"/>
		<path d="M2518.2,180.1L2518.2,180.1c-0.3-0.5-1-0.8-1.6-0.5l0.1,0.5c0.2-0.1,0.4-0.3,0.3-0.6c0,0,0,0,0,0c0.1,0.5,0.7,0.8,1.3,1.1
			L2518.2,180.1z"/>
		<path d="M2510.8,178.2c-1-0.2-2.2-0.9-3.3-1.1c0,0-0.3,0.6-0.5,0.1l-0.1-0.5l-0.5,0.1l0,0l0.1,0.5l0.1,0.5l-0.1-0.5l-0.1-0.5
			l-0.5,0.1l0.5-0.1l0.5-0.1l-1-0.2l0,0c-0.5,0.1-0.5,0.1-0.6-0.3l0,0l-0.6-0.3l-0.9,0.3l-0.1-0.5l-0.3,0.6l0.3,0.9
			c0.1,0.5,0.8-0.7,0.6,0.3c0.2-1-0.3,0.6-0.6-0.3l-0.3-0.9c-0.1-0.5-0.6-0.3-0.7-0.8s0.6,0.3,0.7,0.8c0.2-0.1,0.4-0.3,0.3-0.6
			c0,0,0,0,0,0l0.1,0.5l0.9-0.3l-1.6-0.5c-3.4-1.5-6.6-2.6-10-4.1l-5.3-3c-3.5-2-6.9-2-10.4-5.5c-1.3-1.1-3.8-1.4-5.4-1.9
			c-2.2,1.1-2.7,6.2-2.7,6.2c0.1,3.9,1.5,2,3.3,5c-1-1.7,1.9-2,2.7,0.7c1.3,4.6,5,2.1,7.4,3.9c0.7,0.4,1.4,0.7,2.2,0.9
			c3.6,2.4,7.9,1.8,12.3,3.5c1.3,0.1,2.6-0.1,3.8-0.6c0.5-0.1,1.2,0.7,1.8,1c0.8,0.1,1.6,0.1,2.4-0.2c-0.8-0.2-1.6-0.1-2.4,0.2
			c-0.9,0.3,0.7-1.2,1.1-1.3s0.3,0.9,0.3,0.9l1.4-0.4c0.5-0.1-0.2,1,0.3,0.9s1.6-1.4,1.7-1l0.7,0.8c0.1,0.2,0.3,0.4,0.6,0.3
			c0,0,0,0,0,0l0.5-0.1c0-0.3,0-0.7,0.2-1c0.1,0.2,0.3,0.4,0.6,0.3c0,0,0,0,0,0c0.5-0.1-0.1-0.5-0.6-0.3c0.1,0.5-0.3,0.6-0.2,1
			l2.7-0.8l0,0C2511.2,179.5,2510.6,179.2,2510.8,178.2c-0.2,0.2-0.2,0.6-0.2,0.9l-0.1-0.5c0.5-0.1,0.9-0.3,1.2,0.7l0.5-0.1
			c0.1,0.3,0,0.7-0.2,1l0.5-0.1C2511.6,179.5,2511.4,178.6,2510.8,178.2z"/>
		<path d="M2506.1,177.1L2506.1,177.1l-0.6-0.3C2505.6,177.2,2505.6,177.2,2506.1,177.1z"/>
	</g>
	<g class="st0">
		<path d="M2559.7,132.4l-0.1-0.5L2559.7,132.4z"/>
		<path d="M2558.3,130.8"/>
		<path d="M2558.5,131.7"/>
		<path d="M2555.7,133.9c0,0,0.8-0.7,0.3-0.6s-1-0.2-1.6-0.5s0.2-1,0.2-1c-0.5,0.1-2.4,0.2-1.8,0.5l2.3,1.3c0.8,0.4,1.7,0.6,2.7,0.7
			l0.1,0.5l-0.3-0.9C2557.5,133.4,2556.3,134.3,2555.7,133.9z"/>
		<path d="M2562.5,135.5L2562.5,135.5c-0.3-0.9-0.7-0.8-1.3-1.1l-0.3,0.6l0.5-0.1c-0.3,0.6-0.2,1,0.5,1.8
			C2561.9,136.7,2562.1,135.6,2562.5,135.5z"/>
		<path d="M2556.1,129.9c-0.8-1-1.7-2-2.7-2.7l-0.5,0.1l-0.1-0.5l-0.1-0.5l0,0l-0.5,0.1l-0.3,0.6l0.3-0.6l-0.1-0.5
			c-0.1-0.2-0.3-0.4-0.6-0.3c0,0,0,0,0,0c0.2-0.1,0.5,0.1,0.6,0.3c0,0,0,0,0,0l0.5-0.1l0,0l-0.7-0.8l0,0c-0.5,0.1-0.6-0.3-0.3-0.9
			l0,0l-0.7-0.8l-0.9,0.3l0.3-0.6l-0.5,0.1l-0.2,1c-0.3,0.6,0.9-0.3,0.6,0.3c0.8-0.7-0.9,0.3-0.6-0.3l0.2-1
			c-0.5,0.1-0.6-0.3-0.3-0.9s0.6,0.3,0.3,0.9l0.5-0.1l-0.3,0.6l0.9-0.3l-1-1.7c-2.4-3.3-5-5.5-7.3-8.8c-1.3-1.7-2.5-3.5-3.5-5.4
			c-2-3.9-5.4-5.4-6.3-10.6c-1.1-1.8-2.5-3.5-4.3-4.7c-2.5-0.3-5.3,3.9-5.3,3.9c-2,3.5,0.3,2.9,0.3,6.3c-0.2-2.4,2.7-0.8,2.1,2.4
			c-1.2,4.7,3.3,5,4.6,7.6c0.7,0.8,0.8,1.3,1.5,2c2.2,4.3,6.6,6.1,9.5,9.7c0.7,0.8,2.2,0.9,3.4,1.5c1,0.2,0.8,1.3,1.5,2
			c0.7,0.6,1.5,1,2.3,1.3c-0.9-0.3-1.6-0.7-2.3-1.3c-0.7-0.8,1.4-0.4,1.8-0.5s-0.2,1-0.2,1c0.6,0.1,1.1,0.3,1.6,0.5
			c0.6,0.3-0.3,0.6-0.3,0.6s1.8-0.5,2,0l0.3,0.9l0.1,0.5l0.5-0.1c0.3-0.6,0.3-0.6,0.8-0.7l0.1,0.5l-0.1-0.5
			c-0.5,0.1-0.3,0.6-0.8,0.7l3.1,0.6l0,0c-0.6-0.3-0.7-0.8-0.5-1.8c0.1,0.5-0.3,0.6-0.5,0.1l0.3-0.6
			C2555.5,129.5,2555.9,129.4,2556.1,129.9L2556.1,129.9c0.1,0.4-0.3,0.5-0.2,0.9l0,0C2555.7,130.5,2556.2,130.4,2556.1,129.9z"/>
		<path d="M2552.5,126L2552.5,126l-0.7-0.8C2552.1,126.1,2552.1,126.1,2552.5,126z"/>
	</g>
	<g class="st0">
		<path d="M2623.9,101l-0.1-0.5l-0.5,0.1C2623.3,100.9,2623.6,101.1,2623.9,101C2623.8,101,2623.8,101,2623.9,101z"/>
		<path d="M2623.4,99.1C2622.9,99.3,2623,99.7,2623.4,99.1z"/>
		<path d="M2623.1,100.2"/>
		<path d="M2619.2,100.3l0.5-0.1c-0.5,0.1-0.7-0.8-0.8-1.3s0.8-0.7,0.8-0.7s-1.9-1.4-1.6-0.5C2617.8,98.6,2618.5,99.5,2619.2,100.3
			c0.3,0.6,0.8,1.2,1.4,1.6l0.1,0.5l0.2-1C2621.4,101.1,2619.5,101.2,2619.2,100.3z"/>
		<path d="M2623.9,104.9L2623.9,104.9c0.3-0.6-0.3-0.9-0.4-1.4l-0.5,0.1c0.1,0.5,0.6,0.3,0.5-0.1c-0.3,0.6-0.7,1.2-0.5,1.6
			S2623.6,105.4,2623.9,104.9z"/>
		<path d="M2621.9,97.5c-0.4-1.1-0.6-2.2-0.4-3.3c-0.2,0.1-0.5-0.1-0.6-0.3c0,0,0,0,0,0l0.5-0.1l-0.1-0.5l0,0l-0.5,0.1l-0.5,0.1
			l0.5-0.1l0.5-0.1l-0.1-0.5l0.1,0.5l0.1,0.5l0,0l-0.3-0.9l0,0c-0.1-0.5-0.1-0.5,0.3-0.6l0,0l-0.3-0.9l-0.6-0.3l0.5-0.1
			c-0.2,0.1-0.5-0.1-0.6-0.3c0,0,0,0,0,0l-0.8,0.7c-0.5,0.1,1,0.2,0.1,0.5c0.9-0.3-0.6-0.3-0.1-0.5l0.8-0.7c-0.1-0.5-0.1-0.5,0.2-1
			s0.1,0.5-0.2,1l0.6,0.3l-0.5,0.1l0.6,0.3v-2c-0.1-3.9-1-7.1-1.1-11c-0.2-2.2-0.1-4.3,0.2-6.4c0.4-4-1.6-7.4,0.2-11.8
			c0.3-1.9,0.1-3.9-0.6-5.7c-1.9-1.5-6.3,0.3-6.8,0.4c-3.4,1.9-1.3,2.3-3,5.3c1-1.8,2.7,0.7,0.3,2.9c-3.6,3,0.1,5.9-0.1,8.4
			c0.3,0.9-0.1,1.5,0.2,2.4c-0.7,4.6,1.8,8.4,2.6,13.1c0.3,1.2,1.1,2.3,2.3,2.8c0.3,0.9-0.1,1.5,0,2c0.2,1,0.6,1.9,1.2,2.6
			c-0.3-0.9-0.8-1.3-1.1-2.2s1.5,0.1,1.6,0.5c0.6,0.3-0.8,0.7-0.8,0.7c0.5-0.1,0.7,0.8,0.8,1.3c0.6,0.3-0.9,0.3-0.9,0.3
			s1.6,0.5,1.8,1l-0.2,1l0.1,0.5l0,0l2.3-0.6l-0.3,0.6l0.3-0.6l-0.9,0.3l2.1,2.4l0,0C2621.2,98.6,2621.4,97.9,2621.9,97.5l-0.4,0.1
			L2621.9,97.5c0.6,0.3,0.7,0.8-0.1,1.5l0.6,0.3l-0.9,0.3l0.1,0.5C2621.3,99.2,2621.4,98.3,2621.9,97.5z"/>
		<path d="M2621,92.4L2621,92.4l-0.3-0.9C2620.4,92.1,2620.9,91.9,2621,92.4z"/>
	</g>
	<g class="st0">
		<path d="M2689.5,112.4"/>
		<path d="M2689.9,110.4"/>
		<path d="M2689.5,110.9"/>
		<path d="M2686.2,109.4c0,0,1,0.2,0.5-0.1l-0.4-1.4c-0.1-0.5,0.9-0.3,0.9-0.3s-1.1-2.2-1-1.7s-0.5,1.6-0.3,2.5
			c0.3,0.9,0.4,1.9,0.3,2.9l-0.3,0.6l0.8-0.7C2687.1,111.1,2686.3,109.9,2686.2,109.4z"/>
		<path d="M2687,116.1L2687,116.1c0.5-0.3,0.8-1,0.5-1.6l-0.5,0.1c0.1,0.2,0.3,0.4,0.6,0.3c0,0,0,0,0,0c-0.5,0.1-1.3,0.8-1.1,1.3
			L2687,116.1z"/>
		<path d="M2690.3,108.3c0.7-1.2,0.9-2.2,1.5-3.4l-0.1-0.5l0.5-0.1l0.3-0.6l0,0l-0.6-0.3l-0.5,0.1l0.5-0.1l0.5-0.1
			c-0.1-0.2,0.1-0.5,0.3-0.6c0,0,0,0,0,0c0.1,0.2-0.1,0.5-0.3,0.6c0,0,0,0,0,0l0.1,0.5l0.7-1.2l-0.1-0.5c-0.1-0.5-0.1-0.5,0.3-0.6
			l0,0l0.3-0.6l-0.3-0.9l0.5-0.1l-0.1-0.5l-0.9,0.3c-0.5,0.1,0.7,0.8-0.3,0.6c1,0.2-0.3-0.9,0.3-0.6l0.9-0.3
			c-0.1-0.5,0.3-0.6,0.8-0.7s-0.3,0.6-0.8,0.7l0.1,0.5l-0.5,0.1l0.3,0.9l1-1.8c2-3.5,3.5-6.9,5.5-10.4c1.2-1.9,2.5-3.8,3.9-5.5
			c3-3.3,3.4-7.3,7-10.3c1.7-1,2.3-4.1,2.9-5.7c-0.8-2.7-5.4-3.4-6-3.8c-4-0.4-2.6,1.2-5.6,3c1.7-1,1.7,2.5-1.2,2.8
			c-4.7,0.8-3,5.3-5.4,7.4l-1.3,2.3c-2.9,3.8-3.1,8.2-5.3,12.8c-0.3,1.3-0.2,2.6,0.1,3.9c-0.2,1-1.1,1.3-1.4,1.9c-0.3,1-0.3,2-0.2,3
			c0.2-1,0.1-1.5,0.3-2.5s1.3,1.1,1,1.7c0.1,0.5-0.9,0.3-0.9,0.3l0.4,1.4c0.1,0.5-1-0.2-0.5,0.1c0.1,0.5,1,1.7,0.5,1.8l-0.8,0.7
			c-0.2,0.1-0.4,0.3-0.3,0.6c0,0,0,0,0,0l0.1,0.5c0.5-0.1,0.6,0.3,1,0.2l-0.5,0.1l0.5-0.1c-0.5,0.1-0.6-0.3-1-0.2
			c0.3,1.1,0.5,2.2,0.4,3.3l0,0c0.3-0.6,0.7-1.2,1.1-1.3c-0.5,0.1-0.5,0.1-0.6-0.3l0.5-0.1c0.1,0.5,0.3,0.9-0.7,1.2l0.1,0.5
			c-0.2,0.1-0.5-0.1-0.6-0.3c0,0,0,0,0,0l0.1,0.5C2688.7,108.6,2689.5,108.6,2690.3,108.3z"/>
		<path d="M2692.4,103.3L2692.4,103.3l0.8-0.7C2692.1,102.4,2692.2,102.8,2692.4,103.3z"/>
	</g>
	<g class="st0">
		<path d="M2752.4,134L2752.4,134C2752,134.1,2752.1,134.6,2752.4,134z"/>
		<path d="M2751.5,134.3"/>
		<path d="M2749.3,131.4c0,0,0.7,0.8,0.6,0.3c-0.2-0.3-0.1-0.8,0.2-1c0.3-0.2,0.8-0.1,1,0.2c-0.1-0.5,0-2-0.5-1.8l-1,1.8
			c-0.3,0.6-0.1,1.5-0.4,2.1l-0.5,0.1l0.9-0.3L2749.3,131.4z"/>
		<path d="M2748.4,137.1L2748.4,137.1c0.3-0.1,0.6-0.4,0.8-0.7l-0.6-0.3l0.1,0.5c-0.4-0.3-0.9-0.2-1.2,0.2c-0.1,0.1-0.1,0.1-0.1,0.2
			C2747.7,136.8,2748.1,136.9,2748.4,137.1z"/>
		<path d="M2753,132.4c0.7-0.7,1.5-1.3,2.5-1.7l-0.1-0.5l0.6,0.3l0.5-0.1l0,0l-0.1-0.5l-0.6-0.3l0.6,0.3l0.5-0.1l0.5-0.1l-0.5,0.1
			l0,0l0.9-0.3l0,0c0,0,0.3-0.6,0.5-0.1l0,0l0.5-0.1l-0.3-0.9l0.6,0.3l-0.1-0.5l-0.6-0.3c-0.6-0.3,0.3,0.9-0.3,0.6
			c0.7,0.8-0.1-0.5,0.3-0.6l0.6,0.3c-0.1-0.5,0.5-0.1,0.9-0.3l-0.9,0.3l0.1,0.5l-0.6-0.3l0.3,0.9l1.3-0.8c3.1-1.3,5-3.3,7.5-5
			c1.7-1,3.1-1.3,4.8-2.3c3.2-0.9,4.7-4.3,8.8-3.9c1.5,0.1,2.9-1.8,4.1-3.1c0.3-2.5-3.5-5.4-3.5-5.4c-3.2-2.6-2.5-0.3-5.7-0.9
			c2,0,0.8,2.7-2,1.5c-4-1.9-4.3,2.2-6.6,2.8c-0.5,0.1-0.8,0.7-1.7,1c-3.7,1-5.1,4.8-8.5,6.8c-0.8,0.7-0.9,2.2-1.2,2.8
			s-1.4,0.4-1.7,1s-1.1,1.3-1,1.8l1-1.8c0.3-0.6,0.4,1.4,0.5,1.8s-1-0.2-1-0.2c0.1,0.5-0.3,0.6-0.2,1s-0.6-0.3-0.6-0.3s0.5,1.8,0,2
			l-0.9,0.3l-0.5,0.1l0.1,0.5c0.1,0.5,0.6,0.3,0.7,0.8l0,0l0.5-0.1c-0.1-0.5-0.6-0.3-0.7-0.8c-0.2,1-0.5,1.6-0.7,2.7l0,0
			c0.3-0.6,0.3-0.6,1.4-0.4c-0.5,0.1-0.6-0.3-0.1-0.5l0.6,0.3c0.1,0.5-0.2,1-0.8,0.7L2753,132.4c-0.5,0.2-1-0.1-1.1-0.6l0,0
			C2752.4,132,2752.5,132.5,2753,132.4z"/>
		<path d="M2756.3,130L2756.3,130l0.9-0.3C2756.1,129.5,2756.1,129.5,2756.3,130z"/>
	</g>
</g>
</svg>
