<?xml version="1.0" encoding="utf-8"?>
<!-- Generator: Adobe Illustrator 21.1.0, SVG Export Plug-In . SVG Version: 6.00 Build 0)  -->
<svg version="1.1" id="Layer_1" xmlns="http://www.w3.org/2000/svg" xmlns:xlink="http://www.w3.org/1999/xlink" x="0px" y="0px"
	 viewBox="0 0 300 300" style="enable-background:new 0 0 300 300;" xml:space="preserve">
<style type="text/css">
	.st0{fill:#FFFFFF;}
</style>
<path d="M207.2,66.6H92.9C76.4,66.6,63,80,63,96.5v114.3c0,16.4,13.4,29.8,29.8,29.8H213V240c13.9-2.8,23.9-15,24-29.2V96.5
	C236.9,80,223.7,66.7,207.2,66.6z"/>
<path class="st0" d="M186.8,129.3c-0.2,3.9-0.4,7.7-0.6,11.5c-0.2,2.8,0.6,3.9,3.4,3.8c2-0.1,4-1.1,6-1.3s4.2-0.5,5.9,0.1
	c3.3,1.2,3.6,4.4,0.7,6.4c-1.9,1.2-3.9,2.1-6,2.9c-1.9,0.8-3.9,1.4-5.7,2.4c-3.3,1.9-4.4,4.5-2.9,8c5.5,12.3,13.8,21.7,27.4,25.3
	c1.1,0.4,2.1,1,3.1,1.7c-0.8,1.1-1.3,2.9-2.3,3.3c-4,1.6-8,2.9-12.2,3.9c-2.9,0.6-4.6,1.6-4.8,4.6c-0.1,0.7-0.3,1.4-0.5,2.1
	c-0.4,2.4-1.8,3-4.1,2.7c-3.1-0.4-6.2-0.7-9.4-0.9c-5.1-0.3-9.6,1.5-13.8,4.3c-3.9,2.6-7.9,5.5-12.3,7.1c-8.6,3.2-16.9,1.7-24.6-3.3
	c-1-0.6-2-1.3-2.9-2c-7.2-6.3-15.5-7.2-24.5-5.4c-4.2,0.8-4.5,0.6-5.5-3.6c-1.1-4.8-1.1-4.6-6-5.7c-3.1-0.7-6.2-1.6-9.3-2.7
	c-1-0.3-2-0.9-2.7-1.6c-0.8-0.7-1.4-1.7-1.5-2.8c0-0.6,1.5-1.4,2.4-1.6c5-1.1,9.7-3.3,13.8-6.5c6.2-4.8,11-11.2,14.1-18.4
	c1.7-3.8,0.7-6.6-2.9-8.6c-1.8-1-3.8-1.5-5.7-2.4c-2.1-0.8-4.1-1.8-6-3c-2.7-1.9-2.4-4.9,0.6-6.1c1.7-0.7,3.8-0.4,5.6-0.3
	c2.5,0.2,4.9,1.1,7.3,1.2c1.9,0.1,2.9-1.1,2.8-3.3c-0.3-6.3-0.7-12.6-0.5-18.8c0.5-13.8,7.6-23.6,20-28.7c15.3-6.3,30.1-5.1,43,6.3
	c6.4,5.4,10.2,13.3,10.3,21.7c0.1,2.5,0,5,0,7.5L186.8,129.3z"/>
</svg>
