<svg xmlns="http://www.w3.org/2000/svg" viewBox="0 0 900 85">
  <defs>
    <style>
      .cls-1 {
        fill: #fff;
      }
    </style>
  </defs>
  <title>infografics</title>
  <g id="Farmor">
    <path d="M842,57.2h-2.51c-1,0-1.24-.33-1.08-1.27.53-3.21,1-6.42,1.57-9.63s1-6.19,1.53-9.28c0-.17,0-.33.07-.6-.85.51-1.62,1-2.37,1.43a.64.64,0,0,0-.2.37c-.3,1.18-.61,2.36-.88,3.54a.66.66,0,0,0,.15.49A4.55,4.55,0,0,1,839.5,45c0,.38,0,.8-.43.93a1.69,1.69,0,0,1-1,0c-.18-.06-.32-.35-.41-.57a5.09,5.09,0,0,1-.19-.82c-1.34,1.5-2,1.64-3.49.66,0,.24,0,.41,0,.59q0,10.42,0,20.85c0,.79-.36,1.17-1.07,1.12a.82.82,0,0,1-.86-.77,3.22,3.22,0,0,1,0-.53q0-10.6,0-21.2a3.18,3.18,0,0,1,1.19-2.93,2.51,2.51,0,0,0,1.08-1.77c.34-1.51.75-3,1.12-4.52a1.57,1.57,0,0,1,.75-1c2-1.17,4-2.35,5.92-3.53a2.59,2.59,0,0,1,1.7-.46,4.62,4.62,0,0,0,.52,0c-.11-.19-.18-.31-.26-.42a4.53,4.53,0,0,1,.85-6.16.93.93,0,0,0,.38-.78,2.49,2.49,0,0,1,4.85-.84,8.65,8.65,0,0,1,.16.94,1.12,1.12,0,0,0,.29.59,4.56,4.56,0,0,1,.87,6.33,2.49,2.49,0,0,0-.15.25s.06.07.08.07a3.9,3.9,0,0,1,2.46.79c1.74,1.06,3.49,2.09,5.25,3.12a2,2,0,0,1,.94,1.31c.56,2.28,1.14,4.55,1.72,6.82a2.08,2.08,0,0,1-.64,2.35,2,2,0,0,1-3.18-1.1c-.52-2-1-4-1.53-6a1.05,1.05,0,0,0-.41-.56c-.62-.41-1.28-.77-1.92-1.15l-.42-.21c.12.78.22,1.47.34,2.15l2.81,16.69c.06.33.11.67.15,1a.79.79,0,0,1-.85,1c-.78,0-1.55,0-2.33,0-.36,0-.48.11-.48.47,0,2.7,0,5.4,0,8.09a2,2,0,0,1-1.41,2.14,2,2,0,0,1-2.51-1.38,4,4,0,0,1-.08-.87c0-2.65,0-5.31,0-8,0-.4-.12-.5-.5-.49-.91,0-1.81,0-2.77,0,0,.22,0,.39,0,.56q0,4,0,8a2,2,0,0,1-1,1.91A2,2,0,0,1,842,65.81c0-2.67,0-5.34,0-8C842,57.63,842,57.46,842,57.2Z"/>
  </g>
  <g id="Udsatte">
    <path d="M777.83,66c-3.62-3.48-5.26-7.77-6.07-12.57l-.6.57-4.77,4.77c-.52.52-.9.5-1.34,0s-.16-.81.18-1.15c1.57-1.57,3.14-3.15,4.73-4.71.18-.18.46-.27.61-.51-4.8-1-9.08-2.6-12.58-6.24A20.43,20.43,0,0,1,768.25,48c-3.64-5.93-6-12.2-5.6-19.4A24.17,24.17,0,0,1,767,33.35c1.19,1.73,2.22,3.57,3.33,5.37A32.48,32.48,0,0,1,776.87,22a32.39,32.39,0,0,1,1.62,9.47,39,39,0,0,1-1.12,9.49,39.11,39.11,0,0,1,19.3-13.62A38.88,38.88,0,0,1,783,46.7a33.45,33.45,0,0,1,19,.42,32.74,32.74,0,0,1-8,4.53,36,36,0,0,1-8.79,2.16,31.91,31.91,0,0,1,10.15,7.57c-7.2.39-13.45-2-19.39-5.61A20.33,20.33,0,0,1,777.83,66Z"/>
  </g>
  <g id="Virksomheder">
    <g>
      <path class="cls-1" d="M712.84,32.21l-.12-.32,9.21-8.17,5.06,11-1.37-.43-1-.36c-.67-.25-1.08-.17-1.4.61a30.26,30.26,0,0,1-11.07,13.3,55.19,55.19,0,0,1-18.62,8c-2,.49-4,.77-6,1.17a2,2,0,0,1,1.53-2.33,79.6,79.6,0,0,0,8.61-3.39,39.66,39.66,0,0,0,18.2-17.47c.23-.44.38-.91.64-1.52Zm12,8.45c0,1,0,1.59,0,2.22q0,8.7,0,17.41c0,3.69,0,3.67-3.71,3.55-.86,0-1.12-.33-1.12-1.17,0-5.28,0-10.56,0-15.83a1.78,1.78,0,0,1,.29-1.08C721.75,44.13,723.19,42.56,724.88,40.65Zm-6.19,6.66c.12.24.22.36.22.47,0,5.07,0,10.13,0,15.2,0,.28-.54.75-.87.78-1,.1-2,0-3,0s-1.13-.29-1.13-1.13c0-3.71,0-7.43,0-11.14a1.75,1.75,0,0,1,.49-1.24C715.78,49.27,717.21,48.34,718.7,47.31Zm-6.27,4.2c0,.7.07,1.17.07,1.64,0,2.48,0,5,0,7.44-.05,3.8.7,3.12-3.36,3.23-.84,0-1.16-.29-1.14-1.15,0-2.7,0-5.4,0-8.09a1.68,1.68,0,0,1,.67-1.23C709.81,52.7,711,52.2,712.43,51.52Zm-6.29,2.95c0,3,0,5.84,0,8.66,0,.24-.54.64-.84.66-1.22.08-2.44,0-3.66,0-.79,0-1.09-.29-1.08-1.07,0-1.88,0-3.75,0-5.63a1.21,1.21,0,0,1,.5-.94C702.65,55.58,704.3,55.07,706.14,54.46Zm-12.58,9.33c0-1.84,0-3.49,0-5.14,0-.32.53-.79.89-.9,1.33-.37,2.69-.6,4.26-.94,0,2.19,0,4.26,0,6.33a.91.91,0,0,1-.65.61C696.61,63.82,695.14,63.79,693.56,63.79ZM692,58.24c0,1.77,0,3.32,0,4.87,0,.24-.44.62-.73.67-3.49.56-3.86.25-3.85-3.21a5,5,0,0,1,0-1.17.89.89,0,0,1,.52-.58C689.2,58.6,690.48,58.45,692,58.24Z"/>
      <path d="M712.84,32.21l3.66.17c-.25.61-.41,1.08-.64,1.52a39.66,39.66,0,0,1-18.2,17.47,79.6,79.6,0,0,1-8.61,3.39,2,2,0,0,0-1.53,2.33c2.07-.39,4.08-.67,6-1.17a55.19,55.19,0,0,0,18.62-8,30.26,30.26,0,0,0,11.07-13.3c.32-.78.74-.86,1.4-.61l1,.36,1.37.43-5.06-11-9.21,8.17Z"/>
      <path d="M724.88,40.65c-1.7,1.9-3.13,3.48-4.52,5.09a1.78,1.78,0,0,0-.29,1.08c0,5.28,0,10.56,0,15.83,0,.84.26,1.14,1.12,1.17,3.71.12,3.71.14,3.71-3.55q0-8.7,0-17.41C724.88,42.24,724.88,41.61,724.88,40.65Z"/>
      <path d="M718.7,47.31c-1.49,1-2.91,2-4.26,3a1.75,1.75,0,0,0-.49,1.24c0,3.71,0,7.43,0,11.14,0,.85.26,1.18,1.13,1.13s2,.06,3,0c.32,0,.86-.51.87-.78,0-5.07,0-10.13,0-15.2C718.92,47.67,718.81,47.56,718.7,47.31Z"/>
      <path d="M712.43,51.52c-1.42.68-2.62,1.18-3.74,1.83a1.68,1.68,0,0,0-.67,1.23c-.06,2.7,0,5.4,0,8.09,0,.85.3,1.17,1.14,1.15,4.06-.11,3.31.57,3.36-3.23,0-2.48,0-5,0-7.44C712.5,52.68,712.46,52.22,712.43,51.52Z"/>
      <path d="M706.14,54.46c-1.84.61-3.49,1.12-5.1,1.72a1.21,1.21,0,0,0-.5.94c0,1.87,0,3.75,0,5.63,0,.79.29,1.1,1.08,1.07,1.22,0,2.45,0,3.66,0,.31,0,.84-.42.84-.66C706.16,60.3,706.14,57.48,706.14,54.46Z"/>
      <path d="M693.56,63.79c1.59,0,3.05,0,4.52,0a.91.91,0,0,0,.65-.61c0-2.07,0-4.14,0-6.33-1.57.33-2.93.57-4.26.94-.37.1-.88.57-.89.9C693.51,60.3,693.56,62,693.56,63.79Z"/>
      <path d="M692,58.24c-1.5.2-2.78.36-4,.58a.89.89,0,0,0-.52.58,5,5,0,0,0,0,1.17c0,3.45.36,3.77,3.85,3.21.28,0,.72-.43.73-.67C692,61.56,692,60,692,58.24Z"/>
    </g>
  </g>
  <g id="Uddannelse">
    <g>
      <path d="M654.33,33.13c-.54.52-1,1-1.47,1.42a.72.72,0,0,0-.24.62q.06,1.82.05,3.64a.34.34,0,0,0,.3.4,2.79,2.79,0,0,1,.75.32.93.93,0,0,1,.15,1.57L639.13,55.85a.4.4,0,0,1-.54.07l-14.85-6.67c-.9-.41-1.82-.78-2.71-1.22a5.23,5.23,0,0,1-2.79-3,4.56,4.56,0,0,1,.38-3.75,3.21,3.21,0,0,1,.6-.67L633.85,26a.48.48,0,0,1,.6-.13l18.76,6.89ZM638,53.62c0-.21,0-.34,0-.47,0-1.29-.09-2.59-.11-3.88a.49.49,0,0,0-.36-.51l-6.2-2.62-9.62-4.07a1,1,0,0,0-1.39.41,2.52,2.52,0,0,0,1.13,3.62c.51.22,1,.44,1.54.67l12.17,5.56Zm.63-.49.37-.35L642.81,49q4.45-4.45,8.89-8.9a.88.88,0,0,0,.26-.53c0-1.28,0-2.56,0-3.84a.62.62,0,0,0-.06-.16l-.22.19q-6.48,6.49-13,13a.78.78,0,0,0-.21.5c0,.94.06,1.88.09,2.82C638.63,52.34,638.62,52.67,638.62,53.12Z"/>
      <path d="M654.35,45.14c-.55.52-1,1-1.49,1.41a.75.75,0,0,0-.25.65q0,1.82,0,3.64c0,.25.12.28.3.36a3.62,3.62,0,0,1,1,.56.83.83,0,0,1,0,1.27q-7.4,7.4-14.79,14.81c-.27.27-.46.12-.68,0l-15.17-6.81c-.77-.35-1.57-.65-2.32-1a5,5,0,0,1-2.85-3.48,4.08,4.08,0,0,1,1.17-4c.88-.8,1.7-1.67,2.53-2.52a.44.44,0,0,1,.57-.12l15.44,6.76c.39.17.82.5,1.18.44s.62-.51.92-.81q5.92-5.83,11.83-11.67a.56.56,0,0,1,.71-.15C653,44.68,653.62,44.87,654.35,45.14ZM638,65.58a.62.62,0,0,0,0-.15c0-1.44-.08-2.87-.14-4.31a.48.48,0,0,0-.25-.33c-.63-.29-1.27-.54-1.91-.81q-7.06-3-14.11-6a.83.83,0,0,0-1.07.23A2.32,2.32,0,0,0,620,55a2.48,2.48,0,0,0,1.47,3.08l.54.22,14.68,6.72Zm13.88-18.13a3.24,3.24,0,0,1-.29.39l-3.93,3.94q-4.43,4.44-8.86,8.88a.83.83,0,0,0-.22.54c0,1,.05,2,.09,3,0,.26,0,.53,0,.86l.34-.32,4.46-4.46L651.72,52a.63.63,0,0,0,.21-.35c0-1.36,0-2.71,0-4.07C652,47.59,651.93,47.57,651.84,47.45Z"/>
    </g>
  </g>
  <g id="Hospitaler">
    <g>
      <path d="M538,64v-.8c0-9.16,0-18.33,0-27.49a6,6,0,0,1,5.21-5.85c1.86-.12,3.74,0,5.66,0V33h-4.75a2.83,2.83,0,0,0-2.93,2.94q0,12.1,0,24.2v.69h13.89V51.6h6.31v9.24h13.93v-.7q0-12.1,0-24.2A2.83,2.83,0,0,0,572.37,33h-4l-.71,0V29.86s.08-.07.12-.07c1.83,0,3.66,0,5.49.06,2.83.15,5.3,3,5.28,5.93-.07,9.14,0,18.28,0,27.43V64Z"/>
      <path d="M558.24,23.59h4.55a3,3,0,0,1,3.27,3.15q.07,4.64,0,9.28a3,3,0,0,1-3.29,3.13h-9a3.07,3.07,0,0,1-3.3-3.18c0-3.05,0-6.1,0-9.16a3.17,3.17,0,0,1,3.33-3.24C555.25,23.67,556.75,23.59,558.24,23.59Zm-1.5,3.2c0,.77,0,1.49,0,2.2s0,.84-.82.84c-.61,0-1.22,0-1.83,0-.38,0-.53.13-.52.51,0,.67,0,1.35,0,2,0,.45.15.58.58.57.83,0,1.67,0,2.58,0,0,.9,0,1.71,0,2.53,0,.4.13.57.55.55a17.78,17.78,0,0,1,1.83,0c.51,0,.66-.16.64-.65,0-.79,0-1.58,0-2.43,1,0,1.82,0,2.68,0,.35,0,.49-.11.48-.47,0-.72,0-1.43,0-2.15,0-.36-.14-.5-.49-.48s-.55,0-.82,0c-.58,0-1.38.16-1.69-.14s-.14-1.1-.16-1.68c0-.39,0-.79,0-1.22Z"/>
      <path d="M545.79,56.27V51.6H552v4.67Z"/>
      <path d="M564.45,51.59h6.24v4.67h-6.24Z"/>
      <path d="M545.8,43.85H552v4.66H545.8Z"/>
      <path d="M570.7,48.53h-6.24V43.87h6.24Z"/>
      <path d="M561.39,43.87v4.64h-6.26V43.87Z"/>
    </g>
  </g>
  <g id="Transport">
    <g>
      <g>
        <path class="cls-1" d="M495.84,59a16.55,16.55,0,0,0,1.77-1,3.83,3.83,0,0,0,1.94-3.46c0-6.67.08-13.41,0-20.08,0-2.45-2.45-4.22-4.47-4.22-4.64-.08-9.36,0-14,0-2.28,0-4.89,2.36-4.89,4.72v19.4a3.92,3.92,0,0,0,.51,1.94,5.71,5.71,0,0,0,3.46,2.78L474.32,68c1,0,1.86.08,2.7,0a1.56,1.56,0,0,0,1-.59c1.18-1.77,2.36-3.63,3.54-5.4a1.08,1.08,0,0,1,1.1-.59h10.46a1,1,0,0,1,1.1.59c1.18,1.86,2.36,3.63,3.54,5.4a1.5,1.5,0,0,0,.67.59c1,.08,2,0,3.12,0ZM473,59c0-.34.08-.59.08-.84V46.53a2.34,2.34,0,0,0-.08-.76c-.34-2.45-.76-4.81-1.18-7.26a1.44,1.44,0,0,1-.08-.59c-.08-2.45-1.52-3.71-3.63-4.47a24.89,24.89,0,0,0-11.39-1.18A18.19,18.19,0,0,0,450.11,34a4,4,0,0,0-2.45,3.29c-.08.84-.25,1.69-.34,2.45a51.42,51.42,0,0,0-.93,10.8c.08,2.53,0,5,0,7.51v1h1.77a28.7,28.7,0,0,0,.59,2.87,1.53,1.53,0,0,0,1.43,1.35c.84,0,1.18-.67,1.43-1.27a4.11,4.11,0,0,0,.34-.93c.08-.59.17-1.27.25-1.86H466.9a6.39,6.39,0,0,0,.08,1.27c.08.42.17.76.25,1.18.34,1.1,1,1.86,1.69,1.77,1-.17,1.35-.93,1.52-1.77a24.34,24.34,0,0,0,.34-2.45Z"/>
        <path d="M495.84,59l5.91,8.86h-3.12c-.25,0-.51-.34-.67-.59-1.18-1.77-2.36-3.63-3.54-5.4a1.08,1.08,0,0,0-1.1-.59H482.84a1,1,0,0,0-1.1.59c-1.18,1.86-2.36,3.63-3.54,5.4a1.56,1.56,0,0,1-1,.59c-.84.08-1.69,0-2.7,0L480.31,59a5.71,5.71,0,0,1-3.46-2.78,3.92,3.92,0,0,1-.51-1.94V34.89c0-2.28,2.53-4.72,4.89-4.72,4.64,0,9.36-.08,14,0,2,0,4.47,1.86,4.47,4.22.08,6.67,0,13.41,0,20.08a3.83,3.83,0,0,1-1.94,3.46C497.1,58.34,496.51,58.68,495.84,59Zm-8.44-23.2h-5.65a3,3,0,0,0-3.21,2.87v3a2.81,2.81,0,0,0,2.62,3c4.13.08,8.27,0,12.32,0h.17a3.13,3.13,0,0,0,2.53-2.78,14.42,14.42,0,0,0,0-2.7,3.12,3.12,0,0,0-3-3.29H487.4Zm7.09,20.42A2.22,2.22,0,0,0,496.85,54V54a2.23,2.23,0,0,0-2.19-2.19,2.28,2.28,0,0,0-2.45,2.11h0a2.46,2.46,0,0,0,2.28,2.36Zm-10.8-2.36a2,2,0,0,0-2-2.19h-.17a2.2,2.2,0,0,0-2.28,2.19h0a2.24,2.24,0,0,0,4.47.25v-.25ZM488,31.35h-2.45a.94.94,0,0,0-1.1.93v.08a.92.92,0,0,0,.84,1.1h.17a47.33,47.33,0,0,0,4.89,0,1,1,0,0,0,1-.93v-.08a1,1,0,0,0-.93-1.1H488Z"/>
        <path d="M473,59h-2.11c-.17.84-.17,1.69-.34,2.45S470,63.15,469,63.24c-.67.08-1.35-.67-1.69-1.77-.08-.42-.17-.76-.25-1.18A6,6,0,0,1,467,59H452.13c-.08.67-.17,1.27-.25,1.86l-.25,1c-.25.67-.67,1.27-1.43,1.27s-1.18-.67-1.43-1.35a28.7,28.7,0,0,1-.59-2.87H446.4v-1c0-2.53.08-5.06,0-7.51a51.42,51.42,0,0,1,.93-10.8,13.08,13.08,0,0,0,.34-2.45,3.87,3.87,0,0,1,2.45-3.29,17.75,17.75,0,0,1,6.58-1.77,24.81,24.81,0,0,1,11.39,1.27c2.11.84,3.63,2,3.63,4.47,0,.17.08.42.08.59.42,2.45.76,4.81,1.18,7.26,0,.25.08.51.08.76V58.09A3.46,3.46,0,0,0,473,59ZM450,39.11a.51.51,0,0,0-.08.34c-.34,1.94-.67,3.88-.93,5.82-.17,1.43,0,1.69,1.43,1.69H469.6c.51-.08.67-.34.59-.93l-.76-5.32c-.08-.51,0-1.18-.34-1.52s-.93-.08-1.43-.08Zm2.62,14.26a1.91,1.91,0,0,0-1.94-1.94,1.86,1.86,0,1,0-.34,3.71h.25a1.79,1.79,0,0,0,2-1.77Zm17.8,0a1.89,1.89,0,0,0-1.94-1.86,1.9,1.9,0,0,0-.25,3.8h.25a2,2,0,0,0,1.94-1.94Z"/>
        <path class="cls-1" d="M487.4,35.82h5.4a3.12,3.12,0,0,1,3.37,2.87v3.12a3.05,3.05,0,0,1-2.53,2.78h-.17c-4.13,0-8.27.08-12.32,0a2.81,2.81,0,0,1-2.62-3V39.11a3.09,3.09,0,0,1,2.78-3.29h.42C483.69,35.73,485.54,35.82,487.4,35.82Z"/>
        <path class="cls-1" d="M494.49,56.24a2.34,2.34,0,0,1-2.28-2.36v-.08a2.28,2.28,0,0,1,2.45-2.11h0a2.23,2.23,0,0,1,2.19,2.19,2.27,2.27,0,0,1-2.28,2.28C494.57,56.24,494.57,56.24,494.49,56.24Z"/>
        <path class="cls-1" d="M483.69,53.87a2.24,2.24,0,0,1-4.47.25v-.25a2.2,2.2,0,0,1,2.28-2.19h0a2,2,0,0,1,2.19,2Z"/>
        <path class="cls-1" d="M488,31.35h2.36a.94.94,0,0,1,1.1.93v.17a1,1,0,0,1-.84,1.1h-.17a47.33,47.33,0,0,1-4.89,0,1,1,0,0,1-1-.93v-.17a1,1,0,0,1,1-1.1H488Z"/>
        <path class="cls-1" d="M450,39.11h17.8c.51,0,1.18-.17,1.43.08s.25.93.34,1.52c.25,1.77.42,3.54.76,5.32.08.59-.17.84-.59.93h-19.4c-1.35,0-1.6-.25-1.43-1.69.25-1.94.59-3.88.93-5.82C449.94,39.28,449.94,39.19,450,39.11Z"/>
        <path class="cls-1" d="M452.64,53.37a1.86,1.86,0,0,1-2,1.86h-.08a1.89,1.89,0,0,1-1.94-1.86,1.84,1.84,0,0,1,1.86-1.94h.25A1.91,1.91,0,0,1,452.64,53.37Z"/>
        <path class="cls-1" d="M470.44,53.37a2,2,0,1,1-2.19-1.86h.25A1.79,1.79,0,0,1,470.44,53.37Z"/>
      </g>
      <g>
        <path class="cls-1" d="M479.3,59.36h17.38a12.7,12.7,0,0,0,1.43-.84,4.14,4.14,0,0,0,2-3.54c0-6.92.08-13.92,0-20.84,0-2.53-2.53-4.39-4.64-4.39-4.89-.08-9.7,0-14.51,0a5.42,5.42,0,0,0-5.06,4.89V54.8a5.51,5.51,0,0,0,.51,2A5.65,5.65,0,0,0,479.3,59.36Z"/>
        <path d="M479.3,59.36h17.38a12.7,12.7,0,0,0,1.43-.84,4.14,4.14,0,0,0,2-3.54c0-6.92.08-13.92,0-20.84,0-2.53-2.53-4.39-4.64-4.39-4.89-.08-9.7,0-14.51,0a5.42,5.42,0,0,0-5.06,4.89V54.8a5.51,5.51,0,0,0,.51,2A5.65,5.65,0,0,0,479.3,59.36Zm4.3-4.81a2.32,2.32,0,0,1-4.64-.25h0A2.34,2.34,0,0,1,481.33,52h.17a2.23,2.23,0,0,1,2.11,2.28h0Zm13.67-.17a2.36,2.36,0,0,1-2.45,2.28h-.08a2.38,2.38,0,0,1-2.28-2.53h0A2.42,2.42,0,0,1,495,51.93a2.27,2.27,0,0,1,2.28,2.28ZM484.36,31.85a1.18,1.18,0,0,1,1.18-1h5.15a1.18,1.18,0,0,1,1,1.18v.17a1,1,0,0,1-1.1,1q-2.53.13-5.06,0h-.17a1.11,1.11,0,0,1-.93-1.18A.26.26,0,0,1,484.36,31.85Zm-2.78,3.63h12a3.24,3.24,0,0,1,3,3.46,15.34,15.34,0,0,1,0,2.78,3.23,3.23,0,0,1-2.62,3h-.17c-4.3,0-8.52.08-12.82,0a3,3,0,0,1-2.78-3.12v-3A3.15,3.15,0,0,1,481.58,35.48Z"/>
      </g>
    </g>
  </g>
  <g id="Arbejde">
    <g>
      <path d="M384.91,56.54a13.21,13.21,0,0,0,3.24,5.85c.28.29.23.89.35,1.41H377l.23-4.57H361.32a3.18,3.18,0,0,1-3.52-3.48q0-12.72,0-25.45a3.16,3.16,0,0,1,3.37-3.39h43a3.09,3.09,0,0,1,3.36,3.14c0,5.89,0,11.78,0,17.68a.41.41,0,0,1-.05.16c-.81-1-1.64-1.93-2.42-2.93a1.6,1.6,0,0,1-.19-.92q0-6.63,0-13.26c0-1.13,0-1.17-1.13-1.17H361.56c-1,0-1.07.06-1.07,1.07q0,12.4,0,24.8c0,1,.08,1.06,1.08,1.06h23.33Z"/>
      <path d="M402.8,62.84a10.88,10.88,0,1,1,2.92-2.94l2.88,2.94c.36.37.75.72,1.08,1.12a2,2,0,0,1-2.91,2.76C405.44,65.46,404.15,64.16,402.8,62.84Zm1.55-9a7.58,7.58,0,1,0-7.51,7.59A7.61,7.61,0,0,0,404.35,53.8Z"/>
      <path d="M388.67,44.59c-.73.9-1.36,1.71-2,2.48a.94.94,0,0,1-.64.21H364.47A1.4,1.4,0,0,1,362.9,46c0-.8.6-1.36,1.59-1.37,2.48,0,5,0,7.45,0h16.73Z"/>
      <path d="M385,50.68l-.39,2.67h-19.8a3.06,3.06,0,0,1-1-.11,1.23,1.23,0,0,1-.89-1.31,1.24,1.24,0,0,1,1-1.2,3.32,3.32,0,0,1,.73-.07h19.7Z"/>
      <path d="M382.73,68h-7.44c-1.2,0-1.54-.4-1.5-1.6A1.07,1.07,0,0,1,375,65.22c.87,0,1.74,0,2.62,0h12.51c1.15,0,1.52.32,1.55,1.3S391.28,68,390.25,68C387.74,68,385.24,68,382.73,68Z"/>
      <path d="M393.35,41.4h-7.19c-.9,0-1.45-.42-1.55-1.14a1.26,1.26,0,0,1,1-1.48,4.76,4.76,0,0,1,1.05-.08h13.49c.22,0,.44,0,.65,0,.9.08,1.42.59,1.4,1.38a1.33,1.33,0,0,1-1.47,1.3C398.26,41.41,395.8,41.4,393.35,41.4Z"/>
      <path d="M377.28,37.23c0-1.09,0-2.18,0-3.27,0-.52.21-.87.74-.87a24.86,24.86,0,0,1,3.42.11,2.34,2.34,0,0,1,1.89,3.29,1,1,0,0,0,.1.78,2.54,2.54,0,0,1-1.69,4,25.11,25.11,0,0,1-3.74.14c-.54,0-.73-.37-.72-.88C377.29,39.41,377.28,38.32,377.28,37.23Zm2.31,2a11.4,11.4,0,0,0,1.48,0,.65.65,0,0,0,.44-.45.63.63,0,0,0-.41-.46,12.56,12.56,0,0,0-1.51-.11ZM379.37,36a10.1,10.1,0,0,0,1.5,0c.13,0,.21-.33.31-.51a8.68,8.68,0,0,0-1.34-.15C379.72,35.3,379.6,35.64,379.37,36Z"/>
      <path d="M393.36,33h6.95a3.52,3.52,0,0,1,.81,0,1.32,1.32,0,0,1,0,2.59,3.69,3.69,0,0,1-.81,0H386.48c-.19,0-.38,0-.57,0a1.31,1.31,0,0,1-1.31-1.29A1.27,1.27,0,0,1,385.92,33c1.23,0,2.45,0,3.68,0Z"/>
      <path d="M368.74,37.19a3.94,3.94,0,0,1,4-4.22,4,4,0,0,1,4,4.28,4,4,0,1,1-8-.06Zm2.09-.05.21.12a2,2,0,0,0,.93,1.94,1.65,1.65,0,0,0,2-.45,2.91,2.91,0,0,0-.11-3.13,1.53,1.53,0,0,0-2.07-.2A7.25,7.25,0,0,0,370.83,37.13Z"/>
      <path d="M368.1,36.55c0,.87.05,1.74,0,2.61a2.56,2.56,0,0,1-5.1-.1c-.07-.81.38-1,1-1.07s1.07,0,1.19.75c0,.2.26.37.4.55a1.82,1.82,0,0,0,.25-.6c0-1.5,0-3,0-4.49,0-.92.23-1.13,1.18-1.12s1.1.19,1.11,1.1,0,1.58,0,2.37Z"/>
    </g>
  </g>
  <g id="Miljoe">
    <g>
      <path d="M316.15,36.92v.94q0,10.63,0,21.26c0,3.16-1.71,4.87-4.84,4.87H295.19a4.29,4.29,0,0,1-4.61-4.56q0-10.9,0-21.81c0-.23,0-.45,0-.71ZM302,58.31c.69,0,1.34,0,2,0s.88-.18.88-.87c0-5.16,0-10.33,0-15.49,0-.23,0-.46,0-.74H302Zm-5.67,0c.71,0,1.33,0,2,0s.88-.18.88-.87c0-5.14,0-10.28,0-15.42v-.82h-2.81Zm11.32-17.1v.9q0,3.78,0,7.56c0,2.62,0,5.24,0,7.87,0,.26.23.72.38.73.79.08,1.58,0,2.41,0V41.21Z"/>
      <path d="M317.94,24.37l.76,2.7-30,8.39c-.22-.78-.46-1.57-.63-2.36,0-.13.25-.43.43-.47.5-.13.79-.3.82-.91s.59-1,1.21-1.15c1.5-.41,3-.86,4.51-1.25.51-.13.64-.34.55-.87a3.65,3.65,0,0,1,2.91-4.57l6-1.68a3.62,3.62,0,0,1,4.74,2.36c.22.6.49.66,1,.49,1.42-.43,2.85-.8,4.27-1.21a1.57,1.57,0,0,1,2,.57.75.75,0,0,0,.58.17A4.73,4.73,0,0,0,317.94,24.37ZM306.5,26c-.18-1-.43-1.22-1.29-1q-3,.79-6,1.67c-.9.26-1,.63-.61,1.53Z"/>
      <path class="cls-1" d="M302,58.31V41.21h2.8c0,.28,0,.51,0,.74,0,5.16,0,10.33,0,15.49,0,.69-.19.93-.88.87S302.66,58.31,302,58.31Z"/>
      <path class="cls-1" d="M296.29,58.31V41.21h2.81V42c0,5.14,0,10.28,0,15.42,0,.69-.19.93-.88.87S297,58.31,296.29,58.31Z"/>
      <path class="cls-1" d="M307.62,41.21h2.81V58.3c-.83,0-1.62,0-2.41,0-.16,0-.38-.48-.38-.73,0-2.62,0-5.24,0-7.87s0-5,0-7.56Z"/>
    </g>
  </g>
  <g id="Fritiden">
    <g>
      <path class="cls-1" d="M217.76,24.86a3.91,3.91,0,0,0-2.91,3.34c-.11.54-.11.54-.65.54h-4.1a1.28,1.28,0,0,0-1.4,1,1,1,0,0,0,.32,1.08c2.16,2.91,4.31,5.82,6.58,8.74,2.91,3.88,5.72,7.77,8.63,11.65a1.82,1.82,0,0,1,.22.54v9.6a4.56,4.56,0,0,1-4.53,4.53h-5.18c-.86,0-1.4.43-1.4,1.08s.54,1.08,1.4,1.08H240a1.05,1.05,0,0,0,.86-1.08.94.94,0,0,0-1-.86h-5.72a3,3,0,0,1-1-.11,4.51,4.51,0,0,1-3.45-4.42V52a1.53,1.53,0,0,1,.22-.65c.65-.86,1.29-1.62,1.94-2.48l9.92-13.59,3.24-4.42a1.15,1.15,0,0,0,.22-1.29,1.24,1.24,0,0,0-1.4-.76H222.94c-.32,0-.43,0-.43-.43a3.7,3.7,0,0,0-3.24-3.56c-.11,0-.22-.22-.32-.32-.22-.86-.22-1.62-.43-2.48-.32-1.29-.65-2.48-1.08-3.78l-1.62.86A17.94,17.94,0,0,1,217.76,24.86Zm32,13.05a16.59,16.59,0,0,1-1.4-1.29c-.22-.11-.22-.32-.11-.54h0a7.34,7.34,0,0,0,.86-3.34,1.53,1.53,0,0,0-1-1.51,1.2,1.2,0,0,0-1.51.54c-.75,1.08-1.51,2-2.27,3.13-.22.22-.22.32,0,.54,1.19,1,2.27,2,3.45,3l2.27,2A10.23,10.23,0,0,0,252,37.58a11.33,11.33,0,0,0-.43-10.35,16.75,16.75,0,0,0-5.93-6,11.48,11.48,0,0,0-6.26-1.83A12.83,12.83,0,0,0,230.71,23v.11l4.31,4c.11.11.22.11.43.11H240c.11,0,.32-.11.32-.22h0a14.37,14.37,0,0,1,.54-2,1.24,1.24,0,0,0-1-1.62h-.43c-.32,0-.65.11-1,.11a10.37,10.37,0,0,0-3,1.19.53.53,0,0,1-.32.11c-.54-.43-1.08-1-1.62-1.4l.22-.22a9.66,9.66,0,0,1,9.49-1,14.53,14.53,0,0,1,5,3.56c2.59,2.8,3.78,6,2.8,9.82C250.55,36.29,250.23,37.15,249.8,37.91ZM247,29.06a1.34,1.34,0,0,0,.11-1.83h0c-.75-.76-1.51-1.51-2.27-2.16a1.5,1.5,0,0,0-1.94.22c-.11.11-.11.11-.11.22a11.79,11.79,0,0,0-.54,1.83h2a2.69,2.69,0,0,1,2.7,1.73Z"/>
      <path d="M217.76,24.86a19.73,19.73,0,0,0-1.83-5.72l1.62-.86c.32,1.29.75,2.48,1.08,3.78a18.29,18.29,0,0,0,.43,2.37q0,.16.32.32a3.7,3.7,0,0,1,3.24,3.56.4.4,0,0,0,.43.43H244.4a1.38,1.38,0,0,1,1.4.76,1.15,1.15,0,0,1-.22,1.29l-3.24,4.42L232.43,48.8c-.65.86-1.29,1.62-1.94,2.48a1.53,1.53,0,0,0-.22.65v9.49a4.31,4.31,0,0,0,3.34,4.42,3,3,0,0,0,1,.11h5.72a1,1,0,0,1,1,.86,1.05,1.05,0,0,1-.86,1.08H215.17c-.86,0-1.4-.43-1.4-1.08s.54-1.08,1.4-1.08h5.18a4.44,4.44,0,0,0,4.42-4.42v-9.6a.82.82,0,0,0-.22-.54c-2.91-3.88-5.72-7.77-8.63-11.65-2.16-2.91-4.31-5.82-6.58-8.74a1.82,1.82,0,0,1-.32-1.08,1.22,1.22,0,0,1,1.4-1h4.1c.54,0,.54,0,.65-.54A3.17,3.17,0,0,1,217.76,24.86Zm-6,6c.11.11.11.22.22.32l4.85,6.47c3.24,4.31,6.47,8.74,9.71,13.05a.82.82,0,0,1,.22.54V61.64a6.4,6.4,0,0,1-.54,2.48c-.32.65-.75,1.29-1.08,1.83h4.64l-.32-.43a6.34,6.34,0,0,1-1.4-3.88V51.17c0-.22.11-.32.22-.54l2.37-3,11.65-15.86.65-1H222.08a.82.82,0,0,0-.54.22,3.88,3.88,0,0,1-5.39.22l-.22-.22a.56.56,0,0,0-.43-.22C214.31,30.9,213.13,30.9,211.72,30.9Zm5.72-4.75a.86.86,0,1,0,0,1.73h0a.86.86,0,1,0,0-1.73Z"/>
      <path d="M249.8,37.91a10.17,10.17,0,0,0,1.08-2.48c1-3.88-.22-7-2.8-9.82a15,15,0,0,0-5-3.56,9.94,9.94,0,0,0-9.49,1c-.11,0-.11.11-.22.22a18.75,18.75,0,0,0,1.62,1.4.53.53,0,0,0,.32-.11,10.37,10.37,0,0,1,3-1.19,3,3,0,0,1,1-.11,1.34,1.34,0,0,1,1.4,1.29V25c-.22.65-.32,1.4-.54,2a.34.34,0,0,1-.32.32h-4.53a.65.65,0,0,1-.43-.11l-4.31-4v-.11a12.35,12.35,0,0,1,8.63-3.67,12,12,0,0,1,6.26,1.83,17.66,17.66,0,0,1,5.93,6,11.32,11.32,0,0,1,.43,10.35A10.23,10.23,0,0,1,250,40.6l-2.27-2c-1.08-1-2.27-2-3.45-3-.22-.22-.22-.32,0-.54.75-1.08,1.51-2,2.27-3.13a1.24,1.24,0,0,1,1.51-.54,1.4,1.4,0,0,1,1,1.51,7.34,7.34,0,0,1-.86,3.34c-.11.22-.11.43.11.54h0A5.67,5.67,0,0,1,249.8,37.91Z"/>
      <path d="M247.1,29.06a2.69,2.69,0,0,0-2.8-1.73h-2a9.11,9.11,0,0,1,.54-1.83,1.29,1.29,0,0,1,1.83-.54c.11,0,.11.11.22.11a14.41,14.41,0,0,1,2.27,2.16,1.24,1.24,0,0,1,0,1.83Z"/>
      <path class="cls-1" d="M211.72,30.9h3.78c.11,0,.22.11.32.22a3.88,3.88,0,0,0,5.39.22l.22-.22a.82.82,0,0,1,.54-.22h20.82l-.65,1L230.49,47.72a32.49,32.49,0,0,1-2.37,3,.82.82,0,0,0-.22.54V61.64a6.24,6.24,0,0,0,1.29,3.88l.32.43h-4.64c.32-.65.75-1.19,1.08-1.83a6.31,6.31,0,0,0,.54-2.37V51.39c0-.22-.11-.32-.22-.54-3.24-4.31-6.47-8.74-9.71-13.05l-4.85-6.47C211.94,31.11,211.83,31,211.72,30.9Zm26.1,3.78H217l10.25,13.81Z"/>
      <path class="cls-1" d="M217.44,26.15a.77.77,0,0,1,.75.86.86.86,0,0,1-1.73,0,.94.94,0,0,1,1-.86Z"/>
      <path d="M237.82,34.67,227.36,48.48,217,34.67Zm-12.4,7.44a1.54,1.54,0,0,0,1.51-1.51A1.74,1.74,0,0,0,225.31,39a1.56,1.56,0,1,0,.11,3.13Zm4-1.29a1,1,0,0,0,1-1,1,1,0,0,0-2-.11,1.26,1.26,0,0,0,1.08,1.08Zm-6.26-3.88a.81.81,0,1,0-1.62-.11h0a.81.81,0,1,0,1.62.11Z"/>
      <path class="cls-1" d="M225.42,42.11a1.47,1.47,0,0,1-1.51-1.51h0a1.51,1.51,0,0,1,3,0A1.54,1.54,0,0,1,225.42,42.11Z"/>
      <path class="cls-1" d="M229.41,40.82a1,1,0,0,1-1-1v-.11a1,1,0,0,1,1.08-.86,1,1,0,0,1,.86,1c.11.54-.43,1-1,1Z"/>
      <path class="cls-1" d="M223.26,36.94a.93.93,0,0,1-.86.86.83.83,0,0,1-.75-.86.76.76,0,0,1,.86-.76h0C222.83,36.07,223.26,36.51,223.26,36.94Z"/>
    </g>
  </g>
  <g id="Flygtninge">
    <g>
      <path d="M170.52,50.66q0,7.16,0,14.31c0,.48,0,1,0,1.43,0,.76-.07,1.57-1.15,1.55s-1.1-.79-1.09-1.58c0-2.66,0-5.32,0-8a8.36,8.36,0,0,0-.28-1.48l-.53,0a11.66,11.66,0,0,0-.22,1.56c0,2.6,0,5.21,0,7.81,0,.83-.09,1.81-1.2,1.58-.44-.09-1-1-1-1.58-.09-4.46-.05-8.93-.06-13.4a3.15,3.15,0,0,0-.31-1.56c-.38.57-.78,1.13-1.13,1.73-.63,1.06-1.26,1.08-2.32.4-2.92-1.89-3.19-4.8-3.37-7.81-.1-1.7-.25-3.39-.41-5.08-.06-.59-.21-1.16-.32-1.74l-.45,0a7.06,7.06,0,0,0-.12,1.45c.56,4.52,1.11,9,1.74,13.56.33,2.34.95,2.12-1.79,2.71,0,2.93,0,5.9,0,8.87,0,1.75-.61,2.54-1.91,2.54s-1.86-.79-1.87-2.59c0-2.29,0-4.57,0-6.86a2.86,2.86,0,0,0,0-1.1,5.94,5.94,0,0,0-.87-1.13c-.23.39-.66.77-.67,1.16-.06,2.76,0,5.53,0,8.3,0,1.53-.81,2.36-2.08,2.22-1.44-.16-1.75-1.22-1.77-2.42,0-2.29,0-4.57,0-6.86s0-2.25-2.23-2.53c.57-2.9,1.26-5.77,1.67-8.69s.5-5.71.73-8.57l-.8-.09c-.19,1.5-.4,3-.56,4.51-.22,2.11-.41,4.23-.6,6.34-.1,1.07-.64,1.73-1.74,1.63s-1.41-1-1.32-2c.36-3.81.68-7.62,1.11-11.42a4.75,4.75,0,0,1,4.62-4.09c2.44-.1,4.9-.1,7.34,0a5,5,0,0,1,4.92,4.89c.32,3.92.64,7.83,1,11.74a1.16,1.16,0,0,0,.52.85c.18.08.59-.24.83-.45s.25-.46.41-.68c.68-1,1.26-2.62,2.1-2.77a15.92,15.92,0,0,1,6,.23c.7.15,1.53,1.53,1.62,2.42a56.58,56.58,0,0,1,0,7.33c0,.44-.63.86-1,1.29-.26-.44-.73-.87-.75-1.32-.08-2.22,0-4.43,0-6.65Z"/>
      <path d="M136,67.77A13.51,13.51,0,0,0,136.3,60a4.6,4.6,0,0,0-.69-1.93c-1.23-1.38-1.17-3-1.16-4.64,0-5,0-10.1,0-15.15,0-.49,0-1-.06-1.48l-.44,0a10.27,10.27,0,0,0-.15,1.23c0,3.61,0,7.23,0,10.84a8.68,8.68,0,0,1,0,1c-.12,1.08-.66,1.86-1.82,1.8s-1.56-.86-1.56-1.87c0-4.36-.1-8.72.06-13.07.11-3.09,2-4.88,5.09-5,2.65-.13,5.31-.11,8,0a14,14,0,0,1,3,.88c-.69.48-1,.7-1.26.86a6.33,6.33,0,0,0-3.2,5.36c-.32,3.12-.6,6.24-1,9.35s.06,3.9,3.09,4.9c-.12.63-.28,1.28-.35,1.94-.11,1.1-1,2.21.34,3.31.4.34.12,1.52.12,2.32,0,1.65,0,3.3,0,4.94,0,1.38-.54,2.29-2,2.43-1.24.12-2.09-.9-2.1-2.44,0-5.16,0-10.31,0-15.47,0-.49-.27-1.31-.58-1.39-1.1-.31-1.14.55-1.14,1.35,0,5.1,0,10.21,0,15.31C138.48,67.12,138.06,67.57,136,67.77Z"/>
      <path d="M127.31,53.7H133l-1.66,2.41a8.64,8.64,0,0,1,3.52,9.74c-.29,1-.85,1.75-1.95,1.76a30.17,30.17,0,0,1-5.81-.17,3.77,3.77,0,0,1-2.26-2.12,7.21,7.21,0,0,1,2.93-8.67,1.47,1.47,0,0,0,.35-1.25A7.55,7.55,0,0,0,127.31,53.7Z"/>
      <path d="M139.31,30.61a4.1,4.1,0,0,1-4.18-4.25,4.23,4.23,0,0,1,8.46.11A4.08,4.08,0,0,1,139.31,30.61Z"/>
      <path d="M151.89,25.09a3.82,3.82,0,0,1,3.86,4,4,4,0,0,1-4,4,4.16,4.16,0,0,1-3.9-4.08A3.92,3.92,0,0,1,151.89,25.09Z"/>
      <path d="M171.17,43.16a3.31,3.31,0,1,1-6.61-.14,3.31,3.31,0,0,1,6.61.14Z"/>
    </g>
  </g>
  <g id="Praktikpladser">
    <g>
      <rect class="cls-1" x="66.38" y="38.5" width="18.11" height="24.74"/>
      <g>
        <path class="cls-1" d="M65.44,64H85V52.44a1.63,1.63,0,0,1,.77-1.53c.94-.68,1.79-1.45,2.64-2.13.6-.43,1.11-.94,1.7-1.45L88,44.79,75.47,55.16l2.13,2.55L84,52.44V63.06H66.46v-24h2.47a8.58,8.58,0,0,1-.6,1.28,1.56,1.56,0,1,0,2.3,0,7.77,7.77,0,0,1-.6-1.19h4.42a8.58,8.58,0,0,1-.6,1.28,1.59,1.59,0,0,0,.09,2.21,1.67,1.67,0,0,0,2.13,0,1.59,1.59,0,0,0,.09-2.21,8.58,8.58,0,0,1-.6-1.28h4.51a5.86,5.86,0,0,1-.6,1.28,1.68,1.68,0,0,0,.09,2.21,1.62,1.62,0,1,0,2.38-2.21,8.58,8.58,0,0,1-.6-1.28h2.72v5.1a1.74,1.74,0,0,1-.43.77c-2,1.7-4.08,3.4-6.21,5.1L73.77,53.2l.94,1.19L87.2,44l-1-1.19-1.28.94V38.16h-3.4l.09-.26c-.26-.26-.6-.68-.85-.68s-.6.43-.85.68c-.09.09-.17.26-.26.26H76.49V32.8c0-.6-.17-.85-.77-.85H71.56c-.6,0-.77.17-.77.77v4.76a5.86,5.86,0,0,1-.26.68,2.25,2.25,0,0,0-.43-.51c-.26-.17-.51-.43-.68-.43a1.5,1.5,0,0,0-.68.43c-.09.17-.26.34-.34.51-.09-.17-.17-.43-.26-.6v-5.7H44.36V50.31c0,.77.17.94.94.94H64.08c1.28,0,1.28,0,1.28,1.28,0,.68-.26.85-.85.85H45.38c-.77,0-1,.26-.94,1a13.67,13.67,0,0,1,0,1.87c0,.85-.6.68-.94.6-.6-.17-1.45.6-1.62-.6a6.28,6.28,0,0,1,0-1.79c.09-.85-.17-1.11-1-1.11a4.82,4.82,0,0,1-4.76-2.55,13.75,13.75,0,0,1-.85-1.53,37.55,37.55,0,0,0-.09,5.36c.26,3.91,2.38,5.87,6.29,5.87H64.68c.68,0,.94.17.85.85A24.76,24.76,0,0,0,65.44,64ZM41.89,41.56V32.8c0-.85-.26-1-1-1a28.72,28.72,0,0,1-3.83,0c-.68,0-.85.17-.85.85,0,3.74-.09,7.4,0,11.14a11.4,11.4,0,0,0,1.45,5.53,3.37,3.37,0,0,0,3.49,2c.68-.09.85-.26.85-.85C41.89,47.51,41.89,44.53,41.89,41.56Zm23.55-11.9V26.94c0-.68-.17-.85-.85-.85H48.1a1,1,0,0,0-.68.43c-.09,1,0,2,0,3.15h3l.09-1.7h12v1.28c0,.17.26.51.34.51C63.66,29.66,64.51,29.66,65.44,29.66Zm5,30L77,58.13l-3.83-4.59Zm20.4-13a3,3,0,0,0,.51-4.17.08.08,0,0,0-.09-.09,3,3,0,0,0-4.17-.34l-.09.09Z"/>
        <path d="M65.44,64V61.45c0-.85-.17-.85-.85-.85H41.38c-3.91,0-6-2-6.29-5.87a37.55,37.55,0,0,1,.09-5.36c.26.51.6,1,.85,1.53a4.82,4.82,0,0,0,4.76,2.55c.85-.09,1.11.26,1,1.11a6.28,6.28,0,0,0,0,1.79c.17,1.19,1.11.43,1.62.6.34.09,1,.26.94-.6V54.48c0-.6.17-1,.94-1H64.42c.6,0,.85-.17.85-.85,0-1.28,0-1.28-1.28-1.28H45.21c-.77,0-.94-.26-.94-.94V32h23.8v5.27a4.14,4.14,0,0,0,.26.6,1.78,1.78,0,0,1,.34-.51c.26-.17.51-.43.68-.43a1.5,1.5,0,0,1,.68.43c.17.17.26.34.43.51.09-.26.17-.43.26-.68V32.46c0-.6.17-.77.77-.77h4.17c.68,0,.85.26.77.85V37.9h3.15c.09,0,.17-.17.26-.26.26-.26.6-.68.85-.68s.6.43.85.68l-.09.26h3.4v5.61l1.28-.94L87,43.77,74.62,54.14l-.94-1.19,3.66-3.06c2-1.7,4.17-3.4,6.21-5.1A1.14,1.14,0,0,0,84,44v-5.1H81.25a5.86,5.86,0,0,0,.6,1.28,1.6,1.6,0,0,1-.26,2.21,1.66,1.66,0,0,1-2,0,1.68,1.68,0,0,1-.09-2.21,8.58,8.58,0,0,0,.6-1.28H75.56a8.58,8.58,0,0,0,.6,1.28,1.59,1.59,0,0,1-.09,2.21,1.67,1.67,0,0,1-2.13,0,1.59,1.59,0,0,1-.09-2.21,8.58,8.58,0,0,0,.6-1.28H70.12a8.58,8.58,0,0,0,.6,1.28,1.57,1.57,0,1,1-2.38-.09,8.58,8.58,0,0,0,.6-1.28H66.46V62.72H84V52.35L77.6,57.62l-2.13-2.55L88,44.7l2.13,2.55L88.4,48.7a32,32,0,0,1-2.64,2.13A1.82,1.82,0,0,0,85,52.35V63.91Z"/>
        <path d="M41.89,41.56v8.93c0,.68-.17.77-.85.85a3.37,3.37,0,0,1-3.49-2,11.4,11.4,0,0,1-1.45-5.53V32.63c0-.68.26-.85.85-.85a28.72,28.72,0,0,0,3.83,0c.77,0,1,.17,1,1C41.81,35.69,41.89,38.58,41.89,41.56Z"/>
        <path d="M65.44,29.66H62.81c-.17,0-.34-.34-.34-.51V27.87H50.4l-.09,1.7h-3V26.43c0-.17.43-.43.68-.43H64.51c.68,0,.94.17.85.85C65.36,27.79,65.44,28.72,65.44,29.66Z"/>
        <path d="M70.37,59.66l2.81-6.12L77,58.13Z"/>
        <path d="M90.78,46.66,87,42.07a3,3,0,0,1,4.17.26l.09.09a3,3,0,0,1-.51,4.25Z"/>
      </g>
    </g>
  </g>
</svg>
