<svg id="Layer_1" data-name="Layer 1" xmlns="http://www.w3.org/2000/svg" width="356" height="145" viewBox="0 0 356 145">
  <title>iPhoneSelfie</title>
  <g>
    <g opacity="0.85">
      <path d="M166.4,34.8h0C166.3,34.9,166.4,34.9,166.4,34.8Z"/>
      <path d="M165.7,35.4s.1-.2,0-.2-.2.1-.3,0-.1-.1,0-.2h0s-.5.1-.3.2a.75.75,0,0,0,.5.1c.2.1.4,0,.5,0s.1,0,.1.1h0l-.1-.2C166.1,35.3,165.8,35.5,165.7,35.4Z"/>
      <path d="M167,35.4h0c-.1-.2-.2-.2-.3-.2v.1c.1,0,.1,0,.1-.1h0a.22.22,0,0,0,.2.2Z"/>
      <path d="M165.6,34.6c-.2-.1-.4-.3-.6-.4,0,0-.1.1-.1,0v-.1h0l-.2-.1h0c-.1,0-.1,0-.1-.1h0l-.1-.1h-.2v-.1l-.1.1V34c0,.1.2-.1.1.1.1-.2-.1.1-.1-.1v-.2c0-.1-.1-.1-.1-.2s.1.1.1.2.1,0,.1-.1h0v.1h.2l-.3-.2c-.6-.5-1.2-.9-1.8-1.4l-.9-.9c-.6-.6-1.3-.8-1.8-1.7a3.59,3.59,0,0,0-1-.7c-.5.1-.9,1.1-.9,1.1-.2.8.2.5.4,1.2-.1-.4.5-.3.5.3,0,1,.9.7,1.3,1.2a1.38,1.38,0,0,0,.4.3c.6.7,1.5.8,2.3,1.4a2.2,2.2,0,0,0,.8.1c.1,0,.2.2.3.3a.9.9,0,0,0,.5.1.9.9,0,0,0-.5-.1c-.2,0,.2-.2.3-.2s0,.2,0,.2h.3c.1,0-.1.2,0,.2s.4-.2.4-.1l.1.2c0,.1,0,.1.1.1h.1c0-.1,0-.1.1-.2,0,.1,0,.1.1.1h0c.1,0,0-.1-.1-.1s-.1.1-.1.2h.6c-.1-.3-.2-.4-.1-.6-.1,0-.1.1-.1.2v-.1c.1,0,.2,0,.2.2h.1c0,.1,0,.1-.1.2h.1C165.7,34.9,165.7,34.7,165.6,34.6Z"/>
      <path d="M164.7,34.1h0l-.1-.1C164.6,34.1,164.6,34.1,164.7,34.1Z"/>
    </g>
    <g opacity="0.85">
      <path d="M177.2,28.1s.2-.1.1-.1-.2-.1-.3-.2.1-.2.1-.2-.5-.1-.4,0l.4.4c.2.1.3.2.5.3v-.1C177.6,28.1,177.3,28.2,177.2,28.1Z"/>
      <path d="M178.5,28.8h0c0-.2-.1-.2-.2-.3l-.1.1h.1c-.1.1-.1.2,0,.4C178.3,29,178.4,28.8,178.5,28.8Z"/>
      <path d="M177.5,27.3a1.61,1.61,0,0,0-.4-.7H177v-.2h-.1l-.1.1.1-.1v-.1c0-.1,0-.1-.1-.1h0c.1,0,.1,0,.1.1h.1l-.1-.2h0c-.1,0-.1-.1,0-.2h0l-.1-.2h-.2l.1-.1h-.1l-.1.2c-.1.1.2,0,.1.1.2-.1-.2,0-.1-.1l.1-.2c-.1,0-.1-.1,0-.2s.1.1,0,.2h.1l-.1.1h.2l-.1-.4c-.3-.8-.7-1.4-1-2.2a6.47,6.47,0,0,1-.4-1.3c-.2-.9-.8-1.4-.7-2.5a3.38,3.38,0,0,0-.6-1.2c-.5-.2-1.3.5-1.3.5-.6.6-.1.6-.3,1.3.1-.5.6,0,.3.6-.5.9.4,1.2.5,1.8.1.2.1.3.2.5.2,1,1,1.6,1.4,2.5.1.2.4.3.6.5s.1.3.2.5.3.3.4.4c-.1-.1-.3-.2-.4-.4s.3,0,.4,0-.1.2-.1.2.2.1.3.2-.1.1-.1.1.4,0,.4.1v.3h.1c.1-.1.1-.1.2-.1h0c-.1,0-.1.1-.2.1l.6.3h0c-.1-.1-.1-.2,0-.4,0,.1-.1.1-.1,0l.1-.1c.2.2.3.2.3.3h0c0,.1-.1.1-.1.2h0C177.4,27.4,177.5,27.4,177.5,27.3Z"/>
      <path d="M177,26.3h0l-.1-.2C176.9,26.3,176.9,26.3,177,26.3Z"/>
    </g>
    <g opacity="0.85">
      <path d="M192.9,25.2v-.1h-.1c0,.1,0,.1.1.1Z"/>
      <path d="M192,24.8h.1c-.1,0-.1-.2-.1-.3s.2-.1.2-.1-.3-.4-.3-.2a.61.61,0,0,0,.1.6.52.52,0,0,0,.2.4v.1l.1-.2C192.4,25.1,192,25,192,24.8Z"/>
      <path d="M192.7,26h0c.1-.1,0-.2,0-.3h-.1c0,.1.1.1.1,0-.1.1-.2.2-.2.3S192.6,26.1,192.7,26Z"/>
      <path d="M192.7,24.4a1.7,1.7,0,0,1,.1-.7c-.1,0-.1,0-.1-.1h.1v-.1h0v.1h0v-.2h0c0-.1,0-.1.1-.1h0v-.2l-.1-.1h.1c-.1,0-.1,0-.1-.1h0l-.2.1c-.1,0,.2.1,0,.1.2,0-.1-.1,0-.1l.2-.1c0-.1,0-.1.1-.2s0,.1-.1.2l.1.1h-.1l.1.1.1-.4c.2-.8.2-1.5.4-2.3a6.47,6.47,0,0,1,.4-1.3c.3-.8.1-1.6.7-2.4a2.54,2.54,0,0,0,.2-1.2c-.3-.4-1.3-.3-1.4-.3-.8.2-.4.4-.9.9.3-.3.5.3-.1.6-.9.4-.3,1.2-.5,1.7,0,.2-.1.3-.1.5-.4.9-.1,1.8-.2,2.8a.91.91,0,0,0,.3.7c0,.2-.1.3-.1.4a1.27,1.27,0,0,0,.1.6c0-.2-.1-.3-.1-.5s.3.1.3.2-.2.1-.2.1.1.2.1.3-.2,0-.2,0,.3.2.3.3l-.1.2v.1h.5l-.1.1.1-.1h-.2l.3.6h0c0-.1,0-.2.2-.3h0c.1.1.1.2-.1.3l.1.1h-.2v.1A.55.55,0,0,1,192.7,24.4Z"/>
      <path d="M192.8,23.3h0v-.2C192.7,23.2,192.8,23.2,192.8,23.3Z"/>
    </g>
    <g opacity="0.85">
      <path d="M205.1,30.4s.2.1.1,0v-.3c0-.1.2,0,.2,0s-.1-.5-.1-.4-.2.3-.2.5a1.27,1.27,0,0,1-.1.6l-.1.1.2-.1C205.2,30.8,205.1,30.5,205.1,30.4Z"/>
      <path d="M204.9,31.8h0c.2-.1.2-.2.2-.3H205c0,.1,0,.1.1.1h0c-.1,0-.3.1-.2.2Z"/>
      <path d="M206,30.4c.2-.2.3-.4.5-.6v-.1h.1l.1-.1h0l-.1-.1h.1c0-.1,0-.1.1-.1h0c0,.1,0,.1-.1.1h0v.1l.2-.2v-.1c0-.1,0-.1.1-.1h0l.1-.1v-.2h.1v-.1H207c-.1,0,.1.2-.1.1.2.1,0-.2.1-.1h.2c0-.1.1-.1.2-.1s-.1.1-.2.1v.1h-.1v.2l.3-.3c.6-.6,1.1-1.2,1.7-1.8a10.63,10.63,0,0,1,1.1-.9c.8-.5,1.1-1.3,2-1.7.4-.1.7-.7.9-1,0-.6-.9-1-1-1.1-.8-.3-.6.1-1.3.3.4-.1.2.6-.4.5-1-.1-.9.9-1.5,1.2l-.4.4c-.8.6-1.1,1.5-1.8,2.3a1.88,1.88,0,0,0-.2.8c-.1.2-.3.2-.4.3a1.42,1.42,0,0,0-.2.6c.1-.2.1-.3.2-.5s.2.3.1.4-.1.1-.2,0h0v.3c0,.1-.2-.1-.1,0s.1.4,0,.4l-.2.1c-.1,0-.1,0-.1.1h0v.1c.1,0,.1.1.2.1h0c-.1,0-.1-.1-.2-.1a1.7,1.7,0,0,1-.1.7h0c.1-.1.2-.2.3-.2-.1,0-.1,0-.1-.1h.1c0,.1,0,.2-.2.2v.1c-.1,0-.1,0-.1-.1h0v.1A.9.9,0,0,0,206,30.4Z"/>
      <path d="M206.7,29.5h0l.2-.1C206.7,29.3,206.7,29.4,206.7,29.5Z"/>
    </g>
    <g opacity="0.85">
      <path d="M217.2,39.1h0C217.1,39.1,217.1,39.2,217.2,39.1Z"/>
      <path d="M216.7,38.4s.1.2.1.1,0-.2.1-.2.1,0,.2.1c0-.1.1-.4,0-.4l-.3.3c-.1.1-.1.3-.2.4h.1Z"/>
      <path d="M216.2,39.5h0c.1,0,.1,0,.2-.1l-.1-.1v.1a.19.19,0,0,0-.3,0h0C216.1,39.4,216.1,39.5,216.2,39.5Z"/>
      <path d="M217.4,38.8a1.42,1.42,0,0,1,.6-.2v-.1l.1.1h.1v-.1l-.1-.1.1.1h.3s.1-.1.1,0h.1v-.2l.1.1v-.1l-.1-.1c-.1-.1,0,.2-.1.1.1.2,0-.1.1-.1l.1.1c0-.1.1,0,.2,0h-.2v.1l-.1-.1v.2l.3-.1a6.36,6.36,0,0,0,1.8-.6c.4-.1.7-.1,1.1-.2.7,0,1.2-.6,2-.3.3.1.7-.2,1-.4.2-.5-.4-1.3-.4-1.3-.5-.7-.5-.2-1.1-.5.4.1,0,.6-.5.2-.7-.6-1,.2-1.5.2-.1,0-.2.1-.4.1-.8,0-1.3.7-2.1.9-.2.1-.3.4-.4.5s-.3,0-.4.1-.3.2-.3.3l.3-.3c.1-.1,0,.3,0,.4s-.2-.1-.2-.1-.1.1-.1.2-.1-.1-.1-.1,0,.4-.1.4h-.3V38c0,.1.1.1.1.2h.1c0-.1-.1-.1-.1-.2-.1.2-.2.3-.3.5h0c.1-.1.1-.1.3,0-.1,0-.1-.1,0-.1l.1.1c0,.1-.1.2-.2.1l.1.2a.22.22,0,0,1-.2-.2h0C217.3,38.7,217.3,38.8,217.4,38.8Z"/>
      <path d="M218.2,38.5h.2C218.2,38.4,218.2,38.4,218.2,38.5Z"/>
    </g>
  </g>
  <g>
    <path d="M322.2,61.2h0V66c0,.3.1.4.4.4a4.1,4.1,0,0,0,1.1.1c1.3.3,2.6.5,3.9.7l6.7.3a4.14,4.14,0,0,0,3.6-1.5,1.29,1.29,0,0,0,.4-1.2,1.43,1.43,0,0,1,.6-1.5l.4-.4a1.1,1.1,0,0,0,.3-1.5h0a1.59,1.59,0,0,1,.3-2.2l.1-.1a.91.91,0,0,0,.1-1.2c-.1-.1-.1-.3-.2-.4-.5-.8-.6-.9.1-1.7a1.21,1.21,0,0,0,.2-1.4,6.1,6.1,0,0,0-1.2-1.6,1.08,1.08,0,0,0-.7-.3,13.4,13.4,0,0,0-2-.1h-3.6c-.2,0-.6.3-.7-.1a1.1,1.1,0,0,1,0-.8c0-.1,0-.2.1-.2l1.3-2.9a5.07,5.07,0,0,0,.2-4,2.8,2.8,0,0,0-2.6-1.9c-.4,0-.5.1-.6.5a12.25,12.25,0,0,1-.2,1.9,5.65,5.65,0,0,1-2.3,4.3,3.27,3.27,0,0,0-1.1,1.5,17.19,17.19,0,0,1-2.3,4.2,3,3,0,0,1-1.7,1.2c-.4,0-.4.1-.4.4A37,37,0,0,0,322.2,61.2Zm-.8.1h0V56.7a1,1,0,0,0-.9-1.2h-3.1a1.28,1.28,0,0,0-1.2,1.1h0v9.2a1.13,1.13,0,0,0,.9,1.3h3a1.11,1.11,0,0,0,1.2-.9h0l.1-4.9Z"/>
    <path d="M322.2,61.2V56.5c0-.3.1-.4.4-.4a2.3,2.3,0,0,0,1.7-1.2,17.19,17.19,0,0,0,2.3-4.2,3.27,3.27,0,0,1,1.1-1.5,5.65,5.65,0,0,0,2.3-4.3c.1-.7.1-1.2.2-1.9,0-.4.2-.5.6-.5a2.7,2.7,0,0,1,2.6,1.9,5.54,5.54,0,0,1-.2,4l-1.3,2.9c0,.1-.1.1-.1.2a1.1,1.1,0,0,0,0,.8c.1.4.5.1.7.1h3.6c.7,0,1.3.1,2,.1a.91.91,0,0,1,.7.3,9.55,9.55,0,0,1,1.2,1.6,1.4,1.4,0,0,1-.2,1.4c-.6.7-.6.9-.1,1.7.1.1.1.2.2.4a.91.91,0,0,1-.1,1.2,1.6,1.6,0,0,0-.5,2.1h0a.1.1,0,0,0,.1.1h0a1.1,1.1,0,0,1-.3,1.5c-.1.1-.2.3-.4.4a1.43,1.43,0,0,0-.6,1.5,1.75,1.75,0,0,1-.4,1.2,4.35,4.35,0,0,1-3.5,1.5c-2.3-.1-4.4-.1-6.7-.3a26.62,26.62,0,0,1-3.9-.7,4.1,4.1,0,0,0-1.1-.1c-.4-.1-.4-.1-.4-.4.1-1.5.1-3.1.1-4.7Z"/>
    <path d="M321.4,61.3v4.6a1.11,1.11,0,0,1-.9,1.2h-3a1.06,1.06,0,0,1-1.2-1h0V56.8a1,1,0,0,1,.9-1.2h3c.5-.1,1,.4,1.1.9h0v.2c.1,1.5.1,3,.1,4.6Z"/>
  </g>
  <g opacity="0.85">
    <path d="M130.6,117.1l-1.2-.5c.2.1.4.3.6.4A1.27,1.27,0,0,0,130.6,117.1Z"/>
    <path d="M128.1,116.2l-.2-.1h-.2Z"/>
    <path d="M125.9,115.6l1.2.4A5.64,5.64,0,0,0,125.9,115.6Z"/>
    <path d="M127.6,116.3c-.1-.1-.1-.2.1-.2h0l-.7-.1C127.2,116,127.4,116.2,127.6,116.3Z"/>
    <path d="M127.6,116.3l.3.3Q127.9,116.45,127.6,116.3Z"/>
    <path d="M126.4,118c-.3,0,0-.5-.5-.5s-1.1-.1-1.6-.1a7.57,7.57,0,0,1-1.5-.1c-.5.1-1-.8-1.5-.7-1.1-.1-4.1.5-2.5.7,1.2.1,2.2.2,3.2.3l1.5.1,1.6.2a49.26,49.26,0,0,1,5.4.5c.5.1.9.3,1.4.4l-1.8-.7a4.4,4.4,0,0,0-1.6-.2A5.1,5.1,0,0,1,126.4,118Z"/>
    <path d="M139.7,121l-.7-.2a9.93,9.93,0,0,0-3-1.2l.4.3c.6.2.7.2.2-.1a24.08,24.08,0,0,0,3.3,1.5C139.9,121.1,140,121.1,139.7,121Z"/>
    <path d="M140.7,121.5l-.7-.2h0Z"/>
    <path d="M120.9,115l-4.4-.9-4.3-.8c-.3.1-.5.3-.7.2a1.61,1.61,0,0,0-.7-.4l-1.2-.2h-.5c-.3.1-.2.2-.1.4l.4.4-.4-.4a4.35,4.35,0,0,0-.7-.4,4.87,4.87,0,0,1-1.2-.1,4.87,4.87,0,0,1,1.2.1h.7l.2-.1c-.9-.2-1.9-.3-2.8-.5h-.6a1.86,1.86,0,0,1-1.8-.4l-.5-.1.1.1c-.1,0-.1-.1-.2-.1l-2.1-.3c-.5.1-1,.3-1.5.4l-.5-.5a1.27,1.27,0,0,1-.9.4,4.44,4.44,0,0,0,1.1.8c.5.5,1.2-.8,1.6.1-.5-.9-1.2.4-1.6-.1l-1.1-.8a3.72,3.72,0,0,1-2.3-.5,2.39,2.39,0,0,1,2.3.5,3.55,3.55,0,0,0,.9-.4l.5.5c.5-.1,1-.3,1.5-.4-1.4-.2-2.9-.3-4.3-.5a93.3,93.3,0,0,0-14-.2c-4.7.2-9.2.6-14.2,1-5.3.5-10.4,1.1-15.4,1.8a137.8,137.8,0,0,0-14.2,3c-4.7,1.1-9.4,2.2-14.2,3.4-3.7.9-10.5,3.3-14,4.5a24.79,24.79,0,0,0-2.8,1.2h.9a36.91,36.91,0,0,0,4.6-.8,66.72,66.72,0,0,1,6.9-1.2c-2.1.3-1.4,0,.4-.4a37.63,37.63,0,0,1,6.6-1,56.87,56.87,0,0,0,10.1-1.2c1.8-.3,3.7-.7,5.4-1a33.27,33.27,0,0,1,5.4-.7c1.8-.1,3.6-.5,5.8-.7,5.5-.3,10.7-.8,16.1-1.3l4-.4c1.3-.1,2.7-.2,4.1-.2s2.8-.1,4.1-.1,2.8.1,4.2.2a20.67,20.67,0,0,0,4.3-.2l3.9-.6a24.58,24.58,0,0,1,2.8.2,21.66,21.66,0,0,0,2.5.4,18.19,18.19,0,0,0,3.3,0l3.1-.3a29.08,29.08,0,0,0-3,.1c-1,.1-2,.1-3.2.1-1.6-.1,1.2-1.1,2.3-1.2.5-.2,1.1.9,1.6.7a16.45,16.45,0,0,0,3.1-.4c.5-.2.3.7.5.7,1.5-.1,2.8-1,3.7-.7a14.58,14.58,0,0,1,1.9.7,5,5,0,0,0,1.2.2l.9-.1a2.92,2.92,0,0,1-.2-.9c.4.1.9.4,1.2.5-.4-.1-.9-.4-1.2-.5a2.92,2.92,0,0,0,.2.9c1.1-.1,2.1-.1,3.2-.1h1.6c.5,0,1.1.1,1.6.1v-.1a11,11,0,0,1-3.5-1.1c.5.2.4.5-.3.4l-.4-.5a4.63,4.63,0,0,1,3.1.7l.7-.1a.6.6,0,0,1,.3.6l.7.1A4.79,4.79,0,0,0,120.9,115Z"/>
    <path d="M108.3,112.8h.6c-.8-.2-1.6-.2-2.4-.4C106.8,112.9,107.6,112.8,108.3,112.8Z"/>
  </g>
  <g>
    <path d="M72.1,72.4c4.3-1.7,7.7-2.5,10.4-2.3,4,.3,6.5,2.6,7.7,6.9a13.52,13.52,0,0,1,.4,2.9c0,1-.1,2.2-.2,3.6a18.33,18.33,0,0,1-.3,2.6,95.2,95.2,0,0,1-1.2,13.1.75.75,0,0,1-.9.7h0a.9.9,0,0,1-.5.1c-1.5,0-2.9,0-4.3-.1a.71.71,0,0,1-.6-.3,1.42,1.42,0,0,1-.2-.6,6.61,6.61,0,0,1-.1-1.1c-4.6.6-7.8-.2-9.8-2.3A6.72,6.72,0,0,1,70.8,92a7.86,7.86,0,0,1,.4-4,12.06,12.06,0,0,1,2.7-4.3,10.93,10.93,0,0,1,4.4-2.9,7.71,7.71,0,0,1,5.4.1c-.2-2.5-.8-3.9-2-4.2s-3.3.3-6.4,1.9a.75.75,0,0,1-.5.1,1.09,1.09,0,0,1-.9-.4A36.23,36.23,0,0,1,71.5,74a1.09,1.09,0,0,1-.1-.5,1.13,1.13,0,0,1,.7-1.1Zm.6,19.7a49.73,49.73,0,0,1,5.1-9l-.4.2A25.45,25.45,0,0,1,75,87.2c-1.1,1.7-1.9,2.9-2.3,3.7A4.82,4.82,0,0,0,72.7,92.1Zm.1-2.4c.3-.5.9-1.5,1.8-2.8s1.7-2.5,2.1-3.2a9.18,9.18,0,0,0-3.6,5A5.39,5.39,0,0,0,72.8,89.7Zm.6,4.1a29.74,29.74,0,0,1,2.7-5.7,64.24,64.24,0,0,1,3.4-5.6c-.3.1-.6.1-.9.2a55.76,55.76,0,0,0-5.7,10.1A3.13,3.13,0,0,0,73.4,93.8Zm2-20.7-1.8.7.7,1.4a22.06,22.06,0,0,0,1.1-2.1Zm2.1,14.2a6.73,6.73,0,0,1,.7-1.1l1-1.5a10.08,10.08,0,0,0,1.2-2.3h-.3a43.83,43.83,0,0,0-3.7,5.8,41.06,41.06,0,0,0-2.8,6l.1.1.1.1,2.1-4.3a4.92,4.92,0,0,1,.6-1.7c.4-.4.7-.8,1-1.1ZM76,91.2l-1.7,3.6.6.4c.1-.2.2-.5.4-.9a2.6,2.6,0,0,0,.3-.7,10,10,0,0,1,.8-1.4c-.1-.1-.1-.1-.1-.2A4.12,4.12,0,0,1,76,91.2Zm.8-18.5-.7.3a25.43,25.43,0,0,0-1.6,2.8l.6.9c.1-.4.7-1.7,1.7-4Zm.5,20.6a4.35,4.35,0,0,1-.7-.6c-.2.4-.4.7-.6,1.1l-.3.7c-.2.4-.3.7-.4.9l.9.4Zm.1-20.7a15.06,15.06,0,0,0-.8,1.7l-1,2.2a11.22,11.22,0,0,1,1.3-.5l.3-.6.6-1.4c.3-.5.6-1.1.9-1.6a5.07,5.07,0,0,0-1.3.2Zm.7,21.1-.4-.2c-.1.2-.4.9-1.2,2.4.2,0,.3.1.5.1a16.27,16.27,0,0,1,1.1-2.3Zm1.4-21.6h-.2a6.92,6.92,0,0,0-1,1.9l-.6,1.4-.1.2.4-.1h0c.4-.9.9-2,1.5-3.4Zm-.9,21.7a16.27,16.27,0,0,0-1.1,2.3h.3a8.79,8.79,0,0,1,.6-1A5.73,5.73,0,0,1,79.5,94a2.92,2.92,0,0,1-.9-.2Zm4.2-5.9a3.6,3.6,0,0,0-2.7-.2,3.51,3.51,0,0,0-1.9,1.7,2.19,2.19,0,0,0-.3,1.9,1.78,1.78,0,0,0,1.8.9,2.62,2.62,0,0,0,1.5-.2,3.81,3.81,0,0,0,1.3-.9,8.52,8.52,0,0,0,.3-3.2Zm-2.7,6.2a4,4,0,0,0-1.3,1.3,2.18,2.18,0,0,0-.5.8h1.1c.3-.8.6-1.5.9-2.2h-.1a.1.1,0,0,1-.1.1ZM80.9,72H80a25.76,25.76,0,0,1-1.6,3.3.9.9,0,0,1,.5-.1A11.78,11.78,0,0,1,80,73.3C80.4,72.7,80.7,72.3,80.9,72Zm.5,0-.9,1.5a11.91,11.91,0,0,0-.9,1.5,2.77,2.77,0,0,1,.9-.1c.2-.3.9-1.3,1.8-2.9a1.39,1.39,0,0,0-.9,0ZM81,85.7c.6-1,1.2-2,1.9-3a.75.75,0,0,0-.5-.1,8.6,8.6,0,0,0-1.8,2c-.2.2-.5.7-1,1.4h0A1.74,1.74,0,0,1,81,85.7Zm-1.2-1,.4-.5a6.9,6.9,0,0,1,1.6-1.8h-.9a7,7,0,0,1-1.1,2.3Zm1.7,9.1-.6.1a11,11,0,0,0-.9,2.3h.7a8.47,8.47,0,0,0,.8-2.4ZM83.3,72h-.5c-1.1,1.8-1.7,2.8-1.7,2.8h.2a23.52,23.52,0,0,0,2-2.8ZM82,93.7a18.28,18.28,0,0,1-.8,2.5h.1c.5-.9,1-1.9,1.6-2.9A3.55,3.55,0,0,0,82,93.7Zm.5-7.9A11.74,11.74,0,0,0,84,83.1l-.6-.3a16.65,16.65,0,0,0-1.8,2.8c.2.1.6.1.9.2Zm1.8-13.4c-.2-.1-.4-.1-.6-.2a8.66,8.66,0,0,1-.9,1.2l-1.1,1.5.5.1h.1C83,74.2,83.6,73.3,84.3,72.4Zm-.9,20.8c-.6,1-1.1,2-1.6,2.9l.8-.1a15.09,15.09,0,0,1,1.5-2.8A37.41,37.41,0,0,1,86.3,90c.9-1.2,1.5-2,1.9-2.6V85.8l-3.8,5.8-.1.7a.9.9,0,0,1-.9.9Zm1.4-20.7a22.23,22.23,0,0,0-1.9,2.7,1.79,1.79,0,0,1,.7.5,16.65,16.65,0,0,1,1.8-2.8ZM82.9,85.9h0l1.2-1.2,1.3-1.4L86.5,82l1.2-1.5c.3-.5.6-.9.9-1.4,0-.3-.1-.6-.1-.9-.5.6-1,1.1-1.5,1.6a6.73,6.73,0,0,0-1.4,1.5v1.1a1.27,1.27,0,0,1-.1.6.73.73,0,0,1-1,.4h-.1A12.75,12.75,0,0,1,82.9,85.9Zm5.2,3.9c0-.5.1-1,.1-1.6l-1.7,2.3c-.9,1.2-1.5,2.2-2,3s-.9,1.6-1.3,2.4l.2.1a.76.76,0,0,1,.4.2l2.1-2.9C86.7,92.2,87.4,91,88.1,89.8Zm-4.6-3.6c.1.1.3.1.4.2s.1.1.2.1.2.1.3.2c.1-.1.7-.8,1.8-2.2a23.22,23.22,0,0,0,2.2-3,.19.19,0,0,1,.3-.1V79.9c-.3.4-.5.9-.8,1.3s-.7.9-1.1,1.4l-1,1.2L84.5,85A14.73,14.73,0,0,0,83.5,86.2Zm2.7-12.6a1.76,1.76,0,0,0-.5-.4A13.41,13.41,0,0,0,83.9,76l.3.3C85.2,75,85.9,74.1,86.2,73.6ZM88,90.9c-.4.7-1,1.6-1.7,2.7l-2.2,3c.1.1.1.2.1.4v.5A35.33,35.33,0,0,0,88,91.8Zm-.3,3.6a8.6,8.6,0,0,0,.1-1.6,27.26,27.26,0,0,1-3.7,5.2v.1h1.1a24,24,0,0,1,2.5-3.7Zm-.7-20a2.18,2.18,0,0,0-.4-.5c-.3.5-1,1.4-2.1,2.8l.3.6A11.07,11.07,0,0,1,87,74.5ZM84.7,89a9.15,9.15,0,0,1-.1,1.6L86.3,88l2.1-3.2v-.5C87.2,85.9,86,87.5,84.7,89Zm0-1.7v1c1.4-1.6,2.6-3.2,3.8-4.8a6.6,6.6,0,0,0,.1-1.4,28.32,28.32,0,0,1-2,2.8,22.39,22.39,0,0,0-1.9,2.4Zm2.9-12a2.19,2.19,0,0,0-.3-.5,13.31,13.31,0,0,0-2.3,3,.6.6,0,0,1,.1.4c1-1.1,1.8-2,2.5-2.9Zm.2.5c-.7.8-1.5,1.8-2.6,2.9a1.7,1.7,0,0,1,.1.7L86.4,78a13.3,13.3,0,0,0,1.4-1.9Zm.4.8c-.4.6-.8,1.1-1.2,1.6A22,22,0,0,0,85.6,80a1.27,1.27,0,0,0,.1.6,11.09,11.09,0,0,1,1.1-1.1c.6-.6,1.2-1.2,1.8-1.9v-.2a.91.91,0,0,1-.4-.8Zm-.5,18.7a29,29,0,0,0-1.9,2.9h1.5c.1-.9.2-1.8.4-2.9Z"/>
    <path d="M101.6,93.9c.1.2.2.8.6,1.7.2.7.5,1.3.6,1.7a3.51,3.51,0,0,0,1.7,2,2.44,2.44,0,0,0,1.2,0,1,1,0,0,0,.5-.6,7.69,7.69,0,0,0,.3-3.7,35.45,35.45,0,0,0-.8-4.7l-.5-2.3a12.25,12.25,0,0,1-7.8-.1,11.49,11.49,0,0,1-4.7-2.3,7.89,7.89,0,0,1-2.3-4.3,8.36,8.36,0,0,1,.4-4.7,12.45,12.45,0,0,1,2.4-4.2,10.54,10.54,0,0,1,3.9-2.7c2.2-.8,5.1-.6,8.7.5V68.4a.9.9,0,0,1,.9-.9h0a.9.9,0,0,1,.5-.1c.5.1,1.3.1,2.4.2s1.9.1,2.4.2a.87.87,0,0,1,.8.6.81.81,0,0,1,.4.9,23.34,23.34,0,0,0-.3,3.1l-.3,3.4c-.1.7-.1,1.7-.3,3.1a23.68,23.68,0,0,0-.2,3.5c0,.9,0,1.9-.1,3.1a18.15,18.15,0,0,0,0,3.3,15.26,15.26,0,0,0,.3,3c0,.2.1.9.3,2.2a20.16,20.16,0,0,1,.3,2.9,12.36,12.36,0,0,1-.3,5.4,5.09,5.09,0,0,1-2.4,2.8,8.9,8.9,0,0,1-3.9,1.2,11.34,11.34,0,0,1-4.1-.2,5.91,5.91,0,0,1-3.2-1.7,7.82,7.82,0,0,1-1.7-2.6,12.24,12.24,0,0,1-.9-2.7c-.1-.7-.3-1.7-.4-2.8a1,1,0,0,1-.4-1.2,1,1,0,0,1,.6-.5,14.34,14.34,0,0,0,3.4-1.4.75.75,0,0,1,.9,0,.92.92,0,0,1,1.1.7ZM95.5,79.8a1.27,1.27,0,0,1-.1-.6c-1.1,0-2.1,0-3.2-.1v1.2C93.6,80.1,94.7,79.9,95.5,79.8Zm-.2-1.6a11,11,0,0,1-1.8-.2c-.6-.1-1-.2-1.2-.2a2.77,2.77,0,0,0-.1.9c1,.1,2.1.1,3.1.1Zm-3,3.4a16.21,16.21,0,0,1,3.3-1.3c-1.1.1-2.3.3-3.4.5,0,.3.1.5.1.8Zm3.1-3.9c0-.1.1-.3.1-.4-.9-.2-1.8-.5-2.8-.8a1.42,1.42,0,0,0-.2.6l-.1.4c.4,0,.8.1,1.2.1.6,0,1.2.1,1.8.1Zm.8,3.4c-.1-.1-.2-.3-.3-.4A18.87,18.87,0,0,0,92.6,82l.6,1.2c.2-.1.8-.5,1.7-1.1Zm-.4-4.2c.1-.2.2-.3.3-.5a24.69,24.69,0,0,1-2.9-1l-.3.6a16.12,16.12,0,0,0,2.9.9Zm.9,4.8c-.1-.1-.2-.1-.2-.2a13,13,0,0,0-1.5,1c-.8.5-1.3.9-1.6,1.1a4.35,4.35,0,0,0,.6.7l.1.1,1.3-1.3ZM96.4,76a2.65,2.65,0,0,1,.6-.5A9.44,9.44,0,0,0,94.2,74a10.47,10.47,0,0,0-.8,1.1A17.1,17.1,0,0,0,96.4,76Zm.7,6h0l-1.4,1.4a13.58,13.58,0,0,1-1.2,1.2l.9.6a18.05,18.05,0,0,0,.9-1.7C96.6,83,96.8,82.5,97.1,82Zm.4-6.8c.1,0,.2-.1.3-.1A30,30,0,0,0,95.2,73l-.6.6a11.81,11.81,0,0,1,2.9,1.6Zm.7-.4.5-.2-.3-.4-.6-1a7.55,7.55,0,0,0-1.1-1.4,10.54,10.54,0,0,0-1.1.7c.6.6,1.5,1.4,2.6,2.3Zm.2,7.8a3.55,3.55,0,0,1-.9-.4c-.3.4-.6.9-.9,1.4a7.58,7.58,0,0,1-.9,1.7c.3.1.6.3.9.4a14.68,14.68,0,0,1,.9-1.5,8.94,8.94,0,0,0,.9-1.6Zm.4-8.5-1-2.8h0c-.2.1-.5.2-.7.3a7.1,7.1,0,0,1,1,1.4l.6,1Zm6.2,2.6a6.28,6.28,0,0,0-3.3-.6,5.51,5.51,0,0,0-3.9,1.2,1.82,1.82,0,0,0-.5,2.1,2.29,2.29,0,0,0,.7,1,3.69,3.69,0,0,0,1.4.7,6,6,0,0,0,2.3.1,10.89,10.89,0,0,0,3.1-.8c.1-.1.2-.1.4-.1V76.8ZM99.7,83a1.88,1.88,0,0,1-.8-.2c-.3.5-.6,1.1-.9,1.7a13.7,13.7,0,0,1-.8,1.4l.9.3h.1a11.11,11.11,0,0,1,.7-1.6A17.76,17.76,0,0,1,99.7,83Zm.5,12.4-.1-.3a16,16,0,0,1-2.3,1l.1.6h0l.6-.3.8-.4a3.49,3.49,0,0,0,.9-.6Zm.1.4c-.2.2-.4.3-.6.5l-.9.4-.6.3H98c.1.3.1.6.2.9,1.3-1,2.1-1.6,2.3-1.7v-.1Zm-.9-21.3h.2c-.2-1-.5-2.1-.7-3.3-.2,0-.5.1-.7.1a15.56,15.56,0,0,1,1.2,3.2ZM101,97.6l-.4-1c-.2.2-.5.3-.7.5l-.9.7-.7.6c0,.2.1.4.1.6C99.3,98.5,100.1,98,101,97.6ZM100.5,83h-.3l-.9,1.7a9.33,9.33,0,0,0-.7,1.5,5,5,0,0,0,1.2.2c.1-.2.1-.6.3-1.2a3,3,0,0,0,.2-1A1.8,1.8,0,0,1,100.5,83Zm.9,15.3-.2-.3a30,30,0,0,0-2.6,1.5c.1.4.2.7.3,1.1a18.44,18.44,0,0,1,2.5-2.3Zm.4.8c-.1-.1-.2-.3-.3-.4-.3.2-.5.4-.8.6l-1,1a5.72,5.72,0,0,0-.7.8c.1.3.3.5.4.8l.9-1.2c.6-.8,1.2-1.2,1.5-1.6Zm-1.7-24.8h.6c-.2-1.1-.2-2.2-.3-3.3H99.3c.3,1.2.6,2.3.8,3.3Zm2.2,25.5c-.1-.1-.2-.2-.2-.3a17.38,17.38,0,0,0-1.3,1.5,6.89,6.89,0,0,1-1.1,1.3c.2.2.4.5.6.7.3-.4.9-1.4,2-3.2ZM101.4,83h-.5a8.33,8.33,0,0,0-.4,1.5c0,.1-.1.4-.2.9l-.2,1.2h.6A15.28,15.28,0,0,0,101.4,83Zm1.9,17.6c-.2-.2-.4-.3-.6-.5-1,1.7-1.7,2.8-1.9,3.2a3.38,3.38,0,0,0,1.2.6l.7-1.7c.2-.7.5-1.2.6-1.6Zm-1.6-26.4V72.6a8.6,8.6,0,0,0-.1-1.6h-.7a18.41,18.41,0,0,0,.3,3.3l.5-.1Zm.7,8.7h-.5a15.14,15.14,0,0,1-.7,3.7h.7c.2-1.7.3-2.9.5-3.7Zm-.2-8.7h.1v-3h-.2a8.08,8.08,0,0,1,.1,1.6,3.3,3.3,0,0,0,0,1.4Zm1.1,8.5-.5.1a27.5,27.5,0,0,0-.6,3.8l.7-.1a15.81,15.81,0,0,0,.4-3.8ZM104,101c-.1,0-.2-.1-.3-.1l-.6,1.7-.7,1.7c.4.1.8.2,1.3.3a11.14,11.14,0,0,0,.2-1.7A10.89,10.89,0,0,1,104,101Zm-1.2-26.7h.4a9.52,9.52,0,0,0,.1-2.9.9.9,0,0,0-.5-.1Zm1.5,8.2a.75.75,0,0,1-.5.1,25.61,25.61,0,0,1-.3,3.9l.7-.2c.1-1.2.1-2.5.1-3.8Zm-.7-8.1.6.1a8.83,8.83,0,0,1,.2-2.8l-.7-.2a9.52,9.52,0,0,1-.1,2.9Zm1,26.7h-.2a8.6,8.6,0,0,0-.1,1.6,11,11,0,0,1-.2,1.8h1.5a19.06,19.06,0,0,1-1-3.4Zm.3-26.4V71.8a1.45,1.45,0,0,0-.2.7c0,.3,0,.5-.1.6v1.5Zm.4,8v-.6a1.42,1.42,0,0,1-.6.2,25.39,25.39,0,0,1,0,3.9l.6-.2V84.2a.19.19,0,0,1-.1-.3c0-.1,0-.1.1-.2V83a.19.19,0,0,1,0-.3Zm-.2,18.5a20.74,20.74,0,0,0,1,3.3h.1c.4-.1.8-.1,1.2-.2l-1.8-3.1Zm.3-26.3.4.2V72l-.3-.1Zm.3,7.8a6.17,6.17,0,0,0,2.3.2h2.4v-.6a17.86,17.86,0,0,1-2.1-.1c-1.1-.1-2-.1-2.5-.1h0Zm0,1.2a31.18,31.18,0,0,0,4.6,0v-.6H108a8.58,8.58,0,0,1-2.3-.2Zm0,1.1a4.87,4.87,0,0,1,1.2-.1h3.4v-.5h-4.6Zm0,.4v.5h.1a1.14,1.14,0,0,1,.8.3h3.6v-.9h-3.3a4.48,4.48,0,0,1-1.2.1Zm.6,15.6-.2.1,1.8,3c.3-.1.7-.3,1-.4a4.35,4.35,0,0,1-.6-.7l-.6-.7-.6-.6A6.53,6.53,0,0,1,106.3,101Zm-.2-28.8Zm0,1.2a14.76,14.76,0,0,0,4.7.5h.2l.1-.7a20.8,20.8,0,0,1-5-.7v.9Zm.3,1.3a5.87,5.87,0,0,0,2.3.4H111v-.6h-.1a25,25,0,0,1-4.7-.5v.9c-.1-.2.1-.3.2-.2Zm.1-2.4a18.16,18.16,0,0,0,4.6.6v-.8H111c-1.2-.1-2.5-.2-3.7-.2l-.1.1a.91.91,0,0,1-.7.3Zm.2,9.3,1.6.1a18.75,18.75,0,0,0,2.1.1V81a12.28,12.28,0,0,1-1.7-.1c-.8,0-1.3-.1-1.7-.1h0a1.14,1.14,0,0,1-.3.8Zm0-6.3a1.42,1.42,0,0,1,.2.6v.3c1.3,0,2.5,0,3.7.1h.1l.1-1h-2.1a12.1,12.1,0,0,1-1.9-.1Zm0,25.4h0c.2.3.5.6.7.9l.9,1.1.8.8a5.5,5.5,0,0,0,.9-.7l-1.1-.6-1.3-.7c-.3-.2-.6-.5-.9-.7Zm.3-13.1h3.2v-.9h-3.4Zm0-10.5h3.8v-.3h0c-1.2-.1-2.4-.1-3.7-.1Zm0,.8,1.5.1a19.71,19.71,0,0,0,2.1.1h.1v-.6H107Zm0,.8c1.2.2,2.3.4,3.5.5v-.6h0a20.34,20.34,0,0,1-2.2-.1l-1.4-.1v.3Zm0,1.7a12.27,12.27,0,0,1,1.7.1c.8,0,1.3.1,1.7.1v-.9a21.08,21.08,0,0,1-3.5-.5Zm.3,8.5a27.15,27.15,0,0,0,2.9-.1v-.7h-3.1Zm0,11.3c-.1.1-.1.2-.2.2.4.3,1,.6,1.8,1.1.5.3,1,.6,1.4.9a2.18,2.18,0,0,0,.5-.8c0-.1.1-.2.1-.4h-.1c-1.2-.3-2.3-.6-3.5-1Zm.3-10a21.58,21.58,0,0,1,2.8-.2v-.7a28.1,28.1,0,0,1-2.9.1l.1.5Zm0-18.8c1.1,0,2.3.1,3.6.2h0l.1-.7h-3.7v.5Zm0-1.8a25.46,25.46,0,0,0,3.1-.1,13.8,13.8,0,0,0-1.4-.1l-1.7-.1Zm0,.9h3.7v-.6c-1.2.1-2.5.2-3.8.2Zm0,29.3c1.1.4,2.2.7,3.3,1a.1.1,0,0,1,.1.1c0-.3.1-.5.1-.8-1.1-.2-2.2-.4-3.3-.7h0c0,.1-.1.3-.1.4Zm.1-8.5h2.6c0-.2-.1-.5-.1-.8a22.62,22.62,0,0,0-2.7.1Zm.3.8a6.88,6.88,0,0,0,2.5.2v-.7a11.3,11.3,0,0,1-2.6,0l.1.5Zm.1,1.3h2.5l-.1-.6a7.07,7.07,0,0,1-2.5-.2,1.85,1.85,0,0,1,.2.7ZM108,99c.4.1,1.4.3,3.1.7v-.8c-.9-.2-1.9-.5-2.9-.7a.88.88,0,0,1-.1.7Zm.2-4.7h2.5l-.1-.5h-2.5a.76.76,0,0,0,.2.4Zm.1,1.3a6.6,6.6,0,0,0,1.4.1h1.2a2.77,2.77,0,0,0-.1-.9h-2.5a1.45,1.45,0,0,0,.2.7Zm0,2.1a19.07,19.07,0,0,1,2.8.7V97.3h-2.8Zm0-.8H111a2.49,2.49,0,0,0-.1-.8h-1.2a6.6,6.6,0,0,1-1.4-.1Z"/>
  </g>
  <g>
    <path d="M139.9,64.4c.3.2.8.7,1.6,1.4a.66.66,0,0,1,.2.7.44.44,0,0,1-.1.5,6.29,6.29,0,0,1-3.2,2.8,8,8,0,0,1-4.6-.1,7,7,0,0,1-3.9-2.4,14.27,14.27,0,0,1-2.4-6.3,13.81,13.81,0,0,1-.1-6.7,5.28,5.28,0,0,1,2.9-3.6,6.07,6.07,0,0,1,4.2-.3,8.13,8.13,0,0,1,3.9,2.3,7.78,7.78,0,0,1,2.1,4,.6.6,0,0,1-.1.4.68.68,0,0,1-.4.6l-2.2,1c-1.2.5-2.2,1-3,1.3a21.72,21.72,0,0,1-2.4.7v1.4a.9.9,0,0,0,.1.5l.1.3c0,.1.1.3.1.4s.1.2.2.3a3.15,3.15,0,0,0,1.7,1.3,3.76,3.76,0,0,0,2.1.1,5.38,5.38,0,0,0,2-1,.76.76,0,0,1,.5-.2.52.52,0,0,1,.4.2A1.38,1.38,0,0,0,139.9,64.4Zm-9.9-8h-1.5v.5c.5-.2,1-.3,1.5-.5Zm.6.1h0a8.64,8.64,0,0,1-2.1.7v.7a24.54,24.54,0,0,0,2.1-1.4Zm-.2-.6h0a6.36,6.36,0,0,0-1.8-.6l-.1.7h.8a1.38,1.38,0,0,0,1.1-.1Zm.4.9c-.4.3-1.1.8-2.2,1.5v.3a17.23,17.23,0,0,0,2.1-.7h.1a4.05,4.05,0,0,1,0-1.1Zm.1,1.8v-.5a18.66,18.66,0,0,1-2.2.7l.1.5.9-.3.6-.2a1.42,1.42,0,0,0,.6-.2Zm-.7-3.2a6.89,6.89,0,0,1-1.3-1.1l-.1.4c0,.1,0,.1-.1.2.5.2,1,.3,1.5.5Zm.8,3.8V59h0l-.6.2-.6.2-1,.3.1.4,2.1-.9Zm.1.4a8.49,8.49,0,0,0-2.2.9l.1.3V61a22.56,22.56,0,0,0,2.2-1.1Zm-.6-4.4a10.15,10.15,0,0,1-.6-2.5,5.67,5.67,0,0,0-.8,1.3l.4.4.5.5a2.19,2.19,0,0,0,.5.3Zm.5,5.1c-.1.1-.8.4-2,1a2.54,2.54,0,0,0,.2.7h0l.6-.5a2.11,2.11,0,0,1,1.3-.5,1.48,1.48,0,0,1-.1-.7Zm0,1a1.61,1.61,0,0,0-1.1.5l-.6.4-.2.1a6.37,6.37,0,0,1,.2.7c.7-.5,1.3-.9,1.7-1.2a.45.45,0,0,0,0-.5Zm.2,1.3-.1-.4a15.26,15.26,0,0,0-1.6,1.1l.1.4c.2-.2.4-.3.6-.5a8.79,8.79,0,0,0,1-.6Zm.1.6-.1-.3a3.28,3.28,0,0,0-.8.6l-.7.6.2.5.5-.5Zm.3.7a.37.37,0,0,1-.1-.3,5,5,0,0,0-.8.7l-.6.5.3.5a7.47,7.47,0,0,1,1.2-1.4Zm-.6-9.5a8.49,8.49,0,0,1-.3-.9,5.36,5.36,0,0,0-.5-1.1l-.1.1a11.36,11.36,0,0,0,.6,2.5Zm.2-.3.3-.3c-.1,0-.2,0-.2-.1h0a9.36,9.36,0,0,1-.4-1.6c-.1,0-.2.1-.3.2s.3.7.6,1.8Zm.5,10.2a5.66,5.66,0,0,0-1.2,1.5l.3.6a9.91,9.91,0,0,1,1.1-1.7c0-.2,0-.3-.2-.4Zm-.4-4.9v.2c.1,0,.1-.1.2-.1h.1c0-.3-.1-.6-.1-1.1,0-.7-.1-1.1-.1-1.3h-.3a19.53,19.53,0,0,0,.2,2.3Zm1,5.7c0-.1-.1-.1-.1-.2a9.91,9.91,0,0,0-1.1,1.7c0,.1.1.1.1.2.4-.6.7-1.2,1.1-1.7Zm-.2-11.7a8.38,8.38,0,0,0-.2-1,1.76,1.76,0,0,1-.1-.6,1.42,1.42,0,0,0-.6.2,7.49,7.49,0,0,0,.5,1.6v.2a.78.78,0,0,1,.4-.4Zm.8,12.2-.3-.3a9.91,9.91,0,0,0-1.1,1.7l.2.2ZM132,57h-.2c0,.3.1.7.1,1.4,0,.4.1.8.1,1l.3-.1A9.08,9.08,0,0,0,132,57Zm0-1.4a13.38,13.38,0,0,0,2.6-.9,1.8,1.8,0,0,0-1.6-.2,1.82,1.82,0,0,0-1,1.1Zm1.6,10.5c-.1-.1-.3-.1-.4-.2L132,67.5l.7.4a4.67,4.67,0,0,0,.5-1Zm-.8-13a7.57,7.57,0,0,1-.1-1.5h-.6a1.76,1.76,0,0,0,.1.6,8.67,8.67,0,0,0,.2,1h0a.76.76,0,0,0,.4-.1Zm-.3,3.7-.2.1a18.46,18.46,0,0,1,.4,2.3h.2a17.16,17.16,0,0,1-.4-2.4Zm.7-.2-.3.1a20,20,0,0,0,.4,2.4l.4-.1a2,2,0,0,1-.1-.8c0-.3-.1-.6-.1-.9s-.2-.5-.3-.7Zm.4-3.6V51.7l-.7-.1V53Zm.4,13.2h-.1c-.1.2-.1.4-.2.5l-.3.7-.3.6.2.1C133.4,67.9,133.6,67.2,134,66.2Zm-.1-9.8-.4.1a1.85,1.85,0,0,1,.2.7,2.48,2.48,0,0,1,.1.9,3.55,3.55,0,0,0,.1.7l.4-.1a10.63,10.63,0,0,1-.3-1.4,2.22,2.22,0,0,0-.1-.9Zm.6,10-.2-.1a12.36,12.36,0,0,0-.7,1.9l.6.2.1-1a4.4,4.4,0,0,0,.2-1Zm-.3-13.3a4.91,4.91,0,0,1,.3-1.2c-.1,0-.3-.1-.4-.1H134a2,2,0,0,1-.1.7V53Zm0,3.3a3.09,3.09,0,0,0,.2.8,6.12,6.12,0,0,0,.3,1.4l.3-.1-.3-.9Zm.3-.3a5.13,5.13,0,0,0,.5,1.2,6.39,6.39,0,0,0,.4,1l.1-.1a20,20,0,0,0-1-2.1Zm.5,10.4h-.1a6.53,6.53,0,0,1-.2,1.1c0,.3-.1.7-.1,1,.1,0,.3.1.4.1Zm-.2-13.2a8.79,8.79,0,0,1,.6-1l-.5-.2a3.63,3.63,0,0,0-.3,1.1Zm.5,2.5-.3.1c.1.3.4,1,.8,2.2l.5-.2-.2-.4a2,2,0,0,1-.3-.8c-.2-.3-.3-.6-.5-.9Zm.1-2.2a4.43,4.43,0,0,0,.6-1c-.1-.1-.2-.1-.3-.2a3.33,3.33,0,0,0-.6,1Zm-.1,12.9c0,.3,0,1-.1,2.2.2,0,.4.1.6.1a2.49,2.49,0,0,0-.1-.8,4.55,4.55,0,0,0-.1-1.4Zm.3-10.8a4.05,4.05,0,0,1,.5.9c0,.1.2.4.3.8,0,.2.1.3.2.5l1-.5c-.9-1-1.5-1.6-1.7-1.8-.1,0-.2.1-.3.1Zm.2-1.7.7-.1a2.77,2.77,0,0,1,.9-.1l-.3-.3c-.2.1-.7.2-1.3.5Zm0-.5a9.25,9.25,0,0,1,1-.3c-.2-.1-.3-.3-.5-.4,0,.2-.2.4-.5.7Zm.3,1.2h0Zm0,.4h0c.2.3.9,1,1.9,2.1l.6-.3-1.1-.8c-.5-.3-.9-.7-1.4-1Zm0,11.4h0a9.51,9.51,0,0,0,.1,1.4,2.22,2.22,0,0,0,.1.9h.4a12.78,12.78,0,0,1-.6-2.3Zm.2-11.6a6.42,6.42,0,0,1,1.3,1l1.2.9.2-.1-.1-.2-1.5-.9a4.13,4.13,0,0,0-1.1-.7Zm.1-.7c.7.2,1.3.4,2,.6-.2-.3-.4-.5-.6-.8l-1.1.1Zm.1,12.3h-.1c.2.9.3,1.6.5,2.3h.4l-.4-1.1a2.35,2.35,0,0,0-.4-1.2Zm.3-11.7a9.22,9.22,0,0,1,.8.5,7.35,7.35,0,0,1,1.2.8c-.1-.2-.2-.5-.3-.7a4.28,4.28,0,0,0-1.7-.6Zm.4,11.5-.3.1.3,1.1.4,1.2c.1,0,.3-.1.4-.1h.1a15.71,15.71,0,0,1-.9-2.3Zm.6-.2-.3.1a14.46,14.46,0,0,0,.9,2.2l.6-.3a4.69,4.69,0,0,1-.6-1c-.2-.3-.4-.7-.6-1Zm.4-.2h0a4.67,4.67,0,0,0,.5,1l.6.9c.1-.1.1-.2.2-.2a19.65,19.65,0,0,1-1.3-1.7Zm.6-.3-.3.1c.2.3.6.8,1.2,1.6l.1-.1c-.3-.5-.6-1-1-1.6Zm.4,0A6.38,6.38,0,0,1,140,67l.3-.4a8.18,8.18,0,0,0-1.1-1Z"/>
    <path d="M143,49.2a19.58,19.58,0,0,0,3-.1.6.6,0,0,1,.4.1h.1a.68.68,0,0,1,.7.7v.4a8.49,8.49,0,0,1,3.8-.9,5.92,5.92,0,0,1,2.9.7,6.69,6.69,0,0,1,2.1,2,14.76,14.76,0,0,1,1.2,2.9,19.42,19.42,0,0,1,.7,3.3,48.52,48.52,0,0,1,.2,6.6,30.74,30.74,0,0,1-.7,5.3.6.6,0,0,1,.1.4c0,.2-.1.3-.3.5a.76.76,0,0,1-.5.2,23,23,0,0,0-3.7-.2.68.68,0,0,1-.7-.7.52.52,0,0,1,.2-.4c0-.5,0-1.5.1-3.1s.1-2.8.1-3.7a22.81,22.81,0,0,0-.6-6.4,2.83,2.83,0,0,0-1.4-1.8,1.54,1.54,0,0,0-1.9.5c-1.3,1.3-1.9,3.7-1.6,7.1,0,.7.2,1.6.3,2.7s.3,2.2.4,3.1a8.84,8.84,0,0,1,0,2.3v.2a.75.75,0,0,1-.1.5c-.1.1-.3.3-.4.3a15.53,15.53,0,0,1-3.1.3.73.73,0,0,1-.7-.6l-.1-.2a31,31,0,0,1-1-5.3c-.2-2-.3-3.6-.3-5s0-3.2.1-5.5.1-3.9.1-5v-.2a.6.6,0,0,1-.1-.4.68.68,0,0,1,.7-.7Zm2.8,10.6a.9.9,0,0,1,.1-.5c-.3.1-.8.1-1.3.2l-1,.1v.5l1-.2Zm0,.7v-.4l-1.1.2-1.1.2v.4a3.55,3.55,0,0,0,1-.2,4.3,4.3,0,0,1,1.2-.2Zm0,.9v-.5l-1.1.2a6.53,6.53,0,0,1-1.1.2v.4a3.4,3.4,0,0,0,1-.1Zm.2-3.8a4.87,4.87,0,0,0-1.2.1,1.27,1.27,0,0,0-.6.1c-.2,0-.4.1-.6.1v.4h2.3l.1-.3v-.4Zm-.1,1.3v-.3h-2.3v.7l.9-.1c.4-.1.9-.2,1.4-.3Zm0,3.4v-.6h-.4l-.4.1h-.4a3.75,3.75,0,0,1-1.1.1v.3h1.1Zm0,.7v-.4h-2.2V63h2.2Zm0-6.7h-2.2v.3H146v-.3Zm.1,1v-.4h-2.2v.6a.75.75,0,0,0,.5-.1c.2,0,.4-.1.6-.1Zm0,6.8c0-.3-.1-.5-.1-.7l-1.1.1h-1.2l.1.7a15.52,15.52,0,0,1,2.3-.1Zm-.1-8.7a21.05,21.05,0,0,1,.2-2.5,6.52,6.52,0,0,1-2.4.2v.4c.4-.1,1.1-.1,2.1-.2a.2.2,0,0,1,0,.4,14.92,14.92,0,0,0-2.1.2v.5h2.1a.2.2,0,0,1,0,.4h-2.1v.7Zm0,.6v-.3h-2.2V56a8.09,8.09,0,0,1,2.2,0Zm.3,9.2-.1-.7a15.52,15.52,0,0,0-2.3.1l.1.7a5.77,5.77,0,0,1,2.3-.1Zm0-12.7.1-.5c-.1,0-.1-.1-.2-.2a5.86,5.86,0,0,1-2.3.1v.8a8.52,8.52,0,0,0,2.3-.3Zm-.3-1.6v-.3h-2.1V51a11.48,11.48,0,0,0,1.9-.1Zm0,.3a14.77,14.77,0,0,1-2.1.1v.3a5,5,0,0,0,2.1-.1v-.3Zm.4,14.9-.1-.6h-2.4V66a8.85,8.85,0,0,0,2.3,0Zm.1,1-.1-.7a19.27,19.27,0,0,1-2.4-.1c0,.3.1.5.1.8Zm.1.9v-.6h-2.4c0,.2.1.4.1.7h1.3Zm.1,1.1-.1-.7h-2.3c0,.2.1.4.1.7h2.3Zm0,.3h-2.2l.1.5c1.1,0,1.8-.1,2-.1Zm0,.8-2,.1.1.4a11,11,0,0,0,1.8-.2c0-.1,0-.3.1-.3Zm-.3-14.5v1.4c.2-.5.4-.9.6-1.4h0c-.1,0-.2,0-.2-.1h0a13.92,13.92,0,0,1,.1-1.7V52h-.2a18.41,18.41,0,0,0-.3,3.3l.1.1a.77.77,0,0,0-.1.3Zm.9-3.7v2a3.22,3.22,0,0,1-.2,1.5c.1-.1.2-.3.3-.4V51.9h-.1s-.1,0,0,.1Zm1.1-.7-.6.3v3l.2-.2.3-.3a4.59,4.59,0,0,1,.1-1,4.59,4.59,0,0,0,.1-1c0-.2-.2-.4-.1-.8Zm.7-.2c-.1,0-.2.1-.3.1a13.09,13.09,0,0,1,0,2.8l.3-.2V51.1Zm.9-.2-.6.1v2.6l.4-.1a11,11,0,0,1,.2-2.6Zm1-.1h-.7a22.75,22.75,0,0,0-.2,2.6h.3a4.51,4.51,0,0,1,.3-1.3c.1-.4.2-.9.3-1.3Zm1.3.2c-.3-.1-.6-.1-.9-.2l-.3,1.5a4.91,4.91,0,0,0-.3,1.2,1.42,1.42,0,0,1,.6.2h0a8.8,8.8,0,0,1,.5-1.5,2.35,2.35,0,0,1,.4-1.2Zm1.4.6a3.7,3.7,0,0,0-1.1-.5c-.1.3-.2.7-.4,1.3a8.33,8.33,0,0,0-.4,1.5l.2.1c.2-.3.7-1.1,1.7-2.4Zm.8.8a2.65,2.65,0,0,0-.6-.5c-.9,1.2-1.5,2-1.8,2.3l.1.1a28.36,28.36,0,0,1,2.3-1.9Zm.8,1.1a3.51,3.51,0,0,0-.5-.8c-.7.5-1.4,1.1-2.2,1.8l.2.2a8.3,8.3,0,0,1,2.5-1.2Zm.5,1.1a3,3,0,0,0-.4-.8,19.23,19.23,0,0,0-2.5,1.2,2.19,2.19,0,0,0,.3.5,26.72,26.72,0,0,0,2.6-.9Zm.4,1.3c-.1-.3-.2-.7-.3-1a18.61,18.61,0,0,1-2.5,1c.1.2.1.3.2.5v.1a5.54,5.54,0,0,1,2.6-.6Zm.2,1a1.85,1.85,0,0,0-.2-.7,12.21,12.21,0,0,0-2.6.6,4.33,4.33,0,0,0,.1.5,5.28,5.28,0,0,1,1.3-.1,3.19,3.19,0,0,0,1.4-.3Zm.3,1.1-.1-.7a3.19,3.19,0,0,1-1.4.3,4.87,4.87,0,0,0-1.2.1c0,.2.1.4.1.6l1.8-.2Zm0,.3-.9.1-1.8.2.1.7h2.7c0-.3-.1-.5-.1-.8Zm-.3,10.6-2.3-.4v.4h1.2a4.87,4.87,0,0,1,1.2.1Zm-.1.4h-2.3v.4a17,17,0,0,1,2.2.1,1.09,1.09,0,0,1,.1-.5Zm.6-9.3v-.4h-2.7V60h1.8c.2-.1.5,0,.9,0Zm-.3,7.7a10.3,10.3,0,0,1-1.3-.1,2.66,2.66,0,0,1-1.2-.3v.8l2.4.4Zm.3-7v-.3H154V61a14.07,14.07,0,0,1,2.8-.3Zm-.1,5.7a24.4,24.4,0,0,1-2.6-.1V67a5,5,0,0,0,1.2.2l1.3.1a1.41,1.41,0,0,1,.1-.9Zm.1-4.5V61c-.8,0-1.7.2-2.7.3v.3c.3,0,.8.1,1.4.1Zm0,2H154v.8h1.1l1.4.1c.1,0,.2,0,.2.1h0Zm0,1.1c0,.1-.1.1-.2.1l-1.5-.2H154v.9a25.35,25.35,0,0,0,2.6.1Zm0-2.7-1.4-.3c-.7,0-1.1-.1-1.4-.1v.6a24.37,24.37,0,0,0,2.7.1Zm0,1.3V63a24.37,24.37,0,0,1-2.7-.1v.7Z"/>
  </g>
  <g>
    <path d="M230.6,101.5c.5.4,1.7,1.5,3.5,3.1a1.15,1.15,0,0,1,.4,1.5,1.67,1.67,0,0,1-.1,1.2c-2,3.2-4.3,5.1-6.8,5.9a17.22,17.22,0,0,1-9.8-.2,15.26,15.26,0,0,1-8.3-5c-2.2-2.8-3.9-7.3-5.1-13.4s-1.3-10.9-.3-14.3a11.39,11.39,0,0,1,6.1-7.6,12.69,12.69,0,0,1,9-.6,17.52,17.52,0,0,1,8.4,4.9,15.27,15.27,0,0,1,4.4,8.4,2.77,2.77,0,0,1-.1.9,1.11,1.11,0,0,1-.9,1.2c-.6.2-2.1.9-4.7,2.1s-4.7,2.1-6.4,2.7a44.44,44.44,0,0,1-5.2,1.5,3.44,3.44,0,0,0,.1.9,4.14,4.14,0,0,1,.1,1,2.77,2.77,0,0,0,.1.9c0,.4.1.7.1.9l.1.7.3.9a1.61,1.61,0,0,0,.4.7,6.86,6.86,0,0,0,3.4,2.9,8,8,0,0,0,4.6.2,9.81,9.81,0,0,0,4.3-2.2,1.5,1.5,0,0,1,1.1-.4,1.05,1.05,0,0,1,.9.5A5.74,5.74,0,0,1,230.6,101.5Zm-21-17a3.3,3.3,0,0,1-1.4,0h-1.8v.9a22.27,22.27,0,0,0,3.2-.9Zm1.3.2h0a33.92,33.92,0,0,1-4.5,1.5,7.57,7.57,0,0,0,.1,1.5c2-1.3,3.5-2.3,4.4-3Zm-.5-1.1h0a10.58,10.58,0,0,0-3.9-1.3l-.1,1.5h1.8a5.5,5.5,0,0,0,2.2-.2Zm.7,1.8c-.8.6-2.4,1.7-4.7,3.2a1.27,1.27,0,0,0,.1.6,33.92,33.92,0,0,0,4.5-1.5h.2c0-.8-.1-1.5-.1-2.3Zm.3,3.9c0-.3-.1-.6-.1-.9a26,26,0,0,1-4.7,1.6l.1,1a6.64,6.64,0,0,0,2-.6l1.3-.5a9.75,9.75,0,0,0,1.4-.6ZM210,82.5a31.12,31.12,0,0,1-2.8-2.3l-.3.9c0,.2-.1.3-.1.5A11.72,11.72,0,0,1,210,82.5Zm1.8,8.1-.1-.5h-.1l-1.2.4-1.2.5a14.16,14.16,0,0,1-2.2.7l.1.9a15.16,15.16,0,0,1,4.7-2Zm.1.7a21.43,21.43,0,0,0-4.7,2l.1.7v.2a40.18,40.18,0,0,0,4.6-2.4ZM210.5,82a24.75,24.75,0,0,1-1.3-5.2,12.71,12.71,0,0,0-1.8,2.7l.9.9,1.1,1.1A2.81,2.81,0,0,1,210.5,82Zm1.2,10.8q-.45.3-4.2,2.1a10.26,10.26,0,0,0,.4,1.4l.1-.1,1.2-.9a5.36,5.36,0,0,1,2.7-1.1,5.9,5.9,0,0,1-.2-1.4Zm.1,2.1a5,5,0,0,0-2.3.9l-1.2.9-.4.2c.1.5.3.9.4,1.4,1.6-1.2,2.7-2,3.6-2.6a5.38,5.38,0,0,1-.1-.8Zm.3,2.7-.1-.9a26.16,26.16,0,0,0-3.4,2.4l.3.9a10.59,10.59,0,0,1,1.2-1,24.26,24.26,0,0,0,2-1.4Zm.3,1.5-.1-.7c-.4.3-1,.7-1.7,1.2l-1.5,1.2.4.9,1-.9Zm.6,1.5a4.88,4.88,0,0,1-.3-.7,8,8,0,0,0-1.7,1.5l-1.2,1.2.6,1.2a11.77,11.77,0,0,1,2.6-3.2Zm-1.2-20.3c-.1-.2-.3-.8-.7-1.9a16,16,0,0,0-1-2.3l-.1.2a23.11,23.11,0,0,0,1.2,5.2,2.73,2.73,0,0,1,.6-1.2Zm.5-.7a2,2,0,0,1,.6-.7.44.44,0,0,1-.5-.1v-.1a20,20,0,0,1-.9-3.5,1.61,1.61,0,0,0-.7.4c.1.3.6,1.7,1.5,4Zm1,21.6a13.51,13.51,0,0,0-2.6,3.2c.2.4.5.8.7,1.2a16.94,16.94,0,0,1,2.3-3.6l-.4-.8Zm-.8-10.3.1.4a.76.76,0,0,1,.5-.2h.1c-.1-.5-.2-1.3-.3-2.3-.1-1.3-.2-2.3-.3-2.8a2,2,0,0,1-.7-.1,41,41,0,0,0,.6,4.9v.1Zm2.1,12.1a1.38,1.38,0,0,1-.3-.4,20.62,20.62,0,0,0-2.3,3.7c.1.1.2.3.3.4A17.62,17.62,0,0,1,214.6,103ZM214,78c-.1-.4-.2-1.2-.4-2.2a8.57,8.57,0,0,0-.3-1.3,5.64,5.64,0,0,0-1.2.4,14,14,0,0,0,1,3.5c.1.1,0,.3-.1.4a8.75,8.75,0,0,1,1-.8Zm1.8,26c-.2-.2-.5-.4-.7-.6a27.4,27.4,0,0,0-2.3,3.6l.5.5Zm-2-18.4c-.2,0-.3.1-.5.1.1.6.2,1.6.3,2.9.1.9.2,1.6.3,2.2l.7-.2a27.81,27.81,0,0,0-.8-4.9Zm-.1-3a35.75,35.75,0,0,0,5.5-1.9,4,4,0,0,0-3.4-.4,4.36,4.36,0,0,0-2.1,2.5Zm3.5,22.3a2.18,2.18,0,0,1-.8-.5l-2.4,3.7,1.5.9a22.56,22.56,0,0,0,1.1-2.2,9.91,9.91,0,0,1,.7-1.6Zm-1.9-27.6a16.08,16.08,0,0,1-.1-3.1,4.87,4.87,0,0,0-1.2.1,4.51,4.51,0,0,0,.3,1.3c.2.9.3,1.6.4,2l.1-.1h.6Zm-.4,8-.4.2a42.09,42.09,0,0,1,.9,4.9l.4-.1a26.38,26.38,0,0,1-.8-4.9Zm1.4-.5-.7.2a27.45,27.45,0,0,0,.8,5l.9-.3c-.1-.5-.2-1.1-.3-1.6-.1-.7-.2-1.4-.3-1.9a6.47,6.47,0,0,0-.4-1.3Zm.9-7.7a5.38,5.38,0,0,1,.1-1.1c0-.7.1-1.3.1-1.7l-1.5-.2a24.51,24.51,0,0,0,.1,3,5.7,5.7,0,0,1,1.3.1Zm.9,28.2-.2-.1a6.12,6.12,0,0,1-.5,1.2l-.7,1.6-.6,1.2.5.2c.2-.6.7-1.9,1.5-4Zm-.3-21-.9.3a8.8,8.8,0,0,1,.5,1.5c.1.5.2,1.2.3,1.9s.2,1.3.2,1.5l.9-.3c-.2-.7-.4-1.7-.7-3.1-.1-.7-.2-1.3-.3-1.7Zm1.4,21.3c-.1,0-.2-.1-.4-.2a28.63,28.63,0,0,0-1.5,4.1,5,5,0,0,0,1.3.4l.2-2c.2-.9.3-1.6.4-2.2Zm-.6-28.3c.1-.4.3-1.3.7-2.5a2.35,2.35,0,0,0-.8-.2c-.1,0-.2-.1-.4-.1,0,.3-.1.8-.1,1.5v1.1Zm0,7c.1.4.2,1,.4,1.8.3,1.6.5,2.5.6,2.9l.7-.3-.7-2Zm.6-.5a25.14,25.14,0,0,0,1,2.6c.5,1.2.7,1.8.8,2l.2-.2a36.57,36.57,0,0,0-1.8-4.6Zm1,22h-.3c-.1.5-.2,1.3-.4,2.3l-.3,2.1c.3.1.6.1.9.2a36.89,36.89,0,0,0,.1-4.4Zm-.6-28.1a7.71,7.71,0,0,1,1.4-2.1l-1-.3a13.5,13.5,0,0,0-.6,2.4c.1.1.2.1.4.1Zm1.1,5.5-.7.3a49.27,49.27,0,0,1,1.8,4.7l1.1-.5-.4-.9c-.3-.8-.6-1.3-.7-1.6a5.85,5.85,0,0,0-1-1.7Zm.3-4.8c.8-1.2,1.2-1.9,1.3-2.1a4.35,4.35,0,0,0-.7-.4,14.29,14.29,0,0,0-1.4,2Zm-.1,27.6c0,.5,0,2.1-.1,4.6.4.1.8.1,1.2.2,0-.4-.1-1-.1-1.8,0-1.5-.1-2.5-.1-3Zm.5-23a11.78,11.78,0,0,1,1.1,1.9c.1.3.3.8.6,1.6a3.55,3.55,0,0,0,.4.9l2.1-.9q-2.85-3.15-3.6-3.9c-.1.1-.3.2-.4.3Zm.6-3.7a12.54,12.54,0,0,0,1.5-.2,13.55,13.55,0,0,1,2-.2l-.7-.7c-.6.2-1.5.6-2.8,1Zm0-.9c.9-.3,1.6-.5,2.1-.7a4.44,4.44,0,0,0-1.1-.8,4.8,4.8,0,0,1-1,1.5Zm.5,2.6-.2-.1.1.1Zm0,.8c0,.1,0,.2-.1.2.5.5,1.8,1.9,4,4.2l1.2-.6a13,13,0,0,1-2.3-1.8,28.32,28.32,0,0,0-2.8-2Zm0,24.2h0c0,.5,0,1.5.1,3,0,.8.1,1.4.1,1.8h.8C223.2,109.4,222.9,107.8,222.5,106Zm.5-24.7a14.2,14.2,0,0,1,2.8,2,25.6,25.6,0,0,0,2.6,2l.5-.2-.1-.4-3.3-2A12.29,12.29,0,0,0,223,81.3Zm.2-1.4c1.4.5,2.8.9,4.1,1.3-.4-.6-.8-1.1-1.2-1.6l-2.4.2Zm.4,26a.37.37,0,0,0-.3.1c.3,1.8.7,3.5,1,4.9.3,0,.5-.1.8-.1l-.8-2.4c-.3-1-.6-1.9-.7-2.5Zm.5-24.9a13,13,0,0,0,1.8,1,23,23,0,0,0,2.6,1.6,10.09,10.09,0,0,0-.7-1.5C226.6,81.8,225.4,81.4,224.1,81Zm.8,24.6-.7.2.7,2.4c.5,1.3.8,2.2.9,2.5a2.92,2.92,0,0,0,.9-.2c.1,0,.1,0,.1-.1a47.8,47.8,0,0,1-1.9-4.8Zm1.4-.5c-.2.1-.4.1-.6.2a27.65,27.65,0,0,0,2,4.7c.4-.2.8-.5,1.2-.7-.1-.2-.6-.9-1.3-2a7.1,7.1,0,0,1-1.3-2.2Zm.8-.3-.1.1a8.18,8.18,0,0,0,1.2,2c.7,1.2,1.1,1.8,1.2,2a1.21,1.21,0,0,1,.5-.5,29.3,29.3,0,0,1-2.8-3.6Zm1.2-.7-.6.3a37.27,37.27,0,0,0,2.6,3.3l.1-.2c-.6-1.1-1.3-2.2-2.1-3.4Zm1,.1c.6.9,1.2,1.9,1.7,2.8l.6-.9a20.75,20.75,0,0,1-2.3-1.9Z"/>
    <path d="M258.4,111.3a52.74,52.74,0,0,1-16.1,4.4,1.13,1.13,0,0,1-1.1-.3,1.19,1.19,0,0,1-.5-.9,1.06,1.06,0,0,1,.1-.8c-1.9-3.8-3.2-9.1-4-15.9-.2-2.3-.5-5.3-.7-9q-.3-5.85-.6-8.1c-.1-1-.2-2.3-.4-4.1l-.4-4.2c-.1-1-.3-2.4-.4-4.2s-.2-3.2-.2-4.3.1-2.5.2-4.3a1.8,1.8,0,0,1,.4-.9,1.22,1.22,0,0,1,.9-.4c.1,0,.1,0,.1-.1l8.4-1.6a1.13,1.13,0,0,1,1.1.3,1.15,1.15,0,0,1,.6.9,1.73,1.73,0,0,1-.1,1c-.4,17.9.6,33.2,3.2,45.7l2.3-.7c1.5-.5,2.7-.9,3.5-1.2a2.09,2.09,0,0,1,.6-.4,1.39,1.39,0,0,1,1.1.2,1.15,1.15,0,0,1,.6.9c.2,1,.8,2.8,1.7,5.5,0,.1,0,.1.1.2a.76.76,0,0,1,.2.4,1.38,1.38,0,0,1,.1,1.1C259.1,110.8,258.8,111.1,258.4,111.3ZM237,64v1.5a58.52,58.52,0,0,1,4.5-5.4l-1.8.4c-.5.7-1,1.4-1.6,2.1Zm0-1.1.6-.7a14.31,14.31,0,0,0,1.1-1.5l-1.6.4A10.28,10.28,0,0,0,237,62.9Zm.1,4.7a21.1,21.1,0,0,1,1.9-2.3,41.36,41.36,0,0,0,3.7-4.6v-.1h0a1.7,1.7,0,0,1,.1-.7h-.1a52.66,52.66,0,0,0-5.7,6.8,2.22,2.22,0,0,0,.1.9Zm.2,2a62,62,0,0,1,5.5-6V61.9l-3.3,3.9a32.53,32.53,0,0,0-2.3,2.9,2.77,2.77,0,0,0,.1.9Zm.1,1a14.05,14.05,0,0,0,.2,1.8l1.8-2.1,2-2.5a18.19,18.19,0,0,0,1.5-2.3v-.9a40.7,40.7,0,0,0-5.2,5.8c-.2.2-.3.2-.3.2Zm.4,4.2,1.8-2a20.26,20.26,0,0,0,3.3-4.4V67c-.6.8-1.5,2-2.7,3.5s-2,2.5-2.5,3.1Zm.3,2.3,2-2.4a19,19,0,0,0,2.6-3.7c0-.1,0-.1.1-.2v-1a22.41,22.41,0,0,1-2.7,3.4c-1.2,1.3-1.9,2.2-2.2,2.5Zm.1,1,.1,1.8a48.08,48.08,0,0,0,4.5-6.6c0-.4-.1-.7-.1-1.1a34.57,34.57,0,0,1-2.2,3.1c-1.3,1.7-2.2,2.7-2.3,2.8Zm.4,3.9,4.4-5.8c0-.5-.1-1.1-.1-1.6a54.67,54.67,0,0,1-4.4,6.3,3.75,3.75,0,0,0,.1,1.1Zm.2,2.9,4.2-5.8a9.7,9.7,0,0,0-.1-1.7l-4.3,5.8c.1.5.1,1.1.2,1.7Zm3.4-3.4-3.3,4.6.1.7,1.3-2a25.94,25.94,0,0,0,1.9-3.3Zm-3.2,7,1.5-1.8a24.41,24.41,0,0,0,2.8-4.3c0-.5-.1-1-.1-1.5a20.57,20.57,0,0,1-2.3,4.4L239,88.1Zm.1,2.5a40.5,40.5,0,0,1,4.2-6l-.1-1.2a25.38,25.38,0,0,1-2.3,3.4l-2,2.5Zm.1,1.2a19.52,19.52,0,0,1,.2,2.3,39.24,39.24,0,0,0,4.1-7.5l-.1-1a51.91,51.91,0,0,0-4.2,6.2Zm.4,4.2a51.58,51.58,0,0,1,4.3-6.1l-.1-1.8a33.34,33.34,0,0,1-4.2,7Zm.2,2.1a67.48,67.48,0,0,1,4.3-6l-.1-1.2q-1.2,1.5-4.2,6.3Zm.1,1.2c.1.8.3,1.6.4,2.3a32.5,32.5,0,0,1,1.9-3.4l2.3-3.4-.2-1.6c-1.9,2.4-3.3,4.4-4.4,6.1Zm.8,4.5c.4-.7,1.1-1.7,2-3.1a23,23,0,0,0,2.1-3.3l-.2-1.6-1.8,2.7a26.38,26.38,0,0,0-2.3,4.4Zm.6,2.1a33.71,33.71,0,0,1,1.9-3.2c1-1.5,1.6-2.5,2-3.1l-.1-1-1.8,2.6c-.8,1.2-1.6,2.5-2.3,3.8Zm.2,1.2.2.7a15.35,15.35,0,0,1,3.9-5.5l-.3-1.5a21.28,21.28,0,0,1-1.6,2.5,19.92,19.92,0,0,0-2.2,3.8Zm.8,2.2a35,35,0,0,1,3.6-5.8l-.1-.4a15.84,15.84,0,0,0-3.6,5.6.1.1,0,0,0-.1.1h0Zm.5,1.6,1.5-2.7a22.11,22.11,0,0,0,1.8-3.4l-.1-.2a30.42,30.42,0,0,0-3.4,5.8Zm.5.8.2.4a5,5,0,0,0,1.2-.2c.9-1.5,1.7-3,2.5-4.6a1.44,1.44,0,0,1-1-1l-.1-.1c-.4.8-.8,1.5-1.2,2.2-.5,1.2-1.1,2.2-1.6,3.3Zm3.3-.1c.2-.6.8-2.1,1.8-4.3l-.4.1-.1.1a36.79,36.79,0,0,1-2.3,4.4Zm.8-.2,2-.4a28.64,28.64,0,0,1,2.2-4.7c-.9.3-1.7.6-2.3.8-1.3,2.8-1.9,4.3-1.9,4.3Zm4.3-1,.9-2.8.7-1.8-.7.2c-1.2,2.3-2,3.9-2.3,4.7l1.4-.3Zm.9-.3,1.5-.6.6-1.8.4-1.2c-.1-.4-.3-.9-.4-1.3l-.7.2-.7,2.3c-.3,1.1-.5,1.8-.7,2.4Zm2.4-.9,1-.4-.4-1.1-.1.2Z"/>
    <path d="M259.6,93.8q.15-3.3,0-6.3a1.27,1.27,0,0,1,.1-.6v-.2a1.5,1.5,0,0,1,.4-1.1,1.23,1.23,0,0,1,1-.5l4.8-.3a55.18,55.18,0,0,1,.4-12.2c.8-5.7,2.5-9.8,5-12.5a13,13,0,0,1,8.1-3.7c5.2-.7,9.3.9,12.2,4.7a26.57,26.57,0,0,1,4.2,10.7l.3.4a1.6,1.6,0,0,1-.1,1.5,1.39,1.39,0,0,1-1.2,1.3,1.27,1.27,0,0,1-.6-.1c-1.9,1-4,1.9-6.1,2.8H288c-.2.1-.5.2-.7.3a1.49,1.49,0,0,1-1-.3,1.23,1.23,0,0,1-.5-1,14.93,14.93,0,0,0-2.6-6.7c-.8-1.3-1.6-1.9-2.3-2s-1.4.4-2,1.5a15,15,0,0,0-1.5,5.1,39.74,39.74,0,0,0-.5,9.1l2.1-.4a19.18,19.18,0,0,0,3-.6,1.72,1.72,0,0,1,1.2.2,1.49,1.49,0,0,1,1.2,1.2c.5,3.2.9,5.3,1,6.4V91a1.33,1.33,0,0,1-1,1.5,45.78,45.78,0,0,1-7.3,1.8c0,1.3,0,3.2-.1,5.5a51.69,51.69,0,0,0-.1,6.8,101.68,101.68,0,0,0,2,12.3v.6a1.28,1.28,0,0,1-.9,1.6,12.54,12.54,0,0,1-2.5.9,21.68,21.68,0,0,1-3,.8,10.21,10.21,0,0,0-2.3.6,3,3,0,0,1-2.4-1.9l-.2-1.5c-.5-3.5-.9-6.3-1.1-8.3a67.93,67.93,0,0,1-.4-7.8,40.66,40.66,0,0,1,.7-8.5l-4.7.6a1.42,1.42,0,0,1-1.5-.9A1.31,1.31,0,0,1,259.6,93.8Zm3.4-5.7h-.4v4.8h.4C262.9,90.1,263,88.5,263,88.1Zm1-.1h-.2c-.1,1.6-.1,3.2-.1,4.8l.2-.1c.1-1.5.1-3.1.1-4.7Zm1.3-.2-.7.1c0,1.6,0,3.2-.1,4.7l.7-.1V87.8Zm1.2,0-.4.1v4.7l.4-.1a33.48,33.48,0,0,1,0-4.7Zm1.2.5v-.6h-.5v4.6h.2c.1-.1.2-.1.3-.2v-1c-.2-.1-.3-.3-.2-.4s.1-.2.2-.3V89h-.1c-.2-.1-.3-.2-.3-.4A.54.54,0,0,1,267.7,88.3Zm6.5,0c0-.4-.1-.8-.1-1.2h-.6c-.3.1-.6.1-.8.2s-.7.1-1,.1a11.45,11.45,0,0,1-3.2-.1v1.2a27.2,27.2,0,0,0,5.7-.2Zm.2,2-.2-1.3a28.16,28.16,0,0,1-5.8.2v1.3a12.1,12.1,0,0,0,1.9.1l2-.2c1,0,1.6-.1,2.1-.1Zm0,.7a15.77,15.77,0,0,0-1.9.1,20.05,20.05,0,0,1-4,0V92a36.22,36.22,0,0,0,5.7-.2c.1-.1.2-.3.4-.4Zm-5.8,1.8a4.87,4.87,0,0,1,.3.7v.3a1.79,1.79,0,0,1,.5.7c1.2-.2,2.7-.4,4.6-.6a3.4,3.4,0,0,0-.1-1v-.2a31.08,31.08,0,0,1-5.3.1Zm0,9.6c1.7.1,3.4.1,5.1.1a6.15,6.15,0,0,1,.1-1.3,29,29,0,0,0-5.1.2,3.08,3.08,0,0,0-.1,1Zm0,1.4c.4,0,2,.1,4.7.1.1,0,.2,0,.3.2v-.8a41.73,41.73,0,0,1-5-.1Zm0,1.9h5.1v-1.2c-.1.1-.2.2-.3.2a42.86,42.86,0,0,1-4.7-.1Zm.1-26.3h5.1a2.77,2.77,0,0,1,.1-.9h-5.2Zm0,1.4,5,.2c0-.3.1-.6.1-.9h-5.1Zm.1,2.4h5c0-.5-.1-1-.1-1.5l-5-.2a8.63,8.63,0,0,0,.1,1.7Zm-.1,17.4a29,29,0,0,1,5.1-.2l.1-.9v-.2a44.62,44.62,0,0,0-5.1.7,1.76,1.76,0,0,0-.1.6Zm0,6.4c1.1,0,2.8-.1,5-.1v-.5h-5Zm.1-29.2H274a3.4,3.4,0,0,1,.1-1h-5.2a1.8,1.8,0,0,0-.1,1Zm0,7.2a41.7,41.7,0,0,0,5,0c0-.4-.1-.7-.1-1.1h-5a4.48,4.48,0,0,1,.1,1.1Zm0,23.9a29,29,0,0,0,5.1-.1l-.1-1.2c-2.3,0-3.9,0-5,.1v1.2ZM274,86.4l-.1-.6a41.7,41.7,0,0,1-5,0v.3a.9.9,0,0,1-.1.5,13.09,13.09,0,0,0,2.8,0,3.4,3.4,0,0,0,1-.1,1.88,1.88,0,0,0,.8-.2h.6Zm-5.2,13c2-.3,3.7-.6,5.1-.7V98c-2.5.1-4.2.1-5,.1Zm.1-23.3h5.2c0-.3.1-.6.1-1a31.53,31.53,0,0,0-5.3.4Zm.1,34.4h5.1a2.77,2.77,0,0,0-.1-.9,43.49,43.49,0,0,1-5.1.2Zm0-35.8c1.6-.2,3.3-.3,5.3-.4l.1-.2a2,2,0,0,1,.1-.7c-1.3,0-3.1.1-5.3.2Zm0,22.6c.7,0,2.4,0,5-.1v-.5c-3.1.3-4.7.5-5,.6Zm.1,15.2c.4,0,1.1-.1,2-.2,1.4-.1,2.5-.2,3.2-.2l-.1-.9H269a6.15,6.15,0,0,1,.1,1.3Zm0-39.5c2.2-.1,4-.2,5.4-.2l.1-.2c-.6,0-1.5-.1-2.7-.2s-2-.1-2.6-.2a1.88,1.88,0,0,1-.2.8Zm0,23.5c.2,0,1.8-.2,4.8-.5V94.6c-1.8.2-3.4.4-4.5.6v.1a2.66,2.66,0,0,1-.3,1.2Zm.2,17.5a18,18,0,0,0,5.2-.5l-.1-.7c-.7,0-1.7.1-3.2.2-.7.1-1.3.1-2,.2Zm.1-42.4c.6,0,1.4.1,2.5.2,1.3.1,2.2.1,2.8.2a7.37,7.37,0,0,1,.4-1.4,24.82,24.82,0,0,0-5.4-.6,11,11,0,0,1-.3,1.6Zm.2,44.5a13.51,13.51,0,0,1,2.8-.4,4.87,4.87,0,0,1,1.2-.1,4.87,4.87,0,0,0,1.2-.1l-.2-1.2a15.1,15.1,0,0,1-5.2.5Zm.2,1.4c3-.5,4.7-.9,5.2-1l-.1-.4a4.87,4.87,0,0,1-1.2.1,6.15,6.15,0,0,0-1.3.1,27,27,0,0,0-2.8.4Zm.2,1.6c.7-.1,2.5-.4,5.4-1l-.2-.9c-.6.2-2.4.5-5.3,1Zm0-49.9a20,20,0,0,1,5.4.7c.1-.2.2-.3.2-.5a13.6,13.6,0,0,1-2-.6l-3.2-1.2Zm.1,50.7.1.4c2.7-.7,4.3-1.1,4.9-1.2-2.5.4-4.1.7-5,.8Zm.6-52.9,3.3,1.1c.8.3,1.4.5,2,.7l.3-.6.2-.3a10,10,0,0,1-2.9-1,24,24,0,0,0-2.3-1.1,3.38,3.38,0,0,0-.6,1.2Zm.8-1.9a24.42,24.42,0,0,1,2.4,1,10.6,10.6,0,0,0,3,1,2.65,2.65,0,0,1,.5-.6c-.6-.3-1.2-.8-2-1.3L273.7,64a7.46,7.46,0,0,0-1.2-.7,16.18,16.18,0,0,0-1,1.8Zm1.4-2.4,1.1.7,1.7,1.2a25.29,25.29,0,0,0,2.2,1.3c.2-.1.3-.2.5-.3a16.65,16.65,0,0,0-3.9-4.5,10.59,10.59,0,0,0-1.2,1c-.1.3-.3.4-.4.6ZM275.1,91l.1.3a2.92,2.92,0,0,1,.9.2l.3-.1a20,20,0,0,1-.5-2.6,2.92,2.92,0,0,1-.2-.9c-.1-.5-.1-.9-.2-1.2,0,.1-.2.2-.3.2h-.4c.1.6.2,1.8.4,3.3.1.1.2.2.1.3A.59.59,0,0,1,275.1,91Zm.1-30.2a22.18,22.18,0,0,1,3.9,4.7l.1-.1a13.87,13.87,0,0,1-1.1-1.9,16.46,16.46,0,0,0-2-3.1,3.55,3.55,0,0,0-.9.4Zm2.4,30.4a21.62,21.62,0,0,1-1-4.4l-.4.1a8.91,8.91,0,0,0,.2,1.1,1.88,1.88,0,0,0,.2.8,23.81,23.81,0,0,0,.5,2.6ZM276.8,60a19.82,19.82,0,0,1,1.9,3.1,15.16,15.16,0,0,0,1.2,2.1h.1a11.47,11.47,0,0,0-.2-1.4,3,3,0,0,0-.2-1,16.65,16.65,0,0,0-.8-3.2A11.8,11.8,0,0,0,276.8,60Zm2.6,30.8c-.2-.5-.6-2-1.2-4.4a2.35,2.35,0,0,1-.8.2,21.62,21.62,0,0,0,1,4.4,4.4,4.4,0,0,0,1-.2Zm1.4-.4c-.4-1.3-.8-2.8-1.2-4.3l-.4.1-.3.1c.6,2.4,1,3.8,1.2,4.4Zm-1.4-31.1a16.65,16.65,0,0,1,.8,3.2,4.25,4.25,0,0,0,.2,1.1q.15.9.3,1.5h.3a28.31,28.31,0,0,0-.4-5.8,3.75,3.75,0,0,0-1,.1h-.2Zm2,31,.6-.3-.7-4.2a5.16,5.16,0,0,0-1.1.2c.4,1.5.8,3,1.2,4.3Zm0-31.1a40.32,40.32,0,0,1,.4,6c.1,0,.2.1.4.1a30.53,30.53,0,0,0,.6-6,7.08,7.08,0,0,0-1.4-.1Zm2,.1a27,27,0,0,1-.7,6.3l.3.2a7.37,7.37,0,0,0,.6-1.1l.7-1.4a9.7,9.7,0,0,0,1-3.3h0c-.7-.3-1.3-.5-1.9-.7Zm2.6.9a10.8,10.8,0,0,1-1,3.5l-.6,1.4a7.46,7.46,0,0,1-.7,1.2,2.18,2.18,0,0,1,.5.4,24.77,24.77,0,0,1,1.9-2.6c1-1.2,1.6-2,2-2.4a8,8,0,0,0-2.1-1.5Zm2.5,1.9c-.3.4-.9,1.2-1.9,2.4a13.5,13.5,0,0,0-2,2.7,9.22,9.22,0,0,0,.5.8,20.45,20.45,0,0,1,4.8-4,7.63,7.63,0,0,0-.8-1.1c-.2-.3-.4-.5-.6-.8Zm1.8,2.6a16.4,16.4,0,0,0-4.7,4l.5.9a18.81,18.81,0,0,1,5.1-3.1,15,15,0,0,0-.9-1.8Zm1.1,2.4a15,15,0,0,0-4.9,3.1h-.1l.6,1.2c.7-.5,1.5-1,2.6-1.7l2.2-1.2a7.37,7.37,0,0,0-.4-1.4Zm.6,2-2,1.2L287.3,72c.1.4.3.8.4,1.1.3-.1,1-.6,2.3-1.4a7.45,7.45,0,0,1,2.5-1.3c-.2-.4-.3-.8-.5-1.3Zm.5,2a12.68,12.68,0,0,0-2.3,1.2,11.36,11.36,0,0,1-2.3,1.5c0,.2.1.5.1.7,1.6-.7,3.2-1.4,4.7-2.2a1.72,1.72,0,0,0-.2-1.2Z"/>
    <path d="M307.5,74.8a1.78,1.78,0,0,1,.4,1c0,13.2-.2,25.8-.5,37.7a1.78,1.78,0,0,1-.4,1,1.5,1.5,0,0,1-1.1.4h-.2a5.9,5.9,0,0,0-1.4.2l-1,.2-.5.1h-3a1.45,1.45,0,0,1-.7-.2A1.28,1.28,0,0,1,298,114c-.3-3.1-.5-6.2-.5-9.4s0-6.5.3-9.8.5-6.4.7-9.1.6-5.9,1-9.5a1.23,1.23,0,0,1,.4-.8,1.22,1.22,0,0,1,1.3-1.1l5.2-.2C306.7,73.9,307.2,74.2,307.5,74.8Zm-2.7-17.4a7.21,7.21,0,0,1,4.4,3,6.49,6.49,0,0,1,1.1,4.5,5.35,5.35,0,0,1-2.6,3.9,6.34,6.34,0,0,1-5.2.5,7.51,7.51,0,0,1-3.9-2.7,6.85,6.85,0,0,1-1.4-4.2,5.28,5.28,0,0,1,1.9-4A6.62,6.62,0,0,1,304,57C304.3,57.1,304.5,57.3,304.8,57.4Zm-.1,42.3.1-1.8a41.72,41.72,0,0,0-4.7,3.6v2.9C300.9,103.5,302.4,101.9,304.7,99.7Zm-3.3-39.3a2.24,2.24,0,0,0-1.2,1.9A15.73,15.73,0,0,0,301.4,60.4Zm3.4,33.4c0-.6.1-1.3.1-1.9a12.49,12.49,0,0,0-1.2.9c-.4.4-.8.7-1.1,1l-1.2,1.1a5.24,5.24,0,0,0-1,1.1l-.1,2.1a37.08,37.08,0,0,1,4.5-4.3Zm0,3.2V94.8c-1.6,1.4-3.1,2.9-4.6,4.5v1.2a55.53,55.53,0,0,1,4.6-3.5Zm-.2,6.2c0-.8.1-1.6.1-2.5a61.39,61.39,0,0,0-4.3,4.5.22.22,0,0,1-.2.2v1.8a27.89,27.89,0,0,1,4.4-4Zm-4-40.3-.4.4.1.1a2.19,2.19,0,0,0,.3-.5Zm4,43.5.1-2.3a28.51,28.51,0,0,0-4.4,4.1l.1,3c.3-.3,1-1.1,2.1-2.3.7-.8,1.4-1.6,2.1-2.5Zm.2-15.4V88.7a40.87,40.87,0,0,0-4.4,3.9l-.1,2.4A33.91,33.91,0,0,1,304.8,91Zm-.3,18.2v-1.6l-1.5,1.8a26.85,26.85,0,0,0-2.5,2.9v.1H302a39.18,39.18,0,0,1,2.5-3.2Zm.1-48.8-.6-.2a10,10,0,0,1-1.5,1.5,14.37,14.37,0,0,0-1.8,2.5h-.1a.52.52,0,0,1,.2.4,30,30,0,0,1,3.8-4.2Zm.2,27.4a14.77,14.77,0,0,1,.1-2.1l-4.2,4c0,.6-.1,1.2-.1,1.8a29.29,29.29,0,0,1,4.2-3.7Zm-4-25.1a8,8,0,0,1,1.3-1.3c.6-.7,1-1.1,1.2-1.3h-.1a1.27,1.27,0,0,0-.6.1c-.7.9-1.3,1.8-1.8,2.5Zm4.1,22v-2q-1.05.9-3.9,3.9l-.1,2Zm0-3V80.2c-.3.3-.6.7-1,1.1l-.9.9-1,.9a5.5,5.5,0,0,0-.7.9l-.1,1.5c1.6-1.7,2.8-2.9,3.7-3.8Zm1.2-20.4a5.55,5.55,0,0,0-.8-.6,25.24,25.24,0,0,0-4.1,4.5,2.18,2.18,0,0,0,.9.7c.6-.8,1.3-1.6,2-2.4ZM304.9,79V77c-.8.8-1.9,1.9-3.3,3.5l-.2,2.3,2-2Q304.3,79.75,304.9,79Zm-.9-2.1-1.9.1-.3,2.2A24.9,24.9,0,0,1,304,76.9Zm3.4-13.8a4.73,4.73,0,0,0-.7-1.2l-1.9,2.2-2,2.3a1.45,1.45,0,0,0,.7.2l.8.2,1.3-1.7,1.5-1.8c0-.1.1-.2.3-.2Zm-2.9,47.3-1.5,1.8,1.5-.2Zm2.9-46.6-1.3,1.7c-.6.7-.9,1.1-1,1.2a2.33,2.33,0,0,0,2.3-2.3Z"/>
    <path d="M336.9,101.5c.5.4,1.7,1.5,3.5,3.1a1.15,1.15,0,0,1,.4,1.5,1.67,1.67,0,0,1-.1,1.2c-2,3.2-4.3,5.1-6.8,5.9a17.22,17.22,0,0,1-9.8-.2,15.26,15.26,0,0,1-8.3-5c-2.2-2.8-3.9-7.3-5.1-13.4s-1.3-10.9-.3-14.3a11.39,11.39,0,0,1,6.1-7.6,12.69,12.69,0,0,1,9-.6,17.52,17.52,0,0,1,8.4,4.9,15.27,15.27,0,0,1,4.4,8.4,2.77,2.77,0,0,1-.1.9,1.11,1.11,0,0,1-.9,1.2c-.6.2-2.1.9-4.7,2.1a65.82,65.82,0,0,1-6.4,2.7,44.44,44.44,0,0,1-5.2,1.5,3.44,3.44,0,0,0,.1.9,4.14,4.14,0,0,1,.1,1,2.77,2.77,0,0,0,.1.9c0,.4.1.7.1.9l.1.7.3.9a1.61,1.61,0,0,0,.4.7,6.86,6.86,0,0,0,3.4,2.9,7.69,7.69,0,0,0,4.5.2,9.81,9.81,0,0,0,4.3-2.2,1.5,1.5,0,0,1,1.1-.4,1.39,1.39,0,0,1,1,.5C336.7,101.1,336.9,101.3,336.9,101.5Zm-21-17a3.3,3.3,0,0,1-1.4,0h-1.8v.9a16.81,16.81,0,0,0,3.2-.9Zm1.3.2h0a33.92,33.92,0,0,1-4.5,1.5,7.57,7.57,0,0,0,.1,1.5,38.43,38.43,0,0,0,4.4-3Zm-.4-1.1h0a10.73,10.73,0,0,0-3.8-1.3l-.1,1.5h1.8a5,5,0,0,0,2.1-.2Zm.7,1.8c-.8.6-2.4,1.7-4.7,3.2a1.27,1.27,0,0,0,.1.6,33.92,33.92,0,0,0,4.5-1.5h.2c0-.8-.1-1.5-.1-2.3Zm.3,3.9c0-.3-.1-.6-.1-.9A26,26,0,0,1,313,90l.1,1a6.64,6.64,0,0,0,2-.6l1.3-.5c.5-.2,1-.4,1.4-.6Zm-1.5-6.8a31.12,31.12,0,0,1-2.8-2.3l-.3.9c0,.2-.1.3-.1.5a9,9,0,0,1,3.2.9Zm1.7,8.1v-.5h-.1l-1.2.4-1.2.5a14.16,14.16,0,0,1-2.2.7l.1.9a16.92,16.92,0,0,1,4.6-2Zm.2.7a21.43,21.43,0,0,0-4.7,2l.1.7v.2a40.18,40.18,0,0,0,4.6-2.4ZM316.9,82a24.75,24.75,0,0,1-1.3-5.2,12.7,12.7,0,0,0-1.8,2.7l1,.9,1.1,1.1A4.67,4.67,0,0,1,316.9,82Zm1.2,10.8q-.45.3-4.2,2.1a10.26,10.26,0,0,0,.4,1.4l.1-.1,1.2-.9a5.36,5.36,0,0,1,2.7-1.1,3.18,3.18,0,0,1-.2-1.4Zm0,2.1a5,5,0,0,0-2.3.9l-1.2.9-.4.2c.1.5.3.9.4,1.4,1.6-1.2,2.7-2,3.6-2.6a3.22,3.22,0,0,0-.1-.8Zm.4,2.7-.1-.9a26.16,26.16,0,0,0-3.4,2.4l.3.9a10.59,10.59,0,0,1,1.2-1c.6-.4,1.3-.9,2-1.4Zm.3,1.5-.1-.7c-.4.3-1,.7-1.7,1.2l-1.5,1.2.4.9,1-.9Zm.6,1.5a4.87,4.87,0,0,1-.3-.7,8,8,0,0,0-1.7,1.5l-1.2,1.2.6,1.2a11.77,11.77,0,0,1,2.6-3.2Zm-1.3-20.3c-.1-.2-.3-.8-.7-1.9a16,16,0,0,0-1-2.3l-.1.2a23.11,23.11,0,0,0,1.2,5.2,13.39,13.39,0,0,1,.6-1.2Zm.5-.7a2,2,0,0,1,.6-.7.44.44,0,0,1-.5-.1v-.1a35.74,35.74,0,0,1-1-3.5,1.61,1.61,0,0,0-.7.4,29,29,0,0,1,1.6,4Zm1,21.6a11.09,11.09,0,0,0-2.5,3.2c.2.4.5.8.7,1.2a22.07,22.07,0,0,1,2.3-3.6,4.46,4.46,0,0,0-.5-.8Zm-.8-10.3.1.4a.76.76,0,0,1,.4-.2h.1c-.1-.5-.2-1.3-.3-2.3-.1-1.3-.2-2.3-.3-2.8a2,2,0,0,1-.7-.1,41,41,0,0,0,.6,4.9l.1.1ZM321,103a1.38,1.38,0,0,1-.3-.4,19.89,19.89,0,0,0-2.3,3.6c.1.1.2.3.3.4A16.94,16.94,0,0,1,321,103Zm-.6-25c-.1-.4-.2-1.2-.4-2.2a8.58,8.58,0,0,0-.3-1.3,5.64,5.64,0,0,0-1.2.4,14,14,0,0,0,1,3.5c.1.1,0,.3-.1.4a8.75,8.75,0,0,1,1-.8Zm1.8,26-.6-.6a27.4,27.4,0,0,0-2.3,3.6l.5.5Zm-2-18.4c-.2,0-.3.1-.5.1.1.6.2,1.6.3,2.9.1.9.2,1.6.3,2.2l.7-.2a27.81,27.81,0,0,0-.8-4.9Zm-.1-3a35.75,35.75,0,0,0,5.5-1.9,3.71,3.71,0,0,0-3.4-.4,4.36,4.36,0,0,0-2.1,2.5Zm3.5,22.3a2.18,2.18,0,0,1-.8-.5l-2.5,3.5,1.5.9a22.57,22.57,0,0,0,1.1-2.2c.4-.9.7-1.4.7-1.5Zm-1.9-27.6a16.08,16.08,0,0,1-.1-3.1,4.87,4.87,0,0,0-1.2.1,4.52,4.52,0,0,0,.3,1.3c.2.9.3,1.6.4,2l.1-.1h.6Zm-.4,8-.4.2a42.09,42.09,0,0,1,.9,4.9l.4-.1a26.37,26.37,0,0,1-.8-4.9Zm1.4-.5-.7.2a27.45,27.45,0,0,0,.8,5l1-.3c-.1-.5-.2-1.1-.3-1.6-.1-.7-.2-1.4-.3-1.9a6.47,6.47,0,0,0-.4-1.3Zm.9-7.7a5.38,5.38,0,0,1,.1-1.1c0-.7.1-1.3.1-1.7l-1.5-.2a24.51,24.51,0,0,0,.1,3,6.15,6.15,0,0,1,1.3.1Zm.9,28.2-.2-.1a6.12,6.12,0,0,1-.5,1.2L323,108l-.6,1.2.5.2c.2-.6.7-1.9,1.5-4Zm-.3-21-.9.3a8.8,8.8,0,0,1,.5,1.5c.1.5.2,1.2.3,1.9s.2,1.3.2,1.5l.9-.3c-.2-.7-.4-1.7-.7-3.1-.1-.7-.2-1.3-.3-1.7Zm1.3,21.3c-.1,0-.2-.1-.4-.2a28.63,28.63,0,0,0-1.5,4.1c.4.1.8.3,1.3.4l.2-2c.2-.9.3-1.6.4-2.2ZM325,77.5c.1-.4.3-1.3.6-2.5a2.35,2.35,0,0,0-.8-.2c-.1,0-.2-.1-.4-.1,0,.3-.1.8-.1,1.5v1.1Zm0,7c.1.4.2,1,.4,1.8.3,1.6.5,2.5.6,2.9l.7-.3-.7-2Zm.6-.5a25.14,25.14,0,0,0,1,2.6c.5,1.2.7,1.8.8,2l.2-.2a36.57,36.57,0,0,0-1.8-4.6Zm1,22h-.3c-.1.5-.2,1.3-.4,2.3l-.3,2.1c.3.1.6.1.9.2.1-2.6.1-4.1.1-4.6Zm-.5-28.1a7.71,7.71,0,0,1,1.4-2.1c-.4-.1-.8-.3-1.1-.4a13.5,13.5,0,0,0-.6,2.4,1,1,0,0,0,.3.1Zm1.1,5.5-.7.3a49.27,49.27,0,0,1,1.8,4.7l1.1-.5L329,87c-.3-.8-.6-1.3-.7-1.6a12,12,0,0,0-1.1-2Zm.2-4.8c.8-1.2,1.2-1.9,1.3-2.1-.2-.1-.4-.3-.6-.4a14.29,14.29,0,0,0-1.4,2Zm-.1,27.4c0,.5,0,2.1-.1,4.6.4.1.8.1,1.2.2,0-.4-.1-1-.1-1.8,0-1.5-.1-2.5-.1-3Zm.5-23a11.78,11.78,0,0,1,1.1,1.9,12.83,12.83,0,0,0,.7,1.6,3.55,3.55,0,0,0,.4.9l2.1-.9q-2.85-3.15-3.6-3.9a.78.78,0,0,1-.4.4Zm.6-3.7a12.54,12.54,0,0,0,1.5-.2,13.55,13.55,0,0,1,2-.2l-.7-.7c-.6.2-1.5.6-2.8,1Zm0-.9c.9-.3,1.6-.5,2.1-.7a4.44,4.44,0,0,0-1.1-.8,7.69,7.69,0,0,1-1,1.5Zm.5,2.6-.2-.1.1.1Zm0,.8c0,.1,0,.2-.1.2.5.5,1.8,1.9,4,4.2l1.2-.6a13,13,0,0,1-2.3-1.8,28.32,28.32,0,0,0-2.8-2Zm0,24.2h0c0,.5,0,1.5.1,3,0,.8.1,1.4.1,1.8h.8C329.6,109.4,329.3,107.8,328.9,106Zm.5-24.7a14.2,14.2,0,0,1,2.8,2,25.6,25.6,0,0,0,2.6,2l.5-.2-.1-.4-3.3-2a15.7,15.7,0,0,0-2.5-1.4Zm.2-1.4c1.4.5,2.8.9,4.1,1.3-.4-.6-.8-1.1-1.2-1.6l-2.4.2Zm.3,26a.37.37,0,0,0-.3.1c.3,1.8.7,3.5,1,4.9.3,0,.5-.1.8-.1l-.8-2.4c-.3-1.1-.5-1.9-.7-2.5Zm.6-24.9a13,13,0,0,0,1.8,1,23,23,0,0,0,2.6,1.6,10.09,10.09,0,0,0-.7-1.5C333,81.8,331.8,81.4,330.5,81Zm.8,24.6-.7.2.7,2.4c.5,1.3.8,2.2.9,2.5a2.92,2.92,0,0,0,.9-.2c.1,0,.1,0,.1-.1a31.89,31.89,0,0,1-1.9-4.8Zm1.3-.5a6.37,6.37,0,0,1-.7.2,27.65,27.65,0,0,0,2,4.7c.4-.2.8-.5,1.2-.7-.1-.2-.6-.9-1.3-2-.4-.7-.8-1.4-1.2-2.2Zm.8-.3-.1.1a8.17,8.17,0,0,0,1.2,2l1.2,2a1.21,1.21,0,0,1,.5-.5c-1-1.2-1.9-2.4-2.8-3.6Zm1.3-.7-.6.3a37.26,37.26,0,0,0,2.6,3.3l.1-.2c-.6-1.1-1.3-2.2-2.1-3.4Zm.9.1c.6.9,1.2,1.9,1.7,2.8l.6-.9c-1.1-.8-1.8-1.5-2.3-1.9Z"/>
  </g>
  <path d="M82,60.5a23.2,23.2,0,0,1-3.8.5c-1.4.1-2.6.1-3.4.1s-2.2,0-4.1-.1H67.3a209.68,209.68,0,0,0-1,44.8,1.57,1.57,0,0,1-.4,1.3,1.74,1.74,0,0,1-1.2.6h-.3a1.42,1.42,0,0,1-.6.2c-1.9.2-4.5.3-7.7.3a4.8,4.8,0,0,1-1.7-.5,2.38,2.38,0,0,1-.6-1.1,178.63,178.63,0,0,1-1.2-25.3c.1-1.8.3-5.2.8-10.4a56.31,56.31,0,0,0,.4-8.2c-1.5.1-3.5.2-6,.2-3.6-.1-6.1-.1-7.3,0a1.48,1.48,0,0,1-1.7-1.3h0a1.14,1.14,0,0,1-.3-.8c-.1-2.5-.3-5.6-.7-9.3a1.48,1.48,0,0,1,.4-1.3,1.85,1.85,0,0,1,1.2-.7,1.8,1.8,0,0,1,1,.2h.2c1.1-.1,3.3-.3,6.7-.4a64.76,64.76,0,0,0,7.7-.8c.7-5.4,1.6-10.7,2.8-16V32a1.63,1.63,0,0,1,.7-2,1.52,1.52,0,0,1,1.3-.3,35.69,35.69,0,0,0,4.4.6,40,40,0,0,1,4.8.8.86.86,0,0,1,.6.3,1.54,1.54,0,0,1,1.2,1.9h0c-.2,1.5-.6,4-1.2,7.4s-1,6-1.2,7.8h5.4a68.07,68.07,0,0,1,7.8.5,1.74,1.74,0,0,1,1.1.6,1.7,1.7,0,0,1,.9,1.6q0,1.8-.3,7.5a1.31,1.31,0,0,1-.3,1.2A1.7,1.7,0,0,1,82,60.5ZM42.3,59.1V52.9h-.7c.2,2.4.3,4.4.4,6.2Zm1.7,0a33.35,33.35,0,0,1-.4-6.3h-.4v6.3Zm1,0c0-3.1-.1-5.2-.2-6.4h-.3a33.86,33.86,0,0,0,.5,6.4Zm1.9,0a35.4,35.4,0,0,0-.3-6.5h-.9c.1,1.3.2,3.4.2,6.5Zm1.3.1a61.19,61.19,0,0,1,.1-6.7h-.9a29.84,29.84,0,0,1,.3,6.7Zm1.8,0V52.5h-.9c-.1,1.2-.1,3.4-.1,6.7Zm2.4-.1-.5-6.8a3.4,3.4,0,0,0-1,.1v6.8a7.57,7.57,0,0,0,1.5-.1Zm1.5-.1V52l-1.1.2.5,6.9a1.27,1.27,0,0,0,.6-.1Zm1.5-1.2c.1-1.7.3-3.7.5-6-.1,0-.1,0-.2-.1l-1,.2a.37.37,0,0,1,.1.3V59a1.27,1.27,0,0,1,.6-.1v-.6c-.1,0-.1-.1-.1-.2a.37.37,0,0,1,.1-.3Zm6.9,25.8v-.8c-2,.2-4,.4-6,.4a4.87,4.87,0,0,1-.1,1.2C57.2,84.3,59.2,84.1,62.3,83.6ZM62.2,86V84.6c-2.9.4-4.9.7-6,.8v1.7C58.2,86.8,60.2,86.4,62.2,86Zm3-28.3v-.5h-.1a36.39,36.39,0,0,1-8.7-1.1l-.2,1.6c.2-.2,1.7-.2,4.5-.1Zm-9,.7V59a2.36,2.36,0,0,1,.9.6l3.3.3a31.83,31.83,0,0,0,3.6.3l.1-1c.1-.2.1-.5.3-.7-.5,0-1.4,0-2.7-.1s-2.3-.1-2.7-.1c-.6,0-1.5.1-2.8.1Zm6.1,21.9v-1a42.22,42.22,0,0,1-6.1.7v.6c2,0,4.1-.1,6.1-.3Zm0,1.7v-.8q-3,.3-6,.3v1C58.3,82.4,60.3,82.2,62.3,82Zm-.1,5.6v-.7c-2,.4-4,.8-6,1v.9a25.68,25.68,0,0,1,2.8-.6l3.2-.6Zm0,.9c-.5.1-1.5.3-3,.5a23.54,23.54,0,0,0-2.9.6v.8a53.47,53.47,0,0,1,6-1Zm.2-10V77c-2,.2-4,.6-6,1a4.87,4.87,0,0,0-.1,1.2c2.1-.2,4.1-.4,6.1-.7Zm-.2,12.3v-.6c-1.8.2-3.7.6-5.9,1v1c.7-.2,1.8-.4,3.2-.8q1.2-.3,2.7-.6Zm0,2.4V91.7c-.3.1-1.2.3-2.6.6s-2.5.6-3.3.8a8.08,8.08,0,0,1,.1,1.6,33.21,33.21,0,0,1,5.8-1.5Zm3-36.8a4.1,4.1,0,0,0,.1-1.1h-.1c-.5-.1-1.4-.2-2.7-.5a29.7,29.7,0,0,0-3.3-.6,24.52,24.52,0,0,0-2.7-.2,4.87,4.87,0,0,0-.1,1.2,37.32,37.32,0,0,0,8.8,1.2ZM62.5,76.1l.1-.9-2.9-.1a16.15,16.15,0,0,0-3.1.2,8.6,8.6,0,0,0-.1,1.6A41.13,41.13,0,0,1,62.5,76.1Zm-.2,19V94a41.57,41.57,0,0,0-5.8,1.5v.2l2.9-.3Zm0,1.5V96l-2.7.3-3,.3v1.1a17.29,17.29,0,0,1,3.1-.7,8.37,8.37,0,0,1,2.6-.4Zm3-42.3a5.7,5.7,0,0,0-.1-1.3q-1.5-.3-4.5-.6c-2-.2-3.3-.4-4-.5L56.6,53a24.52,24.52,0,0,1,2.7.2,29.7,29.7,0,0,1,3.3.6c1.3.3,2.2.4,2.7.5Zm-2.7,20,.1-.9h-6l-.1.9a26.28,26.28,0,0,1,3-.1Zm-.3,24.3V97.5c-1.4.2-2.3.3-2.5.3a16.54,16.54,0,0,0-3.2.7l.1.7A35.44,35.44,0,0,1,62.3,98.6Zm.4-26,.2-1.3a54.66,54.66,0,0,1-6,.3l-.1,1ZM57,100.7c1-.1,2.3-.3,4-.6l1.5-.2v-.5c-2.4.2-4.3.4-5.6.6v.7Zm5.6,1.5a6.6,6.6,0,0,1-.1-1.4l-1.4.2q-2.55.45-4.2.6h-.1l.2,1.2,2.7-.3c.4,0,.9-.1,1.3-.1Zm.3-31.7.1-.8H57.1l-.1,1c2.1,0,4.1-.1,5.9-.2Zm.1-1.7.1-.7H57.2l-.1.6ZM62.6,103a13.89,13.89,0,0,1-1.5.2,5.85,5.85,0,0,0-1.3.2q-1.5.15-2.7.3l.1,1c2.2,0,4-.1,5.5-.2Zm.6-35.8.1-.9H60.8a31.35,31.35,0,0,0-3.5.1,2.77,2.77,0,0,1-.1.9h3a22.81,22.81,0,0,0,3-.1Zm2-15.1a2.2,2.2,0,0,0-.1-.8c-.1-.1-.2-.3-.3-.4a37.68,37.68,0,0,1-6.7-.4.9.9,0,0,1-.6.6l-.1.1,3.5.4c1.9.2,3.3.4,4.3.5Zm-1.4,9V61a19.83,19.83,0,0,1-3.5-.3l-2.8-.3V62c.6-.1,1.7-.2,3.5-.4a15.85,15.85,0,0,0,2.8-.5Zm-.2,2.4.2-1.5-2.8.5c-1.8.2-3,.4-3.5.4v.7c1.2-.1,3.3-.1,6.1-.1Zm-.2,2,.1-1.1a53.42,53.42,0,0,0-6.1.1v1.1a28.32,28.32,0,0,1,3.3-.1ZM64.8,49a17.33,17.33,0,0,1-3.2-.3l-3.2-.3-.2,1.2a31.2,31.2,0,0,0,6.1.3h0C64.5,49.6,64.6,49.3,64.8,49Zm.2-.9.2-.9a27.36,27.36,0,0,1-6.4-.8l-.2,1.1a17.33,17.33,0,0,1,3.2.3,17.33,17.33,0,0,0,3.2.3Zm.3-1.7.2-1.3a61.15,61.15,0,0,1-6.4-.3l-.1.8a21.78,21.78,0,0,0,6.3.8Zm.3-2.1.1-.6c-2.2-.1-4.4-.1-6.5-.3l-.1.6a63.17,63.17,0,0,0,6.5.3Zm.3-1.5.1-.6a18.41,18.41,0,0,1-3.3-.3l-3.1-.4-.2,1c2.1.2,4.2.3,6.5.3Zm.1-1.4.1-.5H63.9a20.07,20.07,0,0,1-4.2-.5l-.1.4c.6.1,1.7.2,3.2.4C64.6,41.3,65.6,41.4,66,41.4Zm.3-1.4.1-.8a33.76,33.76,0,0,1-6.3-.7l-.2,1a13.31,13.31,0,0,0,4,.5Zm.3-1.6.1-.6a26,26,0,0,0-2.8-.4c-1.4-.2-2.6-.4-3.4-.6l-.2,1a43.38,43.38,0,0,0,6.3.6Zm.2-1.5h0a21.2,21.2,0,0,0-6-2l-.3,1a27.77,27.77,0,0,0,3.4.6c1.3.2,2.3.3,2.9.4ZM67,36l.3-1.7L64,33.8a27,27,0,0,1-2.8-.4L61,34A30.2,30.2,0,0,1,67,36Zm-.4,21.5a47.35,47.35,0,0,0,0-5.6h-.2a.6.6,0,0,1-.4-.1,51.16,51.16,0,0,1,0,5.7Zm1.9,0V51.9h-1a47.35,47.35,0,0,1,0,5.6Zm1.5.1a46.72,46.72,0,0,0,.3-5.7h-1v5.7Zm1.8.1c.1-.5.1-1.5.2-2.8s.1-2.2.2-2.9h-.9q-.15,3.3-.3,5.7Zm1.8,0V51.9H73c-.1.7-.1,1.6-.2,2.9s-.1,2.3-.2,2.8Zm1.6,0a54.41,54.41,0,0,1,.3-5.7h-1v5.7Zm2.2,0a52.33,52.33,0,0,0,.1-5.6,4.87,4.87,0,0,0-1.2-.1,54.41,54.41,0,0,0-.3,5.7Zm1.5-.2h0c.1-.8.2-1.8.3-3.2.1-.9.1-1.6.2-2.2a3.4,3.4,0,0,1-1-.1,47.75,47.75,0,0,1,0,5.5Zm.8-.1.3-.1v-3c-.1,1.5-.2,2.5-.3,3.1Z"/>
  <path d="M167.2,92a48,48,0,0,0,5.5,11.4,7.28,7.28,0,0,0,3.5,3q1.5.45,3.3-1.2c1.5-1.3,2.2-3.4,2.2-6.3a14.92,14.92,0,0,0-.2-2.1c-.3-.9-.6-1.7-.9-2.6-.4-1.1-.8-2-1-2.7-.2-.5-.8-2.4-2-5.6s-2-5.8-2.6-7.6-1.3-4.2-2.1-7.2a62.52,62.52,0,0,1-1.7-8.4c-1.8-13.7,2.1-22.6,11.6-26.6,6.7-2.8,14.1-2.1,22,2a2.22,2.22,0,0,1,1.6-.1,2.09,2.09,0,0,1,1.5,1.1,2.29,2.29,0,0,1,.2,1.8,21.62,21.62,0,0,1-1.4,4.3c-.6,1.5-1.3,3.1-2.1,4.9l-1.7,3.7a2,2,0,0,1-1.2,1.2,2.16,2.16,0,0,1-2.9.2c-3.2-2-5.8-2.2-7.9-.7s-2.8,4.1-2.2,7.9A79.64,79.64,0,0,0,193,76c2.3,5.9,3.7,9.5,4.1,10.6.9,2.8,1.6,5.4,2.1,7.7a.9.9,0,0,1,.1.5V95a30.55,30.55,0,0,1-2.4,18.6,20.29,20.29,0,0,1-24.2,10.9,23.24,23.24,0,0,1-11.8-7.8,32.51,32.51,0,0,1-3.6-5.5c-1-2.1-1.7-3.6-2.1-4.6s-1-2.9-1.9-5.8a1.78,1.78,0,0,1-.7-.8,2.29,2.29,0,0,1-.2-1.8,2.73,2.73,0,0,1,1.3-1.5Q156,95.5,163,91a2.23,2.23,0,0,1,2.1-.2C165.9,90.3,166.9,91,167.2,92Zm-3.4,4.9-.2-.8-5.5,3.5.4,1.5a18.26,18.26,0,0,1,1.6-1.3Zm-4.2,4.7c.2.3,0,.6-.4.7l-.2.2.5,1.5a35.58,35.58,0,0,0,6-3.4q-.6-1.2-1.2-2.7l-3.4,2.7Zm7.3,1.9a9.5,9.5,0,0,1-1-1.7,28.39,28.39,0,0,1-6.1,3.5l.8,1.7c1-.5,2-1,3-1.6Zm1.2,1.9-.6-.8c-1.1.6-2.2,1.2-3.3,1.9a19.12,19.12,0,0,1-3.2,1.6c.4.9.8,1.7,1.3,2.6a71.26,71.26,0,0,1,5.8-5.3Zm1.2,1.7-.4-.6a34.63,34.63,0,0,0-5.7,5.1,4.49,4.49,0,0,0,1,1.3,40,40,0,0,1,5.1-5.8Zm2,2.1-1.2-1.2a33,33,0,0,0-5.2,6c.7.7,1.4,1.3,2.1,1.9l1.3-1.9,1.1-1.6a20.74,20.74,0,0,0,1.9-3.2Zm2,1.3a8.79,8.79,0,0,1-1-.6,20.74,20.74,0,0,1-1.9,3.2c-.2.2-.6.8-1.2,1.6s-1,1.5-1.3,1.9a16.54,16.54,0,0,0,3.6,2.2,58.42,58.42,0,0,1,1.8-8.3Zm1.1.5a80.86,80.86,0,0,0-1.7,8.2,8.8,8.8,0,0,0,1.5.5,46.18,46.18,0,0,0,1.8-8.2,5.64,5.64,0,0,1-1.2-.4c-.2,0-.3,0-.4-.1Zm3.1.5h-.4a59.77,59.77,0,0,1-1.8,8.4,15.52,15.52,0,0,0,2.1.4,43.22,43.22,0,0,0,.1-8.8Zm-1.9-52.4a52.07,52.07,0,0,0,7.9,1.3V59.1c-1.1-.4-2.4-.9-4-1.5l-4-1.2a22.62,22.62,0,0,0,.1,2.7Zm0-3.9,4.3,1.3,3.8,1.2a5.16,5.16,0,0,0,.2-1.1,58.19,58.19,0,0,1-4.9-3.2q-2-1.2-3-1.8a15.86,15.86,0,0,0-.4,3.6Zm.5,8a39.4,39.4,0,0,1,7.7-.7,2.49,2.49,0,0,1-.1-.8,51.93,51.93,0,0,1-7.9-1.2,7.77,7.77,0,0,1,.2,1.6,2,2,0,0,0,.1,1.1Zm.8-15a8.08,8.08,0,0,0-.7,2.2l3.4,2.2c2.3,1.5,3.8,2.4,4.6,2.9a8.82,8.82,0,0,1,.9-2c-.1,0-.2,0-.2-.1a42.22,42.22,0,0,1-8-5.2Zm-.3,17.6h7.8c-.2-.7-.3-1.4-.5-2.1a39.09,39.09,0,0,0-7.6.7c.1.6.2,1,.3,1.4Zm.8,3.8a69.33,69.33,0,0,1,7.8-1c-.2-.6-.3-1.1-.5-1.6h-7.9a12.21,12.21,0,0,0,.6,2.6Zm0-22.5a61.2,61.2,0,0,0,7.9,5.4.22.22,0,0,1,.2.2h0a6.89,6.89,0,0,1,1.1-1.3,28.72,28.72,0,0,0-4.4-3.4c-1.9-1.3-3.1-2.2-3.8-2.7a14.51,14.51,0,0,0-1,1.8Zm1,26c1-.2,2.3-.5,4.1-.8s3-.5,3.7-.7l-.6-1.8a41.66,41.66,0,0,0-7.8,1Zm.4,38.7a47.14,47.14,0,0,1-.1,8.4,24.52,24.52,0,0,0,2.7-.2,22.4,22.4,0,0,1-1.6-5c-.5-1.5-.8-2.5-1-3.2Zm.5-35.8a44.69,44.69,0,0,1,8.2-.8l-.9-2.3c-.7.1-2,.3-3.8.6l-4,.7Zm0-31.8c.6.5,1.9,1.5,3.7,2.8a31.6,31.6,0,0,1,4.5,3.7l.4-.4.4-.2c-2.8-3.6-4.9-6.3-6.2-8a8.59,8.59,0,0,0-2.8,2.1Zm1.2,35.5c.2-.1,1.7-.3,4.5-.7l3.8-.6-.9-2.1a38.26,38.26,0,0,0-8.3.7Zm.1,30.7c-.3.2-.6.3-.9.5a22.6,22.6,0,0,1,1.1,3.7,18.48,18.48,0,0,0,1.7,5,14.16,14.16,0,0,0,2.2-.7c0-.1,0-.1-.1-.1h0a32.18,32.18,0,0,0-2.3-5,20.54,20.54,0,0,1-1.7-3.4Zm1-27.7,8-1.9-.4-1.1a27,27,0,0,0-4.1.6c-2.7.4-4,.6-4.1.6Zm1.4,3.6a61.71,61.71,0,0,1,8.4-1.5l-1.2-3a17.14,17.14,0,0,1-2.6.6l-3,.7-2.6.6Zm-.8,23.2,6.3,6.9a21.84,21.84,0,0,0,2.1-2.2,74.64,74.64,0,0,0-8.2-5Zm.5,2.3.7,1.5a45.9,45.9,0,0,1,2.4,5v.1a9.91,9.91,0,0,0,1.7-1.1Zm.5-70.5c1.2,1.8,3.3,4.5,6.2,8a.9.9,0,0,0,.5-.1c-1.2-2-2.2-5.2-3-9.5a9.49,9.49,0,0,0-2.1.9,3.9,3.9,0,0,0-1.6.7Zm.7,48a37.41,37.41,0,0,0,8-2.6l-.2-.7a73.44,73.44,0,0,0-8.4,1.6Zm-.5,19.1a85.86,85.86,0,0,1,7.9,4.9,21.16,21.16,0,0,0,1.1-2.1l.9-1.8a30.92,30.92,0,0,0-9.5-1.5,1.76,1.76,0,0,0-.4.5Zm.9-18,.1.2c1.9-.3,4.7-.7,8.5-1l-.5-1.7-.1-.1a34,34,0,0,1-8,2.6Zm.4,16.3a30.41,30.41,0,0,1,9,1.6l.6-2.4a41.45,41.45,0,0,1-8.6-1.2c-.3.7-.7,1.4-1,2Zm1.2-12.2a75.38,75.38,0,0,1,8.3-.6,17.1,17.1,0,0,0-.9-3c-3.8.3-6.6.6-8.4.8Zm.2,8.9a40.52,40.52,0,0,0,8.4,1.2,7.49,7.49,0,0,0,.2-2.1l-4.8-.6c-1.2-.1-2.4-.2-3.6-.2Zm.4-6.2c.3.1,1.5.3,3.6.7a36.53,36.53,0,0,0,4.6.7c-.1-1.1-.2-2.3-.4-3.5-3.1.1-5.8.2-8.2.5.2.6.2,1.2.4,1.6Zm.1,3.3c1.2,0,2.4.1,3.5.2l4.8.6V99.9a27.45,27.45,0,0,1-5-.8l-3.3-.6v2Zm1.5-61q1,6.45,3,9.3h.4a51.32,51.32,0,0,0,.1-9.6,13.43,13.43,0,0,0-3.5.3Zm4.8-.2a72.2,72.2,0,0,1-.2,9.3,5.44,5.44,0,0,1,1.8,0c.3-3,.5-6,.5-9a7.61,7.61,0,0,0-2.1-.3Zm3.3.5c-.1,3.2-.2,6.1-.5,8.9a11.63,11.63,0,0,1,1.8.4,82.9,82.9,0,0,1,1.5-8.3,15.68,15.68,0,0,0-2.8-1Zm4,1.3a61.71,61.71,0,0,0-1.5,8.4l.5.2q3-6.75,3.3-7.5c-.8-.4-1.6-.7-2.3-1.1Z"/>
</svg>
