<svg id="Layer_1" data-name="Layer 1" xmlns="http://www.w3.org/2000/svg" width="200" height="50" viewBox="0 0 200 50">
  <title>kommuna_Transport</title>
  <g>
    <path d="M127,37.81c.77-.44,1.46-.8,2.12-1.21a4.59,4.59,0,0,0,2.31-4.09c0-7.93.06-15.86,0-23.79,0-2.89-2.89-5-5.29-5-5.53-.07-11.07,0-16.61,0-2.72,0-5.76,2.81-5.77,5.55,0,7.66,0,15.31,0,23a5.48,5.48,0,0,0,.62,2.32,6.71,6.71,0,0,0,4.1,3.26l-6.91,10.53c1.2,0,2.2.07,3.17,0a1.83,1.83,0,0,0,1.2-.66c1.45-2.11,2.85-4.25,4.23-6.41a1.35,1.35,0,0,1,1.32-.7q6.2,0,12.41,0a1.36,1.36,0,0,1,1.32.7c1.37,2.16,2.79,4.29,4.22,6.42.19.28.52.63.8.65,1.17.07,2.35,0,3.71,0Zm-27.12,0c0-.42.05-.69.05-1q0-6.92,0-13.84a6,6,0,0,0-.07-.91q-.67-4.3-1.36-8.59a5.21,5.21,0,0,1-.13-.7c-.05-2.9-1.81-4.38-4.3-5.34A29.43,29.43,0,0,0,80.56,6a21,21,0,0,0-7.75,2.13A4.69,4.69,0,0,0,69.93,12c-.08,1-.29,2-.44,2.93a64.93,64.93,0,0,0-1.13,12.82c.13,3,0,5.94,0,8.91v1.15h2.13c.24,1.18.39,2.29.7,3.36.23.79.68,1.56,1.66,1.58s1.39-.75,1.74-1.51A4.66,4.66,0,0,0,75,40.11c.12-.73.19-1.47.29-2.23H92.71c0,.52,0,1,.11,1.46a9.39,9.39,0,0,0,.29,1.4c.39,1.31,1.18,2.16,2,2.06,1.19-.15,1.56-1.13,1.8-2.1s.3-1.86.45-2.87Z" fill="#fff"/>
    <path d="M127,37.81l7,10.49c-1.36,0-2.54,0-3.71,0-.28,0-.61-.37-.8-.65-1.43-2.13-2.84-4.26-4.22-6.42a1.36,1.36,0,0,0-1.32-.7q-6.2,0-12.41,0a1.35,1.35,0,0,0-1.32.7c-1.37,2.16-2.77,4.31-4.23,6.41a1.83,1.83,0,0,1-1.2.66c-1,.1-2,0-3.17,0l6.91-10.53a6.71,6.71,0,0,1-4.1-3.26,5.48,5.48,0,0,1-.62-2.32c0-7.66,0-15.31,0-23,0-2.73,3-5.57,5.77-5.55,5.54,0,11.07-.06,16.61,0,2.39,0,5.26,2.15,5.29,5,.07,7.93,0,15.86,0,23.79a4.59,4.59,0,0,1-2.31,4.09C128.46,37,127.78,37.38,127,37.81ZM117,10.27c-2.22,0-4.44,0-6.66,0a3.61,3.61,0,0,0-3.83,3.87c0,1,0,2,0,3a3.37,3.37,0,0,0,3.14,3.55c4.87.13,9.75,0,14.63,0a1.07,1.07,0,0,0,.2,0,3.62,3.62,0,0,0,3-3.33c.07-1.05.06-2.12,0-3.17a3.69,3.69,0,0,0-4-3.9C121.29,10.25,119.13,10.27,117,10.27Zm8.44,24.19a2.71,2.71,0,0,0,2.81-2.74,2.65,2.65,0,0,0-2.58-2.63,2.7,2.7,0,0,0-2.92,2.5A2.75,2.75,0,0,0,125.43,34.46Zm-12.85-2.74A2.52,2.52,0,0,0,110,29.08a2.64,2.64,0,0,0-2.7,2.6,2.67,2.67,0,1,0,5.33,0ZM117.73,5c-1,0-1.91,0-2.86,0a1.24,1.24,0,0,0-1.35,1.24,1.19,1.19,0,0,0,1.23,1.35q2.91.1,5.82,0A1.19,1.19,0,0,0,121.8,6.3,1.21,1.21,0,0,0,120.49,5C119.57,5,118.65,5,117.73,5Z"/>
    <path d="M99.88,37.82H97.33c-.15,1-.22,2-.45,2.87s-.61,1.95-1.8,2.1c-.8.1-1.59-.75-2-2.06a9.39,9.39,0,0,1-.29-1.4c-.06-.46-.07-.94-.11-1.46H75.24c-.09.76-.16,1.5-.29,2.23a4.66,4.66,0,0,1-.35,1.17c-.35.76-.76,1.53-1.74,1.51S71.44,42,71.21,41.2c-.31-1.07-.46-2.18-.7-3.36H68.38V36.69c0-3,.1-5.95,0-8.91A64.93,64.93,0,0,1,69.49,15c.15-1,.36-2,.44-2.93a4.69,4.69,0,0,1,2.87-3.94A21,21,0,0,1,80.56,6a29.43,29.43,0,0,1,13.5,1.51c2.49,1,4.25,2.44,4.3,5.34a5.21,5.21,0,0,0,.13.7q.69,4.3,1.36,8.59a6,6,0,0,1,.07.91q0,6.92,0,13.84C99.93,37.13,99.91,37.4,99.88,37.82ZM72.68,14.23a1.54,1.54,0,0,0-.14.4c-.37,2.29-.76,4.58-1.1,6.87-.24,1.67,0,2,1.67,2H95a4.78,4.78,0,0,0,.92,0c.57-.11.85-.38.74-1.07-.34-2.09-.58-4.19-.88-6.29-.08-.61,0-1.39-.37-1.75s-1.1-.08-1.68-.08H72.68ZM75.8,31.09a2.28,2.28,0,0,0-2.29-2.25,2.25,2.25,0,1,0-.11,4.49A2.3,2.3,0,0,0,75.8,31.09Zm21.13,0a2.28,2.28,0,0,0-2.29-2.24,2.25,2.25,0,1,0,0,4.49A2.28,2.28,0,0,0,96.93,31.08Z"/>
    <path d="M117,10.27c2.15,0,4.3,0,6.45,0a3.69,3.69,0,0,1,4,3.9c0,1.06,0,2.12,0,3.17a3.62,3.62,0,0,1-3,3.33,1.07,1.07,0,0,1-.2,0c-4.88,0-9.76.08-14.63,0a3.37,3.37,0,0,1-3.14-3.55c0-1,0-2,0-3a3.61,3.61,0,0,1,3.83-3.87C112.55,10.24,114.77,10.27,117,10.27Z" fill="#fff"/>
    <path d="M125.43,34.46a2.75,2.75,0,0,1-2.69-2.87,2.7,2.7,0,0,1,2.92-2.5,2.65,2.65,0,0,1,2.58,2.63A2.71,2.71,0,0,1,125.43,34.46Z" fill="#fff"/>
    <path d="M112.58,31.72a2.67,2.67,0,1,1-5.33,0,2.64,2.64,0,0,1,2.7-2.6A2.52,2.52,0,0,1,112.58,31.72Z" fill="#fff"/>
    <path d="M117.73,5c.92,0,1.84,0,2.76,0A1.21,1.21,0,0,1,121.8,6.3a1.19,1.19,0,0,1-1.24,1.33q-2.91.09-5.82,0a1.19,1.19,0,0,1-1.23-1.35A1.24,1.24,0,0,1,114.87,5C115.82,5,116.77,5,117.73,5Z" fill="#fff"/>
    <path d="M72.68,14.23H93.77c.58,0,1.39-.21,1.68.08s.29,1.15.37,1.75c.29,2.1.54,4.2.88,6.29.11.69-.17,1-.74,1.07a4.78,4.78,0,0,1-.92,0H73.11c-1.64,0-1.92-.29-1.67-2,.33-2.3.72-4.58,1.1-6.87A1.54,1.54,0,0,1,72.68,14.23Z" fill="#fff"/>
    <path d="M75.8,31.09a2.3,2.3,0,0,1-2.41,2.24,2.25,2.25,0,1,1,.11-4.49A2.28,2.28,0,0,1,75.8,31.09Z" fill="#fff"/>
    <path d="M96.93,31.08a2.28,2.28,0,0,1-2.28,2.25,2.25,2.25,0,1,1,0-4.49A2.28,2.28,0,0,1,96.93,31.08Z" fill="#fff"/>
  </g>
</svg>
