<?xml version="1.0" encoding="utf-8"?>
<!-- Generator: Adobe Illustrator 21.1.0, SVG Export Plug-In . SVG Version: 6.00 Build 0)  -->
<svg version="1.1" id="Layer_1" xmlns="http://www.w3.org/2000/svg" xmlns:xlink="http://www.w3.org/1999/xlink" x="0px" y="0px"
	 viewBox="0 0 200 50" style="enable-background:new 0 0 200 50;" xml:space="preserve">
<style type="text/css">
	.st0{fill:#FFFFFF;}
	.st1{fill:none;}
	.st2{fill:#D22020;}
</style>
<title>kommuna_Transport</title>
<g>
	<path class="st0" d="M127,37.8c0.8-0.4,1.5-0.8,2.1-1.2c1.5-0.8,2.3-2.4,2.3-4.1c0-7.9,0.1-15.9,0-23.8c0-2.9-2.9-5-5.3-5
		c-5.5-0.1-11.1,0-16.6,0c-2.7,0-5.8,2.8-5.8,5.6c0,7.7,0,15.3,0,23c0,0.8,0.2,1.6,0.6,2.3c0.9,1.6,2.3,2.8,4.1,3.3l-6.9,10.5
		c1.2,0,2.2,0.1,3.2,0c0.5-0.1,0.9-0.3,1.2-0.7c1.4-2.1,2.8-4.3,4.2-6.4c0.3-0.5,0.8-0.8,1.3-0.7c4.1,0,8.3,0,12.4,0
		c0.5-0.1,1.1,0.2,1.3,0.7c1.4,2.2,2.8,4.3,4.2,6.4c0.2,0.3,0.5,0.6,0.8,0.7c1.2,0.1,2.4,0,3.7,0L127,37.8z M99.9,37.8
		c0-0.4,0.1-0.7,0.1-1c0-4.6,0-9.2,0-13.8c0-0.3,0-0.6-0.1-0.9c-0.4-2.9-0.9-5.7-1.4-8.6c-0.1-0.2-0.1-0.5-0.1-0.7
		c-0.1-2.9-1.8-4.4-4.3-5.3c-4.3-1.5-9-2-13.5-1.4c-2.7,0.2-5.3,0.9-7.8,2.1c-1.6,0.7-2.7,2.1-2.9,3.9c-0.1,1-0.3,2-0.4,2.9
		c-0.8,4.2-1.2,8.5-1.1,12.8c0.1,3,0,5.9,0,8.9v1.2h2.1c0.2,1.2,0.4,2.3,0.7,3.4c0.2,0.8,0.7,1.6,1.7,1.6s1.4-0.8,1.7-1.5
		c0.2-0.4,0.3-0.7,0.4-1.1c0.1-0.7,0.2-1.5,0.3-2.2h17.4c0,0.5,0,1,0.1,1.5c0.1,0.5,0.2,0.9,0.3,1.4c0.4,1.3,1.2,2.2,2,2.1
		c1.2-0.2,1.6-1.1,1.8-2.1s0.3-1.9,0.4-2.9L99.9,37.8z"/>
	<path d="M127,37.8l7,10.5c-1.4,0-2.5,0-3.7,0c-0.3,0-0.6-0.4-0.8-0.7c-1.4-2.1-2.8-4.3-4.2-6.4c-0.3-0.5-0.8-0.8-1.3-0.7
		c-4.1,0-8.3,0-12.4,0c-0.5-0.1-1.1,0.2-1.3,0.7c-1.4,2.2-2.8,4.3-4.2,6.4c-0.3,0.4-0.7,0.6-1.2,0.7c-1,0.1-2,0-3.2,0l6.9-10.5
		c-1.8-0.5-3.2-1.7-4.1-3.3c-0.4-0.7-0.6-1.5-0.6-2.3c0-7.7,0-15.3,0-23c0-2.7,3-5.6,5.8-5.6c5.5,0,11.1-0.1,16.6,0
		c2.4,0,5.3,2.2,5.3,5c0.1,7.9,0,15.9,0,23.8c0,1.7-0.8,3.3-2.3,4.1C128.5,37,127.8,37.4,127,37.8z M117,10.3c-2.2,0-4.4,0-6.7,0
		c-2-0.1-3.7,1.4-3.8,3.4c0,0.2,0,0.3,0,0.5c0,1,0,2,0,3c-0.1,1.8,1.3,3.4,3.1,3.5c4.9,0.1,9.8,0,14.6,0c0.1,0,0.1,0,0.2,0
		c1.6-0.3,2.9-1.7,3-3.3c0.1-1,0.1-2.1,0-3.2c0.1-2-1.4-3.8-3.5-3.9c-0.2,0-0.4,0-0.5,0C121.3,10.3,119.1,10.3,117,10.3z
		 M125.4,34.5c1.5,0.1,2.8-1.1,2.8-2.6c0,0,0-0.1,0-0.1c0-1.4-1.2-2.6-2.6-2.6c-1.5-0.1-2.8,1-2.9,2.5c0,0,0,0,0,0
		C122.7,33.1,123.9,34.4,125.4,34.5C125.4,34.5,125.4,34.5,125.4,34.5L125.4,34.5z M112.6,31.7c0.1-1.4-1-2.6-2.4-2.6
		c-0.1,0-0.1,0-0.2,0c-1.5,0-2.7,1.1-2.7,2.6c0,0,0,0,0,0c-0.1,1.5,1,2.7,2.5,2.8c1.5,0.1,2.7-1,2.8-2.5
		C112.6,31.9,112.6,31.8,112.6,31.7L112.6,31.7z M117.7,5c-1,0-1.9,0-2.9,0c-0.7-0.1-1.3,0.4-1.3,1.1c0,0,0,0.1,0,0.1
		c-0.1,0.7,0.4,1.3,1,1.3c0.1,0,0.1,0,0.2,0c1.9,0.1,3.9,0.1,5.8,0c0.7,0,1.2-0.5,1.2-1.1c0,0,0-0.1,0-0.1c0.1-0.7-0.4-1.2-1.1-1.3
		c-0.1,0-0.1,0-0.2,0C119.6,5,118.7,5,117.7,5z"/>
	<path d="M99.9,37.8h-2.5c-0.2,1-0.2,2-0.4,2.9s-0.6,2-1.8,2.1c-0.8,0.1-1.6-0.8-2-2.1c-0.1-0.5-0.2-0.9-0.3-1.4
		c-0.1-0.5-0.1-0.9-0.1-1.5H75.2c-0.1,0.8-0.2,1.5-0.3,2.2c-0.1,0.4-0.2,0.8-0.3,1.2c-0.3,0.8-0.8,1.5-1.7,1.5s-1.4-0.8-1.7-1.6
		c-0.3-1.1-0.5-2.2-0.7-3.4h-2.1v-1.2c0-3,0.1-6,0-8.9c-0.1-4.3,0.3-8.6,1.1-12.8c0.2-1,0.4-2,0.4-2.9c0.1-1.7,1.3-3.3,2.9-3.9
		c2.4-1.2,5.1-1.9,7.8-2.1c4.6-0.6,9.2,0,13.5,1.5c2.5,1,4.3,2.4,4.3,5.3c0,0.2,0.1,0.5,0.1,0.7c0.5,2.9,0.9,5.7,1.4,8.6
		c0,0.3,0.1,0.6,0.1,0.9c0,4.6,0,9.2,0,13.8C99.9,37.1,99.9,37.4,99.9,37.8z M72.7,14.2c-0.1,0.1-0.1,0.3-0.1,0.4
		c-0.4,2.3-0.8,4.6-1.1,6.9c-0.2,1.7,0,2,1.7,2H95c0.3,0,0.6,0,0.9,0c0.6-0.1,0.8-0.4,0.7-1.1c-0.3-2.1-0.6-4.2-0.9-6.3
		c-0.1-0.6,0-1.4-0.4-1.8s-1.1-0.1-1.7-0.1L72.7,14.2L72.7,14.2z M75.8,31.1c0-1.3-1-2.3-2.3-2.3c-1.2-0.1-2.3,0.8-2.4,2
		c-0.1,1.2,0.8,2.3,2,2.4c0.1,0,0.2,0,0.3,0C74.7,33.4,75.7,32.4,75.8,31.1C75.8,31.1,75.8,31.1,75.8,31.1z M96.9,31.1
		c0-1.2-1-2.2-2.3-2.2c-1.2-0.1-2.3,0.9-2.4,2.1c-0.1,1.2,0.9,2.3,2.1,2.4c0.1,0,0.2,0,0.3,0C95.9,33.3,96.9,32.3,96.9,31.1
		L96.9,31.1z"/>
	<path class="st0" d="M117,10.3c2.2,0,4.3,0,6.4,0c2-0.2,3.8,1.3,4,3.4c0,0.2,0,0.4,0,0.5c0,1.1,0,2.1,0,3.2c-0.1,1.7-1.4,3-3,3.3
		c-0.1,0-0.1,0-0.2,0c-4.9,0-9.8,0.1-14.6,0c-1.8-0.1-3.2-1.7-3.1-3.5c0-1,0-2,0-3c-0.1-2,1.3-3.7,3.3-3.9c0.2,0,0.3,0,0.5,0
		C112.6,10.2,114.8,10.3,117,10.3z"/>
	<path class="st0" d="M125.4,34.5c-1.5,0-2.7-1.3-2.7-2.8c0,0,0,0,0-0.1c0.1-1.5,1.4-2.6,2.9-2.5c0,0,0,0,0,0c1.4,0,2.6,1.2,2.6,2.6
		c0,1.5-1.2,2.7-2.7,2.7C125.5,34.5,125.5,34.5,125.4,34.5z"/>
	<path class="st0" d="M112.6,31.7c0.1,1.5-1,2.7-2.5,2.8c-1.5,0.1-2.7-1-2.8-2.5c0-0.1,0-0.2,0-0.3c0-1.5,1.2-2.6,2.7-2.6
		c0,0,0,0,0,0c1.4-0.1,2.6,1,2.6,2.4C112.6,31.6,112.6,31.7,112.6,31.7z"/>
	<path class="st0" d="M117.7,5c0.9,0,1.8,0,2.8,0c0.7-0.1,1.3,0.4,1.3,1.1c0,0.1,0,0.1,0,0.2c0.1,0.7-0.4,1.2-1,1.3
		c-0.1,0-0.1,0-0.2,0c-1.9,0.1-3.9,0.1-5.8,0c-0.7,0-1.2-0.5-1.2-1.1c0-0.1,0-0.1,0-0.2c0-0.7,0.5-1.3,1.2-1.3c0.1,0,0.1,0,0.2,0
		C115.8,5,116.8,5,117.7,5z"/>
	<path class="st0" d="M72.7,14.2h21.1c0.6,0,1.4-0.2,1.7,0.1s0.3,1.1,0.4,1.8c0.3,2.1,0.5,4.2,0.9,6.3c0.1,0.7-0.2,1-0.7,1.1
		c-0.3,0-0.6,0-0.9,0H73.1c-1.6,0-1.9-0.3-1.7-2c0.3-2.3,0.7-4.6,1.1-6.9C72.6,14.4,72.6,14.3,72.7,14.2z"/>
	<path class="st0" d="M75.8,31.1c0,1.3-1.1,2.3-2.4,2.2c0,0,0,0-0.1,0c-1.2,0-2.3-0.9-2.3-2.2s0.9-2.3,2.2-2.3c0.1,0,0.2,0,0.3,0
		C74.8,28.8,75.8,29.8,75.8,31.1z"/>
	<path class="st0" d="M96.9,31.1c0,1.2-1,2.3-2.3,2.3c-1.2,0.1-2.3-0.9-2.4-2.1c-0.1-1.2,0.9-2.3,2.1-2.4c0.1,0,0.2,0,0.3,0
		C95.9,28.8,96.9,29.8,96.9,31.1z"/>
</g>
<g>
	<g>
		<path class="st0" d="M143.3,13.9c-2.4,2.1-4.2,5.6-3.2,8.6c1,3,3.4,5.3,5.9,7.2c1.5,1.1,3.3,2.1,5.2,1.8c0.9-0.1,1.7-0.5,2.4-0.9
			c2.5-1.3,4.9-3.3,5.5-6c0.3-1.3,0.1-2.7-0.1-4c-0.3-1.5-0.7-3-1.5-4.3c-1.4-2.1-3.9-3.2-6.3-3.8C148.6,11.8,145.2,11.7,143.3,13.9
			"/>
		<path d="M148.3,31.9c-1.1-0.4-2.1-1-2.8-1.6c-3.2-2.3-5.3-4.8-6.2-7.6c-1.2-3.4,1-7.3,3.4-9.5c1.8-2,5-2.6,8.8-1.6
			c3.2,0.8,5.5,2.2,6.8,4.2c1,1.5,1.4,3.2,1.7,4.6c0.2,1.3,0.4,2.8,0.1,4.3c-0.6,2.6-2.6,4.9-6,6.6c-0.8,0.4-1.7,0.8-2.7,1
			C150.3,32.5,149.3,32.3,148.3,31.9z M143.2,13.8l0.7,0.8c-2.1,1.8-3.9,4.9-2.9,7.6c0.8,2.4,2.7,4.7,5.6,6.7
			c1.2,0.8,2.9,1.9,4.6,1.7c0.7-0.1,1.5-0.4,2.1-0.8c2-1,4.5-2.8,5.1-5.4c0.3-1.2,0.1-2.5-0.1-3.6c-0.2-1.3-0.6-2.8-1.4-4
			c-1.1-1.6-3-2.7-5.8-3.5c-1.5-0.4-5.2-1.1-7.1,1.1L143.2,13.8z"/>
	</g>
	<g>
		<line class="st1" x1="140.1" y1="5.1" x2="142.1" y2="9"/>
		<rect x="140.2" y="4.8" transform="matrix(0.8875 -0.4607 0.4607 0.8875 12.6183 65.8029)" width="1.8" height="4.4"/>
	</g>
	<g>
		<line class="st1" x1="146.9" y1="3.8" x2="146.7" y2="9.1"/>

			<rect x="144.1" y="5.5" transform="matrix(2.983501e-02 -0.9996 0.9996 2.983501e-02 135.9945 152.9533)" width="5.3" height="1.8"/>
	</g>
	<g>
		<line class="st1" x1="152.7" y1="5" x2="151.4" y2="9.5"/>
		<rect x="149.7" y="6.4" transform="matrix(0.2841 -0.9588 0.9588 0.2841 101.8424 150.981)" width="4.7" height="1.8"/>
	</g>
	<g>
		<line class="st1" x1="157.1" y1="7.6" x2="155.2" y2="10.6"/>
		<rect x="154.6" y="8.4" transform="matrix(0.534 -0.8455 0.8455 0.534 64.998 136.504)" width="3.5" height="1.8"/>
	</g>
	<g>
		<line class="st1" x1="161.4" y1="11.5" x2="158.1" y2="14.2"/>
		<rect x="157.7" y="11.9" transform="matrix(0.7715 -0.6362 0.6362 0.7715 28.3413 104.5575)" width="4.2" height="1.8"/>
	</g>
	<g>
		<line class="st1" x1="168.1" y1="12.4" x2="161" y2="16"/>
		<rect x="160.5" y="13.3" transform="matrix(0.8918 -0.4524 0.4524 0.8918 11.3917 75.9527)" width="8" height="1.8"/>
	</g>
	<path d="M146.4,17c0.4,0.5,0.6,1.1,0.5,1.7l0.6-0.5c-0.5,0-1.5-0.4-1-1.1c0.4-0.6,1.4-0.3,1.7,0.1s0.4,1.1-0.1,1.5
		c-0.4,0.3-1.1,0.1-1.3-0.3c-0.3-0.7-1.4-0.2-1.1,0.5c0.5,1.1,2,1.6,3,0.8c1.1-0.8,1.1-2.5,0.1-3.4c-1-0.9-2.8-0.9-3.5,0.4
		c-0.7,1.4,0.6,2.8,2,2.8c0.3,0,0.6-0.2,0.6-0.5c0.1-0.9-0.2-1.8-0.8-2.5C146.8,15.7,145.9,16.4,146.4,17L146.4,17z"/>
	<path d="M153.2,19.4c0.8,0.2,1.8,0.8,1.8,1.8c0,0.8-0.6,1.6-1.4,1.2c-0.4-0.2-0.7-0.7-0.8-1.2c-0.1-0.3-0.2-1.1,0.1-1.4
		c0.1-0.1,0.5-0.1,0.6,0.1c0.1,0.2-0.3,0.5-0.5,0.4c-0.3-0.1-0.6-0.1-0.8,0.1c-0.2,0.2-0.1,0.7,0.1,0.8c0.6,0.3,1.2,0.3,1.7-0.1
		c0.5-0.4,0.7-1.1,0.5-1.6c-0.5-1.2-2.4-1.2-2.8,0.1c-0.5,1.4,0,3.3,1.4,3.9c1.4,0.6,2.7-0.3,3-1.7c0.3-1.7-1.1-3-2.6-3.4
		C152.9,18,152.5,19.1,153.2,19.4L153.2,19.4z"/>
	<path d="M143,21.4c0.8,2.5,2.8,4.3,5.1,5.4c1.3,0.6,2.7,0.9,4.1,0.6c1.3-0.3,2.5-1,3.6-1.7c0.6-0.4,0.2-1.5-0.5-1.1
		c-1,0.6-2,1.2-3.1,1.5c-1.3,0.3-2.5,0.1-3.7-0.5c-2-0.9-3.8-2.6-4.5-4.8C143.9,20.2,142.8,20.7,143,21.4L143,21.4z"/>
</g>
<g>
	<g>
		<path class="st0" d="M166.9,23.9c-1.2,1-2.1,2.7-1.6,4.2c0.5,1.5,1.7,2.6,2.9,3.5c0.8,0.5,1.6,1,2.6,0.9c0.4-0.1,0.8-0.2,1.2-0.4
			c1.2-0.6,2.4-1.6,2.7-3c0.1-0.6,0.1-1.3-0.1-1.9c-0.1-0.7-0.3-1.5-0.8-2.1c-0.7-1-1.9-1.6-3.1-1.9
			C169.5,22.8,167.9,22.8,166.9,23.9"/>
		<path d="M169.4,32.7c-0.5-0.2-1-0.5-1.4-0.8c-1.6-1.1-2.6-2.4-3.1-3.7c-0.6-1.7,0.5-3.6,1.7-4.7c0.9-1,2.5-1.3,4.3-0.8
			c1.6,0.4,2.7,1.1,3.3,2.1c0.5,0.7,0.7,1.6,0.8,2.3c0.1,0.6,0.2,1.4,0,2.1c-0.3,1.3-1.3,2.4-3,3.3c-0.4,0.2-0.8,0.4-1.3,0.5
			C170.4,33,169.9,32.9,169.4,32.7z M166.9,23.8l0.3,0.4c-1,0.9-1.9,2.4-1.4,3.7c0.4,1.2,1.3,2.3,2.8,3.3c0.6,0.4,1.4,0.9,2.3,0.8
			c0.4,0,0.7-0.2,1.1-0.4c1-0.5,2.2-1.4,2.5-2.7c0.1-0.6,0-1.2-0.1-1.8c-0.1-0.6-0.3-1.4-0.7-2c-0.5-0.8-1.5-1.4-2.8-1.7
			c-0.7-0.2-2.6-0.5-3.5,0.5L166.9,23.8z"/>
	</g>
	<g>
		<line class="st1" x1="165.4" y1="19.5" x2="166.4" y2="21.5"/>
		<rect x="165.4" y="19.4" transform="matrix(0.8875 -0.4607 0.4607 0.8875 9.2116 78.726)" width="0.9" height="2.2"/>
	</g>
	<g>
		<line class="st1" x1="168.7" y1="18.9" x2="168.6" y2="21.5"/>

			<rect x="167.4" y="19.7" transform="matrix(2.983501e-02 -0.9996 0.9996 2.983501e-02 143.4606 188.1702)" width="2.6" height="0.9"/>
	</g>
	<g>
		<line class="st1" x1="171.6" y1="19.5" x2="170.9" y2="21.7"/>
		<rect x="170.1" y="20.2" transform="matrix(0.2841 -0.9588 0.9588 0.2841 102.8333 178.9431)" width="2.3" height="0.9"/>
	</g>
	<g>
		<line class="st1" x1="173.7" y1="20.8" x2="172.8" y2="22.3"/>
		<rect x="172.5" y="21.2" transform="matrix(0.534 -0.8455 0.8455 0.534 62.5253 156.6331)" width="1.7" height="0.9"/>
	</g>
	<g>
		<line class="st1" x1="175.8" y1="22.7" x2="174.2" y2="24"/>
		<rect x="174" y="22.9" transform="matrix(0.7715 -0.6362 0.6362 0.7715 25.148 116.6904)" width="2.1" height="0.9"/>
	</g>
	<g>
		<line class="st1" x1="179.1" y1="23.1" x2="175.6" y2="24.9"/>
		<rect x="175.4" y="23.6" transform="matrix(0.8918 -0.4524 0.4524 0.8918 8.336 82.8404)" width="3.9" height="0.9"/>
	</g>
	<path d="M168.5,25.4c0.2,0.2,0.3,0.5,0.3,0.8L169,26C168.8,26,168.3,25.8,168.5,25.4c0.2-0.3,0.7-0.1,0.9,0.1
		c0.2,0.2,0.2,0.6,0,0.7c-0.2,0.2-0.5,0.1-0.6-0.2c-0.1-0.3-0.7-0.1-0.5,0.2c0.2,0.6,1,0.8,1.5,0.4c0.5-0.4,0.5-1.2,0-1.7
		c-0.5-0.4-1.4-0.4-1.7,0.2c-0.4,0.7,0.3,1.4,1,1.4c0.1,0,0.3-0.1,0.3-0.3c0-0.4-0.1-0.9-0.4-1.2C168.7,24.7,168.2,25.1,168.5,25.4
		L168.5,25.4z"/>
	<path d="M171.8,26.6c0.4,0.1,0.9,0.4,0.9,0.9c0,0.4-0.3,0.8-0.7,0.6c-0.2-0.1-0.3-0.3-0.4-0.6c0-0.1-0.1-0.6,0.1-0.7
		c0.1-0.1,0.3,0,0.3,0c0,0.1-0.1,0.2-0.2,0.2c-0.1-0.1-0.3-0.1-0.4,0.1c-0.1,0.1-0.1,0.3,0.1,0.4c0.3,0.2,0.6,0.1,0.9-0.1
		c0.2-0.2,0.4-0.5,0.2-0.8c-0.2-0.6-1.2-0.6-1.4,0c-0.2,0.7,0,1.6,0.7,1.9c0.7,0.3,1.3-0.2,1.5-0.8c0.2-0.8-0.5-1.5-1.3-1.7
		C171.7,25.9,171.5,26.4,171.8,26.6L171.8,26.6z"/>
	<path d="M166.8,27.5c0.4,1.2,1.4,2.1,2.5,2.6c0.6,0.3,1.3,0.4,2,0.3c0.6-0.1,1.2-0.5,1.8-0.8c0.3-0.2,0.1-0.7-0.2-0.5
		c-0.5,0.3-1,0.6-1.5,0.7c-0.6,0.2-1.2,0-1.8-0.2c-1-0.5-1.9-1.3-2.2-2.3C167.2,27,166.7,27.2,166.8,27.5L166.8,27.5z"/>
</g>
<g>
	<path class="st0" d="M107.4,38.2H128c0.6-0.3,1.1-0.6,1.7-1c1.5-0.9,2.4-2.5,2.4-4.2c0-8.2,0.1-16.5,0-24.7c0-3-3-5.2-5.5-5.2
		c-5.8-0.1-11.5,0-17.2,0c-2.9,0-6,2.9-6,5.8c0,8,0,15.9,0,23.9c0,0.8,0.3,1.7,0.6,2.4C104.7,36.5,105.9,37.6,107.4,38.2z"/>
	<path class="st2" d="M107.4,38.2H128c0.6-0.3,1.1-0.6,1.7-1c1.5-0.9,2.4-2.5,2.4-4.2c0-8.2,0.1-16.5,0-24.7c0-3-3-5.2-5.5-5.2
		c-5.8-0.1-11.5,0-17.2,0c-2.9,0-6,2.9-6,5.8c0,8,0,15.9,0,23.9c0,0.8,0.3,1.7,0.6,2.4C104.7,36.5,105.9,37.6,107.4,38.2z
		 M112.5,32.5c-0.1,1.5-1.4,2.7-2.9,2.6c-1.5-0.1-2.7-1.4-2.6-2.9c0,0,0,0,0,0c0-1.5,1.3-2.7,2.8-2.7c0.1,0,0.1,0,0.2,0
		c1.4,0.1,2.6,1.3,2.5,2.7l0,0C112.5,32.2,112.5,32.3,112.5,32.5z M128.7,32.3c-0.1,1.6-1.4,2.8-2.9,2.7h0c0,0,0,0-0.1,0
		c-1.6-0.1-2.8-1.4-2.7-3c0,0,0,0,0,0c0.1-1.5,1.5-2.7,3-2.6c1.5,0,2.7,1.2,2.7,2.7C128.7,32.2,128.7,32.3,128.7,32.3z M113.4,5.6
		c0.1-0.7,0.7-1.2,1.4-1.2c1,0,1.9,0,3,0c1,0,1.9,0,2.9,0c0.1,0,0.1,0,0.2,0c0.7,0.1,1.2,0.7,1.2,1.4c0,0.1,0,0.1,0,0.2
		c0,0.7-0.6,1.2-1.3,1.2c-2,0.1-4,0.1-6,0c-0.1,0-0.1,0-0.2,0c-0.7-0.1-1.1-0.7-1.1-1.4C113.4,5.7,113.4,5.6,113.4,5.6z M110.1,9.9
		c2.3,0,4.6,0,6.9,0c2.2,0,4.5,0,6.7,0c0.2,0,0.4,0,0.6,0c2.1,0.1,3.7,1.9,3.6,4.1c0.1,1.1,0.1,2.2,0,3.3c-0.1,1.7-1.4,3.2-3.1,3.5
		c-0.1,0-0.1,0-0.2,0c-5.1,0-10.1,0.1-15.2,0c-1.9-0.1-3.4-1.8-3.3-3.7c0-1,0-2.1,0-3.1c0-0.2,0-0.3,0-0.5
		C106.2,11.3,108,9.8,110.1,9.9z"/>
</g>
</svg>
