<svg id="Layer_1" data-name="Layer 1" xmlns="http://www.w3.org/2000/svg" width="200" height="50" viewBox="0 0 200 50">
  <title>kommuna_Disco</title>
  <g>
    <path d="M89.11,7.87A3.5,3.5,0,0,0,86.45,11c-.05.49-.05.49-.55.49H82.07a1.14,1.14,0,0,0-1.25.91,1.19,1.19,0,0,0,.28,1q3,4.07,6.05,8.15,4,5.4,8,10.81a1,1,0,0,1,.2.55q0,4.44,0,8.89A4.18,4.18,0,0,1,91.18,46H86.41c-.76,0-1.27.39-1.27,1s.5,1,1.27,1h23a2.22,2.22,0,0,0,.43,0,1,1,0,0,0,.83-1,1,1,0,0,0-.89-.85,3.13,3.13,0,0,0-.4,0h-4.88a3.7,3.7,0,0,1-.86-.09,4.1,4.1,0,0,1-3.16-4.13q0-4.39,0-8.78a1,1,0,0,1,.19-.56c.58-.79,1.19-1.55,1.76-2.33l9.23-12.62,3-4.11a1.17,1.17,0,0,0,.22-1.24,1.21,1.21,0,0,0-1.25-.72H93.87c-.26,0-.43,0-.43-.35a3.49,3.49,0,0,0-3-3.32.43.43,0,0,1-.27-.29c-.14-.77-.21-1.55-.4-2.31-.28-1.15-.63-2.29-1-3.47l-1.48.8A16,16,0,0,1,89.11,7.87ZM118.85,20c-.47-.42-.89-.82-1.34-1.2a.36.36,0,0,1-.1-.54,7.23,7.23,0,0,0,.82-3.08,1.33,1.33,0,0,0-.95-1.38,1.15,1.15,0,0,0-1.44.51c-.71,1-1.4,1.93-2.12,2.88-.16.22-.17.34,0,.53,1.06.93,2.1,1.88,3.15,2.82l2.13,1.9a9.26,9.26,0,0,0,1.7-2.74,10.46,10.46,0,0,0-.4-9.58,15.46,15.46,0,0,0-5.46-5.56,10.72,10.72,0,0,0-5.76-1.72,11.57,11.57,0,0,0-8,3.42s0,.07,0,.09l4,3.65a.58.58,0,0,0,.36.13h4.19a.27.27,0,0,0,.31-.25c.14-.65.31-1.28.46-1.93a1.26,1.26,0,0,0-1.28-1.57,6.42,6.42,0,0,0-.93.11,8.21,8.21,0,0,0-2.8,1.11c-.09.05-.26.11-.31.07-.51-.43-1-.88-1.51-1.34a2,2,0,0,1,.18-.16,9.1,9.1,0,0,1,8.77-.94,12.81,12.81,0,0,1,4.56,3.29c2.42,2.6,3.52,5.59,2.59,9.14A9.19,9.19,0,0,1,118.85,20Zm-2.61-8.19a1.22,1.22,0,0,0,.06-1.74c-.68-.71-1.4-1.39-2.14-2a1.27,1.27,0,0,0-1.92.41,13.05,13.05,0,0,0-.5,1.72h1.93A2.56,2.56,0,0,1,116.25,11.83Z" fill="#fff"/>
    <path d="M89.11,7.87a16,16,0,0,0-1.74-5.32l1.48-.8c.33,1.18.68,2.32,1,3.47.18.76.25,1.54.4,2.31a.43.43,0,0,0,.27.29,3.49,3.49,0,0,1,3,3.32c0,.34.18.35.43.35h19.8a1.21,1.21,0,0,1,1.25.72,1.17,1.17,0,0,1-.22,1.24l-3,4.11-9.23,12.62c-.58.79-1.19,1.55-1.76,2.33a1,1,0,0,0-.19.56q0,4.39,0,8.78A4.1,4.1,0,0,0,103.66,46a3.7,3.7,0,0,0,.86.09h4.88a3.13,3.13,0,0,1,.4,0,1,1,0,0,1,.89.85,1,1,0,0,1-.83,1,2.22,2.22,0,0,1-.43,0h-23c-.76,0-1.27-.4-1.27-1s.51-1,1.27-1h4.77a4.18,4.18,0,0,0,4.14-4.14q0-4.44,0-8.89a1,1,0,0,0-.2-.55q-4-5.41-8-10.81-3-4.08-6.05-8.15a1.19,1.19,0,0,1-.28-1,1.14,1.14,0,0,1,1.25-.91H85.9c.49,0,.49,0,.55-.49A3.5,3.5,0,0,1,89.11,7.87Zm-5.58,5.62c.09.15.13.23.19.3l4.48,6q4.48,6.05,9,12.11a.89.89,0,0,1,.17.49q0,4.79,0,9.58a5.09,5.09,0,0,1-.51,2.27c-.3.6-.67,1.15-1,1.73h4.26l-.26-.36A6.06,6.06,0,0,1,98.57,42q0-4.82,0-9.65a.87.87,0,0,1,.17-.49c.71-.94,1.46-1.85,2.16-2.8q5.42-7.33,10.82-14.68l.64-.89-.46,0H93.08a.82.82,0,0,0-.52.22,3.54,3.54,0,0,1-5.19,0A.55.55,0,0,0,87,13.5C85.89,13.48,84.75,13.49,83.53,13.49ZM88.8,9.07a.77.77,0,1,0,0,1.54.78.78,0,0,0,.78-.78A.76.76,0,0,0,88.8,9.07Z"/>
    <path d="M118.85,20a9.19,9.19,0,0,0,1-2.33c.93-3.55-.17-6.54-2.59-9.14a12.81,12.81,0,0,0-4.56-3.29,9.1,9.1,0,0,0-8.77.94,2,2,0,0,0-.18.16c.51.46,1,.91,1.51,1.34,0,0,.22,0,.31-.07a8.21,8.21,0,0,1,2.8-1.11,6.42,6.42,0,0,1,.93-.11A1.26,1.26,0,0,1,110.54,8c-.15.64-.32,1.28-.46,1.93a.27.27,0,0,1-.31.25h-4.19a.58.58,0,0,1-.36-.13l-4-3.65s0,0,0-.09a11.57,11.57,0,0,1,8-3.42,10.72,10.72,0,0,1,5.76,1.72,15.46,15.46,0,0,1,5.46,5.56,10.46,10.46,0,0,1,.4,9.58,9.26,9.26,0,0,1-1.7,2.74l-2.13-1.9c-1-.94-2.09-1.89-3.15-2.82-.22-.19-.21-.31,0-.53.72-1,1.41-1.92,2.12-2.88a1.15,1.15,0,0,1,1.44-.51,1.33,1.33,0,0,1,.95,1.38,7.23,7.23,0,0,1-.82,3.08.36.36,0,0,0,.1.54C118,19.19,118.39,19.6,118.85,20Z"/>
    <path d="M116.25,11.83a2.56,2.56,0,0,0-2.58-1.64h-1.93a13.05,13.05,0,0,1,.5-1.72,1.27,1.27,0,0,1,1.92-.41c.75.64,1.46,1.32,2.14,2A1.22,1.22,0,0,1,116.25,11.83Z"/>
    <path d="M83.53,13.49c1.22,0,2.37,0,3.51,0a.55.55,0,0,1,.32.18,3.54,3.54,0,0,0,5.19,0,.82.82,0,0,1,.52-.22H111.9l.46,0-.64.89q-5.41,7.34-10.82,14.68c-.7.95-1.45,1.86-2.16,2.8a.87.87,0,0,0-.17.49q0,4.82,0,9.65a6.06,6.06,0,0,0,1.23,3.63l.26.36H95.8c.34-.58.72-1.14,1-1.73A5.09,5.09,0,0,0,97.32,42q0-4.79,0-9.58a.89.89,0,0,0-.17-.49q-4.47-6.06-9-12.11l-4.48-6C83.66,13.72,83.62,13.64,83.53,13.49ZM107.67,17H88.41l9.53,12.75Z" fill="#fff"/>
    <path d="M88.8,9.07a.76.76,0,0,1,.74.76.78.78,0,0,1-.78.78.77.77,0,1,1,0-1.54Z" fill="#fff"/>
    <path d="M107.67,17,97.94,29.77,88.41,17ZM96.15,23.91a1.44,1.44,0,1,0-1.45-1.43A1.42,1.42,0,0,0,96.15,23.91Zm3.77-1.22a.93.93,0,0,0,.94-.89A.93.93,0,0,0,99,21.73.92.92,0,0,0,99.92,22.69Zm-5.78-3.62a.81.81,0,0,0-.73-.8.77.77,0,0,0-.82.74.8.8,0,0,0,.72.81A.82.82,0,0,0,94.15,19.07Z"/>
    <path d="M96.15,23.91a1.42,1.42,0,0,1-1.45-1.43,1.44,1.44,0,1,1,1.45,1.43Z" fill="#fff"/>
    <path d="M99.92,22.69a.92.92,0,0,1-.91-1,.93.93,0,0,1,1.85.07A.93.93,0,0,1,99.92,22.69Z" fill="#fff"/>
    <path d="M94.15,19.07a.82.82,0,0,1-.83.75A.8.8,0,0,1,92.6,19a.77.77,0,0,1,.82-.74A.81.81,0,0,1,94.15,19.07Z" fill="#fff"/>
  </g>
</svg>
