<?xml version="1.0" encoding="utf-8"?>
<!-- Generator: Adobe Illustrator 21.1.0, SVG Export Plug-In . SVG Version: 6.00 Build 0)  -->
<svg version="1.1" id="Layer_1" xmlns="http://www.w3.org/2000/svg" xmlns:xlink="http://www.w3.org/1999/xlink" x="0px" y="0px"
	 viewBox="0 0 200 50" style="enable-background:new 0 0 200 50;" xml:space="preserve">
<style type="text/css">
	.st0{fill:#FFFFFF;}
	.st1{fill:#D22020;}
	.st2{fill:none;}
</style>
<rect x="108.6" y="17.3" class="st0" width="21.3" height="29.1"/>
<title>kommuna_Study</title>
<g>
	<path class="st0" d="M107.5,47.3h23c0-0.5,0-0.8,0-1.2c0-4.1,0-8.2,0-12.4c-0.1-0.7,0.3-1.4,0.9-1.8c1.1-0.8,2.1-1.7,3.1-2.5
		c0.7-0.5,1.3-1.1,2-1.7l-2.5-3l-14.7,12.2l2.5,3l7.5-6.2v12.5h-20.6V18h2.9c-0.2,0.5-0.4,1-0.7,1.5c-0.6,0.7-0.6,1.8,0,2.5
		c0.7,0.7,1.8,0.7,2.6,0.1c0.7-0.7,0.7-1.9,0.1-2.6c-0.3-0.5-0.5-0.9-0.7-1.4h5.2c-0.2,0.5-0.4,1-0.7,1.5c-0.7,0.8-0.6,1.9,0.1,2.6
		c0.7,0.6,1.8,0.6,2.5,0c0.7-0.7,0.8-1.9,0.1-2.6c-0.3-0.5-0.5-1-0.7-1.5h5.3c-0.2,0.5-0.4,1.1-0.7,1.5c-0.6,0.8-0.6,1.9,0.1,2.6
		c0.7,0.8,1.9,0.8,2.7,0.1c0.8-0.7,0.8-1.9,0.1-2.7c-0.3-0.5-0.5-1-0.7-1.5h3.2c0,2,0,4,0,6c-0.1,0.3-0.2,0.6-0.5,0.9
		c-2.4,2-4.8,4-7.3,6l-4.3,3.6l1.1,1.4l14.7-12.2l-1.2-1.4l-1.5,1.1v-6.6h-4l0.1-0.3c-0.3-0.3-0.7-0.8-1-0.8s-0.7,0.5-1,0.8
		c-0.1,0.1-0.2,0.3-0.3,0.3c-1.2,0-2.4,0-3.7,0c0-2.2,0-4.3,0-6.3c0-0.7-0.2-1-0.9-1c-1.6,0-3.2,0-4.9,0c-0.7,0-0.9,0.2-0.9,0.9
		c0,1.9,0,3.7,0,5.6c-0.1,0.3-0.2,0.6-0.3,0.8c-0.1-0.2-0.3-0.4-0.5-0.6c-0.3-0.2-0.6-0.5-0.8-0.5s-0.6,0.3-0.8,0.5
		c-0.1,0.2-0.3,0.4-0.4,0.6c-0.1-0.2-0.2-0.5-0.3-0.7c0-0.3,0-0.6,0-0.9V9.5h-28v1.1c0,6.9,0,13.8,0,20.6c0,0.9,0.2,1.1,1.1,1.1
		c7.4,0,14.7,0,22.1,0c1.5,0,1.5,0,1.5,1.5c0,0.8-0.3,1-1,1c-2,0-4,0-6,0c-5.5,0-11,0-16.5,0c-0.9,0-1.2,0.3-1.1,1.2s0,1.5,0,2.2
		c0,1-0.7,0.8-1.1,0.7c-0.7-0.2-1.7,0.7-1.9-0.7c-0.1-0.7-0.1-1.4,0-2.1c0.1-1-0.2-1.3-1.2-1.3c-2.3,0.2-4.5-0.9-5.6-3
		c-0.4-0.6-0.7-1.2-1-1.8c-0.2,2.1-0.2,4.2-0.1,6.3c0.3,4.6,2.8,6.9,7.4,6.9c9.1,0,18.2,0,27.3,0c0.8,0,1.1,0.2,1,1
		S107.5,46.2,107.5,47.3z M79.8,20.9c0-3.4,0-6.9,0-10.3c0-1-0.3-1.2-1.2-1.2c-1.5,0.1-3,0.1-4.5,0c-0.8,0-1,0.2-1,1
		c0,4.4-0.1,8.7,0,13.1c0,2.3,0.6,4.5,1.7,6.5c0.9,1.6,2.1,2.6,4.1,2.4c0.8-0.1,1-0.3,1-1C79.8,27.9,79.8,24.4,79.8,20.9z
		 M107.5,6.9c0-1.2,0-2.2,0-3.2c0-0.8-0.2-1-1-1c-4.4,0-8.8,0-13.2,0c-2.1,0-4.2,0-6.2,0c-0.3,0-0.7,0.3-0.8,0.5
		c-0.1,1.2,0,2.4,0,3.7h3.5l0.1-2H104c0,0.5,0,1,0,1.5c0,0.2,0.3,0.6,0.4,0.6C105.4,6.9,106.4,6.9,107.5,6.9z M113.4,42.2l7.7-1.8
		l-4.5-5.4L113.4,42.2z M137.4,26.9c1.5-1.2,1.8-3.4,0.6-4.9c0,0,0-0.1-0.1-0.1c-1.2-1.5-3.4-1.6-4.9-0.4c0,0,0,0-0.1,0.1
		L137.4,26.9z"/>
	<path d="M107.5,47.3c0-1,0-2,0-3s-0.2-1-1-1c-9.1,0-18.2,0-27.3,0c-4.6,0-7.1-2.3-7.4-6.9c-0.1-2.1-0.1-4.2,0.1-6.3
		c0.3,0.6,0.7,1.2,1,1.8c1.1,2.1,3.3,3.2,5.6,3c1-0.1,1.3,0.3,1.2,1.3c-0.1,0.7-0.1,1.4,0,2.1c0.2,1.4,1.3,0.5,1.9,0.7
		c0.4,0.1,1.2,0.3,1.1-0.7c0-0.7,0-1.5,0-2.2s0.2-1.2,1.1-1.2c5.5,0,11,0,16.5,0c2,0,4,0,6,0c0.7,0,1-0.2,1-1c0-1.5,0-1.5-1.5-1.5
		c-7.4,0-14.7,0-22.1,0c-0.9,0-1.1-0.3-1.1-1.1c0-6.9,0-13.8,0-20.6v-1h28V15c0,0.3,0,0.6,0,0.9c0.1,0.3,0.2,0.5,0.3,0.7
		c0.1-0.2,0.2-0.4,0.4-0.6c0.3-0.2,0.6-0.5,0.8-0.5s0.6,0.3,0.8,0.5c0.2,0.2,0.3,0.4,0.5,0.6c0.1-0.3,0.2-0.5,0.3-0.8
		c0-1.9,0-3.7,0-5.6c0-0.7,0.2-0.9,0.9-0.9c1.6,0,3.3,0,4.9,0c0.8,0,1,0.3,0.9,1c0,2,0,4.1,0,6.3c1.3,0,2.5,0,3.7,0
		c0.1,0,0.2-0.2,0.3-0.3c0.3-0.3,0.7-0.8,1-0.8s0.7,0.5,1,0.8l-0.1,0.3h4v6.6l1.5-1.1l1.1,1.4l-14.6,12.2l-1.1-1.4l4.3-3.6
		c2.4-2,4.9-4,7.3-6c0.3-0.2,0.4-0.5,0.5-0.9c0-2,0-4,0-6h-3.2c0.2,0.5,0.4,1.1,0.7,1.5c0.6,0.8,0.5,2-0.3,2.6
		c-0.7,0.6-1.7,0.5-2.4,0c-0.7-0.7-0.7-1.8-0.1-2.6c0.3-0.5,0.5-1,0.7-1.5h-5.3c0.2,0.5,0.4,1,0.7,1.5c0.7,0.8,0.6,1.9-0.1,2.6
		c-0.7,0.6-1.8,0.6-2.5,0c-0.7-0.7-0.8-1.9-0.1-2.6c0.3-0.5,0.5-1,0.7-1.5H113c0.2,0.5,0.4,1,0.7,1.5c0.6,0.8,0.6,1.9-0.1,2.6
		c-0.7,0.6-1.9,0.6-2.6-0.1s-0.7-1.8-0.1-2.6c0.3-0.5,0.5-1,0.7-1.5h-2.9v28.1h20.6V33.6l-7.5,6.2l-2.5-3L134,24.6l2.5,3
		c-0.7,0.6-1.4,1.2-2,1.7c-1,0.9-2,1.7-3.1,2.5c-0.6,0.4-0.9,1.1-0.9,1.8c0,4.1,0,8.2,0,12.4c0,0.4,0,0.8,0,1.2L107.5,47.3z"/>
	<path d="M79.8,20.9c0,3.5,0,7,0,10.5c0,0.8-0.2,0.9-1,1c-2,0.2-3.2-0.8-4.1-2.4c-1.1-2-1.7-4.2-1.7-6.5c0-4.4,0-8.8,0-13.1
		c0-0.8,0.3-1,1-1c1.5,0.1,3,0.1,4.5,0c0.9,0,1.2,0.2,1.2,1.2C79.7,14,79.8,17.4,79.8,20.9z"/>
	<path d="M107.5,6.9c-1.1,0-2.1,0-3.1,0c-0.2,0-0.4-0.4-0.4-0.6c0-0.5,0-1,0-1.5H89.8l-0.1,2h-3.5c0-1.2,0-2.5,0-3.7
		c0-0.2,0.5-0.5,0.8-0.5c2.1,0,4.2,0,6.2,0c4.4,0,8.8,0,13.2,0c0.8,0,1.1,0.2,1,1C107.4,4.7,107.5,5.8,107.5,6.9z"/>
	<path class="st1" d="M113.3,42.2l3.3-7.2l4.5,5.4L113.3,42.2z"/>
	<path class="st1" d="M137.3,26.9l-4.4-5.4c1.4-1.3,3.6-1.1,4.9,0.3c0,0,0,0,0.1,0.1C139.1,23.4,138.9,25.6,137.3,26.9
		C137.4,26.9,137.3,26.9,137.3,26.9z"/>
</g>
<g>
	<g>
		<path class="st0" d="M47.2,26.6c0.6,3.1,2.8,6.4,5.9,7c3.1,0.6,6.3-0.3,9.2-1.6c1.7-0.8,3.4-1.9,4.2-3.6c0.3-0.8,0.4-1.7,0.4-2.6
			c0.1-2.8-0.4-5.9-2.5-7.8c-1-0.9-2.2-1.4-3.5-1.9c-1.4-0.5-3-0.9-4.5-0.8c-2.5,0.2-4.7,1.8-6.4,3.6C48,21,46.2,23.9,47.2,26.6"/>
		<path d="M65.4,31.1c-0.9,0.7-1.9,1.3-2.7,1.7c-3.5,1.7-6.8,2.2-9.7,1.7c-3.6-0.7-5.9-4.4-6.6-7.7c-0.9-2.5,0.2-5.6,2.9-8.5
			c2.3-2.4,4.6-3.7,7-3.8c1.8-0.2,3.4,0.3,4.9,0.8c1.2,0.4,2.7,1,3.8,2c2,1.8,2.9,4.7,2.8,8.5c0,0.9-0.1,1.9-0.5,2.8
			C66.8,29.6,66.1,30.4,65.4,31.1z M47,26.6l1.1-0.2c0.5,2.7,2.4,5.8,5.2,6.3c2.5,0.5,5.4-0.1,8.6-1.6c1.3-0.6,3.1-1.6,3.7-3.2
			c0.3-0.7,0.3-1.5,0.4-2.3c0.1-2.3-0.2-5.3-2.2-7.1c-0.9-0.8-2.1-1.3-3.2-1.7c-1.2-0.4-2.7-0.8-4.1-0.7c-1.9,0.2-3.9,1.3-5.9,3.3
			c-1.1,1.1-3.5,4-2.5,6.7L47,26.6z"/>
	</g>
	<g>
		<line class="st2" x1="38" y1="25" x2="42.4" y2="25.2"/>

			<rect x="39.3" y="22.9" transform="matrix(3.552295e-02 -0.9994 0.9994 3.552295e-02 13.6315 64.3658)" width="1.8" height="4.4"/>
	</g>
	<g>
		<line class="st2" x1="40.2" y1="18.5" x2="44.7" y2="21.2"/>
		<rect x="41.5" y="17.2" transform="matrix(0.5177 -0.8555 0.8555 0.5177 3.4717 45.8574)" width="1.8" height="5.3"/>
	</g>
	<g>
		<line class="st2" x1="44.1" y1="14" x2="47.4" y2="17.4"/>
		<rect x="44.9" y="13.4" transform="matrix(0.719 -0.695 0.695 0.719 1.9237 36.2127)" width="1.8" height="4.7"/>
	</g>
	<g>
		<line class="st2" x1="48.5" y1="11.5" x2="50.2" y2="14.6"/>
		<rect x="48.7" y="11.2" transform="matrix(0.8809 -0.4733 0.4733 0.8809 -0.2188 25.0195)" width="1.8" height="3.5"/>
	</g>
	<g>
		<line class="st2" x1="54" y1="9.7" x2="54.7" y2="13.8"/>
		<rect x="53.5" y="9.6" transform="matrix(0.9847 -0.1743 0.1743 0.9847 -1.2105 9.653)" width="1.8" height="4.2"/>
	</g>
	<g>
		<line class="st2" x1="58" y1="4.3" x2="57.7" y2="12.2"/>
		<rect x="53.9" y="7.3" transform="matrix(4.493298e-02 -0.999 0.999 4.493298e-02 47.0502 65.6642)" width="8" height="1.8"/>
	</g>
	<path d="M51.5,25.5c0.6-0.1,1.2,0,1.7,0.4L53,25C52.8,25.5,52,26.1,51.5,25.5c-0.2-0.7,0.5-1.4,1-1.6c0.5-0.1,1.2,0.2,1.2,0.8
		c0.1,0.5-0.4,1-0.9,0.9c-0.7-0.1-0.9,1.1-0.1,1.2c1.2,0.1,2.4-1,2.2-2.2c-0.2-1.3-1.6-2.1-2.9-1.7c-1.2,0.4-2.2,2-1.4,3.2
		c0.9,1.3,2.7,0.9,3.4-0.3c0.1-0.3,0.1-0.6-0.1-0.8c-0.8-0.5-1.7-0.7-2.6-0.6C50.5,24.4,50.7,25.5,51.5,25.5L51.5,25.5z"/>
	<path d="M56.8,20.6c0.6-0.6,1.6-1.2,2.4-0.7c0.7,0.3,1.1,1.3,0.3,1.8c-0.4,0.3-0.9,0.3-1.4,0.1c-0.3-0.1-1.1-0.4-1.1-0.8
		c0-0.2,0.2-0.5,0.4-0.4s0.3,0.5,0.1,0.6c-0.3,0.2-0.4,0.5-0.3,0.8c0.1,0.3,0.5,0.5,0.8,0.3c0.6-0.3,0.9-0.9,0.8-1.6
		c-0.1-0.6-0.6-1.2-1.2-1.2c-1.3-0.2-2.2,1.5-1.3,2.5c1,1.1,2.9,1.6,4.1,0.7c1.2-0.9,1-2.5,0-3.4c-1.3-1.1-3.1-0.5-4.2,0.5
		C55.5,20.3,56.3,21.2,56.8,20.6L56.8,20.6z"/>
	<path d="M53.6,30.5c2.5,0.5,5.1-0.3,7.2-1.8c1.2-0.8,2.1-1.9,2.5-3.3c0.4-1.3,0.4-2.6,0.3-3.9c0-0.7-1.2-0.9-1.2-0.1
		c0,1.1,0.1,2.3-0.2,3.4c-0.3,1.3-1.2,2.2-2.2,3c-1.8,1.3-4.1,2-6.3,1.5C53,29.2,52.8,30.3,53.6,30.5L53.6,30.5z"/>
</g>
</svg>
