<?xml version="1.0" encoding="utf-8"?>
<!-- Generator: Adobe Illustrator 21.1.0, SVG Export Plug-In . SVG Version: 6.00 Build 0)  -->
<svg version="1.1" id="Layer_1" xmlns="http://www.w3.org/2000/svg" xmlns:xlink="http://www.w3.org/1999/xlink" x="0px" y="0px"
	 viewBox="0 0 200 50" style="enable-background:new 0 0 200 50;" xml:space="preserve">
<style type="text/css">
	.st0{fill:#FFFFFF;}
	.st1{fill:#D22020;}
	.st2{fill:none;}
</style>
<title>kommuna_Disco</title>
<g>
	<path class="st0" d="M89.1,7.9c-1.5,0.4-2.5,1.6-2.7,3.1c-0.1,0.5-0.1,0.5-0.6,0.5h-3.8c-0.6-0.1-1.1,0.3-1.3,0.9
		c-0.1,0.4,0,0.7,0.3,1c2,2.7,4,5.4,6.1,8.1c2.7,3.6,5.3,7.2,8,10.8c0.1,0.2,0.2,0.4,0.2,0.5c0,3,0,5.9,0,8.9c0,2.3-1.9,4.2-4.2,4.2
		c0,0,0,0,0,0h-4.8c-0.8,0-1.3,0.4-1.3,1s0.5,1,1.3,1h23c0.1,0,0.3,0,0.4,0c0.5-0.1,0.8-0.5,0.8-1c-0.1-0.5-0.4-0.8-0.9-0.8
		c-0.1,0-0.3,0-0.4,0h-4.9c-0.3,0-0.6,0-0.9-0.1c-1.9-0.4-3.2-2.2-3.2-4.1c0-2.9,0-5.9,0-8.8c0-0.2,0.1-0.4,0.2-0.6
		c0.6-0.8,1.2-1.5,1.8-2.3l9.2-12.6l3-4.1c0.3-0.3,0.4-0.8,0.2-1.2c-0.2-0.5-0.7-0.8-1.3-0.7H93.9c-0.3,0-0.4,0-0.4-0.4
		c-0.1-1.7-1.3-3.1-3-3.3c-0.1,0-0.2-0.2-0.3-0.3C90,6.8,90,6.1,89.8,5.3c-0.3-1.2-0.6-2.3-1-3.5l-1.5,0.8C88.2,4.3,88.8,6,89.1,7.9
		z M118.8,20c-0.5-0.4-0.9-0.8-1.3-1.2c-0.2-0.1-0.2-0.3-0.1-0.5c0,0,0,0,0,0c0.5-1,0.8-2,0.8-3.1c0-0.6-0.3-1.2-0.9-1.4
		c-0.5-0.2-1.2,0-1.4,0.5c-0.7,1-1.4,1.9-2.1,2.9c-0.2,0.2-0.2,0.3,0,0.5c1.1,0.9,2.1,1.9,3.2,2.8l2.1,1.9c0.7-0.8,1.3-1.7,1.7-2.7
		c1.4-3.1,1.3-6.6-0.4-9.6c-1.3-2.3-3.2-4.2-5.5-5.6c-1.7-1.1-3.7-1.7-5.8-1.7c-3,0.1-5.9,1.3-8,3.4c0,0,0,0.1,0,0.1l4,3.7
		c0.1,0.1,0.2,0.1,0.4,0.1h4.2c0.1,0,0.3-0.1,0.3-0.2c0,0,0,0,0,0c0.1-0.6,0.3-1.3,0.5-1.9c0.2-0.7-0.2-1.4-0.9-1.5
		c-0.1,0-0.2,0-0.4,0c-0.3,0-0.6,0.1-0.9,0.1c-1,0.2-1.9,0.6-2.8,1.1c-0.1,0.1-0.3,0.1-0.3,0.1c-0.5-0.4-1-0.9-1.5-1.3
		c0.1-0.1,0.1-0.1,0.2-0.2c2.6-1.8,5.9-2.2,8.8-0.9c1.7,0.7,3.3,1.9,4.6,3.3c2.4,2.6,3.5,5.6,2.6,9.1
		C119.5,18.5,119.2,19.3,118.8,20z M116.2,11.8c0.5-0.5,0.5-1.2,0.1-1.7c0,0,0,0,0,0c-0.7-0.7-1.4-1.4-2.1-2
		c-0.5-0.4-1.3-0.3-1.8,0.2c-0.1,0.1-0.1,0.1-0.1,0.2c-0.2,0.6-0.4,1.1-0.5,1.7h1.9C114.8,10.1,115.8,10.8,116.2,11.8L116.2,11.8z"
		/>
	<path d="M89.1,7.9c-0.3-1.9-0.9-3.7-1.7-5.3l1.5-0.8c0.3,1.2,0.7,2.3,1,3.5C90,6,90.1,6.8,90.3,7.5c0,0.1,0.1,0.2,0.3,0.3
		c1.7,0.2,2.9,1.6,3,3.3c0,0.3,0.2,0.4,0.4,0.4h19.8c0.5-0.1,1,0.2,1.3,0.7c0.2,0.4,0.1,0.9-0.2,1.2l-3,4.1l-9.2,12.6
		c-0.6,0.8-1.2,1.5-1.8,2.3c-0.1,0.2-0.2,0.4-0.2,0.6c0,2.9,0,5.9,0,8.8c-0.1,1.9,1.2,3.7,3.1,4.1c0.3,0.1,0.6,0.1,0.9,0.1h4.9
		c0.1,0,0.3,0,0.4,0c0.5,0,0.8,0.4,0.9,0.8c0,0.5-0.3,0.9-0.8,1c-0.1,0-0.3,0-0.4,0h-23c-0.8,0-1.3-0.4-1.3-1s0.5-1,1.3-1h4.8
		c2.3,0,4.1-1.9,4.1-4.1c0-3,0-5.9,0-8.9c0-0.2-0.1-0.4-0.2-0.5c-2.7-3.6-5.3-7.2-8-10.8c-2-2.7-4-5.4-6.1-8.1
		c-0.2-0.3-0.3-0.6-0.3-1c0.1-0.6,0.7-1,1.3-0.9h3.8c0.5,0,0.5,0,0.6-0.5C86.6,9.5,87.6,8.2,89.1,7.9z M83.5,13.5
		c0.1,0.1,0.1,0.2,0.2,0.3l4.5,6c3,4,6,8.1,9,12.1c0.1,0.1,0.2,0.3,0.2,0.5c0,3.2,0,6.4,0,9.6c0,0.8-0.2,1.6-0.5,2.3
		c-0.3,0.6-0.7,1.2-1,1.7h4.3l-0.3-0.4c-0.8-1-1.3-2.3-1.3-3.6c0-3.2,0-6.4,0-9.7c0-0.2,0.1-0.3,0.2-0.5c0.7-0.9,1.5-1.9,2.2-2.8
		c3.6-4.9,7.2-9.8,10.8-14.7l0.6-0.9h-0.5H93.1c-0.2,0-0.4,0.1-0.5,0.2c-1.3,1.4-3.6,1.5-5,0.2c-0.1-0.1-0.1-0.1-0.2-0.2
		c-0.1-0.1-0.2-0.2-0.4-0.2C85.9,13.5,84.8,13.5,83.5,13.5z M88.8,9.1c-0.4,0-0.8,0.3-0.8,0.8c0,0.4,0.3,0.8,0.8,0.8c0,0,0,0,0,0
		c0.4,0,0.8-0.3,0.8-0.8C89.6,9.4,89.2,9.1,88.8,9.1C88.8,9.1,88.8,9.1,88.8,9.1z"/>
	<path d="M118.8,20c0.4-0.7,0.8-1.5,1-2.3c0.9-3.6-0.2-6.5-2.6-9.1c-1.3-1.4-2.8-2.5-4.6-3.3c-2.9-1.2-6.2-0.9-8.8,0.9
		c-0.1,0-0.1,0.1-0.2,0.2c0.5,0.5,1,0.9,1.5,1.3c0,0,0.2,0,0.3-0.1c0.9-0.5,1.8-0.9,2.8-1.1c0.3-0.1,0.6-0.1,0.9-0.1
		c0.7,0,1.3,0.5,1.3,1.2c0,0.1,0,0.3,0,0.4c-0.2,0.6-0.3,1.3-0.5,1.9c0,0.1-0.1,0.3-0.3,0.3c0,0,0,0,0,0h-4.2c-0.1,0-0.3,0-0.4-0.1
		l-4-3.7c0,0,0,0,0-0.1c2.1-2.1,5-3.4,8-3.4c2,0,4,0.6,5.8,1.7c2.3,1.4,4.1,3.3,5.5,5.6c1.7,2.9,1.8,6.5,0.4,9.6
		c-0.4,1-1,1.9-1.7,2.7l-2.1-1.9c-1-0.9-2.1-1.9-3.2-2.8c-0.2-0.2-0.2-0.3,0-0.5c0.7-1,1.4-1.9,2.1-2.9c0.3-0.5,0.9-0.7,1.4-0.5
		c0.6,0.2,1,0.8,0.9,1.4c0,1.1-0.3,2.1-0.8,3.1c-0.1,0.2-0.1,0.4,0.1,0.5c0,0,0,0,0,0C118,19.2,118.4,19.6,118.8,20z"/>
	<path d="M116.3,11.8c-0.4-1.1-1.5-1.7-2.6-1.6h-1.9c0.1-0.6,0.3-1.2,0.5-1.7c0.3-0.6,1.1-0.9,1.7-0.5c0.1,0,0.1,0.1,0.2,0.1
		c0.8,0.6,1.5,1.3,2.1,2C116.8,10.5,116.8,11.3,116.3,11.8C116.3,11.8,116.3,11.8,116.3,11.8z"/>
	<path class="st0" d="M83.5,13.5c1.2,0,2.4,0,3.5,0c0.1,0,0.2,0.1,0.3,0.2c1.3,1.4,3.6,1.5,5,0.2c0.1-0.1,0.1-0.1,0.2-0.2
		c0.1-0.1,0.3-0.2,0.5-0.2h18.8h0.5l-0.6,0.9c-3.6,4.9-7.2,9.8-10.8,14.7c-0.7,1-1.4,1.9-2.2,2.8c-0.1,0.1-0.2,0.3-0.2,0.5
		c0,3.2,0,6.4,0,9.6c0,1.3,0.4,2.6,1.2,3.6l0.3,0.4h-4.3c0.3-0.6,0.7-1.1,1-1.7c0.3-0.7,0.5-1.5,0.5-2.2c0-3.2,0-6.4,0-9.6
		c0-0.2-0.1-0.3-0.2-0.5c-3-4-6-8.1-9-12.1l-4.5-6C83.7,13.7,83.6,13.6,83.5,13.5z M107.7,17H88.4l9.5,12.8L107.7,17z"/>
	<path class="st0" d="M88.8,9.1c0.4,0,0.7,0.3,0.7,0.8c0,0.4-0.3,0.8-0.8,0.8c-0.4,0-0.8-0.3-0.8-0.8C88,9.4,88.3,9.1,88.8,9.1
		C88.8,9.1,88.8,9.1,88.8,9.1L88.8,9.1z"/>
	<path class="st1" d="M107.7,17l-9.7,12.8L88.4,17H107.7z M96.2,23.9c0.8,0,1.4-0.7,1.4-1.4S96.9,21,96.1,21c-0.8,0-1.4,0.7-1.4,1.4
		C94.7,23.3,95.3,23.9,96.2,23.9C96.1,23.9,96.1,23.9,96.2,23.9z M99.9,22.7c0.5,0,0.9-0.4,0.9-0.9c0-0.5-0.4-0.9-0.9-1
		c-0.5,0-0.9,0.4-1,0.9C99,22.2,99.4,22.7,99.9,22.7C99.9,22.7,99.9,22.7,99.9,22.7z M94.1,19.1c0-0.4-0.3-0.8-0.7-0.8
		c-0.4,0-0.8,0.3-0.8,0.7c0,0,0,0,0,0c0,0.4,0.3,0.8,0.7,0.8C93.7,19.8,94.1,19.5,94.1,19.1L94.1,19.1z"/>
	<path class="st0" d="M96.2,23.9c-0.8,0-1.4-0.6-1.4-1.4c0,0,0,0,0,0c0-0.8,0.6-1.4,1.4-1.4s1.4,0.6,1.4,1.4
		C97.6,23.3,96.9,23.9,96.2,23.9z"/>
	<path class="st0" d="M99.9,22.7c-0.5,0-0.9-0.4-0.9-0.9c0,0,0,0,0-0.1c0.1-0.5,0.5-0.9,1-0.8c0.4,0.1,0.8,0.4,0.8,0.9
		C100.9,22.3,100.4,22.7,99.9,22.7C99.9,22.7,99.9,22.7,99.9,22.7z"/>
	<path class="st0" d="M94.2,19.1c0,0.4-0.4,0.8-0.8,0.8c-0.4,0-0.7-0.4-0.7-0.8c0-0.4,0.4-0.8,0.8-0.7c0,0,0,0,0,0
		C93.8,18.3,94.2,18.7,94.2,19.1z"/>
</g>
<g>
	<path class="st0" d="M62.5,25.6c-2.4,2.1-4.2,5.6-3.2,8.6c1,3,3.4,5.3,5.9,7.2c1.5,1.1,3.3,2.1,5.2,1.8c0.9-0.1,1.7-0.5,2.4-0.9
		c2.5-1.3,4.9-3.3,5.5-6c0.3-1.3,0.1-2.7-0.1-4c-0.3-1.5-0.7-3-1.5-4.3c-1.4-2.1-3.9-3.2-6.3-3.8C67.7,23.5,64.3,23.4,62.5,25.6"/>
	<path d="M67.5,43.6c-1.1-0.4-2.1-1-2.8-1.6c-3.2-2.3-5.3-4.8-6.2-7.6c-1.2-3.4,1-7.3,3.4-9.5c1.8-2,5-2.6,8.8-1.6
		c3.2,0.8,5.5,2.2,6.8,4.2c1,1.5,1.4,3.2,1.7,4.6c0.2,1.3,0.4,2.8,0.1,4.3c-0.6,2.6-2.6,4.9-6,6.6c-0.8,0.4-1.7,0.8-2.7,1
		C69.5,44.2,68.4,43.9,67.5,43.6z M62.3,25.4l0.7,0.8c-2.1,1.8-3.9,4.9-2.9,7.6c0.8,2.4,2.7,4.7,5.6,6.7c1.2,0.8,2.9,1.9,4.6,1.7
		c0.7-0.1,1.5-0.4,2.1-0.8c2-1,4.5-2.8,5.1-5.4c0.3-1.2,0.1-2.5-0.1-3.6c-0.2-1.3-0.6-2.8-1.4-4c-1.1-1.6-3-2.7-5.8-3.5
		c-1.5-0.4-5.2-1.1-7.1,1.1L62.3,25.4z"/>
</g>
<g>
	<line class="st2" x1="59.2" y1="16.8" x2="61.3" y2="20.7"/>
	<rect x="59.4" y="16.5" transform="matrix(0.8875 -0.4607 0.4607 0.8875 -1.8484 29.8711)" width="1.8" height="4.4"/>
</g>
<g>
	<line class="st2" x1="66" y1="15.4" x2="65.9" y2="20.8"/>
	<rect x="63.3" y="17.2" transform="matrix(2.983501e-02 -0.9996 0.9996 2.983501e-02 45.9114 83.4746)" width="5.3" height="1.8"/>
</g>
<g>
	<line class="st2" x1="71.8" y1="16.7" x2="70.5" y2="21.2"/>
	<rect x="68.8" y="18.1" transform="matrix(0.2841 -0.9588 0.9588 0.2841 32.7846 81.8301)" width="4.7" height="1.8"/>
</g>
<g>
	<line class="st2" x1="76.2" y1="19.3" x2="74.4" y2="22.3"/>
	<rect x="73.7" y="20.1" transform="matrix(0.534 -0.8455 0.8455 0.534 17.47 73.5993)" width="3.5" height="1.8"/>
</g>
<g>
	<line class="st2" x1="80.5" y1="23.1" x2="77.3" y2="25.8"/>
	<rect x="76.8" y="23.6" transform="matrix(0.7715 -0.6362 0.6362 0.7715 2.4513 55.7976)" width="4.2" height="1.8"/>
</g>
<g>
	<line class="st2" x1="87.2" y1="24" x2="80.1" y2="27.6"/>
	<rect x="79.7" y="24.9" transform="matrix(0.8918 -0.4524 0.4524 0.8918 -2.6296 40.6481)" width="8" height="1.8"/>
</g>
<path d="M65.5,28.7c0.4,0.5,0.6,1.1,0.5,1.7l0.6-0.5c-0.5,0-1.5-0.4-1-1.1c0.4-0.6,1.4-0.3,1.7,0.1s0.4,1.1-0.1,1.5
	c-0.4,0.3-1.1,0.1-1.3-0.3c-0.3-0.7-1.4-0.2-1.1,0.5c0.5,1.1,2,1.6,3,0.8c1.1-0.8,1.1-2.5,0.1-3.4c-1-0.9-2.8-0.9-3.5,0.4
	c-0.7,1.4,0.6,2.8,2,2.8c0.3,0,0.6-0.2,0.6-0.5c0.1-0.9-0.2-1.8-0.8-2.5C66,27.4,65.1,28.1,65.5,28.7L65.5,28.7z"/>
<path d="M72.4,31c0.8,0.2,1.8,0.8,1.8,1.8c0,0.8-0.6,1.6-1.4,1.2c-0.4-0.2-0.7-0.7-0.8-1.2c-0.1-0.3-0.2-1.1,0.1-1.4
	c0.1-0.1,0.5-0.1,0.6,0.1c0.1,0.2-0.3,0.5-0.5,0.4c-0.3-0.1-0.6-0.1-0.8,0.1c-0.2,0.2-0.1,0.7,0.1,0.8c0.6,0.3,1.2,0.3,1.7-0.1
	c0.5-0.4,0.7-1.1,0.5-1.6c-0.5-1.2-2.4-1.2-2.8,0.1c-0.5,1.4,0,3.3,1.4,3.9c1.4,0.6,2.7-0.3,3-1.7c0.3-1.7-1.1-3-2.6-3.4
	C72.1,29.7,71.6,30.8,72.4,31L72.4,31z"/>
<g>
	<path class="st1" d="M62.8,34.3c0,0-2.2,1.4-2.9,4.8c0.1,0.7-0.6,2.9,1.3,2.5s3.4-2.2,3.6-2.8c0.2-0.6,1.1-2,1.1-2"/>
	<path d="M60.8,42.1c-0.4,0-0.7-0.1-0.9-0.3c-0.6-0.5-0.5-1.5-0.5-2.2c0-0.2,0-0.4,0-0.5l0-0.1l0-0.1c0.8-3.5,3-5,3.1-5.1l0.5,0.8
		c0,0-2,1.3-2.7,4.4c0,0.2,0,0.4,0,0.6c0,0.4-0.1,1.2,0.1,1.4c0.1,0.1,0.3,0.1,0.6,0c1.8-0.4,3.1-2.1,3.2-2.4c0.2-0.6,1-2,1.1-2.1
		l0.8,0.5c-0.3,0.5-0.9,1.5-1,1.9c-0.2,0.7-1.9,2.6-4,3.1C61.2,42.1,61,42.1,60.8,42.1z"/>
</g>
<path d="M62.2,33c0.8,2.5,2.8,4.3,5.1,5.4c1.3,0.6,2.7,0.9,4.1,0.6c1.3-0.3,2.5-1,3.6-1.7c0.6-0.4,0.2-1.5-0.5-1.1
	c-1,0.6-2,1.2-3.1,1.5c-1.3,0.3-2.5,0.1-3.7-0.5c-2-0.9-3.8-2.6-4.5-4.8C63,31.8,62,32.3,62.2,33L62.2,33z"/>
<g>
	<path d="M64.3,36.2c-0.3,0.2-0.7,0.5-1,0.8c-0.3,0.3-0.6,0.6-0.9,1c-0.5,0.7-1,1.4-1.4,2.2l-0.1,0c0.2-0.9,0.6-1.7,1-2.5
		c0.2-0.4,0.5-0.8,0.8-1.2c0.3-0.4,0.6-0.7,1-1.1L64.3,36.2z"/>
</g>
<g>
	<path class="st0" d="M113.9,34.7c-0.9,2.7-0.6,6.3,1.6,8.1s5.1,2.6,8,2.8c1.7,0.1,3.6,0,4.9-1c0.6-0.5,1.1-1.2,1.5-1.8
		c1.3-2.2,2.3-4.8,1.5-7.3c-0.4-1.1-1.2-2.1-1.9-3c-0.9-1-1.9-2-3.2-2.6c-2.1-0.9-4.5-0.7-6.7,0C117,30.6,114.3,32.2,113.9,34.7"/>
	<path d="M126.3,46.3c-1,0.2-2.1,0.2-2.9,0.1c-3.5-0.3-6.4-1.2-8.4-2.9c-2.5-2.1-2.7-6.1-1.8-9c0.4-2.4,2.6-4.4,6.1-5.4
		c2.9-0.8,5.3-0.8,7.2,0c1.5,0.7,2.6,1.8,3.5,2.8c0.8,0.9,1.7,2,2.1,3.3c0.8,2.3,0.2,5-1.5,7.9c-0.4,0.7-0.9,1.5-1.7,2
		C128,45.8,127.2,46.1,126.3,46.3z M113.7,34.7l0.9,0.3c-0.8,2.4-0.7,5.6,1.3,7.3c1.8,1.5,4.3,2.4,7.5,2.6c1.3,0.1,3.1,0.1,4.3-0.9
		c0.5-0.4,0.9-1,1.3-1.6c1.1-1.7,2.2-4.3,1.4-6.6c-0.4-1-1.1-2-1.8-2.7c-0.8-0.9-1.8-1.9-2.9-2.4c-1.6-0.7-3.6-0.7-6.1,0
		c-1.4,0.4-4.5,1.6-5,4.2L113.7,34.7z"/>
</g>
<g>
	<line class="st2" x1="107.2" y1="29.4" x2="110.7" y2="31.5"/>
	<rect x="108.2" y="28.5" transform="matrix(0.5185 -0.8551 0.8551 0.5185 26.4099 107.8317)" width="1.6" height="4"/>
</g>
<g>
	<line class="st2" x1="111.9" y1="25.2" x2="114.3" y2="29.4"/>
	<rect x="112.3" y="24.9" transform="matrix(0.8693 -0.4943 0.4943 0.8693 1.2879 59.4522)" width="1.6" height="4.8"/>
</g>
<g>
	<line class="st2" x1="117" y1="23.5" x2="118.1" y2="27.6"/>
	<rect x="116.7" y="23.4" transform="matrix(0.9667 -0.256 0.256 0.9667 -2.6134 30.9296)" width="1.6" height="4.2"/>
</g>
<g>
	<line class="st2" x1="121.6" y1="23.4" x2="121.6" y2="26.6"/>

		<rect x="120.2" y="24.2" transform="matrix(1.651586e-02 -0.9999 0.9999 1.651586e-02 94.7817 146.3769)" width="3.2" height="1.6"/>
</g>
<g>
	<line class="st2" x1="126.7" y1="24.3" x2="125.5" y2="27.9"/>
	<rect x="124.2" y="25.3" transform="matrix(0.3282 -0.9446 0.9446 0.3282 60.0234 136.6762)" width="3.8" height="1.6"/>
</g>
<g>
	<line class="st2" x1="132.3" y1="21.9" x2="128.5" y2="28"/>
	<rect x="126.8" y="24.1" transform="matrix(0.5265 -0.8502 0.8502 0.5265 40.5574 122.6796)" width="7.2" height="1.6"/>
</g>
<path d="M117.7,35.7c0.5,0.2,0.9,0.6,1.2,1.1l0.2-0.7c-0.4,0.2-1.3,0.4-1.3-0.4c0-0.6,0.9-0.9,1.4-0.8s0.8,0.7,0.6,1.2
	c-0.2,0.5-0.8,0.6-1.1,0.3c-0.6-0.4-1.2,0.5-0.6,0.9c0.9,0.6,2.3,0.3,2.7-0.8c0.4-1.1-0.3-2.4-1.5-2.6c-1.1-0.2-2.6,0.6-2.5,1.9
	c0.1,1.4,1.8,1.9,2.8,1.2c0.2-0.1,0.4-0.4,0.2-0.7c-0.4-0.7-1-1.3-1.8-1.6C117.4,34.5,117.1,35.5,117.7,35.7L117.7,35.7z"/>
<path d="M124.1,34.3c0.7-0.2,1.8-0.2,2.3,0.5c0.4,0.6,0.3,1.5-0.6,1.6c-0.5,0-0.9-0.2-1.2-0.5c-0.2-0.2-0.7-0.8-0.6-1.1
	c0-0.1,0.4-0.3,0.5-0.2c0.1,0.1,0,0.5-0.2,0.5c-0.3,0-0.5,0.2-0.6,0.5c0,0.3,0.2,0.6,0.5,0.6c0.6,0,1.1-0.3,1.3-0.9
	c0.2-0.5,0.1-1.2-0.4-1.5c-1-0.7-2.4,0.2-2.2,1.4c0.3,1.3,1.6,2.5,2.9,2.4c1.4-0.1,1.9-1.5,1.5-2.7c-0.5-1.4-2.2-1.8-3.6-1.4
	C123.3,33.4,123.4,34.5,124.1,34.3L124.1,34.3z"/>
<path d="M117.2,40.7c1.8,1.6,4.2,2,6.5,1.7c1.3-0.1,2.5-0.6,3.4-1.5c0.9-0.8,1.4-1.9,2-3c0.3-0.6-0.6-1.2-0.9-0.6
	c-0.5,0.9-1,1.9-1.7,2.6c-0.8,0.9-1.9,1.2-3.1,1.4c-2,0.2-4.2-0.2-5.7-1.6C117.3,39.3,116.7,40.2,117.2,40.7L117.2,40.7z"/>
</svg>
