<svg id="Layer_1" data-name="Layer 1" xmlns="http://www.w3.org/2000/svg" width="200" height="50" viewBox="0 0 200 50">
  <title>konkurrensen3</title>
  <g>
    <g>
      <path d="M117.57,21.82c-.14,3.15,1.24,6.88,4.11,8.18s6.2,1.17,9.32.58a8.27,8.27,0,0,0,4.92-2.53,7.46,7.46,0,0,0,1-2.44c.75-2.7,1-5.83-.62-8.17a10.78,10.78,0,0,0-3-2.66A11.56,11.56,0,0,0,129.14,13c-2.48-.39-5,.66-7.06,2-2.43,1.58-4.86,4-4.51,6.84" fill="#fff"/>
      <path d="M134.23,30.43a16.9,16.9,0,0,1-3,1,16,16,0,0,1-9.83-.6c-3.34-1.52-4.72-5.65-4.63-9-.29-2.64,1.5-5.4,4.8-7.59,2.79-1.8,5.33-2.53,7.69-2.07a11.25,11.25,0,0,1,4.58,1.92A10.74,10.74,0,0,1,137,16.91c1.53,2.22,1.73,5.25.75,8.92a6.92,6.92,0,0,1-1.14,2.61A9.7,9.7,0,0,1,134.23,30.43Zm-16.85-8.65,1.12.06c-.14,2.74,1,6.2,3.59,7.34,2.32,1.07,5.28,1.16,8.74.44,1.4-.28,3.39-.84,4.34-2.25a8.52,8.52,0,0,0,.92-2.14c.63-2.21,1-5.2-.49-7.42a9.87,9.87,0,0,0-2.72-2.4,11,11,0,0,0-3.83-1.63,10.18,10.18,0,0,0-6.51,1.84c-1.33.81-4.33,3.08-4,5.94Z"/>
    </g>
    <g>
      <line x1="108.99" y1="18.13" x2="113.23" y2="19.35" fill="none"/>
      <rect x="110.16" y="16.51" width="1.8" height="4.4" transform="matrix(0.27, -0.96, 0.96, 0.27, 63.41, 120.75)"/>
    </g>
    <g>
      <line x1="112.64" y1="12.32" x2="116.39" y2="15.99" fill="none"/>
      <rect x="113.57" y="11.5" width="1.8" height="5.3" transform="translate(24 85.7) rotate(-45.39)"/>
    </g>
    <g>
      <line x1="117.48" y1="8.85" x2="119.9" y2="12.92" fill="none"/>
      <rect x="117.84" y="8.55" width="1.8" height="4.7" transform="translate(10.98 61.95) rotate(-30.59)"/>
    </g>
    <g>
      <line x1="122.34" y1="7.44" x2="123.27" y2="10.85" fill="none"/>
      <rect x="122.18" y="7.36" width="1.8" height="3.5" transform="matrix(0.97, -0.26, 0.26, 0.97, 1.76, 31.77)"/>
    </g>
    <g>
      <line x1="128.11" y1="6.97" x2="127.84" y2="11.12" fill="none"/>
      <rect x="125.93" y="8.09" width="4.2" height="1.8" transform="translate(111.47 136.27) rotate(-86.6)"/>
    </g>
    <g>
      <line x1="133.25" y1="2.64" x2="131.13" y2="10.26" fill="none"/>
      <rect x="128.2" y="5.49" width="8" height="1.8" transform="translate(89.6 131.7) rotate(-73.99)"/>
    </g>
    <path d="M122,21.75a2.09,2.09,0,0,1,1.56.78v-.92c-.31.44-1.23.84-1.58.14,0-.73.81-1.25,1.34-1.32s1.12.47,1,1.06a.8.8,0,0,1-1.08.67c-.66-.26-1.13.86-.38,1.14a2,2,0,0,0,2.65-1.63,2.24,2.24,0,0,0-2.43-2.33c-1.26.11-2.6,1.43-2.11,2.79a2,2,0,0,0,3.38.5.75.75,0,0,0,.09-.8,4,4,0,0,0-2.39-1.19c-.78-.19-.84.93-.06,1.12Z"/>
    <path d="M128.3,18.22c.72-.44,1.84-.8,2.5-.12a1,1,0,0,1-.13,1.82,1.39,1.39,0,0,1-1.38-.23c-.27-.17-1-.64-.88-1,0-.19.31-.44.48-.3s.18.56,0,.61a.67.67,0,0,0-.48.71.55.55,0,0,0,.71.48,1.48,1.48,0,0,0,1.15-1.37,1.38,1.38,0,0,0-.89-1.45,1.53,1.53,0,0,0-1.85,2.13,3.25,3.25,0,0,0,3.83,1.63,2.16,2.16,0,0,0,.79-3.31c-1-1.37-2.9-1.21-4.2-.49-.8.32-.23,1.38.4.92Z"/>
    <path d="M122.89,27.1a9.39,9.39,0,0,0,7.42-.08,5.9,5.9,0,0,0,3.2-2.63,10.32,10.32,0,0,0,1.2-3.72c.16-.68-1-1.15-1.14-.38a13,13,0,0,1-1,3.26A5.52,5.52,0,0,1,129.74,26a7.93,7.93,0,0,1-6.48,0c-.66-.26-1.11.76-.38,1.14Z"/>
  </g>
  <path d="M100.83,5.48q.51,3.72-2.35,10.76a15.43,15.43,0,0,1,5.58,2.46,13.05,13.05,0,0,1,4.09,4.18,7.08,7.08,0,0,1,.49,1.09,6.11,6.11,0,0,1,.29,1.26q.09.69.11,1.09t.06,1.17q0,.77,0,.89.34,8.3-3.49,13.39Q101.34,47.35,93,47.35a19.38,19.38,0,0,1-9.61-2.46,14.84,14.84,0,0,1-3.78-3A15.42,15.42,0,0,1,77,37.69a1.06,1.06,0,0,1,.4-1.32,1.09,1.09,0,0,1,.57-.92q3.83-2.23,4.52-2.69a1.23,1.23,0,0,1,.86-.14,1.15,1.15,0,0,1,.74.49,1.11,1.11,0,0,1,.17.57,1.12,1.12,0,0,1,.51.51,7.16,7.16,0,0,0,5.26,3.89,9.54,9.54,0,0,0,7.18-.77,8.16,8.16,0,0,0,3.92-4.72,5.73,5.73,0,0,0-.63-5.09q-1.77-2.52-6-2.8a43.26,43.26,0,0,0-7.27.17,1,1,0,0,1-.83-.26,1.17,1.17,0,0,1-.43-.77,1.26,1.26,0,0,1,.06-.4A.61.61,0,0,1,86,23.1L85.84,22a1.09,1.09,0,0,1,.63-1.14.05.05,0,0,1,.06-.06q.23-.57.74-1.72l.92-1.83q.29-.69.66-1.66t.6-1.77q-1.2.17-3.83.63-3.78.63-5.32.8a1,1,0,0,1-.86-.26,1.22,1.22,0,0,1-.4-.77v-.11a54,54,0,0,1-.69-7.61,1,1,0,0,1,.29-.74V5.65A1.17,1.17,0,0,1,79.77,4.5q1.83,0,5.29-.09t4.43-.09q6.46,0,9.73.29l.29-.11a1.19,1.19,0,0,1,.89.23A1.08,1.08,0,0,1,100.83,5.48ZM79.77,38.09a21.23,21.23,0,0,0,1.83-1.43l1.32-1.09-.11-.29-3.43,2A7.72,7.72,0,0,0,79.77,38.09Zm.86,1.37,1.6-1.26a12.24,12.24,0,0,0,1.54-1.37q-.29-.34-.57-.74l-1.26,1a14.13,14.13,0,0,1-1.89,1.49Zm.46-32.67h-.46a58.49,58.49,0,0,0,.51,6q.57-.06,1.2-.17A33.31,33.31,0,0,1,81.09,6.79Zm3.2,32a.25.25,0,0,1,.06-.34l.57-.4q-.4-.34-.8-.74a12.25,12.25,0,0,1-1.54,1.37q-1.32,1-1.54,1.26a8.44,8.44,0,0,0,.8.92l1.43-1.2Zm-1.6-32h-1a33.46,33.46,0,0,0,1.26,5.78l.57-.11q-.12-.63-.4-3Q82.86,7.77,82.69,6.79Zm2.57,31.69c.11.15.09.27-.06.34a11.17,11.17,0,0,0-1.54,1.26q-1,.8-1.43,1.14.63.57,1.32,1.09A41.27,41.27,0,0,0,86,38.89q-.34-.23-.63-.46ZM84.64,6.74H83.26q.17,1,.4,2.63.29,2.35.4,3l1.14-.23h.11A22.64,22.64,0,0,1,84.64,6.74Zm.86,36.67q.4-.69,1-1.89l.92-1.89-.92-.46Q84.58,42,84,42.66a2.28,2.28,0,0,1,.51.29Zm.92-36.73-1.2.06a21.65,21.65,0,0,0,.69,5.32L87,11.83A29.46,29.46,0,0,0,86.41,6.68Zm1.2,37.59q1-3.78,1-4.23L88,39.8l-1,2q-.57,1.15-1,1.89A13.26,13.26,0,0,0,87.61,44.26Zm.63-37.59H87a39.25,39.25,0,0,1,.63,5.09q.57-.11,1-.17-.12-.86-.17-2.23ZM92.47,20l-.29.11A13.76,13.76,0,0,0,88.7,21.5l-.11.17a.92.92,0,0,1-.4.51v.29h.11A34.41,34.41,0,0,0,92.47,20ZM89.73,44.78V42.89a15,15,0,0,1,.17-2.52l-.4-.11a.93.93,0,0,1-.29-.06q-.06.4-1,4.23A10,10,0,0,0,89.73,44.78ZM88.81,6.62q.06.74.23,2.69.06,1.37.17,2.23l.74-.11q0-.8.11-2.46t.11-2.35H88.81ZM94.3,18.75l1.43-.92q-1.83.29-5.89,1.14l-.74,1.6A19.43,19.43,0,0,1,92,19.49Zm.29.51-1.77,1.14q-1.89,1.26-3.15,2a5.73,5.73,0,0,1,.8-.06q3.49-2.17,5.78-3.83A13.52,13.52,0,0,1,94.59,19.26ZM95.73,17a4.11,4.11,0,0,1-.8.17q-.74.06-2.06.06-.86,0-2.23-.06l-.51,1.14q3.72-.74,5.55-1A.93.93,0,0,1,95.73,17ZM91.84,45v-.4q-.17-1.54-.17-1.6a9.12,9.12,0,0,1,.06-2.35q-.63-.06-1.26-.17a13.54,13.54,0,0,0-.17,2.4v2A10.07,10.07,0,0,0,91.84,45ZM90.76,6.62q0,.74-.11,2.35t-.11,2.4a1.1,1.1,0,0,1,.34.06A10.19,10.19,0,0,0,91.73,9q.11-.51.34-1.77l.11-.57ZM96,16.23l.06-.23-1.37-.06q-1-.06-1.54-.06a6.44,6.44,0,0,0-2.12.29l-.17.4q1.2.06,2,.06,1.26,0,2-.06a6.09,6.09,0,0,0,.69-.11l.23-.11A.23.23,0,0,1,96,16.23Zm.29-.8.34-.8a27.17,27.17,0,0,0-5.15.23,2.55,2.55,0,0,1-.23.63,9.1,9.1,0,0,1,1.89-.17q.57,0,1.6.06t1.43.06Zm1.49,3a1.92,1.92,0,0,0-.46-.06Q95,20.18,91.61,22.35q1.26-.06,2.46,0A21.82,21.82,0,0,1,97.79,18.46ZM91.67,11a20.54,20.54,0,0,0,1.54-2.12l1.37-2.23q-.86-.06-1.83-.06l-.11.69q-.23,1.26-.34,1.77A13,13,0,0,1,91.67,11Zm5.21,3,.29-.74a40.48,40.48,0,0,0-5.26.23,4.38,4.38,0,0,0-.17.69A31.81,31.81,0,0,1,96.88,14.06Zm.57-1.66H92.07v.46L92,13a41.13,41.13,0,0,1,5.32-.23Zm-5.38-1a18.54,18.54,0,0,0,3.2-2.29l1.95-1.72.69-.63-2.63-.11L94.48,8l-.8,1.2A13.65,13.65,0,0,1,92.07,11.43ZM94,45.07q-.63-3.37-.69-4.41s-.17.06-.51.06l-.51-.06a8.74,8.74,0,0,0-.06,2.29s.06.57.17,1.6v.51H94ZM92.93,11.83q3.6.06,4.75,0,.23-.8.46-1.49l-2.92.8A17.14,17.14,0,0,0,92.93,11.83Zm3.09,33q-.12-.34-.8-2.06a16,16,0,0,1-.8-2.17,2.7,2.7,0,0,0-.51.06q.06.86.74,4.35Q95.33,45,96,44.84Zm-2-34,1-.29q2.69-.74,3.2-.92A12.07,12.07,0,0,0,98.59,7l-1,.86-2,1.77A19,19,0,0,1,94,10.86Zm5.32,8q-.51-.17-1-.29a.33.33,0,0,1-.11.23,19.81,19.81,0,0,0-3.49,3.6,20.88,20.88,0,0,1,2.29.34A15,15,0,0,0,99.34,18.86ZM97.79,44.44a13,13,0,0,1-1.66-4.18L95,40.49a18,18,0,0,0,.74,2.12q.74,1.72.86,2.12A11,11,0,0,0,97.79,44.44Zm2.17-.86L98.88,41.4q-.57-1.14-.92-1.89a8,8,0,0,1-1.32.57,11,11,0,0,0,1.72,4.12A15.51,15.51,0,0,0,100,43.58Zm.92-24.08a6.11,6.11,0,0,0-1-.46,13.35,13.35,0,0,1-2.23,3.89l1,.34a19.39,19.39,0,0,1,1.2-2Zm.69,23.05a29.19,29.19,0,0,1-2.4-3.72,6.36,6.36,0,0,1-.69.4q.34.74.92,1.89l1.09,2.17A10.94,10.94,0,0,0,101.57,42.55Zm1.54-21.74a19.14,19.14,0,0,0-1.72-1.09l-1.14,1.83q-.74,1.2-1.14,1.95l.74.34A27.74,27.74,0,0,0,103.11,20.81Zm0,20.37a29.17,29.17,0,0,1-2.63-3.38q-.4.34-.86.69A29.21,29.21,0,0,0,102,42.2Q102.6,41.69,103.11,41.18Zm1.32-19.28-.86-.74a33.18,33.18,0,0,1-3.2,3,5.84,5.84,0,0,0,.51.34Zm.06,17.45q-.51-.57-1.66-1.72a12,12,0,0,1-1.09-1.2,9.85,9.85,0,0,1-.8.92,29.91,29.91,0,0,0,2.57,3.38l.29-.34Zm1.2-16.08q-.34-.46-.8-1l-3.6,2.63a5.91,5.91,0,0,1,.69.69A26,26,0,0,1,105.69,23.27Zm.06,13.44a.5.5,0,0,1-.23-.06,16.25,16.25,0,0,0-2.92-1.6q-.23.46-.51.92.34.4,1.2,1.26a21.81,21.81,0,0,1,1.49,1.6A12,12,0,0,0,105.75,36.71Zm.29-13a26,26,0,0,0-3.72,2.35l.06.11a3,3,0,0,1,.46.74q.8-.29,2-.86l1.83-.74A4.81,4.81,0,0,0,106.2,24,.7.7,0,0,1,106,23.73Zm.23,11.16a10.24,10.24,0,0,1-1.77-.51,8.59,8.59,0,0,0-1.37-.4l-.23.57a23.32,23.32,0,0,1,3,1.66l.06.06A9.19,9.19,0,0,0,106.26,34.88Zm.57-6.69q-.06-1.94-.11-2.29l-1.66.74q-1.15.51-1.95.8l.34.92,1.77-.06Zm-.23,5-1.43-.46q-1-.34-1.54-.57a9.11,9.11,0,0,1-.29,1.09l-.06.17q.4.12,1.37.46a13.54,13.54,0,0,0,1.77.46Q106.55,33.74,106.6,33.17Zm.23-4.41-1.6.11-1.66.06q.11.63.17,1.26,1.94,0,3.09.11A10.6,10.6,0,0,0,106.83,28.76Zm-.17,3.83q.11-.86.17-1.72-1.15-.11-3.09-.11a5.73,5.73,0,0,1-.06.8q.57.23,1.63.57T106.66,32.59Z"/>
</svg>
