<svg id="Layer_1" data-name="Layer 1" xmlns="http://www.w3.org/2000/svg" width="200" height="50" viewBox="0 0 200 50">
  <title>konkurrensen1</title>
  <g>
    <g>
      <path d="M113.53,25.6c.6,3.1,2.8,6.4,5.9,7s6.3-.3,9.2-1.6a8.27,8.27,0,0,0,4.2-3.6,7.46,7.46,0,0,0,.4-2.6c.1-2.8-.4-5.9-2.5-7.8a10.78,10.78,0,0,0-3.5-1.9,11.56,11.56,0,0,0-4.5-.8c-2.5.2-4.7,1.8-6.4,3.6-2,2.1-3.8,5-2.8,7.7" fill="#fff"/>
      <path d="M131.73,30.1a16.9,16.9,0,0,1-2.7,1.7,16,16,0,0,1-9.7,1.7c-3.6-.7-5.9-4.4-6.6-7.7-.9-2.5.2-5.6,2.9-8.5,2.3-2.4,4.6-3.7,7-3.8a11.25,11.25,0,0,1,4.9.8,10.74,10.74,0,0,1,3.8,2c2,1.8,2.9,4.7,2.8,8.5a6.92,6.92,0,0,1-.5,2.8A9.7,9.7,0,0,1,131.73,30.1Zm-18.4-4.5,1.1-.2c.5,2.7,2.4,5.8,5.2,6.3,2.5.5,5.4-.1,8.6-1.6,1.3-.6,3.1-1.6,3.7-3.2a8.52,8.52,0,0,0,.4-2.3c.1-2.3-.2-5.3-2.2-7.1a9.87,9.87,0,0,0-3.2-1.7,11,11,0,0,0-4.1-.7,10.18,10.18,0,0,0-5.9,3.3c-1.1,1.1-3.5,4-2.5,6.7Z"/>
    </g>
    <g>
      <line x1="104.33" y1="24" x2="108.73" y2="24.2" fill="none"/>
      <rect x="105.58" y="21.88" width="1.8" height="4.4" transform="translate(78.63 129.64) rotate(-87.96)"/>
    </g>
    <g>
      <line x1="106.53" y1="17.5" x2="111.03" y2="20.2" fill="none"/>
      <rect x="107.84" y="16.21" width="1.8" height="5.3" transform="translate(36.3 102.13) rotate(-58.82)"/>
    </g>
    <g>
      <line x1="110.43" y1="13" x2="113.73" y2="16.4" fill="none"/>
      <rect x="111.23" y="12.36" width="1.8" height="4.7" transform="translate(21.29 82.07) rotate(-44.03)"/>
    </g>
    <g>
      <line x1="114.83" y1="10.5" x2="116.53" y2="13.6" fill="none"/>
      <rect x="115.04" y="10.2" width="1.8" height="3.5" transform="translate(8.15 56.3) rotate(-28.25)"/>
    </g>
    <g>
      <line x1="120.33" y1="8.7" x2="121.03" y2="12.8" fill="none"/>
      <rect x="119.83" y="8.59" width="1.8" height="4.2" transform="translate(-0.02 21.21) rotate(-10.04)"/>
    </g>
    <g>
      <line x1="124.33" y1="3.3" x2="124.03" y2="11.2" fill="none"/>
      <rect x="120.18" y="6.29" width="8" height="1.8" transform="translate(111.41 130.92) rotate(-87.42)"/>
    </g>
    <path d="M117.83,24.5a2.09,2.09,0,0,1,1.7.4l-.2-.9c-.2.5-1,1.1-1.5.5-.2-.7.5-1.4,1-1.6s1.2.2,1.2.8a.8.8,0,0,1-.9.9c-.7-.1-.9,1.1-.1,1.2a2,2,0,0,0,2.2-2.2,2.24,2.24,0,0,0-2.9-1.7c-1.2.4-2.2,2-1.4,3.2a2,2,0,0,0,3.4-.3.75.75,0,0,0-.1-.8,4,4,0,0,0-2.6-.6c-.8,0-.6,1.1.2,1.1Z"/>
    <path d="M123.13,19.6c.6-.6,1.6-1.2,2.4-.7a1,1,0,0,1,.3,1.8,1.39,1.39,0,0,1-1.4.1c-.3-.1-1.1-.4-1.1-.8,0-.2.2-.5.4-.4s.3.5.1.6a.67.67,0,0,0-.3.8.55.55,0,0,0,.8.3,1.48,1.48,0,0,0,.8-1.6,1.38,1.38,0,0,0-1.2-1.2,1.53,1.53,0,0,0-1.3,2.5,3.25,3.25,0,0,0,4.1.7,2.16,2.16,0,0,0,0-3.4c-1.3-1.1-3.1-.5-4.2.5-.7.5.1,1.4.6.8Z"/>
    <path d="M119.93,29.5a9.39,9.39,0,0,0,7.2-1.8,5.9,5.9,0,0,0,2.5-3.3,10.32,10.32,0,0,0,.3-3.9c0-.7-1.2-.9-1.2-.1a13,13,0,0,1-.2,3.4,5.52,5.52,0,0,1-2.2,3,7.93,7.93,0,0,1-6.3,1.5c-.7-.1-.9,1-.1,1.2Z"/>
  </g>
  <path d="M101.91,6.4a.9.9,0,0,1,0,.69,85.36,85.36,0,0,0-2,19.07,99.11,99.11,0,0,0,1.83,19.14,1.33,1.33,0,0,1-.69,1.45,1.29,1.29,0,0,1-1,.83,56.74,56.74,0,0,1-7.34.35,1.33,1.33,0,0,1-.69-.21,1.25,1.25,0,0,1-1-1.11A140.18,140.18,0,0,1,89.8,20.52q.07-1.66.83-7.54A30.43,30.43,0,0,0,91,5.92a1.29,1.29,0,0,1,.24-1,1.17,1.17,0,0,1,.8-.48,1.38,1.38,0,0,1,1.38-.55,51.7,51.7,0,0,0,7.27.76,1.18,1.18,0,0,1,.93.45,1.52,1.52,0,0,1,.38,1A.62.62,0,0,1,101.91,6.4ZM97.14,25.64v-1a15.35,15.35,0,0,0-2.63-.55,11.63,11.63,0,0,1-2-.35A13.14,13.14,0,0,0,92.43,25Q96,25.43,97.14,25.64Zm0,2.15V26.33q-1.18-.21-4.71-.62v2Q93.61,27.79,97.14,27.79Zm.07,1.73v-1q-3.6,0-4.78-.07v.9a14.68,14.68,0,0,1,2,0l1.52.14Q96.72,29.52,97.21,29.52Zm0,.69q-.48,0-1.31-.07L94.37,30a13.72,13.72,0,0,0-1.94,0,6.78,6.78,0,0,0,.07,1l1.25,0,1.52,0h2A3.59,3.59,0,0,0,97.21,30.21Zm-.07-6.37q.07-.9.07-1.87-3.25-.21-4.71-.21V23a11.83,11.83,0,0,0,2.08.35Q96.38,23.64,97.14,23.84Zm.28,9.41-.14-1.66h-2l-1.52,0-1.25,0q0,.9.07,1.87Q94.51,33.46,97.41,33.26Zm-.21-12A12.12,12.12,0,0,0,97.28,20a41.25,41.25,0,0,1-4.71-.07v1.18Q94,21.07,97.21,21.28Zm.28,13.36-.07-.69q-2.91.21-4.85.28a6.78,6.78,0,0,0,.07,1Q94.78,34.85,97.48,34.64Zm-.14-15.37q.07-.69.14-1.32-.83-.07-2.35-.14t-2.35-.07l-.14,1.45A40.55,40.55,0,0,0,97.35,19.27Zm.35,17.51-.14-1.45q-2.7.21-4.91.55a6.5,6.5,0,0,1,.07.9Q97,36.72,97.69,36.79ZM98,39.14q-.14-.83-.21-1.66-.69-.07-5,0a11.44,11.44,0,0,1,.07,1.25,20.15,20.15,0,0,0,3,.28Q97.35,39.07,98,39.14Zm-.48-21.87q.14-1,.21-1.87H93.12q-.14,1-.21,1.66.62.07,2.28.07Q96.65,17.2,97.48,17.27Zm.69,23.33L98,39.83q-.62,0-2.15-.14-1.94-.07-3-.21.07.49.14,1Q94.78,40.66,98.18,40.59Zm.21,1.52-.14-.83q-3.39.07-5.12-.07a9.66,9.66,0,0,1,.07,1.18A23.71,23.71,0,0,1,98.38,42.12Zm-.62-27.41.14-1a31.44,31.44,0,0,1-4.57-.14l-.14,1.11Zm1,29.35-.28-1.25a22.92,22.92,0,0,0-5.12.28l.07,1ZM98,13a9.08,9.08,0,0,1,.21-1.11,14.87,14.87,0,0,0-4.57-.21c0,.37-.09.76-.14,1.18A29,29,0,0,0,98,13Zm.83,31.7H93.54l.07.42A52,52,0,0,0,98.87,45Zm-.55-33.5.14-.9-2.56-.14q-1.25-.07-2.08-.07a5.13,5.13,0,0,1-.07.83A17.09,17.09,0,0,1,98.25,11.25Zm.69-3.46L99,7.37q-2.91-.21-5.19-.55V7.3A24.74,24.74,0,0,0,98.94,7.79Zm-.42,1.87q.14-.62.28-1.18a23.37,23.37,0,0,1-5-.48V9.45q.83,0,2.08.07Z"/>
</svg>
