<svg id="Layer_1" data-name="Layer 1" xmlns="http://www.w3.org/2000/svg" width="200" height="50" viewBox="0 0 200 50">
  <title>konkurrensen2</title>
  <g>
    <g>
      <path d="M75.36,21c-2.61,1.77-4.78,5.1-4.11,8.18s2.76,5.67,5.1,7.82a8.27,8.27,0,0,0,5,2.44,7.46,7.46,0,0,0,2.55-.66c2.61-1,5.26-2.69,6.18-5.37a10.78,10.78,0,0,0,.37-4,11.56,11.56,0,0,0-1-4.45c-1.17-2.22-3.51-3.61-5.83-4.46-2.72-1-6.09-1.52-8.18.46" fill="#fff"/>
      <path d="M78.4,39.55a16.9,16.9,0,0,1-2.63-1.81,16,16,0,0,1-5.39-8.25c-.78-3.58,1.72-7.16,4.48-9.1,1.94-1.81,5.23-2,9-.68,3.11,1.17,5.21,2.77,6.25,4.94a11.25,11.25,0,0,1,1.2,4.82,10.74,10.74,0,0,1-.34,4.28c-.87,2.55-3.18,4.52-6.71,5.92a6.92,6.92,0,0,1-2.77.64A9.7,9.7,0,0,1,78.4,39.55ZM75.28,20.86l.62.93c-2.28,1.52-4.38,4.49-3.74,7.26.53,2.49,2.22,4.92,4.86,7.27,1.06,1,2.69,2.22,4.4,2.14a8.52,8.52,0,0,0,2.27-.54c2.15-.81,4.79-2.27,5.66-4.82a9.87,9.87,0,0,0,.3-3.61,11,11,0,0,0-1-4,10.18,10.18,0,0,0-5.36-4.12c-1.44-.58-5.06-1.64-7.14.34Z"/>
    </g>
    <g>
      <line x1="73.21" y1="11.96" x2="74.76" y2="16.08" fill="none"/>
      <rect x="73.08" y="11.76" width="1.8" height="4.4" transform="translate(-0.05 27.66) rotate(-21.17)"/>
    </g>
    <g>
      <line x1="80.05" y1="11.42" x2="79.34" y2="16.62" fill="none"/>
      <rect x="77.02" y="13.08" width="5.3" height="1.8" transform="translate(54.77 90.94) rotate(-82.03)"/>
    </g>
    <g>
      <line x1="85.72" y1="13.23" x2="83.9" y2="17.6" fill="none"/>
      <rect x="82.47" y="14.57" width="4.7" height="1.8" transform="translate(37.74 87.7) rotate(-67.24)"/>
    </g>
    <g>
      <line x1="89.75" y1="16.29" x2="87.57" y2="19.07" fill="none"/>
      <rect x="87.1" y="16.98" width="3.5" height="1.8" transform="translate(19.51 76.24) rotate(-51.46)"/>
    </g>
    <g>
      <line x1="93.58" y1="20.64" x2="90.08" y2="22.9" fill="none"/>
      <rect x="89.8" y="20.89" width="4.2" height="1.8" transform="matrix(0.84, -0.55, 0.55, 0.84, 3.1, 53.95)"/>
    </g>
    <g>
      <line x1="100.12" y1="22.18" x2="92.74" y2="25.02" fill="none"/>
      <rect x="92.48" y="22.67" width="8" height="1.8" transform="translate(-2.12 35.51) rotate(-20.63)"/>
    </g>
    <path d="M78.07,24.57a2.09,2.09,0,0,1,.3,1.72l.75-.54c-.54,0-1.41-.49-1.05-1.18a1.54,1.54,0,0,1,1.86.29,1,1,0,0,1-.26,1.42.8.8,0,0,1-1.18-.47c-.18-.68-1.37-.39-1.14.38a2,2,0,0,0,2.89,1.15A2.24,2.24,0,0,0,80.66,24c-.84-.95-2.71-1.23-3.49,0a2,2,0,0,0,1.62,3,.75.75,0,0,0,.7-.41A4,4,0,0,0,79,23.95c-.32-.74-1.25-.12-.93.62Z"/>
    <path d="M84.66,27.51c.79.31,1.73,1,1.59,1.93,0,.76-.76,1.52-1.54,1a1.39,1.39,0,0,1-.64-1.25c0-.32-.07-1.17.3-1.33.18-.08.54,0,.53.21s-.34.47-.51.33a.67.67,0,0,0-.85,0,.55.55,0,0,0,0,.85,1.48,1.48,0,0,0,1.79.1A1.38,1.38,0,0,0,86,27.81a1.53,1.53,0,0,0-2.81-.21,3.25,3.25,0,0,0,1,4,2.16,2.16,0,0,0,3.12-1.34c.5-1.63-.76-3-2.11-3.66-.74-.45-1.25.64-.5.87Z"/>
    <path d="M74.3,28.47a9.39,9.39,0,0,0,4.49,5.91,5.9,5.9,0,0,0,4,1,10.32,10.32,0,0,0,3.7-1.26c.64-.28.35-1.46-.38-1.14a13,13,0,0,1-3.2,1.16,5.52,5.52,0,0,1-3.62-.84,7.93,7.93,0,0,1-3.86-5.2c-.18-.68-1.27-.43-1.14.38Z"/>
  </g>
  <path d="M94.49,7.35A31.39,31.39,0,0,1,102.17,4a25.14,25.14,0,0,1,8.31-1.15q4.73.23,7.15,2.83,2.88,3.11,2.19,8.88a19,19,0,0,1-2,5.25q-1.67,3.35-4,7.44-4.15,7-6.92,10.79a62.43,62.43,0,0,0,8.31.12,1,1,0,0,1,.81.23,1.39,1.39,0,0,1,.46.69,1.5,1.5,0,0,1,.35.75,35,35,0,0,1,0,6.35,1.19,1.19,0,0,1-.43.78,1.05,1.05,0,0,1-.84.26.52.52,0,0,1-.23-.06q-3.52,0-10.5-.4t-10.44-.4a1.14,1.14,0,0,1-.81-2V40.87a1,1,0,0,1,.81-1.1q1.67-2.71,5-7.44L103.61,26q.63-1,2.08-2.86t2-2.74a17,17,0,0,0,2.77-5.71,3.29,3.29,0,0,0-.12-2.54q-.35-.52-1.5-.52a14.82,14.82,0,0,0-5.94,1.62q-1.73.81-5.36,3a1.13,1.13,0,0,1-.87.12,1.06,1.06,0,0,1-.69-.52.84.84,0,0,1-.17-.52s-.31-1-.92-2.94q-.64-2-.92-3.29V8.74A1.07,1.07,0,0,1,94.49,7.35Zm8.19,32.53-1.27,0-1.27,0q-1.9.06-3.17,0l-.87,1.33a.87.87,0,0,1-.29.35V42Q98.53,41.1,102.68,39.89Zm1.38.23q-5.31,1.5-8.25,2.54V44h.52Q100.78,42,104.07,40.12ZM96.57,8.79l-.23.12q.23,1,.75,2.71l.63,1.85.58-.35q-.29-.63-.75-1.9A18,18,0,0,0,96.57,8.79Zm1.27-.63-.75.35q.4.81,1,2.48a14.49,14.49,0,0,0,.69,1.79l.29-.17Q98.65,11.22,97.84,8.16Zm5.77,30.92a14.39,14.39,0,0,0-2.54-.92,9.93,9.93,0,0,1-2.42-.87l-1.33,2.08q1.15.06,2.77,0l1.62,0,1.9,0ZM105,40.23h-.06q-3.17,1.9-7.27,3.86,1.73.06,4,.17Q103.78,41.56,105,40.23ZM99.45,7.41l-1.1.46q.87,3.11,1.27,4.44l1.44-.75Zm4.9,30.05a38.56,38.56,0,0,0-4.73-1.56l-.63.92a20.24,20.24,0,0,0,2.19.81,24.94,24.94,0,0,1,2.6.87.66.66,0,0,1,.12-.17,1.08,1.08,0,0,1,.29-.63ZM100.67,6.95l-.69.23,1.62,4.15.4-.17.35-.17Q101,7.81,100.67,6.95Zm4,30.05.46-.52a.05.05,0,0,1-.06-.06,20.39,20.39,0,0,1-3.92-2.77L100,35.39A28.47,28.47,0,0,1,104.7,37ZM102.51,6.31q-.64.17-1.27.4.29.87,1.62,4a9.31,9.31,0,0,1,1.1-.4q-.17-.52-.87-2.36Zm3.29,29.25h-.12a20.17,20.17,0,0,1-2.42-1.44,16.21,16.21,0,0,0-1.67-1l-.12.12A30.48,30.48,0,0,0,105.34,36a.17.17,0,0,1,.12.06Zm.29-.4.58-.92-4.21-2.48-.52.81q.58.35,1.62,1A16.6,16.6,0,0,0,105.91,35,.38.38,0,0,1,106.09,35.16Zm-.58,5.36q-1.15,1.27-3.17,3.81l2.54.12H105q0-.17.17-1.67T105.51,40.52Zm1.5-6.75.63-1h-.06q-.46-.4-2.37-1.9l-1.38-1.1-1,1.5ZM104.18,5.85q-.52.12-1.1.29a17.67,17.67,0,0,0,.58,1.67q.63,1.79.81,2.36l.63-.23A29.41,29.41,0,0,1,104.18,5.85Zm3.75,26.48,1-1.67-1.73-1.27q-.92-.63-1.56-1a3.32,3.32,0,0,0-.75-.23l-.75,1.1,1.44,1.15ZM106.2,5.45q-.69.12-1.44.29a27,27,0,0,0,.92,4l.87-.23Q106.43,8.85,106.2,5.45Zm3.11,24.69.63-1a9.37,9.37,0,0,0-2-1.38l-2-1.1-.4.63-.29.4.63.23a13.58,13.58,0,0,1,1.67,1Q107.88,29.1,109.32,30.14Zm-2.48,10.21-.69-.06q-.12.64-.2,1.3t-.17,1.53q-.09.87-.14,1.38l1.27.06A12,12,0,0,1,106.84,40.35Zm3.4-11.77.92-1.5q-1-.52-3.75-2.42l-1.1,1.5,2,1.1A8.18,8.18,0,0,1,110.24,28.58ZM108.11,5.22l-1.33.12q.23,3.52.35,4.1a9.52,9.52,0,0,1,1.44-.12A25.9,25.9,0,0,0,108.11,5.22Zm.06,35.19h-.75a11.17,11.17,0,0,0,.12,4.21h.87a9.36,9.36,0,0,1-.17-2Q108.22,41,108.16,40.41ZM112,25.58a18,18,0,0,0-3.69-2.19l-.58.81a40.79,40.79,0,0,0,3.69,2.37l.29-.46ZM108.68,5.16a27.31,27.31,0,0,1,.46,4.15,4.4,4.4,0,0,1,1.27.17,35.71,35.71,0,0,0,.46-4.33h-.52A12.32,12.32,0,0,0,108.68,5.16Zm3.63,19.9.63-1a17,17,0,0,1-3.63-1.9l-.63.81A20.68,20.68,0,0,1,112.32,25.06Zm-2.77,15.46a5.82,5.82,0,0,0-.81-.06q.06.58.06,2.13a9.71,9.71,0,0,0,.17,2.08q.63,0,1.27.06a12.33,12.33,0,0,1-.4-1.62A17.72,17.72,0,0,1,109.55,40.52Zm3.69-17,.46-.87a15.32,15.32,0,0,1-3.58-1.79l-.52.81A17.48,17.48,0,0,0,113.24,23.5Zm-1.73,17.07q-.64,0-1.38-.06a16.14,16.14,0,0,0,.29,2.48,11.6,11.6,0,0,0,.4,1.73q.81.06,1.5.06Q112.14,44.15,111.51,40.58ZM114,22.12l.4-.69a13.41,13.41,0,0,0-3.63-1.5l-.29.46a14.28,14.28,0,0,0,3.4,1.67A.17.17,0,0,1,114,22.12Zm-.92-16.56a10.1,10.1,0,0,0-1.62-.35,33.06,33.06,0,0,1-.52,4.5l.29.12Zm1.56,15.34.75-1.38v-.06a14.39,14.39,0,0,0-2.31-.92l-1.38-.4q-.29.64-.63,1.27A14.69,14.69,0,0,1,114.62,20.91Zm.46-14.36a6.92,6.92,0,0,0-1.5-.81q-1,2.6-1.9,4.44l.06.06.81-1q.46-.58.69-.84t1-1a6.12,6.12,0,0,0,.78-.81Zm1.56,10.33q-2.31-.4-4.15-.69-.23.69-.52,1.44l1.27.4a13.81,13.81,0,0,1,2.37,1l.12-.17Zm-4.56,23.71q.63,3.52.87,4.27h1.5a11.83,11.83,0,0,1-1.15-2,7.16,7.16,0,0,1-.58-2.25Zm3.46-33.69a.17.17,0,0,0-.06.12q-.23.17-.75.63l-.69.81a5.3,5.3,0,0,0-.66.66q-.38.43-.66.81a6.81,6.81,0,0,0-.52.78v.06a23.5,23.5,0,0,1,4.38-2.6,7.24,7.24,0,0,0-.63-.87A2,2,0,0,0,115.55,6.89Zm1.67,2.71a4.3,4.3,0,0,0-.35-1,26.65,26.65,0,0,0-4.33,2.6c0,.12.08.25.12.4l2-.92Q116.35,9.95,117.22,9.6Zm-.35,6.75a9,9,0,0,0,.58-1.73q-2.19.06-4.61,0a2.71,2.71,0,0,1-.06.52q-.06.23-.12.52,1.85.23,4.1.63A.17.17,0,0,1,116.87,16.35Zm.69-4.85q-.06-.69-.17-1.33-.92.35-2.51,1.07t-2,.89q.06.23.12.52.87-.29,2.65-.69Q117.16,11.62,117.57,11.51Zm.06.58q-.64.17-1.9.46-2,.46-2.77.69V14q2.36.06,4.61,0Q117.62,13,117.62,12.08Zm-4.33,28.5a6,6,0,0,0,.58,2,11.54,11.54,0,0,0,.69,1.38q.06-1.73-.06-3.46A12.11,12.11,0,0,1,113.3,40.58Z"/>
</svg>
