<?xml version="1.0" encoding="utf-8"?>
<!-- Generator: Adobe Illustrator 21.1.0, SVG Export Plug-In . SVG Version: 6.00 Build 0)  -->
<svg version="1.1" xmlns="http://www.w3.org/2000/svg" xmlns:xlink="http://www.w3.org/1999/xlink" x="0px" y="0px"
	 viewBox="0 0 365.9 165.5" style="enable-background:new 0 0 365.9 165.5;" xml:space="preserve">
<style type="text/css">
	.st0{fill:#D22020;}
	.st1{fill:#FFFFFF;stroke:#000000;stroke-miterlimit:10;}
	.st2{fill:none;stroke:#000000;stroke-width:4;stroke-miterlimit:10;}
	.st3{fill:#FFFFFF;}
</style>
<g id="back">
	<rect x="23.8" y="56.2" class="st0" width="86" height="86"/>
	<path d="M124.2,121.7v-13.3h1.8v6.6l6.6-6.6h2.4l-5.6,5.4l5.8,7.9h-2.3l-4.7-6.7l-2.2,2.1v4.6H124.2z"/>
	<path d="M136.1,115.3c0-2.2,0.6-3.9,1.8-5.2c1.2-1.2,2.7-1.9,4.6-1.9c1.2,0,2.3,0.3,3.3,0.9s1.7,1.4,2.3,2.4c0.5,1,0.8,2.2,0.8,3.6
		c0,1.3-0.3,2.6-0.8,3.6c-0.5,1.1-1.3,1.9-2.3,2.4s-2.1,0.8-3.2,0.8c-1.2,0-2.4-0.3-3.4-0.9s-1.7-1.4-2.2-2.5
		C136.3,117.5,136.1,116.4,136.1,115.3z M137.9,115.3c0,1.6,0.4,2.9,1.3,3.8c0.9,0.9,1.9,1.4,3.2,1.4s2.4-0.5,3.3-1.4s1.3-2.2,1.3-4
		c0-1.1-0.2-2-0.5-2.8c-0.4-0.8-0.9-1.4-1.6-1.9c-0.7-0.4-1.5-0.7-2.4-0.7c-1.2,0-2.3,0.4-3.2,1.3
		C138.4,111.9,137.9,113.3,137.9,115.3z"/>
	<path d="M151,121.7v-13.3h2.6l3.1,9.4c0.3,0.9,0.5,1.5,0.6,2c0.2-0.5,0.4-1.2,0.7-2.1l3.2-9.2h2.4v13.3H162v-11.1l-3.9,11.1h-1.6
		l-3.8-11.3v11.3H151V121.7z"/>
	<path d="M166.4,121.7v-13.3h2.6l3.1,9.4c0.3,0.9,0.5,1.5,0.6,2c0.2-0.5,0.4-1.2,0.7-2.1l3.2-9.2h2.4v13.3h-1.7v-11.1l-3.9,11.1H172
		l-3.8-11.3v11.3h-1.8V121.7z"/>
	<path d="M190.7,108.5h1.8v7.7c0,1.3-0.2,2.4-0.5,3.2c-0.3,0.8-0.8,1.4-1.6,1.9s-1.8,0.7-3.1,0.7c-1.2,0-2.3-0.2-3.1-0.6
		s-1.4-1-1.7-1.9c-0.3-0.8-0.5-1.9-0.5-3.3v-7.7h1.8v7.7c0,1.2,0.1,2,0.3,2.5s0.6,1,1.1,1.3s1.2,0.4,1.9,0.4c1.3,0,2.2-0.3,2.8-0.9
		c0.5-0.6,0.8-1.7,0.8-3.4V108.5z"/>
	<path d="M195.3,121.7v-13.3h1.8l7,10.4v-10.4h1.7v13.3H204l-7-10.4v10.4H195.3z"/>
	<path d="M207.3,121.7l5.1-13.3h1.9l5.4,13.3h-2l-1.5-4h-5.6l-1.5,4H207.3z M211.1,116.3h4.5l-1.4-3.7c-0.4-1.1-0.7-2-0.9-2.8
		c-0.2,0.9-0.4,1.7-0.7,2.5L211.1,116.3z"/>
	<path d="M221,121.7v-13.3h1.8v11.7h6.5v1.6C229.3,121.7,221,121.7,221,121.7z"/>
	<g>
		<path d="M123.7,134.5c0-2.2,0.6-3.9,1.8-5.2c1.2-1.2,2.7-1.9,4.6-1.9c1.2,0,2.3,0.3,3.3,0.9c1,0.6,1.7,1.4,2.3,2.4
			c0.5,1,0.8,2.2,0.8,3.6c0,1.3-0.3,2.6-0.8,3.6c-0.5,1.1-1.3,1.9-2.3,2.4s-2.1,0.8-3.2,0.8c-1.2,0-2.4-0.3-3.4-0.9
			s-1.7-1.4-2.2-2.5C124,136.8,123.7,135.7,123.7,134.5z M125.5,134.5c0,1.6,0.4,2.9,1.3,3.8c0.9,0.9,1.9,1.4,3.2,1.4
			s2.4-0.5,3.3-1.4c0.9-0.9,1.3-2.2,1.3-4c0-1.1-0.2-2-0.5-2.8c-0.4-0.8-0.9-1.4-1.6-1.9c-0.7-0.4-1.5-0.7-2.4-0.7
			c-1.2,0-2.3,0.4-3.2,1.3C126,131.1,125.5,132.5,125.5,134.5z"/>
		<path d="M144.9,135.8v-1.6h5.6v4.9c-0.9,0.7-1.8,1.2-2.7,1.6c-0.9,0.3-1.9,0.5-2.8,0.5c-1.3,0-2.5-0.3-3.6-0.8
			c-1.1-0.6-1.9-1.4-2.4-2.4c-0.5-1.1-0.8-2.2-0.8-3.5s0.3-2.5,0.8-3.6s1.3-2,2.3-2.5s2.2-0.8,3.5-0.8c1,0,1.8,0.2,2.6,0.5
			s1.4,0.7,1.8,1.3c0.4,0.6,0.8,1.3,1,2.2l-1.6,0.4c-0.2-0.7-0.4-1.2-0.7-1.6c-0.3-0.4-0.7-0.7-1.3-0.9c-0.5-0.2-1.2-0.3-1.8-0.3
			c-0.8,0-1.5,0.1-2.1,0.4c-0.6,0.2-1.1,0.6-1.4,1c-0.4,0.4-0.6,0.8-0.8,1.3c-0.3,0.8-0.5,1.7-0.5,2.7c0,1.2,0.2,2.2,0.6,3
			c0.4,0.8,1,1.4,1.8,1.8s1.6,0.6,2.5,0.6c0.8,0,1.5-0.1,2.2-0.4c0.7-0.3,1.3-0.6,1.6-0.9v-2.5h-3.8L144.9,135.8L144.9,135.8z"/>
		<path d="M158.3,141v-13.3h5.9c1.2,0,2.1,0.1,2.7,0.4c0.6,0.2,1.1,0.7,1.5,1.3s0.6,1.3,0.6,2c0,0.9-0.3,1.7-0.9,2.4
			c-0.6,0.6-1.6,1.1-2.8,1.2c0.5,0.2,0.8,0.4,1.1,0.7c0.5,0.5,1,1.1,1.5,1.8l2.3,3.6H168l-1.8-2.8c-0.5-0.8-0.9-1.4-1.3-1.8
			c-0.3-0.4-0.6-0.7-0.9-0.9c-0.3-0.2-0.5-0.3-0.8-0.4c-0.2,0-0.5-0.1-1-0.1h-2v5.9L158.3,141L158.3,141z M160,133.6h3.8
			c0.8,0,1.4-0.1,1.9-0.2c0.5-0.2,0.8-0.4,1-0.8c0.2-0.4,0.4-0.8,0.4-1.2c0-0.6-0.2-1.1-0.7-1.5s-1.2-0.6-2.2-0.6H160V133.6z"/>
		<path d="M171.7,141v-13.3h9.6v1.6h-7.8v4.1h7.3v1.6h-7.3v4.5h8.1v1.6h-9.9L171.7,141L171.7,141z"/>
		<path d="M190.2,135.8v-1.6h5.6v4.9c-0.9,0.7-1.8,1.2-2.7,1.6c-0.9,0.3-1.9,0.5-2.8,0.5c-1.3,0-2.5-0.3-3.6-0.8
			c-1.1-0.6-1.9-1.4-2.4-2.4c-0.5-1.1-0.8-2.2-0.8-3.5s0.3-2.5,0.8-3.6s1.3-2,2.3-2.5s2.2-0.8,3.5-0.8c1,0,1.8,0.2,2.6,0.5
			s1.4,0.7,1.8,1.3c0.4,0.6,0.8,1.3,1,2.2l-1.6,0.4c-0.2-0.7-0.4-1.2-0.7-1.6c-0.3-0.4-0.7-0.7-1.3-0.9c-0.5-0.2-1.2-0.3-1.8-0.3
			c-0.8,0-1.5,0.1-2.1,0.4c-0.6,0.2-1.1,0.6-1.4,1c-0.4,0.4-0.6,0.8-0.8,1.3c-0.3,0.8-0.5,1.7-0.5,2.7c0,1.2,0.2,2.2,0.6,3
			c0.4,0.8,1,1.4,1.8,1.8c0.8,0.4,1.6,0.6,2.5,0.6c0.8,0,1.5-0.1,2.2-0.4c0.7-0.3,1.3-0.6,1.6-0.9v-2.5h-3.8L190.2,135.8
			L190.2,135.8z"/>
		<path d="M198.7,141v-13.3h1.8V141H198.7z"/>
		<path d="M203.1,134.5c0-2.2,0.6-3.9,1.8-5.2c1.2-1.2,2.7-1.9,4.6-1.9c1.2,0,2.3,0.3,3.3,0.9c1,0.6,1.7,1.4,2.2,2.4
			s0.8,2.2,0.8,3.6c0,1.3-0.3,2.6-0.8,3.6c-0.5,1.1-1.3,1.9-2.3,2.4s-2.1,0.8-3.2,0.8c-1.2,0-2.4-0.3-3.4-0.9s-1.7-1.4-2.2-2.5
			C203.3,136.8,203.1,135.7,203.1,134.5z M204.9,134.5c0,1.6,0.4,2.9,1.3,3.8c0.9,0.9,1.9,1.4,3.2,1.4s2.4-0.5,3.3-1.4
			c0.9-0.9,1.3-2.2,1.3-4c0-1.1-0.2-2-0.5-2.8c-0.4-0.8-0.9-1.4-1.6-1.9c-0.7-0.4-1.5-0.7-2.4-0.7c-1.2,0-2.3,0.4-3.2,1.3
			C205.3,131.1,204.9,132.5,204.9,134.5z"/>
		<path d="M218,141v-13.3h1.8l7,10.4v-10.4h1.7V141h-1.8l-7-10.4V141H218z"/>
		<path d="M230.8,136.7l1.7-0.1c0.1,0.7,0.3,1.2,0.5,1.6c0.3,0.4,0.7,0.8,1.3,1c0.6,0.3,1.3,0.4,2,0.4s1.3-0.1,1.8-0.3
			s0.9-0.5,1.1-0.8c0.3-0.3,0.4-0.7,0.4-1.1c0-0.4-0.1-0.8-0.4-1.1c-0.2-0.3-0.6-0.6-1.2-0.8c-0.4-0.1-1.1-0.4-2.4-0.6
			c-1.2-0.3-2.1-0.6-2.6-0.8c-0.6-0.3-1.1-0.7-1.4-1.2c-0.3-0.5-0.5-1-0.5-1.7s0.2-1.3,0.6-1.9c0.4-0.6,0.9-1,1.7-1.3
			c0.7-0.3,1.5-0.5,2.4-0.5c1,0,1.9,0.2,2.6,0.5c0.8,0.3,1.3,0.8,1.7,1.4c0.4,0.6,0.6,1.3,0.7,2.1l-1.7,0.1
			c-0.1-0.8-0.4-1.5-0.9-1.9s-1.3-0.6-2.3-0.6c-1.1,0-1.8,0.2-2.3,0.6c-0.5,0.4-0.7,0.9-0.7,1.4s0.2,0.9,0.5,1.2s1.2,0.6,2.6,0.9
			c1.4,0.3,2.4,0.6,2.9,0.8c0.8,0.4,1.3,0.8,1.7,1.4c0.4,0.5,0.6,1.2,0.6,1.9s-0.2,1.4-0.6,2c-0.4,0.6-1,1.1-1.7,1.5
			c-0.8,0.3-1.6,0.5-2.6,0.5c-1.2,0-2.2-0.2-3-0.5c-0.8-0.4-1.4-0.9-1.9-1.6C231.1,138.4,230.8,137.6,230.8,136.7z"/>
		<path d="M243.8,141v-13.3h5.9c1.2,0,2.1,0.1,2.7,0.4c0.6,0.2,1.1,0.7,1.5,1.3s0.6,1.3,0.6,2c0,0.9-0.3,1.7-0.9,2.4
			c-0.6,0.6-1.6,1.1-2.8,1.2c0.5,0.2,0.8,0.4,1.1,0.7c0.5,0.5,1,1.1,1.5,1.8l2.3,3.6h-2.2l-1.8-2.8c-0.5-0.8-0.9-1.4-1.3-1.8
			c-0.3-0.4-0.6-0.7-0.9-0.9c-0.3-0.2-0.5-0.3-0.8-0.4c-0.2,0-0.5-0.1-1-0.1h-2v5.9L243.8,141L243.8,141z M245.6,133.6h3.8
			c0.8,0,1.4-0.1,1.9-0.2c0.5-0.2,0.8-0.4,1-0.8c0.2-0.4,0.4-0.8,0.4-1.2c0-0.6-0.2-1.1-0.7-1.5s-1.2-0.6-2.2-0.6h-4.2V133.6z"/>
		<path d="M255.7,141l5.1-13.3h1.9l5.4,13.3h-2l-1.5-4H259l-1.5,4H255.7z M259.5,135.5h4.5l-1.4-3.7c-0.4-1.1-0.7-2-0.9-2.8
			c-0.2,0.9-0.4,1.7-0.7,2.5L259.5,135.5z M260.1,126.5c0-0.4,0.2-0.8,0.5-1.1c0.3-0.3,0.7-0.5,1.1-0.5s0.8,0.2,1.1,0.5
			c0.3,0.3,0.5,0.7,0.5,1.2s-0.2,0.9-0.5,1.2s-0.7,0.5-1.1,0.5c-0.5,0-0.8-0.2-1.2-0.5S260.1,127,260.1,126.5z M260.8,126.5
			c0,0.3,0.1,0.5,0.3,0.7c0.2,0.2,0.4,0.3,0.7,0.3c0.3,0,0.5-0.1,0.7-0.3c0.2-0.2,0.3-0.4,0.3-0.7s-0.1-0.5-0.3-0.7
			c-0.2-0.2-0.4-0.3-0.7-0.3c-0.3,0-0.5,0.1-0.7,0.3C260.9,126,260.8,126.2,260.8,126.5z"/>
		<path d="M269.5,141v-13.3h4.6c1,0,1.8,0.1,2.4,0.2c0.8,0.2,1.4,0.5,1.9,1c0.7,0.6,1.2,1.3,1.6,2.3c0.3,0.9,0.5,2,0.5,3.2
			c0,1-0.1,1.9-0.4,2.7c-0.2,0.8-0.5,1.4-0.9,1.9s-0.8,0.9-1.2,1.2c-0.4,0.3-1,0.5-1.6,0.7s-1.3,0.2-2.1,0.2L269.5,141L269.5,141z
			 M271.3,139.4h2.8c0.9,0,1.6-0.1,2.1-0.2c0.5-0.2,0.9-0.4,1.2-0.7c0.4-0.4,0.7-1,1-1.7c0.2-0.7,0.3-1.6,0.3-2.6
			c0-1.4-0.2-2.5-0.7-3.2s-1-1.2-1.7-1.5c-0.5-0.2-1.2-0.3-2.3-0.3h-2.8v10.2H271.3z"/>
		<path d="M282.3,136.7l1.7-0.1c0.1,0.7,0.3,1.2,0.5,1.6c0.3,0.4,0.7,0.8,1.3,1s1.3,0.4,2,0.4s1.3-0.1,1.8-0.3s0.9-0.5,1.1-0.8
			c0.3-0.3,0.4-0.7,0.4-1.1c0-0.4-0.1-0.8-0.4-1.1c-0.2-0.3-0.6-0.6-1.2-0.8c-0.4-0.1-1.1-0.4-2.4-0.6c-1.2-0.3-2.1-0.6-2.6-0.8
			c-0.6-0.3-1.1-0.7-1.4-1.2s-0.5-1-0.5-1.7s0.2-1.3,0.6-1.9c0.4-0.6,0.9-1,1.7-1.3c0.7-0.3,1.5-0.5,2.4-0.5c1,0,1.9,0.2,2.6,0.5
			c0.8,0.3,1.3,0.8,1.7,1.4c0.4,0.6,0.6,1.3,0.7,2.1l-1.7,0.1c-0.1-0.8-0.4-1.5-0.9-1.9s-1.3-0.6-2.3-0.6c-1.1,0-1.8,0.2-2.3,0.6
			c-0.5,0.4-0.7,0.9-0.7,1.4s0.2,0.9,0.5,1.2s1.2,0.6,2.6,0.9c1.4,0.3,2.4,0.6,2.9,0.8c0.8,0.4,1.3,0.8,1.7,1.4
			c0.4,0.5,0.6,1.2,0.6,1.9s-0.2,1.4-0.6,2s-1,1.1-1.7,1.5c-0.8,0.3-1.6,0.5-2.6,0.5c-1.2,0-2.2-0.2-3-0.5c-0.8-0.4-1.4-0.9-1.9-1.6
			S282.4,137.6,282.3,136.7z"/>
		<path d="M299.1,141l-5.1-13.3h1.9l3.4,9.6c0.3,0.8,0.5,1.5,0.7,2.2c0.2-0.7,0.4-1.4,0.7-2.2l3.6-9.6h1.8l-5.2,13.3H299.1z"/>
		<path d="M304.8,141l5.1-13.3h1.9l5.4,13.3h-2l-1.5-4h-5.6l-1.5,4H304.8z M308.7,135.5h4.5l-1.4-3.7c-0.4-1.1-0.7-2-0.9-2.8
			c-0.2,0.9-0.4,1.7-0.7,2.5L308.7,135.5z"/>
		<path d="M318.6,141v-13.3h1.8v11.7h6.5v1.6H318.6z"/>
		<path d="M335.2,135.8v-1.6h5.6v4.9c-0.9,0.7-1.8,1.2-2.7,1.6c-0.9,0.3-1.9,0.5-2.8,0.5c-1.3,0-2.5-0.3-3.6-0.8
			c-1.1-0.6-1.9-1.4-2.4-2.4c-0.5-1.1-0.8-2.2-0.8-3.5s0.3-2.5,0.8-3.6s1.3-2,2.3-2.5s2.2-0.8,3.5-0.8c1,0,1.8,0.2,2.6,0.5
			c0.8,0.3,1.4,0.7,1.8,1.3s0.8,1.3,1,2.2l-1.6,0.4c-0.2-0.7-0.4-1.2-0.7-1.6c-0.3-0.4-0.7-0.7-1.3-0.9c-0.5-0.2-1.2-0.3-1.8-0.3
			c-0.8,0-1.5,0.1-2.1,0.4c-0.6,0.2-1.1,0.6-1.4,1c-0.4,0.4-0.6,0.8-0.8,1.3c-0.3,0.8-0.5,1.7-0.5,2.7c0,1.2,0.2,2.2,0.6,3
			s1,1.4,1.8,1.8c0.8,0.4,1.6,0.6,2.5,0.6c0.8,0,1.5-0.1,2.2-0.4c0.7-0.3,1.3-0.6,1.6-0.9v-2.5h-3.8L335.2,135.8L335.2,135.8z"/>
	</g>
	<rect x="36.3" y="69.5" width="61" height="18.4"/>
	<g>
		<rect x="234" y="108.5" class="st0" width="5.8" height="5.8"/>
		<rect x="241.6" y="108.5" class="st0" width="11.3" height="5.8"/>
		<rect x="241.6" y="115.9" class="st0" width="11.3" height="5.8"/>
		<rect x="234" y="115.9" class="st0" width="5.8" height="5.8"/>
	</g>
</g>
<g id="cross">

		<rect x="46.9" y="23.8" transform="matrix(0.2703 -0.9628 0.9628 0.2703 6.0938 100.435)" class="st1" width="44.8" height="44.8"/>
	<g>
		<line class="st2" x1="59" y1="27.8" x2="79.6" y2="64.6"/>
		<line class="st2" x1="87.7" y1="35.9" x2="51" y2="56.5"/>
	</g>
</g>
<g id="front">
	<rect x="23.8" y="75.6" class="st0" width="86" height="66.6"/>
	<g>
		<path class="st3" d="M36.5,128v1h-5.7c0-0.3,0-0.5,0.1-0.7c0.1-0.4,0.4-0.8,0.7-1.1s0.8-0.8,1.4-1.3c0.9-0.8,1.6-1.4,1.9-1.8
			s0.5-0.9,0.5-1.3s-0.1-0.8-0.4-1.1s-0.7-0.4-1.2-0.4s-0.9,0.2-1.2,0.5s-0.5,0.7-0.5,1.3L31,123c0.1-0.8,0.4-1.4,0.8-1.8
			c0.4-0.4,1.1-0.6,2-0.6c0.8,0,1.5,0.2,2,0.7s0.7,1,0.7,1.7c0,0.3-0.1,0.7-0.2,1s-0.4,0.7-0.7,1s-0.9,0.9-1.6,1.5
			c-0.6,0.5-1,0.9-1.2,1.1s-0.3,0.4-0.4,0.6h4.1C36.5,128.2,36.5,128,36.5,128z"/>
		<path class="st3" d="M41.6,129h-1.1v-6.7c-0.3,0.2-0.6,0.5-1,0.7s-0.8,0.4-1.1,0.5v-1c0.6-0.3,1.1-0.6,1.5-1s0.8-0.8,0.9-1.1h0.7
			L41.6,129L41.6,129z"/>
		<path class="st3" d="M48,129v-8.6h1.2l4.5,6.7v-6.7h1.1v8.6h-1.2l-4.5-6.8v6.8H48z"/>
		<path class="st3" d="M56.4,124.8c0-1.4,0.4-2.5,1.1-3.3s1.8-1.2,3-1.2c0.8,0,1.5,0.2,2.1,0.6s1.1,0.9,1.5,1.6s0.5,1.4,0.5,2.3
			s-0.2,1.7-0.5,2.3s-0.8,1.2-1.5,1.6s-1.3,0.5-2.1,0.5s-1.5-0.2-2.2-0.6s-1.1-0.9-1.4-1.6S56.4,125.6,56.4,124.8z M57.5,124.8
			c0,1,0.3,1.9,0.8,2.4s1.3,0.9,2.1,0.9c0.9,0,1.6-0.3,2.1-0.9s0.8-1.5,0.8-2.6c0-0.7-0.1-1.3-0.4-1.8s-0.6-0.9-1-1.2
			s-1-0.4-1.5-0.4c-0.8,0-1.5,0.3-2.1,0.8S57.5,123.6,57.5,124.8z"/>
		<path class="st3" d="M68.5,129l-3.3-8.6h1.2l2.2,6.2c0.2,0.5,0.3,1,0.5,1.4c0.1-0.5,0.3-0.9,0.5-1.4l2.3-6.2H73l-3.4,8.6H68.5z"/>
		<path class="st3" d="M82.5,128v1h-5.7c0-0.3,0-0.5,0.1-0.7c0.1-0.4,0.4-0.8,0.7-1.1s0.8-0.8,1.4-1.3c0.9-0.8,1.6-1.4,1.9-1.8
			s0.5-0.9,0.5-1.3s-0.1-0.8-0.4-1.1s-0.7-0.4-1.2-0.4s-0.9,0.2-1.2,0.5s-0.5,0.7-0.5,1.3L77,123c0.1-0.8,0.4-1.4,0.8-1.8
			s1.1-0.6,2-0.6c0.8,0,1.5,0.2,2,0.7s0.7,1,0.7,1.7c0,0.3-0.1,0.7-0.2,1s-0.4,0.7-0.7,1s-0.9,0.9-1.6,1.5c-0.6,0.5-1,0.9-1.2,1.1
			s-0.3,0.4-0.4,0.6h4.1C82.5,128.2,82.5,128,82.5,128z"/>
		<path class="st3" d="M83.6,124.8c0-1,0.1-1.8,0.3-2.5s0.5-1.1,0.9-1.4s0.9-0.5,1.6-0.5c0.5,0,0.9,0.1,1.2,0.3s0.6,0.5,0.9,0.8
			s0.4,0.8,0.5,1.3s0.2,1.2,0.2,2c0,1-0.1,1.8-0.3,2.4s-0.5,1.1-0.9,1.4s-0.9,0.5-1.6,0.5c-0.8,0-1.5-0.3-2-0.9
			C83.9,127.6,83.6,126.4,83.6,124.8z M84.7,124.8c0,1.4,0.2,2.3,0.5,2.8s0.7,0.7,1.2,0.7s0.9-0.2,1.2-0.7s0.5-1.4,0.5-2.8
			s-0.2-2.4-0.5-2.8s-0.7-0.7-1.2-0.7s-0.9,0.2-1.2,0.6C84.9,122.4,84.7,123.4,84.7,124.8z"/>
		<path class="st3" d="M94.3,129h-1.1v-6.7c-0.3,0.2-0.6,0.5-1,0.7s-0.8,0.4-1.1,0.5v-1c0.6-0.3,1.1-0.6,1.5-1s0.8-0.8,0.9-1.1h0.7
			L94.3,129L94.3,129z"/>
		<path class="st3" d="M97,121.5v-1h5.6v0.8c-0.5,0.6-1.1,1.4-1.6,2.3s-1,2-1.2,3c-0.2,0.7-0.3,1.5-0.4,2.4h-1.1
			c0-0.7,0.1-1.5,0.4-2.4s0.6-1.9,1.1-2.8s1-1.6,1.5-2.2L97,121.5L97,121.5z"/>
	</g>
</g>
</svg>
